<svg id="Layer_1" data-name="Layer 1" xmlns="http://www.w3.org/2000/svg" viewBox="0 0 822 1122"><defs><style>.cls-1{fill:none;stroke:#d89d70;stroke-miterlimit:10;}.cls-2,.cls-3{fill:#d89d70;}.cls-3{font-size:192px;font-family:HelveticaNeue-Bold, Helvetica Neue;font-weight:700;}.cls-4{fill:#6f9797;}.cls-5{letter-spacing:-0.07em;}</style></defs><path class="cls-1" d="M822,1122v-5.17q-7.47,2.88-15.1,5.17Z"/><path class="cls-1" d="M564.21,1028.5,614.5,1122h77.15a201.09,201.09,0,0,1-85.37-51.18Z"/><path class="cls-1" d="M508.86,1070.29A201,201,0,0,1,421.64,1122h83.47l51.27-99.5Z"/><path class="cls-1" d="M222.87,1070.29c-79-79.43-79-208.21,0-287.64l48.45-48.73,286-287.65L822,712.5V0H-.5V1122H310.09a201,201,0,0,1-87.22-51.71Z"/><path class="cls-2" d="M559.37,1019.49l4.84,9,42.07,42.32A201.09,201.09,0,0,0,691.65,1122H806.9q7.64-2.28,15.1-5.17V755.33Z"/><path class="cls-2" d="M556.38,1022.5l.63-1.24L271.32,733.92l-48.45,48.73c-79,79.43-79,208.21,0,287.64h0A201,201,0,0,0,310.09,1122H421.64a201,201,0,0,0,87.22-51.71Z"/><polygon class="cls-2" points="271.32 733.92 557.01 1021.26 558.63 1018.13 559.37 1019.49 822 755.33 822 712.5 557.31 446.27 271.32 733.92"/><path class="cls-2" d="M556.31,1001.47c2,40.18,1.44,40.74-1.31,1.32,2.75,39.42-28,99.12-71.77,139.3,43.76-40.18,109.39-40.18,153.15,0-43.76-40.18-73.93-96.28-70.41-130.9C562.45,1045.81,558.31,1041.65,556.31,1001.47Z"/><path class="cls-1" d="M556.31,1001.47c2,40.18,1.44,40.74-1.31,1.32,2.75,39.42-28,99.12-71.77,139.3,43.76-40.18,109.39-40.18,153.15,0-43.76-40.18-73.93-96.28-70.41-130.9C562.45,1045.81,558.31,1041.65,556.31,1001.47Z"/><path class="cls-2" d="M565.59,1030.3a47.21,47.21,0,0,1-6.78-12.61c1.11,3.6-.12,4.84-2.88,2.89A53.82,53.82,0,0,1,565.59,1030.3Z"/><path class="cls-1" d="M565.59,1030.3a47.21,47.21,0,0,1-6.78-12.61c1.11,3.6-.12,4.84-2.88,2.89A53.82,53.82,0,0,1,565.59,1030.3Z"/><path class="cls-2" d="M556.19,1022.75a6.55,6.55,0,0,1,1.31-1.32c-.38.26-.56.08-.42-.41A6.34,6.34,0,0,1,556.19,1022.75Z"/><path class="cls-1" d="M556.19,1022.75a6.55,6.55,0,0,1,1.31-1.32c-.38.26-.56.08-.42-.41A6.34,6.34,0,0,1,556.19,1022.75Z"/><path class="cls-2" d="M556.54,1021.83c.94-1.14,1.12-1,.42.42a6,6,0,0,1,2.88-2.9c-1,.28-1.39-.54-1-1.91A13.23,13.23,0,0,1,556.54,1021.83Z"/><path class="cls-1" d="M556.54,1021.83c.94-1.14,1.12-1,.42.42a6,6,0,0,1,2.88-2.9c-1,.28-1.39-.54-1-1.91A13.23,13.23,0,0,1,556.54,1021.83Z"/><text class="cls-3" transform="translate(24.55 209.68)">Dexter <tspan x="0" y="230.4">and </tspan><tspan class="cls-4"><tspan x="0" y="460.8">Gwen</tspan><tspan class="cls-5" x="526.07" y="460.8">’</tspan><tspan x="565.24" y="460.8">s </tspan><tspan x="0" y="691.2">Casino</tspan></tspan></text><rect class="cls-1" x="801.5" y="564" width="6" height="6"/></svg>