<svg id="Layer_1" data-name="Layer 1" xmlns="http://www.w3.org/2000/svg" viewBox="0 0 822 1122"><defs><style>.cls-1{font-size:176.01px;font-family:HelveticaNeue-Bold, Helvetica Neue;font-weight:700;}.cls-1,.cls-3{fill:#d89d70;}.cls-2{fill:#d6bd80;}</style></defs><text class="cls-1" transform="translate(15.75 142.39)">9</text><circle class="cls-2" cx="39.17" cy="125.55" r="9.57"/><circle class="cls-2" cx="89.73" cy="120.09" r="9.57"/><circle class="cls-2" cx="97.94" cy="95.49" r="9.57"/><circle class="cls-2" cx="97.94" cy="69.52" r="9.57"/><circle class="cls-2" cx="92.47" cy="44.92" r="9.57"/><circle class="cls-2" cx="73.34" cy="28.51" r="9.57"/><circle class="cls-2" cx="48.74" cy="31.24" r="9.57"/><circle class="cls-2" cx="35.07" cy="50.38" r="9.57"/><circle class="cls-2" cx="35.07" cy="76.34" r="9.57"/><circle class="cls-2" cx="52.83" cy="91.38" r="9.57"/><circle class="cls-2" cx="65.13" cy="136.48" r="9.57"/><text class="cls-1" transform="matrix(-1, -0.01, 0.01, -1, 785.99, 985.78)">9</text><circle class="cls-2" cx="762.38" cy="1002.35" r="9.57"/><circle class="cls-2" cx="711.75" cy="1007.23" r="9.57"/><circle class="cls-2" cx="703.27" cy="1031.73" r="9.57"/><circle class="cls-2" cx="702.97" cy="1057.7" r="9.57"/><circle class="cls-2" cx="708.15" cy="1082.36" r="9.57"/><circle class="cls-2" cx="727.09" cy="1098.99" r="9.57"/><circle class="cls-2" cx="751.72" cy="1096.54" r="9.57"/><circle class="cls-2" cx="765.61" cy="1077.57" r="9.57"/><circle class="cls-2" cx="765.91" cy="1051.6" r="9.57"/><circle class="cls-2" cx="748.32" cy="1036.36" r="9.57"/><circle class="cls-2" cx="736.54" cy="991.12" r="9.57"/><path class="cls-3" d="M179.67,263.25a54.39,54.39,0,0,0,76.9,0h0a54.38,54.38,0,0,0,0-76.91L243.4,173.17l-76.9,76.91Z"/><path class="cls-3" d="M76.57,186.2a54.38,54.38,0,0,0,0,76.91h0a54.39,54.39,0,0,0,76.9,0l13-13L89.6,173.17Z"/><rect class="cls-3" x="112.12" y="118.8" width="108.76" height="108.76" transform="translate(-73.69 168.45) rotate(-45)"/><path class="cls-3" d="M123.06,321.62c25-24.15,43.78-60.38,43.81-84.54,0,24.16,18.71,58.79,43.72,80.81"/><path class="cls-3" d="M179.67,502.25a54.39,54.39,0,0,0,76.9,0h0a54.38,54.38,0,0,0,0-76.91L243.4,412.17l-76.9,76.91Z"/><path class="cls-3" d="M76.57,425.2a54.38,54.38,0,0,0,0,76.91h0a54.39,54.39,0,0,0,76.9,0l13-13L89.6,412.17Z"/><rect class="cls-3" x="112.12" y="357.8" width="108.76" height="108.76" transform="translate(-242.68 238.46) rotate(-45)"/><path class="cls-3" d="M123.06,560.62c25-24.15,43.78-60.38,43.81-84.54,0,24.16,18.71,58.79,43.72,80.81"/><path class="cls-3" d="M179.67,746.25a54.39,54.39,0,0,0,76.9,0h0a54.38,54.38,0,0,0,0-76.91L243.4,656.17l-76.9,76.91Z"/><path class="cls-3" d="M76.57,669.2a54.38,54.38,0,0,0,0,76.91h0a54.39,54.39,0,0,0,76.9,0l13-13L89.6,656.17Z"/><rect class="cls-3" x="112.12" y="601.8" width="108.76" height="108.76" transform="translate(-415.22 309.92) rotate(-45)"/><path class="cls-3" d="M123.06,804.62c25-24.15,43.78-60.38,43.81-84.54,0,24.16,18.71,58.79,43.72,80.81"/><path class="cls-3" d="M175.67,981.25a54.39,54.39,0,0,0,76.9,0h0a54.38,54.38,0,0,0,0-76.91L239.4,891.17l-76.9,76.91Z"/><path class="cls-3" d="M72.57,904.2a54.38,54.38,0,0,0,0,76.91h0a54.39,54.39,0,0,0,76.9,0l13-13L85.6,891.17Z"/><rect class="cls-3" x="108.12" y="836.8" width="108.76" height="108.76" transform="translate(-582.56 375.92) rotate(-45)"/><path class="cls-3" d="M119.06,1039.62c25-24.15,43.78-60.38,43.81-84.54,0,24.16,18.71,58.79,43.72,80.81"/><path class="cls-3" d="M626.67,970.25a54.39,54.39,0,0,0,76.9,0h0a54.38,54.38,0,0,0,0-76.91L690.4,880.17l-76.9,76.91Z"/><path class="cls-3" d="M523.57,893.2a54.38,54.38,0,0,0,0,76.91h0a54.39,54.39,0,0,0,76.9,0l13-13-76.9-76.91Z"/><rect class="cls-3" x="559.12" y="825.8" width="108.76" height="108.76" transform="translate(-442.69 691.61) rotate(-45)"/><path class="cls-3" d="M570.06,1028.62c25-24.15,43.78-60.38,43.81-84.54,0,24.16,18.71,58.79,43.72,80.81"/><path class="cls-3" d="M626.67,717.25a54.39,54.39,0,0,0,76.9,0h0a54.38,54.38,0,0,0,0-76.91L690.4,627.17l-76.9,76.91Z"/><path class="cls-3" d="M523.57,640.2a54.38,54.38,0,0,0,0,76.91h0a54.39,54.39,0,0,0,76.9,0l13-13-76.9-76.91Z"/><rect class="cls-3" x="559.12" y="572.8" width="108.76" height="108.76" transform="translate(-263.79 617.5) rotate(-45)"/><path class="cls-3" d="M570.06,775.62c25-24.15,43.78-60.38,43.81-84.54,0,24.16,18.71,58.79,43.72,80.81"/><path class="cls-3" d="M626.67,482.25a54.39,54.39,0,0,0,76.9,0h0a54.38,54.38,0,0,0,0-76.91L690.4,392.17l-76.9,76.91Z"/><path class="cls-3" d="M523.57,405.2a54.38,54.38,0,0,0,0,76.91h0a54.39,54.39,0,0,0,76.9,0l13-13-76.9-76.91Z"/><rect class="cls-3" x="559.12" y="337.8" width="108.76" height="108.76" transform="translate(-97.62 548.68) rotate(-45)"/><path class="cls-3" d="M570.06,540.62c25-24.15,43.78-60.38,43.81-84.54,0,24.16,18.71,58.79,43.72,80.81"/><path class="cls-3" d="M626.67,241.25a54.39,54.39,0,0,0,76.9,0h0a54.38,54.38,0,0,0,0-76.91L690.4,151.17l-76.9,76.91Z"/><path class="cls-3" d="M523.57,164.2a54.38,54.38,0,0,0,0,76.91h0a54.39,54.39,0,0,0,76.9,0l13-13-76.9-76.91Z"/><rect class="cls-3" x="559.12" y="96.8" width="108.76" height="108.76" transform="translate(72.79 478.09) rotate(-45)"/><path class="cls-3" d="M570.06,299.62c25-24.15,43.78-60.38,43.81-84.54,0,24.16,18.71,58.79,43.72,80.81"/><path class="cls-3" d="M408.67,582.25a54.39,54.39,0,0,0,76.9,0h0a54.38,54.38,0,0,0,0-76.91L472.4,492.17l-76.9,76.91Z"/><path class="cls-3" d="M305.57,505.2a54.38,54.38,0,0,0,0,76.91h0a54.39,54.39,0,0,0,76.9,0l13-13-76.9-76.91Z"/><rect class="cls-3" x="341.12" y="437.8" width="108.76" height="108.76" transform="translate(-232.18 423.82) rotate(-45)"/><path class="cls-3" d="M352.06,640.62c25-24.15,43.78-60.38,43.81-84.54,0,24.16,18.71,58.79,43.72,80.81"/><path class="cls-3" d="M759.78,888.38a21.66,21.66,0,0,0-30.61.9h0a21.66,21.66,0,0,0,.91,30.61l5.39,5.08,29.7-31.5Z"/><path class="cls-3" d="M801.71,917.83a21.65,21.65,0,0,0-.9-30.61h0a21.66,21.66,0,0,0-30.61.91l-5,5.34,31.51,29.69Z"/><rect class="cls-3" x="744.43" y="902.42" width="43.3" height="43.3" transform="translate(-431.82 847.74) rotate(-46.69)"/><path class="cls-3" d="M781.76,864.55c-9.94,9.76-17,24.4-16.44,34.17-.55-9.77-8.41-23.33-18.35-31.65"/><path class="cls-3" d="M39.08,215.12a21.65,21.65,0,0,0,30.57,1.7h0a21.65,21.65,0,0,0,1.7-30.57l-4.95-5.53L34.14,209.6Z"/><path class="cls-3" d="M-.21,182.23A21.65,21.65,0,0,0-1.9,212.8h0a21.64,21.64,0,0,0,30.57,1.69l5.47-4.89L5.26,177.33Z"/><rect class="cls-3" x="14.18" y="157.38" width="43.3" height="43.3" transform="translate(-110.26 69.52) rotate(-41.83)"/><path class="cls-3" d="M15.54,237.16c10-9.2,18.23-23.19,19.28-32.65-1,9.46,5.64,23.64,15.6,33.09"/></svg>