<svg id="Layer_1" data-name="Layer 1" xmlns="http://www.w3.org/2000/svg" viewBox="0 0 822 1122"><defs><style>.cls-1{font-size:153.12px;font-family:HelveticaNeue-Bold, Helvetica Neue;font-weight:700;}.cls-1,.cls-3{fill:#d89d70;}.cls-2{fill:#d6bd80;}</style></defs><text class="cls-1" transform="translate(15.67 129.36) rotate(-1.18)">5</text><circle class="cls-2" cx="79.95" cy="29.35" r="8.25"/><circle class="cls-2" cx="59.89" cy="29.33" r="8.25"/><circle class="cls-2" cx="39.86" cy="30.51" r="8.25"/><circle class="cls-2" cx="35.14" cy="50.53" r="8.25"/><circle class="cls-2" cx="32.79" cy="70.56" r="8.25"/><circle class="cls-2" cx="64.59" cy="64.68" r="8.25"/><circle class="cls-2" cx="81.09" cy="76.45" r="8.25"/><circle class="cls-2" cx="85.8" cy="98.84" r="8.25"/><circle class="cls-2" cx="74.03" cy="116.51" r="8.25"/><circle class="cls-2" cx="51.64" cy="120.05" r="8.25"/><circle class="cls-2" cx="31.61" cy="108.27" r="8.25"/><text class="cls-1" transform="translate(806.98 993.18) rotate(177.63)">5</text><circle class="cls-2" cx="744.78" cy="1094.5" r="8.25"/><circle class="cls-2" cx="764.84" cy="1094.1" r="8.25"/><circle class="cls-2" cx="784.84" cy="1092.51" r="8.25"/><circle class="cls-2" cx="789.14" cy="1072.39" r="8.25"/><circle class="cls-2" cx="791.08" cy="1052.32" r="8.25"/><circle class="cls-2" cx="759.41" cy="1058.86" r="8.25"/><circle class="cls-2" cx="742.67" cy="1047.43" r="8.25"/><circle class="cls-2" cx="737.49" cy="1025.15" r="8.25"/><circle class="cls-2" cx="748.9" cy="1007.23" r="8.25"/><circle class="cls-2" cx="771.21" cy="1003.23" r="8.25"/><circle class="cls-2" cx="791.48" cy="1014.59" r="8.25"/><path class="cls-3" d="M34.7,257.85c14.07-13.6,24.64-34,24.65-47.57,0,13.59,10.53,33.07,24.6,45.47"/><circle class="cls-3" cx="58.14" cy="168.68" r="27.68"/><circle class="cls-3" cx="33.08" cy="209.94" r="27.68"/><circle class="cls-3" cx="85.82" cy="209.94" r="27.68"/><ellipse class="cls-3" cx="59.19" cy="198.19" rx="7.83" ry="5.48"/><path class="cls-3" d="M786.75,874.79c-12.19,11.77-21.34,29.43-21.35,41.2,0-11.77-9.12-28.65-21.31-39.38"/><circle class="cls-3" cx="766.45" cy="952.02" r="23.97"/><circle class="cls-3" cx="788.16" cy="916.29" r="23.97"/><circle class="cls-3" cx="742.47" cy="916.29" r="23.97"/><ellipse class="cls-3" cx="765.54" cy="926.47" rx="6.78" ry="4.75"/><path class="cls-3" d="M166.27,468.46c32.54-34,57-85,57-119.06,0,34,24.34,82.79,56.88,113.8"/><ellipse class="cls-3" cx="220.48" cy="245.29" rx="64.01" ry="69.28"/><ellipse class="cls-3" cx="162.51" cy="348.55" rx="64.01" ry="69.28"/><ellipse class="cls-3" cx="284.49" cy="348.55" rx="64.01" ry="69.28"/><ellipse class="cls-3" cx="222.9" cy="319.14" rx="18.12" ry="13.72"/><path class="cls-3" d="M564.75,443.61c31.39-30.32,55-75.79,55-106.1,0,30.31,23.47,73.78,54.86,101.41"/><circle class="cls-3" cx="617.04" cy="244.74" r="61.73"/><circle class="cls-3" cx="561.13" cy="336.76" r="61.73"/><circle class="cls-3" cx="678.77" cy="336.76" r="61.73"/><ellipse class="cls-3" cx="619.37" cy="310.55" rx="17.47" ry="12.23"/><path class="cls-3" d="M372.75,725.61c31.39-30.32,54.95-75.79,55-106.1,0,30.31,23.47,73.78,54.86,101.41"/><circle class="cls-3" cx="425.04" cy="526.74" r="61.73"/><circle class="cls-3" cx="369.13" cy="618.76" r="61.73"/><circle class="cls-3" cx="486.77" cy="618.76" r="61.73"/><ellipse class="cls-3" cx="427.37" cy="592.55" rx="17.47" ry="12.23"/><path class="cls-3" d="M129.75,919.61c31.39-30.32,54.95-75.79,55-106.1,0,30.31,23.47,73.78,54.86,101.41"/><circle class="cls-3" cx="182.04" cy="720.74" r="61.73"/><circle class="cls-3" cx="126.13" cy="812.76" r="61.73"/><circle class="cls-3" cx="243.77" cy="812.76" r="61.73"/><ellipse class="cls-3" cx="184.37" cy="786.55" rx="17.47" ry="12.23"/><path class="cls-3" d="M578.75,901.61c31.39-30.32,55-75.79,55-106.1,0,30.31,23.47,73.78,54.86,101.41"/><circle class="cls-3" cx="631.04" cy="702.74" r="61.73"/><circle class="cls-3" cx="575.13" cy="794.76" r="61.73"/><circle class="cls-3" cx="692.77" cy="794.76" r="61.73"/><ellipse class="cls-3" cx="633.37" cy="768.55" rx="17.47" ry="12.23"/></svg>