<svg id="Layer_1" data-name="Layer 1" xmlns="http://www.w3.org/2000/svg" viewBox="0 0 822 1122"><defs><style>.cls-1{font-size:163.68px;}.cls-1,.cls-3,.cls-4{fill:#6f9797;}.cls-1,.cls-3{font-family:HelveticaNeue-Bold, Helvetica Neue;font-weight:700;}.cls-2{fill:#d6bd80;}.cls-3{font-size:166.3px;}</style></defs><text class="cls-1" transform="translate(44.75 160.59)">2</text><circle class="cls-2" cx="118.24" cy="150.31" r="8.81"/><circle class="cls-2" cx="90.47" cy="150.32" r="8.81"/><circle class="cls-2" cx="64.02" cy="149.06" r="8.81"/><circle class="cls-2" cx="75.35" cy="127.66" r="8.81"/><circle class="cls-2" cx="95.49" cy="112.54" r="8.81"/><circle class="cls-2" cx="114.38" cy="96.17" r="8.81"/><circle class="cls-2" cx="119.43" cy="73.5" r="8.81"/><circle class="cls-2" cx="103.06" cy="54.61" r="8.81"/><circle class="cls-2" cx="81.65" cy="54.61" r="8.81"/><circle class="cls-2" cx="64.02" cy="69.72" r="8.81"/><text class="cls-3" transform="translate(788.38 982.67) rotate(-179.89)">2</text><circle class="cls-2" cx="713.68" cy="992.95" r="8.95"/><circle class="cls-2" cx="770.27" cy="994.24" r="8.95"/><circle class="cls-2" cx="742.14" cy="992.96" r="8.95"/><circle class="cls-2" cx="757.21" cy="1016.05" r="8.95"/><circle class="cls-2" cx="736.71" cy="1031.37" r="8.95"/><circle class="cls-2" cx="717.48" cy="1047.96" r="8.95"/><circle class="cls-2" cx="712.31" cy="1070.98" r="8.95"/><circle class="cls-2" cx="728.9" cy="1090.21" r="8.95"/><circle class="cls-2" cx="750.65" cy="1090.26" r="8.95"/><circle class="cls-2" cx="768.6" cy="1074.94" r="8.95"/><ellipse class="cls-4" cx="411.5" cy="382.76" rx="102.94" ry="133.12"/><ellipse class="cls-4" cx="411.5" cy="765.26" rx="112.28" ry="145.19"/></svg>