<svg id="Layer_1" data-name="Layer 1" xmlns="http://www.w3.org/2000/svg" viewBox="0 0 822 1122"><defs><style>.cls-1{font-size:185.99px;}.cls-1,.cls-3,.cls-4{fill:#6f9797;}.cls-1,.cls-3{font-family:HelveticaNeue-Bold, Helvetica Neue;font-weight:700;}.cls-2{fill:#d6bd80;}.cls-3{font-size:176.44px;}</style></defs><text class="cls-1" transform="translate(42.75 164.68)">6</text><circle class="cls-2" cx="122.57" cy="54.26" r="10.01"/><circle class="cls-2" cx="102.5" cy="41.37" r="10.01"/><circle class="cls-2" cx="75.31" cy="51.38" r="10.01"/><circle class="cls-2" cx="62.43" cy="78.56" r="10.01"/><circle class="cls-2" cx="62.43" cy="104.32" r="10.01"/><circle class="cls-2" cx="65.29" cy="134.37" r="10.01"/><circle class="cls-2" cx="86.75" cy="154.4" r="10.01"/><circle class="cls-2" cx="116.8" cy="147.25" r="10.01"/><circle class="cls-2" cx="128.25" cy="120.07" r="10.01"/><circle class="cls-2" cx="116.8" cy="94.31" r="10.01"/><text class="cls-3" transform="translate(787.03 947.87) rotate(180)">6</text><circle class="cls-2" cx="711.32" cy="1052.62" r="9.5"/><circle class="cls-2" cx="730.35" cy="1064.84" r="9.5"/><circle class="cls-2" cx="756.14" cy="1055.34" r="9.5"/><circle class="cls-2" cx="768.36" cy="1029.56" r="9.5"/><circle class="cls-2" cx="768.36" cy="1005.12" r="9.5"/><circle class="cls-2" cx="765.65" cy="976.62" r="9.5"/><circle class="cls-2" cx="745.29" cy="957.62" r="9.5"/><circle class="cls-2" cx="716.78" cy="964.4" r="9.5"/><circle class="cls-2" cx="705.92" cy="990.19" r="9.5"/><circle class="cls-2" cx="716.78" cy="1014.62" r="9.5"/><path class="cls-4" d="M243.82,228.11c-19.75-22.88-51.76-22.88-71.51,0h0c-19.75,22.87-19.75,60,0,82.85l12.25,14.19,71.51-82.86Z"/><path class="cls-4" d="M339.69,311.11c19.75-22.88,19.75-60,0-82.85h0c-19.75-22.88-51.76-22.88-71.51,0l-12.11,14,71.5,82.86Z"/><polygon class="cls-4" points="256.06 242.29 184.56 325.15 256.06 408 327.57 325.15 256.06 242.29"/><path class="cls-4" d="M243.82,526.11c-19.75-22.88-51.76-22.88-71.51,0h0c-19.75,22.87-19.75,60,0,82.85l12.25,14.19,71.51-82.86Z"/><path class="cls-4" d="M339.69,609.11c19.75-22.88,19.75-60,0-82.85h0c-19.75-22.88-51.76-22.88-71.51,0l-12.11,14,71.5,82.86Z"/><polygon class="cls-4" points="256.06 540.29 184.56 623.15 256.06 706 327.57 623.15 256.06 540.29"/><path class="cls-4" d="M243.82,829.11c-19.75-22.88-51.76-22.88-71.51,0h0c-19.75,22.87-19.75,60,0,82.85l12.25,14.19,71.51-82.86Z"/><path class="cls-4" d="M339.69,912.11c19.75-22.88,19.75-60,0-82.85h0c-19.75-22.88-51.76-22.88-71.51,0l-12.11,14,71.5,82.86Z"/><polygon class="cls-4" points="256.06 843.29 184.56 926.15 256.06 1009 327.57 926.15 256.06 843.29"/><path class="cls-4" d="M545.82,229.11c-19.75-22.88-51.76-22.88-71.51,0h0c-19.75,22.87-19.75,60,0,82.85l12.25,14.19,71.51-82.86Z"/><path class="cls-4" d="M641.69,312.11c19.75-22.88,19.75-60,0-82.85h0c-19.75-22.88-51.76-22.88-71.51,0l-12.11,14,71.5,82.86Z"/><polygon class="cls-4" points="558.07 243.29 486.56 326.15 558.07 409 629.58 326.15 558.07 243.29"/><path class="cls-4" d="M551.82,538.11c-19.75-22.88-51.76-22.88-71.51,0h0c-19.75,22.87-19.75,60,0,82.85l12.25,14.19,71.51-82.86Z"/><path class="cls-4" d="M647.69,621.11c19.75-22.88,19.75-60,0-82.85h0c-19.75-22.88-51.76-22.88-71.51,0l-12.11,14,71.5,82.86Z"/><polygon class="cls-4" points="564.07 552.29 492.56 635.15 564.07 718 635.58 635.15 564.07 552.29"/><path class="cls-4" d="M545.82,847.11c-19.75-22.88-51.76-22.88-71.51,0h0c-19.75,22.87-19.75,60,0,82.85l12.25,14.19,71.51-82.86Z"/><path class="cls-4" d="M641.69,930.11c19.75-22.88,19.75-60,0-82.85h0c-19.75-22.88-51.76-22.88-71.51,0l-12.11,14,71.5,82.86Z"/><polygon class="cls-4" points="558.07 861.29 486.56 944.15 558.07 1027 629.58 944.15 558.07 861.29"/><path class="cls-4" d="M87.25,195.84c-11.32-13.12-29.68-13.12-41,0h0c-11.32,13.12-11.32,34.39,0,47.51l7,8.14,41-47.51Z"/><path class="cls-4" d="M142.23,243.44c11.32-13.12,11.32-34.39,0-47.51h0c-11.33-13.12-29.69-13.12-41,0l-7,8,41,47.51Z"/><polygon class="cls-4" points="94.27 203.98 53.27 251.49 94.27 299 135.28 251.49 94.27 203.98"/><path class="cls-4" d="M751.46,923.24c11.17,13.25,29.53,13.46,41,.47h0c11.47-13,11.72-34.26.54-47.51L786.09,868l-41.56,47Z"/><path class="cls-4" d="M697,875c-11.48,13-11.72,34.26-.55,47.51h0c11.17,13.25,29.53,13.46,41,.47l7-8-40.45-48Z"/><polygon class="cls-4" points="744.53 915.02 786.09 867.99 745.63 820 704.08 867.04 744.53 915.02"/></svg>