<svg id="Layer_1" data-name="Layer 1" xmlns="http://www.w3.org/2000/svg" viewBox="0 0 822 1122"><defs><style>.cls-1{font-size:176.01px;font-family:HelveticaNeue-Bold, Helvetica Neue;font-weight:700;}.cls-1,.cls-3{fill:#d89d70;}.cls-2{fill:#d6bd80;}</style></defs><text class="cls-1" transform="translate(42.75 157.55)">6</text><circle class="cls-2" cx="122.57" cy="54.26" r="10.01"/><circle class="cls-2" cx="102.5" cy="41.37" r="10.01"/><circle class="cls-2" cx="75.31" cy="51.38" r="10.01"/><circle class="cls-2" cx="62.43" cy="78.56" r="10.01"/><circle class="cls-2" cx="62.43" cy="104.32" r="10.01"/><circle class="cls-2" cx="65.29" cy="134.37" r="10.01"/><circle class="cls-2" cx="86.75" cy="154.4" r="10.01"/><circle class="cls-2" cx="116.8" cy="147.25" r="10.01"/><circle class="cls-2" cx="128.25" cy="120.07" r="10.01"/><circle class="cls-2" cx="116.8" cy="94.31" r="10.01"/><text class="cls-1" transform="translate(801.54 974.85) rotate(178.19)">6</text><circle class="cls-2" cx="725.02" cy="1080.61" r="10.01"/><circle class="cls-2" cx="745.49" cy="1092.86" r="10.01"/><circle class="cls-2" cx="772.35" cy="1082" r="10.01"/><circle class="cls-2" cx="784.36" cy="1054.42" r="10.01"/><circle class="cls-2" cx="783.55" cy="1028.68" r="10.01"/><circle class="cls-2" cx="779.74" cy="998.73" r="10.01"/><circle class="cls-2" cx="757.66" cy="979.39" r="10.01"/><circle class="cls-2" cx="727.85" cy="987.48" r="10.01"/><circle class="cls-2" cx="717.27" cy="1015.01" r="10.01"/><circle class="cls-2" cx="729.52" cy="1040.39" r="10.01"/><path class="cls-3" d="M213.67,357.25a54.39,54.39,0,0,0,76.9,0h0a54.38,54.38,0,0,0,0-76.91L277.4,267.17l-76.9,76.91Z"/><path class="cls-3" d="M110.57,280.2a54.38,54.38,0,0,0,0,76.91h0a54.39,54.39,0,0,0,76.9,0l13-13-76.9-76.91Z"/><rect class="cls-3" x="146.12" y="212.8" width="108.76" height="108.76" transform="translate(-130.2 220.03) rotate(-45)"/><path class="cls-3" d="M157.06,415.62c25-24.15,43.78-60.38,43.81-84.54,0,24.16,18.71,58.79,43.72,80.81"/><path class="cls-3" d="M208.67,630.25a54.39,54.39,0,0,0,76.9,0h0a54.38,54.38,0,0,0,0-76.91L272.4,540.17l-76.9,76.91Z"/><path class="cls-3" d="M105.57,553.2a54.38,54.38,0,0,0,0,76.91h0a54.39,54.39,0,0,0,76.9,0l13-13-76.9-76.91Z"/><rect class="cls-3" x="141.12" y="485.8" width="108.76" height="108.76" transform="translate(-324.7 296.45) rotate(-45)"/><path class="cls-3" d="M152.06,688.62c25-24.15,43.78-60.38,43.81-84.54,0,24.16,18.71,58.79,43.72,80.81"/><path class="cls-3" d="M208.67,913.25a54.39,54.39,0,0,0,76.9,0h0a54.38,54.38,0,0,0,0-76.91L272.4,823.17l-76.9,76.91Z"/><path class="cls-3" d="M105.57,836.2a54.38,54.38,0,0,0,0,76.91h0a54.39,54.39,0,0,0,76.9,0l13-13-76.9-76.91Z"/><rect class="cls-3" x="141.12" y="768.8" width="108.76" height="108.76" transform="translate(-524.81 379.34) rotate(-45)"/><path class="cls-3" d="M152.06,971.62c25-24.15,43.78-60.38,43.81-84.54,0,24.16,18.71,58.79,43.72,80.81"/><path class="cls-3" d="M583.67,911.25a54.39,54.39,0,0,0,76.9,0h0a54.38,54.38,0,0,0,0-76.91L647.4,821.17l-76.9,76.91Z"/><path class="cls-3" d="M480.57,834.2a54.38,54.38,0,0,0,0,76.91h0a54.39,54.39,0,0,0,76.9,0l13-13-76.9-76.91Z"/><rect class="cls-3" x="516.12" y="766.8" width="108.76" height="108.76" transform="translate(-413.56 643.92) rotate(-45)"/><path class="cls-3" d="M527.06,969.62c25-24.15,43.78-60.38,43.81-84.54,0,24.16,18.71,58.79,43.72,80.81"/><path class="cls-3" d="M584.67,646.25a54.39,54.39,0,0,0,76.9,0h0a54.38,54.38,0,0,0,0-76.91L648.4,556.17l-76.9,76.91Z"/><path class="cls-3" d="M481.57,569.2a54.38,54.38,0,0,0,0,76.91h0a54.39,54.39,0,0,0,76.9,0l13-13-76.9-76.91Z"/><rect class="cls-3" x="517.12" y="501.8" width="108.76" height="108.76" transform="translate(-225.89 567.01) rotate(-45)"/><path class="cls-3" d="M528.06,704.62c25-24.15,43.78-60.38,43.81-84.54,0,24.16,18.71,58.79,43.72,80.81"/><path class="cls-3" d="M581.67,357.25a54.39,54.39,0,0,0,76.9,0h0a54.38,54.38,0,0,0,0-76.91L645.4,267.17l-76.9,76.91Z"/><path class="cls-3" d="M478.57,280.2a54.38,54.38,0,0,0,0,76.91h0a54.39,54.39,0,0,0,76.9,0l13-13-76.9-76.91Z"/><rect class="cls-3" x="514.12" y="212.8" width="108.76" height="108.76" transform="translate(-22.41 480.24) rotate(-45)"/><path class="cls-3" d="M525.06,415.62c25-24.15,43.78-60.38,43.81-84.54,0,24.16,18.71,58.79,43.72,80.81"/></svg>