<svg id="Layer_1" data-name="Layer 1" xmlns="http://www.w3.org/2000/svg" viewBox="0 0 822 1122"><defs><style>.cls-1{font-size:177.66px;}.cls-1,.cls-3,.cls-4{fill:#6f9797;}.cls-1,.cls-3{font-family:HelveticaNeue-Bold, Helvetica Neue;font-weight:700;}.cls-2{fill:#d6bd80;}.cls-3{font-size:172.7px;}</style></defs><text class="cls-1" transform="translate(28.75 146.57)">9</text><circle class="cls-2" cx="52.17" cy="128.55" r="9.57"/><circle class="cls-2" cx="102.73" cy="123.09" r="9.57"/><circle class="cls-2" cx="110.94" cy="98.49" r="9.57"/><circle class="cls-2" cx="110.94" cy="72.52" r="9.57"/><circle class="cls-2" cx="105.47" cy="47.92" r="9.57"/><circle class="cls-2" cx="86.34" cy="31.51" r="9.57"/><circle class="cls-2" cx="61.74" cy="34.24" r="9.57"/><circle class="cls-2" cx="48.07" cy="53.38" r="9.57"/><circle class="cls-2" cx="48.07" cy="79.34" r="9.57"/><circle class="cls-2" cx="65.83" cy="94.38" r="9.57"/><circle class="cls-2" cx="78.13" cy="139.48" r="9.57"/><text class="cls-3" transform="translate(816.03 987.07) rotate(180)">9</text><circle class="cls-2" cx="791.26" cy="1004.58" r="9.3"/><circle class="cls-2" cx="742.11" cy="1009.9" r="9.3"/><circle class="cls-2" cx="734.14" cy="1033.81" r="9.3"/><circle class="cls-2" cx="734.14" cy="1059.05" r="9.3"/><circle class="cls-2" cx="739.45" cy="1082.97" r="9.3"/><circle class="cls-2" cx="758.05" cy="1098.91" r="9.3"/><circle class="cls-2" cx="781.96" cy="1096.26" r="9.3"/><circle class="cls-2" cx="795.25" cy="1077.66" r="9.3"/><circle class="cls-2" cx="795.25" cy="1052.41" r="9.3"/><circle class="cls-2" cx="777.98" cy="1037.8" r="9.3"/><circle class="cls-2" cx="766.02" cy="993.96" r="9.3"/><ellipse class="cls-4" cx="184.83" cy="191.26" rx="102.94" ry="133.12"/><ellipse class="cls-4" cx="184.83" cy="475.26" rx="102.94" ry="133.12"/><ellipse class="cls-4" cx="189.83" cy="735.26" rx="102.94" ry="133.12"/><ellipse class="cls-4" cx="189.83" cy="989.26" rx="102.94" ry="133.12"/><ellipse class="cls-4" cx="644.83" cy="186.26" rx="102.94" ry="133.12"/><ellipse class="cls-4" cx="416.83" cy="619.26" rx="102.94" ry="133.12"/><ellipse class="cls-4" cx="644.83" cy="470.26" rx="102.94" ry="133.12"/><ellipse class="cls-4" cx="644.83" cy="742.26" rx="102.94" ry="133.12"/><ellipse class="cls-4" cx="644.83" cy="982.26" rx="102.94" ry="133.12"/></svg>