<svg id="Layer_1" data-name="Layer 1" xmlns="http://www.w3.org/2000/svg" viewBox="0 0 822 1122"><defs><style>.cls-1{font-size:165.39px;}.cls-1,.cls-3,.cls-4{fill:#6f9797;}.cls-1,.cls-3{font-family:HelveticaNeue-Bold, Helvetica Neue;font-weight:700;}.cls-2{fill:#d6bd80;}.cls-3{font-size:158.06px;}.cls-5{fill:none;stroke:#6f9797;stroke-miterlimit:10;stroke-width:3px;}</style></defs><text class="cls-1" transform="translate(8.75 130.81) scale(0.91 1)">J</text><ellipse class="cls-2" cx="70.75" cy="31.4" rx="8.12" ry="8.91"/><ellipse class="cls-2" cx="70.74" cy="56.82" rx="8.12" ry="8.91"/><ellipse class="cls-2" cx="70.74" cy="83.54" rx="8.12" ry="8.91"/><ellipse class="cls-2" cx="68.42" cy="108.98" rx="8.12" ry="8.91"/><ellipse class="cls-2" cx="48.7" cy="122.98" rx="8.12" ry="8.91"/><ellipse class="cls-2" cx="28.98" cy="116.62" rx="8.12" ry="8.91"/><ellipse class="cls-2" cx="23.18" cy="96.27" rx="8.12" ry="8.91"/><text class="cls-3" transform="matrix(-1, -0.01, 0.01, -1, 818.15, 979.03)">J</text><circle class="cls-2" cx="752.08" cy="1073.28" r="8.51"/><circle class="cls-2" cx="752.36" cy="1048.99" r="8.51"/><circle class="cls-2" cx="752.66" cy="1023.46" r="8.51"/><circle class="cls-2" cx="755.37" cy="999.17" r="8.51"/><circle class="cls-2" cx="776.19" cy="986.03" r="8.51"/><circle class="cls-2" cx="796.79" cy="992.35" r="8.51"/><circle class="cls-2" cx="802.65" cy="1011.87" r="8.51"/><ellipse class="cls-4" cx="201.83" cy="190.17" rx="83.45" ry="107.92"/><ellipse class="cls-4" cx="48.83" cy="208.17" rx="46.4" ry="60"/><ellipse class="cls-4" cx="775.83" cy="898.17" rx="46.4" ry="60"/><ellipse class="cls-4" cx="610.83" cy="921.17" rx="83.45" ry="107.92"/><path class="cls-4" d="M404,187.48c-.12,4.13,4.32,8.28,7.22,10.72,5.1,4.29,9.89,8.18,13.82,13.68,1.25,1.75,6.49,11,9.92,7.23"/><path class="cls-5" d="M413.39,190.2c11,.17,21.08-4.59,32.24-1.45,5.69,1.6,11.39,4.36,16.84,6.65,2.66,1.11,5.52,2.1,7.31,4.36-11,3.9-21.2,3.85-32.81,4.53-2.5.14-8.67,3.09-10.59,1.86"/><path class="cls-5" d="M421.9,192.82c-1.37,9.46,19.22,11.78,25.27,10.71,6.46-1.15,5.63-5.21,2.65-9.3"/><path class="cls-5" d="M427.26,190.28c-1,5.84,7.18,7.72,11.54,7.05,3-.46,4.76-4.55,3.12-7.34"/><path class="cls-5" d="M405.82,184.07c7.59-9.46,21.78-9.84,32.94-8.49,5.95.72,12.74,1.62,18.34,3.83,1.7.67,4,1.47,5.13,3"/><path class="cls-5" d="M457.16,166.87c-4.55.13-9.3-1.24-13.74-2a101.06,101.06,0,0,0-20.5-1.14c-4.22.15-9.24,1.15-11.46,5.1"/><path class="cls-5" d="M336.83,181.86c7-6.63,19.44-7.66,27.49-2.93,4.67,2.74,6.83,7.22,11.06,10.07"/><path class="cls-5" d="M338.61,168.66c8.16-4.77,24.12-7.78,31.78-1,11.45,10.14,10.12,27.93,5.76,41.33-2.86,8.78-11,18.86-7.22,28.93,1.83,4.82,12.42,7.55,16.09,3.56"/><path class="cls-5" d="M393.58,243.62c6.28-.41,23.28,8.1,26.77,1.73,3.63-6.6-5.57-17.62-12.49-17.08"/><path class="cls-5" d="M336.47,195.43c3.3-4.26,15.12-6.55,20.87-6.81,3.49-.17,12.49-1.49,14.83,1.81"/><path class="cls-5" d="M334.68,197.21c3,3.88,9.16,4.88,13.61,6.17,4,1.15,8.47,2.77,12.72,2,6.28-1.09,10.1-8.71,13.3-13.56"/><path class="cls-5" d="M346.82,191.5c0,5.94,1.85,10.66,8.87,11,6,.28,12.69-9.6,9-14.91"/><path class="cls-5" d="M353.25,191.86c-3,8.25,9.94,4.63,6.78-1.79"/><path class="cls-5" d="M367.12,276.08c.1-2,4-3.73,5.53-4.6,2.49-1.43,5.79-2.79,8.8-2.3,4.1.66,6,5.74,10.44,3.95,5.79-2.35,12.06-7,18.75-6,2.78.4,4.05,3.23,6.74,3.92"/><path class="cls-5" d="M408.89,283.43c-1.64.43-3.14,1.82-4.73,2.51a24.15,24.15,0,0,1-10.34,1.86c-4.55-.05-7.34-2.46-11.33-4.14"/><path class="cls-5" d="M383.41,297.66c6.07.39,10.67-2,16.07,1.6"/><path class="cls-5" d="M470.78,136.13c0,28.61-3.73,57.34,2.14,85.56,4.15,20,6.64,40.63,15.74,58.93,5.9,11.87,10,37.39,28.07,38.07,11,.41,11.21-19.7,10-26.31-1-5.5-6.9-13.49-11.76-5.83-2.63,4.17,2.59,13.6,4.83,7.6"/><path class="cls-5" d="M515.79,278.15c19.43-1,27.07,36.06,9.5,44.5"/><path class="cls-5" d="M523.79,276.65c13.44-1.13,27.53,20.49,23,33"/><path class="cls-5" d="M541.29,268.15c14.31,0,12,27,12,37.5.51-12.26-7-35.63-22-34"/><path class="cls-5" d="M551.29,260.65c14-2.66,18.23,28.38,12,37"/><path class="cls-5" d="M560.29,257.15c6.87,1.22,12.22,17.21,13.06,22.82.77,5.13,1.75,13.75-.06,18.68"/><path class="cls-5" d="M572.29,245.64c10.44-1.36,19.06,9.64,22.31,18.28a26.84,26.84,0,0,1-5.81,27.73"/><path class="cls-5" d="M498.27,317.33c-.7,8.15,10,12.59,16.91,11.7s13.64-5.2,19.51-8.59c3.07-1.77,5.79-4.76,9-4.85,5-.15,7-.6,10.26-4.8a43.27,43.27,0,0,0,2.72-4c.15,5.67,6.49-3.61,7.38-4.09,2.09-1.13,4,.87,6.66-.46s3.74-3.61,6.17-3.84c3.55-.35,4.85-.08,8.2-2.33a54,54,0,0,1,6-4"/><path class="cls-5" d="M552.64,154.49c0,24.64-.6,49.21,1.89,73.74.52,5.1.67,12,4,16.2"/><path class="cls-5" d="M540,157.43c0,22.15-1.19,45.19,3.94,66.91,1.8,7.61,6.16,15.3,6.93,23"/><path class="cls-5" d="M530.89,153.91c0,14.47-1.24,28.87-1.45,43.33-.19,13.19-.29,26,4.68,38.45a109.1,109.1,0,0,0,6.13,13.86c.86,1.51,2.2,3,2.69,4.58"/><path class="cls-5" d="M518.84,154.49c0,25.21-.41,50.61,6.61,75.1,2.94,10.26,4.89,22.27,9.56,31.89"/><path class="cls-5" d="M507.38,151c0,29.84-1.22,58.7,6.73,87.69,2.41,8.79,6.26,16.15,10.32,23.7"/><path class="cls-5" d="M497.09,144.79c0,20.07-3.55,40-3.3,60.14.19,16.19,3.83,30.56,8.36,45.94,2.13,7.19,5.83,15.74,11.11,21.19"/><path class="cls-5" d="M488.86,144.79c0,18.6.37,37.25-.07,55.84-.33,13.84,2,27.13,3.74,40.81,1.34,10.35,4.15,21.55,12.2,28.57"/><path class="cls-5" d="M483,143c-1.71,6.45-3.63,12.83-4.77,19.43-1.84,10.67-1.34,21.4-1.4,32.18-.09,14.93,2.87,29.31,6.75,43.68,2.22,8.26,5.63,15.92,9.07,23.72,1.17,2.65,2.16,7,4.46,8.85"/><path class="cls-5" d="M504.15,145.38c.12,5.18-2.41,10.65-3.35,15.71a157.17,157.17,0,0,0-2.54,29.52c.05,8.19-.6,16.47,1,24.54a159.23,159.23,0,0,0,5.94,22.32c4.24,11.94,11.68,22.4,16.33,34"/><path class="cls-5" d="M501.18,281.84c2.27-5.13,7.81-5.38,12.37-7,4.14-1.5,8.5-3.36,13-1.3,3.21,1.46,10.26-9.12,11.9-4.76"/><path class="cls-5" d="M534.1,262.4c6.71-.82,12.93-2.86,19.83-2.77"/><path class="cls-5" d="M548.77,253.28c3-1.19,9.84-4.3,12.7-1.59"/><path class="cls-5" d="M557.5,246.54c5.26-.7,17.85-5.7,22.61-2"/><path class="cls-5" d="M329.7,247.85c.39,7-3.41,12.92-7.66,18.11-4.67,5.68-10.93,12.2-19.1,11.69-3.81-.24-5.85-4.1-4.3-8.15,1.19-3.12,4.85-4.13,7.93-4"/><path class="cls-5" d="M316.31,263.07c-2.39-11.59-14.24-13-23.17-8.75-9.87,4.73-7.39,16-2.93,24,1.41,2.53,4.08,7.92,6.77,9.34,3.49,1.85,11,.88,14.79.1,8.1-1.66,18.52-10.55,21.58-18.31"/><path class="cls-5" d="M299.57,296.84c9.9,0,21.5,1.5,30.4-3.86,3.61-2.17,9.17-6.15,11-10.14"/><path class="cls-5" d="M314.48,305.66c10-.07,21.62-2.18,27.69-10.34"/><path class="cls-5" d="M322.09,313.88c-.15.42-.43.39-.31.88,5.91-.45,13.78-3,19.27-5.28,2.94-1.23,6.15-2.82,7.81-5.64"/><path class="cls-5" d="M334.26,321.48c4.84.33,11.64-2,15.35-5.11,1.87-1.57,2.58-3.78,3.82-5.53"/><path class="cls-5" d="M335.48,325.74h14.14c4.72,0,10.81,1.23,15.28-.11,3.59-1.09,5.12-4.42,6.17-7.8"/><path class="cls-5" d="M640,339.92c0-7.22,3.42-12.78,8.51-18.74,2.64-3.08,5.73-4.84,9.23-6.86,1.36-.78,6.32-4.75,7.94-4.19,6.33,2.15-10.49,31.14,4.09,29.46"/><path class="cls-5" d="M706.4,337c-5.51-3.75-13-.4-18.5,1.56-6.44,2.28-12.29,1.93-18.78,3.32-4.66,1-6.7,8.53-3.84,12.24,4,5.21,22.62,3.52,26.2-2.28,1.95-3.16,1.15-10.22-6-9.94-2.09,0-5.47-.3-8.84-.41"/><path class="cls-5" d="M675.65,359.87c-2.81,0-8-.13-8.2,3.75-.43,6.65,15.46,6,19.32,6.09,3.17.05,12-.33,7.4-5.42C690.64,360.39,683,361.33,675.65,359.87Z"/><path class="cls-5" d="M690.7,354c5.55.8,16.75-6.89,19.95-11.13"/><path class="cls-5" d="M698.22,363.8c1.92.54,19.62.72,17.34-3.93"/><path class="cls-5" d="M685.79,377.21c-3.74,0-8.62-1-12.17,0-5.69,1.55-1.82,5.12,2.24,5.83,2.45.43,9.12,2,9.62-1.26.44-2.87-4.4-6.28-6.89-5.19"/><path class="cls-5" d="M688.41,388.34c4.26,0,32.38,3.68,25.19-7.53"/><path class="cls-5" d="M689.71,394.22c-3.92,0-19.32-2.11-20.28,1.92-1.74,7.26,15,2.17,17.68.7a3.22,3.22,0,0,0-2.63-2"/><path class="cls-5" d="M692,404.69A132.66,132.66,0,0,0,722.07,406a6,6,0,0,0,0-1.59"/><path class="cls-5" d="M641,341.23c-.94,3.54-2.86,6.82-4,10.35-2.32,7.26-2.63,15.12-2.15,22.7.62,9.88,5.95,23,15.91,27.18,2.28,1,11.36,1.06,12.14,3.23"/><path class="cls-5" d="M596.25,288.39q13.66,8.55,27.75,17.11,10.05,6.11,20,12"/><path class="cls-5" d="M513.65,406.12c-6.85,1.78,3.41,7.78,4.81,8.78,6.78,4.85,12.64,11.65,17.44,18.33,2.06,2.87,7.33,9,11.64,6.48,6.57-3.78-1.33-19.9-3.69-24.33-1.8-3.37-8.26-9.19-5.41-13.31,5.32-7.69,14.52,1.76,19.06,3.71,14.13,6.06,1.92-24.13,1.2-29.61,5,.19,30.43,16.26,23.64-1-1.23-3.13-8.61-11.47-6-15.39,3.92-5.89,14.64,3.49,18.91,3.52,9.22.06,1-16.2-.78-20.19-3.19-7.29,1-11.18,7.1-5.63,1.77,1.63,7.7,7.91,10.89,4.26,1.95-2.24-1-9.87-.8-12.8,4.76-.3,20.64,6.34,21.64-1.91.68-5.57-15.5-15.12-21.26-13.08s-2.52,8.87-6.16,12.67c-4.16,4.34-9.64-1.2-13.47,1-2.69,1.55-1.42,17-1.52,20.41-.16,5.05.13,6.75-6.31,5.2s-12.54-6.79-15.16,2.91c-1.88,7,3.82,11.68,2.84,17.73-6.43,1.3-10.56-6.63-16.66-6.59s-5.41,8.78-4.9,13.62c.61,5.89,5.79,11.72-2.45,12-6.26.24-12.46-3-18.75-3.59-1.9,3.45-1.86,8.65-.87,12.45.69,2.65,3.52,6.05,2.71,9-1.75,6.47-11.32-.44-15.49-1.63C515.24,410.07,514.89,411.2,513.65,406.12Z"/><path class="cls-5" d="M371.12,391a6.1,6.1,0,0,1-1.53.08c-.12-5.46,5.85-27.45,14.49-22.79,7.95,4.28-5.23,19.35-9.56,21.59-4.56,2.35-25.54-4.48-20.79,9,1.89,5.38,10.57.83,14.21-.92,4.31-2.08,3-2.63,6.8-.24,4.34,2.71,9.57,15.95,15.72,15.24s2.19-10.59.34-13.75c-2.18-3.73-7.3-8-12.14-5.62-1.63.81-2.56.85-2.46,3.08"/><polyline class="cls-5" points="360.44 404.69 305 491.5 307 502.5 373.4 404.69"/><line class="cls-5" x1="255.68" y1="376.98" x2="260" y2="492.5"/><line class="cls-5" x1="279" y1="347.5" x2="275" y2="497.5"/><line class="cls-5" x1="291.04" y1="508.84" x2="291.04" y2="339.92"/><polyline class="cls-5" points="305 355.01 305 521.21 318.89 534.87 482.39 365.27"/><path class="cls-5" d="M260,303.84c11.74,11.56,65.27,61.74,148,62.66,59.91.67,103.23-24.85,120-36"/><path class="cls-5" d="M275,295.32c10.49,10.62,62.31,60.87,140,59.18,39.35-.86,69.49-14.69,86-24"/><polyline class="cls-5" points="673 177.5 673 129.37 718 90.5"/><path class="cls-5" d="M591.15,147.89C596,160.23,614.46,203.14,661,225.5a134.5,134.5,0,0,0,53,13"/><path class="cls-5" d="M715.76,183.34A152.26,152.26,0,0,1,597,147.5"/><path class="cls-5" d="M711.92,194.58a109,109,0,0,1-49.65-.52,114.54,114.54,0,0,1-42.79-20.8"/><path class="cls-5" d="M706.14,220.35A108.93,108.93,0,0,1,658.05,208a114.49,114.49,0,0,1-36.55-30.46"/><path class="cls-5" d="M705.37,169.89c-3.89-2.3-6.66-6.86-10.07-9.86-2.74-2.41-7.66-5.15-9-8.73-1.15-3,.42-7.25,2.11-9.6,2.79-3.87,12.2-12.2,17-13.25,5.6,4.63-4.22,14.19-5.64,19-1.62,5.48.92,9.23,5.2,12.65"/><path class="cls-5" d="M689.78,251.88c-.91,8.95,11.12,13.3,12,21.09.56,5.3-11.14,9.46-14.61,13.47-8.27,9.57,6.47,34.81,19.08,32.21,1.1-3.22,1.66-7.51.68-10.88-1.43-4.91-5.5-4-7.52-7.27-2.37-3.87,2.64-9.39,4.69-12.22a26.26,26.26,0,0,0,5.34-12.51c1.33-9.37-.45-23.62-10-28.35-2.2-1.09-6.61-2.53-8.17-.36C689.93,248.84,691.28,254.5,689.78,251.88Z"/><line class="cls-5" x1="678.27" y1="328.96" x2="681.46" y2="238.92"/><polyline class="cls-5" points="681.46 175.69 681.46 134 718 105.73"/><line class="cls-5" x1="144.87" y1="355.01" x2="286.3" y2="289.94"/><line class="cls-5" x1="669.3" y1="329.14" x2="669.76" y2="238.5"/><path class="cls-5" d="M263,57.5l66.72,87.29A264.25,264.25,0,0,0,332,236.5c6.88,33.61,14.29,69.81,43,84,16.78,8.29,34,5.68,45,4,35-5.32,57.16-27.36,65-36"/><line class="cls-5" x1="550.88" y1="149.17" x2="611" y2="61.5"/><path class="cls-5" d="M336.47,140.5a329.72,329.72,0,0,1,208.53,8"/><polyline class="cls-5" points="315.81 61.5 343 99.5 367.12 101.15 356.1 61.5"/><polyline class="cls-5" points="411 61.5 413.39 92.73 452.07 94.33 457.15 59.43"/><polyline class="cls-5" points="518.84 61.5 507.31 91.52 539.89 111.58 558.52 63.85"/><polyline class="cls-5" points="576 64.5 542.35 125.62 496.75 109.17 504.74 61.5"/><polyline class="cls-5" points="476 65.45 469.62 105.34 403.99 105.34 393.58 57.5"/><polyline class="cls-5" points="372.17 59.43 381 111.5 331.05 111.5 299.76 57.5"/><path class="cls-5" d="M251.93,314.76A347.78,347.78,0,0,1,204,389.5a347.23,347.23,0,0,1-53,51"/><path class="cls-5" d="M282.36,339.92A422.23,422.23,0,0,1,227,418.5a422,422,0,0,1-85,73"/><path class="cls-5" d="M262.83,335.16c3.9-.11,13.13,2.55,16.4.38,4.52-3-.13-7.49-2.83-9.52-5.77-4.34-19.53-8-22.65.58-2.58,7,.9,12.71.93,19.31,0,9.08-10.18,2.77-15,1.49a42.68,42.68,0,0,0,1.08,12.74c.37,1.59,2.81,8,1.53,9.57-1.5,1.8-10.06.43-12.17.42-5.35,0-10.39-.11-15.45,1.84,0,7.93,9.14,17.58,0,21.85-3,1.42-11.64,2.45-12.66,6.26-.43,1.58,1.74,4.79,2.21,6.41a26.89,26.89,0,0,1,.89,7.83c0,4.34.13,6-4.52,7.13-5.55,1.31-13.59-4.06-18.11-2.28-5,2-1.26,16.32-1.51,21.31-5.06.54-9.27-3.76-13.85-3.14-6.1.82-5.18,9.39-5.16,14.34,0,5.46.06,11.33-6.64,12.9-5,1.18-8.33-3.73-12.92-3.6-1.8,5.83,0,8.77,5.94,10.31,3.61.93,12.43,3,15.8.94,7.14-4.34,2.82-13.09,5.09-18.81,1.49-3.75,1.59-2,6.25-1.15,4.22.77,8.17,1.11,12.06-1.11,10.72-6.11,2.35-15.65,3.6-24.21,4.91-.18,18.26,3,21.88-.24,4.35-3.94,1.44-16.08.73-21.08,6.28-.35,17.76,2.51,20.38-5.45,2.05-6.23-2.52-17.78-5.45-23.2,5.82,4,15.82,4,20.73-1.82,3.74-4.44,2.12-12.05,2-17.73,5.88,0,14.67-2,14.17-9.95-.29-4.71-6.13-8.07-6.85-12.69C261.75,334.22,264.8,334.17,262.83,335.16Z"/><path class="cls-5" d="M558.69,318.69C534.06,340.13,487.42,373.54,424,378.5a207,207,0,0,1-32,0"/><path class="cls-5" d="M296.94,342.86A171.08,171.08,0,0,0,369,375.5"/><line class="cls-5" x1="308" y1="369.5" x2="317.14" y2="359.18"/><line class="cls-5" x1="329.77" y1="366.51" x2="308" y2="386.33"/><line class="cls-5" x1="310" y1="394.5" x2="339.2" y2="375.5"/><line class="cls-5" x1="355.43" y1="379.12" x2="310" y2="411.21"/><line class="cls-5" x1="310" y1="428.44" x2="362" y2="382.5"/><line class="cls-5" x1="308" y1="440.29" x2="353.03" y2="405.47"/><line class="cls-5" x1="312.57" y1="453.6" x2="347.87" y2="424.38"/><line class="cls-5" x1="310" y1="464.81" x2="329.77" y2="450.26"/><line class="cls-5" x1="451.9" y1="379.12" x2="451.9" y2="391.69"/><line class="cls-5" x1="443.86" y1="382.5" x2="447" y2="402.5"/><line class="cls-5" x1="429.32" y1="382.5" x2="438" y2="408.5"/><line class="cls-5" x1="420.13" y1="386.33" x2="429.32" y2="420.4"/><line class="cls-5" x1="406" y1="386.5" x2="420.13" y2="424.38"/><line class="cls-5" x1="394" y1="386.5" x2="408" y2="436.5"/><line class="cls-5" x1="390.46" y1="412.92" x2="397" y2="447.5"/><line class="cls-5" x1="378.78" y1="420.4" x2="386.05" y2="450.26"/><line class="cls-5" x1="373.4" y1="435.33" x2="375.72" y2="473.1"/><line class="cls-5" x1="366" y1="457.5" x2="366" y2="481.27"/><line class="cls-5" x1="355.43" y1="470.94" x2="355.43" y2="493.14"/><line class="cls-5" x1="341.64" y1="482.04" x2="342" y2="506.5"/><line class="cls-5" x1="332.71" y1="497.5" x2="332.71" y2="512.67"/><line class="cls-5" x1="339.2" y1="550.95" x2="596.26" y2="300.39"/><line class="cls-5" x1="525.46" y1="348.91" x2="324.6" y2="544.34"/><line class="cls-5" x1="348.86" y1="560.78" x2="608.54" y2="303.84"/><polyline class="cls-5" points="487.2 432.31 511.32 430.92 511.32 453.13"/><polyline class="cls-5" points="477.68 442.03 501.33 442.03 501.33 461.79"/><polyline class="cls-5" points="467.73 453.13 492.39 451.91 489.5 473.61"/><polyline class="cls-5" points="456 464.5 478.7 464.5 478.7 484.87"/><polyline class="cls-5" points="447.68 474.68 467.73 474.68 467.35 497.85"/><polyline class="cls-5" points="434 488.5 456 488.5 456 509.67"/><polyline class="cls-5" points="517.2 461.79 538.83 461.79 536.53 484.87"/><polyline class="cls-5" points="506.24 473.33 530 471.5 531 496.5"/><polyline class="cls-5" points="493.54 484 518.62 484 518.62 510.83"/><polyline class="cls-5" points="487.2 496.5 508 494.5 508 519.19"/><polyline class="cls-5" points="477.68 506.85 497.6 506.85 499.26 531.89"/><polyline class="cls-5" points="464.98 519.19 484 516.5 485.18 544.34"/><polyline class="cls-5" points="464 458.5 483.74 458.5 483.74 479.67"/><line class="cls-5" x1="443.06" y1="496.5" x2="511.32" y2="430.92"/><line class="cls-5" x1="538.83" y1="461.79" x2="477.19" y2="524.96"/><polyline class="cls-5" points="490.32 550.95 510 549.5 511.32 574.08"/><polyline class="cls-5" points="506.08 538.95 523 537.5 523 559.65"/><polyline class="cls-5" points="513 527.5 531 525.92 532.9 550.95"/><line class="cls-5" x1="504" y1="555.5" x2="534.29" y2="519.37"/><path class="cls-5" d="M627.28,348.91c-22.41,20.55-63.65,65-71.28,129.59a179.81,179.81,0,0,0-1,30"/><path class="cls-5" d="M627.28,375.5c-15.24,16-38.88,45.9-48.28,89a176.19,176.19,0,0,0-4,34"/><path class="cls-5" d="M633.31,396.81A256.26,256.26,0,0,0,590,502.5"/><path class="cls-5" d="M644,411.21a170.11,170.11,0,0,0-39,99.29"/><polyline class="cls-5" points="670.75 415.71 669.53 773.91 714.77 808.33"/><polyline class="cls-5" points="681.46 408.5 681.46 767.57 715.76 792.93"/><path class="cls-5" d="M697.52,416.16c4.41,0,9,6.71,9.93,10.87,1.86,8-3.43,12.59-8.52,17.83-1.55,1.59-9.89,8-9.64,11.16.46,5.9,18.18,15.74,21.89,21.43,8,12.34-3.1,17.9-11.85,26.91-2.55,2.63-10.58,8.27-10.91,11.85-.62,6.72,7.82,6.93,10.73,11.53,8.5,13.45.82,35.86-6.16,47.62-9.18,15.49,8.68,15.18,12.64,28.7,4.49,15.35-12.53,21.57-17.18,32.71-5.94,14.2,15.64,16,13.66,31.81-1.32,10.59-16.76,17.84-16.51,27.64.24,9.17,17.43,17.39,20.36,27.22C709.69,736,697,741.76,694.38,753c-1.69,7.13-1.35,14.89,7.55,14.5.64-13.75,2.06-17.91,7.41-30,7.7-17.38-3.6-20.52-8.7-35.33-6.07-17.63,4-20.86,9.53-35.77,5.7-15.3-6.46-21.76-5.47-36.4.95-14,8.23-23.37,2.08-35.69-7.92-15.83-1.65-18.23,2.33-35.07,1.56-6.61,2.27-15.69,1.1-22.44-1.49-8.65-9.28-14.52-10.94-22.81-2-9.93,5.09-9.31,9.9-17,3.31-5.33,4.32-12.77,3.74-19-.94-10.24-8-10.09-11.65-18.45-3.82-8.69,4.06-10,8.46-17.6,7.71-13.35-.55-16.06-10.27-21.14C700.21,422.18,701.55,422.65,697.52,416.16Z"/><polygon class="cls-5" points="373.4 559.65 406 531.89 434 555.5 406 588.09 373.4 559.65"/><polygon class="cls-5" points="386.05 560.78 403.7 544.34 420.13 555.5 403.7 574.08 386.05 560.78"/><path class="cls-4" d="M404.68,930.39c.12-4.13-4.32-8.28-7.22-10.72-5.1-4.28-9.89-8.18-13.82-13.68-1.25-1.75-6.49-11-9.92-7.22"/><path class="cls-5" d="M395.28,927.68c-11-.18-21.08,4.59-32.24,1.45-5.69-1.6-11.39-4.37-16.84-6.65-2.66-1.11-5.52-2.1-7.31-4.37,11-3.89,21.2-3.85,32.81-4.52,2.5-.14,8.67-3.09,10.59-1.87"/><path class="cls-5" d="M386.77,925.06c1.37-9.46-19.22-11.78-25.27-10.71-6.46,1.15-5.64,5.21-2.65,9.3"/><path class="cls-5" d="M381.41,927.6c1-5.84-7.18-7.72-11.54-7.05-3,.46-4.76,4.54-3.12,7.33"/><path class="cls-5" d="M402.85,933.8c-7.59,9.47-21.78,9.85-32.93,8.5-6-.72-12.75-1.62-18.35-3.83-1.7-.67-4-1.47-5.13-3"/><path class="cls-5" d="M351.52,951c4.54-.13,9.29,1.24,13.73,2a101.79,101.79,0,0,0,20.5,1.14C390,954,395,953,397.21,949"/><path class="cls-5" d="M471.84,936c-7,6.63-19.44,7.66-27.49,2.93-4.67-2.74-6.83-7.21-11.06-10.07"/><path class="cls-5" d="M470.06,949.22c-8.15,4.77-24.12,7.78-31.78,1-11.45-10.14-10.12-27.92-5.76-41.33,2.86-8.77,11-18.85,7.22-28.92-1.83-4.82-12.42-7.55-16.09-3.56"/><path class="cls-5" d="M415.08,874.25c-6.27.41-23.27-8.09-26.77-1.72-3.62,6.6,5.57,17.62,12.5,17.07"/><path class="cls-5" d="M472.2,922.44c-3.3,4.26-15.12,6.55-20.87,6.82-3.49.16-12.49,1.48-14.83-1.82"/><path class="cls-5" d="M474,920.66c-3-3.87-9.16-4.87-13.61-6.16-4-1.16-8.47-2.77-12.72-2-6.28,1.08-10.1,8.71-13.3,13.56"/><path class="cls-5" d="M461.85,926.37c0-5.94-1.85-10.66-8.87-11-6-.28-12.69,9.59-9,14.91"/><path class="cls-5" d="M455.42,926c3-8.24-9.94-4.63-6.78,1.79"/><path class="cls-5" d="M441.55,841.79c-.1,2-4,3.73-5.53,4.61-2.5,1.43-5.79,2.78-8.81,2.3-4.1-.66-6-5.75-10.44-4-5.78,2.35-12,7-18.74,6-2.78-.41-4-3.24-6.74-3.93"/><path class="cls-5" d="M399.78,834.45c1.64-.44,3.14-1.83,4.72-2.52a24.34,24.34,0,0,1,10.35-1.85c4.55,0,7.34,2.45,11.32,4.14"/><path class="cls-5" d="M425.25,820.22c-6.06-.39-10.67,2-16.06-1.61"/><path class="cls-5" d="M337.89,981.74c0-28.6,3.73-57.33-2.14-85.55-4.15-20-6.64-40.64-15.74-58.93-5.91-11.87-10.05-37.4-28.08-38.07-11-.41-11.2,19.7-10,26.3,1,5.51,6.91,13.5,11.76,5.83,2.64-4.16-2.59-13.59-4.82-7.59"/><path class="cls-5" d="M292.88,839.73c-19.43,1-27.07-36.06-9.5-44.5"/><path class="cls-5" d="M284.88,841.23c-13.45,1.13-27.53-20.49-23-33"/><path class="cls-5" d="M267.38,849.73c-14.31,0-12-27-12-37.5-.52,12.26,7,35.63,22,34"/><path class="cls-5" d="M257.38,857.23c-14,2.66-18.23-28.38-12-37"/><path class="cls-5" d="M248.38,860.73c-6.87-1.22-12.23-17.21-13.07-22.82-.76-5.13-1.74-13.75.06-18.68"/><path class="cls-5" d="M236.38,872.24c-10.44,1.36-19.07-9.64-22.32-18.27a26.89,26.89,0,0,1,5.81-27.74"/><path class="cls-5" d="M310.4,800.55c.69-8.15-10-12.6-16.91-11.7s-13.65,5.2-19.51,8.59c-3.08,1.77-5.8,4.76-9,4.85-5,.15-7,.6-10.26,4.8a41.39,41.39,0,0,0-2.72,4c-.15-5.67-6.5,3.61-7.38,4.09-2.1,1.13-4-.87-6.66.46s-3.75,3.61-6.17,3.84c-3.55.35-4.85.08-8.21,2.33a53,53,0,0,1-6,4"/><path class="cls-5" d="M256,963.39c0-24.64.6-49.21-1.89-73.74-.52-5.1-.67-11.95-4-16.2"/><path class="cls-5" d="M268.67,960.45c0-22.15,1.18-45.19-3.95-66.91-1.8-7.61-6.16-15.3-6.93-23"/><path class="cls-5" d="M277.78,964c0-14.47,1.24-28.87,1.45-43.34.19-13.18.29-26-4.68-38.44a109.1,109.1,0,0,0-6.13-13.86c-.86-1.51-2.2-3-2.7-4.58"/><path class="cls-5" d="M289.83,963.38c0-25.21.41-50.6-6.61-75.09-2.94-10.26-4.89-22.27-9.56-31.89"/><path class="cls-5" d="M301.29,966.91c0-29.85,1.22-58.7-6.73-87.69-2.41-8.79-6.26-16.15-10.32-23.7"/><path class="cls-5" d="M311.58,973.08c.05-20.07,3.55-40,3.3-60.13-.19-16.19-3.83-30.57-8.37-45.94-2.12-7.19-5.82-15.74-11.1-21.19"/><path class="cls-5" d="M319.81,973.08c0-18.6-.37-37.24.07-55.83.32-13.85-2-27.13-3.74-40.82-1.35-10.34-4.16-21.54-12.21-28.56"/><path class="cls-5" d="M325.69,974.85c1.71-6.45,3.63-12.83,4.77-19.44,1.84-10.66,1.34-21.39,1.4-32.17.09-14.93-2.87-29.31-6.75-43.68-2.23-8.26-5.64-15.92-9.07-23.72-1.17-2.65-2.17-7-4.46-8.85"/><path class="cls-5" d="M304.52,972.5c-.11-5.18,2.41-10.65,3.35-15.71a157.17,157.17,0,0,0,2.54-29.52c-.05-8.19.6-16.47-1-24.54a157.83,157.83,0,0,0-5.93-22.32c-4.24-11.94-11.69-22.4-16.33-34"/><path class="cls-5" d="M307.49,836c-2.27,5.13-7.81,5.38-12.38,7-4.13,1.5-8.49,3.36-13,1.3-3.21-1.46-10.27,9.12-11.9,4.76"/><path class="cls-5" d="M274.57,855.48c-6.71.82-12.93,2.86-19.83,2.77"/><path class="cls-5" d="M259.89,864.6c-3,1.19-9.84,4.3-12.69,1.59"/><path class="cls-5" d="M251.17,871.34c-5.26.7-17.86,5.7-22.61,2"/><path class="cls-5" d="M479,870c-.4-7,3.41-12.92,7.66-18.1,4.67-5.69,10.93-12.21,19.1-11.69,3.81.24,5.85,4.09,4.3,8.14-1.2,3.13-4.85,4.14-7.93,4"/><path class="cls-5" d="M492.36,854.81c2.39,11.59,14.24,13,23.17,8.75,9.87-4.74,7.39-16,2.93-24-1.41-2.53-4.08-7.92-6.77-9.35-3.49-1.85-11-.87-14.79-.1-8.1,1.66-18.52,10.55-21.58,18.32"/><path class="cls-5" d="M509.09,821c-9.89,0-21.49-1.49-30.39,3.86-3.61,2.17-9.17,6.15-11,10.14"/><path class="cls-5" d="M494.18,812.21c-10,.07-21.62,2.18-27.68,10.35"/><path class="cls-5" d="M486.58,804c.15-.42.43-.39.3-.88-5.9.44-13.77,3-19.26,5.27-2.95,1.23-6.16,2.82-7.82,5.65"/><path class="cls-5" d="M474.41,796.39c-4.84-.33-11.64,2-15.36,5.12-1.86,1.57-2.58,3.78-3.81,5.53"/><path class="cls-5" d="M473.19,792.13H459c-4.72,0-10.8-1.23-15.27.12-3.59,1.08-5.12,4.42-6.18,7.79"/><path class="cls-5" d="M168.68,778c0,7.22-3.43,12.79-8.52,18.74-2.63,3.08-5.72,4.84-9.23,6.86-1.35.78-6.32,4.75-7.94,4.2-6.33-2.16,10.49-31.15-4.08-29.47"/><path class="cls-5" d="M102.27,780.91c5.51,3.74,13,.39,18.49-1.57,6.45-2.28,12.3-1.93,18.79-3.32,4.66-1,6.7-8.52,3.84-12.24-4-5.2-22.63-3.52-26.21,2.28-1.94,3.16-1.15,10.22,6,9.94,2.1,0,5.47.31,8.85.41"/><path class="cls-5" d="M133,758c2.81,0,7.95.13,8.2-3.75.43-6.65-15.47-6-19.32-6.09-3.18,0-12,.33-7.41,5.43C118,757.49,125.68,756.55,133,758Z"/><path class="cls-5" d="M118,763.9c-5.55-.81-16.75,6.88-20,11.12"/><path class="cls-5" d="M110.45,754.08c-1.93-.54-19.63-.72-17.34,3.93"/><path class="cls-5" d="M122.88,740.67c3.74,0,8.61,1,12.16,0,5.7-1.56,1.83-5.13-2.23-5.84-2.46-.42-9.13-2-9.63,1.26-.43,2.87,4.41,6.28,6.89,5.19"/><path class="cls-5" d="M120.26,729.55c-4.27,0-32.39-3.69-25.19,7.52"/><path class="cls-5" d="M119,723.66c3.93,0,19.32,2.12,20.29-1.92,1.73-7.26-15-2.16-17.69-.7a3.2,3.2,0,0,0,2.63,2"/><path class="cls-5" d="M116.66,713.19a132.08,132.08,0,0,0-30.07-1.26,6.51,6.51,0,0,0,0,1.59"/><path class="cls-5" d="M167.7,776.65c.93-3.54,2.85-6.82,4-10.34,2.32-7.26,2.63-15.13,2.15-22.71-.63-9.87-6-23-15.91-27.18-2.29-1-11.36-1-12.14-3.23"/><path class="cls-5" d="M212.41,829.49q-13.65-8.55-27.74-17.11-10-6.09-20-12"/><path class="cls-5" d="M295,711.76c6.85-1.78-3.41-7.78-4.81-8.78-6.77-4.85-12.64-11.65-17.44-18.33-2.06-2.87-7.33-9-11.64-6.48-6.57,3.78,1.33,19.9,3.7,24.33,1.79,3.37,8.25,9.19,5.4,13.31-5.32,7.69-14.52-1.76-19.05-3.71C237,706,249.24,736.23,250,741.71c-5-.19-30.42-16.26-23.63,1,1.23,3.13,8.61,11.47,6,15.39-3.91,5.89-14.63-3.49-18.9-3.52-9.22-.06-1,16.2.77,20.19,3.2,7.29-1,11.18-7.1,5.63-1.77-1.62-7.69-7.91-10.88-4.25-1.95,2.23,1,9.86.8,12.8-4.76.29-20.64-6.34-21.65,1.9-.68,5.57,15.5,15.12,21.27,13.09s2.52-8.88,6.15-12.67c4.17-4.35,9.65,1.2,13.48-1,2.69-1.55,1.42-17,1.52-20.4.15-5.06-.14-6.76,6.3-5.21s12.55,6.79,15.16-2.91c1.88-7-3.81-11.68-2.83-17.73,6.43-1.3,10.55,6.63,16.66,6.59s5.4-8.78,4.9-13.62c-.62-5.9-5.8-11.72,2.45-12,6.26-.24,12.46,3,18.74,3.59,1.9-3.46,1.87-8.65.88-12.45-.69-2.65-3.52-6.05-2.72-9,1.75-6.48,11.32.44,15.49,1.63C293.43,707.81,293.77,706.68,295,711.76Z"/><path class="cls-5" d="M437.54,726.93a5.72,5.72,0,0,1,1.53-.09c.12,5.46-5.84,27.46-14.49,22.8-7.95-4.28,5.23-19.36,9.57-21.6,4.55-2.35,25.53,4.49,20.79-9-1.9-5.37-10.58-.82-14.21.93-4.32,2.07-3,2.63-6.81.23-4.33-2.7-9.56-15.94-15.71-15.23s-2.19,10.58-.34,13.75c2.17,3.73,7.29,8,12.13,5.61,1.63-.8,2.56-.85,2.46-3.07"/><polyline class="cls-5" points="448.22 713.18 503.66 626.37 501.66 615.37 435.27 713.18"/><line class="cls-5" x1="552.99" y1="740.89" x2="548.66" y2="625.37"/><line class="cls-5" x1="529.67" y1="770.37" x2="533.66" y2="620.37"/><line class="cls-5" x1="517.62" y1="609.04" x2="517.63" y2="777.95"/><polyline class="cls-5" points="503.67 762.86 503.66 596.66 489.77 583 326.28 752.61"/><path class="cls-5" d="M548.67,814c-11.75-11.56-65.27-61.73-148-62.65-59.92-.67-103.24,24.84-120,36"/><path class="cls-5" d="M533.67,822.55c-10.49-10.62-62.32-60.87-140-59.17-39.35.85-69.49,14.69-86,24"/><polyline class="cls-5" points="135.67 940.38 135.67 988.52 90.67 1027.38"/><path class="cls-5" d="M217.52,970c-4.81-12.34-23.31-55.25-69.85-77.61a134.67,134.67,0,0,0-53-13"/><path class="cls-5" d="M92.91,934.55a152.2,152.2,0,0,1,118.76,35.83"/><path class="cls-5" d="M96.75,923.31a108.83,108.83,0,0,1,49.65.51,114.46,114.46,0,0,1,42.79,20.8"/><path class="cls-5" d="M102.53,897.53a109.07,109.07,0,0,1,48.09,12.4,114.37,114.37,0,0,1,36.55,30.46"/><path class="cls-5" d="M103.3,948c3.89,2.3,6.66,6.86,10.07,9.86,2.74,2.41,7.67,5.15,9,8.73,1.15,3-.41,7.25-2.11,9.6-2.79,3.88-12.2,12.21-17,13.25-5.59-4.63,4.22-14.18,5.64-19,1.62-5.47-.92-9.22-5.2-12.65"/><path class="cls-5" d="M118.89,866c.91-9-11.12-13.3-12-21.09-.56-5.29,11.13-9.45,14.6-13.47,8.28-9.56-6.47-34.8-19.07-32.2-1.1,3.21-1.66,7.51-.68,10.87,1.42,4.91,5.5,4,7.52,7.27,2.36,3.88-2.64,9.39-4.69,12.22a26.16,26.16,0,0,0-5.34,12.51c-1.33,9.37.45,23.63,10,28.36,2.2,1.09,6.61,2.53,8.17.35C118.74,869,117.39,863.38,118.89,866Z"/><line class="cls-5" x1="130.39" y1="788.92" x2="127.21" y2="878.96"/><polyline class="cls-5" points="127.21 942.2 127.21 983.88 90.67 1012.15"/><line class="cls-5" x1="663.79" y1="762.85" x2="522.37" y2="827.93"/><line class="cls-5" x1="139.37" y1="788.74" x2="138.91" y2="879.38"/><path class="cls-5" d="M545.67,1060.37,479,973.08a264.25,264.25,0,0,0-2.28-91.71c-6.88-33.61-14.29-69.81-43-84-16.78-8.29-34-5.67-45-4-35,5.32-57.16,27.36-65,36"/><line class="cls-5" x1="257.79" y1="968.71" x2="197.67" y2="1056.38"/><path class="cls-5" d="M472.2,977.37a329.65,329.65,0,0,1-81.53,13,333.39,333.39,0,0,1-127-21"/><polyline class="cls-5" points="492.87 1056.37 465.67 1018.37 441.56 1016.72 452.57 1056.37"/><polyline class="cls-5" points="397.67 1056.38 395.28 1025.15 356.6 1023.54 351.52 1058.44"/><polyline class="cls-5" points="289.83 1056.38 301.36 1026.35 268.79 1006.3 250.15 1054.03"/><polyline class="cls-5" points="232.67 1053.38 266.32 992.26 311.92 1008.7 303.94 1056.38"/><polyline class="cls-5" points="332.67 1052.43 339.05 1012.54 404.68 1012.54 415.09 1060.38"/><polyline class="cls-5" points="436.51 1058.44 427.67 1006.38 477.62 1006.37 508.91 1060.37"/><path class="cls-5" d="M556.74,803.11A347,347,0,0,1,657.66,677.37"/><path class="cls-5" d="M526.3,778A421.7,421.7,0,0,1,666.66,626.37"/><path class="cls-5" d="M545.84,782.72c-3.91.1-13.13-2.56-16.4-.39-4.52,3,.12,7.5,2.82,9.52,5.78,4.34,19.54,8,22.66-.57,2.58-7.06-.9-12.72-.93-19.32,0-9.08,10.17-2.77,14.94-1.49a42.68,42.68,0,0,0-1.08-12.74c-.36-1.59-2.8-8-1.53-9.57,1.51-1.8,10.07-.42,12.17-.42,5.36,0,10.39.11,15.45-1.84,0-7.93-9.13-17.57,0-21.85,3-1.42,11.63-2.45,12.66-6.26.42-1.58-1.74-4.79-2.22-6.41a26.89,26.89,0,0,1-.89-7.83c0-4.34-.13-6,4.52-7.13,5.55-1.31,13.6,4.06,18.11,2.28,5-2,1.26-16.33,1.51-21.31,5.07-.54,9.28,3.76,13.85,3.14,6.1-.82,5.18-9.39,5.16-14.34,0-5.46-.06-11.33,6.64-12.91,5-1.17,8.33,3.74,12.93,3.61,1.79-5.83,0-8.78-5.94-10.31-3.62-.93-12.43-3-15.8-.94-7.15,4.34-2.83,13.09-5.1,18.81-1.49,3.75-1.59,2-6.24,1.15-4.23-.78-8.17-1.11-12.07,1.11-10.72,6.11-2.34,15.65-3.59,24.21-4.92.18-18.27-3-21.89.24-4.35,4-1.44,16.08-.73,21.08-6.28.35-17.75-2.51-20.37,5.45-2.06,6.23,2.51,17.78,5.44,23.2-5.81-4-15.82-4-20.72,1.82-3.74,4.44-2.12,12-2,17.73-5.88,0-14.67,2-14.18,9.95.3,4.72,6.13,8.07,6.86,12.7C546.92,783.65,543.87,783.7,545.84,782.72Z"/><path class="cls-5" d="M250,799.19c24.63-21.44,71.27-54.86,134.68-59.81a204.51,204.51,0,0,1,32,0"/><path class="cls-5" d="M511.72,775a170.92,170.92,0,0,0-72.06-32.64"/><line class="cls-5" x1="500.67" y1="748.37" x2="491.53" y2="758.69"/><line class="cls-5" x1="478.89" y1="751.36" x2="500.66" y2="731.55"/><line class="cls-5" x1="498.66" y1="723.37" x2="469.47" y2="742.37"/><line class="cls-5" x1="453.24" y1="738.75" x2="498.66" y2="706.66"/><line class="cls-5" x1="498.66" y1="689.43" x2="446.66" y2="735.37"/><line class="cls-5" x1="500.66" y1="677.58" x2="455.63" y2="712.4"/><line class="cls-5" x1="496.09" y1="664.28" x2="460.79" y2="693.5"/><line class="cls-5" x1="498.66" y1="653.06" x2="478.89" y2="667.61"/><line class="cls-5" x1="356.76" y1="738.75" x2="356.76" y2="726.19"/><line class="cls-5" x1="364.8" y1="735.38" x2="361.66" y2="715.38"/><line class="cls-5" x1="379.35" y1="735.38" x2="370.66" y2="709.38"/><line class="cls-5" x1="388.54" y1="731.55" x2="379.35" y2="697.48"/><line class="cls-5" x1="402.66" y1="731.38" x2="388.54" y2="693.5"/><line class="cls-5" x1="414.66" y1="731.38" x2="400.66" y2="681.38"/><line class="cls-5" x1="418.21" y1="704.96" x2="411.66" y2="670.38"/><line class="cls-5" x1="429.88" y1="697.47" x2="422.61" y2="667.61"/><line class="cls-5" x1="435.27" y1="682.54" x2="432.95" y2="644.77"/><line class="cls-5" x1="442.66" y1="660.37" x2="442.66" y2="636.6"/><line class="cls-5" x1="453.24" y1="646.94" x2="453.24" y2="624.73"/><line class="cls-5" x1="467.02" y1="635.83" x2="466.66" y2="611.37"/><line class="cls-5" x1="475.95" y1="620.37" x2="475.95" y2="605.21"/><line class="cls-5" x1="469.46" y1="566.92" x2="212.41" y2="817.49"/><line class="cls-5" x1="283.2" y1="768.97" x2="484.06" y2="573.53"/><line class="cls-5" x1="459.8" y1="557.1" x2="200.12" y2="814.04"/><polyline class="cls-5" points="321.47 685.57 297.35 686.96 297.35 664.75"/><polyline class="cls-5" points="330.99 675.85 307.33 675.85 307.33 656.09"/><polyline class="cls-5" points="340.94 664.75 316.27 665.97 319.16 644.26"/><polyline class="cls-5" points="352.66 653.38 329.96 653.38 329.96 633.01"/><polyline class="cls-5" points="360.99 643.19 340.94 643.2 341.31 620.03"/><polyline class="cls-5" points="374.66 629.38 352.66 629.38 352.66 608.2"/><polyline class="cls-5" points="291.46 656.09 269.83 656.09 272.14 633.01"/><polyline class="cls-5" points="302.43 644.55 278.66 646.38 277.66 621.38"/><polyline class="cls-5" points="315.12 633.88 290.04 633.88 290.04 607.05"/><polyline class="cls-5" points="321.46 621.38 300.66 623.38 300.66 598.68"/><polyline class="cls-5" points="330.98 611.03 311.06 611.03 309.4 585.99"/><polyline class="cls-5" points="343.68 598.68 324.66 601.38 323.48 573.53"/><polyline class="cls-5" points="344.66 659.38 324.93 659.38 324.93 638.21"/><line class="cls-5" x1="365.6" y1="621.38" x2="297.35" y2="686.96"/><line class="cls-5" x1="269.83" y1="656.09" x2="331.47" y2="592.91"/><polyline class="cls-5" points="318.33 566.92 298.66 568.38 297.34 543.8"/><polyline class="cls-5" points="302.58 578.93 285.66 580.38 285.66 558.23"/><polyline class="cls-5" points="295.66 590.38 277.66 591.96 275.76 566.92"/><line class="cls-5" x1="304.66" y1="562.38" x2="274.37" y2="598.51"/><path class="cls-5" d="M181.39,769c22.4-20.55,63.65-65,71.27-129.59a178.75,178.75,0,0,0,1-30"/><path class="cls-5" d="M181.39,742.38c15.23-16,38.87-45.9,48.27-89a176.19,176.19,0,0,0,4-34"/><path class="cls-5" d="M175.35,721.07a255.49,255.49,0,0,0,24.31-42.69,256.72,256.72,0,0,0,19-63"/><path class="cls-5" d="M164.66,706.67a170.11,170.11,0,0,0,39-99.29"/><polyline class="cls-5" points="137.91 702.17 139.13 343.97 93.89 309.56"/><polyline class="cls-5" points="127.2 709.38 127.19 350.31 92.89 324.95"/><path class="cls-5" d="M111.14,701.72c-4.4,0-9-6.71-9.92-10.87-1.87-8,3.42-12.59,8.51-17.83,1.55-1.59,9.89-8,9.65-11.15-.47-5.91-18.19-15.74-21.9-21.43-8-12.34,3.1-17.91,11.85-26.92,2.55-2.62,10.58-8.27,10.91-11.84.62-6.72-7.82-6.94-10.73-11.54-8.5-13.44-.82-35.86,6.15-47.62C124.85,527,107,527.35,103,513.83c-4.49-15.35,12.53-21.58,17.18-32.71,5.94-14.21-15.65-16-13.67-31.81,1.33-10.6,16.77-17.85,16.51-27.65-.23-9.16-17.43-17.39-20.35-27.21-3.74-12.54,8.91-18.32,11.58-29.58,1.68-7.13,1.35-14.9-7.56-14.51-.64,13.75-2.06,17.92-7.41,30-7.69,17.39,3.61,20.52,8.7,35.34,6.07,17.63-4,20.85-9.52,35.76-5.71,15.31,6.46,21.77,5.47,36.41-.95,14-8.24,23.36-2.08,35.68,7.92,15.83,1.65,18.23-2.33,35.07-1.56,6.62-2.27,15.7-1.1,22.44,1.49,8.66,9.28,14.53,10.94,22.82,2,9.93-5.09,9.31-9.9,17-3.31,5.32-4.31,12.76-3.74,19,1,10.24,8,10.08,11.65,18.44,3.82,8.69-4.06,10-8.45,17.61-7.72,13.35.54,16.06,10.26,21.13C108.45,695.7,107.11,695.23,111.14,701.72Z"/><polygon class="cls-5" points="435.26 558.22 402.66 585.99 374.66 562.38 402.66 529.79 435.26 558.22"/><polygon class="cls-5" points="422.61 557.1 404.96 573.53 388.53 562.38 404.96 543.8 422.61 557.1"/><rect class="cls-5" x="95.5" y="61" width="624" height="1004"/><path class="cls-5" d="M175.35,473.61A247.41,247.41,0,0,1,198.5,538a247.06,247.06,0,0,1,5,61"/><path class="cls-5" d="M189.54,462.76A203,203,0,0,1,218,525.5a202.68,202.68,0,0,1,6,66"/><path class="cls-5" d="M207,454.22a249.43,249.43,0,0,1,28,81.28,248.91,248.91,0,0,1,1,71"/><path class="cls-5" d="M217.64,444.94c12.54,17.58,32.43,50.91,37.36,96.56a197.51,197.51,0,0,1-1,50"/><path class="cls-5" d="M228.21,424.38A272.37,272.37,0,0,1,270,530.5a272.36,272.36,0,0,1-6,116"/><path class="cls-5" d="M579.8,693.5a384.14,384.14,0,0,1-37.8-222"/><path class="cls-5" d="M593.45,677.37A243,243,0,0,1,555,522.5"/><path class="cls-5" d="M605,667.61A228.86,228.86,0,0,1,572,510.5"/><path class="cls-5" d="M617.33,653.06a168.65,168.65,0,0,1-30.14-79.53,166,166,0,0,1,3.81-56"/><path class="cls-5" d="M634.65,639.88A157,157,0,0,1,608,518.5"/></svg>