<svg id="Layer_1" data-name="Layer 1" xmlns="http://www.w3.org/2000/svg" viewBox="0 0 822 1122"><defs><style>.cls-1{font-size:131.54px;font-family:HelveticaNeue-Bold, Helvetica Neue;font-weight:700;}.cls-1,.cls-3{fill:#6f9797;}.cls-2{fill:#d6bd80;}</style></defs><text class="cls-1" transform="translate(4.75 119.64)">10</text><circle class="cls-2" cx="47.52" cy="39.52" r="7.08"/><circle class="cls-2" cx="47.52" cy="56.72" r="7.08"/><circle class="cls-2" cx="31.33" cy="50.64" r="7.08"/><circle class="cls-2" cx="47.52" cy="73.92" r="7.08"/><circle class="cls-2" cx="94.55" cy="44.22" r="7.08"/><circle class="cls-2" cx="113.78" cy="33.09" r="7.08"/><circle class="cls-2" cx="90.5" cy="66.48" r="7.08"/><circle class="cls-2" cx="91.52" cy="87.73" r="7.08"/><circle class="cls-2" cx="98.33" cy="106.45" r="7.08"/><circle class="cls-2" cx="115.54" cy="113.56" r="7.08"/><circle class="cls-2" cx="133.38" cy="105.19" r="7.08"/><circle class="cls-2" cx="138.44" cy="87.99" r="7.08"/><circle class="cls-2" cx="138.45" cy="66.74" r="7.08"/><circle class="cls-2" cx="133.39" cy="43.46" r="7.08"/><circle class="cls-2" cx="47.52" cy="91.12" r="7.08"/><circle class="cls-2" cx="47.52" cy="109.33" r="7.08"/><text class="cls-1" transform="translate(816.5 1019.73) rotate(180)">10</text><circle class="cls-2" cx="773.73" cy="1099.86" r="7.08"/><circle class="cls-2" cx="773.73" cy="1082.66" r="7.08"/><circle class="cls-2" cx="789.92" cy="1088.73" r="7.08"/><circle class="cls-2" cx="773.73" cy="1065.46" r="7.08"/><circle class="cls-2" cx="726.7" cy="1095.16" r="7.08"/><circle class="cls-2" cx="707.47" cy="1106.29" r="7.08"/><circle class="cls-2" cx="730.75" cy="1072.9" r="7.08"/><circle class="cls-2" cx="729.73" cy="1051.65" r="7.08"/><circle class="cls-2" cx="722.92" cy="1032.93" r="7.08"/><circle class="cls-2" cx="705.71" cy="1025.82" r="7.08"/><circle class="cls-2" cx="687.87" cy="1034.19" r="7.08"/><circle class="cls-2" cx="682.8" cy="1051.39" r="7.08"/><circle class="cls-2" cx="682.8" cy="1072.64" r="7.08"/><circle class="cls-2" cx="687.86" cy="1095.92" r="7.08"/><circle class="cls-2" cx="773.73" cy="1048.26" r="7.08"/><circle class="cls-2" cx="773.73" cy="1030.04" r="7.08"/><path class="cls-3" d="M211,206.82c-16.59-19.21-43.47-19.21-60.05,0h0c-16.59,19.22-16.59,50.37,0,69.58l10.28,11.92,60.05-69.58Z"/><path class="cls-3" d="M291.49,276.53c16.59-19.21,16.59-50.37,0-69.58h0c-16.58-19.21-43.46-19.21-60.05,0l-10.17,11.79,60,69.58Z"/><polygon class="cls-3" points="221.27 218.74 161.22 288.31 221.27 357.89 281.32 288.31 221.27 218.74"/><path class="cls-3" d="M586.36,205.15c-16.59-19.22-43.47-19.22-60.05,0h0c-16.59,19.21-16.59,50.36,0,69.57l10.28,11.92,60-69.58Z"/><path class="cls-3" d="M666.86,274.85c16.59-19.21,16.59-50.36,0-69.58h0c-16.58-19.21-43.46-19.21-60.05,0l-10.17,11.79,60.05,69.58Z"/><polygon class="cls-3" points="596.64 217.06 536.59 286.64 596.64 356.21 656.69 286.64 596.64 217.06"/><path class="cls-3" d="M590.55,389.89c-16.58-19.21-43.46-19.21-60,0h0c-16.58,19.21-16.58,50.36,0,69.58l10.29,11.91,60.05-69.57Z"/><path class="cls-3" d="M671.06,459.59c16.58-19.21,16.58-50.36,0-69.57h0c-16.58-19.21-43.47-19.21-60,0l-10.17,11.79,60,69.57Z"/><polygon class="cls-3" points="600.84 401.81 540.79 471.38 600.84 540.96 660.89 471.38 600.84 401.81"/><path class="cls-3" d="M406.65,311.5c-16.58-19.21-43.47-19.21-60,0h0c-16.58,19.21-16.58,50.36,0,69.58L356.88,393l60.05-69.57Z"/><path class="cls-3" d="M487.16,381.2c16.58-19.21,16.58-50.36,0-69.57h0c-16.59-19.21-43.47-19.21-60.05,0l-10.18,11.79L477,393Z"/><polygon class="cls-3" points="416.93 323.42 356.88 392.99 416.93 462.57 476.98 392.99 416.93 323.42"/><path class="cls-3" d="M424.32,774.27c16.36,19.4,43.24,19.71,60,.69h0c16.81-19,17.17-50.17.81-69.57l-10.15-12-60.85,68.88Z"/><path class="cls-3" d="M344.62,703.64c-16.8,19-17.16,50.17-.8,69.58h0c16.36,19.4,43.24,19.71,60,.69l10.31-11.67L354.93,692Z"/><polygon class="cls-3" points="414.17 762.24 475.02 693.36 415.78 623.1 354.93 691.98 414.17 762.24"/><path class="cls-3" d="M211,394.09c-16.59-19.21-43.47-19.21-60.05,0h0c-16.59,19.21-16.59,50.36,0,69.58l10.28,11.91L221.27,406Z"/><path class="cls-3" d="M291.49,463.79c16.59-19.21,16.59-50.36,0-69.57h0C274.91,375,248,375,231.44,394.22L221.27,406l60,69.58Z"/><polygon class="cls-3" points="221.27 406 161.22 475.58 221.27 545.16 281.32 475.58 221.27 406"/><path class="cls-3" d="M231.45,718c16.58,19.21,43.46,19.21,60.05,0h0c16.58-19.21,16.58-50.36,0-69.58l-10.28-11.91-60,69.58Z"/><path class="cls-3" d="M150.94,648.31c-16.59,19.21-16.58,50.36,0,69.58h0c16.58,19.21,43.47,19.21,60.05,0l10.17-11.78-60-69.58Z"/><polygon class="cls-3" points="221.16 706.1 281.21 636.52 221.16 566.95 161.11 636.52 221.16 706.1"/><path class="cls-3" d="M606.82,711.29c16.58,19.22,43.46,19.21,60,0h0c16.58-19.21,16.58-50.36,0-69.57L656.58,629.8l-60.05,69.58Z"/><path class="cls-3" d="M526.31,641.59c-16.59,19.21-16.59,50.37,0,69.58h0c16.58,19.21,43.47,19.21,60.05,0l10.17-11.79-60-69.58Z"/><polygon class="cls-3" points="596.53 699.38 656.58 629.8 596.53 560.23 536.48 629.8 596.53 699.38"/><path class="cls-3" d="M231.45,912.83c16.58,19.22,43.46,19.22,60.05,0h0c16.58-19.21,16.58-50.36,0-69.57l-10.28-11.92-60,69.58Z"/><path class="cls-3" d="M150.94,843.13c-16.59,19.22-16.58,50.37,0,69.58h0c16.58,19.21,43.47,19.21,60.05,0l10.17-11.79-60-69.58Z"/><polygon class="cls-3" points="221.16 900.92 281.21 831.34 221.16 761.77 161.11 831.35 221.16 900.92"/><path class="cls-3" d="M611,924.59c16.59,19.21,43.47,19.21,60,0h0c16.59-19.21,16.59-50.37,0-69.58L660.78,843.1l-60,69.58Z"/><path class="cls-3" d="M530.5,854.89c-16.58,19.21-16.58,50.36,0,69.57h0c16.58,19.22,43.46,19.22,60,0l10.17-11.78L540.68,843.1Z"/><polygon class="cls-3" points="600.73 912.67 660.78 843.1 600.73 773.52 540.68 843.1 600.73 912.67"/><path class="cls-3" d="M66.25,139.84c-11.32-13.12-29.68-13.12-41,0h0c-11.32,13.12-11.32,34.39,0,47.51l7,8.14,41-47.51Z"/><path class="cls-3" d="M121.23,187.44c11.32-13.12,11.32-34.39,0-47.51h0c-11.33-13.12-29.69-13.12-41,0l-7,8,41,47.51Z"/><polygon class="cls-3" points="73.27 147.98 32.27 195.49 73.27 243 114.28 195.49 73.27 147.98"/><path class="cls-3" d="M745.46,998.24c11.17,13.25,29.53,13.46,41,.47h0c11.47-13,11.72-34.26.54-47.51L780.09,943l-41.56,47Z"/><path class="cls-3" d="M691,950c-11.48,13-11.72,34.26-.55,47.51h0c11.17,13.25,29.53,13.46,41,.47l7-8-40.45-48Z"/><polygon class="cls-3" points="738.53 990.02 780.09 942.99 739.63 895 698.08 942.04 738.53 990.02"/></svg>