<svg id="Layer_1" data-name="Layer 1" xmlns="http://www.w3.org/2000/svg" viewBox="0 0 822 1122"><defs><style>.cls-1{font-size:165.39px;font-family:HelveticaNeue-Bold, Helvetica Neue;font-weight:700;}.cls-1,.cls-3{fill:#d89d70;}.cls-2{fill:#d6bd80;}</style></defs><text class="cls-1" transform="translate(30.75 153.81)">3</text><circle class="cls-2" cx="51.82" cy="59.49" r="8.91"/><circle class="cls-2" cx="72.16" cy="46.72" r="8.91"/><circle class="cls-2" cx="98.88" cy="54.35" r="8.91"/><circle class="cls-2" cx="101.44" cy="77.25" r="8.91"/><circle class="cls-2" cx="82.35" cy="92.53" r="8.91"/><circle class="cls-2" cx="106.52" cy="110.34" r="8.91"/><circle class="cls-2" cx="102.71" cy="134.52" r="8.91"/><circle class="cls-2" cx="81.08" cy="147.25" r="8.91"/><circle class="cls-2" cx="59.45" cy="140.89" r="8.91"/><circle class="cls-2" cx="46.72" cy="125.62" r="8.91"/><text class="cls-1" transform="matrix(-1, -0.01, 0.01, -1, 788.06, 976.16)">3</text><circle class="cls-2" cx="765.9" cy="1070.22" r="8.91"/><circle class="cls-2" cx="745.41" cy="1082.76" r="8.91"/><circle class="cls-2" cx="718.78" cy="1074.82" r="8.91"/><circle class="cls-2" cx="716.5" cy="1051.89" r="8.91"/><circle class="cls-2" cx="735.75" cy="1036.84" r="8.91"/><circle class="cls-2" cx="711.79" cy="1018.75" r="8.91"/><circle class="cls-2" cx="715.88" cy="994.61" r="8.91"/><circle class="cls-2" cx="737.66" cy="982.14" r="8.91"/><circle class="cls-2" cx="759.21" cy="988.74" r="8.91"/><circle class="cls-2" cx="771.76" cy="1004.16" r="8.91"/><path class="cls-3" d="M416.67,298.25a54.39,54.39,0,0,0,76.9,0h0a54.38,54.38,0,0,0,0-76.91L480.4,208.17l-76.9,76.91Z"/><path class="cls-3" d="M313.57,221.2a54.38,54.38,0,0,0,0,76.91h0a54.39,54.39,0,0,0,76.9,0l13-13-76.9-76.91Z"/><rect class="cls-3" x="349.12" y="153.8" width="108.76" height="108.76" transform="translate(-29.02 346.29) rotate(-45)"/><path class="cls-3" d="M360.06,356.62c25-24.15,43.78-60.38,43.81-84.54,0,24.16,18.71,58.79,43.72,80.81"/><path class="cls-3" d="M79.84,237.46a21.65,21.65,0,0,0,30.62.36h0a21.65,21.65,0,0,0,.36-30.61l-5.19-5.31-31,30.26Z"/><path class="cls-3" d="M39.16,206.31a21.63,21.63,0,0,0-.36,30.61h0a21.64,21.64,0,0,0,30.61.36l5.25-5.12-30.26-31Z"/><rect class="cls-3" x="53.37" y="179.89" width="43.3" height="43.3" transform="translate(-119.47 109.78) rotate(-44.33)"/><path class="cls-3" d="M57.08,260.47c10-9.56,17.61-23.9,17.84-33.46-.23,9.56,7.06,23.44,17,32.38"/><path class="cls-3" d="M731.78,889.38a21.66,21.66,0,0,0-30.61.9h0a21.66,21.66,0,0,0,.91,30.61l5.39,5.08,29.7-31.5Z"/><path class="cls-3" d="M773.71,918.83a21.65,21.65,0,0,0-.9-30.61h0a21.66,21.66,0,0,0-30.61.91l-5,5.34,31.51,29.69Z"/><rect class="cls-3" x="716.43" y="903.42" width="43.3" height="43.3" transform="translate(-441.34 827.68) rotate(-46.69)"/><path class="cls-3" d="M753.76,865.55c-9.94,9.76-17,24.4-16.44,34.17-.55-9.77-8.41-23.33-18.35-31.65"/><path class="cls-3" d="M416.67,621.25a54.39,54.39,0,0,0,76.9,0h0a54.38,54.38,0,0,0,0-76.91L480.4,531.17l-76.9,76.91Z"/><path class="cls-3" d="M313.57,544.2a54.38,54.38,0,0,0,0,76.91h0a54.39,54.39,0,0,0,76.9,0l13-13-76.9-76.91Z"/><rect class="cls-3" x="349.12" y="476.8" width="108.76" height="108.76" transform="translate(-257.41 440.89) rotate(-45)"/><path class="cls-3" d="M360.06,679.62c25-24.15,43.78-60.38,43.81-84.54,0,24.16,18.71,58.79,43.72,80.81"/><path class="cls-3" d="M416.67,927.25a54.39,54.39,0,0,0,76.9,0h0a54.38,54.38,0,0,0,0-76.91L480.4,837.17l-76.9,76.91Z"/><path class="cls-3" d="M313.57,850.2a54.38,54.38,0,0,0,0,76.91h0a54.39,54.39,0,0,0,76.9,0l13-13-76.9-76.91Z"/><rect class="cls-3" x="349.12" y="782.8" width="108.76" height="108.76" transform="translate(-473.79 530.52) rotate(-45)"/><path class="cls-3" d="M360.06,985.62c25-24.15,43.78-60.38,43.81-84.54,0,24.16,18.71,58.79,43.72,80.81"/></svg>