<svg id="Layer_1" data-name="Layer 1" xmlns="http://www.w3.org/2000/svg" viewBox="0 0 822 1122"><defs><style>.cls-1{font-size:165.91px;}.cls-1,.cls-3,.cls-4{fill:#6f9797;}.cls-1,.cls-3{font-family:HelveticaNeue-Bold, Helvetica Neue;font-weight:700;}.cls-2{fill:#d6bd80;}.cls-3{font-size:171.95px;}</style></defs><text class="cls-1" transform="translate(32.75 132.18)">7</text><circle class="cls-2" cx="70.89" cy="116.64" r="8.93"/><circle class="cls-2" cx="75.99" cy="92.39" r="8.93"/><circle class="cls-2" cx="83.65" cy="70.69" r="8.93"/><circle class="cls-2" cx="106.62" cy="27.29" r="8.93"/><circle class="cls-2" cx="83.65" cy="27.29" r="8.93"/><circle class="cls-2" cx="56.85" cy="27.29" r="8.93"/><text class="cls-3" transform="translate(806.03 977.71) rotate(180)">7</text><circle class="cls-2" cx="766.5" cy="993.82" r="9.26"/><circle class="cls-2" cx="761.21" cy="1018.95" r="9.26"/><circle class="cls-2" cx="753.28" cy="1041.44" r="9.26"/><circle class="cls-2" cx="729.47" cy="1086.42" r="9.26"/><circle class="cls-2" cx="753.28" cy="1086.42" r="9.26"/><circle class="cls-2" cx="781.06" cy="1086.42" r="9.26"/><path class="cls-4" d="M184.79,236.56c-19-22.08-49.95-22.08-69,0h0c-19.05,22.07-19.05,57.87,0,79.94l11.82,13.69,69-79.94Z"/><path class="cls-4" d="M277.29,316.65c19.06-22.08,19.06-57.87,0-79.95h0c-19.05-22.07-49.94-22.07-69,0L196.6,250.25l69,79.94Z"/><polygon class="cls-4" points="196.6 250.25 127.61 330.19 196.6 410.13 265.6 330.19 196.6 250.25"/><path class="cls-4" d="M184.79,509.62c-19-22.07-49.95-22.07-69,0h0c-19.05,22.08-19.05,57.87,0,80l11.82,13.69,69-80Z"/><path class="cls-4" d="M277.29,589.71c19.06-22.07,19.06-57.87,0-79.94h0c-19.05-22.08-49.94-22.08-69,0L196.6,523.31l69,80Z"/><polygon class="cls-4" points="196.6 523.31 127.61 603.26 196.6 683.2 265.6 603.26 196.6 523.31"/><path class="cls-4" d="M184.79,817.42c-19-22.07-49.95-22.07-69,0h0c-19.05,22.08-19.05,57.87,0,80l11.82,13.69,69-79.95Z"/><path class="cls-4" d="M277.29,897.51c19.06-22.07,19.06-57.87,0-79.94h0c-19.05-22.08-49.94-22.08-69,0L196.6,831.11l69,79.95Z"/><polygon class="cls-4" points="196.6 831.11 127.61 911.06 196.6 991 265.6 911.06 196.6 831.11"/><path class="cls-4" d="M590.6,807.42c-19.05-22.07-49.94-22.07-69,0h0c-19.06,22.08-19.06,57.87,0,80l11.81,13.69,69-79.95Z"/><path class="cls-4" d="M683.11,887.51c19-22.07,19-57.87,0-79.94h0c-19.06-22.08-50-22.08-69,0l-11.69,13.54,69,79.95Z"/><polygon class="cls-4" points="602.42 821.11 533.42 901.06 602.42 981 671.42 901.06 602.42 821.11"/><path class="cls-4" d="M590.85,525.71c-19.05-22.08-50-22.08-69,0h0c-19.05,22.07-19.05,57.87,0,79.94l11.82,13.69,69-79.94Z"/><path class="cls-4" d="M683.35,605.8c19.06-22.08,19.06-57.87,0-79.95h0c-19.05-22.07-49.94-22.07-69,0L602.67,539.4l69,79.94Z"/><polygon class="cls-4" points="602.67 539.4 533.67 619.34 602.67 699.29 671.66 619.34 602.67 539.4"/><path class="cls-4" d="M590.85,238.17c-19.05-22.08-50-22.08-69,0h0c-19.05,22.08-19.05,57.87,0,79.94l11.82,13.7,69-79.95Z"/><path class="cls-4" d="M683.35,318.26c19.06-22.07,19.06-57.87,0-79.94h0c-19.05-22.08-49.94-22.08-69,0l-11.69,13.54,69,79.95Z"/><polygon class="cls-4" points="602.67 251.86 533.67 331.81 602.67 411.75 671.66 331.81 602.67 251.86"/><path class="cls-4" d="M387.82,415.15c-19.05-22.08-49.95-22.08-69,0h0c-19.05,22.08-19.05,57.87,0,79.94l11.82,13.69,69-79.94Z"/><path class="cls-4" d="M480.32,495.24c19.06-22.08,19.06-57.87,0-79.94h0c-19.05-22.08-49.94-22.08-69,0l-11.68,13.54,69,79.94Z"/><polygon class="cls-4" points="399.63 428.84 330.64 508.79 399.63 588.73 468.63 508.79 399.63 428.84"/><path class="cls-4" d="M61.25,156.84c-11.32-13.12-29.68-13.12-41,0h0c-11.32,13.12-11.32,34.39,0,47.51l7,8.14,41-47.51Z"/><path class="cls-4" d="M116.23,204.44c11.32-13.12,11.32-34.39,0-47.51h0c-11.33-13.12-29.69-13.12-41,0l-7,8,41,47.51Z"/><polygon class="cls-4" points="68.27 164.98 27.27 212.49 68.27 260 109.28 212.49 68.27 164.98"/><path class="cls-4" d="M760.46,948.24c11.17,13.25,29.53,13.46,41,.47h0c11.47-13,11.72-34.26.54-47.51L795.09,893l-41.56,47Z"/><path class="cls-4" d="M706,900c-11.48,13-11.72,34.26-.55,47.51h0c11.17,13.25,29.53,13.46,41,.47l7-8-40.45-48Z"/><polygon class="cls-4" points="753.53 940.02 795.09 892.99 754.63 845 713.08 892.04 753.53 940.02"/></svg>