<svg id="Layer_1" data-name="Layer 1" xmlns="http://www.w3.org/2000/svg" viewBox="0 0 822 1122"><defs><style>.cls-1{font-size:176.01px;font-family:HelveticaNeue-Bold, Helvetica Neue;font-weight:700;}.cls-1,.cls-3{fill:#d89d70;}.cls-2{fill:#d6bd80;}</style></defs><text class="cls-1" transform="translate(35.75 170.39)">7</text><circle class="cls-2" cx="73.89" cy="149.64" r="8.93"/><circle class="cls-2" cx="80.99" cy="125.39" r="8.93"/><circle class="cls-2" cx="90.65" cy="101.69" r="8.93"/><circle class="cls-2" cx="109.62" cy="58.29" r="8.93"/><circle class="cls-2" cx="86.65" cy="58.29" r="8.93"/><circle class="cls-2" cx="59.85" cy="58.29" r="8.93"/><text class="cls-1" transform="translate(788.61 968.21) rotate(180)">7</text><circle class="cls-2" cx="750.47" cy="988.97" r="8.93"/><circle class="cls-2" cx="743.37" cy="1013.22" r="8.93"/><circle class="cls-2" cx="733.71" cy="1036.92" r="8.93"/><circle class="cls-2" cx="714.74" cy="1080.31" r="8.93"/><circle class="cls-2" cx="737.71" cy="1080.32" r="8.93"/><circle class="cls-2" cx="764.51" cy="1080.32" r="8.93"/><path class="cls-3" d="M185.67,375.25a54.39,54.39,0,0,0,76.9,0h0a54.38,54.38,0,0,0,0-76.91L249.4,285.17l-76.9,76.91Z"/><path class="cls-3" d="M82.57,298.2a54.38,54.38,0,0,0,0,76.91h0a54.39,54.39,0,0,0,76.9,0l13-13L95.6,285.17Z"/><rect class="cls-3" x="118.12" y="230.8" width="108.76" height="108.76" transform="translate(-151.12 205.5) rotate(-45)"/><path class="cls-3" d="M129.06,433.62c25-24.15,43.78-60.38,43.81-84.54,0,24.16,18.71,58.79,43.72,80.81"/><path class="cls-3" d="M180.67,648.25a54.39,54.39,0,0,0,76.9,0h0a54.38,54.38,0,0,0,0-76.91L244.4,558.17l-76.9,76.91Z"/><path class="cls-3" d="M77.57,571.2a54.38,54.38,0,0,0,0,76.91h0a54.39,54.39,0,0,0,76.9,0l13-13L90.6,558.17Z"/><rect class="cls-3" x="113.12" y="503.8" width="108.76" height="108.76" transform="translate(-345.63 281.93) rotate(-45)"/><path class="cls-3" d="M124.06,706.62c25-24.15,43.78-60.38,43.81-84.54,0,24.16,18.71,58.79,43.72,80.81"/><path class="cls-3" d="M180.67,931.25a54.39,54.39,0,0,0,76.9,0h0a54.38,54.38,0,0,0,0-76.91L244.4,841.17l-76.9,76.91Z"/><path class="cls-3" d="M77.57,854.2a54.38,54.38,0,0,0,0,76.91h0a54.39,54.39,0,0,0,76.9,0l13-13L90.6,841.17Z"/><rect class="cls-3" x="113.12" y="786.8" width="108.76" height="108.76" transform="translate(-545.74 364.81) rotate(-45)"/><path class="cls-3" d="M124.06,989.62c25-24.15,43.78-60.38,43.81-84.54,0,24.16,18.71,58.79,43.72,80.81"/><path class="cls-3" d="M627.67,930.25a54.39,54.39,0,0,0,76.9,0h0a54.38,54.38,0,0,0,0-76.91L691.4,840.17l-76.9,76.91Z"/><path class="cls-3" d="M524.57,853.2a54.38,54.38,0,0,0,0,76.91h0a54.39,54.39,0,0,0,76.9,0l13-13-76.9-76.91Z"/><rect class="cls-3" x="560.12" y="785.8" width="108.76" height="108.76" transform="translate(-414.11 680.6) rotate(-45)"/><path class="cls-3" d="M571.06,988.62c25-24.15,43.78-60.38,43.81-84.54,0,24.16,18.71,58.79,43.72,80.81"/><path class="cls-3" d="M628.67,665.25a54.39,54.39,0,0,0,76.9,0h0a54.38,54.38,0,0,0,0-76.91L692.4,575.17l-76.9,76.91Z"/><path class="cls-3" d="M525.57,588.2a54.38,54.38,0,0,0,0,76.91h0a54.39,54.39,0,0,0,76.9,0l13-13-76.9-76.91Z"/><rect class="cls-3" x="561.12" y="520.8" width="108.76" height="108.76" transform="translate(-226.43 603.69) rotate(-45)"/><path class="cls-3" d="M572.06,723.62c25-24.15,43.78-60.38,43.81-84.54,0,24.16,18.71,58.79,43.72,80.81"/><path class="cls-3" d="M625.67,376.25a54.39,54.39,0,0,0,76.9,0h0a54.38,54.38,0,0,0,0-76.91L689.4,286.17l-76.9,76.91Z"/><path class="cls-3" d="M522.57,299.2a54.38,54.38,0,0,0,0,76.91h0a54.39,54.39,0,0,0,76.9,0l13-13-76.9-76.91Z"/><rect class="cls-3" x="558.12" y="231.8" width="108.76" height="108.76" transform="translate(-22.96 516.92) rotate(-45)"/><path class="cls-3" d="M569.06,434.62c25-24.15,43.78-60.38,43.81-84.54,0,24.16,18.71,58.79,43.72,80.81"/><path class="cls-3" d="M414.67,572.25a54.39,54.39,0,0,0,76.9,0h0a54.38,54.38,0,0,0,0-76.91L478.4,482.17l-76.9,76.91Z"/><path class="cls-3" d="M311.57,495.2a54.38,54.38,0,0,0,0,76.91h0a54.39,54.39,0,0,0,76.9,0l13-13-76.9-76.91Z"/><rect class="cls-3" x="347.12" y="427.8" width="108.76" height="108.76" transform="translate(-223.35 425.13) rotate(-45)"/><path class="cls-3" d="M358.06,630.62c25-24.15,43.78-60.38,43.81-84.54,0,24.16,18.71,58.79,43.72,80.81"/><path class="cls-3" d="M755.78,884.38a21.66,21.66,0,0,0-30.61.9h0a21.66,21.66,0,0,0,.91,30.61l5.39,5.08,29.7-31.5Z"/><path class="cls-3" d="M797.71,913.83a21.65,21.65,0,0,0-.9-30.61h0a21.66,21.66,0,0,0-30.61.91l-5,5.34,31.51,29.69Z"/><rect class="cls-3" x="740.43" y="898.42" width="43.3" height="43.3" transform="translate(-430.16 843.58) rotate(-46.69)"/><path class="cls-3" d="M777.76,860.55c-9.94,9.76-17,24.4-16.44,34.17-.55-9.77-8.41-23.33-18.35-31.65"/><path class="cls-3" d="M66.08,257.12a21.65,21.65,0,0,0,30.57,1.7h0a21.65,21.65,0,0,0,1.7-30.57l-4.95-5.53L61.14,251.6Z"/><path class="cls-3" d="M26.79,224.23A21.65,21.65,0,0,0,25.1,254.8h0a21.64,21.64,0,0,0,30.57,1.69l5.47-4.89L32.26,219.33Z"/><rect class="cls-3" x="41.18" y="199.38" width="43.3" height="43.3" transform="translate(-131.39 98.23) rotate(-41.83)"/><path class="cls-3" d="M42.54,279.16c10-9.2,18.23-23.19,19.28-32.65-1,9.46,5.64,23.64,15.6,33.09"/></svg>