<svg id="Layer_1" data-name="Layer 1" xmlns="http://www.w3.org/2000/svg" viewBox="0 0 822 1122"><defs><style>.cls-1{font-size:131.54px;font-family:HelveticaNeue-Bold, Helvetica Neue;font-weight:700;}.cls-1,.cls-3{fill:#6f9797;}.cls-2{fill:#d6bd80;}</style></defs><text class="cls-1" transform="translate(4.75 119.64)">10</text><circle class="cls-2" cx="47.52" cy="39.52" r="7.08"/><circle class="cls-2" cx="47.52" cy="56.72" r="7.08"/><circle class="cls-2" cx="31.33" cy="50.64" r="7.08"/><circle class="cls-2" cx="47.52" cy="73.92" r="7.08"/><circle class="cls-2" cx="94.55" cy="44.22" r="7.08"/><circle class="cls-2" cx="113.78" cy="33.09" r="7.08"/><circle class="cls-2" cx="90.5" cy="66.48" r="7.08"/><circle class="cls-2" cx="91.52" cy="87.73" r="7.08"/><circle class="cls-2" cx="98.33" cy="106.45" r="7.08"/><circle class="cls-2" cx="115.54" cy="113.56" r="7.08"/><circle class="cls-2" cx="133.38" cy="105.19" r="7.08"/><circle class="cls-2" cx="138.44" cy="87.99" r="7.08"/><circle class="cls-2" cx="138.45" cy="66.74" r="7.08"/><circle class="cls-2" cx="133.39" cy="43.46" r="7.08"/><circle class="cls-2" cx="47.52" cy="91.12" r="7.08"/><circle class="cls-2" cx="47.52" cy="109.33" r="7.08"/><text class="cls-1" transform="translate(825.5 1019.73) rotate(180)">10</text><circle class="cls-2" cx="782.73" cy="1099.86" r="7.08"/><circle class="cls-2" cx="782.73" cy="1082.66" r="7.08"/><circle class="cls-2" cx="798.92" cy="1088.73" r="7.08"/><circle class="cls-2" cx="782.73" cy="1065.46" r="7.08"/><circle class="cls-2" cx="735.7" cy="1095.16" r="7.08"/><circle class="cls-2" cx="716.47" cy="1106.29" r="7.08"/><circle class="cls-2" cx="739.75" cy="1072.9" r="7.08"/><circle class="cls-2" cx="738.73" cy="1051.65" r="7.08"/><circle class="cls-2" cx="731.92" cy="1032.93" r="7.08"/><circle class="cls-2" cx="714.71" cy="1025.82" r="7.08"/><circle class="cls-2" cx="696.87" cy="1034.19" r="7.08"/><circle class="cls-2" cx="691.8" cy="1051.39" r="7.08"/><circle class="cls-2" cx="691.8" cy="1072.64" r="7.08"/><circle class="cls-2" cx="696.86" cy="1095.92" r="7.08"/><circle class="cls-2" cx="782.73" cy="1048.26" r="7.08"/><circle class="cls-2" cx="782.73" cy="1030.04" r="7.08"/><ellipse class="cls-3" cx="180.83" cy="189.26" rx="102.94" ry="133.12"/><ellipse class="cls-3" cx="180.83" cy="473.26" rx="102.94" ry="133.12"/><ellipse class="cls-3" cx="185.83" cy="733.26" rx="102.94" ry="133.12"/><ellipse class="cls-3" cx="185.83" cy="987.26" rx="102.94" ry="133.12"/><ellipse class="cls-3" cx="640.83" cy="184.26" rx="102.94" ry="133.12"/><ellipse class="cls-3" cx="412.83" cy="683.26" rx="102.94" ry="133.12"/><ellipse class="cls-3" cx="412.83" cy="352.26" rx="102.94" ry="133.12"/><ellipse class="cls-3" cx="640.83" cy="468.26" rx="102.94" ry="133.12"/><ellipse class="cls-3" cx="640.83" cy="740.26" rx="102.94" ry="133.12"/><ellipse class="cls-3" cx="640.83" cy="980.26" rx="102.94" ry="133.12"/></svg>