<svg id="Layer_1" data-name="Layer 1" xmlns="http://www.w3.org/2000/svg" viewBox="0 0 822 1122"><defs><style>.cls-1{font-size:177.66px;font-family:HelveticaNeue-Bold, Helvetica Neue;font-weight:700;}.cls-1,.cls-3{fill:#d89d70;}.cls-2{fill:#d6bd80;}.cls-4{fill:none;stroke:#d89d70;stroke-miterlimit:10;stroke-width:3px;}</style></defs><text class="cls-1" transform="translate(12.75 144.57)">K</text><circle class="cls-2" cx="38.74" cy="33.86" r="9.57"/><circle class="cls-2" cx="38.72" cy="59.8" r="9.57"/><circle class="cls-2" cx="38.72" cy="92.61" r="9.57"/><circle class="cls-2" cx="61.61" cy="78.23" r="9.57"/><circle class="cls-2" cx="80.74" cy="55" r="9.57"/><circle class="cls-2" cx="87.57" cy="90.53" r="9.57"/><circle class="cls-2" cx="101.24" cy="112.4" r="9.57"/><circle class="cls-2" cx="117.64" cy="131.53" r="9.57"/><circle class="cls-2" cx="101.24" cy="34.5" r="9.57"/><circle class="cls-2" cx="38.72" cy="121.3" r="9.57"/><text class="cls-1" transform="translate(817.15 979.9) rotate(-179.89)">K</text><circle class="cls-2" cx="790.94" cy="1090.55" r="9.57"/><circle class="cls-2" cx="791.01" cy="1064.61" r="9.57"/><circle class="cls-2" cx="791.07" cy="1031.81" r="9.57"/><circle class="cls-2" cx="768.16" cy="1046.14" r="9.57"/><circle class="cls-2" cx="748.98" cy="1069.33" r="9.57"/><circle class="cls-2" cx="742.22" cy="1033.78" r="9.57"/><circle class="cls-2" cx="728.6" cy="1011.89" r="9.57"/><circle class="cls-2" cx="712.24" cy="992.73" r="9.57"/><circle class="cls-2" cx="728.44" cy="1089.79" r="9.57"/><circle class="cls-2" cx="791.13" cy="1003.11" r="9.57"/><path class="cls-3" d="M755.78,897.38a21.66,21.66,0,0,0-30.61.9h0a21.66,21.66,0,0,0,.91,30.61l5.39,5.08,29.7-31.5Z"/><path class="cls-3" d="M797.71,926.83a21.65,21.65,0,0,0-.9-30.61h0a21.66,21.66,0,0,0-30.61.91l-5,5.34,31.51,29.69Z"/><rect class="cls-3" x="740.43" y="911.42" width="43.3" height="43.3" transform="translate(-439.62 847.66) rotate(-46.69)"/><path class="cls-3" d="M777.76,873.55c-9.94,9.76-17,24.4-16.44,34.17-.55-9.77-8.41-23.33-18.35-31.65"/><path class="cls-3" d="M619.47,855.23A31.62,31.62,0,0,0,574,856.61h0a33.46,33.46,0,0,0,1.35,46.52l8,7.73,44.1-47.9Z"/><path class="cls-3" d="M681.75,900a33.47,33.47,0,0,0-1.35-46.52h0A31.62,31.62,0,0,0,635,854.85L627.49,863l46.79,45.14Z"/><polygon class="cls-3" points="627.49 862.96 583.39 910.86 630.18 956 674.27 908.11 627.49 862.96"/><path class="cls-3" d="M652.11,819c-14.76,14.83-25.22,37.09-24.41,51.92-.81-14.83-12.49-35.45-27.25-48.1"/><path class="cls-3" d="M82.08,225.12a21.65,21.65,0,0,0,30.57,1.7h0a21.65,21.65,0,0,0,1.7-30.57l-4.95-5.53L77.14,219.6Z"/><path class="cls-3" d="M42.79,192.23A21.65,21.65,0,0,0,41.1,222.8h0a21.64,21.64,0,0,0,30.57,1.69l5.47-4.89L48.26,187.33Z"/><rect class="cls-3" x="57.18" y="167.38" width="43.3" height="43.3" transform="translate(-105.97 100.75) rotate(-41.83)"/><path class="cls-3" d="M58.54,247.16c10-9.2,18.23-23.19,19.28-32.65-1,9.46,5.64,23.64,15.6,33.09"/><path class="cls-3" d="M230.64,235.66c13.9,16.73,37.76,18.16,53.29,3.18h0c15.53-15,16.85-40.68,2.95-57.41l-8.62-10.38L222,225.29Z"/><path class="cls-3" d="M162.15,173.88c-15.53,15-16.85,40.68-3,57.41h0c13.9,16.74,37.76,18.16,53.29,3.18l9.53-9.18-50.34-60.6Z"/><polygon class="cls-3" points="222.02 225.28 278.26 171.05 227.92 110.46 171.68 164.69 222.02 225.28"/><path class="cls-3" d="M189.61,277c17.37-17.27,31.77-43.55,33.61-61.3-1.84,17.75,9.82,44.38,27.19,62.14"/><path class="cls-4" d="M511.78,188.3c-4.95-1.52-9.55,2.19-14.59,1.2-6.69-1.31-13.59-4.15-20.53-4.47-12.3-.56-21,0-31.48,7.4-1.57,1.11-5.79,2.66-4.82,5.4,1.93,5.44,15.21-3.87,18.57-4.42,9.4-1.54,19.07.75,28.23,2a32.23,32.23,0,0,0,16.35-2.08c2.72-1.09,8.62-2,10.1-4.43C513.45,188.37,513.32,188.79,511.78,188.3Z"/><path class="cls-4" d="M503.53,207.49c-4.26.6-5.23,2-9.25-1.11-2.11-1.6-3.64-4.12-5.81-5.57-2.61-1.74-6.5-1-9.54-.72-3.55.37-7,1.37-10.62,1.91-5.58.84-10.13,1.27-14.77,4.57-3.26,2.32-6.56,4.16-9.56,6.82a25.32,25.32,0,0,1-2.84,2.23"/><path class="cls-4" d="M445.83,218.58c8.18,0,14.74-4.63,22.54-6.06,6.82-1.24,15.15.59,21.73,2.61,2.48.77,5.62,2.13,8.24,2-1.51,4.75-6.62,6.64-10.88,8.33-5.13,2-10.6,4-16,2.27a41.92,41.92,0,0,1-18.19-11.1"/><path class="cls-4" d="M492.19,226.72c-4.05,1.65-10.72,4.94-13.32,8.38"/><path class="cls-4" d="M528.43,190c0,2.8.74,6.67.74,9.79,0-2.59-.1-5.22,0-7.78,1.68.51,2.88,2.62,4.69,3.37,2.32,1,5.09.78,7.53.78,4.7,0,9.73-.78,14.46-1.23,1.27-.12,3.63-.73,4.84-.13,1.66.81,3.9,5.3,5.35,6.81,1.77,1.84,4.8,6.39,7.69,6.35.46-4.87-2.65-10.05-6.07-13.27-5.22-4.91-10.78-6.13-17.78-5.24-5.31.68-10.46,3.74-16,2.79C531.4,191.8,529.74,189.15,528.43,190Z"/><path class="cls-4" d="M470,214.64c-3.15,4.69,1,9,5.74,9.59,4.15.52,19.63-2.73,12.27-9.35"/><path class="cls-4" d="M475.91,213.65c-5.75,6.15,7.89,9.62,7.15,2"/><path class="cls-4" d="M563.2,204.28c-3-3.76-11.79-4.31-16.1-3.14a19.36,19.36,0,0,0-7,3.37c-2.53,2-8.26,5.55-9,8.65,6.35-4.11,12.86-3.64,20.43-3.23,5.39.3,14.62,1.72,18.53,5.94-7.83,8.88-20,13.2-30.52,8.63-4.06-1.75-7.77-3.71-9.68-7.89"/><path class="cls-4" d="M526.46,205.27c0,11.86,2.13,23.7,5.08,35.2,1.22,4.77,5.45,10.89,4.56,16.07-1,5.93-10.57,6.66-11.36,12.84"/><path class="cls-4" d="M521.28,259c-5-.31-10.41,2-15,3.71-2.11.77-6,2.65-8.37,1.65-4.88-2.09-4.14-13,2.16-12.26"/><path class="cls-4" d="M514.13,275.05c-4.93-.06-10.08-1.56-14.74.6-6.12,2.85-10.82,8.37-18,8.54-3.25.08-12.29-2.38-13.34-5.74-1.66-5.33,3.19-7.72,7.51-7.6,2,.06,8.25,2.13,7.5-1.38-1-4.56-12.07-5.52-14.33-1.94-3.4,5.4-1,12.24,3.51,15.94,5,4.09,10.72.93,16-1.28,3.89-1.62,8-3.56,12.19-4.29s5.84.17,9.5,1.54c2.49.94,4.85.64,6-2C516.45,276.13,516.77,274.71,514.13,275.05Z"/><path class="cls-4" d="M526,278.26c-2.65-3.47.36-5.36,4.1-4.95,2.63.28,5.33,2.17,7.8,3.09,2.9,1.07,5.82,2,8.69,3.08,4,1.58,7.12,1.82,8.76-3.07a9.8,9.8,0,0,0,0-6.65c-.74-1.61-2.45-2.71-3.2-4.3,4.23-1,6.6,6.86,6.4,9.91-.31,4.48-4.72,7.8-9.12,8.07-4.58.29-8.13-3.55-12.45-4.69C533.59,277.86,530.14,278.5,526,278.26Z"/><path class="cls-4" d="M518.08,291.08c-4.53-1.13-9.28-3.47-13.93-1.62-2.38,1-4.61,2.61-7,3.6-1.36.55-3.86.92-4.4,2.17,4.92.37,10.36-1.72,15,0A23.89,23.89,0,0,0,518.45,297c5-.34,8.93-2.1,14-1.67,1.28.11,5.36,1,6.12-.54,1.58-3.2-6.92-4.47-8.82-4.45-3.51,0-6.37,2.91-10,2.12-3.06-.66-4.93-2.52-8.32-2.37"/><path class="cls-4" d="M508.71,303.16c3.58-.47,8.59.21,12.82-.73,2.3-.5,5.26-1.75,7.61-1.7C529.94,306.92,513.24,306.45,508.71,303.16Z"/><path class="cls-4" d="M423.48,277.81c-.12,2.92-5.44,11.92-7.76,15.83a88.44,88.44,0,0,1-7,10.13c-2,2.5-7.85,8.27-11.06,4.59"/><path class="cls-4" d="M391.56,309.18c-.11,3.5,1.81,8.23,6.29,9.57,5.21,1.56,8.73-1.36,11.66-5.29,5.94-7.94,13-17.82,15.35-27.67"/><path class="cls-4" d="M433.94,293.77c.06,4.28-4.56,9.75-6.59,13.21-1.86,3.16-4.11,6.44-5.48,9.86-.89,2.23-1.36,4.52-2.52,6.65"/><path class="cls-4" d="M439.72,299.28c-.14,4-3.65,8.35-5.31,11.92a47.51,47.51,0,0,0-3.94,13.27c-.93,6.06-2.81,14.09,1.73,19,7.7,8.4,21-1.95,26.43-8.47,3.18-3.81,7.48-11.22,7.78-16.49"/><path class="cls-4" d="M459,312.76c.31,5.25-4.61,12.17-9.24,14.46-2.76,1.37-7.65,2-9.62-.72-3.06-4.31-.08-12.47,2.78-16.07,1.4-1.76,3.85-2.85,4.8-4.83"/><path class="cls-4" d="M472.73,322.39c-1.35,7.55-6.73,13.63-9.9,20.36"/><path class="cls-4" d="M481.26,326.52c-6,3.47-8.39,16.29-9.62,22.72-1.43,7.53-.74,14.29,8.25,14.92,9.85.69,16.62-6.06,20.15-14.71,1.66-4.07,4.46-8.45,5.71-12.48"/><path class="cls-4" d="M500,337.25c.62,5.18-10.3,22.52-16.24,15.93-5.15-5.71,3.14-15.33,3.85-21.16"/><path class="cls-4" d="M436,169.5a281.09,281.09,0,0,1-5,49,283.63,283.63,0,0,1-30,83"/><path class="cls-4" d="M385,310.5a263.4,263.4,0,0,0,33.5-81.07A261.64,261.64,0,0,0,425,168.5"/><path class="cls-4" d="M400.72,302.86c-2.57,2-10.7,6.26-13.27,2.36"/><path class="cls-4" d="M383.17,311.56c-2.43,0-7.95,1.05-9.28-1.62"/><path class="cls-4" d="M371.82,310.53c0,4.92,0,11.79-6.19,12.8a7.76,7.76,0,0,1-8.1-4"/><path class="cls-4" d="M354.14,318.49c.48,3.91-8.17,7.51-11,8.67-1.65.67-6,2.4-7.4.47"/><path class="cls-4" d="M333.21,327.77c-5-.36-9.78,2.19-14-1.62"/><path class="cls-4" d="M314.78,325.12c-4.82,0-14.14,1.88-17.25-3.09-8.71-.06-14.84-8.16-16.59-16.31-1.31-6.07.75-12.39,4.38-17.29s11-7.66,17-5.88c4.46,1.33,10.15,4.29,11.74,9"/><path class="cls-4" d="M294,298c-.15,5.6,4.28,7,9.39,6.79,6.05-.25,11.3-5.86,14.24-10.93"/><path class="cls-4" d="M367,176.5a437,437,0,0,1-18,82c-12.4,38.26-22.89,52.09-37,57a37,37,0,0,1-12,2"/><path class="cls-4" d="M378.53,174.38A664.77,664.77,0,0,1,364,245.5c-7.86,30-13.78,43.8-24,57a113,113,0,0,1-20,20"/><path class="cls-4" d="M391.56,172.75A612.85,612.85,0,0,1,375,245.5c-7.95,27.06-14.12,40.88-21,53a201.38,201.38,0,0,1-16,24"/><path class="cls-4" d="M400.72,170.5a388.39,388.39,0,0,1-10.72,67,306.09,306.09,0,0,1-12,38,267.54,267.54,0,0,1-20,40"/><path class="cls-4" d="M413,170.5a372.2,372.2,0,0,1-37,136"/><path class="cls-4" d="M537.83,332.81c-.31,3.07,4.12,19,9.39,14.57,4.15-3.46,1.88-15-1.52-18.15"/><path class="cls-4" d="M530.67,334.24c0,7.27,4.25,14.79,8.88,20.35,3.85,4.62,9.34,3.93,13.54.47,5.08-4.18,7.57-8.77,7.21-15.56s-5-10.91-7.44-16.71"/><path class="cls-4" d="M522.56,336.87c.05,6.44.67,11.68,4.37,17.08,2.13,3.1,4,7.75,7.43,9.59,6.46,3.43,17.41,4.48,24.27,1.75,3.38-1.34,5.23-3.65,6.5-7,2.49-6.62,2.45-15.73,1.5-22.61-1.09-7.89-7.59-13.71-10.43-20.73"/><path class="cls-4" d="M563.84,301.79c-1,1.67,1.59,5.8,2.35,7.44,1.21,2.62,3.14,5.53,2.91,8.57-.22,2.7-2.6,4.34-5.26,4.75"/><path class="cls-4" d="M568.85,291.3c2.92,5.19,7.21,9.94,9.11,15.69,1.54,4.67,1.17,9.76,1.14,14.59,0,2.92-.5,3.47-3.14,5-2.27,1.3-5,3-7.59,3.64"/><path class="cls-4" d="M569.56,337.1c5.73-.07,9.48-7.34,10.7-11.9a54.19,54.19,0,0,0,.28-26.6,27.35,27.35,0,0,0-7.75-12.72,9.47,9.47,0,0,1-3-4.6"/><path class="cls-4" d="M571.71,248.35c-.18,2.42,2,7.65,2.87,10.41,1.54,4.83,3.22,9,3.34,14.11.09,4,0,8.43-2.16,11.75"/><path class="cls-4" d="M572.42,232.37c6.67,12.1,14.44,23.37,13.83,37.84-.34,8.31-2.92,16.7-4,24.9"/><path class="cls-4" d="M570.11,207.94a288.36,288.36,0,0,1,0,42.68A206.18,206.18,0,0,1,567,275.5c-3.56,18.61-5.6,29.3-13,39-3.3,4.32-13,15.38-34,20l-16,35"/><path class="cls-4" d="M500,374.78A401.37,401.37,0,0,0,469,492.5h13.07"/><path class="cls-4" d="M493.05,375.45a482.64,482.64,0,0,0-22.56,63.49,494,494,0,0,0-13.67,66.39l13.06.52"/><path class="cls-4" d="M530.67,369.5c-6,11.48-12,23.82-17.67,37a549.7,549.7,0,0,0-28,82"/><path class="cls-4" d="M544.9,369.5a280.21,280.21,0,0,0-50.9,134H477.32"/><path class="cls-3" d="M271.09,335.41c-3.9-1.9-7.91.8-9,6h0c-1.07,5.24,1.23,11,5.12,12.93l2.41,1.18,3.85-19Z"/><path class="cls-3" d="M288.24,340.26c1.06-5.24-1.23-11-5.12-12.93h0c-3.89-1.9-7.91.81-9,6.05l-.65,3.21,14.09,6.89Z"/><polygon class="cls-3" points="273.5 336.59 269.65 355.56 283.74 362.45 287.59 343.48 273.5 336.59"/><path class="cls-3" d="M274.49,321.64c-2.69,5-2.47,12.61.53,17.65-3-5-7.49-9.39-10.49-10.15"/><path class="cls-3" d="M293.09,378.41c-3.9-1.9-7.91.8-9,6h0c-1.07,5.24,1.23,11,5.12,12.93l2.41,1.18,3.85-19Z"/><path class="cls-3" d="M310.24,383.26c1.06-5.24-1.23-11-5.12-12.93h0c-3.89-1.9-7.91.81-9,6.05l-.65,3.21,14.09,6.89Z"/><polygon class="cls-3" points="295.5 379.59 291.65 398.56 305.74 405.45 309.59 386.48 295.5 379.59"/><path class="cls-3" d="M296.49,364.64c-2.69,5-2.47,12.61.53,17.65-3-5-7.49-9.39-10.49-10.15"/><path class="cls-3" d="M311.09,421.41c-3.9-1.9-7.91.8-9,6h0c-1.07,5.24,1.23,11,5.12,12.93l2.41,1.18,3.85-19Z"/><path class="cls-3" d="M328.24,426.26c1.06-5.24-1.23-11-5.12-12.93h0c-3.89-1.9-7.91.81-9,6.05l-.65,3.21,14.09,6.89Z"/><polygon class="cls-3" points="313.5 422.59 309.65 441.56 323.74 448.45 327.59 429.48 313.5 422.59"/><path class="cls-3" d="M314.49,407.64c-2.69,5-2.47,12.61.53,17.65-3-5-7.49-9.39-10.49-10.15"/><path class="cls-3" d="M326.17,464.64c-3.3-2.8-7.86-1.18-10.19,3.64h0c-2.32,4.81-1.53,11,1.76,13.79l2.05,1.74,8.42-17.43Z"/><path class="cls-3" d="M341.59,473.59c2.32-4.81,1.53-11-1.77-13.79h0c-3.29-2.81-7.85-1.18-10.18,3.63l-1.43,2.95,12,10.16Z"/><polygon class="cls-3" points="328.21 466.38 319.79 483.81 331.74 493.97 340.16 476.54 328.21 466.38"/><path class="cls-3" d="M332.59,451.79c-3.29,4.93-4.94,12.31-3.86,17.24-1.08-4.93-4.36-10.26-7.65-12.43"/><path class="cls-3" d="M559.9,399.26c1.49,4.07,6.26,4.9,10.66,1.85h0c4.39-3,6.75-8.8,5.26-12.87l-.93-2.52-15.91,11Z"/><path class="cls-3" d="M550.89,383.88c-4.39,3-6.75,8.81-5.26,12.87h0c1.49,4.07,6.26,4.9,10.65,1.86l2.7-1.87L553.58,382Z"/><polygon class="cls-3" points="558.98 396.74 574.89 385.72 569.5 370.99 553.59 382.01 558.98 396.74"/><path class="cls-3" d="M548.86,407.61a131.32,131.32,0,0,0,11.85-13.1,11.74,11.74,0,0,0,.53,14.58"/><path class="cls-3" d="M592.33,355c.84,4.25,5.42,5.81,10.23,3.48h0c4.82-2.33,8-7.66,7.19-11.91l-.52-2.63-17.43,8.43Z"/><path class="cls-3" d="M585.8,338.42c-4.81,2.33-8,7.66-7.19,11.9h0c.85,4.25,5.43,5.81,10.24,3.48l2.95-1.42-3-15.39Z"/><polygon class="cls-3" points="591.8 352.38 609.23 343.95 606.18 328.56 588.75 336.99 591.8 352.38"/><path class="cls-3" d="M580.17,361.29a69.69,69.69,0,0,0,13.73-11.11c-3.93,4.14-4.67,10.35-1.73,14.49"/><path class="cls-3" d="M532.55,444.86c.87,4.25,5.46,5.77,10.26,3.41h0c4.79-2.36,8-7.71,7.1-11.95l-.54-2.63L532,442.23Z"/><path class="cls-3" d="M525.9,428.32c-4.79,2.36-8,7.71-7.1,11.95h0c.87,4.25,5.47,5.77,10.26,3.41l3-1.45-3.16-15.36Z"/><polygon class="cls-3" points="532 442.23 549.37 433.69 546.21 418.32 528.85 426.87 532 442.23"/><path class="cls-3" d="M520.43,451.24A71.64,71.64,0,0,0,534.09,440c-3.9,4.14-4.6,10.35-1.63,14.5"/><path class="cls-3" d="M516.31,494.26c1.59,4,6.38,4.75,10.7,1.61h0c4.32-3.15,6.54-9,5-13l-1-2.5-15.65,11.39Z"/><path class="cls-3" d="M506.94,479.09c-4.32,3.15-6.54,9-4.95,13h0c1.58,4,6.37,4.75,10.69,1.6l2.65-1.93-5.73-14.6Z"/><polygon class="cls-3" points="515.33 491.76 530.98 480.37 525.25 465.78 509.6 477.17 515.33 491.76"/><path class="cls-3" d="M505.42,502.9A126.59,126.59,0,0,0,517,489.53c-3.05,4.16-2.68,10.41.87,14.57"/><path class="cls-4" d="M354.13,339.81a582.54,582.54,0,0,1,21.94,74.51,601.52,601.52,0,0,1,12.07,77.45H373.81"/><path class="cls-4" d="M361.76,332.68a597.32,597.32,0,0,1,29.61,81.76A609.46,609.46,0,0,1,409,500l-17.58.8"/><path class="cls-4" d="M320.48,333c6.61,14.82,13.14,30.74,19.39,47.76A798.87,798.87,0,0,1,370.59,486.6"/><path class="cls-4" d="M304.88,333a385.62,385.62,0,0,1,37.18,81.32A415.57,415.57,0,0,1,360.71,506H379"/><path class="cls-4" d="M381.57,352.19c-.18-5.14-.88-8,3.24-12.08,3.89-3.89,9.75-3.82,14.56-1.5,8.1,3.91,15.23,14.18,15.29,23.4.43-1.9,5.65-6,7.65-4,1.13,1.16-4.4,10.76-5,12.14-1.14,2.54-3.49,5.51-3.25,8.44-7.64-8.94-7.84-22-19.91-26.95C389.31,349.7,382,347.89,381.57,352.19Z"/><path class="cls-4" d="M423.08,386.07c-1.24-5.36-1.5-12.12,2.73-16.21,1.86-1.79,6.82-5,9.33-3.1,3.2,2.44,4.14,11.09,4.32,14.7a36.17,36.17,0,0,1-.29,8.52c5.63.41,19.57-4.33,20.88,4.42,1.15,7.73-11.86,11.34-17.77,11.2.17,3.44,1.29,6.4-.39,9.75-2,4-6.46,6.66-10.68,7.71-9.5,2.36-6.81-8.88-8-15-5.13.56-10.6,2.58-15.63.22s-7.34-7.76-3.93-12.64C406.46,391.59,417.48,387,423.08,386.07Z"/><path class="cls-4" d="M449.9,379.86c.59-7.83,15.72-11.31,19.77-4.52,2.34,3.92-2.51,7-5.58,9.3C462.34,379.52,455.47,376.73,449.9,379.86Z"/><path class="cls-4" d="M449.33,412.9c.13,4.93.17,14.53-3.48,18.43-1.51,1.61-4.07,2.53-5.89,3.57,1.26,1.37,4.22,4.58,6.37,4.5,2.67-.11,4.83-4.91,6.28-6.87C456.58,427.14,453.74,419.67,449.33,412.9Z"/><path class="cls-4" d="M416.86,415.16c0,5.33-1.05,10.74,3.46,14.33,1.84,1.46,3.93,2.92,5.25,4.8-4.14,3.18-12,2.54-15.38-1.45C406.28,428.21,408.61,420,416.86,415.16Z"/><path class="cls-4" d="M408.22,509.62c2.64.34,5.16,2.47,7.1,4.22,2-6.52,8.2-11.53,9.56-18.34,1.1-5.53-1.18-8.05-3.24-12.86-1.36-3.19-2.3-7.58,2.4-8,6.81-.62,7.61,9.1,7.57,13.67s-1,9-1.69,13.47c-.18,1.24-1.54,5.57-.63,6.87s3.1.94,4.43,1.63c2.28,1.19,3.64,5.42,6.55,5.45,2.58,0,3-4.62,4.26-7-4.18-1.67-7.38-2.53-8.33-7.69-1.16-6.36,3.18-11.8,4.1-17.81,1.34-8.8-3.21-19.09-13-20-13.53-1.22-21.28,16-13.6,26,2.78,3.62,5.66,6.05,4.63,10.93-.63,3-2,6.19-2.79,9.11"/><path class="cls-4" d="M422.91,544.67c-3.59,3.65-6.69,16-1.4,19.35-.08-4,2.36-7.87,2.08-12.14C423.46,549.8,422.55,547.67,422.91,544.67Z"/><path class="cls-4" d="M420.57,535.33c-7.16,4-9.21,18.25-8.69,25.55.35,5,4,10.18,8.09,13.09,6.32,4.44,9-11.46,9.28-15.74C429.75,548.9,427.72,539.51,420.57,535.33Z"/><path class="cls-4" d="M420.24,524c-6,2-10,12.75-11.8,18.06-2,6-3.23,13.39-1.84,19.7,1.52,6.87,6.09,13.13,11.26,17.65,4.34-5,9.75-9.07,14-14.1,5-5.86,3.44-16.06,2.08-23-1.53-7.78-2.41-14-7.34-19.94-1.12-1.35-1.85-4.1-3.72-3"/><path class="cls-4" d="M355.81,534.66c9.92,0,19.76-1,29.69-1,2.58,0,5.9-.55,8.32.39-.9,3.75-3.4,7.36-4.32,11.44-.8,3.58-1.05,7.41-2,10.87"/><path class="cls-4" d="M445.61,535c.57,3.25,4.34,6.06,5.68,9.17a21.67,21.67,0,0,1,2,8.46c-.17-5.94-5.57-12.81-8.61-17.56,10.62-.63,22.64-2.11,33.26-.68a54.47,54.47,0,0,0,7.4,1"/><path class="cls-4" d="M541.52,212.53c-.63,2.71-1.65,6.49.29,8.84,3.41,4.13,8.74,3.36,13.58,3.34,3.44,0,4.65-2.24,4.69-5.59a8.82,8.82,0,0,0-2.79-6.46"/><path class="cls-4" d="M545.53,212.11c-.64.48-.76,3-.58,3.92.56,2.95,4.51,4.24,7.11,4.38,3,.17,4.43-.82,3.56-3.79-.48-1.66-1.48-3.75-3-4.65"/><polyline class="cls-4" points="643 63.5 570.11 175.26 570.11 194.04"/><path class="cls-4" d="M294,63.5l63.53,117.42C354,196.11,349.6,212.39,344,229.5a562.86,562.86,0,0,1-24,61"/><path class="cls-4" d="M560.33,172.75A464.85,464.85,0,0,0,361,174.5"/><polygon class="cls-4" points="690 137.5 660.38 162.8 660 472.5 716.5 480.37 716.5 162.8 690 137.5"/><path class="cls-4" d="M692.1,474.41c-.09-4-2-7.09-3.4-10.83-3.44-9-5.07-17.53-6.4-27-1.52-10.82-3-22.28-.42-33.07,2.73-11.57,9.56-21.45,11.7-33.29,3-16.69-3-27.33-7.07-42.89-6-22.81-9-55.36-.72-77.33,6.41-16.95,12.14-42.22,3.05-59.43"/><line class="cls-4" x1="580.54" y1="298.6" x2="660" y2="351.76"/><path class="cls-4" d="M637.88,340.88A293.28,293.28,0,0,0,558,454.5"/><path class="cls-4" d="M643.61,348.15A312.25,312.25,0,0,0,567,462.5"/><path class="cls-4" d="M657.93,382A181.71,181.71,0,0,0,597,479.5"/><path class="cls-4" d="M605.3,479.5a323.3,323.3,0,0,1,52.7-78"/><polyline class="cls-4" points="642.14 354.88 642.14 376.24 657.93 375.3"/><polyline class="cls-4" points="623 373.5 624 392.5 637.88 392.5"/><polyline class="cls-4" points="605.3 397.69 607 419.5 623 416.89"/><polyline class="cls-4" points="588.75 421.57 591 446.5 605.3 440.5"/><polyline class="cls-4" points="577.18 446.5 580.54 463.62 600.85 458.95"/><path class="cls-4" d="M657.64,476.15c-8.4.06-24.33,5.43-25.56,15.38-.58,4.67-1.28,13.85,1.21,18.13,4,6.92,13.44,2.19,18-1.61,3-2.53,4.45-4.23,4.71-8.08.37-5.32.4-8.56,6.53-10.17,11.24-2.95,24.77-1.52,36.31-1.54,6.18,0,12.42,1,18.57.63,5.2-.3,12.47-1.32,14.29-7.22,1.89-6.14-5.57-6-9.21-3.56"/><path class="cls-4" d="M692,500.85c-.73,4.9,9.72,7.33,13.27,7.46,2.77.11,3.63-.49,4.26-3.34s0-3.11-2.57-3.6c-3.42-.64-6.85-.66-10.22-1.27-4.61-.85-7.45-5.41-12.48-5.79-6.31-.47-15.52,4.13-19.54,9.09-3,3.66-4.84,9.85-6.44,14.31-6,16.69-11.44,44.08,10.76,50.57,3.55,1,8.78.19,11.65,2.83,1,.94,1.14,2.16,2.42,2.82,1.8.91,5.34.22,6.89-1"/><path class="cls-4" d="M696,515.36c-4.85,0-9.65-.38-14.47-.52a11.1,11.1,0,0,0-8,2.82c-1.32,1-2.42,2.66-4,3.23a9.08,9.08,0,0,1,0-2.27"/><path class="cls-4" d="M689.7,520.62c.91,3,3.83,7.36,2.48,10.69-1.25,3.07-7.45,4.12-10.2,3.16-4.31-1.49-3-6.93-.85-9.92C683.11,521.82,685.94,522.13,689.7,520.62Z"/><path class="cls-4" d="M692.7,535.88c-4.78,0-12.51-1.59-16.83.61-3.52,1.8-1.56,6.45,1.28,8,4.34,2.4,14.83,3.16,17.21-2.76C695.27,539.48,692.66,538.72,692.7,535.88Z"/><path class="cls-4" d="M692,552.9a6.13,6.13,0,0,0,0-1.71c-4.09-1.93-16.48-.56-7.72,3.85,2,1,6.14,3.2,8.44,2.27,1.39-.56,2.35-2.81,2.48-4.21C695.33,550.67,694.54,550.37,692,552.9Z"/><path class="cls-4" d="M699.21,563.91c-1.88,0-5.41-.8-7,.12s-2.31,3.59-.69,4.94c.85.7,8.28,1.24,9.4.21,1.55-1.43-.56-3.76-1.74-4.77"/><path class="cls-4" d="M694.2,558.41c3.13,1.22,8.81.26,12.29.25,3.92,0,7.56,2.22,11.31.16,3.4-1.87,4.42-6.18,3.44-9.75-2.13-7.79-10.23-3.59-15.8-5.37,4.19,0,9.94-.78,13.18-3.71,3.83-3.46,8.57-12.8,6.78-17.9-3.83.1-7.74,3.49-11.1,5.1-4,1.95-9.09,4.38-13.58,5,9.4-3.58,20.44-8.14,20-20,0-1.28.07-5.05-1.49-5.53-1.23-.38-2.63,1.27-3.48,1.86-3.17,2.18-6.86,3.44-10.29,5.1-3.6,1.75-7.52,4-11.28,5.33"/><path class="cls-4" d="M273.52,312.17A470.82,470.82,0,0,0,121,398.5"/><path class="cls-4" d="M116.64,413.73c1.44-2,3.39-5,5.81-4.93,1.84.08,6.22,4.05,7.72,5.07s2.77,2,4.06,2.81c-2.88,2.27-7.94.61-11.25,2.89-4.45,3.08-1.09,7.4,2.56,10.13,1,.72,3,2.61,4.2,2.65,3,.11,6.17-4.5,8.55-6,6.17-3.9,8.73,6.81,13.24,10.35-.83-1.22-2.84.16-4.47.1-3.24-.13-1.93-1.74-4.86,1.2-7.06,7.09,1.74,10.24,6,16.42,6.75-1.1,11.44-11.07,18.7-11.52a49.14,49.14,0,0,0,3.81,9.33c1.13,1.91,5.15,4.81,5.66,6.83.56,2.25-2.4,4-4.53,5.24-.34-2.07-4.33-7.72-6.82-7.34-4.9.75-3.94,6.3-2.44,8.8,1.68,2.83,4.1,8.36,8,6.83,1.16-.46,3.16-3.26,4.08-4a26.79,26.79,0,0,1,6.14-3.69,32.94,32.94,0,0,1,4.43-1.43c3.5,4,5.09,10.13,7.68,14.72-2.76.56-4.21,2.05-6.36,3.5-3.72-5.74-6.57-2.2-10.68,1.53,2.4,5.74,10.16,7.64,12.59,13.82,3.82-.41,7.73-11.25,13.05-9.66,2.68.8,4.46,9,5.62,11.56,1,2.27,2.6,4.55,3.45,6.8-2.73.94-5.89,1.46-8.72,2.47-.11-2.95-2.13-5.14-2.62-7.9-3.64-.27-6.05-.62-6.68,2.74-.92,4.91,5.71,13.76,8.4,17.73,2-4.19,4.94-4.64,9.29-4.82,1.81-.07,3.82.45,4.13-1.53,3.28-.42,3.52,6.38,4.47,8.62.51,1.22,2.08,3.08,1.93,4.46-.33,3-5.46,5-8,4.84-.41-9.71-2.5-8.83-10.91-7.69.09,5.21,3.83,14.05,7,18.56"/><path class="cls-4" d="M218.56,586.47c0-2.28-1.95-8.88-1.28-10.43.58-1.34,4.2-2.13,5.51-1.18,2,1.43.82,6.67,2.72,8.11,1.74,1.32,6.71.31,9.05.29,0-5.23-2.37-10.41-2.59-15.66-4.43-.19-8.95-.32-13.37-.39-.09-2.38.19-4.89,0-7.27-.25-2.79-2.36-4.68-2.7-6.9s1.18-3.19,3.89-3.09c.86,2.73,1.52,6.51,3.57,8.33a25.75,25.75,0,0,1,5.13-4.22,30.19,30.19,0,0,1-3.88-11.47c-2.31-.07-6.58-.7-8.28.3"/><path class="cls-4" d="M134,394.78a261.31,261.31,0,0,1,85,90.72,261.16,261.16,0,0,1,33,114"/><path class="cls-4" d="M126.15,398.56c19.73,12,62.71,41.79,90.85,97.94a239.72,239.72,0,0,1,25,97"/><path class="cls-4" d="M116.64,439.4A200.9,200.9,0,0,1,177,499.5a200.89,200.89,0,0,1,29,74"/><path class="cls-4" d="M116.64,448.45A171.08,171.08,0,0,1,199,575.5"/><path class="cls-4" d="M228.26,342.75c-5.19,8.74-31.16,54.48-16.26,111.75,17.3,66.53,75.43,93.63,83,97"/><path class="cls-4" d="M260.48,392.52a91.5,91.5,0,0,0,.52,51c8.62,28.26,28.51,43.45,35,48"/><path class="cls-4" d="M228,336.59A327.43,327.43,0,0,1,291,458.5a329,329,0,0,1,2,163"/><path class="cls-4" d="M392.63,133.18c-4.95.42-28.24,7.34-24.18-6.06,2.15-7.08,13.29-4.43,18.11-8.05-8.69,0-8-22.64,2.91-21.51,4.63.47,15.93,15.09,9.84,18.6-.64-6.9,15.61-2.75,16.89,4.65C418,131.43,403.64,136.53,392.63,133.18Z"/><path class="cls-4" d="M408,138.11c9.9-.29,16.1.81,21.34-9.62,2.41,10,9.62,18.39,19.42,9.33a63.13,63.13,0,0,0,9.91-12.76c-5.83-.11-29.36,5.61-23-9.9,2.7-6.57,12.95-4.61,18.28-6.16-6.41-8.6-6-22.48,9.2-20.77,7.68.87,17.81,12.88,10,19.58.85-7.89,16,2.33,17.1,7.2,2.25,10.08-15.72,9.71-22.52,9.39,8.45-.93,14.08,14.52,23.54,13.76,5.38-.44,4.14-4.95,7.52-8.14,2.59,6.34,7.8,7.76,14.19,7.57,7.8-.22,9.75-5,15.5-9-6.16-1.3-16-4.06-10.65-12.49,3.16-5,10.73-7.87,16-5,.3-8.33-.83-23.22,13.06-17.92,6.91,2.64,9.38,21.85.13,22.44,5.16-.6,18.23,7.4,12.82,13.22-2.51,2.7-17.55.82-20.84-.64-.34,4.19,10.82,14.9,15.2,16.73,5,2.08,12.51-1.32,13.56-6.87-4,6.72,22.69,9.88,23.12-4.79-6.69-1.93-21.22-8.51-9.93-16a12,12,0,0,1,14.15,1.15c1.35-6.94,4.18-17,12.42-17.91,2.71-.29,5.95-.4,5.76,3.08"/><path class="cls-4" d="M322.56,108.55c11.2-9.49,15,7.79,15.4,15.8,8.52-2.24,13.33-8.81,14.61,4.75,1,10.89-10.65,9.31-19,9.59,4.69,3.58,19.92,18.41,27.08,13,2.42-1.81,1.83-5.65,2.51-8.1,7.58,8.51,15,3.61,21.8-3.31"/><path class="cls-4" d="M342.26,151.79c4.33,0,13.17,2.42,19.13,2.77,8.44.49,13.08-1.43,19.5-6.88,3.92-3.33,6.59-9.05,11.63-10.63,3,13.64,32.36,14,42.8,11.67,9.59-2.13,22.89-13.9,25.12-23.66,5.49,12.46,28.44,20.12,41.27,18.57,12-1.44,19.64-9.6,27.13-18,1.54,12.66,18.71,27.31,30.9,29.4,8.16,1.4,20.77-2.1,24.48-9.84"/><path class="cls-4" d="M574.91,160c-14.63,0-37.59,1.08-42.71-16.38-10.66,2.84-19.21,9.12-31,9.79-6.25.35-15.7,1.45-21.87-.06-9-2.19-9-11.53-16-15.22-2.82,4.54-4.56,9.67-8.63,13.37-7.26,6.6-16.16,6.32-25.31,6.31-7.75,0-13.58.13-20.57-3.39-3.61-1.82-7-3.87-10.65-5.44-11.1,12.46-33.39,32.85-49.9,16.5"/><path class="cls-4" d="M331.17,917.58c4.95,1.54,9.55-2.17,14.59-1.16,6.69,1.32,13.58,4.17,20.53,4.5,12.29.6,21,.06,31.49-7.33,1.57-1.1,5.8-2.65,4.83-5.39-1.92-5.44-15.22,3.84-18.58,4.38-9.41,1.53-19.07-.79-28.23-2a32,32,0,0,0-16.35,2.05c-2.72,1.08-8.63,2-10.11,4.41C329.49,917.52,329.63,917.09,331.17,917.58Z"/><path class="cls-4" d="M339.46,898.42c4.26-.6,5.23-1.95,9.25,1.12,2.1,1.61,3.62,4.13,5.8,5.59,2.6,1.74,6.49,1,9.53.73,3.55-.36,7-1.35,10.63-1.88,5.58-.83,10.13-1.25,14.78-4.55,3.26-2.31,6.56-4.15,9.57-6.79a27.66,27.66,0,0,1,2.84-2.24"/><path class="cls-4" d="M397.18,887.44c-8.18,0-14.75,4.6-22.55,6-6.83,1.23-15.15-.61-21.72-2.65-2.49-.77-5.63-2.14-8.24-2,1.52-4.75,6.63-6.64,10.89-8.31,5.14-2,10.61-4,16.05-2.24a42,42,0,0,1,18.17,11.13"/><path class="cls-4" d="M350.84,879.21c4.05-1.64,10.73-4.93,13.33-8.36"/><path class="cls-4" d="M314.52,915.87c0-2.8-.72-6.67-.72-9.78,0,2.58.09,5.21-.06,7.78-1.67-.52-2.87-2.63-4.68-3.39-2.31-1-5.09-.79-7.53-.8-4.7,0-9.72.77-14.46,1.21-1.27.12-3.63.72-4.83.12-1.67-.82-3.9-5.31-5.34-6.82-1.77-1.84-4.79-6.41-7.68-6.37-.47,4.87,2.63,10.06,6,13.28,5.22,4.93,10.77,6.16,17.77,5.28,5.31-.67,10.47-3.72,16-2.76C311.55,914.05,313.21,916.71,314.52,915.87Z"/><path class="cls-4" d="M373,891.33c3.16-4.68-1-9-5.72-9.61-4.15-.52-19.64,2.7-12.28,9.33"/><path class="cls-4" d="M367.09,892.31c5.77-6.14-7.88-9.64-7.15-2"/><path class="cls-4" d="M279.78,901.5c3,3.77,11.78,4.34,16.09,3.18a19.6,19.6,0,0,0,7-3.36c2.52-2,8.27-5.53,9-8.63-6.36,4.1-12.87,3.61-20.44,3.18-5.39-.3-14.62-1.74-18.51-6,7.84-8.86,20-13.16,30.53-8.57,4.06,1.76,7.76,3.73,9.66,7.91"/><path class="cls-4" d="M316.52,900.59c0-11.86-2.08-23.71-5-35.21-1.21-4.77-5.44-10.9-4.53-16.09,1-5.92,10.58-6.63,11.39-12.81"/><path class="cls-4" d="M321.81,846.85c5,.31,10.41-2,15-3.69,2.11-.76,6-2.63,8.37-1.62,4.87,2.09,4.11,13-2.18,12.25"/><path class="cls-4" d="M329,830.83c4.93.07,10.08,1.58,14.74-.57,6.13-2.84,10.84-8.34,18.06-8.5,3.25-.07,12.29,2.4,13.33,5.77,1.64,5.32-3.2,7.71-7.53,7.58-2-.06-8.24-2.14-7.5,1.37,1,4.56,12.06,5.54,14.33,2,3.41-5.39,1.06-12.24-3.48-15.94-5-4.1-10.72-1-16,1.24-3.89,1.62-8,3.55-12.2,4.27s-5.84-.18-9.5-1.56c-2.49-.94-4.85-.65-6,2C326.67,829.74,326.35,831.16,329,830.83Z"/><path class="cls-4" d="M317.16,827.6c2.65,3.48-.37,5.36-4.11,4.94-2.63-.28-5.33-2.18-7.79-3.1-2.9-1.09-5.82-2-8.69-3.1-4-1.59-7.11-1.84-8.76,3a9.74,9.74,0,0,0,0,6.65c.73,1.61,2.44,2.71,3.19,4.3-4.24,1-6.6-6.87-6.38-9.92.31-4.48,4.73-7.78,9.13-8,4.58-.28,8.12,3.57,12.44,4.72C309.54,828,313,827.35,317.16,827.6Z"/><path class="cls-4" d="M325.08,814.8c4.53,1.13,9.26,3.49,13.92,1.64,2.39-.94,4.61-2.59,7.06-3.58,1.36-.55,3.86-.92,4.41-2.16-4.93-.38-10.37,1.69-15,0a23.78,23.78,0,0,0-10.77-1.82c-5,.33-8.93,2.08-14,1.65-1.29-.12-5.36-1-6.13.52-1.58,3.2,6.91,4.49,8.81,4.47,3.51,0,6.38-2.9,10-2.1,3.06.67,4.93,2.53,8.31,2.39"/><path class="cls-4" d="M334.47,802.73c-3.58.47-8.59-.22-12.82.7-2.31.51-5.26,1.75-7.61,1.7C313.25,798.93,330,799.44,334.47,802.73Z"/><path class="cls-4" d="M419.65,828.25c.13-2.91,5.46-11.9,7.79-15.81a88.48,88.48,0,0,1,7.06-10.12c2-2.5,7.87-8.25,11.07-4.56"/><path class="cls-4" d="M451.63,797c.12-3.51-1.79-8.24-6.27-9.59-5.21-1.57-8.73,1.35-11.67,5.27-6,7.93-13.06,17.8-15.4,27.64"/><path class="cls-4" d="M409.22,812.27c-.06-4.27,4.58-9.73,6.62-13.19,1.86-3.16,4.12-6.43,5.49-9.86.9-2.22,1.37-4.51,2.54-6.64"/><path class="cls-4" d="M403.46,806.76c.14-4,3.66-8.35,5.32-11.92a47.44,47.44,0,0,0,4-13.25c.94-6.07,2.84-14.1-1.69-19.05-7.69-8.41-21,1.92-26.44,8.43-3.19,3.79-7.51,11.2-7.82,16.47"/><path class="cls-4" d="M384.22,793.24c-.3-5.26,4.63-12.17,9.27-14.45,2.76-1.37,7.66-2,9.62.74,3,4.32.06,12.47-2.82,16.07-1.4,1.75-3.86,2.83-4.8,4.81"/><path class="cls-4" d="M370.48,783.58c1.37-7.56,6.77-13.62,9.95-20.34"/><path class="cls-4" d="M362,779.43c6-3.46,8.43-16.27,9.67-22.7,1.45-7.53.77-14.29-8.22-14.94-9.85-.7-16.63,6-20.18,14.68-1.67,4-4.47,8.43-5.74,12.46"/><path class="cls-4" d="M343.27,768.66c-.61-5.18,10.35-22.5,16.27-15.9,5.13,5.72-3.17,15.33-3.9,21.16"/><path class="cls-4" d="M406.91,936.54a281.34,281.34,0,0,1,35.27-131.93"/><path class="cls-4" d="M458.19,795.64a261.82,261.82,0,0,0-40.28,141.92"/><path class="cls-4" d="M442.46,803.25c2.57-2,10.71-6.23,13.27-2.34"/><path class="cls-4" d="M460,794.58c2.43,0,8-1,9.28,1.64"/><path class="cls-4" d="M471.37,795.64c0-4.92.06-11.79,6.22-12.79a7.77,7.77,0,0,1,8.09,4"/><path class="cls-4" d="M489.07,787.71c-.47-3.91,8.18-7.49,11.05-8.64,1.65-.67,6-2.39,7.4-.46"/><path class="cls-4" d="M510,778.47c5,.38,9.79-2.16,14,1.65"/><path class="cls-4" d="M528.44,781.16c4.82,0,14.15-1.85,17.24,3.13,8.72.07,14.83,8.19,16.57,16.34,1.29,6.07-.78,12.39-4.42,17.28s-11,7.64-17,5.85c-4.46-1.34-10.15-4.32-11.73-9"/><path class="cls-4" d="M549.17,808.29c.16-5.61-4.26-7-9.38-6.82-6,.24-11.31,5.84-14.26,10.91"/><path class="cls-4" d="M475.93,929.68a436.36,436.36,0,0,1,18.16-82c12.48-38.23,23-52,37.11-56.92a36.89,36.89,0,0,1,12-2"/><path class="cls-4" d="M464.39,931.77a667,667,0,0,1,14.67-71.09c7.93-29.95,13.87-43.77,24.12-56.95a112.85,112.85,0,0,1,20-20"/><path class="cls-4" d="M451.36,933.38a612,612,0,0,1,16.7-72.72c8-27,14.2-40.85,21.11-53a200.91,200.91,0,0,1,16.05-24"/><path class="cls-4" d="M442.2,935.61a387.37,387.37,0,0,1,10.85-67,307.17,307.17,0,0,1,12.07-38,267.61,267.61,0,0,1,20.08-40"/><path class="cls-4" d="M429.91,935.58a372.48,372.48,0,0,1,37.28-135.92"/><path class="cls-4" d="M305.41,773c.31-3.08-4.08-19-9.37-14.6-4.15,3.46-1.9,15,1.49,18.16"/><path class="cls-4" d="M312.57,771.61c0-7.27-4.22-14.8-8.84-20.36-3.84-4.63-9.33-4-13.54-.51-5.09,4.17-7.59,8.76-7.23,15.55s5,10.92,7.4,16.73"/><path class="cls-4" d="M320.69,769c0-6.44-.65-11.69-4.34-17.1-2.12-3.1-4-7.75-7.41-9.6-6.45-3.44-17.4-4.52-24.27-1.8-3.38,1.34-5.23,3.64-6.51,7-2.51,6.61-2.48,15.73-1.55,22.61,1.07,7.89,7.57,13.72,10.39,20.75"/><path class="cls-4" d="M279.34,804c1-1.67-1.58-5.8-2.34-7.44-1.2-2.62-3.13-5.54-2.89-8.58.22-2.7,2.61-4.34,5.27-4.74"/><path class="cls-4" d="M274.31,814.48c-2.91-5.21-7.19-10-9.08-15.72-1.54-4.67-1.16-9.75-1.12-14.59,0-2.92.52-3.46,3.15-5,2.28-1.29,5-3,7.61-3.62"/><path class="cls-4" d="M273.69,768.67c-5.73.06-9.5,7.32-10.73,11.88a54.31,54.31,0,0,0-.33,26.6,27.4,27.4,0,0,0,7.72,12.74,9.4,9.4,0,0,1,3,4.6"/><path class="cls-4" d="M271.36,857.41c.19-2.41-2-7.65-2.85-10.41-1.53-4.84-3.2-9-3.31-14.11-.09-4,0-8.43,2.18-11.75"/><path class="cls-4" d="M270.61,873.4c-6.64-12.12-14.38-23.4-13.75-37.87.36-8.31,3-16.7,4.1-24.9"/><path class="cls-4" d="M272.88,897.83a287.8,287.8,0,0,1,.09-42.68,207.28,207.28,0,0,1,3.15-24.87c3.6-18.61,5.66-29.29,13.08-39,3.31-4.31,13-15.35,34-19.93l16.07-35"/><path class="cls-4" d="M343.32,731.13a401.62,401.62,0,0,0,20.12-57.68,402.89,402.89,0,0,0,11.12-60l-13.07,0"/><path class="cls-4" d="M350.28,730.48A482.36,482.36,0,0,0,373,667a492,492,0,0,0,13.8-66.36l-13.05-.55"/><path class="cls-4" d="M312.64,736.35c6.05-11.47,12-23.79,17.75-37a550.32,550.32,0,0,0,28.16-81.94"/><path class="cls-4" d="M298.42,736.32a280.23,280.23,0,0,0,51.16-133.9l16.68,0"/><path class="cls-3" d="M572.16,771c3.89,1.91,7.91-.79,9-6h0c1.07-5.24-1.21-11-5.1-12.94l-2.41-1.19-3.88,19Z"/><path class="cls-3" d="M555,766.07c-1.07,5.24,1.21,11,5.1,12.94h0c3.89,1.91,7.91-.79,9-6l.66-3.21-14.08-6.92Z"/><polygon class="cls-3" points="569.75 769.77 573.63 750.81 559.55 743.9 555.67 762.86 569.75 769.77"/><path class="cls-3" d="M568.72,784.73c2.71-5.05,2.5-12.61-.49-17.66,3,5,7.48,9.4,10.46,10.17"/><path class="cls-3" d="M550.24,727.92c3.89,1.91,7.91-.79,9-6h0c1.08-5.23-1.2-11-5.09-12.94l-2.41-1.18-3.89,19Z"/><path class="cls-3" d="M533.1,723c-1.07,5.23,1.21,11,5.1,12.94h0c3.88,1.91,7.9-.79,9-6l.65-3.21-14.07-6.91Z"/><polygon class="cls-3" points="547.83 726.73 551.72 707.77 537.64 700.85 533.76 719.82 547.83 726.73"/><path class="cls-3" d="M546.81,741.68c2.71-5,2.5-12.61-.49-17.65,3,5,7.47,9.4,10.46,10.17"/><path class="cls-3" d="M532.33,684.88c3.89,1.91,7.91-.79,9-6h0c1.07-5.24-1.21-11-5.1-12.94l-2.41-1.19-3.88,19Z"/><path class="cls-3" d="M515.19,680c-1.08,5.24,1.2,11,5.09,12.94h0c3.89,1.91,7.91-.79,9-6l.66-3.21-14.08-6.92Z"/><polygon class="cls-3" points="529.92 683.7 533.8 664.73 519.73 657.82 515.84 676.78 529.92 683.7"/><path class="cls-3" d="M528.89,698.65c2.71-5,2.51-12.61-.48-17.66,3,5,7.47,9.4,10.46,10.17"/><path class="cls-3" d="M517.34,641.62c3.29,2.81,7.85,1.19,10.19-3.62h0c2.33-4.8,1.56-11-1.74-13.79l-2-1.75-8.46,17.41Z"/><path class="cls-3" d="M501.93,632.64c-2.33,4.8-1.55,11,1.74,13.79h0c3.29,2.82,7.86,1.2,10.19-3.61l1.43-3-11.92-10.18Z"/><polygon class="cls-3" points="515.29 639.87 523.75 622.46 511.82 612.28 503.37 629.69 515.29 639.87"/><path class="cls-3" d="M510.89,654.46c3.29-4.92,5-12.31,3.9-17.23,1.06,4.92,4.32,10.26,7.62,12.45"/><path class="cls-3" d="M283.47,706.53c-1.48-4.07-6.25-4.91-10.65-1.87h0c-4.4,3-6.77,8.79-5.29,12.86l.92,2.52,15.94-11Z"/><path class="cls-3" d="M292.45,721.93c4.4-3,6.77-8.79,5.29-12.86h0c-1.49-4.07-6.25-4.91-10.65-1.88l-2.7,1.86,5.36,14.74Z"/><polygon class="cls-3" points="284.39 709.05 268.45 720.04 273.82 734.78 289.75 723.79 284.39 709.05"/><path class="cls-3" d="M294.53,698.21a131.23,131.23,0,0,0-11.88,13.07,11.74,11.74,0,0,0-.5-14.58"/><path class="cls-3" d="M251,750.72c-.84-4.25-5.42-5.82-10.23-3.5h0c-4.82,2.31-8,7.64-7.21,11.89l.51,2.63,17.44-8.39Z"/><path class="cls-3" d="M257.45,767.32c4.82-2.32,8-7.64,7.21-11.89h0c-.83-4.25-5.41-5.82-10.23-3.5l-3,1.42,3,15.39Z"/><polygon class="cls-3" points="251.47 753.35 234.03 761.74 237.05 777.13 254.5 768.74 251.47 753.35"/><path class="cls-3" d="M263.13,744.47a68.56,68.56,0,0,0-13.75,11.08c3.93-4.14,4.68-10.35,1.76-14.49"/><path class="cls-3" d="M310.92,661c-.87-4.24-5.46-5.78-10.26-3.43h0c-4.8,2.35-8,7.7-7.13,11.94l.54,2.64,17.38-8.52Z"/><path class="cls-3" d="M317.53,677.54c4.8-2.35,8-7.7,7.12-11.94h0c-.86-4.25-5.45-5.78-10.25-3.43l-2.95,1.44L314.58,679Z"/><polygon class="cls-3" points="311.45 663.61 294.07 672.13 297.2 687.5 314.58 678.98 311.45 663.61"/><path class="cls-3" d="M323,654.64a70.7,70.7,0,0,0-13.67,11.17c3.9-4.14,4.62-10.35,1.66-14.5"/><path class="cls-3" d="M327.25,611.62c-1.58-4-6.36-4.77-10.69-1.63h0c-4.33,3.14-6.56,9-5,13l1,2.51,15.68-11.36Z"/><path class="cls-3" d="M336.59,626.8c4.33-3.13,6.56-8.95,5-13h0c-1.58-4-6.36-4.76-10.69-1.63l-2.65,1.93,5.7,14.61Z"/><polygon class="cls-3" points="328.23 614.12 312.55 625.48 318.26 640.08 333.93 628.73 328.23 614.12"/><path class="cls-3" d="M338.15,603a127,127,0,0,0-11.57,13.35,12,12,0,0,0-.84-14.57"/><path class="cls-4" d="M489.12,766.39a581.65,581.65,0,0,1-21.79-74.55,601,601,0,0,1-11.91-77.47l14.33,0"/><path class="cls-4" d="M481.48,773.51A596.86,596.86,0,0,1,452,691.69a609.09,609.09,0,0,1-17.44-85.62l17.57-.77"/><path class="cls-4" d="M522.76,773.27c-6.58-14.84-13.08-30.77-19.3-47.8A798.4,798.4,0,0,1,473,619.57"/><path class="cls-4" d="M538.36,773.3a385.32,385.32,0,0,1-37-81.39,416,416,0,0,1-18.47-91.69l-18.3,0"/><path class="cls-4" d="M461.71,754c.17,5.14.86,8-3.26,12.07-3.9,3.89-9.77,3.8-14.57,1.47-8.09-3.92-15.21-14.2-15.24-23.42-.44,1.89-5.66,6-7.66,3.95-1.13-1.16,4.42-10.76,5-12.14,1.15-2.53,3.51-5.49,3.27-8.43,7.62,9,7.79,22,19.85,27C454,756.43,461.28,758.26,461.71,754Z"/><path class="cls-4" d="M420.27,720c1.22,5.37,1.47,12.13-2.77,16.21-1.86,1.79-6.82,5-9.33,3.08-3.2-2.44-4.12-11.1-4.3-14.71a36.72,36.72,0,0,1,.31-8.52c-5.62-.41-19.58,4.3-20.86-4.46-1.14-7.74,11.88-11.32,17.79-11.16-.17-3.44-1.28-6.41.41-9.75,2-4,6.46-6.65,10.69-7.69,9.51-2.34,6.79,8.89,8,15,5.13-.55,10.6-2.56,15.63-.19s7.33,7.78,3.91,12.66C436.89,714.51,425.86,719.11,420.27,720Z"/><path class="cls-4" d="M393.43,726.15c-.6,7.83-15.74,11.28-19.78,4.48-2.33-3.93,2.53-7,5.61-9.29C381,726.46,387.86,729.27,393.43,726.15Z"/><path class="cls-4" d="M394.06,693.12c-.12-4.94-.13-14.54,3.53-18.43,1.51-1.61,4.07-2.52,5.89-3.56-1.25-1.37-4.2-4.59-6.35-4.51-2.68.11-4.85,4.9-6.3,6.86C386.84,678.85,389.68,686.33,394.06,693.12Z"/><path class="cls-4" d="M426.54,690.92c0-5.33,1.08-10.74-3.43-14.34-1.84-1.47-3.92-2.93-5.24-4.81,4.14-3.17,12-2.51,15.38,1.48C437.15,677.89,434.81,686.08,426.54,690.92Z"/><path class="cls-4" d="M435.37,596.47c-2.64-.34-5.15-2.47-7.09-4.23-2,6.51-8.22,11.52-9.59,18.32-1.12,5.53,1.16,8.05,3.21,12.87,1.35,3.19,2.28,7.59-2.42,8-6.81.61-7.59-9.11-7.54-13.69s1.05-9,1.71-13.46c.19-1.23,1.56-5.56.65-6.87s-3.1-.94-4.42-1.63c-2.28-1.2-3.63-5.44-6.54-5.47-2.58,0-3,4.62-4.28,7,4.17,1.68,7.37,2.55,8.31,7.71,1.16,6.36-3.2,11.79-4.13,17.81-1.36,8.78,3.17,19.09,12.93,20,13.52,1.25,21.31-16,13.65-26-2.77-3.64-5.64-6.07-4.61-11,.64-3,2-6.18,2.82-9.1"/><path class="cls-4" d="M420.75,561.39c3.6-3.64,6.73-15.95,1.44-19.34.07,4.05-2.38,7.86-2.11,12.13C420.22,556.27,421.12,558.4,420.75,561.39Z"/><path class="cls-4" d="M423.07,570.74c7.17-4,9.25-18.23,8.75-25.53-.35-5-3.94-10.19-8.07-13.11-6.31-4.45-9.07,11.44-9.31,15.73C413.93,557.16,415.93,566.54,423.07,570.74Z"/><path class="cls-4" d="M423.38,582.09c6-2,10-12.73,11.84-18,2-6,3.25-13.39,1.87-19.7-1.5-6.87-6.06-13.14-11.22-17.67-4.35,5-9.76,9-14.06,14.07-5,5.85-3.47,16-2.12,23,1.52,7.79,2.38,14,7.3,20,1.11,1.35,1.84,4.11,3.71,3"/><path class="cls-4" d="M487.83,571.54c-9.92,0-19.76,1-29.69.94-2.58,0-5.9.54-8.31-.41.9-3.74,3.41-7.35,4.33-11.43.81-3.57,1.07-7.4,2-10.86"/><path class="cls-4" d="M398,571c-.56-3.25-4.32-6.07-5.66-9.19a22,22,0,0,1-2-8.46c.16,5.94,5.55,12.82,8.59,17.58-10.63.61-22.66,2.06-33.26.61a56.12,56.12,0,0,0-7.4-1"/><path class="cls-4" d="M301.48,893.3c.63-2.71,1.66-6.49-.28-8.84-3.4-4.14-8.73-3.38-13.56-3.37-3.45,0-4.67,2.23-4.71,5.58a8.82,8.82,0,0,0,2.77,6.46"/><path class="cls-4" d="M297.47,893.71c.64-.48.76-3,.58-3.92-.55-2.95-4.5-4.24-7.09-4.4-3-.17-4.43.82-3.58,3.79.49,1.66,1.47,3.75,3,4.65"/><polyline class="cls-4" points="199.7 1042.12 272.82 930.51 272.85 911.73"/><path class="cls-4" d="M548.7,1042.82,485.41,925.27c3.53-15.18,8-31.45,13.62-48.55a563.9,563.9,0,0,1,24.12-61"/><path class="cls-4" d="M282.59,933a464.77,464.77,0,0,0,199.33-1.35"/><polygon class="cls-4" points="152.85 968.03 182.52 942.79 183.52 633.09 127.04 625.1 126.4 942.68 152.85 968.03"/><path class="cls-4" d="M151.43,631.12c.07,4,1.95,7.09,3.37,10.83,3.42,9,5,17.54,6.35,27,1.49,10.82,2.93,22.28.36,33.07-2.77,11.56-9.61,21.43-11.77,33.26-3.05,16.69,2.91,27.34,7,42.9,6,22.82,8.9,55.39.56,77.33-6.44,17-12.22,42.2-3.17,59.43"/><line class="cls-4" x1="262.63" y1="807.15" x2="183.28" y2="753.83"/><path class="cls-4" d="M205.38,764.75a294.49,294.49,0,0,0,54-62.51,292.79,292.79,0,0,0,26.1-51"/><path class="cls-4" d="M199.66,757.47a312.49,312.49,0,0,0,47.72-57.25,312.74,312.74,0,0,0,29.12-56.94"/><path class="cls-4" d="M185.4,723.58a181.62,181.62,0,0,0,35-38.42,182.45,182.45,0,0,0,26.12-58.94"/><path class="cls-4" d="M238.23,626.2a323.09,323.09,0,0,1-27.79,46.94,322.93,322.93,0,0,1-25.06,31"/><polyline class="cls-4" points="201.15 750.74 201.19 729.39 185.39 730.29"/><polyline class="cls-4" points="220.32 732.16 219.36 713.16 205.48 713.13"/><polyline class="cls-4" points="238.06 708.01 236.41 686.2 220.41 688.77"/><polyline class="cls-4" points="254.66 684.17 252.47 659.23 238.15 665.2"/><polyline class="cls-4" points="266.28 659.26 262.96 642.13 242.65 646.76"/><path class="cls-4" d="M185.88,629.45c8.41-.05,24.35-5.39,25.6-15.33.58-4.68,1.31-13.85-1.18-18.13-4-6.93-13.43-2.22-18,1.57-3,2.52-4.46,4.22-4.73,8.07-.38,5.31-.41,8.56-6.55,10.16-11.25,2.93-24.77,1.46-36.31,1.46-6.18,0-12.42-1-18.57-.66-5.19.29-12.47,1.29-14.3,7.18-1.9,6.14,5.55,6,9.2,3.58"/><path class="cls-4" d="M151.63,604.68c.73-4.91-9.71-7.35-13.26-7.49-2.77-.11-3.63.48-4.27,3.33s0,3.11,2.57,3.6c3.42.66,6.85.68,10.21,1.3,4.61.85,7.44,5.42,12.47,5.81,6.32.49,15.54-4.09,19.57-9,3-3.67,4.85-9.85,6.46-14.31,6-16.68,11.53-44.06-10.66-50.59-3.55-1-8.78-.21-11.65-2.85-1-.94-1.13-2.17-2.4-2.82-1.8-.92-5.35-.23-6.9,1"/><path class="cls-4" d="M147.65,590.16c4.86,0,9.65.4,14.47.55a11.15,11.15,0,0,0,8-2.8c1.32-1,2.42-2.66,4-3.23a9.16,9.16,0,0,1,0,2.28"/><path class="cls-4" d="M153.92,584.91c-.9-3-3.82-7.37-2.46-10.7,1.25-3.06,7.46-4.1,10.2-3.14,4.31,1.5,3,6.94.83,9.93C160.51,583.73,157.68,583.41,153.92,584.91Z"/><path class="cls-4" d="M151,569.64c4.78,0,12.5,1.62,16.83-.57,3.52-1.79,1.57-6.45-1.27-8-4.34-2.4-14.82-3.18-17.21,2.73C148.38,566,151,566.8,151,569.64Z"/><path class="cls-4" d="M151.73,552.63a6.14,6.14,0,0,0,0,1.71c4.08,1.94,16.48.59,7.73-3.84-2-1-6.14-3.21-8.44-2.29-1.39.56-2.36,2.81-2.49,4.21C148.35,554.85,149.14,555.15,151.73,552.63Z"/><path class="cls-4" d="M144.5,541.6c1.88,0,5.4.82,7-.1s2.32-3.59.7-5c-.84-.7-8.28-1.25-9.4-.22-1.55,1.42.55,3.76,1.74,4.77"/><path class="cls-4" d="M149.49,547.12c-3.12-1.24-8.81-.28-12.29-.28-3.92,0-7.55-2.24-11.31-.18-3.4,1.86-4.43,6.16-3.46,9.74,2.12,7.79,10.22,3.61,15.79,5.4-4.19,0-9.94.76-13.19,3.68-3.84,3.45-8.6,12.79-6.81,17.89,3.83-.09,7.75-3.47,11.11-5.08,4-1.94,9.1-4.36,13.59-4.95-9.41,3.57-20.46,8.11-20.06,20,0,1.28-.09,5,1.48,5.53,1.22.38,2.63-1.27,3.49-1.86,3.16-2.17,6.85-3.41,10.29-5.07,3.61-1.74,7.53-4,11.29-5.3"/><path class="cls-4" d="M569.68,794.19a470.62,470.62,0,0,0,152.69-86"/><path class="cls-4" d="M726.76,693c-1.44,2-3.4,5-5.82,4.92-1.84-.09-6.21-4.07-7.71-5.09s-2.76-2-4.06-2.82c2.89-2.26,8-.59,11.26-2.86,4.46-3.07,1.11-7.4-2.54-10.14-1-.72-3-2.61-4.19-2.66-3-.11-6.18,4.49-8.56,6-6.19,3.9-8.72-6.82-13.22-10.37.83,1.22,2.83-.15,4.47-.09,3.24.13,1.92,1.74,4.86-1.19,7.07-7.07-1.72-10.25-6-16.44-6.75,1.09-11.46,11-18.73,11.49a48.47,48.47,0,0,0-3.78-9.34c-1.13-1.91-5.14-4.82-5.64-6.84-.57-2.25,2.4-4,4.53-5.23.34,2.07,4.31,7.72,6.81,7.35,4.9-.74,4-6.29,2.46-8.8-1.68-2.82-4.09-8.36-8-6.83-1.15.44-3.16,3.24-4.08,4a26.81,26.81,0,0,1-6.15,3.68,36.06,36.06,0,0,1-4.43,1.43c-3.49-4-5.07-10.15-7.65-14.74,2.76-.56,4.22-2,6.36-3.49,3.72,5.75,6.57,2.21,10.69-1.51-2.39-5.75-10.15-7.66-12.56-13.84-3.82.4-7.76,11.23-13.07,9.63-2.68-.8-4.44-9-5.6-11.57-1-2.27-2.59-4.56-3.44-6.81,2.74-.94,5.89-1.45,8.73-2.45.11,3,2.12,5.14,2.6,7.91,3.64.27,6.06.63,6.69-2.74.93-4.9-5.69-13.76-8.37-17.74-2,4.19-5,4.63-9.29,4.8-1.82.07-3.82-.46-4.14,1.53-3.28.4-3.5-6.39-4.45-8.63-.51-1.23-2.08-3.09-1.92-4.47.33-3,5.47-5,8-4.83.39,9.71,2.48,8.84,10.89,7.72-.07-5.21-3.8-14.06-7-18.57"/><path class="cls-4" d="M625.19,520c0,2.29,1.93,8.89,1.25,10.44-.57,1.34-4.2,2.12-5.51,1.17-2-1.44-.8-6.67-2.7-8.12-1.74-1.32-6.71-.32-9.05-.31,0,5.23,2.35,10.42,2.56,15.67,4.43.2,8.94.33,13.37.42.09,2.38-.2,4.88,0,7.27.25,2.79,2.35,4.68,2.69,6.9s-1.19,3.18-3.9,3.09c-.85-2.74-1.5-6.52-3.55-8.35a25.58,25.58,0,0,1-5.13,4.21,30.43,30.43,0,0,1,3.85,11.48c2.31.08,6.57.71,8.28-.28"/><path class="cls-4" d="M709.4,711.87a260.25,260.25,0,0,1-117.63-205"/><path class="cls-4" d="M717.22,708.1c-19.7-12-62.63-41.91-90.65-98.12a239.66,239.66,0,0,1-24.81-97.05"/><path class="cls-4" d="M726.81,667.28A200.25,200.25,0,0,1,637.72,533"/><path class="cls-4" d="M726.83,658.23A171.11,171.11,0,0,1,644.72,531"/><path class="cls-4" d="M615,763.71c5.21-8.73,31.26-54.42,16.48-111.72-17.17-66.56-75.24-93.78-82.8-97.17"/><path class="cls-4" d="M582.87,713.87a91.48,91.48,0,0,0-.41-51c-8.56-28.28-28.42-43.5-34.9-48.07"/><path class="cls-4" d="M615.25,769.87a326,326,0,0,1-64.43-285"/><path class="cls-4" d="M450.21,972.94c5-.41,28.25-7.27,24.17,6.12-2.16,7.07-13.31,4.4-18.13,8,8.69,0,8,22.65-3,21.51-4.62-.49-15.89-15.13-9.79-18.62.62,6.89-15.62,2.71-16.88-4.69C424.81,974.64,439.2,969.57,450.21,972.94Z"/><path class="cls-4" d="M434.9,968c-9.9.26-16.1-.85-21.36,9.58-2.4-10-9.59-18.41-19.4-9.38a62.53,62.53,0,0,0-9.93,12.75c5.82.11,29.37-5.55,23,9.94-2.72,6.57-13,4.58-18.29,6.13,6.4,8.6,5.92,22.49-9.24,20.75-7.68-.89-17.79-12.92-9.92-19.6-.87,7.88-16-2.37-17.09-7.24-2.23-10.09,15.74-9.68,22.54-9.35-8.45.92-14.05-14.54-23.51-13.8-5.38.42-4.15,4.94-7.54,8.12-2.58-6.34-7.78-7.77-14.17-7.6-7.8.21-9.77,5-15.52,8.92,6.16,1.32,16,4.09,10.62,12.52-3.16,4.95-10.75,7.84-16.05,5-.31,8.33.79,23.23-13.09,17.9-6.9-2.66-9.34-21.87-.08-22.44-5.17.59-18.22-7.44-12.8-13.25,2.52-2.69,17.55-.79,20.84.69.35-4.2-10.79-14.93-15.16-16.77-5-2.08-12.52,1.29-13.58,6.85,4-6.72-22.67-9.93-23.13,4.73,6.69,2,21.21,8.56,9.9,16a12,12,0,0,1-14.15-1.18c-1.37,6.94-4.22,17-12.46,17.89-2.7.28-5.94.38-5.75-3.1"/><path class="cls-4" d="M520.23,997.72c-11.22,9.46-15-7.82-15.37-15.84-8.52,2.23-13.35,8.78-14.6-4.77-1-10.9,10.67-9.29,19-9.55-4.69-3.59-19.88-18.46-27.06-13.08-2.41,1.81-1.83,5.65-2.52,8.09-7.56-8.52-15-3.64-21.81,3.27"/><path class="cls-4" d="M500.61,954.43c-4.32,0-13.16-2.44-19.12-2.8-8.44-.51-13.08,1.41-19.51,6.84-3.93,3.32-6.61,9-11.65,10.61-3-13.65-32.33-14.06-42.78-11.76-9.6,2.11-22.92,13.86-25.17,23.61-5.47-12.47-28.4-20.18-41.23-18.66-12,1.43-19.66,9.56-27.17,17.93-1.51-12.67-18.65-27.36-30.84-29.47-8.16-1.41-20.78,2.06-24.49,9.79"/><path class="cls-4" d="M268,945.76c14.63,0,37.6-1,42.68,16.47,10.67-2.82,19.22-9.09,31-9.73,6.25-.34,15.71-1.42,21.87.1,9,2.21,9,11.55,16,15.26,2.83-4.54,4.58-9.67,8.66-13.36,7.27-6.59,16.16-6.29,25.32-6.26,7.75,0,13.58-.11,20.56,3.43,3.61,1.83,7,3.89,10.64,5.46,11.13-12.43,33.45-32.78,49.94-16.39"/><rect class="cls-4" x="89" y="63.5" width="667" height="979"/></svg>