<svg id="Layer_1" data-name="Layer 1" xmlns="http://www.w3.org/2000/svg" viewBox="0 0 822 1122"><defs><style>.cls-1{font-size:155.73px;font-family:HelveticaNeue-Bold, Helvetica Neue;font-weight:700;}.cls-1,.cls-3{fill:#d89d70;}.cls-2{fill:#d6bd80;}</style></defs><text class="cls-1" transform="translate(13.85 124.19)">6</text><circle class="cls-2" cx="81.22" cy="32.67" r="8.12"/><circle class="cls-2" cx="64.94" cy="22.22" r="8.12"/><circle class="cls-2" cx="42.89" cy="30.34" r="8.12"/><circle class="cls-2" cx="32.45" cy="52.39" r="8.12"/><circle class="cls-2" cx="32.45" cy="73.28" r="8.12"/><circle class="cls-2" cx="34.77" cy="97.65" r="8.12"/><circle class="cls-2" cx="52.17" cy="113.9" r="8.12"/><circle class="cls-2" cx="76.54" cy="108.1" r="8.12"/><circle class="cls-2" cx="85.83" cy="86.05" r="8.12"/><circle class="cls-2" cx="76.55" cy="65.16" r="8.12"/><text class="cls-1" transform="translate(807.5 993.44) rotate(180)">6</text><circle class="cls-2" cx="740.13" cy="1084.96" r="8.12"/><circle class="cls-2" cx="756.4" cy="1095.41" r="8.12"/><circle class="cls-2" cx="778.45" cy="1087.29" r="8.12"/><circle class="cls-2" cx="788.9" cy="1065.24" r="8.12"/><circle class="cls-2" cx="788.9" cy="1044.35" r="8.12"/><circle class="cls-2" cx="786.58" cy="1019.98" r="8.12"/><circle class="cls-2" cx="769.17" cy="1003.73" r="8.12"/><circle class="cls-2" cx="744.8" cy="1009.53" r="8.12"/><circle class="cls-2" cx="735.52" cy="1031.58" r="8.12"/><circle class="cls-2" cx="744.8" cy="1052.47" r="8.12"/><path class="cls-3" d="M36.48,276.9c16.37-15.8,28.66-39.52,28.67-55.32,0,15.8,12.25,38.47,28.61,52.88"/><circle class="cls-3" cx="63.75" cy="173.2" r="32.19"/><circle class="cls-3" cx="34.59" cy="221.18" r="32.19"/><circle class="cls-3" cx="95.94" cy="221.18" r="32.19"/><ellipse class="cls-3" cx="64.96" cy="207.52" rx="9.11" ry="6.38"/><path class="cls-3" d="M783.05,852.1c-16.37,15.8-28.65,39.52-28.67,55.32,0-15.8-12.25-38.47-28.61-52.88"/><circle class="cls-3" cx="755.78" cy="955.8" r="32.19"/><circle class="cls-3" cx="784.94" cy="907.82" r="32.19"/><circle class="cls-3" cx="723.59" cy="907.82" r="32.19"/><ellipse class="cls-3" cx="754.57" cy="921.48" rx="9.11" ry="6.38"/><path class="cls-3" d="M183.32,393c29.63-28.62,51.87-71.55,51.91-100.17,0,28.62,22.16,69.66,51.79,95.75"/><circle class="cls-3" cx="232.68" cy="205.29" r="58.28"/><circle class="cls-3" cx="179.9" cy="292.16" r="58.28"/><circle class="cls-3" cx="290.96" cy="292.16" r="58.28"/><ellipse class="cls-3" cx="234.88" cy="267.42" rx="16.49" ry="11.55"/><path class="cls-3" d="M177.65,713.09c29.63-28.62,51.88-71.55,51.91-100.17,0,28.62,22.17,69.66,51.8,95.75"/><circle class="cls-3" cx="227.01" cy="525.34" r="58.28"/><circle class="cls-3" cx="174.23" cy="612.21" r="58.28"/><circle class="cls-3" cx="285.29" cy="612.21" r="58.28"/><ellipse class="cls-3" cx="229.21" cy="587.47" rx="16.49" ry="11.55"/><path class="cls-3" d="M533.58,400.59c29.63-28.62,51.87-71.54,51.91-100.16,0,28.62,22.16,69.65,51.79,95.74"/><circle class="cls-3" cx="582.94" cy="212.84" r="58.28"/><circle class="cls-3" cx="530.16" cy="299.71" r="58.28"/><circle class="cls-3" cx="641.22" cy="299.71" r="58.28"/><ellipse class="cls-3" cx="585.14" cy="274.97" rx="16.49" ry="11.55"/><path class="cls-3" d="M533.58,708.37c29.63-28.62,51.87-71.55,51.91-100.17,0,28.62,22.16,69.65,51.79,95.75"/><circle class="cls-3" cx="582.94" cy="520.62" r="58.28"/><circle class="cls-3" cx="530.16" cy="607.49" r="58.28"/><circle class="cls-3" cx="641.22" cy="607.49" r="58.28"/><ellipse class="cls-3" cx="585.14" cy="582.75" rx="16.49" ry="11.55"/><path class="cls-3" d="M520.36,1005.76c29.63-28.62,51.88-71.55,51.91-100.16,0,28.61,22.16,69.65,51.79,95.74"/><circle class="cls-3" cx="569.72" cy="818.01" r="58.28"/><circle class="cls-3" cx="516.94" cy="904.88" r="58.28"/><circle class="cls-3" cx="628" cy="904.88" r="58.28"/><ellipse class="cls-3" cx="571.92" cy="880.14" rx="16.49" ry="11.55"/><path class="cls-3" d="M177.65,1001c29.63-28.62,51.88-71.55,51.91-100.17,0,28.62,22.17,69.66,51.8,95.75"/><circle class="cls-3" cx="227.01" cy="813.29" r="58.28"/><circle class="cls-3" cx="174.23" cy="900.16" r="58.28"/><circle class="cls-3" cx="285.29" cy="900.16" r="58.28"/><ellipse class="cls-3" cx="229.21" cy="875.42" rx="16.49" ry="11.55"/></svg>