<svg id="Layer_1" data-name="Layer 1" xmlns="http://www.w3.org/2000/svg" viewBox="0 0 822 1122"><defs><style>.cls-1{font-size:175.45px;}.cls-1,.cls-3,.cls-4{fill:#6f9797;}.cls-1,.cls-3{font-family:HelveticaNeue-Bold, Helvetica Neue;font-weight:700;}.cls-2{fill:#d6bd80;}.cls-3{font-size:168.46px;}.cls-5{fill:none;stroke:#6f9898;stroke-miterlimit:10;stroke-width:3px;}</style></defs><text class="cls-1" transform="translate(-0.25 133.07)">Q</text><circle class="cls-2" cx="67.07" cy="16.97" r="9.45"/><circle class="cls-2" cx="41.43" cy="25.07" r="9.45"/><circle class="cls-2" cx="25.23" cy="48.02" r="9.45"/><circle class="cls-2" cx="22.53" cy="80.41" r="9.45"/><circle class="cls-2" cx="31.98" cy="111.46" r="9.45"/><circle class="cls-2" cx="64.38" cy="122.26" r="9.45"/><circle class="cls-2" cx="95.42" cy="112.81" r="9.45"/><circle class="cls-2" cx="112.97" cy="91.21" r="9.45"/><circle class="cls-2" cx="117.02" cy="62.87" r="9.45"/><circle class="cls-2" cx="107.57" cy="39.92" r="9.45"/><circle class="cls-2" cx="92.93" cy="23.15" r="9.45"/><text class="cls-3" transform="translate(812.78 978.54) rotate(179.87)">Q</text><circle class="cls-2" cx="748.38" cy="1090.14" r="9.07"/><circle class="cls-2" cx="772.97" cy="1082.3" r="9.07"/><circle class="cls-2" cx="788.48" cy="1060.23" r="9.07"/><circle class="cls-2" cx="791" cy="1029.12" r="9.07"/><circle class="cls-2" cx="781.86" cy="999.33" r="9.07"/><circle class="cls-2" cx="750.73" cy="989.03" r="9.07"/><circle class="cls-2" cx="720.94" cy="998.17" r="9.07"/><circle class="cls-2" cx="704.14" cy="1018.95" r="9.07"/><circle class="cls-2" cx="700.31" cy="1046.17" r="9.07"/><circle class="cls-2" cx="709.44" cy="1068.19" r="9.07"/><circle class="cls-2" cx="723.53" cy="1084.26" r="9.07"/><ellipse class="cls-4" cx="573.83" cy="914.17" rx="83.45" ry="107.92"/><ellipse class="cls-4" cx="242.83" cy="200.17" rx="83.45" ry="107.92"/><ellipse class="cls-4" cx="748.83" cy="896.17" rx="46.4" ry="60"/><ellipse class="cls-4" cx="66.83" cy="209.17" rx="46.4" ry="60"/><path class="cls-5" d="M409.81,91.52c-.85,2.75-3.06,5.18-4.59,7.64-5.38,8.63-10.59,17.19-16.93,25.17-3.27,4.13-8.93,7.61-11.49,12.14-2,3.59,1.68,9.17-.47,12.15,11-15.23,28.84-27.08,33.48-45.67"/><path class="cls-5" d="M398.83,90.15c-4.13,6.45-8.2,13-14.06,18.11-2.2,1.93-5,3.23-6.52,5.67"/><path class="cls-5" d="M373.22,88.77c0,8.36-1,17.23.53,25.46.62,3.44,1.93,6.75,2.22,10.21"/><path class="cls-5" d="M419.87,96.55c2.07,8.93,12.23,18.7,18.42,25.24,7.65,8.09,17.08,15.6,27.93,18.87,5.06,1.52,16.44,3.53,21.33,1.16"/><path class="cls-5" d="M426.73,91.06c4.08,3.15,11.11,12.19,16.07,16.89,7.73,7.33,15.26,15.67,24.1,21.7,2.62,1.78,7.11,4.77,10.13,2.57"/><path class="cls-5" d="M445,92.89c5.38,9.3,18.08,17.35,26.64,23.54a204.48,204.48,0,0,0,18.18,11.67"/><path class="cls-5" d="M411,172.71q0,7.75,0,15.52c0,7.46-1.78,13.73-4.2,20.68-1.43,4.11-4.76,12-.81,15.88,0,3.54-.82,11.24,3.88,12.08,4.44.78,4.66-6.65,8.66-6.59,1.69,0,2.59,1.92,3.9,2.82a8.93,8.93,0,0,0,5.45,1.72c3.44-.3,4.32-3.51,6.78-4.77"/><path class="cls-5" d="M373.72,151.45c-3.77,17.36-8.18,49.65,3.16,86.49,6.6,21.45,19.63,63.76,50.63,71.73,30,7.7,70.53-18.33,92.82-66.45l-4.07-50.28"/><line class="cls-5" x1="462.83" y1="88.77" x2="647.96" y2="363.46"/><line class="cls-5" x1="489.84" y1="92.89" x2="652.18" y2="317.05"/><line class="cls-5" x1="508.15" y1="88.77" x2="656.4" y2="304.39"/><path class="cls-5" d="M184.21,463.78c-1.05,3.16,1.91,7.4,5.52,5.17,3.09-1.9-4.46-5.23-6.48-6.46"/><path class="cls-5" d="M185.18,452.51c-1.76,1.34,14.76,13.05,17.54,8.82,3-4.52-13.4-9.89-17.34-10.48C185,451.08,185.37,451.16,185.18,452.51Z"/><path class="cls-5" d="M189.69,441.24c2.37,1.08,13.51,6.43,14.7,2.88,1-2.88-8.9-7.71-11.48-7.71"/><path class="cls-5" d="M195.16,428.36c2.24.27,15.77,3.52,16.52.42s-9.08-5.87-11.36-5.58a4.05,4.05,0,0,0-4.81,4.08C196.48,427.87,194.08,428.85,195.16,428.36Z"/><path class="cls-5" d="M181.32,402.27c-2.42,1.3-4.83,5.68-4.53,8.57.52,4.93,9.35,8.4,13,11.15,4.7,3.56,9.38,7.73,14.45,10.75,1.51.9,2.65,1.56,4.48,1.41"/><path class="cls-5" d="M177.77,417.73c-2,.51-4.22,4.58-4.83,6.52-1.47,4.69,1.65,7.27,5.12,9.93,5.2,4,11.33,9,17.53,11.45,2,.79,4.52.77,6,2.37"/><path class="cls-5" d="M170.37,432.86c-7.09,6.13-.24,18.29,4.3,23.35,4,4.42,9.57,9.94,16,9.82"/><path class="cls-5" d="M167.79,452.51c-2.26,4.68-1.44,14.28,2.55,17.87,4.49,4,11.69,1.65,17.1,3.06"/><path class="cls-5" d="M222.86,431.9c.32-5.13-10.74-7.79-14.08-8.71-3.06-.86-7-1.1-8.46-4.17"/><path class="cls-5" d="M200.64,407.1c-.78,1.64-1.84,6.16-1,7.82,1,2,3.48,1.89,5.49,2.49"/><path class="cls-5" d="M261.5,426.75c-.69-1.74-2.65-3.13-4.15-4.43-6.64-5.77-13.41-11.74-20.32-17.15-6.21.22-14.08-.45-20.31-.34-4.37.08-7.51,1.77-11.57,2.92"/><path class="cls-5" d="M233.81,398.41c1.95-5.18,7.87-9.79,11.88-13.18a53.47,53.47,0,0,1,17-10.17c1.83-.64,4-1.45,5.85-1,.61,8.14-5.4,16.57-9.57,23-2.92,4.51-7.16,10.71-12.93,11.68"/><path class="cls-5" d="M202.25,397.44c-2.65-.41-5.08-3.16-7.2-4.8A96,96,0,0,0,171.52,379c-3.37-1.34-12.36-5.62-14.38-1.72-3.22,6.18,10.15,10.19,12.83,11.11,8.32,2.88,16.7,5.13,24.86,8.5a77.9,77.9,0,0,1,12.89,7.28"/><path class="cls-5" d="M218.35,395.83c-3.8-8.86-3.2-19.16-3.22-28.66"/><path class="cls-5" d="M207.72,338.51c-3.18-.1-9-2.37-11.42.42-1.73,2-1,6.24.1,8.27,2.34,4.17,7.59,5.7,12,5.84C224,353.52,214.39,332.82,207.72,338.51Z"/><path class="cls-5" d="M212.55,333.68c2.47-7.36,14.87-17.38,23.08-17.11A7.62,7.62,0,0,1,242,328c-1.91,3.5-6.68,5.67-10.21,7-1.84.7-5.47.65-7.06,1.6-2.11,1.24-2.88,4.5-5.33,5.85,8.69-.18,20.88-2.14,27.54,4.5,3.14,3.13,8.33,13.76,5.79,18.33-3.48,6.26-17.66,2.15-22-.4-2.85-1.7-14.77-7.38-14.71-11.61-4.57,4.13-7.06,10.45-12.06,14.5-5.46,4.42-13.72,6.61-20.19,2.82-7.17-4.19-5.27-12.64.08-17.6,3.22-3,7.32-4.9,10.4-7.95-9.73-.39-26.57-18.32-16.53-26.81,8.85-7.48,29.61-2.81,28.35,11"/><path class="cls-5" d="M211.27,325.63c-1.67-4.69-3.35-13.06-.93-17.43C215.75,307.3,217.73,319.66,211.27,325.63Z"/><path class="cls-5" d="M238,337.86c1.72,0,17.6-.4,17.13,1C253.77,342.75,238.7,339,238,337.86Z"/><path class="cls-5" d="M216.74,358.47c0,4.86-.7,10.95,4.14,13.69C221.39,368.12,220.1,364.1,216.74,358.47Z"/><path class="cls-5" d="M183.89,347.2c-2.8,0-13.79-1.86-13.81,2.84S181.06,350.84,183.89,347.2Z"/><path class="cls-5" d="M371,237.13c-8.51,10.56-13.38,25.79-18.89,38.16-6.43,14.42-12.27,28.4-13.15,44.32-.48,8.64-.78,22.42,5.33,29.28"/><path class="cls-5" d="M370.45,154.74c-4.38,2.75-7.52,8.89-10.43,13.14-14.21,20.7-28.3,42.35-37.84,65.63C311.08,260.6,308.32,288,308.39,317c.05,18.05,2.82,39.77,9.71,56.76"/><path class="cls-5" d="M519.28,93.57c-.74,5.79,6.92,10.15,11.49,13.24,3.35,2.26,7.05,5.14,11.23,5.06.36,5.44-1.52,11.13,3.24,15s11.18,4.35,16.69,5.85c1.17,9.28-3.57,21.45,3.09,29.49,4,4.83,8.68,3.53,14.11,3.91-.8,9.69,13.6,17.86,22.06,15.69-5,8.11,3.62,46.93,15.32,37.76,1.57,3.42,5.76,7.4,9,9.28,2,1.19,5.06,1.59,6.65,3-2.81,2.15-14.52,13.18-8.93,17.58,4,3.16,14.44-4,17.71-5.85a88.08,88.08,0,0,0,8.37-5.38"/><path class="cls-5" d="M537.5,86.91c.49,4,5.44,6.88,9.08,7.78.12,2.62-2.34,4.65-3.12,6.93"/><path class="cls-5" d="M554.32,114.24c5.65,0,16.06-1.81,19.18,3.82,3.54,6.38,2.28,12.81,10.6,15.45"/><path class="cls-5" d="M577.44,114.94c-.62-5.88,3.77-12.77,7.71-16.82"/><path class="cls-5" d="M593.91,111.78c2.73,0,6.48-.42,8.76.35"/><path class="cls-5" d="M593.56,126.15c2.32-.16,4.64,1.31,6.3,2.45"/><path class="cls-5" d="M589.7,139.46a7.37,7.37,0,0,0,1,2.8"/><path class="cls-5" d="M580.94,147.17v6.66"/><path class="cls-5" d="M563.08,124.75a5,5,0,0,0,1,2.8"/><path class="cls-5" d="M595.31,171c3.43,0,16.06-2.05,18.86.34,4,3.38-1.77,14.17,1.81,17.88"/><path class="cls-5" d="M598.11,160.48c-3-.25-6,1.06-8.76,2.1"/><path class="cls-5" d="M605.47,154.53c-.26-2.17-1.3-4.08-1.4-6.31"/><path class="cls-5" d="M612.83,156.28c2-.44,4-.57,5.95-1.05"/><path class="cls-5" d="M629.64,168.89a8,8,0,0,1,4.91,1.05"/><path class="cls-5" d="M623.69,178.7c2.32,1.19,4.1,3.16,6.3,4.55"/><path class="cls-5" d="M620.53,196.57a9,9,0,0,0,.35,4.9"/><path class="cls-5" d="M606.17,202.17l.35.7"/><path class="cls-5" d="M616,210.93c4.42,0,29.43,2.1,27.64-5.59-3.75.67-9.84,10.35-10.47,14.35"/><path class="cls-5" d="M643,85.86c0,9.75-2.88,19.58-3.12,29.44-.28,11.29-1.39,24,.31,35.19,1,6.72,2,14,4,20.53,1.3,4.19,3.63,8.17,4.42,12.51-.4-1.69-.1-3.25,1.32-3.8.1,4.43.41,8.83.4,13.27,0,1.65-.8,5.9,0,7.27,1.42,2.31,5.88,1.24,5.23,5.41"/><path class="cls-5" d="M646.11,221.44c-1.87,2.37-1.43,9.44-4.2,13"/><path class="cls-5" d="M526.42,211.86a63,63,0,0,0,4.53,23c2.39,6,5.31,11.54,6.79,17.83"/><path class="cls-5" d="M540.48,229.36q0,14.87,0,29.74c0,5.77-.56,12.32,1,17.95"/><path class="cls-5" d="M549.41,238.28c0,13.95,2.86,28,2.4,41.86"/><path class="cls-5" d="M559,253.72a183.85,183.85,0,0,0,2.4,30.26c1,5.85,2.27,11.86,2.75,17.78"/><path class="cls-5" d="M569.65,266.42c0,16-2.71,36.91,6.52,51.12"/><path class="cls-5" d="M580.29,272.94c-.63,20.56,9.33,38.65,18.18,56.27"/><path class="cls-5" d="M596.07,295.93c0,12.22.27,23.1,6.42,34.14,2.75,4.94,6.68,11.68,11.77,14.58"/><path class="cls-5" d="M609.11,317.2c-.3,5.12,2.57,12,6.86,15.1"/><path class="cls-5" d="M553.52,298c1.45,3.43,4.8,6.19,7.37,8.79q8.85,8.89,17.77,17.76c7.92,7.89,17.57,14.84,28.7,17.16,6.59,1.37,13,1.86,19.44,4.07,2.27.79,4.75,3,7,3"/><path class="cls-5" d="M385.05,315.83c13.32-.43,26.92,1.22,40.26,1.47,16.29.31,33.64,2.12,49.75-.39,11.74-1.82,22.38-5.66,33.11-10.55,6-2.72,11.37-7.36,17.81-9.08,6-1.6,9.06-1.35,13.47-5.82"/><path class="cls-5" d="M480.78,295.24c2.17,2.84,14.23-2.32,16.92-3.13a149.8,149.8,0,0,0,31.05-12.81c4.29-2.45,11.8-5.89,15.17-9.45"/><path class="cls-5" d="M323.75,367.17c4.5-8.74,16.48-15.12,23.68-21.66a138.43,138.43,0,0,0,25.17-29.62c3.35-5.25,7.7-9.72,10.94-15"/><path class="cls-5" d="M572.72,326.72A233.89,233.89,0,0,1,360,344.47"/><path class="cls-5" d="M335.47,367.17A281.48,281.48,0,0,0,590,345.53"/><path class="cls-5" d="M385.55,339.38c-1.21,3.63-3.57,7.4-4.28,11.08"/><path class="cls-5" d="M406.29,338.67c-2.29,1.78-1.78,13.21-1.79,17.15"/><path class="cls-5" d="M429.88,340.81v21.45"/><path class="cls-5" d="M452,341.53c0,5.94-1.62,17,2.86,21.44"/><path class="cls-5" d="M471.7,344.74c-.09,5.62-.4,17.24,3.58,21.45"/><path class="cls-5" d="M495.65,333.3c-.49,6.45,5.65,12.57,7.15,18.59"/><path class="cls-5" d="M514.6,333.3c.95,4.94,8.83,12.12,12.51,15.38"/><path class="cls-5" d="M535.33,321.15c.88,7,11,14.59,16.09,19"/><path class="cls-5" d="M375.19,327.59c7.42-.44,14.55,2.43,21.78,3.73,15.14,2.71,30.95,4.07,46.28,5.17,13.16.95,27.2,2,40.24-.64,10.08-2,19.89-5.91,29.81-8.65,9.68-2.67,14.46-5,20.82-13,1.72-2.16,3.22-4.84,5.14-6.65"/><path class="cls-5" d="M556.78,339.38c5.63,2.73,9.51,9.81,14.65,13.59"/><path class="cls-5" d="M542.12,350.11c3.87,5.7,8.45,11.3,12.51,16.8"/><path class="cls-5" d="M514.24,358.33c2.12,6.24,6.3,12.09,8.94,18.23"/><path class="cls-5" d="M494.22,364.05c-.24,3.39,1.11,12.16,1.43,17.51"/><path class="cls-5" d="M473.13,366.55V388"/><path class="cls-5" d="M437.74,370.12c-3.81-.32-5.43,5.5-.07,5,3.81-.34,4.32-6.7.79-6.79,4,0,8.15-.59,12.12-.34,1.69,4.29-5.19,10.47-8.19,7.19,2.22-.48,5.84,1.32,6.27,3.75.68,3.87-4.65,3-7.39,3s-11.77.51-13.17-2.79c-1.28-3,3.39-3.39,5.48-4-5.17,2.93-7.64-2.92-5.59-7.26,1.06-2.24,7.69-6.51,7.16-1.69-2.35,1.29-3.42-1.08-2.75-3.17,1.38-4.39,5.66-2.88,8-.74,4.38,4.06,2.82,5.92,8.09,2.87,0,2.17-2,3.64-3.57,4.94"/><path class="cls-5" d="M532.83,356.9c-3,4.2-2.85,9.59,3.56,6.5,5.74-2.75,4-8.33-1.42-9.72-.22-3.35,7.9-8.23,10-4.7,1.68,2.85-3.69,4.61-4.78,5.33,2.22.41,10.67,1.83,9.12,6-.75,2-5.63,1.16-7.5,1.22-.9,2.52,1,8.34-3.29,8.24-3.4-.08-3.8-4.89-.08-5.44-5.58,1.09-12.07,2-17.71.84,0-3,4.88-5.12,7.51-4.09-2.53.49-6.6-1-6-4.09a30.35,30.35,0,0,1,4.77-.11c-4.52-6.71,4.49-12,9-6.09"/><path class="cls-5" d="M390.92,345.82c-.41,1.93.05,4.19,2.44,3.53,1.09-1.88-.12-3.36-2.09-3.53,3.61-11.31,10.2,2.79,2.1,2.79,2.3-1,6.05-.24,6.78,2.5-3.89,1.08-7.39-.35-11.18-.4-1.56,0-3.72.57-5.11.16-1-4.31,4.16-7.84,8.1-7.12C391.55,344.28,390.62,345.64,390.92,345.82Z"/><path class="cls-5" d="M383.05,395.86c0,2.83-.62,7.59,3.89,3.77,2.15-1.83,2.24-5.58-1.39-4.84.66-2.89,6.5-7.31,8.76-4,1.71,2.5-.52,7-3.61,6.5,2.19-.43,6,1.61,4.22,4.23-1.43,2.14-7.43-.38-9.85,2.37-1.72,1.95-2.43,6.51-5.06,2.78-3.49-4.94,2.7-9.25,7-8.59-2.09,1.52-6.5.34-6.72-2.53,1.28,0,2.59-.05,3.87-.1a6.22,6.22,0,0,1-1.39-4.57C384,390.94,383.06,394.43,383.05,395.86Z"/><path class="cls-5" d="M401.28,388.71V409.8"/><path class="cls-5" d="M418.44,393.36c.24,5.94,1.31,12.37,2.15,18.23"/><path class="cls-5" d="M449.54,391.93c1.6,5.68,5.42,11.06,5.36,17.16"/><path class="cls-5" d="M469.91,395.15c.52-.33,1-.25,1.4-.72,2.37,6.57,6,12.9,7.54,19.66"/><path class="cls-5" d="M498.51,383c2.17,6.25,5.4,11.91,6.08,18.59"/><path class="cls-5" d="M522.1,381.56c3.15,2.83,5.78,6.65,8.77,9.72,1.91,2,5,4.77,5.89,7.44"/><path class="cls-5" d="M553.2,371.55A87.53,87.53,0,0,1,571.79,388"/><path class="cls-5" d="M578.94,363c5.12,5.08,10.32,10.39,15.73,15"/><path class="cls-5" d="M373.4,382.28c.75,9.13-4.36,19-6.08,27.88"/><path class="cls-5" d="M348,377.63a61.55,61.55,0,0,1-5,21.45"/><path class="cls-5" d="M370.18,376.56c.47-9.88,9.8-18.6,11.8-28.24"/><path class="cls-5" d="M403.07,356.9c0,10.38.36,20.72.36,31.1"/><path class="cls-5" d="M316.46,384.23c.25,3.49,3.91,4,6.71,5.64,5.18,3,9.4,6.88,14.26,10.3,8,5.65,16.61,6.1,25.85,8.38a159.32,159.32,0,0,0,26.64,4.64c17.5,1.36,36.64,6.07,54.09,3.29q29.87-4.75,59.86-8.93c27.06-3.79,50.39-15.8,75.58-25.69,14.77-5.81,27.15-16.8,39.71-25.39"/><line class="cls-5" x1="378.98" y1="491.72" x2="405.36" y2="421.47"/><line class="cls-5" x1="395.37" y1="497.24" x2="416.96" y2="423.58"/><line class="cls-5" x1="406.16" y1="495.4" x2="425.4" y2="427.8"/><line class="cls-5" x1="414.65" y1="495.4" x2="434.17" y2="421.47"/><line class="cls-5" x1="425.4" y1="500.56" x2="452.22" y2="425.41"/><polyline class="cls-5" points="571.79 394.44 659.56 491.09 659.56 369.81 625.27 355.47"/><path class="cls-5" d="M542.12,401.58c10.91,9.35,113.22,120.1,113.22,120.1"/><line class="cls-5" x1="554.63" y1="398.72" x2="655.34" y2="508.73"/><path class="cls-5" d="M542.12,411.59c-8,2.4-62.1,19.66-87.18,76.33-28.32,64,5.14,122.14,8.43,127.63"/><path class="cls-5" d="M545.06,417.34C492,437.7,455.39,482.87,451.77,533.28c-2.9,40.41,16.33,71,24.26,82.27"/><path class="cls-5" d="M547,423.58c-6.26,3-71.88,36.17-81.53,106.54-5,36.21,7.24,65.17,13.72,78"/><path class="cls-5" d="M554.63,427.8c-6.89,3.27-67.32,33.09-78.6,98.1-5.49,31.65,3.08,57.75,8.44,70.67"/><path class="cls-5" d="M470.76,625.05a262.56,262.56,0,0,0,88.6-192"/><path class="cls-5" d="M550.13,577.25c-5.24-8.9-15.67,5.27-9.34,8.62,4.48,2.37,16.15-10.93,9.34-11.34"/><path class="cls-5" d="M553.24,597.5c-2.65,0-6.17-.78-8.41.78-4.42,3.06-2.39,9.64,2,10.92,3.41,1,7.31.82,8.68-2.85.76-2.05.2-5.2-2.3-5.35"/><path class="cls-5" d="M570.37,602.17c-1,2.76-3.63,11.5-1.62,14,3.55,4.41,14,1,15.39-4,1.21-4.29.19-9.2-4.14-11.05C577.08,599.89,572.44,600.17,570.37,602.17Z"/><path class="cls-5" d="M574.26,473.3c-.77,2.65-2.11,5-2,7.82,11.79,3.85,13.43-12.05,4.69-11.71"/><path class="cls-5" d="M523.26,632.54c3.89,0,9.2-.45,11.29,3.78,2.4,4.86-2,7-5.86,7.76-4.67.93-10.18.7-10.16-5.48,0-3.2,1.62-4.7,4.73-4.11"/><path class="cls-5" d="M520.93,622.42c-.55-3.46-3.07-6.38-3.11-10,7.88-1.24,17.57-2,25.24.39,3,.94,9.69,3.42,10.15,7-5.81,2.48-14,1.8-18.22,7.35,3.32.19,7-.6,10.23-1,1.61-.22,6.92-1.84,8.52-.9,2.91,1.69.93,12.32.1,15.41-1.11,4.15-4.52,15.54-10.15,16.08-5,.47-8-7.32-8.4-11.38,1.43,4.5,10.44,14.31,7.4,18.85-2.05,3.07-13.49,2-16.28,1.95-5.5,0-10.68.33-16.09.79-.74-3.74,7.87-11.33,11.31-13.31-5,1.89-9.56,8.19-15.09,8.25-5,.06-6-6.15-7.87-10.58-1-2.33-3.66-6.72-2.69-9.38.9-2.44.46-1.9,3.79-2.47,3.65-.62,7.66-.23,11.36-.14-4.48-1.34-15.67-6.16-13.07-11.77,1.82-3.91,14.15-13.35,19.78-12.82C518.65,617.33,518.2,620.72,520.93,622.42Z"/><path class="cls-5" d="M575.43,543.38c-6.61.59-16.71-4.41-21.74-8.2-8.4-6.34,0-9.57,5.94-14.4,7.69-6.32,15.92-14.9,26.63-14.37a130.85,130.85,0,0,0,7,21.65c.4-4.45-2.47-18.84,2.18-22,4.44-3,16.84,6.57,20,9.2s6.86,5.94,8.29,9.82c-4.59,4.34-12.91,6.92-18.93,8.24,11.19-.2,21.4-4.88,32.48-4.69,1,11-4.16,25.81-9.82,35-1.61,2.61-4.31,5.79-7.11,7-2.74-3.89-5.24-7.89-8.41-11.44-1.78-2-5.33-4.06-5-7.08,1.61,4.46,12.06,14.88,9,20-2.51,4.16-15.34,2.77-18.74,2.76-4.65,0-9.69-.48-14.26.39-.7-5.59,7.16-15.29,11.31-19-4.77,5.35-13.28,8.94-19.71,11.84-1.65.74-6,3.82-8,3.28-4-1.13-6.82-12.79-8.21-16.18a15.61,15.61,0,0,1-1.6-6.89c7-2.25,19.17-1.2,25.36,2.36"/><path class="cls-5" d="M596.07,537.54c.7-3.43-4-5.43-6.72-4-5.43,2.82-3.24,12.64,1.82,14.21,1.94.6,9.6,1.16,10-2.34.5-4-9.18-6.18-11.76-7.07"/><polyline class="cls-5" points="474.26 632.53 526.88 688.31 639.29 580.26 642.45 529.06"/><polyline class="cls-5" points="467.59 641.92 532.99 705.21 652.18 589.18"/><line class="cls-5" x1="571.79" y1="453.73" x2="637.39" y2="524.03"/><path class="cls-5" d="M568,456.78a259.51,259.51,0,0,1-87.75,171.43"/><line class="cls-5" x1="305.16" y1="385.61" x2="153.27" y2="530.12"/><polyline class="cls-5" points="280.5 415.78 345.52 497.24 339.42 408.1"/><polyline class="cls-5" points="351.01 430.11 387.17 433.08 367.32 489.75 351.01 489.75"/><line class="cls-5" x1="353.94" y1="500.56" x2="443.64" y2="505.43"/><path class="cls-5" d="M399.11,523.53c-7.26,0-9.78-1-11,7.64-.46,3.2-1.38,9.87,3.59,10.31,3.19.28,3.77-2.92,5.54-4.76.31,3.9-1.31,14.22,5.39,13.7,4.59-.35,5.72-8.48,6.12-12.11,2,3,5.74,6.68,9.06,2.86,3.65-4.23-.43-9.88-2.91-13.19,4.24-.27,10.33.88,8.43-5.71-.92-3.21-9.94-10.78-11.3-5,3.53-1.18,3.63-5.7,1-7.58-4.24-3.06-9.45.58-13.5,1,.9-5.46-5.28-2.86-6.53.61-2.7,7.52,3.65,7.82,10.16,7.49,7.22-.37,6.72,10,1.12,9.49-.06-1.78-.41-4.18.72-5.45"/><path class="cls-5" d="M356.88,546.3c2.55-2,13.44-.37,16.6-.37h8.74"/><path class="cls-5" d="M417.11,544.1h16.16"/><path class="cls-5" d="M367.9,512.51c-1.32,4.59-2.59,10.53-1.39,15.29,1.32,5.2,8.31,7.3,12,3.34C383.44,525.82,375.83,510,367.9,512.51Z"/><path class="cls-5" d="M434.37,518.39c-4.22,1-2.44,7.63,1.59,8.09,5.42.63,4.15-9.15,1.71-12.13"/><path class="cls-5" d="M458,341.47A43.5,43.5,0,0,1,469.35,351"/><path class="cls-5" d="M456,347.25c3.13,4.12,7.65,7,10.8,11.06"/><path class="cls-5" d="M451.51,349c-.42,3.54,5.69,9.1,8,11.56"/><path class="cls-5" d="M501.26,341c-.51-3.27,3-6.84,4.53-9.47a31.34,31.34,0,0,1,3-4.85"/><path class="cls-5" d="M507,348.51c0-3.82,3.62-8,6.28-10.55"/><path class="cls-5" d="M513.32,353.28c-.18-4.18,2.49-8.26,4-12.06"/><path class="cls-5" d="M409,268.12c3.55-2.39,8.67-5.92,13.2-5.55,2.91.25,4.19,2.47,7.31,2.47,4.41,0,8.67-2.73,13-3.47,5.27-.9,10.25-.2,15.43.08-3,0-3.29,5.27-6.24,5.94-2.42.56-4.85.63-7.28,1.23A71.6,71.6,0,0,1,433,270.75c-4.11.35-9.11.77-13.2.15C417.4,270.54,411.49,268.2,409,268.12Z"/><path class="cls-5" d="M414.58,280.44c5.53,2.14,13,.91,18.82.92a22.6,22.6,0,0,0,11.67-2.77"/><path class="cls-5" d="M433.06,165.57c9.21-2.63,17.21-9.1,27.17-9.24,4.34-.07,8.39,1.65,12.8,1.25,3.15-.28,7.21-2.07,10.39-1.2a5.51,5.51,0,0,1,3.85,6.28c-.67,3.31-3.4,2.57-6.92,2.6-6.27.06-12.36,0-18.43-1.37-4.18-.92-8.08-.34-12.19.64C446.26,165.35,434.88,169.55,433.06,165.57Z"/><path class="cls-5" d="M406.94,170.27c-8.63,0-28.3-2.58-28.36,6,4.73.61,11-2.8,16.22-3C397.47,173.21,405.53,174.09,406.94,170.27Z"/><path class="cls-5" d="M446.22,184.61c8-12.28,30.28-13.12,41.27-5.54"/><path class="cls-5" d="M489.84,185.86c-9.38-5.43-20.61-5.28-30.26-2.83-4.17,1.06-8.78,2.09-12,5.22-1.91,1.85-2.4,1.2-.13,4.25,7.56,10.14,19.23,11,29.07,6.18C482.12,196,483.6,188.48,489.84,185.86Z"/><path class="cls-5" d="M458.93,184.35c.5,2.26-.9,6.19.61,8.69,2.75,4.56,14,5.55,18.26,3.51,3.13-1.5,6.32-6.82,5.15-10.48-.6-1.88-1.69-2.26-3.69-2.95"/><path class="cls-5" d="M466.63,183.43c0,2-.69,5.48.56,6.94,1,1.16,7.12,2.35,8.4,1.35,2.71-2.12-.23-9.68-3.42-9.52"/><path class="cls-5" d="M401.65,188.66c-5.11-.61-9.9-1.54-15.09-1.54-2.9,0-5.56-.41-8.12,1a22.85,22.85,0,0,0-4.2,3.65"/><path class="cls-5" d="M402.72,197.24c-1.9.81-6.24-2.72-8.28-3.64-4.07-1.83-7.68-2.12-11.75-.37a47.52,47.52,0,0,0-8.43,4.39c1.65,4,12.34,12.21,17.35,11.37C394.7,208.48,398.84,202.88,402.72,197.24Z"/><path class="cls-5" d="M388.4,193.59c-2.57,2-4.81,6.43-2.28,8.63,1.48,1.29,7.68,3.43,8.75,1.23"/><path class="cls-5" d="M393,194.51c-1.72,5.52,3.21,8.15,6.16,2.47"/><path class="cls-5" d="M398.24,1032c.84-2.75,3-5.19,4.57-7.65,5.36-8.64,10.55-17.22,16.87-25.21,3.26-4.14,8.91-7.63,11.46-12.16,2-3.61-1.7-9.17.44-12.16-11,15.25-28.78,27.15-33.37,45.75"/><path class="cls-5" d="M409.22,1033.33c4.11-6.47,8.16-13,14-18.15,2.2-1.93,5-3.24,6.51-5.68"/><path class="cls-5" d="M434.83,1034.64c0-8.36.93-17.23-.59-25.46-.63-3.43-1.95-6.74-2.24-10.2"/><path class="cls-5" d="M388.16,1027c-2.09-8.93-12.27-18.67-18.47-25.2-7.67-8.07-17.12-15.57-28-18.8-5.07-1.52-16.44-3.5-21.33-1.12"/><path class="cls-5" d="M381.32,1032.48c-4.09-3.15-11.14-12.16-16.12-16.85-7.74-7.31-15.29-15.63-24.15-21.64-2.62-1.78-7.11-4.76-10.13-2.55"/><path class="cls-5" d="M363,1030.69c-5.4-9.28-18.11-17.3-26.7-23.48a202,202,0,0,0-18.2-11.62"/><path class="cls-5" d="M396.84,950.79q0-7.75,0-15.52c0-7.46,1.75-13.73,4.15-20.69,1.42-4.11,4.73-12,.78-15.88,0-3.53.78-11.24-3.92-12.06-4.44-.78-4.64,6.65-8.64,6.6-1.69,0-2.59-1.92-3.91-2.81a8.76,8.76,0,0,0-5.45-1.7c-3.43.3-4.31,3.52-6.77,4.78"/><path class="cls-5" d="M434.19,972c3.72-17.36,8.06-49.66-3.37-86.48-6.65-21.43-19.77-63.71-50.8-71.61-30-7.63-70.48,18.49-92.66,66.67l4.19,50.27"/><line class="cls-5" x1="345.22" y1="1034.85" x2="159.45" y2="760.6"/><line class="cls-5" x1="318.2" y1="1030.8" x2="155.34" y2="807.02"/><line class="cls-5" x1="299.9" y1="1034.96" x2="151.15" y2="819.69"/><path class="cls-5" d="M623,659.19c1-3.16-1.93-7.39-5.53-5.16-3.09,1.91,4.47,5.22,6.5,6.45"/><path class="cls-5" d="M622,670.47c1.76-1.35-14.79-13-17.57-8.79-3,4.53,13.43,9.86,17.37,10.44C622.24,671.9,621.84,671.82,622,670.47Z"/><path class="cls-5" d="M617.54,681.75c-2.38-1.08-13.53-6.41-14.71-2.85-1,2.88,8.91,7.69,11.5,7.69"/><path class="cls-5" d="M612.09,694.64c-2.23-.27-15.78-3.49-16.52-.38s9.1,5.84,11.38,5.55a4,4,0,0,0,4.79-4.1C610.78,695.13,613.17,694.15,612.09,694.64Z"/><path class="cls-5" d="M626,720.69c2.41-1.3,4.81-5.69,4.5-8.57-.53-4.93-9.37-8.39-13-11.13-4.71-3.54-9.4-7.7-14.47-10.71-1.52-.9-2.66-1.56-4.49-1.4"/><path class="cls-5" d="M629.51,705.23c2-.51,4.21-4.59,4.82-6.53,1.45-4.69-1.68-7.27-5.15-9.92-5.21-4-11.35-9-17.55-11.41-2-.79-4.53-.77-6-2.36"/><path class="cls-5" d="M636.88,690.08c7.07-6.15.19-18.3-4.36-23.34-4-4.41-9.6-9.92-16-9.79"/><path class="cls-5" d="M639.41,670.43c2.25-4.69,1.41-14.29-2.59-17.87-4.5-4-11.7-1.63-17.11-3"/><path class="cls-5" d="M584.39,691.16c-.31,5.13,10.76,7.76,14.1,8.68,3.06.85,7,1.08,8.47,4.15"/><path class="cls-5" d="M606.67,715.91c.77-1.64,1.82-6.16,1-7.83-1-2-3.49-1.87-5.5-2.47"/><path class="cls-5" d="M545.76,696.41c.7,1.73,2.65,3.12,4.16,4.42,6.65,5.75,13.43,11.7,20.36,17.1,6.21-.24,14.08.41,20.31.28,4.37-.09,7.5-1.78,11.57-2.93"/><path class="cls-5" d="M573.52,724.68c-1.94,5.19-7.85,9.81-11.85,13.2a53.31,53.31,0,0,1-17,10.21c-1.83.65-4,1.47-5.85,1-.63-8.14,5.36-16.58,9.52-23,2.91-4.51,7.13-10.72,12.9-11.7"/><path class="cls-5" d="M605.08,725.57c2.65.41,5.08,3.15,7.21,4.79a95.92,95.92,0,0,0,23.56,13.55c3.37,1.33,12.37,5.59,14.39,1.69,3.2-6.19-10.18-10.17-12.87-11.09-8.32-2.85-16.7-5.09-24.87-8.44a77.24,77.24,0,0,1-12.91-7.25"/><path class="cls-5" d="M589,727.22c3.83,8.85,3.24,19.16,3.29,28.65"/><path class="cls-5" d="M599.74,784.52c3.19.09,9,2.34,11.42-.45,1.73-2,1-6.24-.11-8.27-2.35-4.17-7.61-5.69-12-5.81C583.48,769.55,593.09,790.22,599.74,784.52Z"/><path class="cls-5" d="M594.92,789.36c-2.44,7.37-14.82,17.41-23,17.16a7.62,7.62,0,0,1-6.4-11.36c1.9-3.51,6.67-5.69,10.19-7,1.84-.7,5.47-.66,7.06-1.61,2.11-1.25,2.87-4.52,5.32-5.86-8.69.19-20.87,2.18-27.55-4.44-3.15-3.13-8.36-13.74-5.84-18.31,3.47-6.28,17.66-2.2,22,.34,2.86,1.69,14.79,7.35,14.75,11.58,4.55-4.15,7-10.47,12-14.53,5.45-4.43,13.7-6.65,20.19-2.87,7.17,4.17,5.29,12.63-.05,17.6-3.21,3-7.31,4.92-10.38,8,9.73.37,26.62,18.26,16.6,26.77-8.84,7.51-29.61,2.89-28.39-10.92"/><path class="cls-5" d="M596.23,797.41c1.68,4.68,3.37,13.05,1,17.42C591.79,815.75,589.78,803.39,596.23,797.41Z"/><path class="cls-5" d="M569.47,785.23c-1.71,0-17.59.45-17.12-.92C553.69,780.39,568.76,784.09,569.47,785.23Z"/><path class="cls-5" d="M590.68,764.57c0-4.85.67-10.94-4.17-13.68C586,754.94,587.31,759,590.68,764.57Z"/><path class="cls-5" d="M623.55,775.77c2.8,0,13.8,1.82,13.81-2.87S626.37,772.12,623.55,775.77Z"/><path class="cls-5" d="M436.69,886.28c8.49-10.58,13.32-25.82,18.81-38.21,6.39-14.43,12.2-28.42,13-44.35.46-8.64.72-22.42-5.39-29.27"/><path class="cls-5" d="M437.45,968.66c4.37-2.76,7.5-8.9,10.4-13.15,14.15-20.74,28.2-42.42,37.68-65.72,11-27.12,13.74-54.55,13.6-83.55-.09-18-2.92-39.77-9.85-56.74"/><path class="cls-5" d="M288.76,1030.19c.73-5.8-6.95-10.13-11.52-13.22-3.36-2.25-7.06-5.12-11.24-5-.37-5.44,1.49-11.14-3.28-15s-11.19-4.32-16.7-5.82c-1.2-9.27,3.52-21.46-3.16-29.47-4-4.82-8.69-3.52-14.12-3.88.78-9.69-13.64-17.83-22.09-15.65,5-8.11-3.74-46.91-15.41-37.72-1.58-3.42-5.78-7.39-9-9.25-2-1.19-5.06-1.58-6.65-3,2.81-2.16,14.49-13.21,8.89-17.6-4-3.15-14.43,4.07-17.7,5.9a88,88,0,0,0-8.36,5.39"/><path class="cls-5" d="M270.56,1036.89c-.51-4-5.46-6.86-9.1-7.76-.12-2.62,2.33-4.66,3.11-6.94"/><path class="cls-5" d="M253.67,1009.6c-5.65,0-16.06,1.85-19.19-3.77-3.55-6.38-2.3-12.81-10.63-15.43"/><path class="cls-5" d="M230.55,1009c.63,5.87-3.74,12.77-7.67,16.83"/><path class="cls-5" d="M214.09,1012.15c-2.73,0-6.48.44-8.76-.33"/><path class="cls-5" d="M214.41,997.78c-2.32.17-4.65-1.3-6.31-2.43"/><path class="cls-5" d="M218.23,984.46a7.23,7.23,0,0,0-1.06-2.8"/><path class="cls-5" d="M227,976.73v-6.65"/><path class="cls-5" d="M244.89,999.11a5,5,0,0,0-1.06-2.8"/><path class="cls-5" d="M212.55,952.94c-3.43,0-16.06,2.1-18.86-.29-4-3.37,1.74-14.18-1.85-17.88"/><path class="cls-5" d="M209.77,963.46c3,.24,6-1.07,8.76-2.12"/><path class="cls-5" d="M202.43,969.43c.26,2.17,1.31,4.08,1.42,6.31"/><path class="cls-5" d="M195.07,967.7c-2,.44-4,.58-6,1.06"/><path class="cls-5" d="M178.22,955.13a8,8,0,0,1-4.91-1"/><path class="cls-5" d="M184.15,945.3c-2.32-1.18-4.11-3.15-6.31-4.54"/><path class="cls-5" d="M187.27,927.43a9.08,9.08,0,0,0-.37-4.91"/><path class="cls-5" d="M201.62,921.79l-.35-.7"/><path class="cls-5" d="M191.79,913.05c-4.42,0-29.44-2-27.63,5.66,3.75-.68,9.82-10.38,10.44-14.38"/><path class="cls-5" d="M165.1,1038.19c0-9.75,2.83-19.59,3.05-29.46.25-11.28,1.33-24-.4-35.18-1-6.71-2-14-4.06-20.52-1.31-4.19-3.65-8.16-4.45-12.5.4,1.69.11,3.25-1.31,3.81-.11-4.43-.43-8.84-.43-13.28,0-1.64.79-5.9-.05-7.27-1.42-2.31-5.89-1.22-5.24-5.39"/><path class="cls-5" d="M161.63,902.61c1.87-2.37,1.41-9.44,4.18-13"/><path class="cls-5" d="M281.35,911.91a62.94,62.94,0,0,0-4.59-23c-2.41-6-5.34-11.53-6.83-17.82"/><path class="cls-5" d="M267.24,894.45q0-14.88-.06-29.74c0-5.78.52-12.32-1.08-18"/><path class="cls-5" d="M258.3,885.55c-.06-14-2.93-28-2.5-41.86"/><path class="cls-5" d="M248.65,870.13a182.63,182.63,0,0,0-2.47-30.25c-1-5.86-2.29-11.86-2.79-17.78"/><path class="cls-5" d="M238,857.46c0-16,2.62-36.92-6.64-51.11"/><path class="cls-5" d="M227.33,851c.58-20.56-9.42-38.63-18.31-56.22"/><path class="cls-5" d="M211.5,828c0-12.22-.33-23.1-6.5-34.12-2.77-4.94-6.72-11.67-11.8-14.56"/><path class="cls-5" d="M198.41,806.77c.28-5.12-2.6-12-6.9-15.08"/><path class="cls-5" d="M254,825.85c-1.46-3.42-4.81-6.18-7.39-8.76q-8.88-8.88-17.81-17.72c-7.94-7.88-17.6-14.8-28.74-17.09-6.6-1.36-13-1.83-19.45-4-2.27-.78-4.76-3-7-3"/><path class="cls-5" d="M422.47,807.62c-13.32.45-26.92-1.16-40.26-1.38-16.29-.27-33.65-2-49.75.5-11.74,1.85-22.37,5.72-33.09,10.63-6,2.74-11.35,7.39-17.79,9.12-6,1.62-9.06,1.37-13.46,5.85"/><path class="cls-5" d="M326.79,828.43c-2.18-2.84-14.23,2.35-16.92,3.17-10.7,3.26-21.3,7.29-31,12.88-4.28,2.46-11.78,5.92-15.14,9.49"/><path class="cls-5" d="M483.65,756.13c-4.48,8.75-16.44,15.16-23.63,21.71a138.68,138.68,0,0,0-25.1,29.68c-3.34,5.26-7.67,9.74-10.91,15"/><path class="cls-5" d="M234.77,797.16a233.88,233.88,0,0,1,212.68-18.25"/><path class="cls-5" d="M471.93,756.16A281.51,281.51,0,0,0,217.5,778.39"/><path class="cls-5" d="M421.91,784.06c1.21-3.63,3.56-7.41,4.26-11.09"/><path class="cls-5" d="M401.18,784.83c2.28-1.79,1.75-13.22,1.75-17.17"/><path class="cls-5" d="M377.58,782.74l-.05-21.45"/><path class="cls-5" d="M355.42,782.07c0-5.94,1.58-17-2.91-21.44"/><path class="cls-5" d="M335.75,778.9c.08-5.61.36-17.23-3.62-21.44"/><path class="cls-5" d="M311.83,790.4c.48-6.45-5.68-12.56-7.2-18.57"/><path class="cls-5" d="M292.88,790.44c-1-4.94-8.86-12.1-12.55-15.34"/><path class="cls-5" d="M272.18,802.64c-.9-7-11-14.56-16.13-18.9"/><path class="cls-5" d="M432.3,795.83c-7.42.46-14.55-2.4-21.79-3.68-15.15-2.67-31-4-46.28-5.06-13.17-.92-27.21-1.92-40.25.73-10.08,2-19.88,6-29.79,8.72-9.67,2.7-14.44,5.05-20.78,13-1.72,2.16-3.21,4.85-5.13,6.67"/><path class="cls-5" d="M250.69,784.46c-5.64-2.71-9.53-9.78-14.69-13.55"/><path class="cls-5" d="M265.32,773.71c-3.89-5.7-8.48-11.29-12.55-16.78"/><path class="cls-5" d="M293.18,765.42c-2.14-6.24-6.33-12.08-9-18.21"/><path class="cls-5" d="M313.18,759.65c.23-3.39-1.13-12.16-1.47-17.51"/><path class="cls-5" d="M334.27,757.1l0-21.45"/><path class="cls-5" d="M369.65,753.44c3.81.32,5.42-5.51.06-5-3.81.36-4.3,6.72-.77,6.8-4,0-8.15.6-12.12.37-1.7-4.29,5.16-10.49,8.17-7.21-2.22.48-5.85-1.31-6.28-3.74-.69-3.87,4.64-3,7.38-3s11.77-.53,13.18,2.77c1.29,3-3.38,3.39-5.47,4,5.16-2.93,7.65,2.91,5.61,7.25-1.06,2.24-7.67,6.53-7.16,1.71,2.35-1.29,3.42,1.07,2.76,3.17-1.37,4.38-5.66,2.88-8,.75-4.38-4-2.83-5.91-8.1-2.85,0-2.17,2-3.64,3.56-4.95"/><path class="cls-5" d="M274.6,766.89c2.95-4.21,2.82-9.6-3.59-6.5-5.72,2.77-3.93,8.35,1.45,9.72.23,3.35-7.88,8.26-10,4.73-1.69-2.85,3.68-4.62,4.76-5.34-2.22-.41-10.68-1.81-9.13-6,.74-2,5.62-1.18,7.49-1.24.89-2.52-1-8.34,3.27-8.25,3.4.07,3.81,4.89.1,5.44,5.57-1.1,12.06-2,17.7-.88,0,3-4.87,5.13-7.5,4.11,2.53-.5,6.61,1,6,4.07a31.51,31.51,0,0,1-4.76.13c4.53,6.69-4.47,12-9,6.11"/><path class="cls-5" d="M416.53,777.64c.4-1.94-.06-4.2-2.45-3.53-1.09,1.89.13,3.36,2.1,3.53-3.59,11.32-10.21-2.77-2.11-2.79-2.29,1-6.05.25-6.78-2.48,3.88-1.09,7.38.33,11.17.37,1.57,0,3.72-.58,5.12-.17,1,4.31-4.15,7.85-8.09,7.14C415.9,779.18,416.83,777.82,416.53,777.64Z"/><path class="cls-5" d="M424.28,727.58c0-2.83.6-7.6-3.9-3.76-2.14,1.83-2.23,5.58,1.4,4.84-.64,2.88-6.48,7.32-8.75,4-1.71-2.49.51-7,3.6-6.5-2.19.43-6-1.6-4.23-4.23,1.43-2.14,7.43.37,9.85-2.39,1.71-1.95,2.41-6.52,5.05-2.79,3.5,4.93-2.69,9.26-7,8.61,2.1-1.53,6.51-.36,6.73,2.51-1.28,0-2.58.06-3.86.11a6.2,6.2,0,0,1,1.39,4.57C423.31,732.5,424.28,729,424.28,727.58Z"/><path class="cls-5" d="M406.07,734.77,406,713.68"/><path class="cls-5" d="M388.9,730.16c-.25-5.94-1.35-12.36-2.19-18.22"/><path class="cls-5" d="M357.8,731.67c-1.62-5.68-5.45-11.06-5.4-17.15"/><path class="cls-5" d="M337.42,728.5c-.52.33-1,.24-1.39.71-2.39-6.56-6-12.88-7.59-19.64"/><path class="cls-5" d="M308.85,740.72c-2.18-6.25-5.42-11.9-6.12-18.58"/><path class="cls-5" d="M285.26,742.2c-3.15-2.82-5.79-6.63-8.78-9.69-1.92-2-5.05-4.76-5.91-7.43"/><path class="cls-5" d="M254.19,752.28a87.2,87.2,0,0,1-18.63-16.4"/><path class="cls-5" d="M228.47,760.92c-5.13-5.06-10.35-10.36-15.76-15"/><path class="cls-5" d="M434,741.14c-.76-9.13,4.32-19,6-27.9"/><path class="cls-5" d="M459.35,745.73a61.57,61.57,0,0,1,5-21.46"/><path class="cls-5" d="M437.19,746.85c-.44,9.88-9.75,18.62-11.73,28.27"/><path class="cls-5" d="M404.35,766.59c0-10.38-.4-20.73-.43-31.1"/><path class="cls-5" d="M490.9,739.05c-.25-3.48-3.92-4-6.73-5.62-5.18-3-9.41-6.86-14.28-10.27-8-5.63-16.62-6.06-25.87-8.32a160.35,160.35,0,0,0-26.65-4.58c-17.51-1.32-36.66-6-54.1-3.16q-29.85,4.83-59.84,9.07C276.38,720,253.08,732.09,227.92,742c-14.77,5.84-27.11,16.87-39.66,25.48"/><line class="cls-5" x1="428.13" y1="631.71" x2="401.91" y2="702.02"/><line class="cls-5" x1="411.73" y1="626.22" x2="390.3" y2="699.93"/><line class="cls-5" x1="400.93" y1="628.09" x2="381.86" y2="695.74"/><line class="cls-5" x1="392.45" y1="628.11" x2="373.1" y2="702.08"/><line class="cls-5" x1="381.68" y1="622.98" x2="355.04" y2="698.19"/><polyline class="cls-5" points="235.54 729.45 147.55 633 147.83 754.28 182.16 768.54"/><path class="cls-5" d="M265.2,722.23C254.27,712.91,151.69,602.4,151.69,602.4"/><line class="cls-5" x1="252.69" y1="725.12" x2="151.73" y2="615.35"/><path class="cls-5" d="M265.17,712.22c8-2.42,62.06-19.81,87-76.54,28.17-64-5.44-122.12-8.74-127.61"/><path class="cls-5" d="M262.22,706.47c53-20.48,89.52-65.73,93-116.15,2.8-40.42-16.5-71-24.45-82.22"/><path class="cls-5" d="M260.26,700.24c6.25-3,71.79-36.34,81.27-106.72,4.89-36.23-7.39-65.17-13.89-78"/><path class="cls-5" d="M252.62,696c6.89-3.28,67.25-33.25,78.38-98.28,5.42-31.67-3.22-57.74-8.61-70.65"/><path class="cls-5" d="M336,498.6a262.47,262.47,0,0,0-88.15,192.18"/><path class="cls-5" d="M256.78,546.58c5.26,8.89,15.66-5.31,9.31-8.64-4.48-2.36-16.12,11-9.3,11.36"/><path class="cls-5" d="M253.62,526.34c2.65,0,6.17.76,8.4-.8,4.42-3.08,2.37-9.65-2-10.91-3.41-1-7.31-.81-8.67,2.87-.75,2-.19,5.2,2.31,5.33"/><path class="cls-5" d="M236.48,521.71c1-2.77,3.6-11.51,1.59-14-3.57-4.41-14-1-15.39,4-1.2,4.29-.16,9.2,4.17,11C229.77,524,234.41,523.71,236.48,521.71Z"/><path class="cls-5" d="M232.89,650.58c.76-2.65,2.09-5,1.94-7.81-11.8-3.83-13.4,12.07-4.66,11.71"/><path class="cls-5" d="M283.52,491.23c-3.89,0-9.2.46-11.3-3.75-2.42-4.86,2-7,5.84-7.78,4.67-.94,10.18-.72,10.17,5.46,0,3.19-1.6,4.7-4.72,4.12"/><path class="cls-5" d="M285.88,501.34c.55,3.47,3.08,6.37,3.13,10.05-7.89,1.25-17.57,2.08-25.24-.34-3-.93-9.7-3.39-10.17-6.92,5.8-2.49,14-1.83,18.2-7.39-3.32-.19-6.95.61-10.23,1.06-1.61.22-6.91,1.85-8.52.92-2.91-1.69-1-12.31-.13-15.42,1.09-4.14,4.48-15.55,10.12-16.09,5-.49,8,7.3,8.41,11.36C270,474.07,261,464.29,264,459.73c2-3.07,13.49-2,16.28-2,5.5,0,10.67-.35,16.08-.82.76,3.73-7.83,11.35-11.27,13.33,4.95-1.89,9.54-8.21,15.07-8.29,5-.06,6,6.14,7.89,10.57,1,2.33,3.68,6.71,2.72,9.37-.89,2.44-.46,1.9-3.79,2.48-3.65.63-7.66.25-11.36.17,4.48,1.33,15.69,6.12,13.1,11.74-1.81,3.91-14.12,13.38-19.76,12.87C288.16,506.42,288.61,503,285.88,501.34Z"/><path class="cls-5" d="M231.55,580.51c6.61-.61,16.73,4.37,21.77,8.15,8.41,6.32,0,9.57-5.91,14.42-7.68,6.34-15.88,14.93-26.6,14.42a130.17,130.17,0,0,0-7.05-21.63c-.39,4.45,2.51,18.84-2.12,22-4.44,3.06-16.86-6.53-20-9.15s-6.89-5.92-8.32-9.79c4.58-4.36,12.89-7,18.91-8.29-11.19.23-21.39,4.93-32.47,4.77-1-11,4.1-25.83,9.74-35.05,1.6-2.62,4.29-5.81,7.1-7.06A124,124,0,0,0,195,564.76c1.79,2,5.34,4,5,7.06-1.62-4.45-12.1-14.85-9-20,2.5-4.16,15.33-2.8,18.73-2.8,4.65,0,9.69.45,14.26-.42.71,5.59-7.12,15.3-11.26,19,4.75-5.36,13.25-9,19.67-11.89,1.66-.75,6-3.84,8-3.3,4,1.12,6.85,12.77,8.24,16.16a15.44,15.44,0,0,1,1.63,6.89c-7,2.26-19.18,1.24-25.37-2.3"/><path class="cls-5" d="M210.93,586.4c-.69,3.43,4,5.42,6.73,4,5.42-2.83,3.21-12.65-1.86-14.2-1.94-.6-9.6-1.14-10,2.36-.49,4,9.19,6.16,11.78,7"/><polyline class="cls-5" points="332.51 491.12 279.76 435.47 167.61 543.78 164.57 594.99"/><polyline class="cls-5" points="339.16 481.71 273.62 418.58 154.7 534.89"/><line class="cls-5" x1="235.41" y1="670.16" x2="169.64" y2="600.01"/><path class="cls-5" d="M239.19,667.09a259.48,259.48,0,0,1,87.35-171.63"/><line class="cls-5" x1="502.2" y1="737.64" x2="653.75" y2="592.78"/><polyline class="cls-5" points="526.79 707.41 461.57 626.11 467.88 715.24"/><polyline class="cls-5" points="456.24 693.25 420.07 690.37 439.79 633.65 456.1 633.62"/><line class="cls-5" x1="453.14" y1="622.81" x2="363.43" y2="618.15"/><path class="cls-5" d="M407.92,599.94c7.26,0,9.79,1,11-7.66.46-3.2,1.36-9.88-3.61-10.3-3.19-.27-3.77,2.93-5.53,4.77-.32-3.9,1.28-14.22-5.42-13.69-4.59.37-5.7,8.49-6.09,12.13-2-3-5.76-6.67-9.06-2.84-3.65,4.23.45,9.87,2.93,13.18-4.24.28-10.33-.86-8.42,5.73.94,3.21,10,10.76,11.31,5-3.53,1.19-3.61,5.72-1,7.59,4.25,3,9.45-.6,13.49-1-.88,5.47,5.29,2.86,6.53-.62,2.68-7.53-3.67-7.81-10.18-7.46-7.21.38-6.74-10-1.14-9.5.06,1.79.42,4.18-.71,5.46"/><path class="cls-5" d="M450.1,577.08c-2.55,2-13.44.4-16.6.4l-8.74,0"/><path class="cls-5" d="M389.87,579.42l-16.15,0"/><path class="cls-5" d="M439.16,610.89c1.31-4.59,2.56-10.53,1.35-15.29-1.33-5.2-8.33-7.28-12-3.32C423.59,597.62,431.23,613.38,439.16,610.89Z"/><path class="cls-5" d="M372.68,605.17c4.21-1,2.41-7.64-1.61-8.09-5.42-.61-4.13,9.16-1.69,12.14"/><path class="cls-5" d="M349.42,782.14a43.64,43.64,0,0,1-11.33-9.52"/><path class="cls-5" d="M351.42,776.36c-3.14-4.11-7.67-7-10.83-11"/><path class="cls-5" d="M355.93,774.59c.41-3.54-5.71-9.08-8.06-11.54"/><path class="cls-5" d="M306.2,782.74c.51,3.27-3,6.86-4.51,9.48a30.92,30.92,0,0,1-3,4.86"/><path class="cls-5" d="M300.41,775.22c0,3.82-3.6,8-6.26,10.57"/><path class="cls-5" d="M294.12,770.46c.18,4.18-2.48,8.27-4,12.07"/><path class="cls-5" d="M398.59,855.38c-3.54,2.4-8.66,5.94-13.19,5.57-2.9-.23-4.19-2.45-7.31-2.44-4.42,0-8.67,2.75-13,3.5-5.27.91-10.25.22-15.44,0,3,0,3.28-5.28,6.23-6,2.43-.55,4.86-.63,7.28-1.24a71.45,71.45,0,0,1,11.46-2c4.1-.35,9.1-.78,13.2-.18C390.22,853,396.15,855.31,398.59,855.38Z"/><path class="cls-5" d="M393,843.07c-5.53-2.13-13-.88-18.82-.88a22.57,22.57,0,0,0-11.66,2.8"/><path class="cls-5" d="M374.81,958c-9.2,2.65-17.18,9.13-27.15,9.3-4.34.08-8.39-1.63-12.8-1.22-3.15.29-7.2,2.09-10.39,1.22a5.5,5.5,0,0,1-3.86-6.27c.66-3.31,3.39-2.57,6.92-2.61,6.26-.08,12.36,0,18.42,1.32,4.19.91,8.09.32,12.19-.66C361.61,958.23,373,954,374.81,958Z"/><path class="cls-5" d="M400.92,953.22c8.63,0,28.31,2.52,28.35-6.11-4.74-.6-11,2.83-16.22,3C410.39,950.26,402.32,949.4,400.92,953.22Z"/><path class="cls-5" d="M361.61,939c-7.93,12.3-30.25,13.2-41.26,5.64"/><path class="cls-5" d="M318,937.83c9.4,5.41,20.63,5.23,30.27,2.76,4.17-1.07,8.77-2.11,12-5.25,1.91-1.85,2.4-1.21.12-4.25-7.59-10.12-19.26-10.92-29.09-6.11C325.68,927.72,324.22,935.19,318,937.83Z"/><path class="cls-5" d="M348.9,939.26c-.5-2.26.88-6.19-.63-8.68-2.76-4.56-14-5.52-18.27-3.47-3.13,1.51-6.3,6.84-5.13,10.49.61,1.88,1.7,2.26,3.71,2.94"/><path class="cls-5" d="M341.2,940.21c0-2,.68-5.49-.58-6.94-1-1.16-7.12-2.33-8.4-1.33-2.71,2.12.26,9.67,3.44,9.51"/><path class="cls-5" d="M406.17,934.82c5.11.6,9.9,1.52,15.09,1.5,2.9,0,5.56.4,8.12-1a23.34,23.34,0,0,0,4.2-3.67"/><path class="cls-5" d="M405.07,926.24c1.9-.81,6.25,2.71,8.3,3.62,4.07,1.82,7.68,2.11,11.75.35a47.92,47.92,0,0,0,8.42-4.42c-1.66-4-12.37-12.18-17.38-11.33C413.07,915,409,920.6,405.07,926.24Z"/><path class="cls-5" d="M419.4,929.86c2.57-2,4.8-6.44,2.27-8.64-1.49-1.28-7.69-3.41-8.76-1.2"/><path class="cls-5" d="M414.78,929c1.72-5.53-3.22-8.14-6.16-2.45"/><rect class="cls-5" x="143.78" y="85" width="524.22" height="946.13"/></svg>