<svg id="Layer_1" data-name="Layer 1" xmlns="http://www.w3.org/2000/svg" viewBox="0 0 822 1122"><defs><style>.cls-1{font-size:153.12px;}.cls-1,.cls-3,.cls-4{fill:#6f9797;}.cls-1,.cls-3{font-family:HelveticaNeue-Bold, Helvetica Neue;font-weight:700;}.cls-2{fill:#d6bd80;}.cls-3{font-size:174.23px;}</style></defs><text class="cls-1" transform="translate(36.67 149.36) rotate(-1.18)">5</text><circle class="cls-2" cx="100.95" cy="49.35" r="8.25"/><circle class="cls-2" cx="80.89" cy="49.33" r="8.25"/><circle class="cls-2" cx="60.86" cy="50.51" r="8.25"/><circle class="cls-2" cx="56.14" cy="70.53" r="8.25"/><circle class="cls-2" cx="53.79" cy="90.56" r="8.25"/><circle class="cls-2" cx="85.59" cy="84.68" r="8.25"/><circle class="cls-2" cx="102.09" cy="96.45" r="8.25"/><circle class="cls-2" cx="106.8" cy="118.84" r="8.25"/><circle class="cls-2" cx="95.03" cy="136.51" r="8.25"/><circle class="cls-2" cx="72.64" cy="140.05" r="8.25"/><circle class="cls-2" cx="52.61" cy="128.27" r="8.25"/><text class="cls-3" transform="translate(800.74 971.69) rotate(177.02)">5</text><circle class="cls-2" cx="731.2" cy="1087.72" r="9.38"/><circle class="cls-2" cx="754.02" cy="1087.03" r="9.38"/><circle class="cls-2" cx="776.76" cy="1084.97" r="9.38"/><circle class="cls-2" cx="781.41" cy="1062.03" r="9.38"/><circle class="cls-2" cx="783.37" cy="1039.17" r="9.38"/><circle class="cls-2" cx="747.42" cy="1047" r="9.38"/><circle class="cls-2" cx="728.23" cy="1034.19" r="9.38"/><circle class="cls-2" cx="722.07" cy="1008.9" r="9.38"/><circle class="cls-2" cx="734.84" cy="988.38" r="9.38"/><circle class="cls-2" cx="760.17" cy="983.56" r="9.38"/><circle class="cls-2" cx="783.37" cy="996.24" r="9.38"/><path class="cls-4" d="M66,167.84c-11.32-13.12-29.68-13.12-41,0h0C13.7,181,13.7,202.23,25,215.35l7,8.14,41-47.51Z"/><path class="cls-4" d="M121,215.44c11.32-13.12,11.32-34.39,0-47.51h0c-11.33-13.12-29.69-13.12-41,0l-7,8,41,47.51Z"/><polygon class="cls-4" points="73.05 175.98 32.05 223.49 73.05 271 114.06 223.49 73.05 175.98"/><path class="cls-4" d="M767.46,951.24c11.17,13.25,29.53,13.46,41,.47h0c11.47-13,11.72-34.26.54-47.51L802.09,896l-41.56,47Z"/><path class="cls-4" d="M713,903c-11.48,13-11.72,34.26-.55,47.51h0c11.17,13.25,29.53,13.46,41,.47l7-8-40.45-48Z"/><polygon class="cls-4" points="760.53 943.02 802.09 895.99 761.63 848 720.08 895.04 760.53 943.02"/><path class="cls-4" d="M181.82,263.11c-19.75-22.88-51.76-22.88-71.51,0h0c-19.75,22.87-19.75,60,0,82.85l12.25,14.19,71.51-82.86Z"/><path class="cls-4" d="M277.69,346.11c19.75-22.88,19.75-60,0-82.85h0c-19.75-22.88-51.76-22.88-71.51,0l-12.11,14,71.5,82.86Z"/><polygon class="cls-4" points="194.06 277.29 122.56 360.15 194.06 443 265.57 360.15 194.06 277.29"/><path class="cls-4" d="M603.82,264.11c-19.75-22.88-51.76-22.88-71.51,0h0c-19.75,22.87-19.75,60,0,82.85l12.25,14.19,71.51-82.86Z"/><path class="cls-4" d="M699.69,347.11c19.75-22.88,19.75-60,0-82.85h0c-19.75-22.88-51.76-22.88-71.51,0l-12.11,14,71.5,82.86Z"/><polygon class="cls-4" points="616.07 278.29 544.56 361.15 616.07 444 687.58 361.15 616.07 278.29"/><path class="cls-4" d="M398.82,528.11c-19.75-22.88-51.76-22.88-71.51,0h0c-19.75,22.87-19.75,60,0,82.85l12.25,14.19,71.51-82.86Z"/><path class="cls-4" d="M494.69,611.11c19.75-22.88,19.75-60,0-82.85h0c-19.75-22.88-51.76-22.88-71.51,0l-12.11,14,71.5,82.86Z"/><polygon class="cls-4" points="411.06 542.29 339.56 625.15 411.06 708 482.57 625.15 411.06 542.29"/><path class="cls-4" d="M214.86,899.57c20.22,22.47,52.22,21.81,71.49-1.48h0c19.27-23.28,18.51-60.37-1.71-82.83L272.1,801.33l-69.78,84.31Z"/><path class="cls-4" d="M117.29,818.57C98,841.85,98.79,878.94,119,901.4h0c20.21,22.47,52.22,21.81,71.49-1.48l11.82-14.28-73.2-81.36Z"/><polygon class="cls-4" points="202.32 885.64 272.11 801.33 198.9 719.97 129.12 804.28 202.32 885.64"/><path class="cls-4" d="M638.86,891.57c20.22,22.47,52.22,21.81,71.49-1.48h0c19.27-23.28,18.51-60.37-1.71-82.83L696.1,793.33l-69.78,84.31Z"/><path class="cls-4" d="M541.29,810.57C522,833.85,522.79,870.94,543,893.4h0c20.21,22.47,52.22,21.81,71.49-1.48l11.82-14.28-73.2-81.36Z"/><polygon class="cls-4" points="626.32 877.64 696.11 793.33 622.9 711.97 553.12 796.28 626.32 877.64"/></svg>