<svg id="Layer_1" data-name="Layer 1" xmlns="http://www.w3.org/2000/svg" viewBox="0 0 822 1122"><defs><style>.cls-1{font-size:174.17px;}.cls-1,.cls-3,.cls-4{fill:#6f9797;}.cls-1,.cls-3{font-family:HelveticaNeue-Bold, Helvetica Neue;font-weight:700;}.cls-2{fill:#d6bd80;}.cls-3{font-size:170.46px;}</style></defs><text class="cls-1" transform="translate(33.75 159.2)">8</text><circle class="cls-2" cx="84.68" cy="152.26" r="9.38"/><circle class="cls-2" cx="115.49" cy="120.11" r="9.38"/><circle class="cls-2" cx="48.51" cy="120.1" r="9.38"/><circle class="cls-2" cx="52.52" cy="73.21" r="9.38"/><circle class="cls-2" cx="59.22" cy="51.77" r="9.38"/><circle class="cls-2" cx="104.77" cy="51.77" r="9.38"/><circle class="cls-2" cx="82" cy="43.73" r="9.38"/><circle class="cls-2" cx="111.47" cy="71.86" r="9.38"/><circle class="cls-2" cx="56.54" cy="142.88" r="9.38"/><circle class="cls-2" cx="108.79" cy="142.88" r="9.38"/><text class="cls-3" transform="translate(809.03 981.99) rotate(180)">8</text><circle class="cls-2" cx="759.18" cy="988.78" r="9.18"/><circle class="cls-2" cx="729.03" cy="1020.25" r="9.18"/><circle class="cls-2" cx="794.59" cy="1020.26" r="9.18"/><circle class="cls-2" cx="790.66" cy="1066.15" r="9.18"/><circle class="cls-2" cx="784.1" cy="1087.14" r="9.18"/><circle class="cls-2" cx="739.53" cy="1087.14" r="9.18"/><circle class="cls-2" cx="761.81" cy="1095.01" r="9.18"/><circle class="cls-2" cx="732.97" cy="1067.47" r="9.18"/><circle class="cls-2" cx="786.73" cy="997.97" r="9.18"/><circle class="cls-2" cx="735.59" cy="997.96" r="9.18"/><ellipse class="cls-4" cx="192.83" cy="564.76" rx="102.94" ry="133.12"/><ellipse class="cls-4" cx="192.83" cy="883.76" rx="102.94" ry="133.12"/><ellipse class="cls-4" cx="655.5" cy="883.76" rx="102.94" ry="133.12"/><ellipse class="cls-4" cx="655.5" cy="564.76" rx="102.94" ry="133.12"/><ellipse class="cls-4" cx="655.5" cy="274.26" rx="102.94" ry="133.12"/><ellipse class="cls-4" cx="411.5" cy="412.76" rx="102.94" ry="133.12"/><ellipse class="cls-4" cx="411.5" cy="734.76" rx="102.94" ry="133.12"/><ellipse class="cls-4" cx="192.5" cy="275.76" rx="102.94" ry="133.12"/></svg>