<svg id="Layer_1" data-name="Layer 1" xmlns="http://www.w3.org/2000/svg" viewBox="0 0 822 1122"><defs><style>.cls-1{font-size:165.39px;font-family:HelveticaNeue-Bold, Helvetica Neue;font-weight:700;}.cls-1,.cls-3{fill:#d89d70;}.cls-2{fill:#d6bd80;}.cls-4{fill:none;stroke:#d89d70;stroke-miterlimit:10;stroke-width:3px;}</style></defs><text class="cls-1" transform="translate(30.75 146.81)">J</text><circle class="cls-2" cx="98.75" cy="47.4" r="8.91"/><circle class="cls-2" cx="98.74" cy="72.82" r="8.91"/><circle class="cls-2" cx="98.74" cy="99.54" r="8.91"/><circle class="cls-2" cx="96.2" cy="124.98" r="8.91"/><circle class="cls-2" cx="74.57" cy="138.98" r="8.91"/><circle class="cls-2" cx="52.94" cy="132.62" r="8.91"/><circle class="cls-2" cx="46.57" cy="112.27" r="8.91"/><text class="cls-1" transform="translate(791.38 979.75) rotate(177.63)">J</text><circle class="cls-2" cx="727.55" cy="1081.88" r="8.91"/><circle class="cls-2" cx="726.5" cy="1056.49" r="8.91"/><circle class="cls-2" cx="725.4" cy="1029.79" r="8.91"/><circle class="cls-2" cx="726.89" cy="1004.26" r="8.91"/><circle class="cls-2" cx="747.92" cy="989.38" r="8.91"/><circle class="cls-2" cx="769.8" cy="994.84" r="8.91"/><circle class="cls-2" cx="777" cy="1014.91" r="8.91"/><path class="cls-3" d="M45.48,306.9c16.37-15.8,28.66-39.52,28.67-55.32,0,15.8,12.25,38.47,28.61,52.88"/><circle class="cls-3" cx="72.75" cy="203.2" r="32.19"/><circle class="cls-3" cx="43.59" cy="251.18" r="32.19"/><circle class="cls-3" cx="104.94" cy="251.18" r="32.19"/><ellipse class="cls-3" cx="73.96" cy="237.52" rx="9.11" ry="6.38"/><path class="cls-3" d="M177.48,691.66c19.47-18.8,34.09-47,34.11-65.81,0,18.8,14.56,45.76,34,62.91"/><circle class="cls-3" cx="209.91" cy="568.3" r="38.29"/><circle class="cls-3" cx="175.23" cy="625.38" r="38.29"/><circle class="cls-3" cx="248.21" cy="625.38" r="38.29"/><ellipse class="cls-3" cx="211.36" cy="609.12" rx="10.84" ry="7.59"/><path class="cls-3" d="M783.05,835.1c-16.37,15.8-28.65,39.52-28.67,55.32,0-15.8-12.25-38.47-28.61-52.88"/><circle class="cls-3" cx="755.78" cy="938.8" r="32.19"/><circle class="cls-3" cx="784.94" cy="890.82" r="32.19"/><circle class="cls-3" cx="723.59" cy="890.82" r="32.19"/><ellipse class="cls-3" cx="754.57" cy="904.48" rx="9.11" ry="6.38"/><path class="cls-3" d="M642,431.38c-19.93,19.24-34.89,48.12-34.91,67.37,0-19.25-14.91-46.85-34.84-64.4"/><circle class="cls-3" cx="608.8" cy="557.65" r="39.2"/><circle class="cls-3" cx="644.3" cy="499.23" r="39.2"/><circle class="cls-3" cx="569.6" cy="499.23" r="39.2"/><ellipse class="cls-3" cx="607.32" cy="515.87" rx="11.09" ry="7.77"/><path class="cls-4" d="M460.58,165.75c-.92,2.08-2.72,3.56-3.52,5.56,4.25.53,8.48-3.27,12-5.19a53.24,53.24,0,0,1,12.34-4.59c5.09-1.31,12-2.62,17.3-1.78,5,.78,10.21,3.73,15.44,3.73-5.86-8.46-14.72-11.22-24.94-8.8C479.5,157,467.06,163.09,460.58,165.75Z"/><path class="cls-4" d="M501.71,170.25c-4-.56-7-2.84-11.27-2.63s-8.62,1.93-12.24,3.83c-5.92,3.11-16.26,8.76-17,15.94,6.7,1.1,9-4.52,14.31-7.08a37.14,37.14,0,0,1,19.66-3.18c7.15.87,11.8-.79,17.51-5"/><path class="cls-4" d="M499,178.49c.21,4,2.07,8.81.39,12.69-1.82,4.24-6.12,3.12-10.25,3-3.76-.06-18,.38-17.95-5.61"/><path class="cls-4" d="M489.35,177.85c-2.51,2.57-1.83,9.53.3,12.15,1.52,1.86,5.51,4.55,8.11,4.09.89-2.22,2.46-3.78,2.78-6.37.39-3.22-.53-6.12-.79-9.19C496.16,178.6,492.51,177.69,489.35,177.85Z"/><path class="cls-4" d="M502,195.15c-2.25.65-4.05,3.16-5.93,4.51-2.51,1.79-5.32,3.16-7.89,4.87s-5.35,4.74-8.28,5.78"/><path class="cls-4" d="M505.61,219.28c-5,.56-1.83,10.15.3,12.22,3.44,3.36,8.9,2.85,12.74.27,1.81-1.22,6.44-5.88,8.71-3.68,3.51,3.4-4,3.42-5.86,3.33a4.19,4.19,0,0,1,0-1.12"/><path class="cls-4" d="M440.54,141.84c0,4.06.65,8.58-.65,12.47C438,160,433,164.85,429.75,169.82a95.84,95.84,0,0,0-10.14,19.29c-2.33,6.35-7.68,18.7-4.27,25.38"/><path class="cls-4" d="M430.46,144.09c-2.25,12.64-10.58,25-15.81,36.75-2.45,5.49-5.73,10.43-8.72,15.64-4,7-7.19,14.55-8.39,22.42-.93,6-1.24,14.68,3.35,19.54,5.07,5.37,15,5.85,19.08-.42,2.41-3.7,3-7.36-1-9.73-2.93-1.7-6.09-2-8,1"/><path class="cls-4" d="M389.12,243.09c7.73,7.38,18,10.1,28.91,10,9.13-.1,10.79-9.5,10.41-16.62-.34-6.39-1.31-14.62-7.73-18.29-4.87-2.79-13.73-1.58-17.13,2.75"/><path class="cls-4" d="M416.68,144.73c-2.76,13.61-12.44,26.63-19.69,38.33-3.42,5.51-7.42,11.18-10.07,17.08-1.42,3.17-2.49,9.13-.48,12.42"/><path class="cls-4" d="M402.9,147.62c.38,5.44-6,13.45-8.71,18-2.42,4.19-4.79,8.41-7.42,12.49a130.55,130.55,0,0,0-7.4,13.35c-2.65,5.44-3.32,11.87-3.35,17.83"/><path class="cls-4" d="M389.8,149.23c.29,5.55-3.93,12.39-6.26,17.39-2.13,4.55-4.2,9.1-6.34,13.62a122.34,122.34,0,0,1-8.56,15.55c-3.47,5.22-10.36,14.21-7.75,20.62"/><path class="cls-4" d="M375.34,148.59c.39,18.11-15.73,32-21.34,48.35a168.71,168.71,0,0,0-5.65,20.89c-1.16,5.64-2.73,12.44-.85,18.09,3.38,10.13,17.15,17.3,27.2,11.65,8.59-4.83,14-13.75,11.09-23.35-1.5-5-4.31-9.46-9.84-10.86-3.27-.83-8.63-1.44-10.69,1.77"/><path class="cls-4" d="M366.94,226.7c1.19-2.6,6.33-3.26,8.57-1.62,2.94,2.14,3.46,10.79,2.33,13.92-3,8.19-13.94,3.24-16.13-2.71-1.08-2.94-2.3-10.37-.82-13.13"/><path class="cls-4" d="M341.06,155.66c-4.43,10.44-8.93,21.16-15.73,30.43-3.45,4.71-7.74,8.77-11,13.62-5.72,8.51-6,18.15-4.45,28.09,1.35,9,4.78,21.48,16.6,19.76,4.62-.68,14.09-4.47,15.26-9.61"/><path class="cls-4" d="M333.67,224.13c3,4.58,3.18,11.24-2.91,13.38-9,3.15-13.43-6.1-11.42-13.38,1.94-7,10.69-7.42,16.76-5.72,2.47.7,6.69,2,7.65,4.43"/><path class="cls-4" d="M326.61,212.56c0-6-1-12.47,1.78-18.05,3.7-7.42,10.2-13.68,14.4-21,2.35-4.09,4.52-8.4,6.86-12.44.94-1.63,2-3.24,2.17-5.13"/><path class="cls-4" d="M338,212.23c0-16,13.31-27.07,19.44-41.27,2.41-5.58,6.74-12.79,7.45-18.84"/><path class="cls-4" d="M310.82,241.17c-.22,3.46-8.48,10.32-11.43,12.21"/><path class="cls-4" d="M301.74,271.38c-3.5-2.06-7.1-4.72-11.63-3.53-1.84.48-1.36-.23-2.5,1.62-1,1.64-1.1,6.62-.6,8.44,1.49,5.4,12,7.55,16.91,5.86,8.77-3,11.06-13.31,8.95-21-2-7.31-4.11-11.51-12.48-11.69-5.21-.11-12.79,1.54-15.72,6.1-3.76,5.84-3.59,18.79-1.89,25,3.11,11.43,14.39,14.68,24.75,8.72,11.2-6.43,16.42-16.33,21.62-27.13,2.06-4.29,5.16-7.74,7.54-11.74"/><path class="cls-4" d="M316.87,267.53c.25-4.53,6.54-12.87,9.74-16.4"/><path class="cls-4" d="M314.51,254c-.12-1.59.75-3,1-4.5"/><path class="cls-4" d="M356.86,274.92c-.11-4.81-7.24-7.21-11.38-6.75-6.7.75-8.72,12.48-3.08,15.62,9.91,5.52,20.24-1.14,25.15-9.09,4.28-6.94,3.89-14,6.45-21"/><path class="cls-4" d="M363.92,268.17c1-11.32-18.23-10.39-25.64-7.8-11.83,4.14-13.14,22.93-3.09,29.41,5.18,3.34,14.8,3.84,20.57,1.64,7.86-3,11.68-9.35,15.7-16,3.28-5.46,6.15-11.24,9.69-16.56,1.38-2.07,3.26-3.93,3.6-6.41"/><path class="cls-4" d="M380.39,285.53c1.32-2.78,4.64-5.25,6.55-7.9,3.21-4.46,4.89-9.48,7-14.45,1.26-3,2.17-6.52,3.93-9.16"/><path class="cls-4" d="M396.85,284.56c-.22-5.85,1.82-11.9,3.88-17.33,1-2.76,1.67-6.55,3.18-9"/><path class="cls-4" d="M347.79,256.6c-.22-2.47,1.86-5.49,3-7.4"/><path class="cls-4" d="M359.21,258.52a6.88,6.88,0,0,1,2.36-4.5"/><path class="cls-4" d="M475.16,243.42c-.55-2.29-5.34-1.91-7.36-1.93-4.31-.06-6.53,2.16-7.36,6.4-1.15,5.94,3,9,8.49,10.49,7.42,2,12.76.05,18.69-4.29s13.76-13,21.38-14.14c4.49-.66,12,4.22,4.91,6.69-6,2.08-17.63-1.91-22.28,3.85"/><path class="cls-4" d="M527.59,149.55c0,8,1,15.63-2.29,23-1.84,4.13-4.35,7-4.78,11.8-.73,8.26,4.07,16.09,8.74,22.67,2.07,2.91,11.13,11.87,11.1,14.86-.07,7.37-6.4,10.77-12,15.13-4,3.17-2.69,6.87-2.49,11.56.18,4.33.65,9.15-4.29,9.95-2.79.46-5.91-.19-8.68-.32-5.72-.28-11.61.14-17.29-.39,3.35-1.12,7.23-2.31,10.67-3.74,6.29-2.6,11.17-2.94,17.91-2.94"/><path class="cls-4" d="M406.26,259.81c9.84,9.76,19.48,18.25,31,26a45.52,45.52,0,0,0,10.36,4.69c5.32,1.91,10.94,5,16.65,5.62,5.92.63,12.14,1.63,18.06,1.95,10.74.58,23.83-1.49,33-7.4,5.91-3.81,2.7-7.5,2.15-12.9-.3-2.95,1-3,2.11-5.32a17.87,17.87,0,0,0,1.26-8.12"/><path class="cls-4" d="M330.05,81.46c-1.37,11.94,15.43,23.28,21,33.19a56.59,56.59,0,0,1,4.91,11.52c10-1.7,20.53-2.72,30.29-6.15a110.68,110.68,0,0,1-9.27-29c-.52-3.22.07-8.12-1.22-10.64"/><path class="cls-4" d="M402.65,82.58c0,11.1-.56,22.44.09,33.51,20.87,1.85,43.22,1.74,64.23.56.76-9.67,8.91-26.22,4.18-35.19"/><path class="cls-4" d="M481.11,84.82c0,11.84-1.18,24.59.18,36.31,9.12.57,25.2,3.8,31.73-2.13,8.4-7.63,12.74-19.16,20-27.72,1.94-2.31,8.12-6.94,7.85-9.26"/><path class="cls-4" d="M296.09,84.82c14.5,16.39,23.82,34.54,34.11,53.2,1.76,3.19,5,11.84,8,13.46,5.79,3.09,21.46-4.4,27.42-5.62,12.3-2.52,24.81-5.07,37.3-6.58,26.81-3.23,53.38.11,80,3.21,13.63,1.59,27.69,3.79,40.35,9"/><path class="cls-4" d="M531.46,148.1c.42-15.78,17.49-35.45,28.36-47.24,5.11-5.53,11.53-9.93,15.55-16"/><path class="cls-4" d="M653.36,168.12c-2.17.3-6.27-7.81-7.25-9.63-2.3-4.29-4.17-8.3-4.75-13.12-.86-7.06,5.54-10,11.79-12,6.81-2.17,10.89,9.2,11.53,14.21.75,5.91-.66,9.93-4.7,14.27C657.67,164.32,655.11,167,653.36,168.12Z"/><path class="cls-4" d="M652.79,186.33c-3.79,1.6-6.59,5.36-9.79,7.8-.88.67-4.58,2.64-5,3.75s.1,1,.56,2.05c.59,1.39,3.85,3.52,4.93,4.67,1.7,1.83,3.23,3.75,4.82,5.66,2.66,3.22,5.47,6.37,7.88,9.73.75-7.59,8-14.33,12-20.61A139,139,0,0,0,652.79,186.33Z"/><path class="cls-4" d="M653.07,195.57c-1.48,2-4.45,3.33-6.2,5,2.09,3.05,5.29,5.62,7,8.89,1.24-2.13,4.52-5,4.65-7.46C658.62,199.33,655.14,196.6,653.07,195.57Z"/><path class="cls-4" d="M660.46,230.63c-1.26-3-2.07-6-.51-8.53,1.36-2.21,4-4.1,5.68-6.11,3.49-4.12,7-8.24,10.3-12.47,2-2.53,3.12-3.26,1.6-5.77-1-1.73-3.65-3.37-5.12-4.87-3.76-3.83-9.24-11.12-13.94-13.89-2.76-1.62,1.4-7,2.48-8.76,3.6-5.68,9.18-9.92,11.4-16.39,2.39-7,3.1-17.38-.64-24.09-2.45-4.39-8.1-9.12-13.14-9.46-10.2-.69-22.9,5-28.44,13.43-4.11,6.28.48,20.26,4.47,25.75,2.16,3,5.41,5.32,7.83,8.12,3.17,3.67,2.69,7.1,2.69,11.68-4.9,2.83-8.89,12.21-13.07,16a49,49,0,0,1-5.39,4c-2.52,1.7-3.62,1.88-1,4.27,4.86,4.36,10.46,7.94,15.31,12.34,1.46,1.32,4,3,5,4.86,1.42,2.75.59,6.62.59,9.65,0,2-5,5.78-6.07,7.44a60.6,60.6,0,0,0-5.86,11.41c-2,5.11-3.08,10.42-4.55,15.66-2.18,7.76-1.38,15.58,7.49,19.31,7.77,3.27,20.22,2.54,28-.66,11.31-4.67,11.64-18.25,8.71-28.29-1.88-6.4-4.15-14.65-8.65-19.71"/><path class="cls-4" d="M652.51,237.7c0,3.14-2.81,6.73-3.88,9.66-1.58,4.31-3.28,9-3.88,13.54-.66,5.07.75,11.85,5.94,14.43A13.67,13.67,0,0,0,664.43,274c6.11-4.34,6.47-10.95,3.69-17.29-2-4.59-5-8.06-7.77-12.15a13.86,13.86,0,0,1-2.44-4.65"/><path class="cls-4" d="M645.12,287.16v4.89"/><path class="cls-4" d="M660.18,286.89v3.8"/><path class="cls-4" d="M594.26,332.54c1.15-2.65,3.89-4.35,5.33-6.85,1.57-2.71,2.16-5.95,3.6-8.77,3.48-6.77,9.68-14.65,16.76-18.05,8-3.83,15-3.56,23.75-3.56-5,6.28,3.19,9.11,9.62,9,7.66-.16,14-2.7,12.78-11.37-3.84-.27-7.82.45-11.63.91-3.2.39-6.93.12-9.92.95"/><path class="cls-4" d="M661.88,306.45a29.66,29.66,0,0,1-14.09,5.94c-4.81.58-10.15-.24-14.72,1.89-4.35,2-2.57,9.13-3.18,13.35s-1.27,8.59-2.1,12.8c-.35,1.79-.66,4.67-2,6"/><path class="cls-4" d="M650.23,318.68c-6.1,0-15.33-2-12.21,7.23.76,2.26.58,1.75,3.71,1.88,2.44.1,7.3,1.08,9.66.13C654.11,326.83,652.85,323,650.23,318.68Z"/><path class="cls-4" d="M640.29,330.64c0,4.31-.48,6.73,4.71,7.82,1.51.32,5.3.68,6.5-.74,1-1.21.19-5.37-1-6.37C648.33,329.55,642.33,329.57,640.29,330.64Z"/><path class="cls-4" d="M642.28,342.87c0,2.34-.42,3.81,1.42,5.33,1.66,1.37,7,2.51,9,1.47,1.63-.87,2.21-4.35.11-6C650.52,341.86,644.31,343.14,642.28,342.87Z"/><path class="cls-4" d="M642.28,356.19c2.39,0,10.19-1.29,10,3-.25,4.59-10.31,3.1-9.67-1.36"/><path class="cls-4" d="M644,352.38c7.55,0,15.35.77,22.56-1.49,1-.3,2.91-1.44,3.87-1.24,2.36.51,3.55,4.85,3.7,6.82.49,6.35-7,7.68-12.12,8.51-2.66.43-13.12,1.58-16,0C644.16,364.09,637,352.45,644,352.38Z"/><path class="cls-4" d="M646,340.15c4.86,0,13.34,1.38,18.48-1.22,1.64-.83,4.12-3.43,6.09-3.4,3.69,0,5.6,5.6,4.94,8.57s-3.23,6.93-6.21,7.74"/><path class="cls-4" d="M671,333.63c2.17-3.41,4.34-7.55,4.48-11.61,0-1-.32-2-.31-3a17.15,17.15,0,0,1,.64-3.44,8.71,8.71,0,0,0-2.29-7.38c-3-3.54-6.69-2.86-11-2.86"/><path class="cls-4" d="M671.54,318.41c-5.9,2.21-10.18,7.9-17.33,7.34"/><path class="cls-4" d="M644.27,314.61c-2.21-.18-9.51,1.45-7.39,4.62"/><path class="cls-4" d="M653.41,368.24a8,8,0,0,1-1.42,5.43"/><path class="cls-4" d="M192.11,326.34c10.35-9.74,26.92-14,39.36-21.1,6.57-3.71,12.77-8,20.07-10.19,5-1.52,10.42-2.38,15.21-4.58,2.66-1.23,5.07-3.76,8.1-4"/><path class="cls-4" d="M270.36,291.37c0,5.77-2.82,20.53,3.51,24.31,8.23-6.31,5.31-16.51,5.79-24.92"/><path class="cls-4" d="M260.74,293.21c0,8.24.71,14.36,5.46,21.4,4.08,6.05,12.16,8.9,15.4,15.36,3.84,7.66,2.5,18.68-.82,26.26-1.59,3.61-3.64,6.89-5,10.55a2.55,2.55,0,0,1-1.23-.26"/><path class="cls-4" d="M275.49,317.14c9.05,8.31,18,18.81,14.37,31.29-1.4,4.74-3.77,9-5.39,13.65-.6,1.69-1.32,6.82-2.89,7.51"/><path class="cls-4" d="M284.15,320.2c0-5.5,2.93-11,3.22-16.68a46.73,46.73,0,0,0-.34-8.47"/><path class="cls-4" d="M268.43,325.72c.22,11.16-3.92,22.59-.95,33.58a54.75,54.75,0,0,0,8.78,17.56c3.24,4.37,8.88,8.5,11.74,12.35"/><path class="cls-4" d="M275.81,329.71c.15,3.26-1.56,6.62-2.17,9.81A86.62,86.62,0,0,0,272.27,351c-.29,5.56,1.06,7.43,4.18,11.87"/><path class="cls-4" d="M280.62,371.12c5.1,1.81,6.1,10.48,7.35,15,1.06,3.79,0,5.15,1.31,6.49,4.23,4.36,14.85-5.28,27.61-2,7.92,2.07,8.08,6.89,14.46,6.92,8.59,0,10.72-8.74,19.27-9.22,7.29-.41,8.14,5.82,18.08,9.22,14,4.78,20.58-4.77,32.53,0,9.15,3.65,6.91,9.89,18.07,17.28,11.55,7.66,18.73,4.15,28.92,9.22,14.38,7.17,19.09,23.62,22.89,36.88,7,24.47-.72,34,6,66.84A175.44,175.44,0,0,0,482,546.21"/><path class="cls-4" d="M246,299.65v47.18c0,4.93-.75,10.59.32,15.39"/><path class="cls-4" d="M256.25,369c0-23.75,1.4-48.2-.64-71.77"/><path class="cls-4" d="M226.58,311.77c-.35,9.76-.57,24.11.32,41.41,2.49,48.09,4.52,87.19,24.92,120.43,7.4,12,32.05,47.49,95.19,66.84"/><path class="cls-4" d="M327.6,305.87c48.84,0,98-1.68,146.84.43,3.78.17,12.79,1.46,15.81-1"/><path class="cls-4" d="M322.39,313.07c65.41,0,130.82-.55,196.22-.55"/><line class="cls-4" x1="325.41" y1="325.72" x2="495.65" y2="326.34"/><line class="cls-4" x1="490.25" y1="312.52" x2="490.25" y2="325.72"/><line class="cls-4" x1="474.69" y1="313.07" x2="474.69" y2="325.72"/><line class="cls-4" x1="460.25" y1="312.79" x2="460.25" y2="326.34"/><line class="cls-4" x1="444.41" y1="313.07" x2="444.41" y2="326.34"/><line class="cls-4" x1="430.46" y1="312.75" x2="430.46" y2="326.1"/><line class="cls-4" x1="413.88" y1="313.07" x2="413.88" y2="326.34"/><line class="cls-4" x1="400.37" y1="312.75" x2="400.37" y2="326.1"/><line class="cls-4" x1="384.75" y1="313.07" x2="384.75" y2="325.72"/><line class="cls-4" x1="366.6" y1="312.52" x2="366.6" y2="325.72"/><line class="cls-4" x1="353.95" y1="312.75" x2="353.95" y2="325.72"/><line class="cls-4" x1="339.12" y1="313.07" x2="339.12" y2="323.89"/><line class="cls-4" x1="325.41" y1="276.36" x2="327.6" y2="391.11"/><line class="cls-4" x1="309.16" y1="387.02" x2="307.53" y2="290.97"/><line class="cls-4" x1="526.33" y1="298.14" x2="444.41" y2="415.99"/><line class="cls-4" x1="457.86" y1="425.21" x2="537.59" y2="306.79"/><line class="cls-4" x1="463.59" y1="428.99" x2="543.41" y2="312.52"/><line class="cls-4" x1="550.63" y1="315.72" x2="469.91" y2="440.19"/><polyline class="cls-4" points="469.91 449.41 478.34 449.41 537.59 357.07"/><line class="cls-4" x1="518.61" y1="290.69" x2="695.22" y2="401"/><line class="cls-4" x1="546.13" y1="325.72" x2="695.22" y2="415.99"/><line class="cls-4" x1="537.59" y1="338.75" x2="695.22" y2="440.19"/><line class="cls-4" x1="531.1" y1="345.85" x2="695.22" y2="450.52"/><polyline class="cls-4" points="569.42 373.67 513.9 450.52 527.74 460.93 562.68 404.46"/><path class="cls-4" d="M491.62,436c0,3.67-.55,7.7.22,11.29.22,1,2.93,6.94,4.87,5.91,1.2-.65.69-5.31.69-6.27a20.82,20.82,0,0,0-2.19-9.94c-.87-1.72-1.94-5.08-4-5.62"/><path class="cls-4" d="M496,434.68c-.42.26,8.66,6.19,10.11,6.9.89.43,4.62,2.19,5.59,1.16,1.69-1.79-4.45-6.28-5.76-7A13.73,13.73,0,0,0,496,434.68Z"/><path class="cls-4" d="M495.54,431.81h8.14c1.33,0,4.95.67,6.17,0s.93-1.63.89-3.06C508.47,428.3,494.92,426,495.54,431.81Z"/><path class="cls-4" d="M512.84,405.78c0,2.51-1.62,17.57,5,15.24,2.61-.91,1-7.88.57-10a22,22,0,0,0-4-8.72c4.42,3,9.14,6.45,14.73,6.15.29-4.33-7-7.8-10.81-7,4.11,0,11.11-.88,15.91-1.14.25-3.55-5.25-5.22-8.17-4.85a10.89,10.89,0,0,0-6.59,3.34"/><path class="cls-4" d="M534.75,374c0,2-1.61,20.19,3.79,18.35,3-1,2.08-9.69,1.52-11.54C539.27,378.24,537,376.15,534.75,374Z"/><path class="cls-4" d="M536.37,373.57c1.07,2.83,14,10.8,15.9,6.72,1.79-3.81-6.62-8.37-9.38-8.92C540.65,370.93,538.19,371.15,536.37,373.57Z"/><path class="cls-4" d="M535.91,371.37c4,0,8,.1,12,0,.63-3.58-6.27-4.2-8.59-4a10.5,10.5,0,0,0-8,4.43"/><line class="cls-4" x1="326.51" y1="339" x2="495.52" y2="339"/><path class="cls-4" d="M213.3,349.5c-5.36.28-13.23-2.56-17-6.55-1.77-1.89-3.85-7.15-1.26-9.27s12-.2,14.43,1a18.94,18.94,0,0,1,8.81,10.3,19.79,19.79,0,0,1,1.09,4.44c-16.89-3-35.44-5.21-35.82-.61-.86,10.44,26.08,1.24,30.9-1.12-3.95.2-9.09,4.57-12.53,6.57-4.83,2.8-10.94,5.51-14.88,9.47-3.4,3.41-3.71,7,.7,9.94C202,383.25,210.45,360.33,213.3,349.5Z"/><path class="cls-4" d="M210.64,400.4c-6.92.11-25.93-11-13.92-18.08,8.07-4.76,15,14.19,17,20.12-4.51.41-33.43-7.52-33.28.92.15,8.8,20.8.06,25.21-1.66-1.62,4.62-16.58,20-10.87,23.65,8.69,5.54,17.81-13.62,18.5-19"/><path class="cls-4" d="M225.72,445.77c-7.21-6.77-15.76-10.27-26.11-9.28.3,5.24,20,19.23,25.15,14-5-.33-29.32-5.78-26.1,4.92,2.55,8.46,13.59-2.18,17.74-5-1.91,3.72-10.14,16.4-1.33,16.58C222.67,467.15,224.26,454.57,225.72,445.77Z"/><path class="cls-4" d="M249.66,489c-7.4-.47-14.7-3.53-22.43-3.85-4.73-.19-9.66-.1-14.37.08,3.14,7.08,27.23,13.83,35,10.44-4.53-2.49-22.66.29-22.6,7.09.1,11.05,18.23,1.94,18.59-6.06-3.45,4.7-7.43,27.85,5.3,23.91,6.81-2.11,6-13.89,6.19-18.95.25-5.95,1.3-13.56-1.68-19"/><path class="cls-4" d="M279.81,519.57c-4.13,0-29.8-2.86-28.75,3.06,1.35,7.58,27.34,5.48,32.73,1.48-4.68-1.68-25,9.18-21.71,15.8,1.82,3.68,9,4.18,11.64,2.1,3.17-2.48,4-9.56,3.87-13.24,0,7.11-.94,22,10.91,21.37C293.11,542,290.2,529.36,279.81,519.57Z"/><path class="cls-4" d="M324.15,542.47c-4.3,0-25-3.38-23.95,4.66.76,5.54,10.82,4.72,14.7,3.58,4.79-1.41,9.39-5.49,12-9.43-3.16,4.08-23.2,29.21-12.37,32.49,6.4,1.94,12.84-7.9,13.77-12.84,1-5.22.95-12.21-3.32-16.16-.69,10.66,6.67,23.84,19,23.56C347.73,559.41,336.65,548.32,324.15,542.47Z"/><path class="cls-4" d="M344.6,542.75c-10.83-2.77-74.18-20.1-108.44-81.82C207.91,410,217.42,361.31,220.5,348"/><path class="cls-4" d="M341,503.57c-9.82-3.42-46-17.3-68.68-55.32a121.18,121.18,0,0,1-15.67-79.51"/><path class="cls-4" d="M338.58,493.2c-8.22-2.64-37.16-13-56.63-42.64a100.1,100.1,0,0,1-15.67-66.84"/><path class="cls-4" d="M333.76,479.37a99.79,99.79,0,0,1-41-33.42,93.63,93.63,0,0,1-16.87-56.47"/><path class="cls-4" d="M127.72,301.89c22.09,5.95,130.13,37.38,189.17,141.75,36.72,64.93,36.85,126.91,34.94,155.58"/><path class="cls-4" d="M303.09,413.26c2.6,0,7.87-.26,11.27,0,5.86.43,8.78,5.38,10.63,10.32,4.13,11,7.39,22.39,11.57,33.38a56.22,56.22,0,0,0,4.35,9.74"/><path class="cls-4" d="M405.21,499.81c.45-.75.28-1.85.29-3,.06-4.6.57-9,1-13.61,1.33-14,1.84-32.12-5-45-3.72-7-14.5-21.66-24.73-15.86-9.3,5.27-7.61,16.76-7.89,25.46s-3.56,18.27-2.14,27.07c.57,3.52,2.16,7,3.29,10.41"/><path class="cls-4" d="M411.91,451.66c0-4-.53-7.19,4.27-8.45,7.56-2,15.58-.06,19.36,6.84,4.82,8.82,4.2,20.61,3.2,30.2-.53,5.08-1.94,13.14.44,17.88-4.67.13-12.17,1.21-16.22-.55"/><path class="cls-4" d="M365.64,424.11c-.64-3.33-5.5-5.88-8.43-7.27-4.44-2.1-9-2.43-13.32.39a24.83,24.83,0,0,0-8.8,11.34"/><path class="cls-4" d="M355.56,981c1-2,2.86-3.46,3.73-5.43-4.22-.67-8.6,3-12.2,4.76a53.59,53.59,0,0,1-12.51,4.15c-5.14,1.12-12.08,2.18-17.35,1.15-5-1-10.06-4.09-15.29-4.28,5.52,8.67,14.27,11.74,24.57,9.69C336.31,989.05,349,983.39,355.56,981Z"/><path class="cls-4" d="M314.63,975c4,.7,6.87,3.08,11.17,3s8.68-1.63,12.38-3.4c6-2.89,16.59-8.17,17.61-15.31-6.65-1.35-9.19,4.19-14.58,6.56a37.18,37.18,0,0,1-19.77,2.46c-7.11-1.12-11.82.37-17.69,4.38"/><path class="cls-4" d="M317.7,966.85c-.06-4-1.72-8.87.1-12.69,2-4.17,6.24-2.9,10.37-2.67,3.75.2,18,.27,17.72,6.25"/><path class="cls-4" d="M327.29,967.84c2.6-2.48,2.2-9.46.17-12.15-1.44-1.91-5.32-4.75-7.94-4.38-1,2.18-2.61,3.68-3,6.27-.52,3.2.28,6.13.42,9.21C320.51,966.85,324.12,967.88,327.29,967.84Z"/><path class="cls-4" d="M315.31,950.09c2.28-.56,4.17-3,6.11-4.29,2.57-1.69,5.44-3,8.07-4.58s5.54-4.55,8.5-5.48"/><path class="cls-4" d="M312.66,925.86c5-.39,2.23-10.08.19-12.23-3.31-3.48-8.79-3.16-12.73-.72-1.85,1.15-6.66,5.64-8.84,3.36-3.38-3.53,4.08-3.28,6-3.12a3.82,3.82,0,0,1,0,1.12"/><path class="cls-4" d="M374.64,1005.58c.16-4.06-.3-8.6,1.15-12.44,2.12-5.6,7.26-10.28,10.73-15.14a96,96,0,0,0,10.9-18.9c2.58-6.27,8.41-18.42,5.27-25.21"/><path class="cls-4" d="M384.81,1003.69c2.74-12.55,11.55-24.62,17.24-36.15,2.66-5.4,6.14-10.22,9.33-15.32,4.28-6.84,7.75-14.28,9.27-22.11,1.16-6,1.81-14.62-2.58-19.64-4.86-5.55-14.75-6.39-19.09-.27-2.55,3.61-3.34,7.25.65,9.76,2.87,1.81,6,2.26,8-.69"/><path class="cls-4" d="M430,906.24c-7.42-7.64-17.62-10.73-28.49-11-9.13-.23-11.16,9.1-11.06,16.23.09,6.4.74,14.65,7,18.56,4.76,3,13.66,2.07,17.23-2.14"/><path class="cls-4" d="M398.6,1003.55c3.29-13.5,13.48-26.16,21.19-37.59,3.63-5.39,7.85-10.92,10.73-16.71,1.54-3.13,2.84-9,1-12.4"/><path class="cls-4" d="M412.49,1001.15c-.17-5.44,6.57-13.22,9.41-17.72,2.59-4.1,5.12-8.23,7.9-12.21a128.86,128.86,0,0,0,7.92-13.08c2.87-5.34,3.79-11.74,4.06-17.7"/><path class="cls-4" d="M425.65,1000c-.08-5.56,4.41-12.24,6.94-17.15,2.29-4.47,4.54-9,6.86-13.39a122.53,122.53,0,0,1,9.17-15.23c3.67-5.09,10.91-13.83,8.55-20.33"/><path class="cls-4" d="M440.06,1001.18c.33-18.11,17-31.38,23.23-47.55A169.94,169.94,0,0,0,469.76,933c1.38-5.61,3.22-12.34,1.56-18.05-3-10.25-16.46-17.91-26.73-12.62-8.77,4.51-14.48,13.23-12,22.93,1.3,5.07,3.93,9.62,9.4,11.21,3.24,1,8.57,1.74,10.75-1.38"/><path class="cls-4" d="M451.53,923.42c-1.29,2.56-6.45,3-8.63,1.31-2.86-2.24-3-10.91-1.78-14,3.3-8.07,14.06-2.74,16,3.29,1,3,1.89,10.44.3,13.14"/><path class="cls-4" d="M474.6,995.34c4.83-10.27,9.76-20.82,16.91-29.84,3.64-4.58,8.08-8.49,11.53-13.22,6-8.29,6.67-17.92,5.56-27.91-1-9-3.94-21.63-15.82-20.34-4.64.51-14.26,4-15.62,9.05"/><path class="cls-4" d="M484.67,927.19c-2.81-4.69-2.74-11.35,3.44-13.27,9.07-2.83,13.18,6.58,10.89,13.78-2.22,7-11,7-17,5.11-2.44-.78-6.6-2.22-7.47-4.7"/><path class="cls-4" d="M491.27,939c-.23,6,.53,12.49-2.48,18-4,7.28-10.73,13.3-15.21,20.42-2.52,4-4.85,8.23-7.35,12.19-1,1.59-2.14,3.16-2.37,5"/><path class="cls-4" d="M479.84,938.91c-.64,16-14.36,26.58-21,40.55C456.17,985,451.55,992,450.61,998"/><path class="cls-4" d="M508.18,911c.36-3.45,8.87-10,11.9-11.79"/><path class="cls-4" d="M518.44,881.11c3.42,2.19,6.91,5,11.48,3.95,1.86-.41,1.36.28,2.56-1.52,1.07-1.61,1.37-6.59.94-8.42-1.28-5.45-11.74-8-16.67-6.46-8.89,2.72-11.58,12.9-9.77,20.62,1.74,7.38,3.66,11.65,12,12.13,5.2.3,12.84-1.08,16-5.53,4-5.7,4.32-18.65,2.87-25-2.66-11.53-13.8-15.18-24.39-9.6-11.44,6-17,15.73-22.67,26.34-2.23,4.21-5.46,7.54-8,11.46"/><path class="cls-4" d="M503.17,884.42c-.43,4.51-7,12.63-10.38,16"/><path class="cls-4" d="M505,898c.07,1.6-.86,3-1.18,4.46"/><path class="cls-4" d="M463.5,875.6c-.08,4.81,6.95,7.47,11.1,7.15,6.72-.51,9.21-12.16,3.7-15.49-9.69-5.88-20.28.41-25.49,8.17-4.56,6.78-4.45,13.87-7.28,20.75"/><path class="cls-4" d="M456.18,882.09c-1.41,11.27,17.8,11,25.31,8.72,12-3.72,14-22.44,4.24-29.28-5-3.53-14.64-4.38-20.48-2.38-8,2.71-12.05,8.92-16.33,15.46-3.49,5.33-6.58,11-10.33,16.19-1.46,2-3.41,3.82-3.85,6.28"/><path class="cls-4" d="M440.4,864.15c-1.42,2.73-4.85,5.08-6.86,7.66-3.38,4.34-5.26,9.3-7.55,14.18-1.37,2.92-2.42,6.44-4.29,9"/><path class="cls-4" d="M423.91,864.53c0,5.85-2.28,11.83-4.56,17.18-1.16,2.72-1.92,6.48-3.53,8.9"/><path class="cls-4" d="M471.84,894.24c.12,2.46-2.08,5.41-3.31,7.27"/><path class="cls-4" d="M460.5,891.9a6.89,6.89,0,0,1-2.53,4.41"/><path class="cls-4" d="M344,902.83c.46,2.31,5.27,2.09,7.28,2.19,4.31.21,6.62-1.92,7.6-6.13,1.39-5.9-2.65-9.11-8.07-10.79-7.33-2.27-12.74-.5-18.84,3.62s-14.26,12.53-21.92,13.36c-4.51.49-11.88-4.65-4.65-6.86,6.13-1.87,17.55,2.54,22.42-3.05"/><path class="cls-4" d="M288,994.74c.32-8-.38-15.65,3.19-22.9,2-4.06,4.63-6.86,5.24-11.61,1.06-8.23-3.43-16.24-7.84-23-2-3-10.65-12.27-10.51-15.25.36-7.37,6.82-10.53,12.55-14.69,4.15-3,3-6.77,2.94-11.46,0-4.34-.29-9.18,4.67-9.8,2.82-.35,5.9.41,8.67.64,5.71.49,11.61.28,17.27,1-3.4,1-7.32,2-10.82,3.35-6.38,2.37-11.27,2.54-18,2.3"/><path class="cls-4" d="M413.53,888.92c-9.44-10.1-18.74-18.94-30-27.08a45.73,45.73,0,0,0-10.17-5.05c-5.24-2.11-10.74-5.41-16.42-6.22-5.88-.84-12.06-2.06-18-2.6-10.71-1-23.88.64-33.26,6.21-6.06,3.6-3,7.4-2.66,12.82.18,3-1.07,3-2.31,5.23a17.94,17.94,0,0,0-1.58,8.08"/><path class="cls-4" d="M482.69,1069.89c1.83-11.88-14.51-23.83-19.64-33.93a56.07,56.07,0,0,1-4.45-11.68c-10.11,1.34-20.63,2-30.52,5a110.49,110.49,0,0,1,8.13,29.36c.39,3.24-.39,8.11.8,10.68"/><path class="cls-4" d="M410.18,1066.16c.44-11.1,1.45-22.41,1.23-33.49a453.12,453.12,0,0,0-64.16-2.87c-1.14,9.63-9.93,25.88-5.57,35"/><path class="cls-4" d="M331.87,1061.1c.47-11.83,2.14-24.53,1.24-36.29-9.08-.9-25-4.71-31.79,1-8.69,7.33-13.48,18.69-21,27-2,2.24-8.39,6.64-8.21,9"/><path class="cls-4" d="M516.76,1067.75c-13.85-16.9-22.45-35.38-32-54.39-1.63-3.25-4.51-12-7.49-13.74-5.66-3.3-21.62,3.63-27.62,4.64-12.39,2.07-25,4.17-37.53,5.23-26.91,2.26-53.33-2-79.79-6.08-13.56-2.08-27.52-4.79-40-10.41"/><path class="cls-4" d="M284,996.06c-1,15.75-18.87,34.79-30.2,46.18-5.32,5.35-11.91,9.51-16.17,15.48"/><path class="cls-4" d="M163,971.67c2.18-.22,6,8,6.87,9.88,2.13,4.37,3.84,8.45,4.23,13.29.58,7.08-5.94,9.82-12.25,11.57-6.89,1.92-10.53-9.58-11-14.61-.52-5.94,1.05-9.9,5.26-14.09C158.56,975.31,161.22,972.72,163,971.67Z"/><path class="cls-4" d="M164.3,953.49c3.84-1.46,6.79-5.12,10.09-7.44.9-.64,4.68-2.47,5.13-3.57s-.06-1-.48-2.07c-.54-1.4-3.71-3.65-4.74-4.84-1.63-1.89-3.08-3.86-4.59-5.83-2.54-3.31-5.22-6.56-7.5-10-1.05,7.55-8.53,14-12.81,20.16A139,139,0,0,0,164.3,953.49Z"/><path class="cls-4" d="M164.37,944.25c1.57-1.94,4.59-3.17,6.4-4.74-2-3.11-5.07-5.8-6.62-9.13-1.32,2.09-4.71,4.88-4.93,7.29C159,940.29,162.35,943.15,164.37,944.25Z"/><path class="cls-4" d="M158.37,909c1.15,3,1.84,6.07.18,8.54-1.45,2.16-4.13,4-5.92,5.91-3.65,4-7.28,8-10.79,12.08-2.09,2.46-3.24,3.15-1.82,5.71,1,1.77,3.52,3.5,4.93,5,3.6,4,8.79,11.45,13.38,14.38,2.69,1.72-1.67,7-2.82,8.66-3.82,5.56-9.56,9.59-12,16-2.67,6.9-3.79,17.25-.31,24.09,2.27,4.47,7.73,9.4,12.76,9.92,10.16,1.06,23.08-4.15,28.94-12.39,4.36-6.13.32-20.26-3.46-25.9-2-3-5.19-5.5-7.49-8.39-3-3.77-2.42-7.19-2.24-11.76,5-2.66,9.37-11.89,13.69-15.52a48,48,0,0,1,5.55-3.78c2.58-1.61,3.69-1.75,1.13-4.23-4.68-4.53-10.14-8.31-14.82-12.88-1.4-1.37-3.88-3.19-4.75-5-1.31-2.79-.33-6.64-.21-9.66.08-2,5.21-5.6,6.36-7.22a60.13,60.13,0,0,0,6.3-11.19c2.18-5,3.49-10.3,5.16-15.48,2.48-7.68,2-15.52-6.72-19.57-7.64-3.55-20.11-3.27-28-.35-11.48,4.26-12.35,17.82-9.81,28,1.62,6.47,3.57,14.79,7.87,20"/><path class="cls-4" d="M166.6,902.17c.11-3.14,3.07-6.63,4.25-9.52,1.75-4.24,3.63-8.87,4.41-13.39.86-5-.28-11.87-5.37-14.63a13.69,13.69,0,0,0-13.79.88c-6.27,4.11-6.89,10.7-4.36,17.14,1.82,4.66,4.65,8.23,7.29,12.42a14.17,14.17,0,0,1,2.26,4.74"/><path class="cls-4" d="M175.92,853l.19-4.89"/><path class="cls-4" d="M160.86,852.74l.15-3.8"/><path class="cls-4" d="M228.53,809.48c-1.26,2.62-4.06,4.21-5.6,6.66-1.67,2.66-2.39,5.88-3.94,8.63-3.74,6.65-10.25,14.3-17.45,17.44-8.12,3.54-15.17,3-23.88,2.7,5.23-6.09-2.83-9.21-9.26-9.3-7.67-.11-14.05,2.19-13.22,10.9,3.83.41,7.83-.17,11.66-.49,3.21-.27,6.93.13,9.95-.59"/><path class="cls-4" d="M159.93,833.13a29.65,29.65,0,0,1,14.32-5.43c4.82-.4,10.13.6,14.78-1.35,4.42-1.87,2.93-9,3.7-13.24s1.61-8.53,2.6-12.71c.42-1.78.85-4.65,2.23-5.9"/><path class="cls-4" d="M172.05,821.32c6.1.22,15.24,2.57,12.49-6.78-.67-2.29-.51-1.76-3.63-2-2.44-.19-7.26-1.34-9.65-.48C168.5,813,169.6,816.88,172.05,821.32Z"/><path class="cls-4" d="M182.46,809.73c.17-4.31.74-6.7-4.41-8-1.5-.37-5.26-.87-6.52.5-1.07,1.18-.4,5.36.76,6.41C174.38,810.54,180.37,810.73,182.46,809.73Z"/><path class="cls-4" d="M181,797.44c.09-2.34.57-3.79-1.21-5.38-1.61-1.42-6.92-2.76-8.92-1.78-1.66.81-2.38,4.26-.35,6C172.67,798.16,178.93,797.09,181,797.44Z"/><path class="cls-4" d="M181.47,784.13c-2.39-.08-10.24.93-9.83-3.34.43-4.58,10.43-2.73,9.61,1.7"/><path class="cls-4" d="M179.62,787.87c-7.54-.27-15.31-1.32-22.61.69-1,.26-3,1.33-3.9,1.09-2.35-.59-3.37-5-3.44-6.94-.24-6.37,7.25-7.43,12.45-8.07,2.67-.33,13.17-1.1,16,.52C179.9,776.17,186.57,788.06,179.62,787.87Z"/><path class="cls-4" d="M177.15,800c-4.86-.17-13.27-1.86-18.51.56-1.67.77-4.26,3.28-6.22,3.19-3.69-.18-5.38-5.81-4.6-8.75s3.5-6.81,6.51-7.51"/><path class="cls-4" d="M151.91,805.64c-2.3,3.33-4.64,7.39-4.94,11.45-.07,1,.24,2,.19,3a17.77,17.77,0,0,1-.77,3.41,8.66,8.66,0,0,0,2,7.46c2.85,3.65,6.57,3.11,10.93,3.26"/><path class="cls-4" d="M150.74,820.83c6-2,10.49-7.52,17.61-6.71"/><path class="cls-4" d="M177.85,825.61c2.2.26,9.56-1.11,7.57-4.35"/><path class="cls-4" d="M170.82,771.69a8,8,0,0,1,1.63-5.38"/><path class="cls-4" d="M630.14,830.14C619.43,839.5,602.7,843.21,590,849.8c-6.71,3.48-13.07,7.52-20.45,9.46-5.11,1.35-10.51,2-15.39,4-2.71,1.13-5.21,3.57-8.25,3.71"/><path class="cls-4" d="M550.58,862.26c.23-5.76,3.62-20.41-2.55-24.41-8.48,6-5.95,16.31-6.76,24.69"/><path class="cls-4" d="M560.27,860.77c.32-8.23-.15-14.37-4.62-21.58-3.84-6.19-11.8-9.33-14.79-15.9-3.53-7.79-1.76-18.76,1.86-26.21,1.72-3.55,3.91-6.75,5.43-10.37a2.73,2.73,0,0,1,1.22.31"/><path class="cls-4" d="M546.47,836.33c-8.72-8.62-17.28-19.45-13.13-31.78,1.58-4.69,4.12-8.88,5.92-13.45.66-1.67,1.59-6.77,3.18-7.4"/><path class="cls-4" d="M537.94,833c-.19,5.5-3.37,10.93-3.88,16.56a47,47,0,0,0,0,8.47"/><path class="cls-4" d="M553.85,828c.23-11.16,4.81-22.43,2.27-33.52A54.31,54.31,0,0,0,548,776.63c-3.06-4.49-8.54-8.82-11.24-12.77"/><path class="cls-4" d="M546.64,823.76c0-3.26,1.82-6.56,2.56-9.73A87.8,87.8,0,0,0,551,802.65c.51-5.56-.78-7.47-3.72-12"/><path class="cls-4" d="M543.46,782.21c-5-2-5.68-10.69-6.76-15.24-.9-3.83.2-5.14-1.05-6.53-4.06-4.51-15,4.74-27.67,1-7.84-2.34-7.8-7.17-14.17-7.43-8.59-.34-11.06,8.35-19.63,8.52-7.3.15-7.9-6.11-17.7-9.86-13.8-5.28-20.75,4-32.51-1.17-9-4-6.52-10.13-17.38-17.92-11.24-8.06-18.55-4.81-28.53-10.25C364,715.61,359.91,699,356.63,685.61c-6-24.7,2.05-34-3.4-67a176.84,176.84,0,0,0-4.09-18.6"/><path class="cls-4" d="M575.26,854.86l1.85-47.14c.2-4.92,1.17-10.55.29-15.39"/><path class="cls-4" d="M567.73,785.23c-.93,23.74-3.29,48.12-2.18,71.74"/><path class="cls-4" d="M595.13,843.45c.74-9.74,1.52-24.07,1.3-41.39-.59-48.14-1.08-87.29-20.17-121.24-6.91-12.29-30.16-48.61-92.49-70.21"/><path class="cls-4" d="M494,845.72c-48.8-1.76-98.05-1.85-146.72-5.71-3.77-.3-12.72-1.92-15.83.42"/><path class="cls-4" d="M499.44,838.71c-65.37-2.35-130.75-4.14-196.1-6.49"/><line class="cls-4" x1="496.92" y1="825.96" x2="326.83" y2="819.23"/><line class="cls-4" x1="331.68" y1="833.24" x2="332.2" y2="820.04"/><line class="cls-4" x1="347.25" y1="833.24" x2="347.74" y2="820.6"/><line class="cls-4" x1="361.67" y1="834.04" x2="362.2" y2="820.5"/><line class="cls-4" x1="377.51" y1="834.33" x2="378.03" y2="821.07"/><line class="cls-4" x1="391.43" y1="835.15" x2="391.96" y2="821.81"/><line class="cls-4" x1="408.01" y1="835.43" x2="408.53" y2="822.17"/><line class="cls-4" x1="421.5" y1="836.23" x2="422.02" y2="822.89"/><line class="cls-4" x1="437.12" y1="836.47" x2="437.62" y2="823.83"/><line class="cls-4" x1="455.24" y1="837.68" x2="455.76" y2="824.48"/><line class="cls-4" x1="467.89" y1="837.9" x2="468.4" y2="824.93"/><line class="cls-4" x1="482.72" y1="838.11" x2="483.15" y2="827.3"/><line class="cls-4" x1="494.98" y1="875.29" x2="497.3" y2="760.54"/><line class="cls-4" x1="515.56" y1="765.29" x2="513.42" y2="861.33"/><line class="cls-4" x1="295.06" y1="846.3" x2="381.55" y2="731.48"/><line class="cls-4" x1="368.47" y1="721.79" x2="284.15" y2="837.26"/><line class="cls-4" x1="362.89" y1="717.81" x2="278.56" y2="831.33"/><line class="cls-4" x1="271.46" y1="827.86" x2="357.02" y2="706.39"/><polyline class="cls-4" points="357.38 697.17 348.95 696.87 286.12 787.02"/><line class="cls-4" x1="302.48" y1="854.03" x2="130.33" y2="737.45"/><line class="cls-4" x1="276.36" y1="818.03" x2="130.91" y2="722.47"/><line class="cls-4" x1="285.4" y1="805.32" x2="131.86" y2="698.29"/><line class="cls-4" x1="292.17" y1="798.46" x2="132.27" y2="687.96"/><polyline class="cls-4" points="254.96 769.28 313.46 694.48 300.04 683.58 262.9 738.75"/><path class="cls-4" d="M335.15,709.79c.15-3.66.86-7.68.23-11.29-.18-1-2.66-7-4.63-6.08-1.23.6-.9,5.28-.94,6.24a20.8,20.8,0,0,0,1.8,10c.8,1.75,1.73,5.15,3.82,5.76"/><path class="cls-4" d="M330.72,711c.44-.25-8.41-6.49-9.83-7.26-.86-.46-4.52-2.35-5.53-1.36-1.77,1.73,4.2,6.44,5.48,7.2A13.7,13.7,0,0,0,330.72,711Z"/><path class="cls-4" d="M331.07,713.83l-8.13-.29c-1.33,0-4.91-.85-6.17-.23s-1,1.6-1,3C318,716.88,331.46,719.71,331.07,713.83Z"/><path class="cls-4" d="M312.76,739.22c.1-2.5,2.31-17.49-4.44-15.41-2.65.82-1.33,7.85-1,10a21.81,21.81,0,0,0,3.66,8.85c-4.3-3.12-8.88-6.77-14.48-6.67-.46,4.31,6.73,8.05,10.53,7.41-4.11-.14-11.14.48-15.95.57-.38,3.54,5.05,5.4,8,5.14a10.94,10.94,0,0,0,6.71-3.1"/><path class="cls-4" d="M289.62,770.18c.08-2,2.41-20.12-3.06-18.48-3.06.92-2.46,9.61-2,11.48C285.27,765.8,287.46,768,289.62,770.18Z"/><path class="cls-4" d="M288,770.56c-1-2.85-13.55-11.29-15.63-7.28-1.94,3.75,6.29,8.6,9,9.25A6.06,6.06,0,0,0,288,770.56Z"/><path class="cls-4" d="M288.36,772.78c-4-.14-8-.39-12-.4-.77,3.55,6.1,4.42,8.42,4.27a10.52,10.52,0,0,0,8.17-4.14"/><line class="cls-4" x1="496.35" y1="812.66" x2="327.45" y2="806.58"/><path class="cls-4" d="M609.88,806.23c5.37-.09,13.12,3,16.7,7.15,1.7,2,3.57,7.29.9,9.32s-12-.24-14.38-1.56a19.74,19.74,0,0,1-9.31-15.09c16.75,3.57,35.21,6.48,35.77,1.9,1.27-10.41-26-2.18-30.92,0,4-.06,9.26-4.23,12.78-6.11,4.93-2.63,11.14-5.11,15.23-8.92,3.53-3.3,4-6.85-.3-10C622.55,772.91,613.16,795.51,609.88,806.23Z"/><path class="cls-4" d="M614.54,755.46c6.92.14,25.48,11.93,13.2,18.57-8.25,4.46-14.45-14.72-16.21-20.72,4.52-.25,33.1,8.72,33.29.27.19-8.8-20.78-.8-25.26.76,1.8-4.55,17.35-19.4,11.79-23.24-8.47-5.86-18.33,13-19.24,18.34"/><path class="cls-4" d="M601.26,709.58c6.93,7,15.34,10.83,25.72,10.21-.09-5.24-19.28-19.93-24.58-14.92,5,.5,29.07,6.82,26.27-4-2.21-8.54-13.66,1.7-17.92,4.4,2.06-3.65,10.78-16,2-16.52C605.14,688.33,603.05,700.83,601.26,709.58Z"/><path class="cls-4" d="M579,665.49c7.38.74,14.55,4.06,22.27,4.65,4.71.36,9.64.45,14.35.44-2.86-7.19-26.67-14.8-34.55-11.69,4.43,2.65,22.66.53,22.86-6.27.34-11-18.14-2.6-18.81,5.39,3.63-4.57,8.52-27.57-4.36-24.09-6.89,1.86-6.53,13.66-6.93,18.72-.48,5.94-1.84,13.49.93,19.06"/><path class="cls-4" d="M550.1,633.89c4.13.15,29.67,3.93,28.85-2-1.05-7.62-27.1-6.45-32.64-2.65,4.6,1.84,25.33-8.27,22.31-15-1.68-3.74-8.81-4.5-11.56-2.51-3.25,2.36-4.38,9.4-4.38,13.08.24-7.1,1.81-22-10.06-21.74C537.69,611,540.1,623.73,550.1,633.89Z"/><path class="cls-4" d="M506.69,609.41c4.3.16,24.9,4.28,24.11-3.79-.54-5.56-10.62-5.11-14.54-4.11-4.84,1.24-9.6,5.15-12.38,9,3.31-4,24.33-28.35,13.63-32-6.32-2.17-13.14,7.43-14.26,12.33-1.19,5.18-1.43,12.17,2.68,16.27,1.11-10.62-5.73-24.06-18.09-24.22C483.79,591.64,494.43,603.12,506.69,609.41Z"/><path class="cls-4" d="M486.27,608.39c10.71,3.17,73.34,22.76,105.15,85.67,26.23,51.87,14.81,100.22,11.21,113.42"/><path class="cls-4" d="M488.34,647.68c9.67,3.77,45.31,18.94,66.46,57.74a121.11,121.11,0,0,1,12.53,80"/><path class="cls-4" d="M490.34,658.13c8.1,2.93,36.62,14.33,54.92,44.64a99.89,99.89,0,0,1,13,67.36"/><path class="cls-4" d="M494.61,672.12A99.37,99.37,0,0,1,534.24,707a93.4,93.4,0,0,1,14.64,57"/><path class="cls-4" d="M693.53,856.88c-21.84-6.74-128.57-42-183.46-148.45-34.15-66.2-31.85-128.14-28.81-156.73"/><path class="cls-4" d="M522.66,739.29c-2.6-.1-7.88,0-11.26-.4-5.84-.64-8.56-5.69-10.22-10.69-3.69-11.17-6.5-22.64-10.25-33.78a56.6,56.6,0,0,0-4-9.89"/><path class="cls-4" d="M424,649.13c-.48.73-.35,1.84-.41,3-.23,4.59-.92,9-1.54,13.57-1.88,14-3.09,32,3.26,45.12,3.45,7.11,13.64,22.16,24.1,16.73,9.49-4.93,8.25-16.47,8.88-25.15s4.27-18.13,3.2-27c-.43-3.54-1.89-7.09-2.88-10.51"/><path class="cls-4" d="M415.43,697c-.19,4,.25,7.21-4.6,8.3-7.63,1.72-15.58-.51-19.08-7.54-4.47-9-3.39-20.75-2-30.29.73-5.05,2.45-13.06.26-17.88,4.67,0,12.21-.77,16.19,1.13"/><path class="cls-4" d="M460.58,726.19c.51,3.36,5.27,6.09,8.14,7.58,4.35,2.26,8.95,2.75,13.32.09a24.89,24.89,0,0,0,9.24-11"/><rect class="cls-4" x="130.72" y="77.89" width="566" height="1011"/></svg>