<svg id="Layer_1" data-name="Layer 1" xmlns="http://www.w3.org/2000/svg" viewBox="0 0 822 1122"><defs><style>.cls-1{font-size:185.99px;}.cls-1,.cls-3,.cls-4{fill:#6f9797;}.cls-1,.cls-3{font-family:HelveticaNeue-Bold, Helvetica Neue;font-weight:700;}.cls-2{fill:#d6bd80;}.cls-3{font-size:176.44px;}</style></defs><text class="cls-1" transform="translate(42.75 164.68)">6</text><circle class="cls-2" cx="122.57" cy="54.26" r="10.01"/><circle class="cls-2" cx="102.5" cy="41.37" r="10.01"/><circle class="cls-2" cx="75.31" cy="51.38" r="10.01"/><circle class="cls-2" cx="62.43" cy="78.56" r="10.01"/><circle class="cls-2" cx="62.43" cy="104.32" r="10.01"/><circle class="cls-2" cx="65.29" cy="134.37" r="10.01"/><circle class="cls-2" cx="86.75" cy="154.4" r="10.01"/><circle class="cls-2" cx="116.8" cy="147.25" r="10.01"/><circle class="cls-2" cx="128.25" cy="120.07" r="10.01"/><circle class="cls-2" cx="116.8" cy="94.31" r="10.01"/><text class="cls-3" transform="translate(787.03 947.87) rotate(180)">6</text><circle class="cls-2" cx="711.32" cy="1052.62" r="9.5"/><circle class="cls-2" cx="730.35" cy="1064.84" r="9.5"/><circle class="cls-2" cx="756.14" cy="1055.34" r="9.5"/><circle class="cls-2" cx="768.36" cy="1029.56" r="9.5"/><circle class="cls-2" cx="768.36" cy="1005.12" r="9.5"/><circle class="cls-2" cx="765.65" cy="976.62" r="9.5"/><circle class="cls-2" cx="745.29" cy="957.62" r="9.5"/><circle class="cls-2" cx="716.78" cy="964.4" r="9.5"/><circle class="cls-2" cx="705.92" cy="990.19" r="9.5"/><circle class="cls-2" cx="716.78" cy="1014.62" r="9.5"/><ellipse class="cls-4" cx="197.5" cy="291.76" rx="102.94" ry="133.12"/><ellipse class="cls-4" cx="197.5" cy="585.76" rx="102.94" ry="133.12"/><ellipse class="cls-4" cx="197.5" cy="871.76" rx="102.94" ry="133.12"/><ellipse class="cls-4" cx="574.5" cy="871.76" rx="102.94" ry="133.12"/><ellipse class="cls-4" cx="574.5" cy="560.76" rx="102.94" ry="133.12"/><ellipse class="cls-4" cx="574.5" cy="274.76" rx="102.94" ry="133.12"/></svg>