<svg id="Layer_1" data-name="Layer 1" xmlns="http://www.w3.org/2000/svg" viewBox="0 0 822 1122"><defs><style>.cls-1{font-size:175.45px;}.cls-1,.cls-3,.cls-4{fill:#6f9797;}.cls-1,.cls-3{font-family:HelveticaNeue-Bold, Helvetica Neue;font-weight:700;}.cls-2{fill:#d6bd80;}.cls-3{font-size:168.46px;}.cls-5{fill:none;stroke:#6f9898;stroke-miterlimit:10;stroke-width:3px;}</style></defs><text class="cls-1" transform="translate(36.75 165.07)">Q</text><circle class="cls-2" cx="104.07" cy="48.97" r="9.45"/><circle class="cls-2" cx="78.43" cy="57.07" r="9.45"/><circle class="cls-2" cx="62.23" cy="80.02" r="9.45"/><circle class="cls-2" cx="59.53" cy="112.41" r="9.45"/><circle class="cls-2" cx="68.98" cy="143.46" r="9.45"/><circle class="cls-2" cx="101.38" cy="154.26" r="9.45"/><circle class="cls-2" cx="132.42" cy="144.81" r="9.45"/><circle class="cls-2" cx="149.97" cy="123.21" r="9.45"/><circle class="cls-2" cx="154.02" cy="94.87" r="9.45"/><circle class="cls-2" cx="144.57" cy="71.92" r="9.45"/><circle class="cls-2" cx="129.93" cy="55.15" r="9.45"/><text class="cls-3" transform="translate(796.78 968.54) rotate(179.87)">Q</text><circle class="cls-2" cx="732.38" cy="1080.14" r="9.07"/><circle class="cls-2" cx="756.97" cy="1072.3" r="9.07"/><circle class="cls-2" cx="772.48" cy="1050.23" r="9.07"/><circle class="cls-2" cx="775" cy="1019.12" r="9.07"/><circle class="cls-2" cx="765.86" cy="989.33" r="9.07"/><circle class="cls-2" cx="734.73" cy="979.03" r="9.07"/><circle class="cls-2" cx="704.94" cy="988.17" r="9.07"/><circle class="cls-2" cx="688.14" cy="1008.95" r="9.07"/><circle class="cls-2" cx="684.31" cy="1036.17" r="9.07"/><circle class="cls-2" cx="693.44" cy="1058.19" r="9.07"/><circle class="cls-2" cx="707.53" cy="1074.26" r="9.07"/><path class="cls-4" d="M97.25,206.84c-11.32-13.12-29.68-13.12-41,0h0c-11.32,13.12-11.32,34.39,0,47.51l7,8.14,41-47.51Z"/><path class="cls-4" d="M152.23,254.44c11.32-13.12,11.32-34.39,0-47.51h0c-11.33-13.12-29.69-13.12-41,0l-7,8,41,47.51Z"/><polygon class="cls-4" points="104.27 214.98 63.27 262.49 104.27 310 145.28 262.49 104.27 214.98"/><path class="cls-4" d="M259.6,123.67c-18-20.89-47.28-20.89-65.32,0h0c-18,20.9-18,54.79,0,75.69l11.18,13,65.32-75.69Z"/><path class="cls-4" d="M347.17,199.5c18-20.9,18-54.79,0-75.69h0c-18-20.9-47.28-20.9-65.32,0l-11.07,12.82,65.33,75.69Z"/><polygon class="cls-4" points="270.79 136.63 205.46 212.32 270.79 288 336.11 212.32 270.79 136.63"/><path class="cls-4" d="M743,927.16c11.33,13.12,29.68,13.12,41,0h0c11.32-13.12,11.32-34.39,0-47.51l-7-8.14L736,919Z"/><path class="cls-4" d="M688,879.56c-11.32,13.12-11.32,34.39,0,47.51h0c11.33,13.12,29.69,13.12,41,0l7-8.05-41-47.51Z"/><polygon class="cls-4" points="735.98 919.02 776.99 871.51 735.98 824 694.97 871.51 735.98 919.02"/><path class="cls-4" d="M590.35,984.86c15.13,17.53,39.67,17.53,54.8,0h0c15.13-17.54,15.13-46,0-63.5l-9.39-10.87L581,974Z"/><path class="cls-4" d="M516.88,921.25c-15.13,17.53-15.13,46,0,63.49h0c15.14,17.54,39.67,17.53,54.8,0L581,974l-54.81-63.49Z"/><polygon class="cls-4" points="580.97 973.98 635.76 910.49 580.96 847 526.16 910.49 580.97 973.98"/><path class="cls-5" d="M428.84,99.87c-.86,2.75-3.06,5.18-4.59,7.64-5.38,8.64-10.59,17.2-16.93,25.18-3.27,4.12-8.93,7.61-11.49,12.13-2,3.6,1.68,9.17-.47,12.15,11-15.22,28.84-27.08,33.48-45.67"/><path class="cls-5" d="M417.86,98.5c-4.13,6.45-8.2,13-14.06,18.12-2.2,1.92-5,3.22-6.52,5.66"/><path class="cls-5" d="M392.25,97.13c0,8.36-1,17.22.53,25.46.62,3.43,1.93,6.74,2.22,10.21"/><path class="cls-5" d="M438.9,104.9c2.07,8.93,12.23,18.7,18.42,25.25,7.65,8.08,17.08,15.6,27.93,18.86,5.06,1.52,16.44,3.54,21.33,1.17"/><path class="cls-5" d="M445.76,99.41c4.08,3.16,11.11,12.19,16.07,16.89,7.73,7.33,15.26,15.67,24.1,21.7,2.62,1.79,7.11,4.77,10.13,2.57"/><path class="cls-5" d="M464.05,101.24c5.38,9.3,18.08,17.35,26.64,23.55a206.76,206.76,0,0,0,18.18,11.67"/><path class="cls-5" d="M430,181.06q0,7.77,0,15.52c0,7.47-1.78,13.73-4.2,20.68-1.43,4.11-4.76,12-.81,15.88,0,3.54-.82,11.24,3.88,12.08,4.44.79,4.66-6.65,8.66-6.59,1.69,0,2.59,1.93,3.9,2.82a8.78,8.78,0,0,0,5.45,1.72c3.43-.3,4.32-3.51,6.78-4.77"/><path class="cls-5" d="M392.75,159.8c-3.77,17.36-8.18,49.65,3.16,86.5,6.6,21.45,19.63,63.76,50.63,71.72,30,7.7,70.53-18.32,92.82-66.45l-4.07-50.28"/><line class="cls-5" x1="481.86" y1="97.13" x2="666.99" y2="371.81"/><line class="cls-5" x1="508.87" y1="101.24" x2="671.21" y2="325.4"/><line class="cls-5" x1="527.18" y1="97.13" x2="675.43" y2="312.75"/><path class="cls-5" d="M203.24,472.13c-1.05,3.17,1.91,7.4,5.52,5.18,3.09-1.91-4.46-5.24-6.48-6.47"/><path class="cls-5" d="M204.21,460.86c-1.76,1.34,14.75,13.05,17.54,8.83,3-4.53-13.4-9.9-17.34-10.49C204,459.43,204.39,459.51,204.21,460.86Z"/><path class="cls-5" d="M208.72,449.59c2.37,1.09,13.51,6.44,14.7,2.88,1-2.88-8.9-7.7-11.48-7.71"/><path class="cls-5" d="M214.19,436.71c2.24.27,15.77,3.52,16.52.42s-9.08-5.86-11.36-5.57a4,4,0,0,0-4.81,4.08C215.51,436.22,213.11,437.2,214.19,436.71Z"/><path class="cls-5" d="M200.35,410.62c-2.42,1.3-4.83,5.69-4.53,8.57.52,4.93,9.35,8.41,13,11.15,4.7,3.56,9.38,7.73,14.45,10.75,1.51.9,2.65,1.57,4.48,1.42"/><path class="cls-5" d="M196.8,426.08c-2,.51-4.22,4.58-4.83,6.52-1.47,4.69,1.65,7.27,5.12,9.93,5.2,4,11.33,9,17.53,11.45,2,.8,4.52.78,6,2.37"/><path class="cls-5" d="M189.4,441.22c-7.09,6.12-.24,18.29,4.3,23.34,4,4.42,9.57,9.94,16,9.83"/><path class="cls-5" d="M186.82,460.86c-2.26,4.68-1.45,14.29,2.55,17.87,4.49,4,11.69,1.66,17.09,3.06"/><path class="cls-5" d="M241.89,440.25c.32-5.13-10.75-7.78-14.08-8.71-3.06-.85-7-1.1-8.46-4.17"/><path class="cls-5" d="M219.67,415.45c-.78,1.64-1.84,6.16-1,7.83,1,2,3.48,1.88,5.49,2.48"/><path class="cls-5" d="M280.53,435.1c-.69-1.73-2.65-3.13-4.15-4.43-6.64-5.77-13.41-11.73-20.32-17.15-6.21.22-14.08-.45-20.31-.33-4.37.08-7.51,1.77-11.57,2.91"/><path class="cls-5" d="M252.84,406.76c1.95-5.18,7.87-9.79,11.87-13.17a53.26,53.26,0,0,1,17-10.17c1.83-.65,4-1.46,5.85-1,.61,8.14-5.4,16.56-9.57,23-2.92,4.5-7.16,10.71-12.93,11.67"/><path class="cls-5" d="M221.28,405.79c-2.65-.4-5.08-3.15-7.2-4.8a96.27,96.27,0,0,0-23.53-13.61c-3.37-1.34-12.36-5.62-14.38-1.72-3.22,6.18,10.15,10.19,12.83,11.12,8.32,2.87,16.7,5.13,24.86,8.5a77.19,77.19,0,0,1,12.89,7.28"/><path class="cls-5" d="M237.38,404.18c-3.8-8.86-3.2-19.16-3.22-28.66"/><path class="cls-5" d="M226.75,346.86c-3.18-.1-9-2.37-11.42.43-1.73,2-1,6.23.1,8.27,2.34,4.17,7.59,5.7,12,5.83C243,361.87,233.42,341.17,226.75,346.86Z"/><path class="cls-5" d="M231.58,342c2.47-7.36,14.87-17.37,23.07-17.11A7.63,7.63,0,0,1,261,336.3c-1.91,3.51-6.68,5.67-10.21,7-1.84.7-5.47.66-7.06,1.6-2.11,1.24-2.88,4.51-5.33,5.85,8.69-.18,20.87-2.14,27.54,4.5,3.14,3.14,8.32,13.77,5.79,18.33-3.48,6.26-17.66,2.15-22-.4-2.85-1.7-14.77-7.38-14.72-11.61C230.52,365.71,228,372,223,376.07c-5.46,4.42-13.72,6.62-20.2,2.83-7.16-4.2-5.26-12.65.09-17.6,3.22-3,7.32-4.91,10.4-8-9.73-.39-26.57-18.31-16.53-26.8,8.85-7.49,29.61-2.82,28.35,11"/><path class="cls-5" d="M230.29,334c-1.66-4.69-3.34-13.06-.92-17.43C234.78,315.65,236.76,328,230.29,334Z"/><path class="cls-5" d="M257,346.22c1.72,0,17.6-.41,17.13,1C272.8,351.1,257.73,347.37,257,346.22Z"/><path class="cls-5" d="M235.77,366.83c0,4.85-.7,10.94,4.14,13.69C240.42,376.47,239.13,372.45,235.77,366.83Z"/><path class="cls-5" d="M202.92,355.56c-2.8,0-13.79-1.86-13.81,2.83S200.09,359.2,202.92,355.56Z"/><path class="cls-5" d="M390,245.49c-8.51,10.55-13.38,25.79-18.89,38.16C364.72,298.06,358.88,312,358,328c-.48,8.64-.78,22.42,5.32,29.29"/><path class="cls-5" d="M389.48,163.1c-4.38,2.75-7.52,8.89-10.43,13.13-14.21,20.7-28.3,42.35-37.84,65.63-11.11,27.1-13.87,54.51-13.79,83.52.05,18.05,2.82,39.77,9.71,56.75"/><path class="cls-5" d="M538.31,101.92c-.74,5.79,6.92,10.15,11.49,13.24,3.35,2.27,7.05,5.14,11.23,5.06.36,5.44-1.52,11.14,3.24,15s11.18,4.35,16.69,5.86c1.17,9.27-3.58,21.45,3.09,29.48,4,4.83,8.68,3.54,14.11,3.91-.8,9.69,13.6,17.86,22.06,15.7-5,8.1,3.62,46.92,15.32,37.75,1.57,3.43,5.76,7.41,9,9.28,2,1.2,5,1.59,6.65,3-2.81,2.15-14.52,13.18-8.93,17.59,4,3.16,14.44-4.05,17.7-5.86a87,87,0,0,0,8.38-5.38"/><path class="cls-5" d="M556.53,95.26c.49,4,5.44,6.88,9.08,7.78.12,2.62-2.34,4.65-3.12,6.94"/><path class="cls-5" d="M573.35,122.59c5.65,0,16.06-1.81,19.18,3.82,3.53,6.38,2.28,12.82,10.6,15.45"/><path class="cls-5" d="M596.47,123.29c-.62-5.87,3.77-12.77,7.71-16.82"/><path class="cls-5" d="M612.94,120.14c2.73,0,6.48-.43,8.76.35"/><path class="cls-5" d="M612.59,134.5c2.32-.16,4.64,1.32,6.3,2.45"/><path class="cls-5" d="M608.73,147.82a7.37,7.37,0,0,0,1,2.8"/><path class="cls-5" d="M600,155.52v6.66"/><path class="cls-5" d="M582.11,133.1a5,5,0,0,0,1,2.8"/><path class="cls-5" d="M614.34,179.35c3.43,0,16.06-2.06,18.86.33,4,3.38-1.77,14.18,1.81,17.88"/><path class="cls-5" d="M617.14,168.84c-3-.25-6,1.06-8.76,2.1"/><path class="cls-5" d="M624.5,162.88c-.26-2.17-1.3-4.08-1.4-6.31"/><path class="cls-5" d="M631.86,164.63c2-.43,4-.57,5.95-1"/><path class="cls-5" d="M648.67,177.24a8,8,0,0,1,4.91,1.06"/><path class="cls-5" d="M642.72,187.05c2.32,1.19,4.1,3.17,6.3,4.56"/><path class="cls-5" d="M639.56,204.92a9.08,9.08,0,0,0,.35,4.91"/><path class="cls-5" d="M625.2,210.53l.35.7"/><path class="cls-5" d="M635,219.29c4.42,0,29.43,2.09,27.64-5.6-3.75.67-9.85,10.36-10.47,14.35"/><path class="cls-5" d="M662,94.21c0,9.75-2.88,19.58-3.12,29.45-.28,11.28-1.39,24,.31,35.19,1,6.71,2,14,4,20.53,1.31,4.19,3.64,8.16,4.43,12.5-.4-1.68-.1-3.25,1.32-3.8.1,4.43.41,8.83.4,13.27,0,1.65-.81,5.91,0,7.28,1.42,2.31,5.88,1.23,5.23,5.4"/><path class="cls-5" d="M665.14,229.8c-1.87,2.37-1.43,9.44-4.21,13"/><path class="cls-5" d="M545.45,220.21a62.56,62.56,0,0,0,4.53,23c2.39,6,5.31,11.54,6.79,17.84"/><path class="cls-5" d="M559.51,237.71q0,14.88,0,29.74c0,5.78-.56,12.32,1,18"/><path class="cls-5" d="M568.43,246.63c0,14,2.87,28,2.41,41.87"/><path class="cls-5" d="M578,262.07a183.76,183.76,0,0,0,2.4,30.26c1,5.86,2.27,11.86,2.75,17.78"/><path class="cls-5" d="M588.68,274.77c0,16-2.71,36.92,6.52,51.13"/><path class="cls-5" d="M599.32,281.29c-.63,20.57,9.33,38.65,18.18,56.27"/><path class="cls-5" d="M615.1,304.28c0,12.22.27,23.1,6.42,34.14,2.75,4.94,6.68,11.68,11.76,14.58"/><path class="cls-5" d="M628.14,325.55c-.3,5.12,2.57,12,6.86,15.1"/><path class="cls-5" d="M572.55,306.34c1.45,3.43,4.8,6.19,7.37,8.78q8.85,8.91,17.77,17.76c7.92,7.9,17.57,14.85,28.7,17.16,6.59,1.37,13,1.86,19.44,4.08,2.27.78,4.75,3,7,3"/><path class="cls-5" d="M404.08,324.18c13.32-.43,26.92,1.22,40.26,1.47,16.29.31,33.64,2.12,49.75-.38,11.74-1.83,22.38-5.67,33.11-10.55,6-2.73,11.37-7.37,17.81-9.08,6-1.61,9.06-1.35,13.47-5.82"/><path class="cls-5" d="M499.81,303.59c2.17,2.85,14.23-2.31,16.92-3.13,10.71-3.24,21.32-7.24,31-12.8,4.29-2.45,11.8-5.9,15.16-9.46"/><path class="cls-5" d="M342.78,375.52c4.5-8.73,16.48-15.12,23.68-21.65a138.34,138.34,0,0,0,25.16-29.62c3.36-5.26,7.71-9.73,10.95-15"/><path class="cls-5" d="M591.75,335.08A234,234,0,0,1,379,352.83"/><path class="cls-5" d="M354.5,375.52A281.48,281.48,0,0,0,609,353.88"/><path class="cls-5" d="M404.58,347.74c-1.21,3.62-3.57,7.4-4.29,11.08"/><path class="cls-5" d="M425.32,347c-2.29,1.78-1.78,13.21-1.79,17.16"/><path class="cls-5" d="M448.91,349.17v21.44"/><path class="cls-5" d="M471.07,349.88c0,5.94-1.62,16.95,2.86,21.45"/><path class="cls-5" d="M490.73,353.1c-.09,5.61-.4,17.23,3.58,21.44"/><path class="cls-5" d="M514.68,341.66c-.49,6.45,5.65,12.57,7.15,18.59"/><path class="cls-5" d="M533.63,341.66c1,4.94,8.83,12.12,12.51,15.37"/><path class="cls-5" d="M554.36,329.5c.88,7,11,14.59,16.08,18.95"/><path class="cls-5" d="M394.22,335.94c7.42-.43,14.55,2.44,21.78,3.73,15.14,2.71,30.95,4.07,46.27,5.17,13.17,1,27.21,2,40.25-.63,10.08-2,19.89-5.92,29.81-8.66,9.68-2.67,14.46-5,20.82-13,1.72-2.16,3.22-4.84,5.14-6.66"/><path class="cls-5" d="M575.81,347.74c5.63,2.72,9.5,9.8,14.65,13.58"/><path class="cls-5" d="M561.15,358.46c3.87,5.71,8.45,11.31,12.51,16.8"/><path class="cls-5" d="M533.27,366.68c2.12,6.25,6.3,12.1,8.94,18.23"/><path class="cls-5" d="M513.25,372.4c-.24,3.39,1.11,12.16,1.43,17.52"/><path class="cls-5" d="M492.16,374.9v21.45"/><path class="cls-5" d="M456.77,378.48c-3.81-.33-5.44,5.49-.07,5,3.81-.35,4.32-6.71.79-6.8,4,0,8.14-.58,12.12-.34,1.69,4.29-5.19,10.47-8.19,7.19,2.22-.47,5.84,1.33,6.27,3.76.68,3.86-4.65,3-7.39,3s-11.77.5-13.17-2.8c-1.28-3,3.39-3.39,5.48-4-5.17,2.92-7.64-2.93-5.59-7.27,1.06-2.23,7.69-6.5,7.16-1.69-2.35,1.29-3.42-1.08-2.76-3.17,1.39-4.38,5.67-2.87,8-.74,4.37,4.06,2.82,5.92,8.09,2.87,0,2.17-2,3.64-3.57,5"/><path class="cls-5" d="M551.86,365.25c-3,4.21-2.85,9.59,3.56,6.51,5.74-2.76,4-8.34-1.42-9.73-.22-3.34,7.9-8.23,10-4.69,1.68,2.85-3.7,4.6-4.78,5.32,2.22.41,10.67,1.84,9.12,6-.75,2-5.63,1.15-7.5,1.22-.9,2.51.95,8.34-3.29,8.24-3.4-.08-3.8-4.9-.09-5.44-5.57,1.08-12.06,2-17.7.84,0-3,4.88-5.13,7.51-4.1-2.53.5-6.6-1-6-4.08a31.61,31.61,0,0,1,4.77-.12c-4.52-6.7,4.49-12,9-6.09"/><path class="cls-5" d="M410,354.17c-.41,1.94.05,4.2,2.44,3.54,1.09-1.89-.12-3.36-2.09-3.54,3.61-11.31,10.2,2.79,2.1,2.8,2.3-1,6.05-.24,6.78,2.49-3.89,1.08-7.39-.35-11.18-.39-1.56,0-3.72.57-5.11.15-1-4.31,4.16-7.84,8.1-7.12C410.58,352.63,409.65,354,410,354.17Z"/><path class="cls-5" d="M402.08,404.21c0,2.83-.62,7.6,3.89,3.77,2.15-1.82,2.24-5.58-1.39-4.84.65-2.88,6.5-7.3,8.76-4,1.71,2.49-.52,7-3.61,6.49,2.19-.42,6,1.62,4.22,4.24-1.43,2.14-7.43-.39-9.85,2.36-1.72,2-2.43,6.52-5.07,2.78-3.48-4.94,2.71-9.24,7-8.59-2.09,1.52-6.5.35-6.72-2.53,1.28,0,2.58,0,3.87-.09a6.24,6.24,0,0,1-1.39-4.58C403.06,399.3,402.08,402.78,402.08,404.21Z"/><path class="cls-5" d="M420.31,397.06v21.09"/><path class="cls-5" d="M437.47,401.71c.24,5.94,1.31,12.37,2.14,18.23"/><path class="cls-5" d="M468.57,400.28c1.6,5.68,5.42,11.07,5.36,17.16"/><path class="cls-5" d="M488.94,403.5c.52-.33,1-.24,1.4-.71,2.37,6.56,6,12.9,7.54,19.65"/><path class="cls-5" d="M517.54,391.35c2.17,6.25,5.4,11.9,6.08,18.58"/><path class="cls-5" d="M541.13,389.92c3.14,2.82,5.78,6.64,8.77,9.71,1.91,2,5,4.77,5.89,7.44"/><path class="cls-5" d="M572.23,379.91a87.73,87.73,0,0,1,18.59,16.44"/><path class="cls-5" d="M598,371.33c5.12,5.08,10.32,10.39,15.73,15"/><path class="cls-5" d="M392.43,390.63c.74,9.13-4.36,19-6.08,27.88"/><path class="cls-5" d="M367.05,386a61.5,61.5,0,0,1-5,21.45"/><path class="cls-5" d="M389.21,384.91c.47-9.88,9.8-18.59,11.8-28.24"/><path class="cls-5" d="M422.1,365.25c0,10.38.36,20.73.36,31.1"/><path class="cls-5" d="M335.49,392.59c.24,3.48,3.91,4,6.71,5.63,5.18,3,9.4,6.88,14.26,10.3,8,5.66,16.61,6.11,25.85,8.39A160.34,160.34,0,0,0,409,421.55c17.5,1.36,36.64,6.07,54.09,3.28q29.86-4.75,59.86-8.93c27.06-3.78,50.39-15.8,75.58-25.69,14.77-5.8,27.15-16.8,39.71-25.38"/><line class="cls-5" x1="398.01" y1="500.07" x2="424.39" y2="429.83"/><line class="cls-5" x1="414.39" y1="505.6" x2="435.99" y2="431.94"/><line class="cls-5" x1="425.19" y1="503.76" x2="444.43" y2="436.16"/><line class="cls-5" x1="433.67" y1="503.76" x2="453.2" y2="429.83"/><line class="cls-5" x1="444.43" y1="508.91" x2="471.25" y2="433.76"/><polyline class="cls-5" points="590.82 402.79 678.59 499.44 678.59 378.16 644.3 363.82"/><path class="cls-5" d="M561.15,409.93C572.06,419.28,674.37,530,674.37,530"/><line class="cls-5" x1="573.66" y1="407.07" x2="674.37" y2="517.09"/><path class="cls-5" d="M561.15,419.94c-8,2.41-62.1,19.67-87.19,76.34-28.31,64,5.15,122.13,8.44,127.63"/><path class="cls-5" d="M564.09,425.7C511,446.05,474.42,491.22,470.8,541.63c-2.9,40.42,16.33,71,24.26,82.28"/><path class="cls-5" d="M566,431.94c-6.26,3-71.88,36.16-81.53,106.53-5,36.21,7.24,65.18,13.71,78"/><path class="cls-5" d="M573.66,436.16c-6.9,3.26-67.32,33.09-78.6,98.09-5.49,31.65,3.08,57.75,8.44,70.67"/><path class="cls-5" d="M489.79,633.4a262.56,262.56,0,0,0,88.6-192"/><path class="cls-5" d="M569.15,585.61c-5.23-8.91-15.66,5.26-9.33,8.62,4.48,2.36,16.15-10.94,9.33-11.35"/><path class="cls-5" d="M572.27,605.85c-2.65,0-6.17-.77-8.41.78-4.42,3.07-2.39,9.64,2,10.92,3.41,1,7.31.82,8.68-2.85.76-2,.2-5.2-2.3-5.34"/><path class="cls-5" d="M589.4,610.53c-1,2.76-3.63,11.49-1.63,14,3.56,4.41,14,1,15.4-4,1.21-4.29.19-9.19-4.14-11C596.11,608.25,591.47,608.52,589.4,610.53Z"/><path class="cls-5" d="M593.29,481.66c-.77,2.65-2.11,5-2,7.81,11.79,3.85,13.43-12,4.69-11.71"/><path class="cls-5" d="M542.29,640.89c3.89,0,9.2-.44,11.29,3.78,2.4,4.86-2,7-5.87,7.76-4.66.94-10.17.7-10.15-5.48,0-3.19,1.61-4.69,4.73-4.11"/><path class="cls-5" d="M540,630.77c-.54-3.46-3.06-6.37-3.1-10,7.88-1.24,17.57-2,25.24.39,3,.94,9.69,3.42,10.15,6.95-5.81,2.48-14,1.8-18.22,7.35,3.32.19,7-.6,10.23-1,1.61-.21,6.92-1.83,8.52-.9,2.91,1.7.92,12.32.1,15.42-1.11,4.14-4.52,15.54-10.16,16.07-5,.47-8-7.32-8.39-11.38,1.43,4.5,10.44,14.31,7.4,18.86-2.05,3.07-13.49,1.95-16.28,1.95-5.5,0-10.68.32-16.09.78-.74-3.74,7.87-11.33,11.31-13.3-5,1.88-9.56,8.19-15.1,8.25-5,0-6-6.16-7.86-10.59-1-2.33-3.67-6.72-2.69-9.37.89-2.45.46-1.9,3.79-2.47,3.65-.63,7.66-.24,11.36-.14-4.48-1.35-15.67-6.16-13.07-11.77,1.82-3.91,14.15-13.36,19.78-12.83C537.68,625.69,537.22,629.07,540,630.77Z"/><path class="cls-5" d="M594.46,551.74c-6.61.58-16.71-4.41-21.74-8.21-8.41-6.34,0-9.57,5.93-14.4,7.7-6.32,15.93-14.9,26.64-14.36a131.15,131.15,0,0,0,7,21.65c.4-4.45-2.47-18.85,2.18-22,4.44-3.05,16.84,6.57,20,9.19s6.87,5.94,8.3,9.82c-4.59,4.35-12.91,6.92-18.93,8.24,11.19-.2,21.4-4.87,32.48-4.69,1,11-4.16,25.81-9.82,35-1.61,2.62-4.31,5.8-7.12,7-2.73-3.88-5.24-7.89-8.4-11.44-1.78-2-5.33-4.05-5-7.07,1.61,4.45,12.06,14.87,8.95,20-2.51,4.16-15.34,2.77-18.74,2.76-4.65,0-9.69-.47-14.26.39-.7-5.59,7.16-15.28,11.31-18.95-4.77,5.35-13.28,8.94-19.71,11.84-1.65.75-6,3.83-8,3.28-3.95-1.12-6.81-12.79-8.2-16.18a15.41,15.41,0,0,1-1.6-6.89c7-2.24,19.17-1.2,25.36,2.36"/><path class="cls-5" d="M615.1,545.9c.7-3.44-4-5.44-6.72-4-5.43,2.82-3.24,12.65,1.82,14.21,1.94.6,9.6,1.16,10-2.34.5-4-9.18-6.18-11.76-7.07"/><polyline class="cls-5" points="493.29 640.89 545.91 696.66 658.32 588.61 661.48 537.41"/><polyline class="cls-5" points="486.62 650.27 552.02 713.56 671.21 597.54"/><line class="cls-5" x1="590.82" y1="462.08" x2="656.42" y2="532.38"/><path class="cls-5" d="M587,465.13a259.51,259.51,0,0,1-87.75,171.43"/><line class="cls-5" x1="324.19" y1="393.96" x2="172.3" y2="538.47"/><polyline class="cls-5" points="299.53 424.14 364.55 505.6 358.45 416.45"/><polyline class="cls-5" points="370.04 438.46 406.2 441.43 386.35 498.1 370.04 498.1"/><line class="cls-5" x1="372.97" y1="508.91" x2="462.67" y2="513.79"/><path class="cls-5" d="M418.14,531.89c-7.26,0-9.78-1-11,7.64-.46,3.19-1.38,9.87,3.59,10.3,3.19.28,3.77-2.91,5.54-4.75.31,3.9-1.32,14.22,5.39,13.7,4.59-.36,5.71-8.48,6.12-12.12,1.95,3,5.74,6.68,9.05,2.86,3.66-4.22-.42-9.87-2.9-13.19,4.24-.27,10.33.89,8.43-5.71-.92-3.2-9.95-10.78-11.3-5,3.53-1.18,3.62-5.71,1-7.59-4.25-3.06-9.45.58-13.5,1,.9-5.47-5.28-2.87-6.53.61-2.7,7.52,3.65,7.81,10.16,7.48,7.21-.37,6.72,10,1.12,9.5-.06-1.79-.41-4.18.72-5.46"/><path class="cls-5" d="M375.91,554.65c2.55-2,13.44-.36,16.59-.36h8.75"/><path class="cls-5" d="M436.14,552.45H452.3"/><path class="cls-5" d="M386.93,520.87c-1.32,4.58-2.59,10.52-1.39,15.29,1.32,5.2,8.31,7.29,12,3.34C402.47,534.17,394.86,518.4,386.93,520.87Z"/><path class="cls-5" d="M453.4,526.74c-4.22,1-2.44,7.64,1.59,8.1,5.42.62,4.14-9.16,1.71-12.14"/><path class="cls-5" d="M477.07,349.83a43.63,43.63,0,0,1,11.31,9.54"/><path class="cls-5" d="M475.06,355.61c3.12,4.11,7.65,7,10.8,11.05"/><path class="cls-5" d="M470.54,357.36c-.42,3.55,5.69,9.1,8,11.56"/><path class="cls-5" d="M520.29,349.32c-.51-3.27,3-6.84,4.53-9.46a31,31,0,0,1,3-4.86"/><path class="cls-5" d="M526.06,356.86c0-3.81,3.63-8,6.29-10.55"/><path class="cls-5" d="M532.35,361.64c-.18-4.19,2.49-8.26,4-12.06"/><path class="cls-5" d="M428.07,276.47c3.55-2.38,8.67-5.92,13.2-5.54,2.91.24,4.19,2.46,7.31,2.46,4.41,0,8.67-2.73,13-3.47,5.28-.89,10.26-.19,15.44.09-3,0-3.29,5.27-6.24,5.94-2.43.55-4.85.63-7.28,1.23a72.72,72.72,0,0,1-11.46,1.92c-4.11.35-9.11.77-13.2.15C436.43,278.89,430.51,276.55,428.07,276.47Z"/><path class="cls-5" d="M433.61,288.79c5.53,2.14,13,.91,18.82.93A22.7,22.7,0,0,0,464.1,287"/><path class="cls-5" d="M452.09,173.92c9.21-2.63,17.21-9.09,27.17-9.24,4.34-.07,8.39,1.65,12.8,1.25,3.15-.28,7.21-2.07,10.39-1.2a5.5,5.5,0,0,1,3.84,6.28c-.66,3.31-3.39,2.57-6.91,2.6-6.27.07-12.36,0-18.43-1.36-4.18-.93-8.08-.35-12.19.63C465.29,173.7,453.91,177.91,452.09,173.92Z"/><path class="cls-5" d="M426,178.63c-8.63,0-28.31-2.59-28.36,6,4.73.61,11-2.8,16.22-3C416.5,181.56,424.56,182.44,426,178.63Z"/><path class="cls-5" d="M465.25,193c8-12.28,30.28-13.13,41.27-5.55"/><path class="cls-5" d="M508.87,194.21c-9.38-5.43-20.61-5.28-30.26-2.83-4.17,1.06-8.78,2.09-12,5.22-1.9,1.85-2.39,1.2-.12,4.25,7.56,10.14,19.23,11,29.07,6.18C501.15,204.31,502.63,196.83,508.87,194.21Z"/><path class="cls-5" d="M478,192.71c.5,2.26-.9,6.18.61,8.68,2.75,4.56,14,5.55,18.26,3.51,3.13-1.5,6.32-6.82,5.15-10.48-.6-1.88-1.7-2.25-3.7-2.95"/><path class="cls-5" d="M485.66,191.78c0,2-.69,5.48.56,6.94,1,1.17,7.12,2.35,8.4,1.35,2.71-2.11-.23-9.67-3.42-9.52"/><path class="cls-5" d="M420.67,197c-5.1-.61-9.89-1.55-15.08-1.54-2.9,0-5.56-.42-8.12,1-1.6.86-2.91,2.46-4.21,3.66"/><path class="cls-5" d="M421.75,205.6c-1.9.81-6.24-2.72-8.28-3.64-4.07-1.84-7.68-2.13-11.76-.38a48.5,48.5,0,0,0-8.42,4.4c1.65,4,12.34,12.21,17.35,11.37C413.73,216.83,417.87,211.23,421.75,205.6Z"/><path class="cls-5" d="M407.43,201.94c-2.57,2-4.81,6.43-2.29,8.63,1.49,1.3,7.69,3.44,8.76,1.23"/><path class="cls-5" d="M412.05,202.87c-1.73,5.52,3.21,8.15,6.16,2.46"/><path class="cls-5" d="M422.27,1040.34c.84-2.75,3-5.19,4.57-7.66,5.36-8.64,10.55-17.22,16.87-25.21,3.26-4.13,8.91-7.63,11.46-12.16,2-3.6-1.7-9.17.44-12.15-11,15.25-28.78,27.15-33.37,45.74"/><path class="cls-5" d="M433.25,1041.68c4.11-6.46,8.16-13,14-18.15,2.2-1.93,5-3.24,6.51-5.68"/><path class="cls-5" d="M458.86,1043c0-8.35.92-17.22-.59-25.46-.63-3.43-1.95-6.73-2.24-10.2"/><path class="cls-5" d="M412.19,1035.33c-2.09-8.93-12.27-18.67-18.47-25.2-7.67-8.07-17.12-15.56-28-18.8-5.07-1.51-16.45-3.5-21.34-1.12"/><path class="cls-5" d="M405.35,1040.83c-4.09-3.14-11.14-12.16-16.12-16.85-7.74-7.31-15.29-15.63-24.15-21.64-2.62-1.78-7.11-4.76-10.13-2.55"/><path class="cls-5" d="M387.05,1039.05c-5.4-9.29-18.11-17.31-26.7-23.48a204.35,204.35,0,0,0-18.2-11.63"/><path class="cls-5" d="M420.87,959.15q0-7.77-.05-15.52c0-7.47,1.75-13.74,4.15-20.69,1.42-4.11,4.73-12,.77-15.88,0-3.54.79-11.25-3.91-12.07-4.44-.78-4.64,6.65-8.64,6.61-1.69,0-2.59-1.92-3.91-2.81a8.81,8.81,0,0,0-5.45-1.71c-3.44.31-4.31,3.52-6.77,4.78"/><path class="cls-5" d="M458.22,980.32c3.72-17.37,8.06-49.67-3.37-86.49-6.65-21.43-19.77-63.71-50.8-71.6-30-7.63-70.48,18.49-92.66,66.67l4.19,50.27"/><line class="cls-5" x1="369.25" y1="1043.2" x2="183.48" y2="768.95"/><line class="cls-5" x1="342.23" y1="1039.15" x2="179.37" y2="815.37"/><line class="cls-5" x1="323.93" y1="1043.31" x2="175.18" y2="828.04"/><path class="cls-5" d="M647,667.55c1-3.17-1.93-7.4-5.53-5.16-3.09,1.91,4.47,5.22,6.5,6.44"/><path class="cls-5" d="M646.05,678.82c1.76-1.34-14.79-13-17.57-8.78-3,4.53,13.43,9.86,17.37,10.44C646.27,680.25,645.87,680.17,646.05,678.82Z"/><path class="cls-5" d="M641.56,690.1c-2.37-1.08-13.52-6.4-14.7-2.85-1,2.89,8.91,7.69,11.5,7.69"/><path class="cls-5" d="M636.12,703c-2.23-.27-15.78-3.49-16.52-.39s9.09,5.84,11.38,5.55a4,4,0,0,0,4.79-4.09C634.81,703.49,637.2,702.5,636.12,703Z"/><path class="cls-5" d="M650,729.05c2.41-1.3,4.81-5.7,4.5-8.58-.53-4.93-9.37-8.38-13-11.12-4.7-3.55-9.39-7.71-14.46-10.72-1.52-.9-2.66-1.56-4.49-1.4"/><path class="cls-5" d="M653.53,713.58c2-.51,4.22-4.59,4.83-6.53,1.45-4.69-1.68-7.26-5.15-9.92-5.21-4-11.35-9-17.55-11.41-2-.79-4.53-.76-6-2.35"/><path class="cls-5" d="M660.91,698.43c7.07-6.14.19-18.29-4.36-23.33-4-4.41-9.6-9.92-16-9.79"/><path class="cls-5" d="M663.44,678.78c2.25-4.68,1.41-14.29-2.59-17.87-4.5-4-11.7-1.62-17.11-3"/><path class="cls-5" d="M608.42,699.52c-.31,5.13,10.76,7.76,14.1,8.68,3.06.84,7,1.08,8.47,4.15"/><path class="cls-5" d="M630.7,724.26c.77-1.63,1.82-6.16,1-7.82-1-2-3.49-1.88-5.5-2.47"/><path class="cls-5" d="M569.79,704.76c.7,1.73,2.65,3.12,4.16,4.42,6.65,5.75,13.43,11.7,20.36,17.1,6.21-.24,14.08.42,20.31.29,4.37-.09,7.5-1.79,11.57-2.94"/><path class="cls-5" d="M597.55,733c-1.94,5.19-7.85,9.81-11.85,13.2a53.33,53.33,0,0,1-17,10.22c-1.83.64-4,1.46-5.85,1-.63-8.14,5.36-16.58,9.52-23,2.91-4.51,7.13-10.73,12.9-11.71"/><path class="cls-5" d="M629.11,733.93c2.65.4,5.08,3.14,7.21,4.78a95.61,95.61,0,0,0,23.56,13.55c3.37,1.34,12.37,5.6,14.39,1.69,3.19-6.19-10.18-10.16-12.87-11.08-8.32-2.86-16.7-5.09-24.87-8.44a78,78,0,0,1-12.91-7.25"/><path class="cls-5" d="M613,735.57c3.82,8.86,3.24,19.16,3.29,28.66"/><path class="cls-5" d="M623.77,792.87c3.18.09,9,2.35,11.42-.45,1.73-2,1-6.24-.11-8.27-2.35-4.16-7.61-5.68-12.05-5.81C607.51,777.9,617.12,798.58,623.77,792.87Z"/><path class="cls-5" d="M619,797.71c-2.44,7.37-14.82,17.41-23,17.17a7.63,7.63,0,0,1-6.4-11.37c1.9-3.51,6.67-5.68,10.19-7,1.84-.7,5.47-.67,7.06-1.62,2.1-1.24,2.87-4.51,5.32-5.86-8.7.2-20.87,2.19-27.55-4.44-3.16-3.13-8.36-13.74-5.84-18.31,3.47-6.27,17.66-2.19,22,.35,2.86,1.69,14.79,7.34,14.74,11.57,4.56-4.14,7-10.47,12-14.53,5.45-4.43,13.71-6.65,20.19-2.87,7.18,4.18,5.3,12.63,0,17.6-3.21,3-7.31,4.92-10.38,8,9.73.37,26.61,18.25,16.59,26.77-8.83,7.5-29.6,2.88-28.38-10.92"/><path class="cls-5" d="M620.26,805.76c1.67,4.68,3.37,13,1,17.43C615.82,824.1,613.81,811.75,620.26,805.76Z"/><path class="cls-5" d="M593.5,793.59c-1.71,0-17.59.45-17.12-.93C577.72,788.74,592.79,792.44,593.5,793.59Z"/><path class="cls-5" d="M614.71,772.93c0-4.86.67-10.95-4.17-13.68C610,763.29,611.34,767.31,614.71,772.93Z"/><path class="cls-5" d="M647.58,784.12c2.8,0,13.8,1.83,13.81-2.86S650.4,780.47,647.58,784.12Z"/><path class="cls-5" d="M460.72,894.63c8.49-10.58,13.32-25.82,18.81-38.21,6.39-14.42,12.2-28.42,13-44.34.46-8.64.72-22.42-5.39-29.27"/><path class="cls-5" d="M461.48,977c4.37-2.76,7.5-8.91,10.4-13.16,14.15-20.74,28.2-42.42,37.68-65.72,11-27.12,13.74-54.55,13.59-83.55-.08-18.05-2.91-39.76-9.84-56.73"/><path class="cls-5" d="M312.79,1038.54c.73-5.79-7-10.13-11.52-13.21-3.36-2.26-7.06-5.12-11.24-5-.37-5.44,1.49-11.14-3.28-15s-11.19-4.32-16.7-5.81c-1.2-9.28,3.52-21.46-3.16-29.48-4-4.82-8.69-3.51-14.12-3.88.77-9.69-13.64-17.82-22.09-15.64,5-8.11-3.74-46.92-15.41-37.72-1.58-3.42-5.78-7.39-9-9.26-2-1.19-5.06-1.58-6.65-3,2.8-2.16,14.49-13.22,8.88-17.61-4-3.15-14.42,4.08-17.69,5.9a86.13,86.13,0,0,0-8.36,5.4"/><path class="cls-5" d="M294.58,1045.24c-.5-4-5.45-6.86-9.09-7.75-.13-2.63,2.33-4.66,3.1-7"/><path class="cls-5" d="M277.7,1018c-5.65,0-16.06,1.84-19.19-3.78-3.55-6.37-2.3-12.81-10.63-15.42"/><path class="cls-5" d="M254.58,1017.31c.63,5.87-3.74,12.78-7.67,16.83"/><path class="cls-5" d="M238.12,1020.5c-2.73,0-6.49.45-8.76-.33"/><path class="cls-5" d="M238.44,1006.14c-2.32.16-4.65-1.31-6.31-2.44"/><path class="cls-5" d="M242.26,992.81a7.39,7.39,0,0,0-1.06-2.8"/><path class="cls-5" d="M251,985.09l0-6.66"/><path class="cls-5" d="M268.92,1007.47a5,5,0,0,0-1.06-2.8"/><path class="cls-5" d="M236.58,961.3c-3.43,0-16.06,2.09-18.87-.3-4-3.37,1.75-14.18-1.84-17.87"/><path class="cls-5" d="M233.8,971.81c3,.24,6-1.07,8.76-2.12"/><path class="cls-5" d="M226.46,977.79c.26,2.17,1.3,4.07,1.42,6.3"/><path class="cls-5" d="M219.1,976.05c-2,.44-4,.58-6,1.07"/><path class="cls-5" d="M202.25,963.48a7.94,7.94,0,0,1-4.91-1"/><path class="cls-5" d="M208.18,953.66c-2.32-1.19-4.11-3.16-6.31-4.54"/><path class="cls-5" d="M211.3,935.78c.17-1.62.36-3.41-.37-4.9"/><path class="cls-5" d="M225.65,930.14l-.36-.7"/><path class="cls-5" d="M215.82,921.41c-4.42,0-29.44-2-27.63,5.65,3.75-.68,9.82-10.38,10.44-14.37"/><path class="cls-5" d="M189.13,1046.54c0-9.75,2.83-19.58,3.05-29.45.25-11.28,1.33-24-.4-35.19-1-6.71-2-14-4.06-20.52-1.31-4.19-3.65-8.16-4.45-12.5.4,1.69.11,3.26-1.31,3.81-.11-4.43-.43-8.83-.43-13.27,0-1.65.79-5.91-.05-7.28-1.42-2.3-5.89-1.22-5.24-5.39"/><path class="cls-5" d="M185.66,911c1.87-2.38,1.41-9.45,4.18-13"/><path class="cls-5" d="M305.38,920.27a63,63,0,0,0-4.59-23c-2.41-6-5.34-11.53-6.83-17.82"/><path class="cls-5" d="M291.27,902.8c0-9.91,0-19.82-.06-29.74,0-5.77.52-12.32-1.08-17.95"/><path class="cls-5" d="M282.33,893.9c-.06-13.95-2.94-28-2.5-41.85"/><path class="cls-5" d="M272.68,878.48a183.71,183.71,0,0,0-2.47-30.25c-1-5.85-2.29-11.85-2.79-17.77"/><path class="cls-5" d="M262,865.81c0-16,2.62-36.92-6.64-51.11"/><path class="cls-5" d="M251.36,859.32c.58-20.57-9.42-38.63-18.31-56.23"/><path class="cls-5" d="M235.53,836.37c-.05-12.23-.33-23.11-6.5-34.13-2.77-4.93-6.72-11.67-11.8-14.55"/><path class="cls-5" d="M222.44,815.12c.28-5.12-2.6-12-6.9-15.08"/><path class="cls-5" d="M278.07,834.21c-1.46-3.43-4.81-6.18-7.39-8.77q-8.88-8.88-17.81-17.72c-7.94-7.87-17.6-14.8-28.74-17.09-6.6-1.35-13-1.83-19.45-4-2.27-.78-4.76-3-7-3"/><path class="cls-5" d="M446.5,816c-13.32.46-26.92-1.16-40.26-1.38-16.29-.27-33.65-2-49.75.5-11.74,1.86-22.37,5.72-33.09,10.63-6,2.74-11.35,7.39-17.79,9.12-6,1.62-9.06,1.37-13.46,5.85"/><path class="cls-5" d="M350.82,836.78c-2.18-2.84-14.23,2.35-16.92,3.17-10.7,3.27-21.3,7.3-31,12.88-4.28,2.46-11.78,5.92-15.14,9.49"/><path class="cls-5" d="M507.68,764.48c-4.48,8.75-16.44,15.16-23.63,21.71A138.64,138.64,0,0,0,459,815.87c-3.34,5.26-7.68,9.74-10.91,15"/><path class="cls-5" d="M258.8,805.51a234,234,0,0,1,212.68-18.25"/><path class="cls-5" d="M496,764.51a281.47,281.47,0,0,0-254.43,22.24"/><path class="cls-5" d="M445.94,792.42c1.2-3.63,3.56-7.41,4.26-11.1"/><path class="cls-5" d="M425.21,793.18C427.49,791.4,427,780,427,776"/><path class="cls-5" d="M401.61,791.09l-.05-21.45"/><path class="cls-5" d="M379.45,790.43c0-5.95,1.58-17-2.91-21.44"/><path class="cls-5" d="M359.78,787.26c.08-5.62.36-17.24-3.63-21.44"/><path class="cls-5" d="M335.86,798.75c.48-6.45-5.68-12.55-7.2-18.57"/><path class="cls-5" d="M316.91,798.79c-1-4.93-8.86-12.09-12.55-15.34"/><path class="cls-5" d="M296.21,811c-.9-7-11-14.56-16.13-18.91"/><path class="cls-5" d="M456.33,804.19c-7.42.45-14.55-2.41-21.79-3.68-15.15-2.68-31-4-46.28-5.07-13.17-.92-27.21-1.92-40.25.73-10.08,2.05-19.88,6-29.79,8.73-9.67,2.69-14.45,5-20.78,13-1.72,2.17-3.21,4.85-5.13,6.67"/><path class="cls-5" d="M274.72,792.82c-5.64-2.71-9.53-9.79-14.69-13.55"/><path class="cls-5" d="M289.35,782.06c-3.89-5.7-8.48-11.29-12.55-16.77"/><path class="cls-5" d="M317.21,773.77c-2.14-6.24-6.33-12.08-9-18.21"/><path class="cls-5" d="M337.21,768c.23-3.4-1.13-12.16-1.47-17.52"/><path class="cls-5" d="M358.3,765.45,358.25,744"/><path class="cls-5" d="M393.68,761.8c3.81.31,5.42-5.51.06-5-3.81.36-4.3,6.72-.77,6.81-4,0-8.15.6-12.13.36-1.69-4.28,5.17-10.48,8.18-7.21-2.22.48-5.85-1.31-6.28-3.74-.69-3.86,4.64-3,7.38-3s11.77-.53,13.18,2.77c1.29,3-3.38,3.39-5.47,4,5.16-2.94,7.65,2.9,5.6,7.25-1.05,2.24-7.66,6.52-7.15,1.7,2.35-1.29,3.42,1.07,2.76,3.17-1.37,4.39-5.66,2.89-8,.76-4.39-4-2.83-5.92-8.1-2.85,0-2.17,2-3.65,3.56-5"/><path class="cls-5" d="M298.63,775.25c2.95-4.22,2.82-9.6-3.59-6.5-5.72,2.77-3.93,8.34,1.45,9.72.23,3.34-7.88,8.25-10,4.72-1.68-2.85,3.69-4.62,4.76-5.34-2.21-.4-10.67-1.81-9.12-6,.74-2,5.62-1.17,7.49-1.24.89-2.52-1-8.34,3.27-8.25,3.4.07,3.81,4.89.1,5.44,5.57-1.1,12.06-2,17.7-.88,0,3-4.87,5.14-7.5,4.12,2.53-.51,6.61,1,6,4.06a30.26,30.26,0,0,1-4.76.13c4.53,6.7-4.47,12-9,6.11"/><path class="cls-5" d="M440.56,786c.4-1.93-.06-4.19-2.45-3.53-1.09,1.89.13,3.36,2.09,3.53-3.58,11.32-10.2-2.77-2.1-2.79-2.29,1-6.05.25-6.78-2.47,3.88-1.1,7.38.33,11.17.36,1.57,0,3.72-.58,5.12-.16,1,4.3-4.15,7.84-8.09,7.13C439.93,787.53,440.85,786.17,440.56,786Z"/><path class="cls-5" d="M448.31,735.93c0-2.83.6-7.59-3.9-3.76-2.14,1.83-2.23,5.58,1.4,4.84-.64,2.89-6.48,7.32-8.75,4-1.71-2.48.51-7,3.6-6.5-2.19.43-6-1.6-4.23-4.22,1.43-2.15,7.43.36,9.85-2.39,1.71-2,2.4-6.52,5.05-2.79,3.5,4.93-2.69,9.25-7,8.6,2.1-1.52,6.51-.36,6.73,2.52-1.28,0-2.58.06-3.87.1a6.18,6.18,0,0,1,1.4,4.57C447.34,740.85,448.31,737.36,448.31,735.93Z"/><path class="cls-5" d="M430.1,743.12,430.05,722"/><path class="cls-5" d="M412.93,738.52c-.26-5.94-1.35-12.37-2.19-18.23"/><path class="cls-5" d="M381.83,740c-1.62-5.68-5.45-11-5.4-17.15"/><path class="cls-5" d="M361.45,736.85c-.52.33-1,.25-1.39.71-2.39-6.55-6-12.88-7.59-19.63"/><path class="cls-5" d="M332.88,749.07c-2.18-6.25-5.42-11.89-6.12-18.57"/><path class="cls-5" d="M309.29,750.56c-3.15-2.83-5.79-6.64-8.78-9.7-1.92-2-5.05-4.75-5.91-7.43"/><path class="cls-5" d="M278.22,760.64a87.75,87.75,0,0,1-18.63-16.4"/><path class="cls-5" d="M252.5,769.28c-5.13-5.07-10.35-10.37-15.76-15"/><path class="cls-5" d="M458,749.49c-.76-9.13,4.32-19,6-27.89"/><path class="cls-5" d="M483.38,754.08a61.13,61.13,0,0,1,5-21.46"/><path class="cls-5" d="M461.22,755.2c-.44,9.88-9.75,18.62-11.73,28.27"/><path class="cls-5" d="M428.38,774.94c0-10.38-.41-20.73-.43-31.1"/><path class="cls-5" d="M514.93,747.4c-.26-3.48-3.92-4-6.73-5.62-5.18-3-9.42-6.85-14.28-10.27-8-5.63-16.62-6.06-25.87-8.32a159.31,159.31,0,0,0-26.65-4.57c-17.51-1.33-36.66-6-54.1-3.17q-29.85,4.83-59.84,9.07c-27,3.86-50.35,15.92-75.51,25.88-14.77,5.83-27.11,16.86-39.66,25.47"/><line class="cls-5" x1="452.15" y1="640.06" x2="425.94" y2="710.37"/><line class="cls-5" x1="435.76" y1="634.58" x2="414.33" y2="708.29"/><line class="cls-5" x1="424.96" y1="636.44" x2="405.88" y2="704.09"/><line class="cls-5" x1="416.48" y1="636.46" x2="397.13" y2="710.44"/><line class="cls-5" x1="405.71" y1="631.33" x2="379.07" y2="706.54"/><polyline class="cls-5" points="259.57 737.8 171.58 641.35 171.86 762.63 206.19 776.89"/><path class="cls-5" d="M289.23,730.59c-10.93-9.33-113.51-119.84-113.51-119.84"/><line class="cls-5" x1="276.72" y1="733.47" x2="175.75" y2="623.7"/><path class="cls-5" d="M289.2,720.58c8-2.43,62.06-19.81,87-76.54,28.17-64-5.44-122.13-8.74-127.61"/><path class="cls-5" d="M286.25,714.83c53-20.48,89.52-65.74,93-116.16,2.8-40.42-16.5-71-24.46-82.21"/><path class="cls-5" d="M284.29,708.59c6.25-3,71.79-36.33,81.27-106.72,4.89-36.23-7.39-65.16-13.89-78"/><path class="cls-5" d="M276.65,704.39c6.89-3.28,67.24-33.25,78.38-98.28,5.42-31.66-3.22-57.74-8.61-70.65"/><path class="cls-5" d="M360.07,507a262.51,262.51,0,0,0-88.15,192.18"/><path class="cls-5" d="M280.81,554.93c5.26,8.89,15.66-5.3,9.31-8.64-4.48-2.36-16.12,11-9.3,11.36"/><path class="cls-5" d="M277.65,534.69c2.65,0,6.17.76,8.4-.79,4.42-3.08,2.37-9.65-2.05-10.92-3.41-1-7.31-.8-8.67,2.87-.75,2-.19,5.2,2.31,5.34"/><path class="cls-5" d="M260.51,530.06c1-2.76,3.6-11.51,1.59-14-3.57-4.4-14-1-15.39,4-1.2,4.29-.16,9.19,4.17,11C253.8,532.35,258.44,532.07,260.51,530.06Z"/><path class="cls-5" d="M256.92,658.94c.76-2.66,2.09-5,1.94-7.82-11.8-3.82-13.4,12.07-4.66,11.72"/><path class="cls-5" d="M307.54,499.58c-3.88,0-9.19.47-11.29-3.75-2.42-4.86,2-7,5.84-7.78,4.67-.94,10.18-.72,10.17,5.46,0,3.2-1.6,4.7-4.72,4.12"/><path class="cls-5" d="M309.9,509.7c.56,3.46,3.08,6.36,3.14,10-7.89,1.26-17.57,2.08-25.24-.33-3-.94-9.7-3.4-10.18-6.93,5.81-2.49,14-1.83,18.21-7.39-3.32-.18-6.95.62-10.23,1.06-1.61.22-6.91,1.86-8.52.93-2.91-1.69-.95-12.32-.13-15.42,1.09-4.14,4.48-15.55,10.11-16.1,5-.48,8,7.3,8.42,11.36C294,482.42,285,472.64,288,468.08c2-3.07,13.48-2,16.28-2,5.5,0,10.67-.35,16.08-.82.76,3.73-7.83,11.34-11.27,13.32,4.95-1.89,9.54-8.21,15.07-8.28,5-.07,6,6.14,7.89,10.56,1,2.34,3.68,6.72,2.72,9.37-.9,2.45-.46,1.9-3.79,2.48-3.65.64-7.66.26-11.36.17,4.48,1.34,15.69,6.12,13.1,11.74C331,508.55,318.64,518,313,517.51,312.19,514.78,312.64,511.39,309.9,509.7Z"/><path class="cls-5" d="M255.58,588.86c6.61-.6,16.73,4.37,21.77,8.15,8.41,6.32,0,9.57-5.91,14.42-7.68,6.34-15.89,14.94-26.6,14.43a130.9,130.9,0,0,0-7.05-21.64c-.39,4.45,2.51,18.84-2.12,22-4.44,3.06-16.86-6.53-20-9.15s-6.89-5.93-8.33-9.8c4.59-4.36,12.9-7,18.92-8.28-11.2.22-21.39,4.92-32.47,4.76-1-11,4.1-25.82,9.74-35,1.6-2.62,4.29-5.81,7.1-7.06,2.74,3.88,5.25,7.88,8.43,11.42,1.78,2,5.34,4,5,7.06-1.61-4.45-12.09-14.84-9-20,2.5-4.17,15.33-2.81,18.73-2.8,4.65,0,9.69.45,14.26-.43.71,5.59-7.12,15.3-11.26,19,4.75-5.36,13.25-9,19.67-11.89,1.66-.75,6-3.84,8-3.29,4,1.11,6.85,12.77,8.24,16.16a15.42,15.42,0,0,1,1.62,6.88c-7,2.26-19.17,1.25-25.36-2.3"/><path class="cls-5" d="M235,594.75c-.69,3.43,4,5.43,6.73,4,5.42-2.83,3.2-12.65-1.86-14.21-1.94-.6-9.6-1.13-10,2.37-.49,4,9.19,6.15,11.78,7"/><polyline class="cls-5" points="356.55 499.47 303.79 443.82 191.64 552.14 188.6 603.34"/><polyline class="cls-5" points="363.19 490.07 297.65 426.94 178.73 543.24"/><line class="cls-5" x1="259.44" y1="678.51" x2="193.67" y2="608.36"/><path class="cls-5" d="M263.22,675.45a259.42,259.42,0,0,1,87.35-171.64"/><line class="cls-5" x1="526.23" y1="746" x2="677.78" y2="601.14"/><polyline class="cls-5" points="550.82 715.77 485.6 634.46 491.91 723.59"/><polyline class="cls-5" points="480.27 701.61 444.1 698.73 463.82 642.01 480.13 641.97"/><line class="cls-5" x1="477.17" y1="631.16" x2="387.46" y2="626.5"/><path class="cls-5" d="M432,608.3c7.26,0,9.79,1,11-7.67.46-3.2,1.36-9.87-3.61-10.3-3.19-.27-3.77,2.93-5.53,4.77-.32-3.9,1.28-14.22-5.42-13.69-4.59.37-5.7,8.5-6.09,12.13-2-3-5.76-6.66-9.07-2.83-3.64,4.23.46,9.87,2.94,13.18-4.24.28-10.33-.86-8.42,5.73.94,3.2,10,10.75,11.31,5-3.53,1.18-3.61,5.71-1,7.58,4.25,3.05,9.45-.6,13.49-1-.88,5.47,5.29,2.85,6.53-.63,2.68-7.52-3.67-7.81-10.18-7.46-7.21.39-6.74-10-1.14-9.49.06,1.78.42,4.18-.71,5.46"/><path class="cls-5" d="M474.13,585.43c-2.55,2-13.44.4-16.6.41l-8.74,0"/><path class="cls-5" d="M413.9,587.77l-16.15,0"/><path class="cls-5" d="M463.19,619.24c1.31-4.58,2.56-10.53,1.35-15.29-1.33-5.2-8.33-7.27-12-3.31C447.61,606,455.26,621.73,463.19,619.24Z"/><path class="cls-5" d="M396.7,613.52c4.22-1,2.42-7.64-1.6-8.09-5.42-.61-4.13,9.16-1.69,12.14"/><path class="cls-5" d="M373.45,790.49A43.45,43.45,0,0,1,362.12,781"/><path class="cls-5" d="M375.44,784.71c-3.13-4.11-7.66-7-10.83-11"/><path class="cls-5" d="M380,782.94c.41-3.54-5.71-9.08-8.06-11.54"/><path class="cls-5" d="M330.23,791.1c.51,3.27-3,6.85-4.51,9.48a31.86,31.86,0,0,1-3,4.86"/><path class="cls-5" d="M324.44,783.57c0,3.82-3.61,8-6.26,10.57"/><path class="cls-5" d="M318.14,778.81c.19,4.19-2.47,8.27-4,12.07"/><path class="cls-5" d="M422.62,863.73c-3.54,2.4-8.66,5.95-13.19,5.58-2.9-.24-4.19-2.45-7.31-2.45-4.42,0-8.67,2.75-13,3.5-5.27.91-10.25.22-15.44-.05,3,0,3.28-5.27,6.23-5.95,2.43-.56,4.85-.64,7.28-1.25a72.37,72.37,0,0,1,11.46-2c4.1-.36,9.1-.79,13.2-.18C414.25,861.34,420.17,863.66,422.62,863.73Z"/><path class="cls-5" d="M417.05,851.43c-5.53-2.13-13-.89-18.82-.88a22.66,22.66,0,0,0-11.66,2.79"/><path class="cls-5" d="M398.84,966.34c-9.2,2.65-17.18,9.13-27.15,9.31-4.34.07-8.39-1.64-12.8-1.23-3.15.29-7.2,2.09-10.39,1.23a5.5,5.5,0,0,1-3.86-6.27c.66-3.32,3.39-2.58,6.92-2.62,6.26-.08,12.36,0,18.42,1.32,4.19.92,8.09.33,12.19-.66C385.64,966.59,397,962.36,398.84,966.34Z"/><path class="cls-5" d="M425,961.57c8.63,0,28.31,2.52,28.35-6.1-4.74-.6-11,2.82-16.22,3C434.42,958.61,426.35,957.75,425,961.57Z"/><path class="cls-5" d="M385.64,947.33c-7.93,12.3-30.25,13.19-41.26,5.64"/><path class="cls-5" d="M342,946.18c9.4,5.41,20.63,5.23,30.27,2.76,4.17-1.07,8.77-2.11,12-5.25,1.91-1.85,2.39-1.2.12-4.24-7.59-10.13-19.26-10.92-29.09-6.12C349.71,936.07,348.25,943.55,342,946.18Z"/><path class="cls-5" d="M372.93,947.62c-.51-2.26.88-6.19-.63-8.69-2.76-4.55-14-5.52-18.27-3.46-3.13,1.5-6.3,6.83-5.13,10.49.6,1.88,1.7,2.25,3.71,2.94"/><path class="cls-5" d="M365.23,948.56c0-2,.68-5.48-.58-6.94-1-1.16-7.12-2.33-8.4-1.33-2.71,2.12.26,9.67,3.44,9.51"/><path class="cls-5" d="M430.2,943.17c5.11.6,9.9,1.53,15.09,1.51,2.9,0,5.56.4,8.12-1,1.59-.86,2.9-2.46,4.19-3.66"/><path class="cls-5" d="M429.1,934.59c1.9-.81,6.25,2.71,8.29,3.62,4.08,1.83,7.69,2.11,11.76.35a48.1,48.1,0,0,0,8.41-4.41c-1.65-4-12.36-12.18-17.37-11.33C437.1,923.34,433,929,429.1,934.59Z"/><path class="cls-5" d="M443.43,938.21c2.57-2,4.8-6.44,2.27-8.63-1.49-1.29-7.69-3.42-8.76-1.21"/><path class="cls-5" d="M438.81,937.3c1.71-5.52-3.22-8.14-6.16-2.45"/><rect class="cls-5" x="176" y="95.5" width="508" height="943"/></svg>