<svg id="Layer_1" data-name="Layer 1" xmlns="http://www.w3.org/2000/svg" viewBox="0 0 822 1122"><defs><style>.cls-1{font-size:165.39px;}.cls-1,.cls-3,.cls-4{fill:#6f9797;}.cls-1,.cls-3{font-family:HelveticaNeue-Bold, Helvetica Neue;font-weight:700;}.cls-2{fill:#d6bd80;}.cls-3{font-size:192.79px;}</style></defs><text class="cls-1" transform="translate(30.75 153.81)">3</text><circle class="cls-2" cx="51.82" cy="59.49" r="8.91"/><circle class="cls-2" cx="72.16" cy="46.72" r="8.91"/><circle class="cls-2" cx="98.88" cy="54.35" r="8.91"/><circle class="cls-2" cx="101.44" cy="77.25" r="8.91"/><circle class="cls-2" cx="82.35" cy="92.53" r="8.91"/><circle class="cls-2" cx="106.52" cy="110.34" r="8.91"/><circle class="cls-2" cx="102.71" cy="134.52" r="8.91"/><circle class="cls-2" cx="81.08" cy="147.25" r="8.91"/><circle class="cls-2" cx="59.45" cy="140.89" r="8.91"/><circle class="cls-2" cx="46.72" cy="125.62" r="8.91"/><text class="cls-3" transform="translate(783.06 944.96) rotate(-179.89)">3</text><circle class="cls-2" cx="758.23" cy="1054.81" r="10.38"/><circle class="cls-2" cx="734.49" cy="1069.65" r="10.38"/><circle class="cls-2" cx="703.36" cy="1060.69" r="10.38"/><circle class="cls-2" cx="700.44" cy="1033.99" r="10.38"/><circle class="cls-2" cx="722.71" cy="1016.23" r="10.38"/><circle class="cls-2" cx="694.59" cy="995.41" r="10.38"/><circle class="cls-2" cx="699.08" cy="967.24" r="10.38"/><circle class="cls-2" cx="724.33" cy="952.45" r="10.38"/><circle class="cls-2" cx="749.53" cy="959.91" r="10.38"/><circle class="cls-2" cx="765.82" cy="978.86" r="10.38"/><ellipse class="cls-4" cx="382.5" cy="273.76" rx="102.94" ry="133.12"/><ellipse class="cls-4" cx="382.5" cy="577.76" rx="102.94" ry="133.12"/><ellipse class="cls-4" cx="382.5" cy="891.76" rx="102.94" ry="133.12"/></svg>