<svg id="Layer_1" data-name="Layer 1" xmlns="http://www.w3.org/2000/svg" viewBox="0 0 822 1122"><defs><style>.cls-1{font-size:165.91px;}.cls-1,.cls-3,.cls-4{fill:#6f9797;}.cls-1,.cls-3{font-family:HelveticaNeue-Bold, Helvetica Neue;font-weight:700;}.cls-2{fill:#d6bd80;}.cls-3{font-size:171.95px;}</style></defs><text class="cls-1" transform="translate(35.75 163.18)">7</text><circle class="cls-2" cx="73.89" cy="147.64" r="8.93"/><circle class="cls-2" cx="78.99" cy="123.39" r="8.93"/><circle class="cls-2" cx="86.65" cy="101.69" r="8.93"/><circle class="cls-2" cx="109.62" cy="58.29" r="8.93"/><circle class="cls-2" cx="86.65" cy="58.29" r="8.93"/><circle class="cls-2" cx="59.85" cy="58.29" r="8.93"/><text class="cls-3" transform="translate(776.03 945.71) rotate(180)">7</text><circle class="cls-2" cx="736.5" cy="961.82" r="9.26"/><circle class="cls-2" cx="731.21" cy="986.95" r="9.26"/><circle class="cls-2" cx="723.28" cy="1009.44" r="9.26"/><circle class="cls-2" cx="699.47" cy="1054.42" r="9.26"/><circle class="cls-2" cx="723.28" cy="1054.42" r="9.26"/><circle class="cls-2" cx="751.06" cy="1054.42" r="9.26"/><ellipse class="cls-4" cx="184.5" cy="274.76" rx="102.94" ry="133.12"/><ellipse class="cls-4" cx="591.5" cy="273.76" rx="102.94" ry="133.12"/><ellipse class="cls-4" cx="392.5" cy="444.76" rx="102.94" ry="133.12"/><ellipse class="cls-4" cx="591.5" cy="573.76" rx="102.94" ry="133.12"/><ellipse class="cls-4" cx="184.5" cy="574.76" rx="102.94" ry="133.12"/><ellipse class="cls-4" cx="184.5" cy="913.76" rx="102.94" ry="133.12"/><ellipse class="cls-4" cx="591.5" cy="896.76" rx="102.94" ry="133.12"/></svg>