<svg id="Layer_1" data-name="Layer 1" xmlns="http://www.w3.org/2000/svg" viewBox="0 0 822 1122"><defs><style>.cls-1{font-size:177.66px;font-family:HelveticaNeue-Bold, Helvetica Neue;font-weight:700;}.cls-1,.cls-3{fill:#d89d70;}.cls-2{fill:#d6bd80;}.cls-4{fill:none;stroke:#d89d70;stroke-miterlimit:10;stroke-width:3px;}</style></defs><text class="cls-1" transform="translate(35.75 169.57)">K</text><circle class="cls-2" cx="61.74" cy="58.86" r="9.57"/><circle class="cls-2" cx="61.72" cy="84.8" r="9.57"/><circle class="cls-2" cx="61.72" cy="117.61" r="9.57"/><circle class="cls-2" cx="84.61" cy="103.23" r="9.57"/><circle class="cls-2" cx="103.74" cy="80" r="9.57"/><circle class="cls-2" cx="110.57" cy="115.53" r="9.57"/><circle class="cls-2" cx="124.24" cy="137.4" r="9.57"/><circle class="cls-2" cx="140.64" cy="156.53" r="9.57"/><circle class="cls-2" cx="124.24" cy="59.5" r="9.57"/><circle class="cls-2" cx="61.72" cy="146.3" r="9.57"/><text class="cls-1" transform="translate(801.15 963.9) rotate(-179.89)">K</text><circle class="cls-2" cx="774.94" cy="1074.55" r="9.57"/><circle class="cls-2" cx="775.01" cy="1048.61" r="9.57"/><circle class="cls-2" cx="775.07" cy="1015.81" r="9.57"/><circle class="cls-2" cx="752.16" cy="1030.14" r="9.57"/><circle class="cls-2" cx="732.98" cy="1053.33" r="9.57"/><circle class="cls-2" cx="726.22" cy="1017.78" r="9.57"/><circle class="cls-2" cx="712.6" cy="995.89" r="9.57"/><circle class="cls-2" cx="696.24" cy="976.73" r="9.57"/><circle class="cls-2" cx="712.44" cy="1073.79" r="9.57"/><circle class="cls-2" cx="775.13" cy="987.11" r="9.57"/><path class="cls-3" d="M277,429.68c4.81-10,5-25,.4-35,4.59,10,11.63,18.82,16.44,20.6"/><ellipse class="cls-3" cx="270.92" cy="371.11" rx="10.77" ry="18.11" transform="translate(-13.11 9.93) rotate(-2.05)"/><ellipse class="cls-3" cx="269.29" cy="402.43" rx="10.77" ry="18.11" transform="translate(-14.23 9.89) rotate(-2.05)"/><ellipse class="cls-3" cx="287.71" cy="388.37" rx="10.77" ry="18.11" transform="translate(-13.71 10.55) rotate(-2.05)"/><ellipse class="cls-3" cx="276.38" cy="388.45" rx="4" ry="2.74" transform="translate(-180.86 523.39) rotate(-71.01)"/><path class="cls-3" d="M304.56,500c5.53-9.77,8.65-24.44,7.29-34.22,1.36,9.78,6.53,19.82,12.06,23.44"/><ellipse class="cls-3" cx="309.57" cy="440.96" rx="18.11" ry="10.77" transform="translate(-175.7 675.05) rotate(-80.68)"/><ellipse class="cls-3" cx="301.79" cy="471.35" rx="18.11" ry="10.77" transform="translate(-212.21 692.84) rotate(-80.68)"/><ellipse class="cls-3" cx="322.63" cy="461.19" rx="18.11" ry="10.77" transform="translate(-184.72 704.89) rotate(-80.68)"/><ellipse class="cls-3" cx="311.5" cy="459.04" rx="4" ry="2.74" transform="translate(-242.03 495.83) rotate(-59.64)"/><path class="cls-3" d="M315.56,578c5.53-9.77,8.65-24.44,7.29-34.22,1.36,9.78,6.53,19.82,12.06,23.44"/><ellipse class="cls-3" cx="320.57" cy="518.96" rx="18.11" ry="10.77" transform="translate(-243.45 751.27) rotate(-80.68)"/><ellipse class="cls-3" cx="312.79" cy="549.35" rx="18.11" ry="10.77" transform="translate(-279.96 769.07) rotate(-80.68)"/><ellipse class="cls-3" cx="333.63" cy="539.19" rx="18.11" ry="10.77" transform="translate(-252.47 781.11) rotate(-80.68)"/><ellipse class="cls-3" cx="322.5" cy="537.04" rx="4" ry="2.74" transform="translate(-303.9 543.9) rotate(-59.64)"/><path class="cls-3" d="M504.56,674c5.53-9.77,8.65-24.44,7.29-34.22,1.36,9.78,6.53,19.82,12.06,23.44"/><ellipse class="cls-3" cx="509.57" cy="614.96" rx="18.11" ry="10.77" transform="translate(-179.78 1018.24) rotate(-80.68)"/><ellipse class="cls-3" cx="501.79" cy="645.35" rx="18.11" ry="10.77" transform="translate(-216.29 1036.03) rotate(-80.68)"/><ellipse class="cls-3" cx="522.63" cy="635.19" rx="18.11" ry="10.77" transform="translate(-188.8 1048.08) rotate(-80.68)"/><ellipse class="cls-3" cx="511.5" cy="633.04" rx="4" ry="2.74" transform="translate(-293.25 754.46) rotate(-59.64)"/><path class="cls-3" d="M610,357.79c-6.74,7.25-16.84,18.32-23.58,25.84,6.74-7.52,7.35-18.79,1.44-26.31"/><ellipse class="cls-3" cx="577.33" cy="407.04" rx="18.11" ry="10.77" transform="translate(-104.55 591.52) rotate(-50.32)"/><ellipse class="cls-3" cx="599.4" cy="384.75" rx="18.11" ry="10.77" transform="matrix(0.64, -0.77, 0.77, 0.64, -79.42, 600.45)"/><ellipse class="cls-3" cx="576.29" cy="382.99" rx="18.11" ry="10.77" transform="translate(-86.41 582.02) rotate(-50.32)"/><ellipse class="cls-3" cx="584.8" cy="390.47" rx="4" ry="2.74" transform="translate(-116.26 335.94) rotate(-29.28)"/><path class="cls-3" d="M337.14,613.35a264.86,264.86,0,0,0-18.68,29.59c4.42-8.45,3.05-19.66-3.21-26.16"/><ellipse class="cls-3" cx="313.17" cy="667.65" rx="18.11" ry="10.77" transform="translate(-422.09 610.82) rotate(-60.45)"/><ellipse class="cls-3" cx="330.98" cy="641.83" rx="18.11" ry="10.77" transform="translate(-390.6 613.22) rotate(-60.45)"/><ellipse class="cls-3" cx="307.91" cy="644.16" rx="18.11" ry="10.77" transform="translate(-404.32 594.34) rotate(-60.45)"/><ellipse class="cls-3" cx="317.61" cy="650.02" rx="4" ry="2.74" transform="translate(-340.46 349.44) rotate(-39.41)"/><path class="cls-3" d="M316.14,685.35a264.86,264.86,0,0,0-18.68,29.59c4.42-8.45,3.05-19.66-3.21-26.16"/><ellipse class="cls-3" cx="292.17" cy="739.65" rx="18.11" ry="10.77" transform="translate(-495.37 629.04) rotate(-60.45)"/><ellipse class="cls-3" cx="309.98" cy="713.83" rx="18.11" ry="10.77" transform="translate(-463.88 631.45) rotate(-60.45)"/><ellipse class="cls-3" cx="286.91" cy="716.16" rx="18.11" ry="10.77" transform="translate(-477.59 612.56) rotate(-60.45)"/><ellipse class="cls-3" cx="296.61" cy="722.02" rx="4" ry="2.74" transform="translate(-390.95 352.48) rotate(-39.41)"/><path class="cls-3" d="M279,754.56a236.89,236.89,0,0,0-27.29,21.9c7.8-7.36,10.15-18.41,5.48-25.78"/><ellipse class="cls-3" cx="239.07" cy="797.7" rx="18.11" ry="10.77" transform="translate(-468.26 358.19) rotate(-41.46)"/><ellipse class="cls-3" cx="264.31" cy="779.08" rx="18.11" ry="10.77" transform="translate(-449.6 370.24) rotate(-41.46)"/><ellipse class="cls-3" cx="241.74" cy="773.77" rx="18.11" ry="10.77" transform="translate(-451.75 353.97) rotate(-41.46)"/><ellipse class="cls-3" cx="249" cy="782.47" rx="4" ry="2.74" transform="translate(-257.37 136.05) rotate(-20.42)"/><path class="cls-3" d="M562,430.79c-6.74,7.25-16.84,18.32-23.58,25.84,6.74-7.52,7.35-18.79,1.44-26.31"/><ellipse class="cls-3" cx="529.33" cy="480.04" rx="18.11" ry="10.77" transform="translate(-178.09 580.97) rotate(-50.32)"/><ellipse class="cls-3" cx="551.4" cy="457.75" rx="18.11" ry="10.77" transform="matrix(0.64, -0.77, 0.77, 0.64, -152.96, 589.9)"/><ellipse class="cls-3" cx="528.29" cy="455.99" rx="18.11" ry="10.77" transform="translate(-159.95 571.47) rotate(-50.32)"/><ellipse class="cls-3" cx="536.8" cy="463.47" rx="4" ry="2.74" transform="translate(-158.1 321.79) rotate(-29.28)"/><path class="cls-3" d="M537.26,500A213.26,213.26,0,0,0,519.36,530c4-8.59,2.33-19.76-3.89-26.07"/><ellipse class="cls-3" cx="514.61" cy="554.85" rx="18.11" ry="10.77" transform="translate(-217.09 747.97) rotate(-61.94)"/><ellipse class="cls-3" cx="531.74" cy="528.57" rx="18.11" ry="10.77" transform="translate(-184.83 749.18) rotate(-61.94)"/><ellipse class="cls-3" cx="508.74" cy="531.5" rx="18.11" ry="10.77" transform="translate(-199.59 730.43) rotate(-61.94)"/><ellipse class="cls-3" cx="518.59" cy="537.11" rx="4" ry="2.74" transform="translate(-225.05 470.67) rotate(-40.9)"/><path class="cls-3" d="M519.56,757c5.53-9.77,8.65-24.44,7.29-34.22,1.36,9.78,6.53,19.82,12.06,23.44"/><ellipse class="cls-3" cx="524.57" cy="697.96" rx="18.11" ry="10.77" transform="translate(-249.12 1102.6) rotate(-80.68)"/><ellipse class="cls-3" cx="516.79" cy="728.35" rx="18.11" ry="10.77" transform="translate(-285.63 1120.39) rotate(-80.68)"/><ellipse class="cls-3" cx="537.63" cy="718.19" rx="18.11" ry="10.77" transform="translate(-258.14 1132.44) rotate(-80.68)"/><ellipse class="cls-3" cx="526.5" cy="716.04" rx="4" ry="2.74" transform="translate(-357.46 808.46) rotate(-59.64)"/><path class="cls-3" d="M560.55,823.31c4.44-10,4.1-25-.79-35,4.89,10,12.24,18.57,17.13,20"/><ellipse class="cls-3" cx="552.46" cy="765.06" rx="10.77" ry="18.11" transform="translate(-52.15 40.51) rotate(-4.01)"/><ellipse class="cls-3" cx="551.9" cy="796.42" rx="10.77" ry="18.11" transform="translate(-54.35 40.55) rotate(-4.01)"/><ellipse class="cls-3" cx="569.83" cy="781.73" rx="10.77" ry="18.11" transform="matrix(1, -0.07, 0.07, 1, -53.28, 41.77)"/><ellipse class="cls-3" cx="558.51" cy="782.21" rx="4" ry="2.74" transform="translate(-352.97 1087.14) rotate(-72.97)"/><path class="cls-4" d="M507.88,222.17c-4.95-1.53-9.55,2.19-14.59,1.2-6.69-1.32-13.59-4.15-20.53-4.47-12.3-.57-21,0-31.48,7.39-1.57,1.11-5.79,2.67-4.82,5.4,1.93,5.45,15.21-3.86,18.57-4.42,9.4-1.54,19.07.76,28.23,2a32,32,0,0,0,16.35-2.08c2.72-1.08,8.62-2,10.1-4.43C509.56,222.23,509.43,222.66,507.88,222.17Z"/><path class="cls-4" d="M499.63,241.35c-4.26.61-5.23,2-9.25-1.1-2.11-1.61-3.64-4.12-5.81-5.58-2.61-1.74-6.5-1-9.54-.71-3.55.37-7,1.37-10.62,1.9-5.58.84-10.13,1.27-14.77,4.58-3.26,2.32-6.56,4.16-9.56,6.81a27.55,27.55,0,0,1-2.83,2.24"/><path class="cls-4" d="M441.93,252.45c8.18,0,14.74-4.64,22.54-6.06,6.82-1.25,15.15.58,21.73,2.61,2.48.76,5.62,2.13,8.24,2-1.51,4.75-6.62,6.65-10.88,8.33-5.13,2-10.6,4-16,2.28a42,42,0,0,1-18.19-11.1"/><path class="cls-4" d="M488.29,260.59c-4.05,1.64-10.72,4.94-13.32,8.38"/><path class="cls-4" d="M524.53,223.85c0,2.8.74,6.66.74,9.78,0-2.58-.1-5.21,0-7.78,1.68.52,2.88,2.62,4.69,3.38,2.32,1,5.09.77,7.53.78,4.7,0,9.73-.79,14.46-1.23,1.27-.12,3.63-.73,4.84-.14,1.66.82,3.9,5.31,5.35,6.81,1.77,1.84,4.8,6.4,7.69,6.36.46-4.88-2.65-10.06-6.07-13.27-5.22-4.91-10.78-6.14-17.78-5.24-5.31.68-10.46,3.74-16,2.79C527.5,225.66,525.84,223,524.53,223.85Z"/><path class="cls-4" d="M466.1,248.5c-3.16,4.7,1,9,5.73,9.6,4.15.52,19.63-2.74,12.27-9.35"/><path class="cls-4" d="M472,247.52c-5.75,6.15,7.9,9.62,7.15,2"/><path class="cls-4" d="M559.3,238.15c-3-3.76-11.79-4.32-16.1-3.15a19.38,19.38,0,0,0-7,3.38c-2.53,2-8.26,5.54-9,8.64,6.35-4.11,12.86-3.63,20.43-3.22,5.4.29,14.62,1.72,18.53,5.94-7.83,8.87-20,13.19-30.52,8.63-4.06-1.76-7.77-3.71-9.68-7.89"/><path class="cls-4" d="M522.56,239.13c0,11.87,2.13,23.71,5.08,35.21,1.22,4.76,5.45,10.89,4.56,16.07-1,5.93-10.57,6.66-11.36,12.83"/><path class="cls-4" d="M517.38,292.89c-5-.31-10.41,2-15,3.71-2.11.77-6,2.65-8.37,1.64-4.88-2.08-4.14-12.95,2.16-12.26"/><path class="cls-4" d="M510.23,308.92c-4.93-.06-10.08-1.57-14.74.6-6.12,2.85-10.82,8.36-18,8.54-3.24.07-12.29-2.38-13.34-5.75-1.65-5.32,3.19-7.71,7.51-7.59,2,0,8.25,2.12,7.5-1.39-1-4.56-12.07-5.51-14.33-1.93-3.4,5.4-1,12.24,3.51,15.93,5,4.09,10.72.93,16-1.27,3.89-1.63,8-3.56,12.19-4.29s5.84.16,9.5,1.54c2.49.94,4.85.64,6-2C512.55,310,512.87,308.58,510.23,308.92Z"/><path class="cls-4" d="M522.07,312.12c-2.65-3.47.36-5.35,4.1-4.95,2.63.29,5.33,2.18,7.8,3.09,2.9,1.08,5.82,2,8.69,3.09,4,1.58,7.12,1.82,8.76-3.07a9.83,9.83,0,0,0,0-6.66c-.74-1.61-2.45-2.7-3.2-4.29,4.23-1,6.6,6.86,6.4,9.91-.31,4.48-4.72,7.79-9.12,8.07-4.58.28-8.13-3.55-12.45-4.7C529.69,311.72,526.24,312.37,522.07,312.12Z"/><path class="cls-4" d="M514.18,324.94c-4.53-1.12-9.28-3.47-13.93-1.62-2.38.95-4.61,2.61-7.05,3.6-1.36.55-3.86.93-4.4,2.17,4.92.37,10.36-1.71,15,0a23.89,23.89,0,0,0,10.77,1.79c5-.34,8.93-2.1,14-1.67,1.28.1,5.36,1,6.12-.54,1.58-3.2-6.92-4.48-8.82-4.46-3.51,0-6.37,2.92-10,2.13-3.06-.67-4.93-2.52-8.32-2.37"/><path class="cls-4" d="M504.81,337c3.58-.47,8.59.2,12.82-.73,2.31-.51,5.26-1.76,7.61-1.71C526,340.78,509.34,340.31,504.81,337Z"/><path class="cls-4" d="M419.58,311.68c-.12,2.91-5.44,11.91-7.76,15.82a88.56,88.56,0,0,1-7,10.14c-2,2.5-7.85,8.27-11.06,4.58"/><path class="cls-4" d="M387.66,343.05c-.11,3.5,1.81,8.23,6.29,9.57,5.21,1.56,8.73-1.36,11.66-5.29,5.94-7.95,13-17.82,15.35-27.67"/><path class="cls-4" d="M430,327.64c.07,4.27-4.56,9.74-6.59,13.21-1.86,3.16-4.11,6.43-5.48,9.86-.89,2.23-1.36,4.52-2.52,6.65"/><path class="cls-4" d="M435.82,333.14c-.14,4-3.65,8.36-5.31,11.93a47.35,47.35,0,0,0-3.94,13.26c-.93,6.06-2.81,14.1,1.73,19,7.7,8.39,21-2,26.43-8.48,3.18-3.8,7.49-11.22,7.78-16.49"/><path class="cls-4" d="M455.08,346.62c.31,5.25-4.61,12.17-9.24,14.47-2.76,1.37-7.65,2.05-9.62-.73-3.06-4.31-.08-12.47,2.78-16.07,1.4-1.76,3.85-2.84,4.8-4.82"/><path class="cls-4" d="M468.83,356.25c-1.35,7.56-6.73,13.63-9.9,20.37"/><path class="cls-4" d="M477.36,360.38c-6,3.47-8.39,16.29-9.62,22.73-1.43,7.53-.74,14.28,8.25,14.91,9.85.69,16.62-6.06,20.15-14.71,1.66-4.06,4.46-8.44,5.71-12.47"/><path class="cls-4" d="M496.08,371.11c.62,5.19-10.3,22.52-16.24,15.94-5.15-5.71,3.14-15.33,3.85-21.17"/><path class="cls-4" d="M432.1,203.37a281.09,281.09,0,0,1-5,49,283.74,283.74,0,0,1-30,83"/><path class="cls-4" d="M381.1,344.37a263.61,263.61,0,0,0,33.5-81.07,261.69,261.69,0,0,0,6.5-60.93"/><path class="cls-4" d="M396.82,336.73c-2.57,2-10.7,6.25-13.27,2.36"/><path class="cls-4" d="M379.28,345.43c-2.44,0-8,1.05-9.29-1.63"/><path class="cls-4" d="M367.93,344.39c0,4.92,0,11.8-6.2,12.81a7.77,7.77,0,0,1-8.1-4"/><path class="cls-4" d="M350.24,352.35c.48,3.92-8.17,7.52-11,8.68-1.65.66-6,2.39-7.4.46"/><path class="cls-4" d="M329.31,361.64c-5-.36-9.78,2.18-14-1.62"/><path class="cls-4" d="M310.88,359c-4.82,0-14.14,1.88-17.24-3.1-8.72-.05-14.85-8.16-16.6-16.3-1.31-6.07.75-12.4,4.38-17.29s11-7.66,17-5.88c4.46,1.32,10.15,4.29,11.74,9"/><path class="cls-4" d="M290.1,331.9c-.15,5.61,4.28,7,9.39,6.8,6.05-.26,11.3-5.86,14.25-10.93"/><path class="cls-4" d="M363.1,210.37a437,437,0,0,1-18,82c-12.4,38.25-22.89,52.08-37,57a36.94,36.94,0,0,1-12,2"/><path class="cls-4" d="M374.63,208.25a664.77,664.77,0,0,1-14.53,71.12c-7.86,30-13.78,43.79-24,57a113.33,113.33,0,0,1-20,20"/><path class="cls-4" d="M387.66,206.61a612.61,612.61,0,0,1-16.56,72.76c-8,27.06-14.12,40.87-21,53a201.38,201.38,0,0,1-16,24"/><path class="cls-4" d="M396.82,204.37a388.56,388.56,0,0,1-10.72,67,306.74,306.74,0,0,1-12,38,267.56,267.56,0,0,1-20,40"/><path class="cls-4" d="M409.1,204.37a372.2,372.2,0,0,1-37,136"/><path class="cls-4" d="M533.93,366.68c-.31,3.07,4.12,19,9.4,14.57,4.14-3.46,1.87-15.05-1.53-18.15"/><path class="cls-4" d="M526.77,368.11c0,7.26,4.25,14.79,8.88,20.34,3.85,4.62,9.34,3.94,13.54.48,5.08-4.18,7.57-8.77,7.21-15.56s-5-10.91-7.44-16.71"/><path class="cls-4" d="M518.66,370.73c.05,6.45.67,11.69,4.37,17.09,2.13,3.1,4,7.75,7.43,9.59,6.46,3.43,17.41,4.48,24.27,1.75,3.38-1.35,5.23-3.65,6.5-7,2.49-6.62,2.45-15.74,1.5-22.62-1.09-7.88-7.59-13.7-10.43-20.73"/><path class="cls-4" d="M559.94,335.66c-1,1.67,1.59,5.79,2.35,7.44,1.21,2.61,3.14,5.52,2.91,8.56-.22,2.71-2.6,4.35-5.26,4.76"/><path class="cls-4" d="M565,325.16c2.92,5.2,7.21,9.95,9.11,15.7,1.54,4.67,1.17,9.75,1.14,14.59,0,2.91-.5,3.46-3.13,5-2.28,1.3-5,3-7.6,3.64"/><path class="cls-4" d="M565.66,371c5.73-.08,9.48-7.35,10.7-11.9a54.23,54.23,0,0,0,.28-26.61,27.4,27.4,0,0,0-7.75-12.72,9.38,9.38,0,0,1-3-4.6"/><path class="cls-4" d="M567.81,282.22c-.18,2.42,2,7.65,2.88,10.41,1.53,4.83,3.21,9,3.33,14.11.09,4,0,8.42-2.16,11.74"/><path class="cls-4" d="M568.52,266.23c6.68,12.11,14.44,23.38,13.83,37.85-.34,8.31-2.92,16.7-4,24.9"/><path class="cls-4" d="M566.21,241.81a286.85,286.85,0,0,1,0,42.67,206.3,206.3,0,0,1-3.11,24.89c-3.55,18.6-5.6,29.3-13,39-3.3,4.32-13,15.37-34,20l-16,35"/><path class="cls-4" d="M496.1,408.64a401.54,401.54,0,0,0-31,117.73h13.07"/><path class="cls-4" d="M489.15,409.32a482.12,482.12,0,0,0-22.56,63.49,493.54,493.54,0,0,0-13.67,66.38l13.06.53"/><path class="cls-4" d="M526.77,403.37c-6,11.48-12,23.81-17.67,37a549.32,549.32,0,0,0-28,82"/><path class="cls-4" d="M541,403.37a280.21,280.21,0,0,0-50.9,134H473.42"/><path class="cls-4" d="M350.23,373.68a582.05,582.05,0,0,1,21.94,74.51,601.12,601.12,0,0,1,12.07,77.44H369.91"/><path class="cls-4" d="M357.86,366.55a596.66,596.66,0,0,1,29.61,81.75,609.46,609.46,0,0,1,17.62,85.59l-17.58.81"/><path class="cls-4" d="M316.58,366.87c6.61,14.82,13.14,30.74,19.39,47.76a798.44,798.44,0,0,1,30.72,105.84"/><path class="cls-4" d="M301,366.87a385.38,385.38,0,0,1,37.18,81.32,415.49,415.49,0,0,1,18.65,91.64h18.3"/><path class="cls-4" d="M377.67,386.06c-.18-5.15-.88-8,3.24-12.09,3.89-3.89,9.75-3.81,14.56-1.49,8.1,3.91,15.24,14.17,15.29,23.39.43-1.89,5.65-6,7.65-4,1.13,1.16-4.4,10.77-5,12.15-1.14,2.53-3.49,5.5-3.25,8.43-7.64-8.93-7.84-22-19.91-26.94C385.41,383.57,378.09,381.75,377.67,386.06Z"/><path class="cls-4" d="M419.18,419.94c-1.24-5.37-1.5-12.12,2.74-16.21,1.85-1.8,6.81-5,9.32-3.11,3.2,2.44,4.14,11.1,4.33,14.7a36.8,36.8,0,0,1-.3,8.53c5.63.4,19.57-4.34,20.88,4.42,1.15,7.73-11.86,11.34-17.77,11.2.17,3.44,1.29,6.4-.39,9.74-2,4-6.46,6.67-10.68,7.71-9.5,2.36-6.81-8.87-8-15-5.13.56-10.6,2.58-15.63.22s-7.34-7.77-3.93-12.65C402.56,425.46,413.58,420.84,419.18,419.94Z"/><path class="cls-4" d="M446,413.73c.59-7.83,15.72-11.31,19.77-4.52,2.34,3.92-2.51,7-5.58,9.3C458.44,413.39,451.57,410.6,446,413.73Z"/><path class="cls-4" d="M445.44,446.76c.13,4.94.16,14.54-3.49,18.44-1.51,1.61-4.07,2.53-5.89,3.57,1.26,1.37,4.22,4.58,6.37,4.49,2.67-.11,4.83-4.9,6.28-6.87C452.68,461,449.84,453.53,445.44,446.76Z"/><path class="cls-4" d="M413,449c0,5.33-1,10.75,3.46,14.34,1.84,1.46,3.93,2.91,5.25,4.79-4.13,3.19-12,2.54-15.38-1.44C402.38,462.08,404.71,453.88,413,449Z"/><path class="cls-4" d="M404.32,543.49c2.64.34,5.16,2.46,7.1,4.22,2-6.52,8.2-11.54,9.56-18.34,1.1-5.54-1.18-8-3.24-12.86-1.36-3.19-2.3-7.59,2.4-8,6.81-.63,7.61,9.09,7.57,13.67s-1,9-1.69,13.47c-.18,1.23-1.54,5.56-.63,6.87s3.1.93,4.43,1.62c2.28,1.2,3.64,5.43,6.55,5.46,2.58,0,3-4.62,4.26-7-4.17-1.68-7.38-2.53-8.33-7.7-1.16-6.36,3.18-11.8,4.1-17.81,1.34-8.79-3.21-19.08-13-20-13.52-1.22-21.28,16-13.6,26,2.78,3.63,5.66,6,4.63,10.94-.63,3-2,6.18-2.79,9.1"/><path class="cls-4" d="M419,578.54c-3.59,3.65-6.69,16-1.4,19.34-.08-4,2.36-7.86,2.08-12.13C419.56,583.66,418.65,581.54,419,578.54Z"/><path class="cls-4" d="M416.67,569.19c-7.16,4-9.21,18.25-8.69,25.56.35,5,4,10.18,8.09,13.08,6.32,4.45,9.05-11.45,9.28-15.74C425.85,582.76,423.82,573.38,416.67,569.19Z"/><path class="cls-4" d="M416.34,557.84c-6,2.06-10,12.75-11.8,18.06-2,6-3.23,13.4-1.83,19.7,1.51,6.87,6.08,13.14,11.25,17.65,4.34-5,9.75-9.06,14-14.1,5-5.85,3.44-16.06,2.08-23-1.53-7.77-2.41-14-7.34-19.94-1.12-1.34-1.85-4.1-3.72-3"/><path class="cls-4" d="M351.91,568.53c9.92,0,19.76-1,29.69-1,2.58,0,5.9-.54,8.32.4-.9,3.75-3.4,7.36-4.32,11.44-.8,3.57-1.05,7.4-2,10.86"/><path class="cls-4" d="M441.71,568.86c.57,3.24,4.34,6.06,5.68,9.17a21.63,21.63,0,0,1,2,8.46c-.17-5.94-5.57-12.81-8.61-17.56,10.62-.64,22.65-2.11,33.26-.68a52.91,52.91,0,0,0,7.4.94"/><path class="cls-4" d="M537.62,246.39c-.63,2.72-1.65,6.5.29,8.85,3.41,4.13,8.74,3.35,13.58,3.33,3.44,0,4.65-2.23,4.69-5.59a8.78,8.78,0,0,0-2.79-6.45"/><path class="cls-4" d="M541.63,246c-.64.47-.76,3-.58,3.91.56,3,4.51,4.24,7.11,4.39,3,.17,4.43-.82,3.56-3.79-.48-1.67-1.48-3.75-3-4.65"/><polyline class="cls-4" points="639.1 97.37 566.21 209.13 566.21 227.91"/><path class="cls-4" d="M290.1,97.37l63.53,117.42c-3.51,15.18-7.93,31.46-13.53,48.58a563.67,563.67,0,0,1-24,61"/><path class="cls-4" d="M556.43,206.61a465.07,465.07,0,0,0-199.33,1.76"/><polygon class="cls-4" points="686.1 171.37 656.48 196.66 656.1 506.37 712.6 514.24 712.6 196.66 686.1 171.37"/><path class="cls-4" d="M688.2,508.27c-.09-4-2-7.09-3.4-10.82-3.44-9-5.07-17.53-6.4-27-1.52-10.83-3-22.28-.42-33.08,2.73-11.56,9.56-21.44,11.7-33.28,3-16.7-3-27.33-7.07-42.89-6-22.81-9-55.37-.72-77.33,6.41-17,12.14-42.22,3.05-59.44"/><line class="cls-4" x1="576.64" y1="332.46" x2="656.1" y2="385.62"/><path class="cls-4" d="M634,374.75A293.28,293.28,0,0,0,554.1,488.37"/><path class="cls-4" d="M639.71,382A312.39,312.39,0,0,0,563.1,496.37"/><path class="cls-4" d="M654,415.88a181.64,181.64,0,0,0-60.94,97.49"/><path class="cls-4" d="M601.41,513.37a322.94,322.94,0,0,1,52.69-78"/><polyline class="cls-4" points="638.24 388.75 638.24 410.1 654.03 409.17"/><polyline class="cls-4" points="619.1 407.37 620.1 426.37 633.98 426.37"/><polyline class="cls-4" points="601.4 431.56 603.1 453.37 619.1 450.76"/><polyline class="cls-4" points="584.85 455.43 587.1 480.37 601.4 474.37"/><polyline class="cls-4" points="573.28 480.37 576.64 497.49 596.95 492.82"/><path class="cls-4" d="M653.74,510c-8.4.07-24.33,5.44-25.56,15.39-.58,4.67-1.28,13.85,1.21,18.12,4,6.93,13.44,2.2,18-1.6,3-2.53,4.45-4.23,4.71-8.08.37-5.32.4-8.56,6.53-10.18,11.24-2.95,24.77-1.51,36.31-1.53,6.18,0,12.42,1,18.57.63,5.2-.31,12.47-1.32,14.29-7.22,1.89-6.14-5.57-6-9.21-3.56"/><path class="cls-4" d="M688.05,534.71c-.72,4.91,9.72,7.33,13.27,7.47,2.77.1,3.63-.49,4.26-3.34s0-3.11-2.57-3.6c-3.42-.65-6.85-.66-10.22-1.28-4.61-.84-7.45-5.4-12.48-5.78-6.31-.48-15.52,4.12-19.54,9.08-3,3.67-4.84,9.86-6.44,14.32-6,16.69-11.44,44.08,10.76,50.57,3.55,1,8.78.19,11.65,2.82,1,.95,1.14,2.17,2.42,2.82,1.8.92,5.34.22,6.89-1"/><path class="cls-4" d="M692.05,549.23c-4.85,0-9.65-.38-14.47-.53a11.2,11.2,0,0,0-8,2.82c-1.32,1-2.42,2.67-4,3.24a9.16,9.16,0,0,1,0-2.28"/><path class="cls-4" d="M685.8,554.48c.91,3,3.83,7.37,2.48,10.7-1.25,3.06-7.45,4.11-10.2,3.16-4.31-1.49-3-6.93-.85-9.92C679.21,555.68,682,556,685.8,554.48Z"/><path class="cls-4" d="M688.8,569.75c-4.78,0-12.51-1.59-16.83.61-3.52,1.79-1.56,6.45,1.28,8,4.34,2.39,14.83,3.15,17.21-2.76C691.37,573.35,688.76,572.59,688.8,569.75Z"/><path class="cls-4" d="M688.05,586.77a6.12,6.12,0,0,0,0-1.71c-4.09-1.94-16.48-.56-7.72,3.84,2,1,6.14,3.2,8.44,2.28,1.39-.56,2.35-2.81,2.48-4.22C691.43,584.53,690.64,584.23,688.05,586.77Z"/><path class="cls-4" d="M695.31,597.78c-1.88,0-5.41-.81-7,.11s-2.31,3.6-.69,5c.85.7,8.28,1.24,9.4.21,1.56-1.43-.56-3.76-1.74-4.77"/><path class="cls-4" d="M690.3,592.27c3.13,1.23,8.81.26,12.29.25,3.92,0,7.56,2.23,11.31.16,3.4-1.87,4.42-6.17,3.44-9.74-2.13-7.79-10.23-3.6-15.8-5.38,4.19,0,9.94-.77,13.18-3.7,3.83-3.46,8.58-12.81,6.78-17.91-3.83.11-7.74,3.49-11.1,5.11-4,1.94-9.09,4.38-13.58,5,9.4-3.58,20.44-8.15,20-20.06,0-1.28.07-5.05-1.49-5.53-1.23-.37-2.63,1.28-3.48,1.87-3.16,2.18-6.86,3.43-10.29,5.1-3.6,1.74-7.52,4-11.28,5.32"/><path class="cls-4" d="M269.62,346A470.82,470.82,0,0,0,117.1,432.37"/><path class="cls-4" d="M112.74,447.6c1.44-2,3.39-5,5.81-4.93,1.84.08,6.22,4.05,7.72,5.07s2.77,2,4.06,2.81c-2.88,2.27-7.94.6-11.25,2.89-4.45,3.07-1.09,7.4,2.56,10.13,1,.72,3,2.61,4.2,2.65,3,.11,6.17-4.5,8.55-6,6.17-3.91,8.73,6.81,13.24,10.35-.83-1.22-2.84.16-4.47.09-3.24-.12-1.93-1.74-4.86,1.21-7.06,7.08,1.74,10.24,6,16.42,6.75-1.1,11.44-11.07,18.71-11.52a48.37,48.37,0,0,0,3.8,9.32c1.13,1.91,5.15,4.82,5.66,6.84.56,2.25-2.4,4-4.53,5.24-.34-2.07-4.33-7.72-6.82-7.34-4.9.75-3.94,6.3-2.44,8.8,1.68,2.82,4.1,8.35,8,6.82,1.16-.45,3.16-3.25,4.08-4a26.79,26.79,0,0,1,6.14-3.69,35,35,0,0,1,4.43-1.44c3.5,3.95,5.09,10.14,7.68,14.72-2.76.56-4.21,2.05-6.36,3.5-3.72-5.73-6.57-2.19-10.68,1.54,2.4,5.74,10.16,7.64,12.59,13.81,3.82-.41,7.73-11.24,13.05-9.66,2.68.8,4.46,9,5.62,11.56,1,2.28,2.6,4.55,3.45,6.8-2.73.95-5.89,1.46-8.72,2.48-.11-3-2.13-5.14-2.62-7.91-3.64-.26-6-.62-6.68,2.75-.92,4.9,5.71,13.75,8.4,17.73,2-4.2,4.94-4.64,9.29-4.82,1.81-.08,3.82.45,4.13-1.54,3.29-.41,3.52,6.39,4.47,8.62.51,1.23,2.08,3.08,1.93,4.47-.33,3-5.46,5-8,4.84-.41-9.71-2.5-8.83-10.91-7.69.09,5.21,3.83,14.05,7,18.55"/><path class="cls-4" d="M214.66,620.34c0-2.29-1.95-8.88-1.28-10.44.58-1.33,4.2-2.13,5.52-1.17,2,1.42.81,6.66,2.71,8.11,1.74,1.32,6.71.31,9,.29,0-5.24-2.37-10.41-2.59-15.66-4.43-.2-8.95-.32-13.37-.4-.09-2.38.19-4.88,0-7.27-.25-2.78-2.36-4.67-2.7-6.89s1.19-3.19,3.89-3.1c.86,2.74,1.52,6.51,3.57,8.34a25.36,25.36,0,0,1,5.13-4.22,30.19,30.19,0,0,1-3.88-11.47c-2.31-.08-6.58-.7-8.28.29"/><path class="cls-4" d="M130.06,428.64a261.36,261.36,0,0,1,85,90.73,261.16,261.16,0,0,1,33,114"/><path class="cls-4" d="M122.25,432.43c19.73,12,62.71,41.78,90.85,97.94a239.48,239.48,0,0,1,25,97"/><path class="cls-4" d="M112.74,473.26A200.31,200.31,0,0,1,202.1,607.37"/><path class="cls-4" d="M112.74,482.31A171.12,171.12,0,0,1,195.1,609.37"/><path class="cls-4" d="M224.36,376.62c-5.19,8.73-31.16,54.47-16.26,111.75,17.3,66.52,75.43,93.62,83,97"/><path class="cls-4" d="M256.58,426.38a91.54,91.54,0,0,0,.52,51c8.62,28.26,28.51,43.44,35,48"/><path class="cls-4" d="M224.1,370.46a327.43,327.43,0,0,1,63,121.91,329,329,0,0,1,2,163"/><path class="cls-4" d="M388.73,167.05c-5,.42-28.24,7.33-24.18-6.07,2.15-7.08,13.3-4.43,18.11-8-8.69,0-8-22.64,2.91-21.52,4.63.48,15.93,15.09,9.84,18.6-.64-6.89,15.61-2.74,16.89,4.65C414.13,165.3,399.74,170.4,388.73,167.05Z"/><path class="cls-4" d="M404.05,172c9.9-.28,16.1.82,21.34-9.62,2.41,10,9.62,18.39,19.42,9.34a62.91,62.91,0,0,0,9.91-12.77c-5.83-.1-29.36,5.61-23-9.89,2.7-6.58,12.95-4.61,18.28-6.17-6.41-8.59-6-22.48,9.2-20.77,7.68.87,17.81,12.88,10,19.58.85-7.89,16,2.34,17.1,7.2,2.25,10.09-15.72,9.71-22.51,9.4,8.44-.93,14.07,14.51,23.53,13.75,5.38-.43,4.14-4.94,7.52-8.13,2.59,6.34,7.8,7.76,14.19,7.57,7.8-.23,9.75-5,15.5-9-6.16-1.31-16-4.06-10.65-12.5,3.16-5,10.73-7.86,16-5,.3-8.33-.83-23.23,13.06-17.92,6.91,2.64,9.38,21.84.13,22.43,5.16-.6,18.23,7.4,12.82,13.22-2.51,2.7-17.55.83-20.84-.64-.34,4.19,10.82,14.91,15.2,16.74,5,2.07,12.51-1.32,13.56-6.87-4,6.72,22.69,9.88,23.12-4.79-6.69-1.93-21.22-8.51-9.93-16a12,12,0,0,1,14.15,1.14c1.35-6.94,4.18-17,12.42-17.91,2.71-.28,5.95-.39,5.76,3.09"/><path class="cls-4" d="M318.66,142.41c11.2-9.48,15,7.8,15.4,15.81,8.52-2.24,13.33-8.81,14.61,4.74,1,10.9-10.65,9.32-19,9.59,4.7,3.58,19.92,18.42,27.08,13,2.42-1.82,1.83-5.66,2.51-8.1,7.58,8.51,15,3.61,21.8-3.32"/><path class="cls-4" d="M338.37,185.66c4.32,0,13.16,2.41,19.12,2.76,8.45.5,13.08-1.43,19.5-6.88,3.92-3.32,6.59-9,11.63-10.63,3,13.64,32.36,14,42.8,11.68,9.59-2.14,22.89-13.91,25.12-23.66C462,171.38,485,179.05,497.81,177.5c12-1.45,19.64-9.6,27.13-18,1.54,12.67,18.71,27.32,30.9,29.41,8.17,1.39,20.77-2.1,24.48-9.84"/><path class="cls-4" d="M571,193.87c-14.63,0-37.59,1.08-42.71-16.39-10.66,2.84-19.21,9.13-31,9.79-6.25.35-15.7,1.46-21.87-.05-9-2.2-9-11.54-16-15.23-2.82,4.55-4.56,9.68-8.63,13.38-7.26,6.6-16.16,6.32-25.31,6.31-7.75,0-13.58.13-20.57-3.39-3.61-1.82-7-3.87-10.65-5.44-11.1,12.45-33.39,32.85-49.9,16.49"/><path class="cls-4" d="M327.27,951.45c5,1.54,9.55-2.17,14.6-1.17,6.68,1.33,13.57,4.18,20.52,4.51,12.29.59,21,.06,31.49-7.33,1.57-1.11,5.8-2.65,4.83-5.39-1.92-5.45-15.22,3.84-18.58,4.38-9.41,1.52-19.07-.79-28.23-2a32.12,32.12,0,0,0-16.35,2c-2.72,1.08-8.62,2-10.11,4.41C325.59,951.38,325.73,951,327.27,951.45Z"/><path class="cls-4" d="M335.56,932.28c4.26-.59,5.23-1.95,9.25,1.13,2.1,1.6,3.63,4.12,5.8,5.58,2.6,1.75,6.49,1,9.53.73,3.55-.35,7.05-1.35,10.63-1.88,5.58-.83,10.13-1.25,14.78-4.54,3.27-2.31,6.56-4.15,9.57-6.8a27.57,27.57,0,0,1,2.84-2.23"/><path class="cls-4" d="M393.28,921.3c-8.18,0-14.75,4.61-22.55,6-6.83,1.23-15.15-.62-21.72-2.66-2.49-.77-5.63-2.14-8.24-2,1.52-4.74,6.63-6.63,10.89-8.3,5.14-2,10.61-4,16-2.25a42,42,0,0,1,18.17,11.14"/><path class="cls-4" d="M346.94,913.07c4.05-1.64,10.73-4.92,13.33-8.35"/><path class="cls-4" d="M310.62,949.74c0-2.8-.72-6.67-.72-9.79,0,2.59.09,5.21-.06,7.78-1.67-.51-2.87-2.63-4.68-3.38-2.31-1-5.09-.79-7.53-.8-4.7,0-9.72.77-14.46,1.2-1.27.12-3.63.72-4.83.13-1.67-.82-3.9-5.31-5.34-6.82-1.77-1.85-4.79-6.41-7.68-6.37-.47,4.87,2.63,10.06,6,13.28,5.22,4.92,10.77,6.16,17.77,5.27,5.31-.67,10.47-3.71,16-2.75C307.65,947.92,309.31,950.57,310.62,949.74Z"/><path class="cls-4" d="M369.11,925.2c3.16-4.69-1-9-5.72-9.61-4.15-.52-19.64,2.7-12.28,9.33"/><path class="cls-4" d="M363.19,926.17c5.77-6.13-7.88-9.63-7.15-2"/><path class="cls-4" d="M275.88,935.37c3,3.76,11.78,4.33,16.09,3.18a19.6,19.6,0,0,0,7-3.36c2.52-2,8.27-5.53,9-8.63-6.36,4.09-12.87,3.61-20.44,3.18-5.39-.31-14.62-1.75-18.51-6,7.84-8.87,20-13.16,30.54-8.57,4,1.76,7.75,3.72,9.65,7.91"/><path class="cls-4" d="M312.62,934.46c0-11.87-2.08-23.71-5-35.22-1.21-4.77-5.44-10.9-4.53-16.08,1-5.93,10.58-6.64,11.39-12.81"/><path class="cls-4" d="M317.91,880.71c5,.32,10.41-2,15-3.68,2.11-.76,6-2.64,8.37-1.63,4.87,2.1,4.11,13-2.18,12.26"/><path class="cls-4" d="M325.09,864.7c4.93.07,10.08,1.58,14.74-.58,6.13-2.83,10.84-8.34,18.06-8.5,3.25-.07,12.29,2.41,13.33,5.77,1.64,5.33-3.2,7.71-7.53,7.58-2-.06-8.24-2.14-7.5,1.37,1,4.57,12.06,5.54,14.33,2,3.41-5.38,1.06-12.23-3.48-15.94-5-4.09-10.72-.94-16,1.25-3.89,1.62-8,3.54-12.2,4.26s-5.84-.17-9.5-1.56c-2.49-.94-4.85-.65-6,2C322.77,863.61,322.45,865,325.09,864.7Z"/><path class="cls-4" d="M313.26,861.47c2.65,3.47-.37,5.35-4.11,4.94-2.62-.29-5.33-2.19-7.79-3.11-2.9-1.08-5.82-2-8.69-3.1-4-1.58-7.11-1.83-8.76,3.06a9.74,9.74,0,0,0,0,6.65c.73,1.61,2.44,2.71,3.19,4.3-4.24,1-6.6-6.87-6.38-9.92.31-4.48,4.73-7.79,9.13-8,4.58-.28,8.12,3.56,12.44,4.72C305.64,861.85,309.09,861.21,313.26,861.47Z"/><path class="cls-4" d="M321.18,848.66c4.53,1.14,9.27,3.49,13.92,1.65,2.39-.94,4.61-2.6,7.06-3.58,1.36-.55,3.86-.92,4.41-2.16-4.93-.39-10.37,1.69-15,0a23.91,23.91,0,0,0-10.77-1.81c-5,.33-8.93,2.08-14,1.64-1.29-.11-5.36-1-6.13.52-1.58,3.21,6.91,4.49,8.81,4.48,3.51,0,6.38-2.9,10-2.11,3.06.68,4.93,2.54,8.31,2.39"/><path class="cls-4" d="M330.57,836.6c-3.58.46-8.59-.22-12.82.7-2.31.5-5.26,1.74-7.61,1.69C309.35,832.8,326.05,833.3,330.57,836.6Z"/><path class="cls-4" d="M415.75,862.12c.13-2.92,5.46-11.91,7.79-15.81a88.48,88.48,0,0,1,7.06-10.12c2-2.5,7.87-8.26,11.07-4.56"/><path class="cls-4" d="M447.73,830.81c.12-3.5-1.79-8.23-6.27-9.58-5.21-1.57-8.73,1.34-11.67,5.27-6,7.93-13.06,17.79-15.4,27.63"/><path class="cls-4" d="M405.32,846.14c-.06-4.28,4.58-9.74,6.62-13.2,1.86-3.16,4.12-6.43,5.5-9.85.89-2.23,1.36-4.52,2.53-6.64"/><path class="cls-4" d="M399.56,840.62c.14-4,3.66-8.34,5.32-11.91a47.41,47.41,0,0,0,4-13.26c.94-6.06,2.84-14.09-1.68-19-7.7-8.41-21,1.92-26.45,8.42-3.19,3.8-7.51,11.21-7.82,16.48"/><path class="cls-4" d="M380.32,827.1c-.3-5.25,4.63-12.16,9.27-14.45,2.76-1.36,7.66-2,9.62.75,3.05,4.32.06,12.47-2.82,16.06-1.4,1.76-3.86,2.84-4.8,4.82"/><path class="cls-4" d="M366.58,817.44c1.37-7.55,6.77-13.61,9.95-20.34"/><path class="cls-4" d="M358.06,813.3c6-3.46,8.43-16.28,9.67-22.71,1.45-7.52.77-14.28-8.22-14.93-9.85-.71-16.63,6-20.18,14.67-1.66,4.06-4.47,8.43-5.74,12.46"/><path class="cls-4" d="M339.37,802.53c-.61-5.18,10.35-22.5,16.27-15.9,5.13,5.72-3.17,15.32-3.9,21.15"/><path class="cls-4" d="M403,970.4a281.28,281.28,0,0,1,35.27-131.92"/><path class="cls-4" d="M454.29,829.51A261.82,261.82,0,0,0,414,971.43"/><path class="cls-4" d="M438.56,837.11c2.57-2,10.71-6.23,13.27-2.33"/><path class="cls-4" d="M456.12,828.45c2.43,0,8-1,9.28,1.64"/><path class="cls-4" d="M467.47,829.51c0-4.92.06-11.8,6.22-12.8a7.79,7.79,0,0,1,8.1,4"/><path class="cls-4" d="M485.17,821.58c-.47-3.91,8.18-7.5,11.05-8.65,1.65-.66,6-2.39,7.4-.45"/><path class="cls-4" d="M506.12,812.34c5,.37,9.79-2.17,14,1.65"/><path class="cls-4" d="M524.54,815c4.82,0,14.15-1.86,17.24,3.13,8.72.07,14.83,8.18,16.57,16.33,1.29,6.07-.78,12.4-4.42,17.29s-11,7.63-17,5.84c-4.45-1.33-10.15-4.31-11.73-9"/><path class="cls-4" d="M545.27,842.15c.16-5.6-4.26-7-9.38-6.81-6,.24-11.31,5.84-14.26,10.9"/><path class="cls-4" d="M472,963.54a436.42,436.42,0,0,1,18.16-82c12.48-38.23,23-52,37.11-56.93a36.83,36.83,0,0,1,12-2"/><path class="cls-4" d="M460.49,965.64a667,667,0,0,1,14.67-71.09c7.93-29.95,13.87-43.77,24.12-56.95a112.5,112.5,0,0,1,20-20"/><path class="cls-4" d="M447.46,967.25a612,612,0,0,1,16.7-72.72c8-27,14.2-40.85,21.11-53a202.4,202.4,0,0,1,16.05-24"/><path class="cls-4" d="M438.3,969.48a387.2,387.2,0,0,1,10.85-67,307,307,0,0,1,12.07-38,268.6,268.6,0,0,1,20.08-40"/><path class="cls-4" d="M426,969.45a372.34,372.34,0,0,1,37.28-135.92"/><path class="cls-4" d="M301.51,806.89c.31-3.07-4.08-19-9.37-14.59-4.15,3.45-1.9,15,1.49,18.15"/><path class="cls-4" d="M308.67,805.47c0-7.26-4.22-14.79-8.84-20.36-3.84-4.63-9.33-4-13.54-.5-5.09,4.17-7.58,8.75-7.23,15.54s5,10.92,7.4,16.73"/><path class="cls-4" d="M316.79,802.87c0-6.45-.65-11.69-4.34-17.1-2.12-3.1-3.95-7.76-7.41-9.6-6.45-3.45-17.4-4.52-24.27-1.8-3.38,1.33-5.23,3.64-6.51,7-2.5,6.62-2.48,15.73-1.55,22.62,1.07,7.88,7.57,13.71,10.39,20.75"/><path class="cls-4" d="M275.44,837.85c1-1.66-1.58-5.79-2.34-7.44-1.2-2.62-3.13-5.53-2.89-8.57.22-2.7,2.61-4.34,5.27-4.74"/><path class="cls-4" d="M270.41,848.34c-2.91-5.2-7.19-10-9.08-15.71-1.54-4.68-1.16-9.76-1.12-14.6,0-2.91.52-3.46,3.15-4.95,2.28-1.3,5-3,7.61-3.63"/><path class="cls-4" d="M269.79,802.53c-5.73.07-9.5,7.33-10.73,11.89a54.31,54.31,0,0,0-.33,26.6,27.32,27.32,0,0,0,7.72,12.73,9.38,9.38,0,0,1,3,4.61"/><path class="cls-4" d="M267.46,891.28c.19-2.42-2-7.65-2.85-10.41-1.53-4.84-3.2-9-3.31-14.12-.09-4,0-8.43,2.18-11.74"/><path class="cls-4" d="M266.71,907.26c-6.64-12.11-14.38-23.4-13.75-37.87.36-8.31,3-16.69,4.1-24.89"/><path class="cls-4" d="M269,931.7a287.8,287.8,0,0,1,.09-42.68,207.65,207.65,0,0,1,3.15-24.88c3.6-18.6,5.66-29.29,13.08-39,3.31-4.31,13-15.35,34-19.93l16.07-35"/><path class="cls-4" d="M339.42,765a402.06,402.06,0,0,0,20.12-57.68,402.89,402.89,0,0,0,11.12-60l-13.07,0"/><path class="cls-4" d="M346.38,764.34a481.66,481.66,0,0,0,22.68-63.44,492.63,492.63,0,0,0,13.8-66.36L369.81,634"/><path class="cls-4" d="M308.74,770.22c6.05-11.48,12-23.8,17.75-37a549.56,549.56,0,0,0,28.16-81.94"/><path class="cls-4" d="M294.52,770.19a280.34,280.34,0,0,0,51.16-133.9l16.68,0"/><path class="cls-4" d="M485.22,800.26a582.13,582.13,0,0,1-21.79-74.55,600.91,600.91,0,0,1-11.91-77.48l14.33,0"/><path class="cls-4" d="M477.58,807.37a598,598,0,0,1-29.45-81.81,608.92,608.92,0,0,1-17.44-85.63l17.57-.77"/><path class="cls-4" d="M518.86,807.14c-6.58-14.84-13.08-30.77-19.3-47.8a798.51,798.51,0,0,1-30.5-105.91"/><path class="cls-4" d="M534.46,807.17a385.2,385.2,0,0,1-37-81.4A416,416,0,0,1,479,634.09l-18.3,0"/><path class="cls-4" d="M457.81,787.83c.17,5.14.86,8-3.26,12.07-3.9,3.88-9.77,3.8-14.57,1.47-8.09-3.93-15.21-14.21-15.24-23.43-.44,1.9-5.66,6-7.66,3.95-1.13-1.16,4.42-10.75,5.05-12.13,1.15-2.53,3.51-5.5,3.27-8.43,7.62,8.95,7.79,22,19.86,27C450.07,790.3,457.38,792.13,457.81,787.83Z"/><path class="cls-4" d="M416.37,753.86c1.22,5.37,1.47,12.12-2.77,16.21-1.86,1.78-6.82,5-9.33,3.08-3.2-2.45-4.12-11.11-4.3-14.71a36.72,36.72,0,0,1,.31-8.52c-5.62-.42-19.58,4.29-20.86-4.47-1.14-7.73,11.88-11.31,17.79-11.16-.17-3.44-1.28-6.4.41-9.75,2-4,6.46-6.64,10.69-7.68,9.51-2.34,6.79,8.89,8,15,5.13-.55,10.6-2.56,15.63-.19s7.33,7.78,3.91,12.65C433,748.37,422,753,416.37,753.86Z"/><path class="cls-4" d="M389.53,760c-.6,7.83-15.74,11.27-19.78,4.48-2.33-3.93,2.53-7,5.61-9.3C377.1,760.33,384,763.13,389.53,760Z"/><path class="cls-4" d="M390.16,727c-.12-4.93-.13-14.53,3.53-18.42,1.51-1.61,4.07-2.53,5.89-3.56-1.25-1.38-4.2-4.59-6.35-4.51-2.68.1-4.85,4.89-6.3,6.85C382.94,712.72,385.78,720.2,390.16,727Z"/><path class="cls-4" d="M422.64,724.79c0-5.34,1.08-10.74-3.43-14.34-1.84-1.47-3.92-2.93-5.24-4.81,4.14-3.18,12-2.51,15.38,1.48C433.25,711.75,430.91,720,422.64,724.79Z"/><path class="cls-4" d="M431.47,630.34c-2.64-.34-5.15-2.47-7.09-4.23-2,6.51-8.22,11.51-9.59,18.32-1.12,5.53,1.16,8.05,3.21,12.86,1.35,3.2,2.28,7.59-2.42,8-6.81.62-7.59-9.1-7.54-13.68s1-9,1.71-13.47c.19-1.23,1.56-5.56.65-6.86s-3.1-.94-4.42-1.64c-2.28-1.2-3.63-5.43-6.54-5.47-2.58,0-3,4.62-4.28,7,4.17,1.69,7.37,2.55,8.31,7.72,1.16,6.36-3.2,11.79-4.13,17.8-1.35,8.79,3.18,19.09,12.93,20,13.52,1.25,21.31-16,13.65-26-2.77-3.63-5.64-6.06-4.61-10.94.64-3,2-6.18,2.82-9.1"/><path class="cls-4" d="M416.85,595.26c3.6-3.64,6.73-16,1.44-19.34.08,4.05-2.38,7.86-2.1,12.13C416.32,590.13,417.22,592.26,416.85,595.26Z"/><path class="cls-4" d="M419.17,604.61c7.17-4,9.25-18.23,8.75-25.54-.35-5-3.94-10.19-8.07-13.1-6.31-4.46-9.07,11.43-9.31,15.72C410,591,412,600.41,419.17,604.61Z"/><path class="cls-4" d="M419.48,616c6-2,10-12.73,11.84-18,2-6,3.25-13.38,1.87-19.69-1.5-6.88-6.06-13.15-11.22-17.68-4.35,5-9.76,9.05-14.06,14.08-5,5.84-3.47,16-2.12,23,1.52,7.78,2.38,14,7.3,20,1.11,1.34,1.84,4.1,3.71,3"/><path class="cls-4" d="M483.93,605.41c-9.92,0-19.76,1-29.69.94-2.58,0-5.9.53-8.31-.41.9-3.75,3.41-7.35,4.33-11.43.81-3.58,1.07-7.41,2-10.87"/><path class="cls-4" d="M394.13,604.89c-.56-3.24-4.32-6.06-5.66-9.18a21.78,21.78,0,0,1-2-8.46c.15,5.94,5.54,12.82,8.58,17.58-10.63.61-22.65,2.06-33.26.61a54.49,54.49,0,0,0-7.4-1"/><path class="cls-4" d="M297.58,927.17c.63-2.72,1.66-6.5-.28-8.85-3.4-4.13-8.73-3.37-13.56-3.36-3.45,0-4.66,2.22-4.71,5.58a8.81,8.81,0,0,0,2.78,6.46"/><path class="cls-4" d="M293.57,927.57c.64-.47.76-3,.58-3.91-.55-3-4.5-4.25-7.09-4.4-3-.18-4.43.81-3.57,3.78.48,1.67,1.47,3.75,3,4.66"/><polyline class="cls-4" points="195.8 1075.99 268.92 964.37 268.95 945.59"/><path class="cls-4" d="M544.8,1076.69,481.51,959.14c3.53-15.18,8-31.45,13.62-48.55a562.26,562.26,0,0,1,24.12-61"/><path class="cls-4" d="M278.69,966.91A465.19,465.19,0,0,0,478,965.56"/><polygon class="cls-4" points="148.95 1001.9 178.62 976.66 179.62 666.96 123.14 658.97 122.5 976.54 148.95 1001.9"/><path class="cls-4" d="M147.53,665c.07,4,1.95,7.1,3.37,10.84,3.42,9,5,17.54,6.35,27,1.5,10.83,2.93,22.28.36,33.08-2.77,11.56-9.61,21.42-11.77,33.26-3.05,16.69,2.91,27.34,7,42.9,6,22.82,8.9,55.38.56,77.33-6.44,16.94-12.22,42.2-3.17,59.43"/><line class="cls-4" x1="258.73" y1="841.02" x2="179.38" y2="787.7"/><path class="cls-4" d="M201.48,798.62a294.49,294.49,0,0,0,54-62.51,292.79,292.79,0,0,0,26.1-51"/><path class="cls-4" d="M195.76,791.34a311.86,311.86,0,0,0,47.72-57.26,312.1,312.1,0,0,0,29.12-56.94"/><path class="cls-4" d="M181.5,757.45a181.54,181.54,0,0,0,61.13-97.37"/><path class="cls-4" d="M234.33,660.07A324.16,324.16,0,0,1,206.54,707a322.93,322.93,0,0,1-25.06,31"/><polyline class="cls-4" points="197.25 784.61 197.29 763.25 181.49 764.16"/><polyline class="cls-4" points="216.42 766.03 215.46 747.03 201.58 747"/><polyline class="cls-4" points="234.16 741.88 232.51 720.06 216.51 722.64"/><polyline class="cls-4" points="250.76 718.03 248.57 693.1 234.25 699.07"/><polyline class="cls-4" points="262.38 693.12 259.06 675.99 238.75 680.62"/><path class="cls-4" d="M182,663.32c8.4-.05,24.34-5.39,25.59-15.34.58-4.67,1.31-13.85-1.18-18.13-4-6.93-13.43-2.22-18,1.57-3,2.53-4.46,4.23-4.73,8.07-.38,5.32-.41,8.56-6.55,10.16-11.25,2.93-24.77,1.47-36.31,1.46-6.18,0-12.42-1-18.57-.66-5.19.29-12.47,1.3-14.3,7.19-1.9,6.14,5.56,6,9.2,3.58"/><path class="cls-4" d="M147.73,638.55c.73-4.91-9.71-7.35-13.26-7.49-2.77-.11-3.63.47-4.27,3.32s0,3.11,2.57,3.61c3.42.65,6.85.68,10.21,1.3,4.61.85,7.45,5.42,12.47,5.8,6.32.5,15.54-4.09,19.57-9,3-3.66,4.85-9.84,6.46-14.3,6-16.68,11.53-44.06-10.66-50.6-3.55-1-8.78-.2-11.65-2.84-1-.95-1.13-2.17-2.4-2.82-1.8-.93-5.35-.24-6.9,1"/><path class="cls-4" d="M143.75,624c4.86,0,9.65.4,14.47.55a11.11,11.11,0,0,0,8-2.8c1.32-1,2.42-2.66,4-3.22a9.08,9.08,0,0,1,0,2.27"/><path class="cls-4" d="M150,618.78c-.9-3-3.82-7.37-2.46-10.7,1.25-3.06,7.46-4.1,10.2-3.14,4.31,1.5,3,6.94.83,9.92C156.61,617.59,153.78,617.28,150,618.78Z"/><path class="cls-4" d="M147.05,603.51c4.78,0,12.51,1.62,16.83-.58,3.52-1.78,1.57-6.44-1.27-8-4.34-2.4-14.82-3.18-17.21,2.73C144.48,599.91,147.09,600.67,147.05,603.51Z"/><path class="cls-4" d="M147.83,586.49a6.12,6.12,0,0,0,0,1.71c4.08,1.94,16.48.59,7.73-3.83-2-1-6.14-3.21-8.44-2.29-1.39.56-2.36,2.81-2.49,4.21C144.45,588.72,145.24,589,147.83,586.49Z"/><path class="cls-4" d="M140.6,575.47c1.88,0,5.4.81,7-.11s2.32-3.59.7-4.94c-.84-.7-8.27-1.25-9.4-.23-1.55,1.43.55,3.77,1.74,4.78"/><path class="cls-4" d="M145.59,581c-3.12-1.23-8.81-.28-12.29-.27-3.92,0-7.55-2.24-11.31-.19-3.4,1.87-4.43,6.17-3.46,9.74,2.12,7.79,10.22,3.62,15.79,5.41-4.19,0-9.94.75-13.19,3.68-3.84,3.45-8.6,12.79-6.81,17.89,3.83-.1,7.75-3.47,11.11-5.08,4-1.94,9.1-4.37,13.59-4.95-9.41,3.56-20.46,8.11-20.06,20,0,1.28-.08,5,1.48,5.53,1.22.38,2.63-1.27,3.49-1.86,3.16-2.17,6.85-3.42,10.29-5.08,3.61-1.74,7.53-4,11.29-5.3"/><path class="cls-4" d="M565.78,828.06a471.11,471.11,0,0,0,152.69-86"/><path class="cls-4" d="M722.86,726.81c-1.44,2-3.4,5-5.82,4.92-1.84-.08-6.21-4.06-7.71-5.08s-2.76-2-4.06-2.82c2.89-2.26,8-.59,11.26-2.87,4.46-3.07,1.11-7.4-2.54-10.13-1-.72-3-2.62-4.19-2.66-3-.12-6.18,4.48-8.56,6-6.19,3.89-8.72-6.83-13.22-10.38.83,1.22,2.83-.15,4.47-.08,3.24.13,1.92,1.74,4.86-1.2,7.07-7.07-1.72-10.24-6-16.43-6.75,1.09-11.46,11.05-18.73,11.48a48.64,48.64,0,0,0-3.78-9.33c-1.13-1.91-5.14-4.83-5.64-6.85-.57-2.25,2.4-4,4.53-5.22.34,2.06,4.31,7.72,6.81,7.34,4.9-.73,4-6.28,2.46-8.79-1.68-2.83-4.09-8.36-8-6.84-1.15.45-3.16,3.25-4.08,4a26.78,26.78,0,0,1-6.15,3.67,32.94,32.94,0,0,1-4.43,1.43c-3.49-4-5.07-10.15-7.65-14.74,2.76-.55,4.22-2,6.36-3.48,3.72,5.74,6.57,2.21,10.69-1.52-2.39-5.74-10.15-7.65-12.56-13.83-3.82.4-7.76,11.22-13.07,9.63-2.68-.81-4.44-9-5.6-11.57-1-2.28-2.59-4.56-3.44-6.81,2.74-.94,5.89-1.45,8.73-2.46.11,3,2.12,5.15,2.6,7.91,3.64.27,6.06.63,6.69-2.73.93-4.9-5.69-13.77-8.37-17.74-2,4.19-5,4.63-9.29,4.8-1.82.07-3.82-.46-4.14,1.52-3.28.41-3.5-6.39-4.45-8.63-.51-1.22-2.08-3.08-1.92-4.47.33-3,5.47-5,8-4.82.39,9.71,2.48,8.84,10.89,7.71-.07-5.21-3.8-14.05-7-18.57"/><path class="cls-4" d="M621.29,553.87c0,2.29,1.93,8.88,1.25,10.44-.57,1.33-4.2,2.12-5.51,1.16-2-1.43-.8-6.67-2.7-8.11-1.74-1.33-6.71-.33-9.05-.32,0,5.24,2.35,10.42,2.56,15.67,4.43.21,8.94.34,13.37.43.09,2.38-.2,4.88,0,7.26.25,2.79,2.35,4.68,2.69,6.9s-1.19,3.19-3.9,3.09c-.85-2.73-1.5-6.51-3.55-8.34a25.93,25.93,0,0,1-5.13,4.21,30.21,30.21,0,0,1,3.85,11.47c2.31.09,6.58.72,8.28-.27"/><path class="cls-4" d="M705.5,745.73a260.21,260.21,0,0,1-117.63-205"/><path class="cls-4" d="M713.32,742c-19.7-12-62.63-41.92-90.65-98.13a239.59,239.59,0,0,1-24.81-97.05"/><path class="cls-4" d="M722.91,701.15a200.31,200.31,0,0,1-89.09-134.28"/><path class="cls-4" d="M722.93,692.1a171.11,171.11,0,0,1-82.11-127.22"/><path class="cls-4" d="M611.1,797.57c5.21-8.73,31.26-54.41,16.48-111.72-17.17-66.56-75.24-93.77-82.8-97.16"/><path class="cls-4" d="M579,747.74a90.5,90.5,0,0,0-35.31-99"/><path class="cls-4" d="M611.35,803.73a326,326,0,0,1-64.43-285"/><path class="cls-4" d="M446.31,1006.81c4.95-.41,28.25-7.28,24.17,6.11-2.16,7.08-13.31,4.41-18.13,8,8.69,0,8,22.66-3,21.51-4.62-.48-15.89-15.12-9.79-18.62.62,6.9-15.62,2.71-16.88-4.68C420.91,1008.51,435.3,1003.44,446.31,1006.81Z"/><path class="cls-4" d="M431,1001.85c-9.9.27-16.1-.85-21.36,9.58-2.39-10-9.59-18.41-19.4-9.37a62.47,62.47,0,0,0-9.93,12.74c5.82.12,29.37-5.55,23,9.94-2.71,6.57-13,4.59-18.29,6.13,6.4,8.61,5.92,22.49-9.24,20.75-7.68-.88-17.79-12.91-9.92-19.6-.87,7.89-16-2.37-17.08-7.23-2.24-10.09,15.73-9.68,22.53-9.35-8.45.91-14-14.54-23.51-13.8-5.38.42-4.15,4.93-7.54,8.12-2.58-6.35-7.78-7.78-14.17-7.6-7.8.21-9.77,5-15.52,8.92,6.16,1.32,16,4.09,10.62,12.51-3.16,5-10.75,7.85-16.05,5-.31,8.33.79,23.22-13.09,17.89-6.9-2.65-9.34-21.86-.08-22.44-5.17.6-18.22-7.43-12.8-13.24,2.52-2.7,17.55-.79,20.84.68.35-4.19-10.79-14.93-15.16-16.77-5-2.08-12.52,1.3-13.58,6.85,4-6.72-22.67-9.93-23.13,4.74,6.69,2,21.21,8.56,9.9,16a12,12,0,0,1-14.15-1.17c-1.37,6.94-4.22,17-12.46,17.88-2.7.28-5.94.39-5.75-3.09"/><path class="cls-4" d="M516.33,1031.58c-11.22,9.47-15-7.82-15.36-15.83-8.53,2.22-13.36,8.78-14.61-4.78-1-10.89,10.67-9.29,19-9.55-4.69-3.59-19.88-18.45-27.06-13.07-2.41,1.81-1.83,5.64-2.52,8.09-7.56-8.53-15-3.64-21.81,3.27"/><path class="cls-4" d="M496.71,988.3c-4.32,0-13.16-2.44-19.12-2.8-8.44-.51-13.08,1.4-19.51,6.84-3.93,3.32-6.61,9-11.65,10.61-3-13.65-32.33-14.07-42.78-11.76-9.6,2.11-22.92,13.85-25.17,23.6-5.47-12.46-28.4-20.18-41.23-18.65-12,1.42-19.66,9.56-27.17,17.92-1.51-12.67-18.65-27.35-30.84-29.46-8.16-1.42-20.78,2-24.49,9.78"/><path class="cls-4" d="M264.08,979.62c14.63,0,37.6-1,42.68,16.47,10.67-2.82,19.23-9.08,31-9.72,6.25-.34,15.71-1.42,21.87.1,9,2.21,9,11.55,16,15.25,2.83-4.53,4.58-9.66,8.66-13.36,7.27-6.58,16.16-6.28,25.32-6.25,7.75,0,13.58-.11,20.56,3.43,3.61,1.83,7,3.88,10.64,5.46,11.13-12.43,33.45-32.78,49.94-16.4"/><rect class="cls-4" x="85.1" y="97.37" width="667" height="979"/></svg>