<svg id="Layer_1" data-name="Layer 1" xmlns="http://www.w3.org/2000/svg" viewBox="0 0 822 1122"><defs><style>.cls-1{font-size:162.57px;}.cls-1,.cls-3,.cls-4{fill:#d89d70;}.cls-1,.cls-3{font-family:HelveticaNeue-Bold, Helvetica Neue;font-weight:700;}.cls-2{fill:#d6bd80;}.cls-3{font-size:176.01px;}</style></defs><text class="cls-1" transform="translate(38.75 145.79)">A</text><circle class="cls-2" cx="94.71" cy="42.57" r="8.75"/><circle class="cls-2" cx="80.96" cy="62.82" r="8.75"/><circle class="cls-2" cx="72.2" cy="85.32" r="8.75"/><circle class="cls-2" cx="63.45" cy="108.34" r="8.75"/><circle class="cls-2" cx="55.96" cy="131.09" r="8.75"/><circle class="cls-2" cx="108.48" cy="62.82" r="8.75"/><circle class="cls-2" cx="116" cy="85.32" r="8.75"/><circle class="cls-2" cx="123.49" cy="108.34" r="8.75"/><circle class="cls-2" cx="133.49" cy="131.09" r="8.75"/><text class="cls-3" transform="translate(784.3 969.61) rotate(180)">A</text><circle class="cls-2" cx="723.71" cy="1081.36" r="9.48"/><circle class="cls-2" cx="738.61" cy="1059.44" r="9.48"/><circle class="cls-2" cx="748.08" cy="1035.08" r="9.48"/><circle class="cls-2" cx="757.56" cy="1010.16" r="9.48"/><circle class="cls-2" cx="765.66" cy="985.53" r="9.48"/><circle class="cls-2" cx="708.8" cy="1059.44" r="9.48"/><circle class="cls-2" cx="700.66" cy="1035.08" r="9.48"/><circle class="cls-2" cx="692.56" cy="1010.16" r="9.48"/><circle class="cls-2" cx="681.72" cy="985.53" r="9.48"/><path class="cls-4" d="M405.72,690.68a117.17,117.17,0,0,0,165.71,0h0a117.17,117.17,0,0,0,0-165.71l-28.38-28.38L377.34,662.3Z"/><path class="cls-4" d="M183.55,524.66a117.19,117.19,0,0,0,0,165.72h0a117.17,117.17,0,0,0,165.71,0l28.08-28.08L211.62,496.59Z"/><rect class="cls-4" x="260.16" y="379.41" width="234.35" height="234.35" transform="translate(-240.62 412.26) rotate(-45)"/><path class="cls-4" d="M283.72,816.48c53.89-52.06,94.35-130.13,94.41-182.18-.06,52.05,40.32,126.68,94.21,174.13"/><path class="cls-4" d="M100.84,234.46a21.65,21.65,0,0,0,30.62.36h0a21.65,21.65,0,0,0,.36-30.61l-5.19-5.31-31,30.26Z"/><path class="cls-4" d="M60.16,203.31a21.63,21.63,0,0,0-.36,30.61h0a21.64,21.64,0,0,0,30.61.36l5.25-5.12-30.26-31Z"/><rect class="cls-4" x="74.37" y="176.89" width="43.3" height="43.3" transform="translate(-111.4 123.6) rotate(-44.33)"/><path class="cls-4" d="M78.08,257.47c10-9.56,17.61-23.9,17.84-33.46-.23,9.56,7.06,23.44,17,32.38"/><path class="cls-4" d="M717.78,894.38a21.66,21.66,0,0,0-30.61.9h0a21.66,21.66,0,0,0,.91,30.61l5.39,5.08,29.7-31.5Z"/><path class="cls-4" d="M759.71,923.83a21.65,21.65,0,0,0-.9-30.61h0a21.66,21.66,0,0,0-30.61.91l-5,5.34,31.51,29.69Z"/><rect class="cls-4" x="702.43" y="908.42" width="43.3" height="43.3" transform="translate(-449.38 819.06) rotate(-46.69)"/><path class="cls-4" d="M739.76,870.55c-9.94,9.76-17,24.4-16.44,34.17-.55-9.77-8.41-23.33-18.35-31.65"/></svg>