<svg id="Layer_1" data-name="Layer 1" xmlns="http://www.w3.org/2000/svg" viewBox="0 0 822 1122"><defs><style>.cls-1{font-size:174.17px;}.cls-1,.cls-3,.cls-4{fill:#6f9797;}.cls-1,.cls-3{font-family:HelveticaNeue-Bold, Helvetica Neue;font-weight:700;}.cls-2{fill:#d6bd80;}.cls-3{font-size:170.46px;}</style></defs><text class="cls-1" transform="translate(33.75 159.2)">8</text><circle class="cls-2" cx="84.68" cy="152.26" r="9.38"/><circle class="cls-2" cx="115.49" cy="120.11" r="9.38"/><circle class="cls-2" cx="48.51" cy="120.1" r="9.38"/><circle class="cls-2" cx="52.52" cy="73.21" r="9.38"/><circle class="cls-2" cx="59.22" cy="51.77" r="9.38"/><circle class="cls-2" cx="104.77" cy="51.77" r="9.38"/><circle class="cls-2" cx="82" cy="43.73" r="9.38"/><circle class="cls-2" cx="111.47" cy="71.86" r="9.38"/><circle class="cls-2" cx="56.54" cy="142.88" r="9.38"/><circle class="cls-2" cx="108.79" cy="142.88" r="9.38"/><text class="cls-3" transform="translate(809.03 981.99) rotate(180)">8</text><circle class="cls-2" cx="759.18" cy="988.78" r="9.18"/><circle class="cls-2" cx="729.03" cy="1020.25" r="9.18"/><circle class="cls-2" cx="794.59" cy="1020.26" r="9.18"/><circle class="cls-2" cx="790.66" cy="1066.15" r="9.18"/><circle class="cls-2" cx="784.1" cy="1087.14" r="9.18"/><circle class="cls-2" cx="739.53" cy="1087.14" r="9.18"/><circle class="cls-2" cx="761.81" cy="1095.01" r="9.18"/><circle class="cls-2" cx="732.97" cy="1067.47" r="9.18"/><circle class="cls-2" cx="786.73" cy="997.97" r="9.18"/><circle class="cls-2" cx="735.59" cy="997.96" r="9.18"/><path class="cls-4" d="M185.61,266.72C168.6,247,141,247,124,266.72h0c-17,19.71-17,51.66,0,71.37l10.55,12.22,61.6-71.37Z"/><path class="cls-4" d="M268.2,338.22c17-19.71,17-51.66,0-71.37h0c-17-19.71-44.59-19.71-61.6,0l-10.44,12.09,61.6,71.37Z"/><polygon class="cls-4" points="196.16 278.94 134.56 350.31 196.16 421.69 257.76 350.31 196.16 278.94"/><path class="cls-4" d="M177.86,543.24c-17-19.71-44.59-19.71-61.6,0h0c-17,19.71-17,51.66,0,71.37l10.55,12.22,61.6-71.37Z"/><path class="cls-4" d="M260.44,614.74c17-19.71,17-51.66,0-71.37h0c-17-19.71-44.59-19.71-61.6,0l-10.43,12.09L250,626.83Z"/><polygon class="cls-4" points="188.41 555.46 126.81 626.83 188.41 698.2 250.01 626.83 188.41 555.46"/><path class="cls-4" d="M177.86,818c-17-19.7-44.59-19.7-61.6,0h0c-17,19.71-17,51.67,0,71.38l10.55,12.22,61.6-71.37Z"/><path class="cls-4" d="M260.44,889.54c17-19.71,17-51.67,0-71.38h0c-17-19.7-44.59-19.7-61.6,0l-10.43,12.1L250,901.63Z"/><polygon class="cls-4" points="188.41 830.26 126.81 901.63 188.41 973 250.01 901.63 188.41 830.26"/><path class="cls-4" d="M611.16,787c-17-19.71-44.59-19.71-61.6,0h0c-17,19.71-17,51.67,0,71.37l10.55,12.23,61.6-71.38Z"/><path class="cls-4" d="M693.74,858.53c17-19.71,17-51.67,0-71.38h0c-17-19.71-44.59-19.71-61.6,0l-10.43,12.09,61.6,71.38Z"/><polygon class="cls-4" points="621.71 799.25 560.11 870.62 621.71 941.99 683.31 870.62 621.71 799.25"/><path class="cls-4" d="M611.16,530.32c-17-19.71-44.59-19.71-61.6,0h0c-17,19.71-17,51.66,0,71.37l10.55,12.22,61.6-71.37Z"/><path class="cls-4" d="M693.74,601.82c17-19.71,17-51.66,0-71.37h0c-17-19.71-44.59-19.71-61.6,0l-10.43,12.09,61.6,71.37Z"/><polygon class="cls-4" points="621.71 542.54 560.11 613.91 621.71 685.28 683.31 613.91 621.71 542.54"/><path class="cls-4" d="M611.16,276.2c-17-19.71-44.59-19.71-61.6,0h0c-17,19.7-17,51.66,0,71.37l10.55,12.22,61.6-71.37Z"/><path class="cls-4" d="M693.74,347.7c17-19.71,17-51.67,0-71.37h0c-17-19.71-44.59-19.71-61.6,0l-10.43,12.09,61.6,71.37Z"/><polygon class="cls-4" points="621.71 288.42 560.11 359.79 621.71 431.16 683.31 359.79 621.71 288.42"/><path class="cls-4" d="M392.35,433.84c-17-19.71-44.59-19.71-61.6,0h0c-17,19.71-17,51.66,0,71.37l10.55,12.22,61.6-71.37Z"/><path class="cls-4" d="M474.94,505.34c17-19.71,17-51.66,0-71.37h0c-17-19.71-44.59-19.71-61.6,0L402.9,446.06l61.6,71.37Z"/><polygon class="cls-4" points="402.9 446.06 341.3 517.43 402.9 588.8 464.5 517.43 402.9 446.06"/><path class="cls-4" d="M415.11,805c16.79,19.9,44.36,20.22,61.6.71h0c17.24-19.51,17.61-51.46.82-71.37L467.13,722l-62.42,70.66Z"/><path class="cls-4" d="M333.36,732.55c-17.24,19.51-17.61,51.46-.82,71.37h0c16.78,19.9,44.36,20.22,61.59.71l10.58-12-60.78-72.08Z"/><polygon class="cls-4" points="404.71 792.66 467.13 722 406.35 649.92 343.93 720.58 404.71 792.66"/><path class="cls-4" d="M77.25,177.84c-11.32-13.12-29.68-13.12-41,0h0c-11.32,13.12-11.32,34.39,0,47.51l7,8.14,41-47.51Z"/><path class="cls-4" d="M132.23,225.44c11.32-13.12,11.32-34.39,0-47.51h0c-11.33-13.12-29.69-13.12-41,0l-7,8,41,47.51Z"/><polygon class="cls-4" points="84.27 185.98 43.27 233.49 84.27 281 125.28 233.49 84.27 185.98"/><path class="cls-4" d="M765.46,961.24c11.17,13.25,29.53,13.46,41,.47h0c11.47-13,11.72-34.26.54-47.51L800.09,906l-41.56,47Z"/><path class="cls-4" d="M711,913c-11.48,13-11.72,34.26-.55,47.51h0c11.17,13.25,29.53,13.46,41,.47l7-8-40.45-48Z"/><polygon class="cls-4" points="758.53 953.02 800.09 905.99 759.63 858 718.08 905.04 758.53 953.02"/></svg>