<svg id="Layer_1" data-name="Layer 1" xmlns="http://www.w3.org/2000/svg" viewBox="0 0 822 1122"><defs><style>.cls-1{font-size:165.39px;}.cls-1,.cls-3,.cls-4{fill:#d89d70;}.cls-1,.cls-3{font-family:HelveticaNeue-Bold, Helvetica Neue;font-weight:700;}.cls-2{fill:#d6bd80;}.cls-3{font-size:177.4px;}</style></defs><text class="cls-1" transform="translate(42.75 149.81)">4</text><circle class="cls-2" cx="106.2" cy="135.64" r="8.91"/><circle class="cls-2" cx="106.14" cy="112.71" r="8.91"/><circle class="cls-2" cx="106.14" cy="92.35" r="8.91"/><circle class="cls-2" cx="106.14" cy="70.71" r="8.91"/><circle class="cls-2" cx="104.86" cy="47.81" r="8.91"/><circle class="cls-2" cx="83.24" cy="112.69" r="8.91"/><circle class="cls-2" cx="57.79" cy="112.7" r="8.91"/><text class="cls-3" transform="matrix(-1, -0.01, 0.01, -1, 801.05, 974.46)">4</text><circle class="cls-2" cx="732.81" cy="988.87" r="9.55"/><circle class="cls-2" cx="732.6" cy="1013.47" r="9.55"/><circle class="cls-2" cx="732.35" cy="1035.31" r="9.55"/><circle class="cls-2" cx="732.08" cy="1058.51" r="9.55"/><circle class="cls-2" cx="733.16" cy="1083.09" r="9.55"/><circle class="cls-2" cx="757.16" cy="1013.78" r="9.55"/><path class="cls-4" d="M80.8,278.67C94.61,265.33,105,245.32,105,232c0,13.33,10.34,32.46,24.14,44.62"/><circle class="cls-4" cx="103.81" cy="191.17" r="27.16"/><circle class="cls-4" cx="79.21" cy="231.65" r="27.16"/><circle class="cls-4" cx="130.97" cy="231.65" r="27.16"/><ellipse class="cls-4" cx="104.83" cy="220.12" rx="7.69" ry="5.38"/><path class="cls-4" d="M774.75,862.79c-12.19,11.77-21.34,29.43-21.35,41.2,0-11.77-9.12-28.65-21.31-39.38"/><circle class="cls-4" cx="754.45" cy="940.02" r="23.97"/><circle class="cls-4" cx="776.16" cy="904.29" r="23.97"/><circle class="cls-4" cx="730.47" cy="904.29" r="23.97"/><ellipse class="cls-4" cx="753.54" cy="914.47" rx="6.78" ry="4.75"/><path class="cls-4" d="M170.75,536.61c31.39-30.32,54.95-75.79,55-106.1,0,30.31,23.47,73.78,54.86,101.41"/><circle class="cls-4" cx="223.04" cy="337.74" r="61.73"/><circle class="cls-4" cx="167.13" cy="429.76" r="61.73"/><circle class="cls-4" cx="284.77" cy="429.76" r="61.73"/><ellipse class="cls-4" cx="225.37" cy="403.55" rx="17.47" ry="12.23"/><path class="cls-4" d="M542.75,544.61c31.39-30.32,55-75.79,55-106.1,0,30.31,23.47,73.78,54.86,101.41"/><circle class="cls-4" cx="595.04" cy="345.74" r="61.73"/><circle class="cls-4" cx="539.13" cy="437.76" r="61.73"/><circle class="cls-4" cx="656.77" cy="437.76" r="61.73"/><ellipse class="cls-4" cx="597.37" cy="411.55" rx="17.47" ry="12.23"/><path class="cls-4" d="M556.55,868.24c33.21-29.58,58.14-73.93,58.17-103.51,0,29.58,24.84,72,58,98.94"/><ellipse class="cls-4" cx="611.87" cy="674.23" rx="65.32" ry="60.22"/><ellipse class="cls-4" cx="552.72" cy="764" rx="65.32" ry="60.22"/><ellipse class="cls-4" cx="677.18" cy="764" rx="65.32" ry="60.22"/><ellipse class="cls-4" cx="614.33" cy="738.43" rx="18.49" ry="11.93"/><path class="cls-4" d="M173.75,883.61c31.39-30.32,54.95-75.79,55-106.1,0,30.31,23.47,73.78,54.86,101.41"/><circle class="cls-4" cx="226.04" cy="684.74" r="61.73"/><circle class="cls-4" cx="170.13" cy="776.76" r="61.73"/><circle class="cls-4" cx="287.77" cy="776.76" r="61.73"/><ellipse class="cls-4" cx="228.37" cy="750.55" rx="17.47" ry="12.23"/></svg>