<svg id="Layer_1" data-name="Layer 1" xmlns="http://www.w3.org/2000/svg" viewBox="0 0 822 1122"><defs><style>.cls-1,.cls-2,.cls-4{fill:#6f9797;}.cls-2{font-size:177.04px;}.cls-2,.cls-4{font-family:HelveticaNeue-Bold, Helvetica Neue;font-weight:700;}.cls-3{fill:#d6bd80;}.cls-4{font-size:177.66px;}.cls-5{fill:none;stroke:#6f9898;stroke-miterlimit:10;stroke-width:4px;}</style></defs><ellipse class="cls-1" cx="582.83" cy="892.17" rx="83.45" ry="107.92"/><ellipse class="cls-1" cx="213.83" cy="235.17" rx="83.45" ry="107.92"/><text class="cls-2" transform="translate(824.26 979.19) rotate(179.87)">K</text><circle class="cls-3" cx="798.6" cy="1089.54" r="9.53"/><circle class="cls-3" cx="798.55" cy="1063.69" r="9.53"/><circle class="cls-3" cx="798.48" cy="1031" r="9.53"/><circle class="cls-3" cx="775.71" cy="1045.38" r="9.53"/><circle class="cls-3" cx="756.69" cy="1068.57" r="9.53"/><circle class="cls-3" cx="749.8" cy="1033.18" r="9.53"/><circle class="cls-3" cx="736.13" cy="1011.42" r="9.53"/><circle class="cls-3" cx="719.74" cy="992.4" r="9.53"/><circle class="cls-3" cx="736.31" cy="1089.05" r="9.53"/><circle class="cls-3" cx="798.41" cy="1002.4" r="9.53"/><ellipse class="cls-1" cx="756.83" cy="922.17" rx="46.4" ry="60"/><text class="cls-4" transform="translate(-0.25 138.57)">K</text><circle class="cls-3" cx="25.74" cy="27.86" r="9.57"/><circle class="cls-3" cx="25.72" cy="53.8" r="9.57"/><circle class="cls-3" cx="25.72" cy="86.61" r="9.57"/><circle class="cls-3" cx="48.61" cy="72.23" r="9.57"/><circle class="cls-3" cx="67.74" cy="49" r="9.57"/><circle class="cls-3" cx="74.57" cy="84.53" r="9.57"/><circle class="cls-3" cx="88.24" cy="106.4" r="9.57"/><circle class="cls-3" cx="104.64" cy="125.53" r="9.57"/><circle class="cls-3" cx="88.24" cy="28.5" r="9.57"/><circle class="cls-3" cx="25.72" cy="115.3" r="9.57"/><ellipse class="cls-1" cx="62.83" cy="207.17" rx="46.4" ry="60"/><path class="cls-5" d="M355.05,257.85a51.7,51.7,0,0,1,12.33-1.77c7.2-.11,12.29,1.81,18.53,5.3,3.85,2.16,8.26,4.48,10.61,8.29-2,.2-4.1,0-6.1,0a131.9,131.9,0,0,0-22.15,2.4c-3.82.67-10.55.92-13.72,3.22"/><path class="cls-5" d="M370.72,272c-2.13-1.93-8.11-12-3-13.9"/><path class="cls-5" d="M352.52,231.83a22.77,22.77,0,0,1,3.11-1.17c4.27-1.22,9.48-.73,13.9-.65,8.82.17,20,3,27.11,8.51,3.92,3,5.85,5.1,5.62,10-1.56.08-2.83-1.18-4.12-2a91.08,91.08,0,0,0-11.6-6.72,66.58,66.58,0,0,0-21.64-6.08c-3.3-.29-7.45-.56-10.62.41-1.23.38-2.23,1.16-3.49,1.27C350.6,233.4,352.46,230.68,352.52,231.83Z"/><path class="cls-5" d="M335.6,222.23c0,9.6,1.64,19,2,28.59.14,3.87.64,8.45-1.07,12.06s-4.91,7-7.12,10.3c-3.47,5.17-7.89,9.23-8.22,15.74-.23,4.53-1.11,11.39,3.92,13.76,2.12,1,8.4,1.19,10.58.09,2.57-1.3,4.67-9.53,9.05-7,1.54.88,2.29,4.21,3.79,5.54,1.79,1.6,3.51,1.85,5.86,1.83,4.12,0,6.66-1.85,6.49-6.33"/><path class="cls-5" d="M347.22,315.71c1.76,0,3.78-.33,5.46.19,3.05.94,5.52,4.05,8.38,5.52,7.85,4,16.27,5.09,22.63-1.75,2.74-2.94,6.91-7.93,3.75-11.82-1-1.21-3.41-2.74-4.6-1.24"/><path class="cls-5" d="M338.63,325.81c6.72.05,13.36.48,19.26,4.08,2.38,1.46,6.79,3.92,6.26,7.29"/><path class="cls-5" d="M333.32,309.39c4.2-.11,3,9.83,3,12.38"/><path class="cls-5" d="M337.37,336.17c-1.45,3.41-2.67,10.84.5,13.64"/><path class="cls-5" d="M537.31,243.64c-13.79,0-27.62.3-41.41.09-10.28-.16-20.16-1.91-30.32-3.15-7-.85-14.12-.8-20.84-3-5.84-1.91-11.74-4.81-17.33-7.38a108.75,108.75,0,0,0-31.22-9.15c-7.84-1.1-15.28-2.45-23.25-2-4.66.25-9.29,1.33-14,.92-6.14-.53-12.21-2.95-18.44-2.63-1.88-.49-5.83-2-6.19-4-.67-3.7,1.17-4.14,4.82-5.88,16.13-7.7,39.2-3.75,56.25-2,16.05,1.65,31.69,8.69,47.45,12.4,4.65,1.09,8.65,3.77,13.28,5,7.07,1.91,14.62,1.59,21.82,2.83,10.06,1.72,19.95,4,29.92,5.52,8.55,1.33,15.5-.4,23.94-.77,3.42-.14,5.54-.57,6.86,3.63C539.84,237.84,541.26,243.64,537.31,243.64Z"/><path class="cls-5" d="M538.63,226.54c1-7.12-6.91-8.6-12.28-9.3-23.55-3.06-47.56-.61-71.21-4.28-14.75-2.29-26-11.59-40-16.84-14.64-5.49-29.21-9.06-44.8-9.48-13.65-.37-33.9-2.15-45.81,6.37-9.17,6.56,9.12,8.41,13.78,8.55"/><path class="cls-5" d="M309.68,370.77c.12-5.12,0-9-5.34-11.09-5.81-2.24-10.31.67-9.19,7.56,1.45,9,15.48,7.29,21.54,4.52,9.42-4.32,13.3-13.28,19.48-20.44"/><path class="cls-5" d="M317.13,365.39c1.16-9.73-9.25-15.76-17.77-14.95-11.23,1.07-19,16.66-10.4,25.08,8.1,8,22.43,6.41,31.82,2,7.64-3.62,21.47-11.31,24.08-20.36"/><path class="cls-5" d="M298.92,383.19c9.48,10.27,32-.61,40.71-7C345.28,372,351.87,366.8,356,361c1.91-2.7,2.49-6.77,4.22-8.89"/><path class="cls-5" d="M313,390.64c3.76.59,7.18,1.41,11.1,1.17,9.62-.58,19-7.17,26.93-12.26a78.82,78.82,0,0,0,18.27-16.62c1.91-2.3,4-4.44,4.53-7.47"/><path class="cls-5" d="M332.86,392.29c4.39,1.28,9.38,3.19,14,2.49,6.33-1,13.71-8.16,17.83-13,8.35-9.79,12.94-22.74,21.53-32.12"/><path class="cls-5" d="M356,393.12c9.16,4.66,17.93-5.47,23.37-11.78,7.89-9.15,16.66-19.68,22.15-30.43"/><path class="cls-5" d="M369.7,394.36c14.8.14,28.68-10.71,38.29-21.51,2.72-3.05,3.64-8.4,6.4-10.77"/><path class="cls-5" d="M436.33,345.94c-5.69-1.1-13.8-2.61-13.68,6,.11,8.34,14.38,6.65,18.53,2.38,6-6.21,8.52-23.49-2.61-24.57-13.81-1.34-26.32,11.48-22.74,25.45,2.13,8.29,15.46,15.22,23.81,12.68,3.94-1.2,6.77-5.87,7.85-9.57,3.15-10.79,3-24.56.06-35.19-2.74-10-3.78-20.33-7.42-30.06-3.06-8.2-6.85-16.19-10.47-24.17-5-10.89-9.16-22.22-10.3-33.88"/><path class="cls-5" d="M534,253.65c10.53,16.87,16.64,38.73,21.8,57.92a105.67,105.67,0,0,1,3.45,30.4c-.17,6.63-.68,15.4-3.31,21.35"/><path class="cls-5" d="M524.48,250.34c.64,7.49,4.43,16.5,7,23.62,2.67,7.37,7.39,12.35,11.6,18.75A43.13,43.13,0,0,1,550,323.08c-1.56,10.39-3,20.69-3.88,31.14-.34,4.06-1.66,10.76-6.3,12"/><path class="cls-5" d="M515.48,248.34c.64,7.49,4.43,16.5,7,23.62,2.67,7.37,7.39,12.35,11.6,18.75A43.13,43.13,0,0,1,541,321.08c-1.56,10.39-3,20.69-3.88,31.14-.34,4.06-1.66,10.76-6.3,12"/><path class="cls-5" d="M502.48,248.34c.64,7.49,4.43,16.5,7,23.62,2.67,7.37,7.39,12.35,11.6,18.75A43.13,43.13,0,0,1,528,321.08c-1.56,10.39-3,20.69-3.88,31.14-.34,4.06-1.66,10.76-6.3,12"/><path class="cls-5" d="M493.48,250.34c.64,7.49,4.43,16.5,7,23.62,2.67,7.37,7.39,12.35,11.6,18.75A43.13,43.13,0,0,1,519,323.08c-1.56,10.39-3,20.69-3.88,31.14-.34,4.06-1.66,10.76-6.3,12"/><path class="cls-5" d="M480.48,245.34c.64,7.49,4.43,16.5,7,23.62,2.67,7.37,7.39,12.35,11.6,18.75A43.13,43.13,0,0,1,506,318.08c-1.56,10.39-3,20.69-3.88,31.14-.34,4.06-1.66,10.76-6.3,12"/><path class="cls-5" d="M472.48,245.34c.64,7.49,4.43,16.5,7,23.62,2.67,7.37,7.39,12.35,11.6,18.75A43.13,43.13,0,0,1,498,318.08c-1.56,10.39-3,20.69-3.88,31.14-.34,4.06-1.66,10.76-6.3,12"/><path class="cls-5" d="M463.48,245.34c.64,7.49,4.43,16.5,7,23.62,2.67,7.37,7.39,12.35,11.6,18.75A43.13,43.13,0,0,1,489,318.08c-1.56,10.39-3,20.69-3.88,31.14-.34,4.06-1.66,10.76-6.3,12"/><path class="cls-5" d="M452.48,245.34c.64,7.49,4.43,16.5,7,23.62,2.67,7.37,7.39,12.35,11.6,18.75A43.13,43.13,0,0,1,478,318.08c-1.56,10.39-3,20.69-3.88,31.14-.34,4.06-1.66,10.76-6.3,12"/><path class="cls-5" d="M443.48,241.34c.64,7.73,4.43,17,7,24.39,2.67,7.61,7.39,12.75,11.6,19.36A45.72,45.72,0,0,1,469,316.46c-1.56,10.72-3,21.36-3.88,32.15-.34,4.19-1.66,11.11-6.3,12.39"/><path class="cls-5" d="M432.48,241.34c.64,7.73,4.43,17,7,24.39,2.67,7.61,7.39,12.75,11.6,19.36A45.72,45.72,0,0,1,458,316.46c-1.56,10.72-3,21.36-3.88,32.15-.34,4.19-1.66,11.11-6.3,12.39"/><polyline class="cls-5" points="687.5 146 642.5 189 644.5 396"/><polyline class="cls-5" points="687.5 165.95 650.5 198 655.5 410"/><path class="cls-5" d="M599.5,177c-4.58,4.84-30.71,33.39-28,76,2.08,32.83,20,54.4,26,61"/><path class="cls-5" d="M604.5,189c-4.25,4.72-22.35,25.84-22,58,.33,30,16.54,49.87,21,55"/><path class="cls-5" d="M610.5,199a85,85,0,0,0-1,92"/><path class="cls-5" d="M601.9,177.49c-.89,10.34,9,24,15.24,31.85,3.35,4.25,7.76,8,11.4,11.95"/><path class="cls-5" d="M595.39,311.27c0-4.27,0-7,2.72-10.57,4.58-5.95,9.38-12,14.52-17.46,3.21-3.43,10-12.27,15.31-12.52-6-16.35-5.64-32-.29-48.54,4.16-.27,8.91,4.19,12.72,5.62"/><path class="cls-5" d="M628.54,272.5c2.62-3.83,9.38-2.54,11.54-6.22"/><path class="cls-5" d="M608.11,269.54c1.5-1.12,3.6-2.33,2.89-4.16-.8-2.1-6.53-4.41-8.32-5.47-2-1.17-4.43-2.06-5.66-4,4.57-2.12,7.73-1,8.47-7-4-1.23-10.19-5-4.94-8.65,1.66-1.16,5.42-1.83,6.09-3.94s-.83-2.18-1.82-3.83c-3.56-5.92,4.76-6.4,6.25-10.82.64-1.91,1-6.58.3-8.41"/><path class="cls-5" d="M368.68,258.35c3.23,1.22,5,5.22,5.49,8.39.43,2.77-.38,3.31-1.63,5.49"/><line class="cls-5" x1="288.43" y1="122.36" x2="324.54" y2="193.01"/><path class="cls-5" d="M324,156.39c5.58-.12,14.34.88,12.54,8.94-1.11,4.94-7.64,5.73-11.75,7.72,3-1.4,3.83.47,6.61,1.11,3,.7,15.65,3.73,18,.68,3.44-4.42-3.86-11.83-5.26-15.3-2.95-7.3,5.52-11.68,11.16-6.72,1-6.28,12.33-21.43,17.57-11.32,2,3.83.32,10.7-2.51,13.77,16.49-4.85,18.06,13.52,2.27,14.15.34,2.64,1.48,5,1.87,7.68,9.62.7,20.15-.93,30-1.18-4.16-3.28-9-9.54-4.11-13.86,2.22-1.95,8.51-3,9.7.2-2.91-9.15,8.39-21.88,18.06-16.16,7.77,4.58,1.06,14.68-5.07,16.85,5.42-.25,16.53.33,13.17,8.82-2.21,5.57-12.84,6.21-18,6,6.73,7.74,24.65,15.89,32.76,5.89-7.86-5.28-2.37-16.87,6.7-13.1-1.39-1-3.44-5.57-3.13-8.63,1-9.77,16.72-10.58,23.78-8.15,10.89,3.74,6.86,12.73-1.48,17.38,3.05.41,8.45,7.32,7.08,12-1.67,5.66-11.54,7.09-16.45,7.79,6.55,5.25,17.73,14.52,26,5.49,5.44-6-1-9.88-1.65-16.79,3.65-1.71,8.72-1.19,10.76,2.4-.65-5.37-.47-11.28,3.69-15.37,3.52-3.47,11.72-6.18,15.45-1.59,3.91,4.8.36,11.64-3.9,14.93,5.57-3.92,9.38,3.43,8.73,8.5-.81,6.34-6.62,8-10.67,11.67,4.59,2.73,10.9,3.09,16.25,3.24-.18-5.86,1.35-12.5,5.32-17s9.54-2.43,13.18-5.61c2.32-2,.44-4.61,2.16-6.76,3.17-4,9.28-1.88,13-5.6,4.42-4.41,7.39-12.93,10.54-18.38L588.5,129"/><path class="cls-5" d="M360.59,159.19c-4.18,0-9.48-2-11.07,3.23-2,6.48,4.43,8,9.51,8.05C371.42,170.53,371.38,156.6,360.59,159.19Z"/><path class="cls-5" d="M414,166.45c-2.05-.91-3.93,1.76-4.7,3.74-2,5.2,2.56,5.19,6.76,5.46,3.22.21,7.86,1,7-3.4-.57-2.82-4.05-5.09-6.71-5.14"/><path class="cls-5" d="M463.85,179.32c-.75-4.38-12.61,2.49-4.66,6.66,13.14,6.89,5.13-15.28.05-6.33"/><path class="cls-5" d="M514.33,183.61c-3.3,0-8.3-1.19-10.52,2-3.13,4.48,2.29,8.08,6.14,8.75,8.72,1.51,12.89-17,2.73-13.71"/><path class="cls-5" d="M325.29,183.28c19.86,0,39.7-.31,59.55-.34,6.56,0,13.12-.61,19.37,1.51,3.14,1.06,3.32,1.84,5.86,3.91,4.63,3.76,11.81,5.26,17.22,7.44A66.5,66.5,0,0,0,439.72,200a44.83,44.83,0,0,0,6.82.8,72.53,72.53,0,0,1,14.2,2.27c10.75,2.42,20,2.81,30.9,2.34,6.25-.27,12.57-2.31,18.81-1.59,5.28.61,8.79,3.31,13.2,5.65,2,1.09,4.82,1.86,6.85.9"/><line class="cls-5" x1="537.47" y1="218.25" x2="586.72" y2="132.08"/><line class="cls-5" x1="136.5" y1="467" x2="288.96" y2="375.52"/><path class="cls-5" d="M169.54,441.4c-.46-2.39-2.24-4.82-3.48-6.95-4.75-8.17-9.79-16.24-14-24.72-2.73-5.54-5.19-11.2-8-16.71-.82-1.62-2-3.26-2.11-5.1,6.37-4,11.12,1.23,14.44,6.24a102.51,102.51,0,0,0,7.72,10.34c1.11,1.28,2.32,2.23,2.63,3.85"/><path class="cls-5" d="M156,390.44c.11-5.21-5.4-23.59.33-26,6.88-2.89,11.07,10.88,12.48,14.75,2.27,6.26,4.55,13.38,8.2,19"/><path class="cls-5" d="M160.28,366.34c0-2,2.37-4.15,3.88-5.3,3.49-2.66,6.61-2.85,9.53.33,4.82,5.25,8.59,14.08,11.86,20.34,1.45,2.78,3.07,5.6,4.38,8.42"/><path class="cls-5" d="M177,362c1.72-6.14,12.06-1.47,14.69,1a32.34,32.34,0,0,1,8.78,15.71"/><path class="cls-5" d="M181.28,414.53c5,.21,10.57-1.22,14.35-4.48,4-3.42,8.16-11.41,7.89-16.83-.33-6.61,10.44-24.36,15.2-14,4.66,10.16,5.18,22.45,3.95,33.47"/><line class="cls-5" x1="356.04" y1="399.77" x2="367.5" y2="424"/><line class="cls-5" x1="371.6" y1="399.77" x2="378.8" y2="417.22"/><path class="cls-5" d="M297,395a88,88,0,0,1-1.51,18c4.43.56,10-.22,14.11,1.61.18-5.76,1.37-12.49,3.91-17.77C307.44,396.39,302.36,392.62,297,395Z"/><path class="cls-5" d="M312.93,427.24c0,4.3,1.19,11.45-1.42,15.09,3.51-.47,7.32,2.51,10.41,3.92.24-5.59.2-16.39,6.33-19.31-3.86-1.34-7.46-3.88-11.4-4.83"/><path class="cls-5" d="M324.68,455.58c-1.32,4.31-4.34,8.39-6.93,12,4.85,2.47,7.84,7.68,12.06,11,1.48-1.71,2.14-4.61,3.08-6.75.75-1.71,4.18-6.12,4.15-7.95C337,460.16,327.58,454.85,324.68,455.58Z"/><path class="cls-5" d="M334.33,487.54c1.38,2.73-3.78,9.64-5.44,12.06,4.84,1.62,9.05,10.11,12.48,2.62a9.78,9.78,0,0,0,.5-7C340.61,491.64,337.31,491.53,334.33,487.54Z"/><path class="cls-5" d="M343.08,519.19c-1.78,1.49-4.23,4.64-4.86,6.91,1.93.38,4.13.5,5.72,1.47a7.61,7.61,0,0,0-2.07-5.66"/><path class="cls-5" d="M342.17,546.63a10,10,0,0,0-.9,4.22"/><path class="cls-5" d="M343.08,572.56v1.81"/><path class="cls-5" d="M383.06,395.48c-.43,6.53,3.27,16.23,6.72,21.77"/><path class="cls-5" d="M561.39,379H447.5a178.28,178.28,0,0,1-75.9,62.58"/><line class="cls-5" x1="136.5" y1="482.8" x2="260.5" y2="432"/><line class="cls-5" x1="136.5" y1="492.97" x2="273.5" y2="444"/><polygon class="cls-5" points="285.09 496.4 239.5 558 292.5 619 285.09 496.4"/><polygon class="cls-5" points="279.5 537 254.6 548.74 279.5 591.71 279.5 537"/><path class="cls-5" d="M136.5,537a102.18,102.18,0,0,0,50-56"/><path class="cls-5" d="M136.5,546.63a228.27,228.27,0,0,0,39-35.63,227.88,227.88,0,0,0,22-30"/><path class="cls-5" d="M136.5,561a256.51,256.51,0,0,0,47-41,256.07,256.07,0,0,0,34-48"/><path class="cls-5" d="M138.44,574.37A259.39,259.39,0,0,0,237.5,464"/><path class="cls-5" d="M136.5,613.49a324.7,324.7,0,0,0,81-69.22,324.35,324.35,0,0,0,52-86.27"/><path class="cls-5" d="M136.5,626.55a303.49,303.49,0,0,0,96-75.55,302.74,302.74,0,0,0,52-89"/><path class="cls-5" d="M251.21,404.39c14.43,17.72,58.52,76.48,59.29,162.61,1,109.13-68.33,178.72-81,191"/><path class="cls-5" d="M264.28,399.77C279.63,420,318.37,476.62,320.5,558c2.85,109-62.07,181.18-76,196"/><path class="cls-5" d="M273.5,395.48c17.93,24.17,46.49,70,55,133.52,16.74,124.89-57.64,216.9-72,234"/><line class="cls-5" x1="186.5" y1="603.39" x2="263.5" y2="707"/><line class="cls-5" x1="158.5" y1="622" x2="239.5" y2="734.21"/><line class="cls-5" x1="152.17" y1="626.55" x2="235.5" y2="743"/><line class="cls-5" x1="193.83" y1="597.66" x2="269.5" y2="697.21"/><line class="cls-5" x1="225" y1="574.37" x2="284.5" y2="651.34"/><line class="cls-5" x1="231.67" y1="564.35" x2="293.72" y2="647.43"/><path class="cls-5" d="M207.94,594c-3.5,22.23,37.36,17.39,43.21,35.58,1.56,4.85,2.2,9.27-2.14,12.41-3.35,2.43-16.28,4.37-15-2.57a9.92,9.92,0,0,1,6.75-.07"/><path class="cls-5" d="M227.74,606.52c3.22-1.93,2.84-6.87,2.53-10.23-2.26-.73-3.79.44-3.57,2.93"/><path class="cls-5" d="M254.32,633.1c5.21,8.8,4.35,19.12,4.69,28.9.25,7,2.47,13.56,10.92,12.08,8-1.41,14.94-7.9,9.21-15.73-7.1-9.7-10.29,3.47-6.05,5.5"/><path class="cls-5" d="M367.5,429.82a139.63,139.63,0,0,0,71-57.82"/><line class="cls-5" x1="447.02" y1="366.22" x2="605.29" y2="366.22"/><path class="cls-5" d="M491.45,523.38A232.38,232.38,0,0,1,554.5,389"/><path class="cls-5" d="M377.5,469a277,277,0,0,0,85-56h40l-40,89,26,32"/><line class="cls-5" x1="378.8" y1="500.03" x2="458.13" y2="500.03"/><path class="cls-5" d="M327.5,402a336.52,336.52,0,0,1,28,192"/><path class="cls-5" d="M342.17,404.39A308.69,308.69,0,0,1,366.5,593"/><path class="cls-5" d="M398.44,559.33c-.2-3.78-1.2-7.58-1.72-11.33-.3-2.26-.34-4.67-1.41-6.73,5.37-.36,11.57,2,17,2.48,4,.39,8,.28,11.93.46.22,4.89.18,9.92,0,14.82-16.24.94-32.09-2.29-47.79,3-1.07,4.38-.36,9.65-.33,14.12,0,2.9-.32,6.65.58,9.47,1.82.17,3.73-.06,5.58,0,2.47.09,6.55,1.74,9,.82,3.27-1.25,3.75-8.4,4.26-11.32a97.4,97.4,0,0,0,1.64-12.33c-.09,5.27,0,10.63-.32,15.9,7.1,1.12,14.46,10.14,22.09,7.44.19,3.44,0,6.93,0,10.38-8.84.88-17.48-2.62-26.38-2.6,1.28-3.58,5.38-8.62,5.27-12.48,13.09-.2,26.52-1.3,39.56-2.43,3.1-.27,2.94-.28,4-2.8,1.48-3.52,2.21-14.33-1.7-16.08-3.67-1.64-10,.19-13.31-2,.14,5.94-.15,11.87.28,17.81.11,1.42,0,4.18.54,5.18"/><polyline class="cls-5" points="136.5 697.21 207.72 775 221.87 775"/><path class="cls-5" d="M464.34,884.34a51.72,51.72,0,0,1-12.32,1.8c-7.21.13-12.3-1.78-18.54-5.26-3.86-2.15-8.28-4.46-10.63-8.27,2-.2,4.1,0,6.09,0a132,132,0,0,0,22.15-2.45c3.82-.68,10.55-.94,13.71-3.25"/><path class="cls-5" d="M448.64,870.23c2.13,1.93,8.14,12,3.07,13.89"/><path class="cls-5" d="M466.93,910.36a23.91,23.91,0,0,1-3.1,1.17c-4.27,1.23-9.48.76-13.9.68-8.82-.15-20.05-3-27.13-8.45-3.93-3-5.87-5.08-5.65-10,1.57-.08,2.84,1.17,4.13,2a91.11,91.11,0,0,0,11.62,6.69,66.31,66.31,0,0,0,21.65,6c3.3.29,7.45.55,10.61-.43,1.24-.39,2.23-1.17,3.49-1.28C468.85,908.78,467,911.5,466.93,910.36Z"/><path class="cls-5" d="M483.88,919.92c-.05-9.61-1.69-19-2.06-28.59-.14-3.87-.66-8.45,1.05-12.07s4.89-7,7.1-10.31c3.45-5.18,7.87-9.25,8.18-15.76.22-4.53,1.08-11.39-3.95-13.75-2.13-1-8.4-1.17-10.58-.07-2.57,1.31-4.66,9.54-9,7.07-1.54-.87-2.3-4.2-3.8-5.53-1.8-1.59-3.51-1.84-5.86-1.81-4.13,0-6.66,1.86-6.48,6.35"/><path class="cls-5" d="M472,826.47c-1.77,0-3.78.33-5.46-.19-3.06-.93-5.53-4-8.4-5.5-7.86-4-16.28-5-22.62,1.81-2.73,2.95-6.89,7.95-3.73,11.82,1,1.22,3.42,2.74,4.6,1.23"/><path class="cls-5" d="M480.6,816.34c-6.72,0-13.36-.45-19.27-4-2.38-1.45-6.8-3.9-6.27-7.27"/><path class="cls-5" d="M486,832.75c-4.2.11-3.06-9.83-3.06-12.37"/><path class="cls-5" d="M481.84,806c1.44-3.41,2.65-10.85-.54-13.64"/><path class="cls-5" d="M282.11,899c13.8,0,27.62-.37,41.42-.19,10.28.13,20.16,1.86,30.32,3.08,7,.83,14.13.77,20.85,3,5.84,1.9,11.75,4.78,17.35,7.34a108.42,108.42,0,0,0,31.24,9.07c7.84,1.09,15.29,2.42,23.26,2,4.66-.27,9.28-1.36,14-1,6.14.52,12.22,2.93,18.45,2.6,1.88.48,5.83,2,6.2,4,.68,3.69-1.17,4.14-4.81,5.89-16.11,7.74-39.19,3.85-56.24,2.13-16.06-1.61-31.72-8.62-47.48-12.29-4.66-1.08-8.66-3.75-13.3-5-7.07-1.88-14.62-1.55-21.83-2.77-10-1.7-19.95-3.92-29.93-5.45-8.54-1.32-15.49.44-23.93.82-3.42.15-5.54.59-6.87-3.61C279.6,904.78,278.17,899,282.11,899Z"/><path class="cls-5" d="M280.84,916.08c-1,7.13,6.93,8.58,12.3,9.27,23.55,3,47.56.5,71.22,4.11,14.75,2.26,26,11.53,40,16.75,14.65,5.45,29.23,9,44.81,9.38,13.66.34,33.91,2.06,45.8-6.49,9.16-6.58-9.13-8.38-13.79-8.51"/><path class="cls-5" d="M509.44,771.31c-.1,5.13,0,9,5.38,11.08,5.81,2.22,10.3-.7,9.17-7.58-1.47-9-15.5-7.26-21.56-4.47-9.41,4.34-13.27,13.31-19.43,20.48"/><path class="cls-5" d="M502,776.71c-1.13,9.73,9.29,15.74,17.81,14.91,11.22-1.09,18.92-16.71,10.33-25.1-8.11-7.94-22.44-6.36-31.82-1.89-7.63,3.64-21.44,11.36-24,20.42"/><path class="cls-5" d="M520.17,758.87c-9.5-10.25-32,.68-40.69,7.1-5.64,4.16-12.21,9.41-16.29,15.19-1.9,2.7-2.47,6.77-4.2,8.89"/><path class="cls-5" d="M506.08,751.45c-3.76-.58-7.18-1.39-11.11-1.14-9.61.6-19,7.22-26.9,12.32a78.79,78.79,0,0,0-18.22,16.67c-1.91,2.29-4,4.44-4.52,7.47"/><path class="cls-5" d="M486.21,749.84c-4.39-1.27-9.38-3.16-14-2.45-6.33,1-13.69,8.2-17.8,13-8.33,9.81-12.89,22.77-21.45,32.18"/><path class="cls-5" d="M463,749.07c-9.17-4.64-17.92,5.51-23.35,11.83-7.87,9.17-16.61,19.72-22.08,30.49"/><path class="cls-5" d="M449.38,747.86c-14.8-.1-28.67,10.78-38.25,21.6-2.71,3.06-3.62,8.42-6.38,10.79"/><path class="cls-5" d="M382.86,796.44c5.69,1.09,13.8,2.58,13.66-6-.13-8.34-14.39-6.62-18.53-2.34-6,6.23-8.47,23.51,2.67,24.57,13.81,1.3,26.28-11.55,22.67-25.51-2.14-8.29-15.5-15.18-23.84-12.62-3.94,1.21-6.75,5.89-7.82,9.59-3.13,10.8-2.92,24.56,0,35.19,2.76,10,3.83,20.32,7.49,30,3.08,8.19,6.89,16.18,10.53,24.14,5,10.88,9.21,22.2,10.37,33.86"/><path class="cls-5" d="M285.4,889c-10.57-16.84-16.72-38.69-21.93-57.87A105.27,105.27,0,0,1,260,800.7c.15-6.63.64-15.4,3.26-21.36"/><path class="cls-5" d="M294.93,892.25c-.66-7.49-4.46-16.49-7.06-23.6-2.69-7.37-7.42-12.34-11.65-18.73a43.11,43.11,0,0,1-7-30.36c1.53-10.39,3-20.69,3.81-31.15.32-4,1.63-10.75,6.27-12"/><path class="cls-5" d="M303.93,894.23c-.65-7.49-4.46-16.49-7.06-23.6-2.69-7.37-7.42-12.34-11.64-18.73a43.12,43.12,0,0,1-7-30.36c1.54-10.39,3-20.69,3.82-31.15.32-4,1.63-10.76,6.27-12"/><path class="cls-5" d="M316.93,894.2c-.65-7.49-4.46-16.49-7.06-23.6-2.69-7.37-7.42-12.34-11.64-18.73a43.12,43.12,0,0,1-7-30.36c1.54-10.39,3-20.69,3.82-31.15.32-4.05,1.63-10.76,6.27-12"/><path class="cls-5" d="M325.93,892.18c-.66-7.49-4.46-16.49-7.06-23.61-2.69-7.36-7.42-12.33-11.65-18.72a43.13,43.13,0,0,1-7-30.36c1.53-10.39,3-20.69,3.81-31.15.32-4.05,1.63-10.76,6.27-12"/><path class="cls-5" d="M338.94,897.15c-.65-7.49-4.46-16.49-7.06-23.61-2.69-7.36-7.42-12.33-11.65-18.72a43.19,43.19,0,0,1-7-30.36c1.53-10.39,3-20.69,3.81-31.15.33-4,1.64-10.76,6.27-12"/><path class="cls-5" d="M346.94,897.13c-.65-7.49-4.46-16.49-7.06-23.61-2.69-7.36-7.42-12.33-11.65-18.72a43.17,43.17,0,0,1-7-30.36c1.53-10.39,3-20.69,3.81-31.15.33-4,1.64-10.76,6.27-12"/><path class="cls-5" d="M355.94,897.11c-.65-7.49-4.46-16.49-7.06-23.61-2.69-7.36-7.42-12.33-11.65-18.72a43.19,43.19,0,0,1-7-30.36c1.53-10.39,3-20.69,3.81-31.15.33-4,1.64-10.76,6.27-12"/><path class="cls-5" d="M366.94,897.08c-.65-7.49-4.46-16.49-7.06-23.6-2.69-7.37-7.42-12.34-11.65-18.73a43.15,43.15,0,0,1-7-30.35c1.53-10.4,3-20.7,3.81-31.16.33-4,1.64-10.75,6.27-12"/><path class="cls-5" d="M376,901.06c-.66-7.73-4.46-17-7.06-24.37-2.7-7.61-7.43-12.74-11.65-19.34a45.74,45.74,0,0,1-7-31.35c1.54-10.73,3-21.37,3.81-32.16.33-4.19,1.64-11.11,6.27-12.41"/><path class="cls-5" d="M387,901c-.66-7.73-4.46-17-7.06-24.37-2.7-7.6-7.43-12.74-11.65-19.34a45.72,45.72,0,0,1-7-31.34c1.54-10.74,3-21.37,3.81-32.17.33-4.19,1.64-11.11,6.27-12.4"/><polyline class="cls-5" points="132.16 996.97 177.05 953.86 174.57 746.87"/><polyline class="cls-5" points="132.11 977.01 169.03 944.88 163.54 732.89"/><path class="cls-5" d="M220.08,965.76c4.57-4.85,30.63-33.46,27.82-76.06-2.16-32.82-20.16-54.36-26.14-60.94"/><path class="cls-5" d="M215.05,953.77c4.25-4.72,22.3-25.89,21.87-58-.4-30-16.65-49.83-21.13-55"/><path class="cls-5" d="M209,943.79a85,85,0,0,0,.78-92"/><path class="cls-5" d="M217.68,965.28c.87-10.35-9.08-24-15.31-31.82-3.36-4.24-7.78-8-11.43-11.92"/><path class="cls-5" d="M223.88,831.49c0,4.26,0,7-2.7,10.57-4.56,6-9.35,12-14.47,17.5-3.21,3.43-9.93,12.28-15.29,12.55,6,16.34,5.72,32,.41,48.54-4.17.28-8.92-4.17-12.74-5.6"/><path class="cls-5" d="M190.82,870.34c-2.61,3.83-9.37,2.55-11.53,6.24"/><path class="cls-5" d="M211.25,873.25c-1.49,1.12-3.59,2.33-2.88,4.16.81,2.1,6.54,4.4,8.34,5.45,2,1.16,4.44,2,5.67,4-4.57,2.12-7.73,1-8.46,7,4,1.22,10.21,5,5,8.64-1.65,1.17-5.41,1.85-6.08,4s.84,2.18,1.83,3.82c3.58,5.91-4.74,6.41-6.22,10.84-.64,1.91-1,6.58-.28,8.41"/><path class="cls-5" d="M450.71,883.87c-3.23-1.21-5-5.2-5.51-8.37-.44-2.77.37-3.31,1.62-5.5"/><line class="cls-5" x1="531.28" y1="1019.67" x2="495" y2="949.1"/><path class="cls-5" d="M495.62,985.73c-5.58.13-14.34-.85-12.56-8.91,1.1-5,7.63-5.75,11.73-7.76-3,1.41-3.83-.46-6.62-1.09-3-.69-15.65-3.69-18-.63-3.42,4.42,3.89,11.81,5.3,15.28,3,7.3-5.49,11.7-11.15,6.75-.95,6.28-12.27,21.46-17.54,11.36-2-3.83-.34-10.7,2.48-13.78-16.48,4.9-18.09-13.47-2.3-14.14-.34-2.64-1.49-5-1.89-7.67-9.62-.69-20.15,1-29.94,1.25,4.16,3.27,9,9.52,4.14,13.84-2.22,2-8.51,3-9.71-.17,2.94,9.14-8.34,21.89-18,16.2-7.78-4.57-1.09-14.67,5-16.87-5.41.28-16.52-.29-13.18-8.78,2.19-5.58,12.82-6.24,17.95-6-6.75-7.72-24.69-15.84-32.77-5.82,7.87,5.27,2.41,16.87-6.67,13.12,1.39,1,3.45,5.56,3.15,8.62-1,9.78-16.69,10.62-23.76,8.21-10.9-3.72-6.89-12.71,1.43-17.39-3.05-.39-8.46-7.29-7.1-11.94,1.65-5.67,11.52-7.11,16.42-7.83-6.55-5.23-17.75-14.48-26-5.42-5.43,6,1,9.88,1.68,16.78-3.64,1.72-8.71,1.21-10.76-2.38.66,5.37.5,11.28-3.65,15.39-3.51,3.47-11.71,6.2-15.45,1.62-3.92-4.79-.39-11.64,3.86-14.94-5.56,3.94-9.38-3.41-8.75-8.48.8-6.34,6.61-8,10.65-11.69-4.6-2.72-10.91-3.06-16.26-3.21.19,5.87-1.32,12.51-5.28,17s-9.53,2.45-13.16,5.64c-2.32,2-.44,4.61-2.15,6.76-3.16,4-9.28,1.91-13,5.63-4.41,4.42-7.36,12.95-10.49,18.41l-12.1,21.1"/><path class="cls-5" d="M459,983c4.19,0,9.49,2,11.07-3.26,1.94-6.48-4.45-8-9.54-8C448.18,971.7,448.25,985.63,459,983Z"/><path class="cls-5" d="M405.57,975.88c2.05.9,3.92-1.77,4.69-3.75,2-5.21-2.57-5.19-6.77-5.45-3.22-.2-7.87-1-7,3.42.58,2.82,4.07,5.07,6.73,5.12"/><path class="cls-5" d="M355.72,963.13c.76,4.37,12.61-2.53,4.65-6.68-13.15-6.85-5.1,15.3,0,6.34"/><path class="cls-5" d="M305.24,959c3.3,0,8.3,1.17,10.51-2,3.12-4.49-2.31-8.08-6.16-8.74-8.72-1.49-12.85,17-2.7,13.72"/><path class="cls-5" d="M494.27,958.84c-19.85,0-39.69.41-59.54.48-6.57,0-13.12.64-19.38-1.47-3.13-1.05-3.32-1.83-5.87-3.9-4.63-3.74-11.82-5.22-17.23-7.4a66.71,66.71,0,0,0-12.44-4.12,46.11,46.11,0,0,0-6.82-.79c-5.08-.16-9.17-1.11-14.21-2.23-10.76-2.4-20-2.76-30.9-2.27-6.25.28-12.56,2.34-18.81,1.63-5.29-.59-8.8-3.29-13.21-5.62-2-1.08-4.83-1.84-6.85-.88"/><line class="cls-5" x1="282.02" y1="924.37" x2="232.96" y2="1010.65"/><line class="cls-5" x1="682.4" y1="674.68" x2="530.15" y2="766.52"/><path class="cls-5" d="M649.42,700.35c.47,2.39,2.25,4.82,3.5,6.94,4.77,8.16,9.82,16.23,14,24.7,2.75,5.53,5.22,11.18,8,16.68.83,1.62,2,3.26,2.13,5.09-6.37,4.07-11.13-1.2-14.46-6.2a102.54,102.54,0,0,0-7.75-10.32c-1.1-1.28-2.32-2.22-2.63-3.84"/><path class="cls-5" d="M663.13,751.29c-.1,5.21,5.46,23.57-.27,26-6.87,2.91-11.1-10.85-12.51-14.72-2.29-6.25-4.59-13.37-8.24-19"/><path class="cls-5" d="M658.86,775.39c0,2-2.36,4.16-3.87,5.31-3.48,2.67-6.6,2.87-9.53-.3-4.83-5.24-8.62-14.07-11.91-20.32-1.46-2.77-3.08-5.59-4.4-8.41"/><path class="cls-5" d="M642.19,779.75c-1.71,6.14-12.06,1.5-14.7-.93a32.36,32.36,0,0,1-8.81-15.69"/><path class="cls-5" d="M637.74,727.25c-5-.2-10.56,1.24-14.34,4.51-4,3.43-8.13,11.43-7.85,16.86.34,6.61-10.38,24.38-15.16,14-4.69-10.15-5.23-22.44-4-33.46"/><line class="cls-5" x1="463.02" y1="742.42" x2="451.5" y2="718.22"/><line class="cls-5" x1="447.46" y1="742.46" x2="440.22" y2="725.03"/><path class="cls-5" d="M522.12,747.07a88.67,88.67,0,0,1,1.46-18c-4.42-.55-10,.25-14.1-1.57-.18,5.75-1.35,12.49-3.88,17.78C511.62,745.68,516.71,749.44,522.12,747.07Z"/><path class="cls-5" d="M506.07,714.85c0-4.3-1.23-11.45,1.38-15.09-3.51.48-7.32-2.5-10.42-3.9-.23,5.6-.17,16.39-6.28,19.32,3.86,1.34,7.46,3.87,11.41,4.81"/><path class="cls-5" d="M494.24,686.54c1.32-4.32,4.33-8.4,6.91-12-4.86-2.46-7.86-7.67-12.08-11-1.48,1.71-2.13,4.61-3.07,6.76-.74,1.71-4.17,6.13-4.13,7.95C482,682,491.35,687.27,494.24,686.54Z"/><path class="cls-5" d="M484.52,654.6c-1.38-2.73,3.76-9.65,5.41-12.08-4.84-1.6-9.07-10.08-12.48-2.58a9.78,9.78,0,0,0-.49,7C478.24,650.51,481.53,650.61,484.52,654.6Z"/><path class="cls-5" d="M475.7,623c1.78-1.49,4.22-4.65,4.84-6.92-1.92-.38-4.13-.49-5.72-1.46a7.62,7.62,0,0,0,2.08,5.66"/><path class="cls-5" d="M476.54,595.53a10,10,0,0,0,.9-4.22"/><path class="cls-5" d="M475.58,569.6v-1.81"/><path class="cls-5" d="M436,746.78c.41-6.53-3.31-16.23-6.78-21.76"/><path class="cls-5" d="M257.72,763.67l113.89-.26a178.21,178.21,0,0,1,75.76-62.76"/><line class="cls-5" x1="682.36" y1="658.87" x2="558.48" y2="709.97"/><line class="cls-5" x1="682.34" y1="648.71" x2="545.45" y2="698"/><polygon class="cls-5" points="533.74 645.63 579.19 583.92 526.04 523.04 533.74 645.63"/><polygon class="cls-5" points="539.24 605.01 564.11 593.21 539.11 550.31 539.24 605.01"/><path class="cls-5" d="M682.24,604.68a102.12,102.12,0,0,0-49.87,56.11"/><path class="cls-5" d="M682.21,595.05a228.1,228.1,0,0,0-60.84,65.77"/><path class="cls-5" d="M682.18,580.68a256.16,256.16,0,0,0-80.79,89.19"/><path class="cls-5" d="M680.21,567.31a259.46,259.46,0,0,0-98.8,110.6"/><path class="cls-5" d="M682.06,528.19A324.06,324.06,0,0,0,549.42,684"/><path class="cls-5" d="M682,515.12A301.91,301.91,0,0,0,534.41,680"/><path class="cls-5" d="M567.84,737.56c-14.47-17.69-58.7-76.35-59.67-162.47C506.93,466,576.08,396.21,588.72,383.9"/><path class="cls-5" d="M554.78,742.2c-15.4-20.17-54.27-76.72-56.59-158.09-3.11-109,61.64-181.33,75.54-196.18"/><path class="cls-5" d="M545.57,746.52c-18-24.13-46.65-69.93-55.31-133.39-17-124.85,57.13-217,71.45-234.17"/><line class="cls-5" x1="632.08" y1="538.4" x2="554.84" y2="434.98"/><line class="cls-5" x1="660.04" y1="519.73" x2="578.77" y2="407.71"/><line class="cls-5" x1="666.36" y1="515.16" x2="582.75" y2="398.91"/><line class="cls-5" x1="624.76" y1="544.15" x2="548.86" y2="444.78"/><line class="cls-5" x1="593.65" y1="567.52" x2="533.97" y2="490.68"/><line class="cls-5" x1="587.01" y1="577.55" x2="524.76" y2="494.61"/><path class="cls-5" d="M610.67,547.83c3.44-22.23-37.41-17.3-43.3-35.47-1.57-4.85-2.23-9.27,2.11-12.42,3.35-2.43,16.27-4.4,15,2.53a9.89,9.89,0,0,1-6.74.1"/><path class="cls-5" d="M590.83,535.37c-3.21,1.94-2.82,6.88-2.5,10.24,2.26.72,3.78-.45,3.56-3"/><path class="cls-5" d="M564.19,508.85c-5.23-8.78-4.4-19.11-4.76-28.89-.26-7-2.5-13.55-10.94-12-8,1.43-14.93,7.93-9.18,15.76,7.12,9.68,10.28-3.5,6-5.52"/><path class="cls-5" d="M451.49,712.4a139.63,139.63,0,0,0-70.87,58"/><line class="cls-5" x1="372.12" y1="776.18" x2="213.85" y2="776.56"/><path class="cls-5" d="M327.32,619.13a232.29,232.29,0,0,1-62.74,134.53"/><path class="cls-5" d="M441.4,673.24a277,277,0,0,0-84.87,56.2l-40,.1,39.78-89.1L330.24,608.5"/><line class="cls-5" x1="440.02" y1="642.22" x2="360.7" y2="642.41"/><path class="cls-5" d="M491.55,740.13A336.72,336.72,0,0,1,463.1,548.19"/><path class="cls-5" d="M476.88,737.77a308.71,308.71,0,0,1-24.77-188.55"/><path class="cls-5" d="M420.24,583c.21,3.78,1.23,7.58,1.75,11.33.31,2.26.36,4.67,1.43,6.72-5.37.38-11.57-1.92-17-2.44-4-.37-8-.26-11.93-.43-.23-4.88-.2-9.92,0-14.81,16.25-1,32.11,2.21,47.79-3.12,1.06-4.38.33-9.65.29-14.12,0-2.9.31-6.65-.6-9.47-1.82-.16-3.73.07-5.57,0-2.48-.09-6.57-1.73-9-.8-3.27,1.25-3.73,8.4-4.23,11.33a95.36,95.36,0,0,0-1.61,12.32c.07-5.26,0-10.62.28-15.89-7.1-1.11-14.48-10.11-22.11-7.39-.19-3.44,0-6.93-.06-10.38,8.85-.9,17.5,2.58,26.39,2.54-1.27,3.58-5.36,8.63-5.24,12.49-13.08.23-26.51,1.36-39.55,2.52-3.1.28-2.94.29-4,2.81-1.47,3.53-2.17,14.34,1.74,16.08,3.68,1.63,10-.22,13.32,2-.16-5.94.12-11.87-.33-17.81-.1-1.42,0-4.19-.54-5.18"/><polyline class="cls-5" points="681.86 444.47 610.45 366.84 596.3 366.88"/><rect class="cls-5" x="132.5" y="126" width="555" height="871"/></svg>