<svg id="Layer_1" data-name="Layer 1" xmlns="http://www.w3.org/2000/svg" viewBox="0 0 822 1122"><defs><style>.cls-1{font-size:177.66px;}.cls-1,.cls-3,.cls-4{fill:#6f9797;}.cls-1,.cls-3{font-family:HelveticaNeue-Bold, Helvetica Neue;font-weight:700;}.cls-2{fill:#d6bd80;}.cls-3{font-size:172.7px;}</style></defs><text class="cls-1" transform="translate(28.75 146.57)">9</text><circle class="cls-2" cx="52.17" cy="128.55" r="9.57"/><circle class="cls-2" cx="102.73" cy="123.09" r="9.57"/><circle class="cls-2" cx="110.94" cy="98.49" r="9.57"/><circle class="cls-2" cx="110.94" cy="72.52" r="9.57"/><circle class="cls-2" cx="105.47" cy="47.92" r="9.57"/><circle class="cls-2" cx="86.34" cy="31.51" r="9.57"/><circle class="cls-2" cx="61.74" cy="34.24" r="9.57"/><circle class="cls-2" cx="48.07" cy="53.38" r="9.57"/><circle class="cls-2" cx="48.07" cy="79.34" r="9.57"/><circle class="cls-2" cx="65.83" cy="94.38" r="9.57"/><circle class="cls-2" cx="78.13" cy="139.48" r="9.57"/><text class="cls-3" transform="translate(816.03 987.07) rotate(180)">9</text><circle class="cls-2" cx="791.26" cy="1004.58" r="9.3"/><circle class="cls-2" cx="742.11" cy="1009.9" r="9.3"/><circle class="cls-2" cx="734.14" cy="1033.81" r="9.3"/><circle class="cls-2" cx="734.14" cy="1059.05" r="9.3"/><circle class="cls-2" cx="739.45" cy="1082.97" r="9.3"/><circle class="cls-2" cx="758.05" cy="1098.91" r="9.3"/><circle class="cls-2" cx="781.96" cy="1096.26" r="9.3"/><circle class="cls-2" cx="795.25" cy="1077.66" r="9.3"/><circle class="cls-2" cx="795.25" cy="1052.41" r="9.3"/><circle class="cls-2" cx="777.98" cy="1037.8" r="9.3"/><circle class="cls-2" cx="766.02" cy="993.96" r="9.3"/><path class="cls-4" d="M209.12,225.48c-16.61-19.25-43.55-19.25-60.16,0h0c-16.61,19.25-16.61,50.46,0,69.7l10.3,11.94,60.16-69.7Z"/><path class="cls-4" d="M289.78,295.31c16.61-19.25,16.61-50.45,0-69.7h0c-16.62-19.25-43.55-19.25-60.17,0l-10.19,11.81,60.16,69.7Z"/><polygon class="cls-4" points="219.42 237.42 159.26 307.12 219.42 376.82 279.58 307.12 219.42 237.42"/><path class="cls-4" d="M585.18,223.8c-16.61-19.25-43.55-19.25-60.16,0h0c-16.62,19.25-16.62,50.45,0,69.7l10.3,11.94,60.16-69.7Z"/><path class="cls-4" d="M665.83,293.63c16.62-19.25,16.62-50.46,0-69.7h0c-16.61-19.25-43.54-19.25-60.16,0l-10.19,11.81,60.16,69.7Z"/><polygon class="cls-4" points="595.48 235.74 535.32 305.44 595.48 375.14 655.64 305.44 595.48 235.74"/><path class="cls-4" d="M589.38,408.88c-16.61-19.24-43.54-19.24-60.16,0h0c-16.61,19.25-16.61,50.46,0,69.71l10.31,11.93,60.16-69.7Z"/><path class="cls-4" d="M670,478.71c16.61-19.24,16.61-50.45,0-69.7h0c-16.61-19.25-43.55-19.25-60.16,0l-10.19,11.81,60.16,69.7Z"/><polygon class="cls-4" points="599.69 420.82 539.53 490.52 599.69 560.23 659.85 490.52 599.69 420.82"/><path class="cls-4" d="M405.14,510.68c-16.61-19.25-43.55-19.25-60.16,0h0c-16.61,19.25-16.61,50.46,0,69.7l10.3,11.94,60.16-69.7Z"/><path class="cls-4" d="M485.8,580.51c16.61-19.25,16.61-50.45,0-69.7h0c-16.62-19.25-43.55-19.25-60.16,0l-10.2,11.81,60.16,69.7Z"/><polygon class="cls-4" points="415.44 522.62 355.28 592.32 415.44 662.02 475.6 592.32 415.44 522.62"/><path class="cls-4" d="M209.12,413.09c-16.61-19.25-43.55-19.25-60.16,0h0c-16.61,19.25-16.61,50.46,0,69.7l10.3,11.94L219.42,425Z"/><path class="cls-4" d="M289.78,482.92c16.61-19.25,16.61-50.45,0-69.7h0c-16.62-19.25-43.55-19.25-60.17,0L219.42,425l60.16,69.7Z"/><polygon class="cls-4" points="219.42 425.03 159.26 494.73 219.42 564.43 279.58 494.73 219.42 425.03"/><path class="cls-4" d="M229.62,737.61c16.61,19.24,43.54,19.24,60.16,0h0c16.61-19.24,16.61-50.45,0-69.7L279.47,656l-60.16,69.71Z"/><path class="cls-4" d="M149,667.78c-16.61,19.24-16.61,50.45,0,69.7h0c16.61,19.25,43.55,19.25,60.16,0l10.19-11.81L159.15,656Z"/><polygon class="cls-4" points="219.31 725.67 279.47 655.96 219.31 586.26 159.15 655.97 219.31 725.67"/><path class="cls-4" d="M605.67,730.88c16.62,19.24,43.55,19.24,60.16,0h0c16.62-19.25,16.62-50.45,0-69.7l-10.3-11.94-60.16,69.71Z"/><path class="cls-4" d="M525,661.05c-16.61,19.24-16.61,50.45,0,69.7h0c16.61,19.25,43.55,19.25,60.16,0l10.19-11.81-60.16-69.7Z"/><polygon class="cls-4" points="595.37 718.94 655.53 649.23 595.37 579.53 535.21 649.24 595.37 718.94"/><path class="cls-4" d="M229.62,932.79c16.61,19.24,43.54,19.24,60.16,0h0c16.61-19.24,16.61-50.45,0-69.7l-10.31-11.94-60.16,69.71Z"/><path class="cls-4" d="M149,863c-16.61,19.24-16.61,50.45,0,69.7h0c16.61,19.25,43.55,19.25,60.16,0l10.19-11.81-60.16-69.7Z"/><polygon class="cls-4" points="219.31 920.85 279.47 851.14 219.31 781.44 159.15 851.15 219.31 920.85"/><path class="cls-4" d="M609.88,944.56c16.61,19.25,43.55,19.25,60.16,0h0c16.61-19.25,16.61-50.45,0-69.7l-10.3-11.94-60.16,69.71Z"/><path class="cls-4" d="M529.22,874.73c-16.61,19.25-16.61,50.46,0,69.71h0c16.61,19.25,43.54,19.24,60.16,0l10.19-11.81-60.16-69.7Z"/><polygon class="cls-4" points="599.58 932.63 659.74 862.92 599.58 793.22 539.42 862.92 599.58 932.63"/><path class="cls-4" d="M79.25,174.84c-11.32-13.12-29.68-13.12-41,0h0c-11.32,13.12-11.32,34.39,0,47.51l7,8.14,41-47.51Z"/><path class="cls-4" d="M134.23,222.44c11.32-13.12,11.32-34.39,0-47.51h0c-11.33-13.12-29.69-13.12-41,0l-7,8,41,47.51Z"/><polygon class="cls-4" points="86.27 182.98 45.27 230.49 86.27 278 127.28 230.49 86.27 182.98"/><path class="cls-4" d="M772.46,967.24c11.17,13.25,29.53,13.46,41,.47h0c11.47-13,11.72-34.26.54-47.51L807.09,912l-41.56,47Z"/><path class="cls-4" d="M718,919c-11.48,13-11.72,34.26-.55,47.51h0c11.17,13.25,29.53,13.46,41,.47l7-8-40.45-48Z"/><polygon class="cls-4" points="765.53 959.02 807.09 911.99 766.63 864 725.08 911.04 765.53 959.02"/></svg>