<svg id="Layer_1" data-name="Layer 1" xmlns="http://www.w3.org/2000/svg" viewBox="0 0 822 1122"><defs><style>.cls-1{font-size:165.39px;font-family:HelveticaNeue-Bold, Helvetica Neue;font-weight:700;}.cls-1,.cls-3{fill:#d89d70;}.cls-2{fill:#d6bd80;}.cls-4{fill:none;stroke:#d89d70;stroke-miterlimit:10;stroke-width:3px;}</style></defs><text class="cls-1" transform="translate(30.75 146.81)">J</text><circle class="cls-2" cx="98.75" cy="47.4" r="8.91"/><circle class="cls-2" cx="98.74" cy="72.82" r="8.91"/><circle class="cls-2" cx="98.74" cy="99.54" r="8.91"/><circle class="cls-2" cx="96.2" cy="124.98" r="8.91"/><circle class="cls-2" cx="74.57" cy="138.98" r="8.91"/><circle class="cls-2" cx="52.94" cy="132.62" r="8.91"/><circle class="cls-2" cx="46.57" cy="112.27" r="8.91"/><text class="cls-1" transform="translate(791.38 979.75) rotate(177.63)">J</text><circle class="cls-2" cx="727.55" cy="1081.88" r="8.91"/><circle class="cls-2" cx="726.5" cy="1056.49" r="8.91"/><circle class="cls-2" cx="725.4" cy="1029.79" r="8.91"/><circle class="cls-2" cx="726.89" cy="1004.26" r="8.91"/><circle class="cls-2" cx="747.92" cy="989.38" r="8.91"/><circle class="cls-2" cx="769.8" cy="994.84" r="8.91"/><circle class="cls-2" cx="777" cy="1014.91" r="8.91"/><path class="cls-3" d="M77.84,242.46a21.65,21.65,0,0,0,30.62.36h0a21.65,21.65,0,0,0,.36-30.61l-5.19-5.31-31,30.26Z"/><path class="cls-3" d="M37.16,211.31a21.63,21.63,0,0,0-.36,30.61h0a21.64,21.64,0,0,0,30.61.36l5.25-5.12-30.26-31Z"/><rect class="cls-3" x="51.37" y="184.89" width="43.3" height="43.3" transform="translate(-123.53 109.81) rotate(-44.33)"/><path class="cls-3" d="M55.08,265.47c10-9.56,17.61-23.9,17.84-33.46-.23,9.56,7.06,23.44,17,32.38"/><path class="cls-3" d="M590.47,492.23A31.62,31.62,0,0,0,545,493.61h0a33.46,33.46,0,0,0,1.35,46.52l8,7.73,44.1-47.9Z"/><path class="cls-3" d="M652.75,537a33.47,33.47,0,0,0-1.35-46.52h0A31.62,31.62,0,0,0,606,491.85L598.49,500l46.79,45.14Z"/><polygon class="cls-3" points="598.49 499.96 554.39 547.86 601.18 593 645.27 545.11 598.49 499.96"/><path class="cls-3" d="M623.11,456c-14.76,14.83-25.22,37.09-24.41,51.92-.81-14.83-12.49-35.45-27.25-48.1"/><path class="cls-3" d="M224.64,656.66c13.9,16.73,37.76,18.16,53.29,3.18h0c15.53-15,16.85-40.68,2.95-57.41l-8.62-10.38L216,646.29Z"/><path class="cls-3" d="M156.15,594.88c-15.53,15-16.85,40.68-3,57.41h0c13.9,16.74,37.76,18.16,53.29,3.18l9.53-9.18-50.34-60.6Z"/><polygon class="cls-3" points="216.02 646.28 272.26 592.05 221.92 531.46 165.68 585.69 216.02 646.28"/><path class="cls-3" d="M183.61,698c17.37-17.27,31.77-43.55,33.61-61.3-1.84,17.75,9.82,44.38,27.19,62.14"/><path class="cls-3" d="M738.78,891.38a21.66,21.66,0,0,0-30.61.9h0a21.66,21.66,0,0,0,.91,30.61l5.39,5.08,29.7-31.5Z"/><path class="cls-3" d="M780.71,920.83a21.65,21.65,0,0,0-.9-30.61h0a21.66,21.66,0,0,0-30.61.91l-5,5.34,31.51,29.69Z"/><rect class="cls-3" x="723.43" y="905.42" width="43.3" height="43.3" transform="translate(-440.6 833.4) rotate(-46.69)"/><path class="cls-3" d="M760.76,867.55c-9.94,9.76-17,24.4-16.44,34.17-.55-9.77-8.41-23.33-18.35-31.65"/><path class="cls-4" d="M458.29,163.78c-.91,2.08-2.72,3.56-3.51,5.56,4.25.52,8.48-3.28,12-5.2a53.62,53.62,0,0,1,12.33-4.59c5.09-1.3,12-2.61,17.3-1.78,5,.79,10.21,3.73,15.44,3.73-5.86-8.46-14.72-11.22-24.93-8.8C477.22,155,464.77,161.11,458.29,163.78Z"/><path class="cls-4" d="M499.43,168.27c-4.05-.56-7-2.83-11.28-2.63s-8.61,1.94-12.24,3.84c-5.92,3.1-16.26,8.76-17,15.93,6.71,1.11,9-4.52,14.32-7.08a37.12,37.12,0,0,1,19.66-3.17c7.14.87,11.79-.8,17.51-5"/><path class="cls-4" d="M496.68,176.52c.22,4,2.07,8.8.4,12.68-1.83,4.24-6.12,3.12-10.26,3.05-3.75-.07-18,.37-17.95-5.62"/><path class="cls-4" d="M487.06,175.88c-2.5,2.56-1.82,9.52.31,12.14,1.51,1.86,5.5,4.56,8.11,4.09.89-2.21,2.46-3.77,2.77-6.37.39-3.22-.53-6.12-.78-9.19C493.87,176.62,490.22,175.72,487.06,175.88Z"/><path class="cls-4" d="M499.73,193.18c-2.25.65-4.05,3.16-5.94,4.5-2.5,1.79-5.32,3.16-7.88,4.87s-5.36,4.75-8.28,5.79"/><path class="cls-4" d="M503.33,217.3c-5,.57-1.83,10.15.29,12.23,3.44,3.36,8.91,2.84,12.75.26,1.81-1.21,6.43-5.88,8.71-3.68,3.51,3.41-4,3.43-5.86,3.33a4.12,4.12,0,0,1,0-1.11"/><path class="cls-4" d="M438.26,139.86c0,4.06.64,8.59-.66,12.47-1.9,5.68-6.85,10.54-10.13,15.51a96.11,96.11,0,0,0-10.14,19.29c-2.33,6.35-7.69,18.71-4.28,25.38"/><path class="cls-4" d="M428.18,142.11c-2.25,12.65-10.58,25-15.81,36.75-2.45,5.5-5.74,10.43-8.73,15.65-4,7-7.18,14.55-8.39,22.42-.93,6-1.24,14.67,3.35,19.53,5.07,5.38,15,5.86,19.08-.41,2.41-3.7,3.06-7.36-1-9.73-2.93-1.71-6.1-2-8,1"/><path class="cls-4" d="M386.84,241.12c7.72,7.37,18,10.09,28.91,10,9.13-.1,10.79-9.5,10.41-16.62-.34-6.39-1.32-14.61-7.74-18.29-4.87-2.79-13.73-1.58-17.13,2.76"/><path class="cls-4" d="M414.4,142.75c-2.76,13.61-12.45,26.63-19.7,38.33-3.42,5.52-7.42,11.19-10.06,17.08-1.43,3.18-2.49,9.14-.49,12.42"/><path class="cls-4" d="M400.62,145.65c.38,5.43-6.06,13.44-8.71,18-2.43,4.2-4.8,8.42-7.42,12.49a130.63,130.63,0,0,0-7.41,13.35c-2.65,5.45-3.32,11.87-3.35,17.84"/><path class="cls-4" d="M387.51,147.25c.3,5.55-3.93,12.39-6.26,17.39-2.12,4.55-4.19,9.1-6.34,13.62a122.28,122.28,0,0,1-8.55,15.55C362.89,199,356,208,358.61,214.44"/><path class="cls-4" d="M373.06,146.61c.38,18.11-15.73,32-21.35,48.35a170.49,170.49,0,0,0-5.65,20.89c-1.16,5.65-2.73,12.45-.85,18.09,3.39,10.13,17.15,17.3,27.2,11.65,8.6-4.82,14-13.74,11.09-23.35-1.5-5-4.3-9.46-9.83-10.86-3.28-.83-8.63-1.43-10.69,1.77"/><path class="cls-4" d="M364.66,224.72c1.18-2.6,6.32-3.25,8.57-1.62,2.94,2.14,3.46,10.8,2.32,13.92-3,8.19-13.94,3.25-16.13-2.71-1.08-2.94-2.29-10.36-.81-13.12"/><path class="cls-4" d="M338.78,153.68c-4.43,10.44-8.94,21.16-15.73,30.43-3.46,4.71-7.74,8.77-11,13.63-5.72,8.5-6,18.15-4.45,28.09,1.36,9,4.78,21.47,16.6,19.75,4.62-.67,14.1-4.46,15.26-9.6"/><path class="cls-4" d="M331.38,222.15c3,4.58,3.19,11.24-2.91,13.39-9,3.15-13.42-6.11-11.42-13.39,1.94-7,10.69-7.42,16.77-5.71,2.46.69,6.68,2,7.65,4.43"/><path class="cls-4" d="M324.33,210.58c0-6-1-12.46,1.77-18.05,3.71-7.42,10.2-13.68,14.4-21,2.36-4.09,4.52-8.4,6.86-12.44.95-1.62,2-3.23,2.17-5.13"/><path class="cls-4" d="M335.75,210.26c0-16,13.31-27.07,19.44-41.27,2.41-5.59,6.75-12.8,7.45-18.84"/><path class="cls-4" d="M308.53,239.19c-.22,3.47-8.47,10.32-11.43,12.22"/><path class="cls-4" d="M299.46,269.41c-3.51-2.06-7.11-4.72-11.64-3.54-1.84.48-1.36-.23-2.5,1.62-1,1.64-1.1,6.63-.6,8.44,1.49,5.4,12,7.55,16.91,5.86,8.77-3,11.07-13.3,8.95-21-2-7.31-4.11-11.51-12.48-11.69-5.2-.11-12.78,1.54-15.72,6.1-3.76,5.85-3.58,18.79-1.88,25,3.11,11.44,14.39,14.68,24.75,8.73,11.19-6.44,16.41-16.34,21.61-27.14,2.07-4.29,5.16-7.73,7.55-11.74"/><path class="cls-4" d="M314.58,265.55c.25-4.52,6.54-12.87,9.75-16.39"/><path class="cls-4" d="M312.23,252.05c-.13-1.6.74-3,1-4.5"/><path class="cls-4" d="M354.57,272.94c-.11-4.81-7.24-7.21-11.37-6.75-6.7.76-8.73,12.48-3.09,15.62,9.92,5.52,20.24-1.14,25.15-9.08,4.29-6.94,3.9-14,6.45-21"/><path class="cls-4" d="M361.63,266.19c1-11.31-18.23-10.39-25.63-7.8-11.84,4.14-13.15,22.93-3.09,29.42,5.17,3.34,14.8,3.84,20.56,1.64,7.86-3,11.68-9.36,15.7-16,3.28-5.45,6.15-11.24,9.69-16.55,1.39-2.08,3.26-3.94,3.61-6.42"/><path class="cls-4" d="M378.1,283.55c1.32-2.77,4.65-5.25,6.55-7.9,3.22-4.45,4.9-9.48,7-14.44,1.25-3,2.16-6.52,3.93-9.16"/><path class="cls-4" d="M394.57,282.59c-.23-5.85,1.81-11.91,3.88-17.34,1.05-2.76,1.66-6.55,3.18-9"/><path class="cls-4" d="M345.5,254.62c-.21-2.46,1.87-5.49,3-7.39"/><path class="cls-4" d="M356.93,256.55a6.87,6.87,0,0,1,2.35-4.5"/><path class="cls-4" d="M472.88,241.44c-.55-2.29-5.35-1.9-7.37-1.93-4.31,0-6.53,2.16-7.35,6.4-1.16,6,3,9,8.48,10.49,7.42,2,12.76.05,18.7-4.29s13.75-13,21.38-14.14c4.48-.65,12,4.23,4.91,6.69-6.05,2.09-17.63-1.91-22.29,3.85"/><path class="cls-4" d="M525.3,147.58c0,8,1,15.62-2.28,23-1.84,4.13-4.36,7-4.78,11.79-.73,8.26,4.06,16.1,8.74,22.67,2.07,2.92,11.12,11.88,11.1,14.86-.07,7.38-6.41,10.77-12,15.13-4,3.17-2.69,6.87-2.49,11.56.19,4.34.65,9.16-4.28,10-2.8.45-5.91-.19-8.69-.33-5.72-.28-11.61.14-17.29-.39,3.35-1.12,7.23-2.3,10.68-3.73,6.28-2.6,11.16-2.94,17.9-2.94"/><path class="cls-4" d="M404,257.83c9.83,9.76,19.47,18.26,31,26a46.6,46.6,0,0,0,10.36,4.69c5.33,1.91,10.95,5,16.65,5.61,5.92.63,12.14,1.64,18.06,1.95,10.74.58,23.83-1.49,33-7.39,5.92-3.82,2.7-7.51,2.15-12.91-.3-2.95,1-3,2.11-5.31a17.93,17.93,0,0,0,1.26-8.13"/><path class="cls-4" d="M327.76,79.48c-1.36,11.94,15.44,23.29,21,33.2a57.11,57.11,0,0,1,4.9,11.52c10-1.71,20.54-2.72,30.29-6.15a111.17,111.17,0,0,1-9.27-29c-.52-3.23.07-8.12-1.22-10.65"/><path class="cls-4" d="M400.36,80.6c0,11.11-.56,22.44.1,33.52a454.15,454.15,0,0,0,64.22.55c.77-9.66,8.91-26.22,4.19-35.19"/><path class="cls-4" d="M478.82,82.84c0,11.85-1.18,24.59.19,36.31,9.11.57,25.2,3.81,31.72-2.12,8.4-7.63,12.74-19.16,20-27.73,1.94-2.3,8.12-6.93,7.85-9.26"/><path class="cls-4" d="M293.8,82.84c14.5,16.39,23.82,34.55,34.11,53.2,1.76,3.19,5,11.84,8,13.47,5.78,3.09,21.46-4.41,27.42-5.63,12.3-2.52,24.8-5.07,37.3-6.58,26.8-3.23,53.37.12,80,3.21,13.63,1.59,27.68,3.8,40.35,9"/><path class="cls-4" d="M529.17,146.12c.43-15.78,17.49-35.44,28.37-47.23,5.1-5.54,11.53-9.93,15.55-16"/><path class="cls-4" d="M651.07,166.15c-2.17.29-6.27-7.81-7.25-9.64-2.29-4.28-4.17-8.3-4.75-13.12-.85-7,5.55-10,11.79-12,6.81-2.16,10.9,9.2,11.53,14.21.76,5.92-.65,9.94-4.69,14.28C655.38,162.35,652.82,165,651.07,166.15Z"/><path class="cls-4" d="M650.5,184.36c-3.78,1.6-6.59,5.35-9.79,7.79-.88.67-4.58,2.64-5,3.75s.1,1,.55,2.06c.59,1.38,3.85,3.51,4.93,4.67,1.7,1.82,3.23,3.74,4.82,5.66,2.67,3.21,5.47,6.37,7.89,9.72.75-7.59,8-14.33,12-20.61A140.93,140.93,0,0,0,650.5,184.36Z"/><path class="cls-4" d="M650.79,193.6c-1.49,2-4.46,3.32-6.21,5,2.09,3,5.29,5.61,7,8.89,1.23-2.14,4.52-5,4.64-7.47C656.33,197.36,652.85,194.62,650.79,193.6Z"/><path class="cls-4" d="M658.18,228.65c-1.27-3-2.08-6-.52-8.53,1.36-2.21,4-4.1,5.68-6.11,3.49-4.12,7-8.23,10.31-12.47,2-2.53,3.12-3.25,1.59-5.77-1-1.72-3.65-3.37-5.12-4.87-3.75-3.83-9.24-11.12-13.93-13.88-2.76-1.63,1.39-7.05,2.48-8.76,3.6-5.69,9.17-9.92,11.39-16.4,2.39-7,3.11-17.37-.64-24.09-2.45-4.38-8.1-9.11-13.14-9.45-10.2-.69-22.9,5-28.43,13.43-4.12,6.28.47,20.25,4.47,25.75,2.15,3,5.4,5.31,7.82,8.11,3.17,3.67,2.69,7.1,2.69,11.68-4.9,2.83-8.89,12.22-13.06,16a47,47,0,0,1-5.4,4c-2.51,1.69-3.62,1.88-1,4.26,4.85,4.36,10.45,7.95,15.31,12.34,1.45,1.32,4,3,4.94,4.87,1.43,2.74.59,6.62.59,9.64,0,2-5,5.79-6.07,7.44a60,60,0,0,0-5.85,11.41c-2,5.11-3.09,10.43-4.56,15.66-2.17,7.77-1.38,15.58,7.49,19.31,7.77,3.27,20.22,2.55,28-.65,11.31-4.68,11.65-18.25,8.71-28.29-1.87-6.41-4.15-14.65-8.65-19.71"/><path class="cls-4" d="M650.22,235.72c0,3.14-2.81,6.74-3.88,9.67-1.58,4.3-3.28,9-3.88,13.53-.66,5.08.75,11.86,5.94,14.44A13.7,13.7,0,0,0,662.15,272c6.1-4.34,6.47-10.94,3.69-17.29-2-4.59-5-8.05-7.78-12.15a14.18,14.18,0,0,1-2.44-4.64"/><path class="cls-4" d="M642.83,285.18v4.9"/><path class="cls-4" d="M657.89,284.91v3.81"/><path class="cls-4" d="M592,330.57c1.16-2.66,3.9-4.35,5.34-6.86,1.56-2.71,2.15-5.95,3.59-8.76,3.48-6.78,9.69-14.66,16.76-18.06,8-3.83,15-3.55,23.75-3.55-5,6.28,3.19,9.1,9.62,9,7.67-.16,14-2.69,12.79-11.37-3.85-.27-7.82.45-11.64.91-3.19.39-6.93.12-9.92,1"/><path class="cls-4" d="M659.6,304.48a29.62,29.62,0,0,1-14.1,5.93c-4.81.58-10.15-.23-14.72,1.89-4.34,2-2.57,9.14-3.17,13.36s-1.28,8.58-2.1,12.8c-.35,1.79-.67,4.67-2,6"/><path class="cls-4" d="M648,316.71c-6.11,0-15.33-2-12.22,7.23.76,2.26.58,1.74,3.71,1.87,2.44.11,7.3,1.09,9.66.14C651.82,324.86,650.56,321.06,648,316.71Z"/><path class="cls-4" d="M638,328.67c0,4.31-.47,6.72,4.72,7.82,1.51.31,5.29.67,6.49-.74,1-1.21.2-5.37-1-6.37C646.05,327.57,640.05,327.6,638,328.67Z"/><path class="cls-4" d="M640,340.9c0,2.33-.42,3.8,1.43,5.33,1.65,1.36,7,2.51,9,1.46,1.63-.87,2.21-4.35.1-6C648.23,339.88,642,341.17,640,340.9Z"/><path class="cls-4" d="M640,354.21c2.39,0,10.2-1.29,10,3-.25,4.6-10.31,3.1-9.67-1.36"/><path class="cls-4" d="M641.7,350.41c7.54,0,15.34.77,22.56-1.5,1-.3,2.91-1.44,3.86-1.23,2.36.51,3.56,4.85,3.71,6.81.48,6.36-7,7.68-12.13,8.51-2.65.43-13.12,1.58-16,.06C641.87,362.11,634.74,350.47,641.7,350.41Z"/><path class="cls-4" d="M643.69,338.18c4.86,0,13.33,1.38,18.47-1.22,1.64-.83,4.13-3.43,6.09-3.41,3.7,0,5.61,5.6,4.94,8.57s-3.23,6.93-6.21,7.74"/><path class="cls-4" d="M668.69,331.66c2.17-3.41,4.35-7.55,4.48-11.62,0-1-.32-2-.3-3a17,17,0,0,1,.64-3.44,8.7,8.7,0,0,0-2.3-7.38c-3-3.55-6.69-2.87-11-2.87"/><path class="cls-4" d="M669.26,316.44c-5.9,2.21-10.19,7.89-17.33,7.33"/><path class="cls-4" d="M642,312.63c-2.21-.18-9.51,1.45-7.39,4.62"/><path class="cls-4" d="M651.12,366.26a8,8,0,0,1-1.42,5.44"/><path class="cls-4" d="M189.83,324.36c10.34-9.74,26.91-14.05,39.35-21.09,6.57-3.72,12.77-8,20.07-10.19,5.05-1.53,10.42-2.38,15.22-4.59,2.66-1.22,5.06-3.76,8.09-4"/><path class="cls-4" d="M268.07,289.4c0,5.76-2.82,20.52,3.52,24.3,8.23-6.3,5.3-16.51,5.78-24.92"/><path class="cls-4" d="M258.45,291.24c0,8.23.71,14.35,5.46,21.4,4.08,6.05,12.16,8.89,15.41,15.36,3.84,7.66,2.49,18.67-.83,26.25-1.58,3.61-3.64,6.89-5,10.56a2.59,2.59,0,0,1-1.23-.27"/><path class="cls-4" d="M273.2,315.16c9.06,8.31,18,18.82,14.37,31.29-1.39,4.75-3.77,9-5.39,13.65-.59,1.69-1.32,6.82-2.88,7.51"/><path class="cls-4" d="M281.86,318.23c0-5.51,2.93-11.05,3.22-16.69a46.66,46.66,0,0,0-.33-8.46"/><path class="cls-4" d="M266.15,323.75c.21,11.16-3.92,22.59-.95,33.57A54.83,54.83,0,0,0,274,374.88c3.24,4.37,8.89,8.51,11.74,12.36"/><path class="cls-4" d="M273.52,327.74c.16,3.25-1.56,6.62-2.17,9.8A86.82,86.82,0,0,0,270,349c-.29,5.57,1.07,7.44,4.19,11.87"/><path class="cls-4" d="M278.33,369.14c5.11,1.81,6.1,10.48,7.35,15,1.06,3.8,0,5.15,1.31,6.49,4.24,4.36,14.85-5.28,27.61-1.95,7.93,2.06,8.09,6.89,14.46,6.91,8.6,0,10.73-8.74,19.28-9.22,7.29-.41,8.14,5.83,18.07,9.22,14,4.78,20.58-4.77,32.53,0,9.15,3.65,6.92,9.89,18.08,17.29,11.54,7.65,18.72,4.14,28.91,9.22,14.38,7.16,19.1,23.61,22.9,36.87,7,24.47-.72,34,6,66.85a182,182,0,0,0,4.82,18.44"/><path class="cls-4" d="M243.7,297.68v47.17c0,4.93-.74,10.59.32,15.4"/><path class="cls-4" d="M254,367c0-23.76,1.4-48.21-.64-71.78"/><path class="cls-4" d="M224.3,309.8c-.36,9.76-.58,24.1.32,41.4,2.49,48.09,4.51,87.19,24.92,120.43,7.39,12,32,47.49,95.18,66.84"/><path class="cls-4" d="M325.31,303.9c48.84,0,98.05-1.68,146.84.43,3.79.16,12.79,1.46,15.81-1"/><path class="cls-4" d="M320.1,311.09c65.42,0,130.83-.55,196.22-.55"/><line class="cls-4" x1="323.13" y1="323.75" x2="493.36" y2="324.36"/><line class="cls-4" x1="487.96" y1="310.54" x2="487.96" y2="323.75"/><line class="cls-4" x1="472.4" y1="311.09" x2="472.4" y2="323.75"/><line class="cls-4" x1="457.96" y1="310.82" x2="457.96" y2="324.36"/><line class="cls-4" x1="442.12" y1="311.09" x2="442.12" y2="324.36"/><line class="cls-4" x1="428.18" y1="310.77" x2="428.18" y2="324.13"/><line class="cls-4" x1="411.59" y1="311.09" x2="411.59" y2="324.36"/><line class="cls-4" x1="398.09" y1="310.77" x2="398.09" y2="324.13"/><line class="cls-4" x1="382.47" y1="311.09" x2="382.47" y2="323.75"/><line class="cls-4" x1="364.31" y1="310.54" x2="364.31" y2="323.75"/><line class="cls-4" x1="351.66" y1="310.77" x2="351.66" y2="323.75"/><line class="cls-4" x1="336.83" y1="311.09" x2="336.83" y2="321.92"/><line class="cls-4" x1="323.13" y1="274.39" x2="325.31" y2="389.13"/><line class="cls-4" x1="306.87" y1="385.05" x2="305.25" y2="289"/><line class="cls-4" x1="524.04" y1="296.17" x2="442.12" y2="414.01"/><line class="cls-4" x1="455.57" y1="423.23" x2="535.3" y2="304.82"/><line class="cls-4" x1="461.3" y1="427.01" x2="541.12" y2="310.54"/><line class="cls-4" x1="548.35" y1="313.75" x2="467.62" y2="438.21"/><polyline class="cls-4" points="467.62 447.43 476.06 447.43 535.3 355.09"/><line class="cls-4" x1="516.32" y1="288.72" x2="692.93" y2="399.03"/><line class="cls-4" x1="543.84" y1="323.75" x2="692.93" y2="414.01"/><line class="cls-4" x1="535.3" y1="336.77" x2="692.93" y2="438.21"/><line class="cls-4" x1="528.81" y1="343.87" x2="692.93" y2="448.55"/><polyline class="cls-4" points="567.13 371.7 511.62 448.55 525.46 458.95 560.4 402.49"/><path class="cls-4" d="M489.34,434c0,3.66-.56,7.7.21,11.28.22,1,2.94,6.95,4.87,5.91,1.2-.64.69-5.31.7-6.27a20.81,20.81,0,0,0-2.2-9.93c-.86-1.72-1.93-5.09-4-5.62"/><path class="cls-4" d="M493.72,432.7c-.43.27,8.66,6.19,10.11,6.9.88.44,4.61,2.2,5.58,1.17,1.7-1.79-4.45-6.29-5.76-7A13.81,13.81,0,0,0,493.72,432.7Z"/><path class="cls-4" d="M493.26,429.84h8.13c1.33,0,4.95.67,6.18,0s.93-1.64.89-3.07C506.18,426.33,492.63,424,493.26,429.84Z"/><path class="cls-4" d="M510.56,403.81c0,2.5-1.62,17.56,5,15.24,2.62-.92,1-7.89.57-10.05a21.78,21.78,0,0,0-4-8.72c4.42,3,9.14,6.45,14.74,6.14.28-4.32-7-7.8-10.82-7,4.11,0,11.11-.87,15.91-1.13.25-3.55-5.25-5.22-8.17-4.86a11,11,0,0,0-6.59,3.35"/><path class="cls-4" d="M532.47,372c0,2-1.62,20.2,3.78,18.36,3-1,2.08-9.69,1.52-11.54C537,376.26,534.72,374.17,532.47,372Z"/><path class="cls-4" d="M534.08,371.6c1.07,2.82,14,10.8,15.9,6.72,1.8-3.82-6.62-8.38-9.38-8.93C538.36,369,535.9,369.17,534.08,371.6Z"/><path class="cls-4" d="M533.62,369.39c4,0,8,.11,12,0,.63-3.57-6.26-4.19-8.58-3.95a10.46,10.46,0,0,0-8,4.42"/><line class="cls-4" x1="324.22" y1="337.02" x2="493.24" y2="337.02"/><path class="cls-4" d="M211,347.53c-5.36.27-13.22-2.57-17-6.55-1.78-1.9-3.85-7.16-1.27-9.28s12-.19,14.43,1A18.93,18.93,0,0,1,216,343.05a18.58,18.58,0,0,1,1.09,4.43c-16.88-3-35.44-5.2-35.82-.61-.86,10.45,26.08,1.25,30.9-1.11-3.94.2-9.09,4.56-12.53,6.56-4.82,2.81-10.94,5.51-14.87,9.47-3.4,3.41-3.72,7,.69,9.95C199.67,381.27,208.16,358.35,211,347.53Z"/><path class="cls-4" d="M208.35,398.42c-6.91.11-25.93-11-13.92-18.08,8.07-4.75,15,14.19,17,20.13-4.51.41-33.43-7.53-33.28.92.16,8.8,20.8.05,25.21-1.66-1.62,4.61-16.57,20-10.87,23.64,8.7,5.55,17.82-13.61,18.5-19"/><path class="cls-4" d="M223.43,443.8c-7.2-6.77-15.76-10.28-26.1-9.28.29,5.23,20,19.22,25.14,14-5-.33-29.32-5.78-26.09,4.92,2.54,8.45,13.58-2.19,17.73-5-1.91,3.72-10.14,16.4-1.33,16.58C220.38,465.17,222,452.6,223.43,443.8Z"/><path class="cls-4" d="M247.37,487.06c-7.4-.48-14.69-3.54-22.43-3.85-4.72-.19-9.65-.11-14.36.08,3.14,7.08,27.23,13.82,35,10.44-4.53-2.5-22.66.28-22.6,7.08.1,11.05,18.24,1.95,18.59-6.06-3.45,4.7-7.43,27.86,5.3,23.92,6.81-2.11,6-13.89,6.2-19,.24-5.95,1.3-13.55-1.69-19"/><path class="cls-4" d="M277.53,517.59c-4.14,0-29.81-2.86-28.76,3.07,1.35,7.58,27.34,5.47,32.73,1.47-4.68-1.67-25,9.18-21.71,15.81,1.83,3.68,9,4.18,11.65,2.09,3.16-2.47,4-9.55,3.87-13.23,0,7.1-.95,22,10.91,21.36C290.82,540,287.92,527.38,277.53,517.59Z"/><path class="cls-4" d="M321.87,540.49c-4.31,0-25.05-3.37-23.95,4.66.76,5.54,10.81,4.72,14.69,3.58,4.79-1.41,9.39-5.48,12-9.42-3.15,4.07-23.2,29.2-12.37,32.48,6.4,1.94,12.84-7.9,13.77-12.83,1-5.22,1-12.22-3.32-16.17-.68,10.66,6.68,23.85,19,23.56C345.45,557.43,334.37,546.34,321.87,540.49Z"/><path class="cls-4" d="M342.31,540.78C331.48,538,268.13,520.67,233.87,459c-28.25-50.89-18.74-99.61-15.66-112.93"/><path class="cls-4" d="M338.7,501.6c-9.82-3.43-46-17.31-68.68-55.32a121.18,121.18,0,0,1-15.66-79.52"/><path class="cls-4" d="M336.29,491.22c-8.21-2.64-37.16-13-56.63-42.64A100,100,0,0,1,264,381.74"/><path class="cls-4" d="M331.47,477.39a99.71,99.71,0,0,1-41-33.42,93.59,93.59,0,0,1-16.86-56.47"/><path class="cls-4" d="M125.43,299.92c22.1,5.94,130.13,37.38,189.17,141.75,36.73,64.93,36.86,126.91,34.94,155.58"/><path class="cls-4" d="M300.8,411.28c2.61,0,7.88-.26,11.27,0,5.86.43,8.78,5.38,10.63,10.32,4.13,11,7.39,22.39,11.57,33.38a57,57,0,0,0,4.36,9.74"/><path class="cls-4" d="M402.93,497.83c.44-.75.27-1.85.29-3,0-4.59.56-9,1-13.61,1.34-14,1.84-32.12-5-45-3.73-7-14.51-21.66-24.74-15.86-9.29,5.27-7.61,16.75-7.89,25.45S363,464.15,364.43,473c.57,3.52,2.17,7,3.29,10.4"/><path class="cls-4" d="M409.62,449.69c0-4-.53-7.2,4.27-8.46,7.56-2,15.59-.06,19.36,6.84,4.82,8.82,4.2,20.62,3.2,30.2-.53,5.08-1.93,13.15.45,17.88-4.68.13-12.17,1.21-16.22-.54"/><path class="cls-4" d="M363.36,422.14c-.65-3.33-5.51-5.89-8.44-7.28-4.43-2.1-9.05-2.43-13.31.39a24.76,24.76,0,0,0-8.8,11.34"/><path class="cls-4" d="M353.28,979c1-2,2.85-3.46,3.73-5.44-4.23-.67-8.6,3-12.21,4.76a53.21,53.21,0,0,1-12.5,4.15c-5.14,1.12-12.09,2.18-17.36,1.16-5-1-10.06-4.1-15.28-4.29,5.52,8.67,14.27,11.74,24.57,9.69C334,987.07,346.7,981.42,353.28,979Z"/><path class="cls-4" d="M312.35,973c4,.7,6.87,3.08,11.16,3s8.69-1.62,12.38-3.4c6-2.89,16.6-8.16,17.62-15.3-6.66-1.35-9.2,4.19-14.58,6.56a37.2,37.2,0,0,1-19.77,2.46c-7.11-1.12-11.83.37-17.7,4.38"/><path class="cls-4" d="M315.41,964.88c-.05-4-1.72-8.88.11-12.7,2-4.17,6.24-2.89,10.37-2.67,3.74.2,18,.27,17.71,6.26"/><path class="cls-4" d="M325,965.86c2.61-2.47,2.2-9.46.17-12.15-1.44-1.91-5.32-4.75-7.94-4.38-1,2.19-2.6,3.69-3,6.27-.52,3.21.29,6.14.42,9.21C318.23,964.87,321.84,965.91,325,965.86Z"/><path class="cls-4" d="M313,948.12c2.27-.57,4.17-3,6.1-4.29,2.58-1.7,5.45-3,8.07-4.58s5.54-4.55,8.51-5.49"/><path class="cls-4" d="M310.37,923.88c5-.38,2.23-10.08.19-12.23-3.31-3.48-8.79-3.16-12.72-.72-1.86,1.15-6.67,5.64-8.85,3.36-3.37-3.52,4.09-3.27,6-3.11a4.13,4.13,0,0,1,0,1.11"/><path class="cls-4" d="M372.36,1003.61c.16-4.06-.31-8.61,1.14-12.44,2.13-5.61,7.27-10.29,10.74-15.14a96,96,0,0,0,10.89-18.91c2.58-6.26,8.41-18.42,5.27-25.21"/><path class="cls-4" d="M382.52,1001.72c2.75-12.56,11.55-24.63,17.24-36.16,2.67-5.4,6.14-10.21,9.33-15.32,4.28-6.84,7.76-14.28,9.27-22.1,1.16-6,1.82-14.62-2.58-19.65-4.86-5.55-14.75-6.38-19.08-.26-2.56,3.61-3.34,7.24.65,9.76,2.86,1.8,6,2.26,8-.7"/><path class="cls-4" d="M427.72,904.27c-7.43-7.65-17.62-10.74-28.5-11-9.13-.23-11.15,9.11-11.06,16.23.09,6.4.74,14.66,7,18.56,4.76,3,13.65,2.07,17.23-2.14"/><path class="cls-4" d="M396.32,1001.57c3.29-13.5,13.48-26.16,21.18-37.59,3.64-5.39,7.86-10.91,10.73-16.71,1.55-3.12,2.85-9,1-12.39"/><path class="cls-4" d="M410.2,999.18c-.17-5.45,6.58-13.23,9.41-17.72,2.59-4.11,5.12-8.24,7.91-12.22a131.69,131.69,0,0,0,7.92-13.07c2.86-5.35,3.79-11.74,4.05-17.7"/><path class="cls-4" d="M423.36,998c-.08-5.56,4.41-12.24,6.94-17.15,2.3-4.47,4.55-8.94,6.87-13.38a122.57,122.57,0,0,1,9.16-15.24c3.67-5.09,10.91-13.82,8.55-20.33"/><path class="cls-4" d="M437.78,999.2c.32-18.11,17-31.38,23.22-47.55A169.4,169.4,0,0,0,467.47,931c1.39-5.6,3.22-12.34,1.56-18.05-3-10.24-16.45-17.9-26.72-12.62-8.78,4.52-14.49,13.24-12,22.94,1.3,5.06,3.93,9.61,9.4,11.21,3.24.94,8.57,1.74,10.76-1.39"/><path class="cls-4" d="M449.24,921.45c-1.28,2.55-6.45,3-8.63,1.31-2.85-2.24-3-10.91-1.77-14,3.29-8.07,14.06-2.74,16,3.29,1,3,1.88,10.44.3,13.15"/><path class="cls-4" d="M472.31,993.37c4.84-10.27,9.76-20.83,16.91-29.85,3.64-4.58,8.09-8.48,11.54-13.22,6.05-8.29,6.66-17.92,5.55-27.91-1-9-3.93-21.63-15.82-20.33-4.64.51-14.26,4-15.62,9.05"/><path class="cls-4" d="M482.39,925.21c-2.82-4.68-2.74-11.35,3.44-13.27,9.07-2.83,13.17,6.59,10.88,13.78-2.21,7-11,7-17,5.11-2.43-.78-6.6-2.21-7.47-4.7"/><path class="cls-4" d="M489,937c-.24,6,.52,12.49-2.49,18-4,7.28-10.73,13.3-15.21,20.43-2.51,4-4.85,8.23-7.35,12.18-1,1.59-2.14,3.16-2.36,5"/><path class="cls-4" d="M477.56,936.94c-.64,16-14.37,26.57-21.05,40.55C453.88,983,449.27,990,448.33,996"/><path class="cls-4" d="M505.9,909c.35-3.46,8.87-10,11.89-11.8"/><path class="cls-4" d="M516.15,879.14c3.42,2.18,6.91,5,11.48,4,1.87-.42,1.36.28,2.57-1.53,1.07-1.6,1.36-6.58.93-8.41-1.28-5.46-11.73-8-16.67-6.47-8.88,2.72-11.58,12.9-9.76,20.63,1.73,7.37,3.65,11.65,12,12.13,5.2.29,12.84-1.08,15.95-5.53,4-5.71,4.33-18.65,2.87-24.95-2.66-11.54-13.8-15.18-24.39-9.61-11.44,6-17,15.74-22.66,26.34-2.23,4.21-5.46,7.54-8,11.47"/><path class="cls-4" d="M500.89,882.45c-.43,4.51-7.05,12.62-10.39,16"/><path class="cls-4" d="M502.71,896c.06,1.61-.87,3-1.19,4.47"/><path class="cls-4" d="M461.21,873.62c-.08,4.81,7,7.47,11.1,7.16,6.73-.52,9.21-12.16,3.7-15.5-9.69-5.87-20.27.41-25.49,8.18-4.55,6.78-4.44,13.86-7.27,20.75"/><path class="cls-4" d="M453.89,880.12c-1.4,11.27,17.81,11,25.31,8.71,12-3.71,14-22.44,4.25-29.28-5.05-3.52-14.64-4.37-20.49-2.38-8,2.72-12,8.93-16.32,15.46-3.49,5.33-6.59,11-10.33,16.19-1.47,2-3.42,3.82-3.86,6.29"/><path class="cls-4" d="M438.12,862.18c-1.43,2.72-4.85,5.08-6.86,7.65-3.39,4.34-5.26,9.3-7.56,14.19-1.37,2.91-2.42,6.44-4.28,9"/><path class="cls-4" d="M421.62,862.55c0,5.85-2.28,11.83-4.56,17.18-1.15,2.72-1.91,6.49-3.53,8.91"/><path class="cls-4" d="M469.56,892.26c.11,2.47-2.08,5.42-3.31,7.28"/><path class="cls-4" d="M458.22,889.92a7,7,0,0,1-2.53,4.41"/><path class="cls-4" d="M341.75,900.85c.46,2.31,5.27,2.1,7.29,2.19,4.3.22,6.61-1.92,7.6-6.13,1.38-5.9-2.66-9.11-8.07-10.78-7.33-2.28-12.75-.51-18.85,3.61s-14.26,12.53-21.92,13.37c-4.51.49-11.88-4.66-4.64-6.87,6.12-1.86,17.54,2.54,22.42-3"/><path class="cls-4" d="M285.68,992.77c.31-8-.39-15.66,3.18-22.9,2-4.07,4.63-6.87,5.24-11.62,1.06-8.23-3.43-16.23-7.84-23-1.95-3-10.65-12.26-10.51-15.25.36-7.37,6.83-10.53,12.55-14.69,4.16-3,3-6.76,2.94-11.46,0-4.34-.28-9.17,4.68-9.79,2.81-.36,5.9.4,8.66.64,5.71.48,11.62.27,17.27,1-3.39,1-7.32,2-10.82,3.35-6.38,2.38-11.27,2.54-18,2.3"/><path class="cls-4" d="M411.25,887c-9.44-10.11-18.75-18.94-30-27.08a45.48,45.48,0,0,0-10.16-5.06c-5.25-2.1-10.74-5.4-16.42-6.21-5.89-.84-12.07-2.07-18-2.6-10.71-1-23.88.64-33.26,6.21-6.06,3.59-3,7.4-2.66,12.81.19,3-1.07,3-2.31,5.24a17.9,17.9,0,0,0-1.58,8.07"/><path class="cls-4" d="M480.4,1067.91c1.84-11.88-14.51-23.82-19.64-33.92a56.72,56.72,0,0,1-4.45-11.69c-10.1,1.34-20.63,2-30.51,5.06a110.4,110.4,0,0,1,8.12,29.35c.39,3.24-.39,8.11.8,10.68"/><path class="cls-4" d="M407.9,1064.19c.43-11.1,1.44-22.41,1.22-33.5a454.48,454.48,0,0,0-64.16-2.87c-1.14,9.64-9.93,25.89-5.56,35"/><path class="cls-4" d="M329.58,1059.13c.47-11.84,2.15-24.54,1.25-36.3-9.09-.89-25-4.7-31.79,1-8.69,7.32-13.49,18.69-21,27-2,2.23-8.39,6.63-8.2,9"/><path class="cls-4" d="M514.47,1065.78c-13.84-16.9-22.45-35.38-32-54.39-1.64-3.26-4.51-12-7.5-13.75-5.65-3.29-21.61,3.63-27.61,4.64-12.4,2.08-25,4.18-37.54,5.23-26.91,2.27-53.33-2-79.79-6.08-13.56-2.08-27.51-4.78-40-10.41"/><path class="cls-4" d="M281.75,994.08c-1,15.75-18.87,34.79-30.2,46.18-5.31,5.35-11.91,9.51-16.16,15.48"/><path class="cls-4" d="M160.73,969.69c2.18-.22,6,8,6.86,9.89,2.13,4.36,3.84,8.44,4.24,13.28.57,7.08-5.94,9.82-12.26,11.58-6.89,1.92-10.53-9.58-11-14.61-.51-5.94,1.05-9.91,5.26-14.1A46.26,46.26,0,0,1,160.73,969.69Z"/><path class="cls-4" d="M162,951.51c3.85-1.46,6.8-5.11,10.09-7.44.9-.63,4.68-2.47,5.13-3.56s-.06-1-.47-2.08c-.54-1.4-3.71-3.64-4.75-4.84-1.63-1.88-3.08-3.86-4.59-5.83-2.54-3.31-5.22-6.56-7.5-10-1,7.55-8.53,14-12.8,20.16A138.79,138.79,0,0,0,162,951.51Z"/><path class="cls-4" d="M162.09,942.27c1.56-1.93,4.58-3.16,6.39-4.73-2-3.12-5.06-5.8-6.62-9.14-1.31,2.09-4.71,4.88-4.93,7.29C156.69,938.31,160.07,941.17,162.09,942.27Z"/><path class="cls-4" d="M156.08,907c1.15,3,1.84,6.08.18,8.55-1.44,2.16-4.13,4-5.91,5.9-3.65,4-7.29,8-10.79,12.09-2.1,2.46-3.25,3.14-1.83,5.71,1,1.76,3.52,3.5,4.93,5,3.61,4,8.8,11.44,13.38,14.37,2.7,1.72-1.67,7-2.82,8.67-3.82,5.55-9.56,9.58-12,16-2.67,6.9-3.78,17.25-.31,24.1,2.28,4.47,7.74,9.4,12.76,9.92,10.17,1.06,23.08-4.15,28.94-12.4,4.36-6.13.32-20.26-3.45-25.89-2-3-5.2-5.51-7.5-8.39-3-3.78-2.41-7.2-2.23-11.77,5-2.66,9.36-11.89,13.68-15.51a47.67,47.67,0,0,1,5.55-3.79c2.58-1.6,3.69-1.75,1.13-4.23-4.68-4.53-10.13-8.31-14.81-12.88-1.41-1.37-3.88-3.18-4.75-5-1.32-2.8-.33-6.64-.22-9.67.08-2,5.21-5.6,6.37-7.21a61,61,0,0,0,6.29-11.19c2.18-5,3.5-10.31,5.17-15.49,2.48-7.68,2-15.52-6.73-19.57-7.63-3.54-20.1-3.26-28-.34-11.49,4.26-12.36,17.81-9.82,27.95,1.63,6.47,3.57,14.79,7.87,20"/><path class="cls-4" d="M164.31,900.2c.11-3.15,3.07-6.63,4.26-9.52,1.74-4.25,3.63-8.87,4.4-13.39.87-5-.28-11.87-5.36-14.64a13.71,13.71,0,0,0-13.79.88c-6.28,4.12-6.9,10.71-4.37,17.15,1.83,4.65,4.65,8.22,7.29,12.42a13.93,13.93,0,0,1,2.26,4.73"/><path class="cls-4" d="M173.64,851l.19-4.88"/><path class="cls-4" d="M158.58,850.76l.15-3.8"/><path class="cls-4" d="M226.24,807.51c-1.26,2.61-4.06,4.21-5.6,6.66-1.67,2.65-2.38,5.87-3.94,8.63-3.74,6.64-10.25,14.3-17.45,17.44-8.11,3.54-15.16,3-23.87,2.7,5.22-6.1-2.84-9.22-9.26-9.31-7.67-.11-14.06,2.2-13.23,10.91,3.84.4,7.83-.17,11.67-.5,3.2-.27,6.92.13,9.94-.59"/><path class="cls-4" d="M157.64,831.15A29.78,29.78,0,0,1,172,825.73c4.83-.41,10.14.6,14.78-1.36,4.42-1.86,2.93-9,3.7-13.23s1.61-8.54,2.6-12.72c.42-1.78.85-4.64,2.23-5.9"/><path class="cls-4" d="M169.76,819.35c6.1.22,15.24,2.56,12.49-6.79-.67-2.28-.51-1.76-3.63-2-2.43-.2-7.25-1.35-9.65-.49C166.21,811.07,167.32,814.91,169.76,819.35Z"/><path class="cls-4" d="M180.17,807.76c.17-4.31.74-6.71-4.41-8-1.49-.37-5.26-.86-6.52.51-1.07,1.17-.4,5.36.76,6.4C172.09,808.56,178.09,808.75,180.17,807.76Z"/><path class="cls-4" d="M178.66,795.46c.09-2.33.57-3.79-1.21-5.37-1.6-1.43-6.91-2.77-8.92-1.79-1.66.81-2.38,4.27-.34,6C170.39,796.18,176.64,795.12,178.66,795.46Z"/><path class="cls-4" d="M179.19,782.16c-2.4-.09-10.24.92-9.84-3.35.44-4.58,10.43-2.73,9.62,1.71"/><path class="cls-4" d="M177.33,785.9c-7.54-.27-15.3-1.33-22.6.68-1,.27-3,1.33-3.91,1.1-2.34-.6-3.36-5-3.44-6.95-.23-6.36,7.25-7.42,12.45-8.07,2.67-.33,13.18-1.1,16,.53C177.62,774.2,184.28,786.08,177.33,785.9Z"/><path class="cls-4" d="M174.86,798.05c-4.85-.18-13.27-1.86-18.5.55-1.68.77-4.26,3.28-6.23,3.19-3.69-.17-5.38-5.8-4.6-8.74s3.5-6.81,6.51-7.52"/><path class="cls-4" d="M149.62,803.67c-2.3,3.32-4.64,7.38-4.94,11.44-.07,1,.25,2,.2,3a17.34,17.34,0,0,1-.78,3.42,8.7,8.7,0,0,0,2,7.46c2.85,3.64,6.58,3.1,10.93,3.26"/><path class="cls-4" d="M148.46,818.85c6-2,10.48-7.52,17.6-6.71"/><path class="cls-4" d="M175.57,823.64c2.19.25,9.55-1.11,7.56-4.36"/><path class="cls-4" d="M168.53,769.72a8.09,8.09,0,0,1,1.64-5.38"/><path class="cls-4" d="M627.86,828.16c-10.72,9.36-27.45,13.07-40.16,19.66-6.71,3.48-13.07,7.52-20.45,9.47-5.1,1.34-10.51,2-15.38,4-2.71,1.13-5.22,3.58-8.25,3.71"/><path class="cls-4" d="M548.3,860.29c.22-5.76,3.62-20.41-2.56-24.41-8.47,6-6,16.31-6.76,24.69"/><path class="cls-4" d="M558,858.8c.33-8.23-.14-14.37-4.61-21.59-3.84-6.19-11.81-9.32-14.79-15.9-3.54-7.79-1.76-18.75,1.85-26.2,1.73-3.55,3.91-6.76,5.44-10.37a2.53,2.53,0,0,1,1.21.31"/><path class="cls-4" d="M544.18,834.36c-8.72-8.63-17.28-19.45-13.13-31.78,1.58-4.7,4.12-8.88,5.92-13.45.66-1.67,1.59-6.77,3.18-7.4"/><path class="cls-4" d="M535.65,831c-.18,5.51-3.36,10.93-3.88,16.56a47.91,47.91,0,0,0,0,8.47"/><path class="cls-4" d="M551.57,826c.23-11.16,4.81-22.43,2.27-33.52a54.51,54.51,0,0,0-8.08-17.86c-3.07-4.48-8.55-8.82-11.25-12.77"/><path class="cls-4" d="M544.35,821.78c0-3.26,1.83-6.56,2.56-9.72a88.23,88.23,0,0,0,1.82-11.39c.51-5.55-.77-7.47-3.72-12"/><path class="cls-4" d="M541.17,780.23c-5-2-5.68-10.69-6.75-15.23-.91-3.83.19-5.15-1-6.54-4.07-4.5-15,4.75-27.67,1-7.84-2.35-7.81-7.18-14.18-7.43-8.59-.34-11.06,8.34-19.62,8.52-7.3.15-7.91-6.11-17.7-9.86-13.8-5.29-20.76,4-32.51-1.17-9-4-6.52-10.13-17.38-17.93-11.24-8.06-18.55-4.81-28.54-10.25-14.09-7.67-18.15-24.28-21.43-37.67-6-24.7,2.06-34-3.39-67a182.15,182.15,0,0,0-4.09-18.6"/><path class="cls-4" d="M573,852.89l1.85-47.14c.19-4.93,1.16-10.56.28-15.4"/><path class="cls-4" d="M565.44,783.25c-.93,23.74-3.29,48.12-2.17,71.75"/><path class="cls-4" d="M592.84,841.47c.74-9.73,1.52-24.06,1.31-41.38-.6-48.15-1.09-87.29-20.17-121.24-6.92-12.3-30.16-48.61-92.5-70.22"/><path class="cls-4" d="M491.67,843.74C442.86,842,393.62,841.9,345,838c-3.78-.3-12.73-1.92-15.84.41"/><path class="cls-4" d="M497.16,836.74c-65.37-2.35-130.76-4.15-196.11-6.5"/><line class="cls-4" x1="494.63" y1="823.98" x2="324.54" y2="817.25"/><line class="cls-4" x1="329.39" y1="831.26" x2="329.91" y2="818.06"/><line class="cls-4" x1="344.96" y1="831.27" x2="345.46" y2="818.62"/><line class="cls-4" x1="359.38" y1="832.06" x2="359.91" y2="818.53"/><line class="cls-4" x1="375.22" y1="832.35" x2="375.74" y2="819.09"/><line class="cls-4" x1="389.15" y1="833.17" x2="389.67" y2="819.83"/><line class="cls-4" x1="405.73" y1="833.45" x2="406.25" y2="820.19"/><line class="cls-4" x1="419.21" y1="834.26" x2="419.74" y2="820.91"/><line class="cls-4" x1="434.83" y1="834.5" x2="435.33" y2="821.85"/><line class="cls-4" x1="452.96" y1="835.7" x2="453.48" y2="822.5"/><line class="cls-4" x1="465.61" y1="835.92" x2="466.12" y2="822.96"/><line class="cls-4" x1="480.44" y1="836.14" x2="480.86" y2="825.32"/><line class="cls-4" x1="492.69" y1="873.31" x2="495.02" y2="758.57"/><line class="cls-4" x1="513.28" y1="763.31" x2="511.13" y2="859.35"/><line class="cls-4" x1="292.78" y1="844.33" x2="379.27" y2="729.51"/><line class="cls-4" x1="366.18" y1="719.81" x2="281.86" y2="835.28"/><line class="cls-4" x1="360.61" y1="715.83" x2="276.27" y2="829.35"/><line class="cls-4" x1="269.17" y1="825.89" x2="354.73" y2="704.41"/><polyline class="cls-4" points="355.1 695.19 346.67 694.89 283.84 785.04"/><line class="cls-4" x1="300.19" y1="852.05" x2="128.04" y2="735.47"/><line class="cls-4" x1="274.07" y1="816.05" x2="128.63" y2="720.5"/><line class="cls-4" x1="283.12" y1="803.34" x2="129.58" y2="696.31"/><line class="cls-4" x1="289.88" y1="796.48" x2="129.98" y2="685.99"/><polyline class="cls-4" points="252.68 767.3 311.18 692.5 297.75 681.6 260.62 736.78"/><path class="cls-4" d="M332.87,707.81c.14-3.66.86-7.67.23-11.28-.18-1-2.66-7-4.64-6.08-1.22.6-.9,5.28-.94,6.24a20.77,20.77,0,0,0,1.81,10c.79,1.75,1.73,5.15,3.82,5.77"/><path class="cls-4" d="M328.44,709c.44-.24-8.41-6.49-9.83-7.25-.87-.47-4.53-2.36-5.54-1.37-1.76,1.73,4.2,6.45,5.48,7.2A13.72,13.72,0,0,0,328.44,709Z"/><path class="cls-4" d="M328.79,711.86l-8.13-.3c-1.33,0-4.92-.84-6.17-.23s-1,1.6-1,3C315.74,714.9,329.18,717.73,328.79,711.86Z"/><path class="cls-4" d="M310.48,737.25c.1-2.51,2.3-17.5-4.44-15.41-2.66.82-1.33,7.84-1,10a21.91,21.91,0,0,0,3.66,8.86c-4.31-3.12-8.89-6.78-14.49-6.68-.45,4.32,6.73,8.05,10.53,7.42-4.1-.15-11.13.48-15.94.56-.39,3.54,5,5.41,8,5.15a11,11,0,0,0,6.72-3.11"/><path class="cls-4" d="M287.33,768.21c.08-2,2.41-20.13-3.06-18.49-3.06.92-2.45,9.61-2,11.48C283,763.82,285.17,766,287.33,768.21Z"/><path class="cls-4" d="M285.7,768.59c-1-2.86-13.54-11.3-15.62-7.29-1.95,3.75,6.28,8.61,9,9.26C281.32,771.08,283.79,771,285.7,768.59Z"/><path class="cls-4" d="M286.08,770.81c-4-.14-8-.39-12-.4-.77,3.55,6.1,4.42,8.43,4.26a10.55,10.55,0,0,0,8.17-4.14"/><line class="cls-4" x1="494.06" y1="810.68" x2="325.16" y2="804.61"/><path class="cls-4" d="M607.6,804.25c5.37-.08,13.11,3,16.7,7.16,1.7,2,3.56,7.28.9,9.31s-12-.24-14.38-1.56a19.7,19.7,0,0,1-9.32-15.08c16.76,3.56,35.22,6.47,35.77,1.89,1.27-10.4-26-2.18-30.92,0,3.95-.05,9.27-4.23,12.78-6.1,4.93-2.63,11.15-5.12,15.24-8.93,3.53-3.29,4-6.85-.31-10C620.26,770.94,610.87,793.53,607.6,804.25Z"/><path class="cls-4" d="M612.25,753.49c6.92.13,25.49,11.92,13.21,18.56-8.25,4.47-14.46-14.72-16.22-20.72,4.52-.24,33.11,8.72,33.29.28.19-8.8-20.78-.8-25.26.75,1.8-4.55,17.35-19.4,11.8-23.24-8.48-5.85-18.34,13-19.24,18.34"/><path class="cls-4" d="M599,707.6c6.93,7,15.35,10.84,25.72,10.21-.09-5.24-19.28-19.93-24.57-14.92,5,.51,29.07,6.83,26.27-4-2.21-8.54-13.67,1.7-17.93,4.4,2.06-3.65,10.78-16,2-16.53C602.86,686.35,600.77,698.86,599,707.6Z"/><path class="cls-4" d="M576.74,663.51c7.38.74,14.55,4.06,22.27,4.65,4.71.37,9.64.45,14.36.44-2.86-7.19-26.67-14.79-34.55-11.69,4.42,2.66,22.65.53,22.86-6.26.33-11-18.15-2.6-18.82,5.38,3.63-4.57,8.52-27.57-4.35-24.09-6.89,1.87-6.53,13.67-6.94,18.72-.48,5.94-1.83,13.5.94,19.06"/><path class="cls-4" d="M547.81,631.91c4.13.15,29.67,3.93,28.85-2-1-7.63-27.1-6.46-32.64-2.65,4.61,1.84,25.34-8.28,22.31-15-1.68-3.74-8.81-4.5-11.55-2.51-3.26,2.36-4.38,9.4-4.39,13.09.25-7.1,1.81-22-10.06-21.74C535.41,609,537.81,621.76,547.81,631.91Z"/><path class="cls-4" d="M504.4,607.44c4.3.15,24.9,4.27,24.12-3.8-.54-5.56-10.62-5.1-14.54-4.1-4.85,1.23-9.61,5.14-12.39,9,3.31-4,24.33-28.35,13.64-32-6.32-2.17-13.14,7.43-14.27,12.32-1.18,5.19-1.42,12.18,2.68,16.28,1.11-10.63-5.73-24.07-18.09-24.23C481.5,589.66,492.14,601.14,504.4,607.44Z"/><path class="cls-4" d="M484,606.42c10.72,3.16,73.34,22.75,105.15,85.66C615.36,744,604,792.3,600.35,805.5"/><path class="cls-4" d="M486.05,645.7c9.68,3.77,45.32,18.95,66.46,57.75a121,121,0,0,1,12.53,80"/><path class="cls-4" d="M488.05,656.15c8.11,2.94,36.63,14.34,54.92,44.65a100,100,0,0,1,13,67.36"/><path class="cls-4" d="M492.33,670.15A99.28,99.28,0,0,1,532,705a93.39,93.39,0,0,1,14.64,57"/><path class="cls-4" d="M691.25,854.9c-21.85-6.74-128.57-42-183.47-148.45-34.15-66.2-31.84-128.14-28.81-156.72"/><path class="cls-4" d="M520.38,737.31c-2.61-.09-7.88,0-11.26-.39-5.84-.65-8.57-5.7-10.22-10.7-3.7-11.17-6.51-22.64-10.25-33.77a57.07,57.07,0,0,0-4-9.89"/><path class="cls-4" d="M421.72,647.15c-.47.74-.34,1.85-.4,3-.24,4.59-.92,9-1.54,13.57-1.89,14-3.1,32,3.25,45.12,3.45,7.12,13.65,22.17,24.1,16.74,9.49-4.93,8.26-16.47,8.88-25.15.64-8.83,4.28-18.13,3.2-27-.43-3.54-1.89-7.1-2.87-10.52"/><path class="cls-4" d="M413.15,695c-.2,4,.24,7.21-4.6,8.3-7.64,1.72-15.58-.5-19.08-7.53-4.48-9-3.39-20.75-2-30.29.73-5.06,2.46-13.07.26-17.88,4.68,0,12.21-.78,16.19,1.12"/><path class="cls-4" d="M458.29,724.22c.52,3.35,5.27,6.08,8.14,7.57,4.36,2.26,9,2.76,13.33.09a25,25,0,0,0,9.24-11"/><rect class="cls-4" x="128.43" y="75.91" width="566" height="1011"/></svg>