<svg id="Layer_1" data-name="Layer 1" xmlns="http://www.w3.org/2000/svg" viewBox="0 0 822 1122"><defs><style>.cls-1{font-size:175.45px;font-family:HelveticaNeue-Bold, Helvetica Neue;font-weight:700;}.cls-1,.cls-3{fill:#d89d70;}.cls-2{fill:#d6bd80;}.cls-4{fill:none;stroke:#da9f70;stroke-miterlimit:10;stroke-width:3px;}</style></defs><text class="cls-1" transform="translate(8.75 142.07)">Q</text><circle class="cls-2" cx="76.07" cy="25.97" r="9.45"/><circle class="cls-2" cx="50.43" cy="34.07" r="9.45"/><circle class="cls-2" cx="34.23" cy="57.02" r="9.45"/><circle class="cls-2" cx="31.53" cy="89.41" r="9.45"/><circle class="cls-2" cx="40.98" cy="120.46" r="9.45"/><circle class="cls-2" cx="73.38" cy="131.26" r="9.45"/><circle class="cls-2" cx="104.42" cy="121.81" r="9.45"/><circle class="cls-2" cx="121.97" cy="100.21" r="9.45"/><circle class="cls-2" cx="126.02" cy="71.87" r="9.45"/><circle class="cls-2" cx="116.57" cy="48.92" r="9.45"/><circle class="cls-2" cx="101.93" cy="32.15" r="9.45"/><text class="cls-1" transform="translate(815.32 986.23) rotate(-179.89)">Q</text><circle class="cls-2" cx="747.76" cy="1102.2" r="9.45"/><circle class="cls-2" cx="773.41" cy="1094.14" r="9.45"/><circle class="cls-2" cx="789.66" cy="1071.23" r="9.45"/><circle class="cls-2" cx="792.43" cy="1038.84" r="9.45"/><circle class="cls-2" cx="783.04" cy="1007.78" r="9.45"/><circle class="cls-2" cx="750.67" cy="996.91" r="9.45"/><circle class="cls-2" cx="719.61" cy="1006.3" r="9.45"/><circle class="cls-2" cx="702.01" cy="1027.86" r="9.45"/><circle class="cls-2" cx="697.91" cy="1056.19" r="9.45"/><circle class="cls-2" cx="707.31" cy="1079.16" r="9.45"/><circle class="cls-2" cx="721.91" cy="1095.96" r="9.45"/><path class="cls-3" d="M747.78,905.38a21.66,21.66,0,0,0-30.61.9h0a21.66,21.66,0,0,0,.91,30.61l5.39,5.08,29.7-31.5Z"/><path class="cls-3" d="M789.71,934.83a21.65,21.65,0,0,0-.9-30.61h0a21.66,21.66,0,0,0-30.61.91l-5,5.34,31.51,29.69Z"/><rect class="cls-3" x="732.43" y="919.42" width="43.3" height="43.3" transform="translate(-447.96 844.35) rotate(-46.69)"/><path class="cls-3" d="M769.76,881.55c-9.94,9.76-17,24.4-16.44,34.17-.55-9.77-8.41-23.33-18.35-31.65"/><path class="cls-3" d="M612.47,874.23A31.62,31.62,0,0,0,567,875.61h0a33.46,33.46,0,0,0,1.35,46.52l8,7.73,44.1-47.9Z"/><path class="cls-3" d="M674.75,919a33.47,33.47,0,0,0-1.35-46.52h0A31.62,31.62,0,0,0,628,873.85L620.49,882l46.79,45.14Z"/><polygon class="cls-3" points="620.49 881.96 576.39 929.86 623.18 975 667.27 927.11 620.49 881.96"/><path class="cls-3" d="M645.11,838c-14.76,14.83-25.22,37.09-24.41,51.92-.81-14.83-12.49-35.45-27.25-48.1"/><path class="cls-3" d="M77.08,233.12a21.65,21.65,0,0,0,30.57,1.7h0a21.65,21.65,0,0,0,1.7-30.57l-4.95-5.53L72.14,227.6Z"/><path class="cls-3" d="M37.79,200.23A21.65,21.65,0,0,0,36.1,230.8h0a21.64,21.64,0,0,0,30.57,1.69l5.47-4.89L43.26,195.33Z"/><rect class="cls-3" x="52.18" y="175.38" width="43.3" height="43.3" transform="translate(-112.58 99.45) rotate(-41.83)"/><path class="cls-3" d="M53.54,255.16c10-9.2,18.23-23.19,19.28-32.65-1,9.46,5.64,23.64,15.6,33.09"/><path class="cls-3" d="M239.64,267.66c13.9,16.73,37.76,18.16,53.29,3.18h0c15.53-15,16.85-40.68,2.95-57.41l-8.62-10.38L231,257.29Z"/><path class="cls-3" d="M171.15,205.88c-15.53,15-16.85,40.68-3,57.41h0c13.9,16.74,37.76,18.16,53.29,3.18l9.53-9.18-50.34-60.6Z"/><polygon class="cls-3" points="231.02 257.29 287.26 203.05 236.92 142.46 180.68 196.69 231.02 257.29"/><path class="cls-3" d="M198.61,309c17.37-17.27,31.77-43.55,33.61-61.3-1.84,17.75,9.82,44.38,27.19,62.14"/><path class="cls-4" d="M560.06,104.8c1.88,3.33,2.65,8.66,4.19,12.52,2,5.14,5.21,8.47,8.52,12.69,5,6.33,8,11.15,15.37,15.12,6.4,3.47,14.86,4.23,20.64,8.75"/><path class="cls-4" d="M570.09,104.44c1.32,3.42,4.79,6.32,6.83,9.39,2.33,3.51,4.46,7.15,6.77,10.67,3.44,5.22,5.87,7.77,11.24,10.57,4.52,2.35,8.63,4.84,13.44,6.69a6.24,6.24,0,0,1,0,1.37"/><path class="cls-4" d="M611.29,133.46c-4.77.76-10.71-5.3-13.68-8.42-4.35-4.59-7.93-8.68-13-12.48-3.72-2.78-4.49-3.84-4.5-8.12"/><path class="cls-4" d="M590.51,103.72c-.77,6.13,6.5,13.82,10.81,17.62a24.33,24.33,0,0,0,6.75,4.24"/><path class="cls-4" d="M598.39,103.72a15.66,15.66,0,0,0,10,11.83"/><path class="cls-4" d="M609.14,165c0-13.8,1.38-31.36-1-45.83-.83-5-.1-9.69,1-14.35"/><path class="cls-4" d="M537.85,102.29c1.57,3-2.2,7.28-4.22,9.61-3,3.47-5.3,3.79-9.23,5.58-2.45,1.13-3.88,2.89-6.61,3.08"/><path class="cls-4" d="M545.73,103.72c-2,6.79-7,12.3-11.58,17.49-2.16,2.45-4.59,6.11-7.43,7.79-6.55,3.89-16,1.34-22.19,4.46"/><path class="cls-4" d="M551.82,102.65c0,8.17-.44,12.92-5.54,19.51S534.25,132.21,527,136a38.11,38.11,0,0,1-12.28,4.06c-1.84.28-4.11.37-5.56,1.25"/><path class="cls-4" d="M500.23,149.94c7.71.07,13.22,1.93,20.62-1.83,6.75-3.42,12.38-8.39,18.22-13s10.46-7.54,14.45-14c1.78-2.87,2.76-6.76,5.47-8.77"/><path class="cls-4" d="M651.79,369.21c-7.13,1.17-17.15,13.08-21.13,19.13-3.15,4.8-3.67,11.22-3.1,17,.94,9.54,8.23,12.74,17.18,12.74,4.16,0,7.1.42,6.2-4.67"/><path class="cls-4" d="M628.85,415.93c-.23,9.16,3.83,17.75,4.25,26.9.36,7.58-1.42,10.19-8.92,12.61"/><path class="cls-4" d="M634.8,430.8c-.82,17.77,16.65,33.16,8.72,50.65-3,6.67-4.92,8.89-2.08,16,.5,1.27,5.42,12.73,7.38,8.07"/><path class="cls-4" d="M331,374.83c-.44-5.1-5.25-12.44-1-16.73,2.76-2.79,15.28-2.66,18.75-1.43,7.14,2.52,12.5,11.16,13.19,18.12,1.11,11.17,2.79,21.14,4.83,32.18,3.41,18.46,4.55,44,27,49.71,6.68,1.69,17.11,1.54,23.28-1.61,8.28-4.24,7.06-17.51,7.36-25.72.36-9.89-1.52-22.68-13.43-23-7.52-.2-15.29,4-18.85,10.37.17-12.52-6.5-21.21-17.71-27.43"/><path class="cls-4" d="M431.58,445.83c13.56-1.22,33.19-2,37.18,13.68,1.95,7.67-3.73,11.46-4.36,18.31s5.89,12.23,9,17.75c2.38,4.26,4,8.73,6.19,13.05,3.78,7.31,9,8.39,16.24,11.16,9.15,3.52,22.62,5.31,27.58-6,6.51-14.89-10.55-20.36-22-19.94,15.57,1.2,20.9,12.85,14.35,25.55,8.17.68,15-3.53,20,4,2.68,4.08,2.93,6.3-.27,9.86"/><path class="cls-4" d="M339,432.39c-6.62.35-13.52,4.56-19.63,6.88-2.65,1-8,1.49-9.14,4.28,8.25.51,12.74,3.42,8.21,12,2.11-.1,6.19-1.74,7.86-.15.92.88.82,3.66,1.49,4.91-.19-8.09,2.17-12.52,6.52-18.89C335.52,439.59,336.26,437.39,339,432.39Z"/><path class="cls-4" d="M328.5,482.16C320.25,485,312,490,303.86,493.54c-2.1.91-6.61,1.19-6.78,3.89,3.34.31,10.86,1,12.56,4.49,1.22,2.51-.57,4.55-1.68,6.76,2.53-1.9,11.77-2.74,10.81,1.67-.33-7.76,2.28-14.86,6.24-21.52C326.42,486.45,328.39,482.39,328.5,482.16Z"/><path class="cls-4" d="M281,527.8c-9.42,2.79-17.61,11-27.58,12.74,3.48,0,7.31-.83,8.33,3.33.69,2.82-1.59,7.27-3.29,8.58,5-3.49,7.11.64,6.88,5.14,3.82-8.08,7.52-18.91,14.74-24.59C281.77,531.66,283.79,531.1,281,527.8Z"/><path class="cls-4" d="M241.32,575.32c-5.63-.14-14.13,8.31-19.13,11.06-2.39,1.31-4.61,2.9-6.93,4.29,0-.06.56.23.59.26-1.45.94-2.89,1.81-4.34,2.75a5.76,5.76,0,0,1,5.57,8.84c2.23-.75,14.06-4.45,10.85,2.36-1.28-7.5,3.29-16.13,6.79-22.42C236.21,579.78,238.58,573.43,241.32,575.32Z"/><path class="cls-4" d="M213.63,553.25c-7.11.36-14.54,6.38-21.35,8.62a26.92,26.92,0,0,0-6.76,3.06c2.49,1.26,13.26,7.36,7.65,11.08,6.05-3.82,8.45,1.87,11,6.44C205.12,572.49,207,560,213.63,553.25Z"/><path class="cls-4" d="M217,470c.15,2.3-1.41,4.16-2.42,6.14-2.22,4.34-4.51,8.83-5.51,13.64-1.55,7.43-1,15.51-1,23.07a42.68,42.68,0,0,0,2.94,16c1.44,3.4,5,7.73,1.07,10.47-2.17,1.52-7.44,1.05-10,.69s-2.13.57-3.83-2.37c-2.81-4.87-3.11-11.83-3.67-17.27-.92-9-3-19-1.81-28.08.87-6.46,5.74-11.71,9.62-16.62,2.45-3.09,4.35-7.57,7.39-10,2-1.64,1.62-1.23,3.6-.92C215.21,465,219.89,466.66,217,470Z"/><path class="cls-4" d="M189.29,366.86c.42,6.88-7.32,11.82-12.79,13.6,6.16,3.83,11.46,10.88,15.28,17.2,1.49-3.25,10.64-19,15.58-14.11C203.78,376,194.25,371.16,189.29,366.86Z"/><path class="cls-4" d="M180.76,371.12c-2.48-6.66-4-14.37,1.85-19.78,4.67-4.32,9.45-3.9,14.18-.13s5.6,6.59,5.65,12.31c0,2.57.8,5.58.12,8,6.77-1,14.14-5.33,19.88-.29,4.52,4,7.37,13.2,5.9,19.37-2.74,11.48-19.71,4.22-25.14-1.3.79,6.89,4.28,18.08.88,24.56-4.15,7.9-16.58,4.49-21.11-1.05-4.18-5.1-1.63-11.58,1-16.46-9.6,0-18,2.85-24-6.78-3.1-4.95-6.42-12.33-.29-16.53,6.31-4.32,13.1.38,18.24,3.07"/><path class="cls-4" d="M166.54,363c-.74-4.05-2.89-15-7.38-16.75,4.53,1.41,8.94,4,13.42,5.72"/><path class="cls-4" d="M206.36,355.48c7.69,0,15-5.86,22-6-.33,4.31-3.53,11.35-6.76,14.48"/><path class="cls-4" d="M219.15,402.76c-.07,5.51,2.46,10,3.22,15.31-4.71-1.78-8-5.35-12.1-7.84"/><path class="cls-4" d="M163.34,396.72c.22,5.07-3.37,10.06-3.19,15.2,3.84-2.88,7.19-3.42,11.72-3.47"/><path class="cls-4" d="M190,422c-.71,8.54,10.46,17.07,16.37,21.78,5,4,9.95,4.31,15.66,6.37,7,2.51,15.06,7.39,19.17,13.81"/><path class="cls-4" d="M206,446.14c-.86,5.35,11.63,17.14,17.78,16.35"/><path class="cls-4" d="M203.51,419.47c-.18,7,15.21,13,20.54,15.69,5,2.47,10.26,3.1,14.87,6.47,5.17,3.77,9.36,11.94,11.17,18"/><path class="cls-4" d="M256.84,466.76c-.36-6.73-4-14.5-5.54-21.17s-3.2-16-1.19-22.7c.85-2.82,7.64-11.42,11.36-10.91,2,.27,2.78,3.23,3.5,5.08,3.4,8.83,4.16,20.15,4,29.54-.1,6.41-2.77,11.2-5.94,16.6C262.11,464.8,261,466,256.84,466.76Z"/><path class="cls-4" d="M261.82,470.32c8,.06,9.4,4.16,13.64,10.85,1.43,2.27,5.34,6.42,3.55,9.44-3.84,6.47-20-.16-25.2-1.05-2.85-.49-8.21-2.76-10.48-2.18"/><path class="cls-4" d="M277.82,500.54c-.73,11.68-23.44,13.41-31.29,9.24"/><path class="cls-4" d="M268.22,515.11c-.6,13.49-23.63,16.31-30.93,7.47"/><path class="cls-4" d="M255.06,531.47c-.37,8.78-17.75,7.46-23,7.46-3.47,0-9.14-2.06-12.19-.71"/><path class="cls-4" d="M606.57,347.13a42.61,42.61,0,0,0,11.78,8.71c0-4.82-8.31-10.4-13-10"/><path class="cls-4" d="M605,354.72c0,1.94-.35,4.09.06,6,1,4.44,5.25,8.51,7.74,12.18.94,1.38,4.57,8.95,6.78,5.33,1.95-3.19-5.83-9.94-8-11.81a15,15,0,0,1-4.59-6.73"/><path class="cls-4" d="M601.53,371.05c0,6.26-.8,18.05,7.82,19.22,1.67-3.41-3.58-9.78-5-12.74C603.33,375.48,602.55,373.17,601.53,371.05Z"/><path class="cls-4" d="M596,381.26c.1,3.53,5.35,16.06,10.18,15.09C606.73,393,602.2,385.65,596,381.26Z"/><path class="cls-4" d="M594.82,390.59c0,6.07.23,9.88,4,14.77,1.33,1.73,2.81,4.56,5.29,4.43C604.91,403.58,595,398.76,594.82,390.59Z"/><path class="cls-4" d="M592.49,404.29c0,3.64-1.5,12.57,3.45,13.67C596.39,413.76,593.43,409.3,592.49,404.29Z"/><path class="cls-4" d="M589.28,416.54c-2,3.57,4.27,10.85,6.21,14C596.06,427.58,592.56,422.54,589.28,416.54Z"/><path class="cls-4" d="M583.16,421.79c-.17,6.5,5,11.88,9.36,16.3.88.89,7.56,9.26,9.72,6.85,2.63-2.92-4.55-12.48-6.37-14.06-2.87-2.49-5.75-4.67-8-7.34"/><path class="cls-4" d="M582.87,438.41c0,2.27-.81,11.17,3.43,12.22C587.57,447.9,586,444.22,582.87,438.41Z"/><path class="cls-4" d="M578.78,450.36c0,1.6,1,14.63,4.54,13.11C585.4,462.56,580,454.87,578.78,450.36Z"/><path class="cls-4" d="M575.29,472.52c1.64,2.33,10.24,7.29,13.37,7.25-.19-1.84-5.47-4.68-6.94-6S578.84,471,575.29,472.52Z"/><path class="cls-4" d="M566,498.76c-.37-.63-.07-.09-.63.82-.9,1.44-2.31,4-2.25,5.77.12,2.82,3,5.27,5.74,5.64C569,508.19,569.08,502.66,566,498.76Z"/><path class="cls-4" d="M559.83,515.09c-1,4,6.59,2.6.59-.58"/><path class="cls-4" d="M564.79,517.72c.06,5.14,3.25,13.53,9,14.88,1.09-3.07.29-8.78-2.89-10.51"/><path class="cls-4" d="M575.87,511c-2.28,1.84-1.26,7.66,2.72,5.81,2.46-1.13,2.92-8.2-1-7.56"/><path class="cls-4" d="M544.38,470.77a39.14,39.14,0,0,1-.1,6.41c-.31,1.77-2,4.39-1.65,6.16.32,1.44.25,2.32,2.25,1.53C548.41,483.5,547,474.66,544.38,470.77Z"/><path class="cls-4" d="M532.13,461.44c.83,5.54,1,9.66-.74,15.21-.93,2.91-2,5.77,1.22,7.64,6.44,3.74,4.48-7.36,4.48-10.71,0-2.4.95-6.71-.88-8.64"/><path class="cls-4" d="M526.3,453.86a29.43,29.43,0,0,0-2,13.67C527.34,467.56,527.16,455.23,526.3,453.86Z"/><path class="cls-4" d="M516.68,444.53c-.29,5.47-1.43,10.78-1.12,16.33C517.56,458.75,520.5,449.35,516.68,444.53Z"/><path class="cls-4" d="M506.47,436.36c.12,7.06-9.45,17.37-3.8,24.28,1.83-1.86,6.72-20,2.64-19.9"/><path class="cls-4" d="M499.18,430.82c-2.7,1.35-5.35,9.79-2.92,12.32C499,439.6,497.68,433.69,499.18,430.82Z"/><path class="cls-4" d="M485.48,415.37c-.14,2.65,1.34,6.17,1.78,8.8.36,2.19.51,6.78,3.49,6.93.72-2.14.93-7.44-.06-9.58-.61-1.33-2-1.5-2-2.94"/><path class="cls-4" d="M479.94,412.75c-1,2.25-11.43,18.29-3,19C478.3,426.29,480.63,419.52,479.94,412.75Z"/><path class="cls-4" d="M469.73,400.79A26.87,26.87,0,0,0,473,413.38C474.86,411.43,473.89,402.5,469.73,400.79Z"/><path class="cls-4" d="M458.65,389.71c0,8.63-.07,15.67,3.17,23.62.29-4.13-1.25-9.57-1.92-13.68-.34-2-.34-3.77-1.83-4.69"/><path class="cls-4" d="M450.2,384.75c-3.3,1-9.12,14.19-4.21,15.36C449.64,401,453.22,384.55,450.2,384.75Z"/><path class="cls-4" d="M439.7,375.13a4.74,4.74,0,0,0-.05-.84c-2.49,1-5.52,7.23-2.14,8.72,4.25,1.88,3.68-4.89,2.77-7"/><path class="cls-4" d="M429.79,365.8c-.35,1.29-4.23,12.67-.21,11,3.07-1.29.85-7.77-.09-9.8"/><path class="cls-4" d="M416.37,358.8c-.93,2.53-6.79,17.37-2,17.83C418.28,377,417.54,365,416.37,358.8Z"/><path class="cls-4" d="M405.88,342.77c1.25-.15.58,4.78.58,6.14a30.49,30.49,0,0,0,.94,9.33C409.88,356.81,407.84,347.76,405.88,342.77Z"/><path class="cls-4" d="M397.13,337.81c-.45,2.84-2.88,12.32.53,14C398.9,348,398.29,343.29,397.13,337.81Z"/><path class="cls-4" d="M389.55,332.85c-2.86-.42-7.48,3.85-8.94,6.09,4.41.21,3.21-2,4.27-4.34"/><path class="cls-4" d="M526.5,98l-125,229"/><polyline class="cls-4" points="488.42 102.29 348.65 332.82 217.93 430.82"/><polyline class="cls-4" points="464 102.65 380.61 253.96 335.5 243 333.16 102.29"/><line class="cls-4" x1="199.58" y1="439.56" x2="183.23" y2="448.5"/><polyline class="cls-4" points="196.1 542.7 149.4 567.85 230.5 626"/><line class="cls-4" x1="310.21" y1="553.25" x2="575.29" y2="557.59"/><line class="cls-4" x1="269.01" y1="595.65" x2="542.57" y2="600.74"/><path class="cls-4" d="M237.29,620a274.27,274.27,0,0,1,18.21-30,291.43,291.43,0,0,1,37-43c20.06-19.27,23.13-17,39-34,14.18-15.21,23-24.86,26-40,3.58-17.85-2.94-32.74-7-42-13.68-31.22-40.24-47-52-53"/><path class="cls-4" d="M312.79,371.37A134.37,134.37,0,0,1,353.5,409c9.86,14,22.51,31.93,21,56-1.35,21.62-13.42,36.93-19,44-11,13.94-17.9,14.67-35,29-11,9.25-22.17,23.29-44,51-10.92,13.87-25,32.1-41,54l-99-65,31-61-20.45-20.75,19-19.16L137.5,428l34.72,19.88,33,18.88"/><polyline class="cls-4" points="168.5 551 183.24 523.09 166.01 496.25 183.24 486.38 171.87 451.88"/><line class="cls-4" x1="185.52" y1="459.65" x2="192.48" y2="479.3"/><polyline class="cls-4" points="192.8 492.26 180.22 502.38 192.48 515.11 180.22 551"/><line class="cls-4" x1="436.87" y1="266.56" x2="441.5" y2="297"/><line class="cls-4" x1="446.23" y1="250.9" x2="453.5" y2="296"/><line class="cls-4" x1="453.5" y1="236.18" x2="465.27" y2="297"/><line class="cls-4" x1="468.5" y1="259" x2="474.5" y2="301"/><line class="cls-4" x1="482.19" y1="276.65" x2="484.5" y2="302"/><line class="cls-4" x1="495.79" y1="291.54" x2="495.79" y2="304.46"/><path class="cls-4" d="M520.5,306a176.11,176.11,0,0,1-92-16.67"/><path class="cls-4" d="M458.07,231c6,16.28,20.11,46.27,51.12,66.05,12.24,7.81,31.1,19.84,51.31,14,16.06-4.64,24.72-18.18,31-28,12.35-19.3,13.57-39.24,16-78,.85-13.49,1-24.61,1-32"/><path class="cls-4" d="M639.5,353a409.68,409.68,0,0,0-31-187"/><line class="cls-4" x1="580.22" y1="304.46" x2="662.15" y2="371.37"/><line class="cls-4" x1="714.74" y1="413.33" x2="696.3" y2="400.79"/><path class="cls-4" d="M424.42,302a304.3,304.3,0,0,0,86.08,17,303.68,303.68,0,0,0,72-5"/><path class="cls-4" d="M606.21,335.59A334.57,334.57,0,0,1,514.5,344a335.18,335.18,0,0,1-102-21"/><polygon class="cls-4" points="453.5 350.85 581.29 354.72 558.21 450.63 453.5 350.85"/><polygon class="cls-4" points="482.19 365.8 569.8 366.96 552.02 431.73 482.19 365.8"/><polyline class="cls-4" points="517.39 370.24 537.66 379.19 550.31 371.05"/><polyline class="cls-4" points="495.3 370.24 540.19 390.27 562.03 371.05"/><polyline class="cls-4" points="505.5 384 542.49 398.76 562.03 384"/><polyline class="cls-4" points="521.34 398.76 545.02 409.79 557.43 398.76"/><polyline class="cls-4" points="536.28 413.38 550.31 418.06 554.45 412.75"/><polyline class="cls-4" points="414.91 306.7 427.77 312.55 421.34 319.38 407.21 316.54"/><polygon class="cls-4" points="431.15 312.55 445.5 318 442.47 327 428.5 321.76 431.15 312.55"/><polyline class="cls-4" points="453.5 319.38 469.5 321 467.5 331 452.21 327 453.5 321.25"/><polygon class="cls-4" points="478.07 323 488.42 325.19 490.5 335 474.5 333.68 478.07 323"/><rect class="cls-4" x="498.05" y="327" width="14.44" height="9"/><polygon class="cls-4" points="522.5 326 523.91 326 533.85 326 535.5 336 523.07 335 522.5 326"/><polygon class="cls-4" points="542.89 326 560.52 326 558.01 336.7 544.79 336.7 542.89 326"/><polygon class="cls-4" points="566.5 325 582.5 325 581.29 331.5 566.5 332.17 566.5 325"/><polyline class="cls-4" points="598.5 320 588.73 323 592.5 333 603.68 328.58"/><path class="cls-4" d="M493.5,172.06c4.69-4.63,9.62-9.17,16.1-10.82,7.13-1.82,14.92-4.11,22.33-3.4,7.08.68,18.13,5.47,20.53,12.84-5.61-3.23-14.28-2.49-20.62-3.58-5.38-.93-12-.17-17.35.49A100.24,100.24,0,0,0,500,170.65,56.58,56.58,0,0,1,493.5,172.06Z"/><path class="cls-4" d="M538,181.77c-.39-2.56-4.41-3.47-6.33-4.4a29,29,0,0,0-8.8-3.1c-5.78-.69-12,1.94-16.53,5.34-3.14,2.34-6.29,4.49-8.78,7.54a26.46,26.46,0,0,0-2.47,4.39"/><path class="cls-4" d="M540.5,191a25.6,25.6,0,0,1,4,4,35.11,35.11,0,0,1-18,6c-4.24.17-8.53.34-13-2-3.95-2.07-5-4-10-5-2.05-.41-4.5.94-5,1-2.9.37-7.22-.54-10,.32-.23-1-.7-2.66.34-3.3,1.64-1,8.05-.05,10.64-1,8-3,8.17-4.93,19-6C520.33,184.82,531.58,183.87,540.5,191Z"/><path class="cls-4" d="M507.43,191.54A71.13,71.13,0,0,1,535.5,190"/><path class="cls-4" d="M517.7,190.89c-.22,2.59,2.18,5.37,4.08,6.84s5.08,1.68,7.48,1c3.54-1,5.07-4.76,4.72-8.32"/><path class="cls-4" d="M521.56,190.14c.14,1.66,4.55,6,6.52,5.34,1.6-.54,1.55-3.19,1.68-4.47"/><path class="cls-4" d="M570.31,195.19c1.17-2.52,5.13-5.26,7.58-6.47a28.74,28.74,0,0,1,9.27-2.46,41.18,41.18,0,0,1,18.08,2c.24,0-.13-.08-.18-.13-.22,3.15-3.11,6.46-5.41,8.32-3,2.46-6,5.07-10.11,5.41a22.29,22.29,0,0,1-14.25-4A43,43,0,0,0,570.31,195.19Z"/><path class="cls-4" d="M605.86,184.2c-1.41-3.19-5.89-5.13-8.89-6.43a41.91,41.91,0,0,0-11.54-3c-4.39-.52-6.61.42-10,3.38-1.64,1.44-2.12,3-3.18,4.78"/><path class="cls-4" d="M569.34,185c-.24-5.06,4-9.87,7.69-12.87,3.16-2.54,5.94-5,9.93-6,5.69-1.53,14.38-2.31,19.55.81"/><path class="cls-4" d="M579,189.7c-.66,5.57,8.24,11.92,13.29,9.5,3.16-1.52,6.8-8,6.58-11.6"/><path class="cls-4" d="M593.42,186.79c.39,4.32-2.54,7.77-6.88,7-2.81-.53-3.14-2.95-3.14-5.34"/><path class="cls-4" d="M565.14,254.67c0-3.62,1.5-5.66,4.6-7.5,2-1.15,4.59-1.54,6-3.43,5.51-7.42-2.63-14.13-3-21.55-.42-8.15-3.25-16-3.54-24.15a86.8,86.8,0,0,1,.16-9"/><path class="cls-4" d="M558.67,247.88c-.74-1.57-4.11-1.71-5.56-1.78-2.93-.14-4.87,1.05-7.05,2.87s-4.71,4.79-7.73,3.45c-6.8-3-1.4-12.88,2.24-16"/><path class="cls-4" d="M570.93,272a14.12,14.12,0,0,0-2.21-1,18.16,18.16,0,0,0-5,.12,4.32,4.32,0,0,0-2.72,1.39,3.67,3.67,0,0,1-4.21.89c-2.53-.79-4.21-3.53-7-3.63-1.56-.06-3,1.43-3.94,2.52-.65.73-3.79,4.26-3.26,5.07a21.67,21.67,0,0,1,4.74.67c1.4.41,2.74,1.75,4,2.52a11.85,11.85,0,0,0,6.68,1.84c4.25,0,8.35-2.49,11.66-4.9"/><path class="cls-4" d="M545.82,283.67c.6.41,1.5.74,2.18,1.16,1.66,1,2.73,2.41,4.72,2.86a27.51,27.51,0,0,0,9.45.17c2.81-.39,4-1.45,6.06-3.09"/><line class="cls-4" x1="348.65" y1="332.82" x2="546.99" y2="521.39"/><ellipse class="cls-4" cx="571.5" cy="514.5" rx="16" ry="31.5"/><line class="cls-4" x1="634.77" y1="349.01" x2="595.99" y2="506.67"/><line class="cls-4" x1="269.01" y1="466.76" x2="333.89" y2="413.38"/><polygon class="cls-4" points="684.09 185.01 663.5 217 680.5 249 702.44 217.01 684.09 185.01"/><polygon class="cls-4" points="682.97 201.88 673.29 217.01 680.5 232 692.01 217.01 682.97 201.88"/><circle class="cls-4" cx="668.5" cy="254" r="11"/><circle class="cls-4" cx="694" cy="254.5" r="11.5"/><path class="cls-4" d="M679.5,262.62,665.37,369.21Z"/><line class="cls-4" x1="696.3" y1="366.96" x2="679.5" y2="262.62"/><path class="cls-4" d="M662.5,371a6,6,0,0,1,3,2c2.7,3.59-1.41,8.52-1,14,.5,6.71,7.85,14.93,17,15,8.39.06,15.08-6.75,17-14,2.16-8.16-2.25-14.89-3-16"/><circle class="cls-4" cx="682" cy="421.5" r="14.5"/><line class="cls-4" x1="673.65" y1="546" x2="665.5" y2="458"/><line class="cls-4" x1="687.69" y1="555" x2="698.85" y2="458"/><path class="cls-4" d="M665.5,450.63a17.5,17.5,0,0,1,33,2.37"/><polyline class="cls-4" points="358.54 513.2 387.23 517.18 424.42 553.25"/><polyline class="cls-4" points="444.1 548.8 391.48 498.98 362.78 498.98"/><polyline class="cls-4" points="371.35 489.26 393.58 489.26 458.07 548.8"/><polyline class="cls-4" points="376.34 479.77 395.17 479.77 471.81 548.8"/><polyline class="cls-4" points="484.69 548.8 403.44 473.25 376.34 471.9"/><circle class="cls-4" cx="438" cy="428.5" r="3.5"/><circle class="cls-4" cx="429" cy="463.5" r="4.5"/><circle class="cls-4" cx="491" cy="477.5" r="2.5"/><circle class="cls-4" cx="349.5" cy="390" r="4"/><path class="cls-4" d="M682.94,301.91c0,16.68,1.28,33.15,2.33,49.78.45,7.06,2.18,14,2.56,21.08.18,3.5.83,8.66-.92,11.7s-5.22,3.1-8.1,4.28"/><path class="cls-4" d="M683.32,413.56c2.31-.9,8.91,10.74,8.28,13.92-.88,4.39-7,3.39-10.16,4.5"/><path class="cls-4" d="M683.69,453.41c14.93-3.31,3.08,50.82,2.64,57.83-.62,9.73-.6,19.65-2.93,29.15-.92,3.78-2.58,7.61-2.71,11.51"/><path class="cls-4" d="M365.24,244.22c0-4-.64-17.81-5.7-18.29,12.42,6.18,29.38.35,30.69-14.13.56-6.24-3.38-8.33-5-13.5,8.45-1.22,36.51-14,30-26.57-1.7-3.3-6.58-6.42-9.18-9.15-2.34-2.47-3.29-4.83-5.07-7.62,8.49-5.08,26.23-1.31,26.65-14.78.13-4-1.51-7.19-2.09-11-.47-3.08,0-6-.8-9.08,8.55,4,15.07,2.52,21.62-4.16,2.57-2.63,9.78-9.17,8.72-13.31"/><path class="cls-4" d="M429.43,116.2c6.4-3.82,9.34-7.74,7.49-15"/><path class="cls-4" d="M423.72,111.21c-3.46-1.23-5.09-9.16-2.53-12-6.54-3.48-17.81,1.92-21.25,8-1.53,2.68-2.27,6.8.5,8.27,2,1.07,5.86-.15,7.55-1.37.11,2.51-.59,5.43,1,7.51-5.46,2.6-11.4,14-4.88,18,2.85,1.74,7.34,2.15,9.63-.28s1.63-7.21,2.87-9.85"/><path class="cls-4" d="M421.94,125.47c-4.34-.19-10.89-4.91-7.22-9.71,2.19-2.87,6.07-.32,7.58,2.22"/><path class="cls-4" d="M389.49,186.1c5.12-1.76,12.86-2.18,13.85-8.32.54-3.33-1.35-9.43-4.21-11.67-6.53-5.13-12.89,1.57-17,6.23-1.36,1.57-5.88,8.54-1.66,9.19-5.23-3.88-13.89-15.27-20.63-7.56-2.47,2.82-4.53,10.46-2.64,14.29,2,4.17,7.8,3.17,11.47,3.89-5.77,2.8-11.52,18-3.11,20,8,1.88,7.91-7,12.13-10.34"/><path class="cls-4" d="M382.71,195.72c-4.45.45-10.27-6.51-5.54-8.56,3.65-1.57,6.27,1,8,3.57"/><path class="cls-4" d="M539.41,200.71c-2,7.31-8.57,12.14-14,16.24"/><path class="cls-4" d="M571.13,201.64c3.55,2.58,8.12,6.22,10.52,10"/><path class="cls-4" d="M290.22,1046.07c-1.88-3.33-2.65-8.66-4.18-12.52-2.05-5.14-5.21-8.47-8.53-12.69-5-6.33-8-11.15-15.36-15.12-6.4-3.47-14.87-4.23-20.65-8.75"/><path class="cls-4" d="M280.19,1046.43c-1.32-3.41-4.78-6.32-6.82-9.39-2.33-3.5-4.46-7.15-6.78-10.67-3.44-5.22-5.87-7.77-11.24-10.57-4.52-2.35-8.62-4.84-13.44-6.69a6.93,6.93,0,0,1,0-1.37"/><path class="cls-4" d="M239,1017.41c4.78-.76,10.72,5.3,13.68,8.43,4.35,4.58,7.93,8.68,13,12.47,3.72,2.79,4.48,3.85,4.49,8.12"/><path class="cls-4" d="M259.77,1047.15c.77-6.13-6.49-13.82-10.8-17.61a24,24,0,0,0-6.75-4.24"/><path class="cls-4" d="M251.89,1047.15a15.6,15.6,0,0,0-10-11.82"/><path class="cls-4" d="M241.14,985.89c0,13.8-1.37,31.36,1.05,45.83.83,5,.1,9.69-1.05,14.35"/><path class="cls-4" d="M312.44,1048.58c-1.58-3,2.19-7.27,4.22-9.61,3-3.47,5.3-3.79,9.22-5.58,2.45-1.12,3.88-2.89,6.62-3.08"/><path class="cls-4" d="M304.55,1047.15c2-6.79,7-12.3,11.59-17.49,2.15-2.44,4.59-6.11,7.43-7.79,6.55-3.89,16-1.34,22.18-4.46"/><path class="cls-4" d="M298.46,1048.22c0-8.17.45-12.92,5.54-19.51s12-10,19.25-13.86a37.71,37.71,0,0,1,12.28-4.06c1.85-.29,4.12-.38,5.57-1.26"/><path class="cls-4" d="M350.05,1000.93c-7.7-.07-13.21-1.93-20.62,1.83-6.75,3.42-12.37,8.39-18.22,13s-10.45,7.54-14.45,14c-1.77,2.86-2.76,6.75-5.46,8.76"/><path class="cls-4" d="M198.5,781.66c7.13-1.16,17.15-13.08,21.13-19.13,3.15-4.8,3.67-11.21,3.1-17-.94-9.54-8.23-12.74-17.18-12.74-4.17,0-7.11-.42-6.2,4.68"/><path class="cls-4" d="M221.43,734.94c.23-9.16-3.82-17.75-4.25-26.9-.35-7.58,1.42-10.19,8.93-12.61"/><path class="cls-4" d="M215.49,720.07c.82-17.77-16.65-33.16-8.72-50.64,3-6.67,4.92-8.9,2.08-16-.51-1.27-5.42-12.72-7.38-8.07"/><path class="cls-4" d="M519.29,776c.44,5.1,5.25,12.44,1,16.73-2.77,2.79-15.28,2.66-18.75,1.43-7.14-2.52-12.51-11.16-13.2-18.12-1.1-11.16-2.79-21.14-4.83-32.18-3.41-18.46-4.55-44-27-49.7-6.68-1.7-17.11-1.55-23.28,1.61-8.28,4.24-7.06,17.5-7.36,25.71-.36,9.89,1.53,22.69,13.43,23,7.53.2,15.3-4,18.85-10.36-.17,12.51,6.5,21.2,17.72,27.42"/><path class="cls-4" d="M418.7,705c-13.56,1.22-33.19,2-37.18-13.68-1.95-7.66,3.73-11.46,4.37-18.31s-5.9-12.23-9-17.75c-2.38-4.26-4-8.73-6.2-13-3.78-7.31-9-8.39-16.24-11.16-9.15-3.52-22.62-5.31-27.57,6-6.51,14.9,10.54,20.37,22,20-15.57-1.21-20.9-12.86-14.34-25.56-8.18-.68-15,3.53-20-4-2.68-4.08-2.92-6.3.28-9.86"/><path class="cls-4" d="M511.31,718.48c6.61-.35,13.51-4.56,19.62-6.88,2.66-1,8-1.48,9.15-4.28-8.26-.51-12.74-3.42-8.22-12-2.11.1-6.18,1.75-7.85.15-.92-.88-.83-3.66-1.49-4.91.19,8.09-2.17,12.52-6.53,18.9C514.76,711.29,514,713.48,511.31,718.48Z"/><path class="cls-4" d="M521.79,668.72c8.24-2.86,16.5-7.86,24.63-11.38,2.1-.91,6.61-1.19,6.79-3.9-3.34-.3-10.87-1-12.56-4.49-1.22-2.51.57-4.55,1.67-6.76-2.53,1.9-11.76,2.74-10.81-1.67.34,7.76-2.28,14.86-6.23,21.52C523.86,664.42,521.9,668.48,521.79,668.72Z"/><path class="cls-4" d="M569.31,623.07c9.41-2.79,17.6-11,27.58-12.73-3.48,0-7.32.82-8.33-3.33-.7-2.83,1.59-7.28,3.29-8.59-5,3.49-7.12-.64-6.89-5.14-3.81,8.08-7.51,18.91-14.74,24.59C568.51,619.21,566.5,619.77,569.31,623.07Z"/><path class="cls-4" d="M609,575.55c5.63.14,14.13-8.31,19.13-11.06,2.39-1.31,4.61-2.9,6.92-4.29a2.32,2.32,0,0,1-.58-.26c1.44-.94,2.89-1.81,4.34-2.74a5.77,5.77,0,0,1-5.58-8.85c-2.22.76-14.06,4.45-10.85-2.36,1.28,7.5-3.28,16.13-6.78,22.42C614.07,571.09,611.7,577.44,609,575.55Z"/><path class="cls-4" d="M636.66,597.62c7.11-.35,14.54-6.38,21.34-8.62a26.76,26.76,0,0,0,6.76-3.06c-2.48-1.25-13.25-7.35-7.65-11.08-6.05,3.83-8.44-1.87-11-6.44C645.16,578.38,643.24,590.85,636.66,597.62Z"/><path class="cls-4" d="M633.26,680.91c-.15-2.3,1.41-4.15,2.42-6.14,2.23-4.34,4.51-8.82,5.52-13.64,1.54-7.43,1-15.51.95-23.07a42.4,42.4,0,0,0-2.94-16c-1.44-3.41-5-7.74-1.06-10.48,2.16-1.52,7.43-1.05,10-.69s2.12-.57,3.82,2.37c2.81,4.87,3.11,11.83,3.67,17.28.93,9,3,19,1.81,28.07-.87,6.46-5.74,11.71-9.62,16.62-2.44,3.1-4.34,7.57-7.38,10-2,1.64-1.62,1.24-3.61.92C635.08,685.89,630.39,684.21,633.26,680.91Z"/><path class="cls-4" d="M661,784c-.41-6.89,7.33-11.83,12.79-13.6-6.16-3.84-11.45-10.89-15.27-17.21-1.49,3.26-10.65,19-15.59,14.11C646.5,774.86,656,779.71,661,784Z"/><path class="cls-4" d="M669.53,779.75c2.47,6.66,4,14.37-1.85,19.78-4.68,4.33-9.45,3.91-14.19.13s-5.59-6.59-5.65-12.31c0-2.57-.8-5.57-.12-8-6.77,1-14.14,5.33-19.87.29-4.53-4-7.38-13.19-5.91-19.36,2.74-11.49,19.72-4.23,25.14,1.29-.78-6.89-4.28-18.07-.87-24.56,4.14-7.89,16.57-4.49,21.11,1.05,4.17,5.1,1.62,11.59-1,16.46,9.6.05,18-2.84,24,6.78,3.09,5,6.42,12.33.29,16.53-6.32,4.32-13.11-.38-18.25-3.07"/><path class="cls-4" d="M683.75,787.93c.73,4,2.88,15,7.37,16.74-4.53-1.41-8.94-4-13.42-5.72"/><path class="cls-4" d="M643.93,795.39c-7.69,0-15,5.87-22,6,.34-4.3,3.53-11.35,6.76-14.48"/><path class="cls-4" d="M631.13,748.11c.08-5.51-2.45-10-3.21-15.3,4.71,1.78,8,5.34,12.1,7.83"/><path class="cls-4" d="M687,754.15c-.22-5.07,3.37-10.06,3.18-15.19-3.84,2.87-7.19,3.42-11.71,3.46"/><path class="cls-4" d="M660.28,728.91c.72-8.54-10.46-17.07-16.36-21.78-5-4-9.95-4.31-15.67-6.37-7-2.51-15-7.39-19.16-13.8"/><path class="cls-4" d="M644.28,704.73c.87-5.34-11.63-17.14-17.77-16.35"/><path class="cls-4" d="M646.77,731.4c.19-7-15.21-13-20.54-15.69-5-2.47-10.26-3.1-14.87-6.46-5.16-3.77-9.35-11.94-11.16-18"/><path class="cls-4" d="M593.44,684.11c.37,6.74,4,14.5,5.55,21.17s3.19,16,1.18,22.7c-.84,2.82-7.63,11.42-11.36,10.91-2-.27-2.78-3.23-3.49-5.08-3.41-8.83-4.17-20.15-4-29.54.1-6.41,2.78-11.2,6-16.6C588.18,686.07,589.27,684.87,593.44,684.11Z"/><path class="cls-4" d="M588.47,680.56c-8-.06-9.41-4.17-13.64-10.86-1.43-2.27-5.35-6.42-3.56-9.44,3.84-6.47,20,.16,25.2,1.06,2.85.49,8.21,2.75,10.48,2.17"/><path class="cls-4" d="M572.47,650.34c.73-11.69,23.43-13.42,31.28-9.25"/><path class="cls-4" d="M582.07,635.76c.6-13.49,23.62-16.31,30.93-7.47"/><path class="cls-4" d="M595.22,619.41c.37-8.78,17.76-7.47,23-7.47,3.46,0,9.14,2.06,12.19.71"/><path class="cls-4" d="M243.71,803.74a42.23,42.23,0,0,0-11.78-8.7c0,4.82,8.32,10.39,13,10"/><path class="cls-4" d="M245.26,796.15c0-1.94.35-4.09-.06-6-1-4.45-5.25-8.52-7.75-12.18-.94-1.38-4.57-9-6.78-5.34-1.95,3.19,5.83,9.94,8,11.81a15,15,0,0,1,4.6,6.73"/><path class="cls-4" d="M248.76,779.82c0-6.25.8-18.05-7.82-19.22-1.67,3.41,3.58,9.78,5,12.74C247,775.39,247.73,777.7,248.76,779.82Z"/><path class="cls-4" d="M254.3,769.62c-.11-3.53-5.35-16.07-10.18-15.09C243.55,757.85,248.08,765.23,254.3,769.62Z"/><path class="cls-4" d="M255.46,760.29c0-6.08-.23-9.88-4-14.77-1.34-1.73-2.82-4.57-5.29-4.44C245.38,747.29,255.27,752.11,255.46,760.29Z"/><path class="cls-4" d="M257.8,746.58c0-3.63,1.49-12.56-3.46-13.67C253.9,737.12,256.85,741.57,257.8,746.58Z"/><path class="cls-4" d="M261,734.34c2-3.58-4.26-10.86-6.21-14C254.22,723.29,257.73,728.33,261,734.34Z"/><path class="cls-4" d="M267.13,729.09c.16-6.51-5-11.89-9.36-16.31-.89-.88-7.57-9.26-9.73-6.85-2.63,2.93,4.55,12.48,6.37,14.06,2.88,2.49,5.76,4.67,8,7.35"/><path class="cls-4" d="M267.42,712.47c0-2.28.81-11.17-3.44-12.22C262.71,703,264.28,706.66,267.42,712.47Z"/><path class="cls-4" d="M271.5,700.51c0-1.59-1-14.63-4.53-13.11C264.88,688.31,270.32,696,271.5,700.51Z"/><path class="cls-4" d="M275,678.35c-1.65-2.33-10.25-7.29-13.38-7.25.19,1.85,5.48,4.69,6.95,6S271.45,679.84,275,678.35Z"/><path class="cls-4" d="M284.33,652.11c.36.63.06.09.63-.82.9-1.44,2.31-4,2.24-5.77-.11-2.82-3-5.26-5.74-5.63C281.26,642.68,281.2,648.21,284.33,652.11Z"/><path class="cls-4" d="M290.45,635.78c1-4-6.58-2.59-.58.58"/><path class="cls-4" d="M285.5,633.16c-.07-5.15-3.25-13.53-9-14.88-1.08,3.07-.28,8.77,2.89,10.5"/><path class="cls-4" d="M274.42,639.86c2.27-1.83,1.26-7.66-2.73-5.81-2.45,1.14-2.92,8.2,1,7.56"/><path class="cls-4" d="M305.91,680.1a38.08,38.08,0,0,1,.1-6.41c.31-1.77,2-4.39,1.64-6.15-.32-1.45-.24-2.32-2.25-1.54C301.87,667.38,303.28,676.21,305.91,680.1Z"/><path class="cls-4" d="M318.15,689.43c-.82-5.54-1-9.65.74-15.21.93-2.91,2-5.76-1.22-7.64-6.43-3.74-4.48,7.36-4.47,10.72,0,2.39-.95,6.7.87,8.63"/><path class="cls-4" d="M324,697c1.9-4.23,2.27-9,2-13.67C322.94,683.31,323.12,695.64,324,697Z"/><path class="cls-4" d="M333.61,706.34c.29-5.47,1.43-10.77,1.12-16.33C332.73,692.12,329.78,701.52,333.61,706.34Z"/><path class="cls-4" d="M343.81,714.51c-.12-7,9.46-17.36,3.81-24.27-1.83,1.85-6.72,20-2.64,19.89"/><path class="cls-4" d="M351.1,720.05c2.7-1.35,5.35-9.78,2.92-12.32C351.3,711.27,352.6,717.18,351.1,720.05Z"/><path class="cls-4" d="M364.81,735.5c.13-2.65-1.35-6.16-1.78-8.79-.36-2.2-.52-6.78-3.49-6.94-.73,2.14-.93,7.44,0,9.58.62,1.34,2,1.5,2,2.94"/><path class="cls-4" d="M370.35,738.13c1-2.25,11.42-18.3,3-19C372,724.58,369.65,731.35,370.35,738.13Z"/><path class="cls-4" d="M380.55,750.08a26.78,26.78,0,0,0-3.22-12.59C375.42,739.44,376.4,748.37,380.55,750.08Z"/><path class="cls-4" d="M391.63,761.16c0-8.63.08-15.67-3.16-23.62-.29,4.13,1.24,9.57,1.92,13.68.33,2,.33,3.77,1.83,4.69"/><path class="cls-4" d="M400.09,766.12c3.29-1,9.11-14.19,4.2-15.35C400.65,749.9,397.07,766.32,400.09,766.12Z"/><path class="cls-4" d="M410.59,775.74a3.91,3.91,0,0,0,0,.84c2.5-1,5.53-7.23,2.14-8.72-4.25-1.88-3.67,4.89-2.77,7"/><path class="cls-4" d="M420.5,785.07c.35-1.29,4.23-12.66.2-11-3.06,1.29-.85,7.77.09,9.8"/><path class="cls-4" d="M433.91,792.07c.94-2.53,6.79-17.37,2-17.83C432,773.87,432.75,785.85,433.91,792.07Z"/><path class="cls-4" d="M444.41,808.11c-1.26.14-.58-4.79-.58-6.15a30.7,30.7,0,0,0-.94-9.32C440.41,794.06,442.44,803.12,444.41,808.11Z"/><path class="cls-4" d="M453.16,813.06c.45-2.84,2.87-12.32-.54-14C451.38,802.92,452,807.58,453.16,813.06Z"/><path class="cls-4" d="M460.74,818c2.86.42,7.47-3.85,8.93-6.08-4.4-.22-3.2,2-4.27,4.33"/><path class="cls-4" d="M323.78,1052.87q62.51-114.49,125-229"/><polyline class="cls-4" points="361.87 1048.58 501.63 818.05 632.35 720.05"/><polyline class="cls-4" points="386.29 1048.22 469.67 896.92 514.78 907.87 517.13 1048.58"/><line class="cls-4" x1="650.71" y1="711.31" x2="667.05" y2="702.37"/><polyline class="cls-4" points="654.18 608.17 700.89 583.02 619.78 524.87"/><line class="cls-4" x1="540.08" y1="597.62" x2="275" y2="593.28"/><line class="cls-4" x1="581.28" y1="555.23" x2="307.71" y2="550.13"/><path class="cls-4" d="M613,530.91a274.63,274.63,0,0,1-18.22,30,290.79,290.79,0,0,1-37,43c-20,19.27-23.12,17-39,34-14.18,15.21-23,24.87-26,40-3.58,17.85,3,32.74,7,42,13.69,31.23,40.24,47,52,53"/><path class="cls-4" d="M537.5,779.5a134.44,134.44,0,0,1-40.72-37.63c-9.86-14-22.5-31.93-21-56,1.36-21.62,13.43-36.93,19-44,11-13.93,17.91-14.66,35-29,11-9.25,22.18-23.29,44-51,10.93-13.86,25-32.1,41-54l99,65-31,61,20.46,20.75-19,19.16,28.5,49.09L678.06,703l-33-18.88"/><polyline class="cls-4" points="681.78 599.87 667.05 627.78 684.28 654.62 667.05 664.49 678.41 699"/><line class="cls-4" x1="664.76" y1="691.22" x2="657.8" y2="671.57"/><polyline class="cls-4" points="657.48 658.61 670.06 648.5 657.8 635.76 670.06 599.87"/><line class="cls-4" x1="413.42" y1="884.31" x2="408.78" y2="853.87"/><line class="cls-4" x1="404.05" y1="899.98" x2="396.78" y2="854.87"/><line class="cls-4" x1="396.78" y1="914.7" x2="385.02" y2="853.87"/><line class="cls-4" x1="381.78" y1="891.87" x2="375.78" y2="849.87"/><line class="cls-4" x1="368.1" y1="874.22" x2="365.78" y2="848.87"/><line class="cls-4" x1="354.5" y1="859.34" x2="354.5" y2="846.41"/><path class="cls-4" d="M329.78,844.87a176,176,0,0,1,92,16.68"/><path class="cls-4" d="M392.22,919.93c-6-16.29-20.12-46.28-51.12-66.06-12.25-7.81-31.11-19.83-51.32-14-16,4.64-24.71,18.18-31,28-12.34,19.31-13.56,39.24-16,78-.84,13.49-1,24.61-1,32"/><path class="cls-4" d="M210.78,797.87a409.68,409.68,0,0,0,31,187"/><line class="cls-4" x1="270.06" y1="846.41" x2="188.14" y2="779.5"/><line class="cls-4" x1="135.54" y1="737.54" x2="153.98" y2="750.08"/><path class="cls-4" d="M425.86,848.87a303.42,303.42,0,0,0-158.08-12"/><path class="cls-4" d="M244.07,815.28a334.4,334.4,0,0,1,193.71,12.59"/><polygon class="cls-4" points="396.79 800.03 269 796.15 292.08 700.25 396.79 800.03"/><polygon class="cls-4" points="368.1 785.07 280.49 783.92 298.27 719.15 368.1 785.07"/><polyline class="cls-4" points="332.89 780.63 312.62 771.68 299.98 779.82"/><polyline class="cls-4" points="354.98 780.63 310.1 760.6 288.25 779.82"/><polyline class="cls-4" points="344.79 766.87 307.8 752.11 288.25 766.87"/><polyline class="cls-4" points="328.95 752.11 305.27 741.08 292.85 752.11"/><polyline class="cls-4" points="314 737.49 299.98 732.81 295.84 738.13"/><polyline class="cls-4" points="435.38 844.17 422.52 838.33 428.95 831.5 443.08 834.33"/><polygon class="cls-4" points="419.14 838.33 404.79 832.87 407.81 823.87 421.79 829.12 419.14 838.33"/><polyline class="cls-4" points="396.79 831.5 380.79 829.87 382.79 819.87 398.07 823.87 396.79 829.62"/><polygon class="cls-4" points="372.21 827.87 361.87 825.68 359.79 815.87 375.79 817.19 372.21 827.87"/><rect class="cls-4" x="337.79" y="814.87" width="14.44" height="9"/><polygon class="cls-4" points="327.79 824.87 326.37 824.87 316.44 824.87 314.79 814.87 327.21 815.87 327.79 824.87"/><polygon class="cls-4" points="307.4 824.87 289.76 824.87 292.27 814.17 305.5 814.17 307.4 824.87"/><polygon class="cls-4" points="283.79 825.87 267.79 825.87 269 819.37 283.79 818.7 283.79 825.87"/><polyline class="cls-4" points="251.78 830.87 261.55 827.87 257.79 817.87 246.61 822.29"/><path class="cls-4" d="M356.79,978.81c-4.69,4.63-9.63,9.17-16.1,10.82-7.14,1.82-14.93,4.11-22.34,3.4-7.07-.67-18.12-5.47-20.53-12.84,5.62,3.24,14.29,2.5,20.62,3.59,5.39.92,12,.16,17.35-.5a100.07,100.07,0,0,0,14.5-3A53.22,53.22,0,0,1,356.79,978.81Z"/><path class="cls-4" d="M312.28,969.1c.38,2.56,4.4,3.47,6.32,4.4,2.69,1.31,5.79,2.75,8.81,3.1,5.78.69,12-1.94,16.53-5.33,3.14-2.34,6.28-4.5,8.78-7.55a26.41,26.41,0,0,0,2.46-4.39"/><path class="cls-4" d="M309.78,959.87a26.05,26.05,0,0,1-4-4,35.14,35.14,0,0,1,18-6c4.24-.17,8.53-.34,13,2,4,2.07,5,4,10,5,2.06.41,4.5-.93,5-1,2.91-.37,7.23.55,10-.32.23,1,.69,2.66-.34,3.3-1.65,1-8.06,0-10.65,1-8,3-8.16,4.93-19,6C330,966.05,318.71,967,309.78,959.87Z"/><path class="cls-4" d="M342.86,959.33a70.67,70.67,0,0,1-28.08,1.54"/><path class="cls-4" d="M332.58,960c.22-2.58-2.18-5.37-4.07-6.84s-5.09-1.68-7.48-1c-3.54,1-5.08,4.76-4.73,8.32"/><path class="cls-4" d="M328.73,960.73c-.14-1.66-4.55-6-6.53-5.34-1.59.54-1.54,3.2-1.67,4.47"/><path class="cls-4" d="M280,955.68c-1.17,2.52-5.14,5.26-7.59,6.47a28.63,28.63,0,0,1-9.26,2.47,41,41,0,0,1-18.08-2c-.24,0,.13.08.18.13.22-3.15,3.11-6.46,5.41-8.32,3-2.46,6-5.07,10.11-5.41A22.3,22.3,0,0,1,275,953,42.35,42.35,0,0,0,280,955.68Z"/><path class="cls-4" d="M244.42,966.67c1.42,3.2,5.89,5.14,8.89,6.43a42.07,42.07,0,0,0,11.55,3c4.39.52,6.61-.42,10-3.38,1.64-1.44,2.11-3,3.18-4.78"/><path class="cls-4" d="M281,965.86c.24,5.06-4,9.88-7.7,12.87-3.16,2.54-5.93,5-9.92,6-5.7,1.52-14.38,2.3-19.56-.82"/><path class="cls-4" d="M271.25,961.17c.65-5.56-8.24-11.92-13.3-9.5-3.16,1.52-6.79,8-6.58,11.6"/><path class="cls-4" d="M256.87,964.08c-.39-4.32,2.54-7.76,6.87-7,2.81.52,3.15,3,3.15,5.34"/><path class="cls-4" d="M285.15,896.2c0,3.63-1.5,5.67-4.61,7.51-2,1.15-4.59,1.53-6,3.42-5.5,7.43,2.64,14.13,3,21.55.42,8.15,3.24,16,3.54,24.16a89.54,89.54,0,0,1-.16,9"/><path class="cls-4" d="M291.61,903c.74,1.57,4.11,1.72,5.56,1.78,2.93.14,4.87-1,7.05-2.87s4.72-4.79,7.73-3.45c6.81,3,1.4,12.88-2.24,16"/><path class="cls-4" d="M279.36,878.84a13.25,13.25,0,0,0,2.21,1,17.79,17.79,0,0,0,5-.12,4.34,4.34,0,0,0,2.72-1.39,3.68,3.68,0,0,1,4.21-.89c2.52.79,4.2,3.53,7,3.63,1.56.06,3-1.43,3.94-2.52.65-.73,3.78-4.25,3.25-5.07a21.84,21.84,0,0,1-4.74-.67c-1.4-.41-2.74-1.75-4-2.52a11.76,11.76,0,0,0-6.68-1.83c-4.26,0-8.36,2.48-11.67,4.9"/><path class="cls-4" d="M304.47,867.2c-.61-.41-1.51-.74-2.19-1.16-1.66-1-2.73-2.4-4.71-2.85a27.27,27.27,0,0,0-9.45-.18c-2.82.39-4,1.45-6.07,3.09"/><line class="cls-4" x1="501.63" y1="818.05" x2="303.29" y2="629.48"/><ellipse class="cls-4" cx="278.78" cy="636.37" rx="16" ry="31.5"/><line class="cls-4" x1="215.52" y1="801.86" x2="254.3" y2="644.2"/><line class="cls-4" x1="581.28" y1="684.11" x2="516.4" y2="737.49"/><polygon class="cls-4" points="166.2 965.86 186.78 933.87 169.78 901.87 147.84 933.87 166.2 965.86"/><polygon class="cls-4" points="167.31 948.99 176.99 933.87 169.78 918.87 158.28 933.87 167.31 948.99"/><circle class="cls-4" cx="181.78" cy="896.87" r="11"/><circle class="cls-4" cx="156.28" cy="896.37" r="11.5"/><path class="cls-4" d="M170.78,888.25l14.13-106.59Z"/><line class="cls-4" x1="153.98" y1="783.92" x2="170.78" y2="888.25"/><path class="cls-4" d="M187.78,779.87a6,6,0,0,1-3-2c-2.7-3.58,1.41-8.52,1-14-.5-6.71-7.84-14.93-17-15-8.39-.06-15.08,6.75-17,14-2.16,8.17,2.25,14.89,3,16"/><circle class="cls-4" cx="168.28" cy="729.37" r="14.5"/><line class="cls-4" x1="176.63" y1="604.87" x2="184.78" y2="692.87"/><line class="cls-4" x1="162.6" y1="595.87" x2="151.44" y2="692.87"/><path class="cls-4" d="M184.78,700.25a17.5,17.5,0,0,1-33-2.38"/><polyline class="cls-4" points="491.75 637.67 463.05 633.69 425.87 597.62"/><polyline class="cls-4" points="406.18 602.07 458.81 651.89 487.51 651.89"/><polyline class="cls-4" points="478.94 661.61 456.7 661.61 392.21 602.07"/><polyline class="cls-4" points="473.95 671.1 455.11 671.1 378.47 602.07"/><polyline class="cls-4" points="365.59 602.07 446.85 677.63 473.95 678.97"/><circle class="cls-4" cx="412.28" cy="722.37" r="3.5"/><circle class="cls-4" cx="421.28" cy="687.37" r="4.5"/><circle class="cls-4" cx="359.28" cy="673.37" r="2.5"/><circle class="cls-4" cx="500.78" cy="760.87" r="4"/><path class="cls-4" d="M167.34,849c0-16.69-1.28-33.16-2.33-49.79-.44-7.06-2.18-14-2.55-21.08-.19-3.49-.83-8.66.91-11.69s5.22-3.11,8.11-4.28"/><path class="cls-4" d="M167,737.31c-2.31.9-8.92-10.74-8.28-13.91.88-4.4,7-3.4,10.16-4.51"/><path class="cls-4" d="M166.59,697.46c-14.92,3.32-3.08-50.82-2.63-57.83.62-9.73.59-19.65,2.92-29.15.93-3.77,2.59-7.6,2.72-11.51"/><path class="cls-4" d="M485,906.65c0,4,.64,17.82,5.71,18.29-12.43-6.18-29.38-.35-30.69,14.14-.57,6.23,3.37,8.32,5,13.5-8.46,1.21-36.51,13.95-30,26.56,1.69,3.31,6.58,6.42,9.18,9.16,2.34,2.46,3.28,4.82,5.06,7.61-8.49,5.09-26.23,1.31-26.65,14.78-.12,4,1.52,7.19,2.1,11,.47,3.07,0,6,.79,9.07-8.54-4-15.07-2.52-21.62,4.16-2.57,2.63-9.77,9.17-8.72,13.31"/><path class="cls-4" d="M420.86,1034.67c-6.41,3.82-9.35,7.74-7.49,15"/><path class="cls-4" d="M426.56,1039.66c3.46,1.23,5.09,9.16,2.54,12,6.53,3.47,17.8-1.93,21.25-8,1.53-2.68,2.26-6.8-.51-8.27-2-1.07-5.85.15-7.54,1.37-.11-2.51.59-5.43-1-7.51,5.46-2.6,11.39-14,4.87-18-2.84-1.74-7.33-2.15-9.63.29s-1.62,7.2-2.87,9.85"/><path class="cls-4" d="M428.35,1025.4c4.33.19,10.89,4.91,7.21,9.72-2.18,2.86-6.06.31-7.57-2.23"/><path class="cls-4" d="M460.8,964.78c-5.12,1.76-12.87,2.17-13.86,8.31-.54,3.34,1.36,9.43,4.21,11.67,6.53,5.13,12.9-1.56,17-6.23,1.36-1.57,5.88-8.54,1.67-9.19,5.22,3.88,13.88,15.28,20.62,7.56,2.47-2.82,4.53-10.46,2.65-14.29-2.05-4.16-7.81-3.17-11.48-3.89,5.77-2.8,11.52-18,3.11-20-7.95-1.87-7.91,7-12.13,10.35"/><path class="cls-4" d="M467.57,955.15c4.45-.44,10.28,6.52,5.54,8.56-3.65,1.58-6.26-1-8-3.57"/><path class="cls-4" d="M310.88,950.17c2-7.32,8.56-12.14,14-16.24"/><path class="cls-4" d="M279.16,949.23c-3.55-2.58-8.12-6.22-10.53-10"/><rect class="cls-4" x="122.5" y="99" width="591" height="954"/></svg>