<svg id="Layer_1" data-name="Layer 1" xmlns="http://www.w3.org/2000/svg" viewBox="0 0 822 1122"><defs><style>.cls-1{font-size:165.39px;}.cls-1,.cls-3,.cls-4{fill:#6f9797;}.cls-1,.cls-3{font-family:HelveticaNeue-Bold, Helvetica Neue;font-weight:700;}.cls-2{fill:#d6bd80;}.cls-3{font-size:192.79px;}</style></defs><text class="cls-1" transform="translate(30.75 153.81)">3</text><circle class="cls-2" cx="51.82" cy="59.49" r="8.91"/><circle class="cls-2" cx="72.16" cy="46.72" r="8.91"/><circle class="cls-2" cx="98.88" cy="54.35" r="8.91"/><circle class="cls-2" cx="101.44" cy="77.25" r="8.91"/><circle class="cls-2" cx="82.35" cy="92.53" r="8.91"/><circle class="cls-2" cx="106.52" cy="110.34" r="8.91"/><circle class="cls-2" cx="102.71" cy="134.52" r="8.91"/><circle class="cls-2" cx="81.08" cy="147.25" r="8.91"/><circle class="cls-2" cx="59.45" cy="140.89" r="8.91"/><circle class="cls-2" cx="46.72" cy="125.62" r="8.91"/><text class="cls-3" transform="translate(783.06 944.96) rotate(-179.89)">3</text><circle class="cls-2" cx="758.23" cy="1054.81" r="10.38"/><circle class="cls-2" cx="734.49" cy="1069.65" r="10.38"/><circle class="cls-2" cx="703.36" cy="1060.69" r="10.38"/><circle class="cls-2" cx="700.44" cy="1033.99" r="10.38"/><circle class="cls-2" cx="722.71" cy="1016.23" r="10.38"/><circle class="cls-2" cx="694.59" cy="995.41" r="10.38"/><circle class="cls-2" cx="699.08" cy="967.24" r="10.38"/><circle class="cls-2" cx="724.33" cy="952.45" r="10.38"/><circle class="cls-2" cx="749.53" cy="959.91" r="10.38"/><circle class="cls-2" cx="765.82" cy="978.86" r="10.38"/><path class="cls-4" d="M374.82,216.11c-19.75-22.88-51.76-22.88-71.51,0h0c-19.75,22.87-19.75,60,0,82.85l12.25,14.19,71.51-82.86Z"/><path class="cls-4" d="M470.69,299.11c19.75-22.88,19.75-60,0-82.85h0c-19.75-22.88-51.76-22.88-71.51,0l-12.11,14,71.5,82.86Z"/><polygon class="cls-4" points="387.06 230.29 315.56 313.15 387.06 396 458.57 313.15 387.06 230.29"/><path class="cls-4" d="M66,192.84c-11.32-13.12-29.68-13.12-41,0h0C13.7,206,13.7,227.23,25,240.35l7,8.14,41-47.51Z"/><path class="cls-4" d="M121,240.44c11.32-13.12,11.32-34.39,0-47.51h0c-11.33-13.12-29.69-13.12-41,0l-7,8,41,47.51Z"/><polygon class="cls-4" points="73.05 200.98 32.05 248.49 73.05 296 114.06 248.49 73.05 200.98"/><path class="cls-4" d="M735.46,907.24c11.17,13.25,29.53,13.46,41,.47h0c11.47-13,11.72-34.26.54-47.51L770.09,852l-41.56,47Z"/><path class="cls-4" d="M681,859c-11.48,13-11.72,34.26-.55,47.51h0c11.17,13.25,29.53,13.46,41,.47l7-8-40.45-48Z"/><polygon class="cls-4" points="728.53 899.02 770.09 851.99 729.63 804 688.08 851.04 728.53 899.02"/><path class="cls-4" d="M374.82,487.11c-19.75-22.88-51.76-22.88-71.51,0h0c-19.75,22.87-19.75,60,0,82.85l12.25,14.19,71.51-82.86Z"/><path class="cls-4" d="M470.69,570.11c19.75-22.88,19.75-60,0-82.85h0c-19.75-22.88-51.76-22.88-71.51,0l-12.11,14,71.5,82.86Z"/><polygon class="cls-4" points="387.06 501.29 315.56 584.15 387.06 667 458.57 584.15 387.06 501.29"/><path class="cls-4" d="M400.86,947.57c20.22,22.47,52.22,21.81,71.49-1.48h0c19.27-23.28,18.51-60.37-1.71-82.83L458.1,849.33l-69.78,84.31Z"/><path class="cls-4" d="M303.29,866.57C284,889.85,284.79,926.94,305,949.4h0c20.21,22.47,52.22,21.81,71.49-1.48l11.82-14.28-73.2-81.36Z"/><polygon class="cls-4" points="388.32 933.64 458.11 849.33 384.9 767.97 315.12 852.28 388.32 933.64"/></svg>