<svg id="Layer_1" data-name="Layer 1" xmlns="http://www.w3.org/2000/svg" viewBox="0 0 822 1122"><defs><style>.cls-1{font-size:176.01px;font-family:HelveticaNeue-Bold, Helvetica Neue;font-weight:700;}.cls-1,.cls-3{fill:#d89d70;}.cls-2{fill:#d6bd80;}</style></defs><text class="cls-1" transform="translate(33.75 160.52)">8</text><circle class="cls-2" cx="84.68" cy="152.26" r="9.38"/><circle class="cls-2" cx="115.49" cy="120.11" r="9.38"/><circle class="cls-2" cx="48.51" cy="120.1" r="9.38"/><circle class="cls-2" cx="52.52" cy="73.21" r="9.38"/><circle class="cls-2" cx="59.22" cy="51.77" r="9.38"/><circle class="cls-2" cx="104.77" cy="51.77" r="9.38"/><circle class="cls-2" cx="82" cy="43.73" r="9.38"/><circle class="cls-2" cx="111.47" cy="71.86" r="9.38"/><circle class="cls-2" cx="56.54" cy="142.88" r="9.38"/><circle class="cls-2" cx="108.79" cy="142.88" r="9.38"/><text class="cls-1" transform="translate(784.68 975.44) rotate(-179.89)">8</text><circle class="cls-2" cx="733.73" cy="983.59" r="9.38"/><circle class="cls-2" cx="702.86" cy="1015.69" r="9.38"/><circle class="cls-2" cx="769.84" cy="1015.82" r="9.38"/><circle class="cls-2" cx="765.73" cy="1062.71" r="9.38"/><circle class="cls-2" cx="758.99" cy="1084.14" r="9.38"/><circle class="cls-2" cx="713.44" cy="1084.05" r="9.38"/><circle class="cls-2" cx="736.19" cy="1092.13" r="9.38"/><circle class="cls-2" cx="706.78" cy="1063.94" r="9.38"/><circle class="cls-2" cx="761.86" cy="993.03" r="9.38"/><circle class="cls-2" cx="709.6" cy="992.93" r="9.38"/><path class="cls-3" d="M188.67,367.25a54.39,54.39,0,0,0,76.9,0h0a54.38,54.38,0,0,0,0-76.91L252.4,277.17l-76.9,76.91Z"/><path class="cls-3" d="M85.57,290.2a54.38,54.38,0,0,0,0,76.91h0a54.39,54.39,0,0,0,76.9,0l13-13L98.6,277.17Z"/><rect class="cls-3" x="121.12" y="222.8" width="108.76" height="108.76" transform="translate(-144.59 205.28) rotate(-45)"/><path class="cls-3" d="M132.06,425.62c25-24.15,43.78-60.38,43.81-84.54,0,24.16,18.71,58.79,43.72,80.81"/><path class="cls-3" d="M183.67,640.25a54.39,54.39,0,0,0,76.9,0h0a54.38,54.38,0,0,0,0-76.91L247.4,550.17l-76.9,76.91Z"/><path class="cls-3" d="M80.57,563.2a54.38,54.38,0,0,0,0,76.91h0a54.39,54.39,0,0,0,76.9,0l13-13L93.6,550.17Z"/><rect class="cls-3" x="116.12" y="495.8" width="108.76" height="108.76" transform="translate(-339.09 281.7) rotate(-45)"/><path class="cls-3" d="M127.06,698.62c25-24.15,43.78-60.38,43.81-84.54,0,24.16,18.71,58.79,43.72,80.81"/><path class="cls-3" d="M183.67,923.25a54.39,54.39,0,0,0,76.9,0h0a54.38,54.38,0,0,0,0-76.91L247.4,833.17l-76.9,76.91Z"/><path class="cls-3" d="M80.57,846.2a54.38,54.38,0,0,0,0,76.91h0a54.39,54.39,0,0,0,76.9,0l13-13L93.6,833.17Z"/><rect class="cls-3" x="116.12" y="778.8" width="108.76" height="108.76" transform="translate(-539.2 364.59) rotate(-45)"/><path class="cls-3" d="M127.06,981.62c25-24.15,43.78-60.38,43.81-84.54,0,24.16,18.71,58.79,43.72,80.81"/><path class="cls-3" d="M646.67,922.25a54.39,54.39,0,0,0,76.9,0h0a54.38,54.38,0,0,0,0-76.91L710.4,832.17l-76.9,76.91Z"/><path class="cls-3" d="M543.57,845.2a54.38,54.38,0,0,0,0,76.91h0a54.39,54.39,0,0,0,76.9,0l13-13-76.9-76.91Z"/><rect class="cls-3" x="579.12" y="777.8" width="108.76" height="108.76" transform="translate(-402.89 691.69) rotate(-45)"/><path class="cls-3" d="M590.06,980.62c25-24.15,43.78-60.38,43.81-84.54,0,24.16,18.71,58.79,43.72,80.81"/><path class="cls-3" d="M647.67,657.25a54.39,54.39,0,0,0,76.9,0h0a54.38,54.38,0,0,0,0-76.91L711.4,567.17l-76.9,76.91Z"/><path class="cls-3" d="M544.57,580.2a54.38,54.38,0,0,0,0,76.91h0a54.39,54.39,0,0,0,76.9,0l13-13-76.9-76.91Z"/><rect class="cls-3" x="580.12" y="512.8" width="108.76" height="108.76" transform="translate(-215.21 614.78) rotate(-45)"/><path class="cls-3" d="M591.06,715.62c25-24.15,43.78-60.38,43.81-84.54,0,24.16,18.71,58.79,43.72,80.81"/><path class="cls-3" d="M644.67,368.25a54.39,54.39,0,0,0,76.9,0h0a54.38,54.38,0,0,0,0-76.91L708.4,278.17l-76.9,76.91Z"/><path class="cls-3" d="M541.57,291.2a54.38,54.38,0,0,0,0,76.91h0a54.39,54.39,0,0,0,76.9,0l13-13-76.9-76.91Z"/><rect class="cls-3" x="577.12" y="223.8" width="108.76" height="108.76" transform="translate(-11.74 528.01) rotate(-45)"/><path class="cls-3" d="M588.06,426.62c25-24.15,43.78-60.38,43.81-84.54,0,24.16,18.71,58.79,43.72,80.81"/><path class="cls-3" d="M417.67,564.25a54.39,54.39,0,0,0,76.9,0h0a54.38,54.38,0,0,0,0-76.91L481.4,474.17l-76.9,76.91Z"/><path class="cls-3" d="M314.57,487.2a54.38,54.38,0,0,0,0,76.91h0a54.39,54.39,0,0,0,76.9,0l13-13-76.9-76.91Z"/><rect class="cls-3" x="350.12" y="419.8" width="108.76" height="108.76" transform="translate(-216.82 424.91) rotate(-45)"/><path class="cls-3" d="M361.06,622.62c25-24.15,43.78-60.38,43.81-84.54,0,24.16,18.71,58.79,43.72,80.81"/><path class="cls-3" d="M391.59,740.55a54.38,54.38,0,0,0-76.9-.16h0a54.37,54.37,0,0,0-.15,76.9l13.14,13.2,77.06-76.75Z"/><path class="cls-3" d="M494.54,817.8a54.38,54.38,0,0,0,.15-76.91h0a54.38,54.38,0,0,0-76.9-.15l-13.05,13,76.74,77.06Z"/><rect class="cls-3" x="350.2" y="776.27" width="108.76" height="108.76" transform="translate(-468.25 527.62) rotate(-44.89)"/><path class="cls-3" d="M448.3,682.27c-25,24.13-43.86,60.32-44,84.45.12-24.13-18.55-58.8-43.56-80.9"/><path class="cls-3" d="M759.78,901.38a21.66,21.66,0,0,0-30.61.9h0a21.66,21.66,0,0,0,.91,30.61l5.39,5.08,29.7-31.5Z"/><path class="cls-3" d="M801.71,930.83a21.65,21.65,0,0,0-.9-30.61h0a21.66,21.66,0,0,0-30.61.91l-5,5.34,31.51,29.69Z"/><rect class="cls-3" x="744.43" y="915.42" width="43.3" height="43.3" transform="translate(-441.28 851.83) rotate(-46.69)"/><path class="cls-3" d="M781.76,877.55c-9.94,9.76-17,24.4-16.44,34.17-.55-9.77-8.41-23.33-18.35-31.65"/><path class="cls-3" d="M81.08,244.12a21.65,21.65,0,0,0,30.57,1.7h0a21.65,21.65,0,0,0,1.7-30.57l-4.95-5.53L76.14,238.6Z"/><path class="cls-3" d="M41.79,211.23A21.65,21.65,0,0,0,40.1,241.8h0a21.64,21.64,0,0,0,30.57,1.69l5.47-4.89L47.26,206.33Z"/><rect class="cls-3" x="56.18" y="186.38" width="43.3" height="43.3" transform="translate(-118.9 104.92) rotate(-41.83)"/><path class="cls-3" d="M57.54,266.16c10-9.2,18.23-23.19,19.28-32.65-1,9.46,5.64,23.64,15.6,33.09"/></svg>