<svg id="Layer_1" data-name="Layer 1" xmlns="http://www.w3.org/2000/svg" viewBox="0 0 822 1122"><defs><style>.cls-1{font-size:176.01px;font-family:HelveticaNeue-Bold, Helvetica Neue;font-weight:700;}.cls-1,.cls-3{fill:#d89d70;}.cls-2{fill:#d6bd80;}</style></defs><text class="cls-1" transform="translate(33.75 160.52)">8</text><circle class="cls-2" cx="84.68" cy="152.26" r="9.38"/><circle class="cls-2" cx="115.49" cy="120.11" r="9.38"/><circle class="cls-2" cx="48.51" cy="120.1" r="9.38"/><circle class="cls-2" cx="52.52" cy="73.21" r="9.38"/><circle class="cls-2" cx="59.22" cy="51.77" r="9.38"/><circle class="cls-2" cx="104.77" cy="51.77" r="9.38"/><circle class="cls-2" cx="82" cy="43.73" r="9.38"/><circle class="cls-2" cx="111.47" cy="71.86" r="9.38"/><circle class="cls-2" cx="56.54" cy="142.88" r="9.38"/><circle class="cls-2" cx="108.79" cy="142.88" r="9.38"/><text class="cls-1" transform="translate(818.68 981.44) rotate(-179.89)">8</text><circle class="cls-2" cx="767.73" cy="989.59" r="9.38"/><circle class="cls-2" cx="736.86" cy="1021.69" r="9.38"/><circle class="cls-2" cx="803.84" cy="1021.82" r="9.38"/><circle class="cls-2" cx="799.73" cy="1068.71" r="9.38"/><circle class="cls-2" cx="792.99" cy="1090.14" r="9.38"/><circle class="cls-2" cx="747.44" cy="1090.05" r="9.38"/><circle class="cls-2" cx="770.19" cy="1098.13" r="9.38"/><circle class="cls-2" cx="740.78" cy="1069.94" r="9.38"/><circle class="cls-2" cx="795.86" cy="999.03" r="9.38"/><circle class="cls-2" cx="743.6" cy="998.93" r="9.38"/><path class="cls-3" d="M55.48,315.9c16.37-15.8,28.66-39.52,28.67-55.32,0,15.8,12.25,38.47,28.61,52.88"/><circle class="cls-3" cx="82.75" cy="212.2" r="32.19"/><circle class="cls-3" cx="53.59" cy="260.18" r="32.19"/><circle class="cls-3" cx="114.94" cy="260.18" r="32.19"/><ellipse class="cls-3" cx="83.96" cy="246.52" rx="9.11" ry="6.38"/><path class="cls-3" d="M787.05,840.1c-16.37,15.8-28.65,39.52-28.67,55.32,0-15.8-12.25-38.47-28.61-52.88"/><circle class="cls-3" cx="759.78" cy="943.8" r="32.19"/><circle class="cls-3" cx="788.94" cy="895.82" r="32.19"/><circle class="cls-3" cx="727.59" cy="895.82" r="32.19"/><ellipse class="cls-3" cx="758.57" cy="909.48" rx="9.11" ry="6.38"/><path class="cls-3" d="M191.94,449.61c25.12-24.26,44-60.65,44-84.92,0,24.27,18.8,59.05,43.92,81.18"/><circle class="cls-3" cx="233.79" cy="290.44" r="49.41"/><circle class="cls-3" cx="189.04" cy="364.09" r="49.41"/><circle class="cls-3" cx="283.21" cy="364.09" r="49.41"/><ellipse class="cls-3" cx="235.66" cy="343.11" rx="13.98" ry="9.79"/><path class="cls-3" d="M166.53,695.13c25.12-24.27,44-60.66,44-84.93,0,24.27,18.79,59.06,43.91,81.18"/><circle class="cls-3" cx="208.38" cy="535.95" r="49.41"/><circle class="cls-3" cx="163.63" cy="609.6" r="49.41"/><circle class="cls-3" cx="257.79" cy="609.6" r="49.41"/><ellipse class="cls-3" cx="210.24" cy="588.62" rx="13.98" ry="9.79"/><path class="cls-3" d="M556.18,433c25.12-24.26,44-60.66,44-84.92,0,24.26,18.79,59.05,43.92,81.17"/><circle class="cls-3" cx="598.03" cy="273.79" r="49.41"/><circle class="cls-3" cx="553.28" cy="347.45" r="49.41"/><circle class="cls-3" cx="647.44" cy="347.45" r="49.41"/><ellipse class="cls-3" cx="599.9" cy="326.47" rx="13.98" ry="9.79"/><path class="cls-3" d="M379.48,623c25.12-24.27,44-60.66,44-84.93,0,24.27,18.79,59.06,43.91,81.18"/><circle class="cls-3" cx="421.33" cy="463.81" r="49.41"/><circle class="cls-3" cx="376.58" cy="537.46" r="49.41"/><circle class="cls-3" cx="470.74" cy="537.46" r="49.41"/><ellipse class="cls-3" cx="423.19" cy="516.48" rx="13.98" ry="9.79"/><path class="cls-3" d="M454.35,705.6c-25.14,23.78-45.34,59.45-47.12,83.23,1.78-23.78-15.74-59.24-40.88-82.74"/><circle class="cls-3" cx="407.06" cy="863.35" r="49.41"/><circle class="cls-3" cx="454.51" cy="791.41" r="49.41"/><circle class="cls-3" cx="360.41" cy="787.92" r="49.41"/><ellipse class="cls-3" cx="407.15" cy="810.64" rx="9.79" ry="13.98" transform="translate(-418.02 1187.48) rotate(-87.88)"/><path class="cls-3" d="M563.83,707.38c25.12-24.26,44-60.66,44-84.92,0,24.26,18.79,59,43.91,81.17"/><circle class="cls-3" cx="605.68" cy="548.2" r="49.41"/><circle class="cls-3" cx="560.93" cy="621.85" r="49.41"/><circle class="cls-3" cx="655.09" cy="621.85" r="49.41"/><ellipse class="cls-3" cx="607.54" cy="600.88" rx="13.98" ry="9.79"/><path class="cls-3" d="M547.42,954.58c25.13-24.26,44-60.66,44-84.92,0,24.26,18.8,59.05,43.92,81.17"/><circle class="cls-3" cx="589.28" cy="795.4" r="49.41"/><circle class="cls-3" cx="544.52" cy="869.05" r="49.41"/><circle class="cls-3" cx="638.69" cy="869.05" r="49.41"/><ellipse class="cls-3" cx="591.14" cy="848.08" rx="13.98" ry="9.79"/><path class="cls-3" d="M151.81,954c25.12-24.26,44-60.66,44-84.92,0,24.26,18.79,59.05,43.92,81.17"/><circle class="cls-3" cx="193.66" cy="794.8" r="49.41"/><circle class="cls-3" cx="148.91" cy="868.45" r="49.41"/><circle class="cls-3" cx="243.07" cy="868.45" r="49.41"/><ellipse class="cls-3" cx="195.53" cy="847.48" rx="13.98" ry="9.79"/></svg>