<svg id="Layer_1" data-name="Layer 1" xmlns="http://www.w3.org/2000/svg" viewBox="0 0 822 1122"><defs><style>.cls-1{font-size:177.66px;}.cls-1,.cls-3,.cls-4{fill:#6f9797;}.cls-1,.cls-3{font-family:HelveticaNeue-Bold, Helvetica Neue;font-weight:700;}.cls-2{fill:#d6bd80;}.cls-3{font-size:177.04px;}.cls-5{fill:none;stroke:#6f9898;stroke-miterlimit:10;stroke-width:4px;}</style></defs><text class="cls-1" transform="translate(35.75 169.57)">K</text><circle class="cls-2" cx="61.74" cy="58.86" r="9.57"/><circle class="cls-2" cx="61.72" cy="84.8" r="9.57"/><circle class="cls-2" cx="61.72" cy="117.61" r="9.57"/><circle class="cls-2" cx="84.61" cy="103.23" r="9.57"/><circle class="cls-2" cx="103.74" cy="80" r="9.57"/><circle class="cls-2" cx="110.57" cy="115.53" r="9.57"/><circle class="cls-2" cx="124.24" cy="137.4" r="9.57"/><circle class="cls-2" cx="140.64" cy="156.53" r="9.57"/><circle class="cls-2" cx="124.24" cy="59.5" r="9.57"/><circle class="cls-2" cx="61.72" cy="146.3" r="9.57"/><text class="cls-3" transform="translate(784.26 942.19) rotate(179.87)">K</text><circle class="cls-2" cx="758.6" cy="1052.54" r="9.53"/><circle class="cls-2" cx="758.55" cy="1026.69" r="9.53"/><circle class="cls-2" cx="758.48" cy="994" r="9.53"/><circle class="cls-2" cx="735.71" cy="1008.38" r="9.53"/><circle class="cls-2" cx="716.69" cy="1031.57" r="9.53"/><circle class="cls-2" cx="709.8" cy="996.18" r="9.53"/><circle class="cls-2" cx="696.13" cy="974.42" r="9.53"/><circle class="cls-2" cx="679.74" cy="955.4" r="9.53"/><circle class="cls-2" cx="696.31" cy="1052.05" r="9.53"/><circle class="cls-2" cx="758.41" cy="965.4" r="9.53"/><path class="cls-4" d="M222.59,216.28c-16.44-19-43.08-19-59.52,0h0c-16.43,19-16.43,49.91,0,69L173.26,297l59.52-69Z"/><path class="cls-4" d="M302.37,285.36c16.44-19,16.44-49.91,0-69h0c-16.43-19-43.08-19-59.51,0l-10.08,11.68,59.51,69Z"/><polygon class="cls-4" points="232.78 228.09 173.26 297.05 232.78 366 292.29 297.05 232.78 228.09"/><path class="cls-4" d="M83.25,188.84c-11.32-13.12-29.68-13.12-41,0h0c-11.32,13.12-11.32,34.39,0,47.51l7,8.14,41-47.51Z"/><path class="cls-4" d="M138.23,236.44c11.32-13.12,11.32-34.39,0-47.51h0c-11.33-13.12-29.69-13.12-41,0l-7,8,41,47.51Z"/><polygon class="cls-4" points="90.27 196.98 49.27 244.49 90.27 292 131.28 244.49 90.27 196.98"/><path class="cls-4" d="M581.35,946.86c15.13,17.53,39.67,17.53,54.8,0h0c15.13-17.54,15.13-46,0-63.5l-9.39-10.87L572,936Z"/><path class="cls-4" d="M507.88,883.25c-15.13,17.53-15.13,46,0,63.49h0c15.14,17.54,39.67,17.53,54.8,0L572,936l-54.81-63.49Z"/><polygon class="cls-4" points="571.97 935.98 626.76 872.49 571.96 809 517.16 872.49 571.97 935.98"/><path class="cls-4" d="M723.46,918.24c11.17,13.25,29.53,13.46,41,.47h0c11.47-13,11.72-34.26.54-47.51L758.09,863l-41.56,47Z"/><path class="cls-4" d="M669,870c-11.48,13-11.72,34.26-.55,47.51h0c11.17,13.25,29.53,13.46,41,.47l7-8-40.45-48Z"/><polygon class="cls-4" points="716.53 910.02 758.09 862.99 717.63 815 676.08 862.04 716.53 910.02"/><path class="cls-5" d="M348.57,253.4a51.7,51.7,0,0,1,12.33-1.77c7.2-.11,12.29,1.81,18.53,5.31,3.85,2.16,8.26,4.47,10.61,8.29-2,.19-4.1,0-6.1,0a131.88,131.88,0,0,0-22.15,2.39c-3.82.67-10.55.92-13.72,3.23"/><path class="cls-5" d="M364.24,267.55c-2.13-1.93-8.11-12-3-13.89"/><path class="cls-5" d="M346,227.38a22.77,22.77,0,0,1,3.11-1.17c4.27-1.22,9.48-.73,13.9-.64,8.82.17,20,3,27.11,8.51,3.92,3,5.85,5.09,5.62,10-1.56.07-2.83-1.18-4.12-2a89.9,89.9,0,0,0-11.6-6.72,66.08,66.08,0,0,0-21.64-6.08c-3.3-.3-7.45-.57-10.62.41-1.23.38-2.23,1.15-3.49,1.26C344.12,229,346,226.24,346,227.38Z"/><path class="cls-5" d="M329.12,217.78c0,9.6,1.64,19,2,28.59.14,3.87.64,8.46-1.07,12.07s-4.91,7-7.12,10.3c-3.46,5.17-7.89,9.23-8.22,15.73-.23,4.54-1.11,11.39,3.92,13.76,2.12,1,8.4,1.19,10.58.1,2.57-1.3,4.67-9.53,9.05-7.05,1.54.87,2.29,4.2,3.79,5.54,1.79,1.59,3.51,1.85,5.86,1.82,4.12,0,6.66-1.85,6.49-6.33"/><path class="cls-5" d="M340.74,311.26c1.76,0,3.78-.32,5.46.19,3.05.94,5.52,4.05,8.38,5.52,7.85,4,16.27,5.1,22.63-1.75,2.74-2.94,6.91-7.93,3.75-11.82-1-1.21-3.41-2.74-4.6-1.24"/><path class="cls-5" d="M332.15,321.37c6.72,0,13.36.48,19.26,4.08,2.38,1.45,6.79,3.91,6.26,7.28"/><path class="cls-5" d="M326.84,304.94c4.2-.1,3,9.84,3,12.38"/><path class="cls-5" d="M330.89,331.72c-1.45,3.41-2.67,10.84.5,13.65"/><path class="cls-5" d="M530.84,239.19c-13.8,0-27.63.31-41.42.09-10.28-.15-20.16-1.9-30.32-3.14-7-.85-14.12-.81-20.84-3-5.84-1.91-11.74-4.81-17.33-7.38a108.42,108.42,0,0,0-31.22-9.14c-7.84-1.11-15.28-2.45-23.25-2-4.66.26-9.29,1.34-14,.93-6.14-.54-12.21-3-18.44-2.64-1.88-.49-5.83-2-6.19-4-.67-3.69,1.17-4.13,4.82-5.88,16.13-7.69,39.2-3.75,56.25-2,16,1.66,31.69,8.7,47.45,12.4,4.65,1.1,8.65,3.78,13.28,5,7.07,1.9,14.62,1.59,21.82,2.82,10.06,1.72,20,4,29.92,5.53,8.55,1.33,15.5-.41,23.94-.77,3.42-.15,5.54-.58,6.86,3.63C533.36,233.4,534.78,239.19,530.84,239.19Z"/><path class="cls-5" d="M532.15,222.09c1.05-7.12-6.91-8.6-12.28-9.29-23.55-3.06-47.56-.61-71.21-4.28-14.75-2.29-26-11.6-40-16.85-14.64-5.48-29.21-9.06-44.8-9.48-13.65-.37-33.9-2.14-45.81,6.38-9.17,6.56,9.12,8.4,13.78,8.54"/><path class="cls-5" d="M303.2,366.33c.12-5.13,0-9-5.34-11.1-5.81-2.23-10.31.68-9.19,7.56,1.45,9,15.48,7.3,21.54,4.52,9.42-4.32,13.3-13.27,19.48-20.44"/><path class="cls-5" d="M310.65,361c1.16-9.74-9.25-15.77-17.77-15-11.23,1.07-19,16.67-10.4,25.08,8.1,8,22.43,6.41,31.82,2,7.64-3.62,21.47-11.31,24.08-20.36"/><path class="cls-5" d="M292.44,378.74c9.48,10.27,32-.61,40.71-7,5.65-4.15,12.24-9.38,16.33-15.15,1.91-2.7,2.49-6.77,4.22-8.89"/><path class="cls-5" d="M306.52,386.19c3.76.59,7.18,1.41,11.1,1.17,9.62-.58,19-7.17,26.93-12.26a78.6,78.6,0,0,0,18.27-16.62c1.91-2.29,4-4.44,4.53-7.47"/><path class="cls-5" d="M326.38,387.85c4.39,1.28,9.38,3.19,14,2.48,6.33-1,13.71-8.16,17.83-13,8.35-9.8,12.94-22.74,21.53-32.13"/><path class="cls-5" d="M349.56,388.68c9.16,4.66,17.93-5.47,23.37-11.78,7.89-9.15,16.66-19.69,22.15-30.44"/><path class="cls-5" d="M363.22,389.92c14.8.13,28.68-10.71,38.29-21.52,2.72-3,3.64-8.4,6.4-10.77"/><path class="cls-5" d="M429.85,341.49c-5.69-1.1-13.8-2.61-13.68,6,.11,8.34,14.38,6.65,18.53,2.38,6-6.21,8.52-23.49-2.61-24.57-13.81-1.34-26.32,11.49-22.74,25.46,2.13,8.29,15.46,15.21,23.81,12.67,3.94-1.2,6.77-5.87,7.85-9.57,3.15-10.79,3-24.56.06-35.19-2.74-10-3.78-20.33-7.42-30.05-3.06-8.2-6.85-16.2-10.47-24.17-4.95-10.9-9.16-22.22-10.3-33.88"/><path class="cls-5" d="M527.52,249.2c10.53,16.87,16.64,38.73,21.8,57.93a105.56,105.56,0,0,1,3.45,30.39c-.17,6.63-.68,15.4-3.31,21.36"/><path class="cls-5" d="M518,245.89c.64,7.49,4.43,16.5,7,23.62,2.67,7.37,7.39,12.35,11.6,18.76a43.12,43.12,0,0,1,6.89,30.37c-1.56,10.38-3,20.68-3.88,31.14-.34,4.05-1.66,10.75-6.3,12"/><path class="cls-5" d="M509,243.89c.64,7.49,4.43,16.5,7,23.62,2.67,7.37,7.39,12.35,11.6,18.76a43.12,43.12,0,0,1,6.89,30.37c-1.56,10.38-3,20.68-3.88,31.14-.34,4.05-1.66,10.75-6.3,12"/><path class="cls-5" d="M496,243.89c.64,7.49,4.43,16.5,7,23.62,2.67,7.37,7.39,12.35,11.6,18.76a43.12,43.12,0,0,1,6.89,30.37c-1.56,10.38-3,20.68-3.88,31.14-.34,4.05-1.66,10.75-6.3,12"/><path class="cls-5" d="M487,245.89c.64,7.49,4.43,16.5,7,23.62,2.67,7.37,7.39,12.35,11.6,18.76a43.12,43.12,0,0,1,6.89,30.37c-1.56,10.38-3,20.68-3.88,31.14-.34,4.05-1.66,10.75-6.3,12"/><path class="cls-5" d="M474,240.89c.64,7.49,4.43,16.5,7,23.62,2.67,7.37,7.39,12.35,11.6,18.76a43.12,43.12,0,0,1,6.89,30.37c-1.56,10.38-3,20.68-3.88,31.14-.34,4.05-1.66,10.75-6.3,12"/><path class="cls-5" d="M466,240.89c.64,7.49,4.43,16.5,7,23.62,2.67,7.37,7.39,12.35,11.6,18.76a43.12,43.12,0,0,1,6.89,30.37c-1.56,10.38-3,20.68-3.88,31.14-.34,4.05-1.66,10.75-6.3,12"/><path class="cls-5" d="M457,240.89c.64,7.49,4.43,16.5,7,23.62,2.67,7.37,7.39,12.35,11.6,18.76a43.12,43.12,0,0,1,6.89,30.37c-1.56,10.38-3,20.68-3.88,31.14-.34,4.05-1.66,10.75-6.3,12"/><path class="cls-5" d="M446,240.89c.64,7.49,4.43,16.5,7,23.62,2.67,7.37,7.39,12.35,11.6,18.76a43.12,43.12,0,0,1,6.89,30.37c-1.56,10.38-3,20.68-3.88,31.14-.34,4.05-1.66,10.75-6.3,12"/><path class="cls-5" d="M437,236.89c.64,7.74,4.43,17,7,24.39,2.67,7.61,7.39,12.76,11.6,19.37A45.68,45.68,0,0,1,462.5,312c-1.56,10.73-3,21.36-3.88,32.16-.34,4.18-1.66,11.1-6.3,12.38"/><path class="cls-5" d="M426,236.89c.64,7.74,4.43,17,7,24.39,2.67,7.61,7.39,12.76,11.6,19.37A45.68,45.68,0,0,1,451.5,312c-1.56,10.73-3,21.36-3.88,32.16-.34,4.18-1.66,11.1-6.3,12.38"/><polyline class="cls-5" points="681.02 141.55 636.02 184.55 638.02 391.55"/><polyline class="cls-5" points="681.02 161.51 644.02 193.55 649.02 405.55"/><path class="cls-5" d="M593,172.55c-4.58,4.85-30.71,33.4-28,76,2.09,32.83,20,54.4,26,61"/><path class="cls-5" d="M598,184.55c-4.25,4.72-22.35,25.85-22,58,.33,30,16.54,49.88,21,55"/><path class="cls-5" d="M604,194.55a85,85,0,0,0-1,92"/><path class="cls-5" d="M595.42,173c-.89,10.35,9,24,15.24,31.86,3.35,4.25,7.76,8,11.4,11.95"/><path class="cls-5" d="M588.91,306.82c0-4.27,0-7,2.72-10.57,4.58-5.95,9.38-12,14.52-17.46,3.21-3.42,10-12.26,15.31-12.52-6-16.35-5.64-32-.29-48.54,4.16-.26,8.91,4.2,12.72,5.63"/><path class="cls-5" d="M622.06,268.05c2.62-3.83,9.38-2.54,11.54-6.22"/><path class="cls-5" d="M601.63,265.09c1.5-1.12,3.6-2.32,2.89-4.16-.8-2.1-6.53-4.41-8.32-5.46-2-1.18-4.43-2.07-5.66-4,4.57-2.11,7.73-1,8.47-6.94-4-1.23-10.19-5-4.94-8.65,1.66-1.16,5.42-1.83,6.09-3.94s-.83-2.19-1.82-3.84c-3.56-5.91,4.76-6.39,6.25-10.82.64-1.9,1-6.58.3-8.4"/><path class="cls-5" d="M362.2,253.9c3.23,1.23,5,5.22,5.49,8.39.43,2.77-.38,3.31-1.63,5.49"/><line class="cls-5" x1="281.95" y1="117.91" x2="318.06" y2="188.57"/><path class="cls-5" d="M317.53,151.94c5.58-.12,14.34.88,12.54,8.94-1.11,5-7.64,5.73-11.75,7.73,3-1.4,3.83.47,6.62,1.11,3,.7,15.64,3.73,18,.67,3.44-4.41-3.86-11.82-5.26-15.29-2.95-7.31,5.52-11.69,11.17-6.72,1-6.28,12.32-21.44,17.56-11.33,2,3.84.32,10.71-2.51,13.78C380.4,146,382,164.34,366.18,165c.34,2.64,1.48,5.05,1.87,7.68,9.62.71,20.15-.92,29.95-1.18-4.16-3.28-9-9.54-4.11-13.85,2.22-2,8.51-3,9.7.2-2.91-9.16,8.39-21.88,18.06-16.17,7.77,4.59,1.06,14.68-5.06,16.86,5.41-.26,16.52.33,13.16,8.81-2.21,5.57-12.84,6.21-18,6,6.73,7.74,24.65,15.9,32.76,5.9-7.86-5.29-2.37-16.87,6.7-13.11-1.39-1-3.44-5.57-3.13-8.62,1-9.78,16.72-10.58,23.78-8.16,10.89,3.75,6.86,12.73-1.48,17.39,3,.4,8.45,7.31,7.08,12-1.67,5.66-11.54,7.08-16.45,7.78,6.55,5.25,17.73,14.53,26,5.49,5.44-6-1-9.88-1.65-16.78,3.65-1.72,8.72-1.2,10.76,2.4-.65-5.38-.47-11.29,3.69-15.38,3.52-3.46,11.72-6.18,15.45-1.58,3.91,4.8.36,11.64-3.9,14.92,5.57-3.92,9.38,3.44,8.73,8.5-.81,6.35-6.62,8-10.67,11.67,4.59,2.74,10.9,3.09,16.25,3.25-.18-5.87,1.35-12.51,5.32-17s9.54-2.43,13.18-5.61c2.32-2,.44-4.61,2.16-6.76,3.17-4,9.28-1.88,13-5.6,4.42-4.4,7.39-12.92,10.54-18.38L582,124.55"/><path class="cls-5" d="M354.11,154.75c-4.18,0-9.48-2-11.07,3.23-2,6.47,4.43,8,9.51,8C364.94,166.08,364.9,152.15,354.11,154.75Z"/><path class="cls-5" d="M407.56,162c-2.05-.9-3.93,1.76-4.7,3.74-2,5.21,2.56,5.19,6.76,5.47,3.22.21,7.86,1,7-3.41-.57-2.82-4.05-5.08-6.71-5.14"/><path class="cls-5" d="M457.37,174.87c-.75-4.38-12.61,2.5-4.66,6.66,13.14,6.89,5.13-15.28.05-6.33"/><path class="cls-5" d="M507.85,179.16c-3.3,0-8.3-1.19-10.52,2-3.13,4.48,2.29,8.08,6.14,8.75,8.72,1.51,12.89-17,2.73-13.71"/><path class="cls-5" d="M318.81,178.83c19.86,0,39.7-.31,59.55-.33,6.56,0,13.12-.62,19.37,1.5,3.14,1.07,3.32,1.85,5.86,3.92,4.63,3.76,11.81,5.25,17.22,7.44a66.47,66.47,0,0,0,12.43,4.15,44.85,44.85,0,0,0,6.82.81c5.07.17,9.16,1.13,14.2,2.26,10.75,2.42,20,2.81,30.9,2.34,6.25-.26,12.57-2.31,18.81-1.59,5.28.61,8.79,3.31,13.2,5.66,2,1.08,4.82,1.85,6.85.89"/><line class="cls-5" x1="530.99" y1="213.8" x2="580.24" y2="127.64"/><line class="cls-5" x1="130.02" y1="462.55" x2="282.48" y2="371.07"/><path class="cls-5" d="M163.06,437c-.46-2.39-2.24-4.82-3.48-6.95-4.75-8.17-9.79-16.25-14-24.73-2.73-5.54-5.19-11.2-8-16.71-.82-1.61-2-3.25-2.11-5.09,6.37-4.05,11.12,1.23,14.44,6.23a101.39,101.39,0,0,0,7.72,10.34c1.11,1.29,2.32,2.23,2.63,3.86"/><path class="cls-5" d="M149.47,386c.11-5.21-5.4-23.59.33-26,6.88-2.9,11.07,10.87,12.48,14.74,2.27,6.26,4.55,13.39,8.2,19"/><path class="cls-5" d="M153.8,361.9c0-2,2.37-4.16,3.88-5.31,3.49-2.66,6.61-2.85,9.53.33,4.82,5.25,8.59,14.08,11.86,20.34,1.45,2.78,3.07,5.61,4.38,8.42"/><path class="cls-5" d="M170.48,357.57c1.72-6.13,12.06-1.47,14.69,1A32.34,32.34,0,0,1,194,374.25"/><path class="cls-5" d="M174.8,410.08c5,.21,10.57-1.21,14.35-4.47,4-3.42,8.16-11.41,7.89-16.84-.33-6.61,10.44-24.35,15.2-14,4.66,10.16,5.18,22.46,3.95,33.47"/><line class="cls-5" x1="349.56" y1="395.33" x2="361.02" y2="419.55"/><line class="cls-5" x1="365.12" y1="395.33" x2="372.32" y2="412.77"/><path class="cls-5" d="M290.47,390.53a87.93,87.93,0,0,1-1.51,18c4.43.56,10-.22,14.11,1.61.18-5.75,1.37-12.49,3.91-17.77C301,392,295.88,388.18,290.47,390.53Z"/><path class="cls-5" d="M306.45,422.79c0,4.3,1.19,11.46-1.42,15.09,3.51-.47,7.32,2.52,10.41,3.92.24-5.59.2-16.39,6.33-19.3-3.86-1.35-7.46-3.89-11.4-4.83"/><path class="cls-5" d="M318.2,451.13c-1.32,4.31-4.34,8.39-6.93,12,4.85,2.47,7.84,7.68,12.06,11,1.48-1.7,2.14-4.6,3.08-6.75.75-1.7,4.18-6.12,4.15-7.94C330.49,455.71,321.1,450.41,318.2,451.13Z"/><path class="cls-5" d="M327.85,483.09c1.38,2.73-3.78,9.64-5.44,12.07,4.84,1.61,9,10.1,12.48,2.62a9.78,9.78,0,0,0,.5-7C334.13,487.2,330.83,487.09,327.85,483.09Z"/><path class="cls-5" d="M336.6,514.75c-1.78,1.49-4.23,4.63-4.86,6.91,1.93.37,4.13.5,5.72,1.47a7.65,7.65,0,0,0-2.07-5.67"/><path class="cls-5" d="M335.69,542.18a10,10,0,0,0-.9,4.22"/><path class="cls-5" d="M336.6,568.11v1.81"/><path class="cls-5" d="M376.58,391c-.43,6.53,3.27,16.24,6.72,21.77"/><path class="cls-5" d="M554.91,374.55H441a178.28,178.28,0,0,1-75.9,62.58"/><line class="cls-5" x1="130.02" y1="478.36" x2="254.02" y2="427.55"/><line class="cls-5" x1="130.02" y1="488.52" x2="267.02" y2="439.55"/><polygon class="cls-5" points="278.61 491.95 233.02 553.55 286.02 614.55 278.61 491.95"/><polygon class="cls-5" points="273.02 532.55 248.12 544.29 273.02 587.26 273.02 532.55"/><path class="cls-5" d="M130,532.55a102.18,102.18,0,0,0,50-56"/><path class="cls-5" d="M130,542.18a228.27,228.27,0,0,0,39-35.63,227.22,227.22,0,0,0,22-30"/><path class="cls-5" d="M130,556.55a256.51,256.51,0,0,0,47-41,256.07,256.07,0,0,0,34-48"/><path class="cls-5" d="M132,569.92A259.43,259.43,0,0,0,189,522.55a259.25,259.25,0,0,0,42-63"/><path class="cls-5" d="M130,609a324.62,324.62,0,0,0,81-69.21,324.38,324.38,0,0,0,52-86.28"/><path class="cls-5" d="M130,622.11a303.4,303.4,0,0,0,96-75.56,302.62,302.62,0,0,0,52-89"/><path class="cls-5" d="M244.73,399.94c14.43,17.73,58.52,76.49,59.29,162.61,1,109.13-68.33,178.72-81,191"/><path class="cls-5" d="M257.8,395.33c15.35,20.21,54.09,76.84,56.22,158.22,2.85,109-62.07,181.18-76,196"/><path class="cls-5" d="M267,391c17.93,24.18,46.49,70,55,133.52,16.74,124.89-57.64,216.9-72,234"/><line class="cls-5" x1="180.02" y1="598.95" x2="257.02" y2="702.55"/><line class="cls-5" x1="152.02" y1="617.55" x2="233.02" y2="729.77"/><line class="cls-5" x1="145.69" y1="622.11" x2="229.02" y2="738.55"/><line class="cls-5" x1="187.35" y1="593.21" x2="263.02" y2="692.76"/><line class="cls-5" x1="218.52" y1="569.92" x2="278.02" y2="646.9"/><line class="cls-5" x1="225.19" y1="559.91" x2="287.24" y2="642.99"/><path class="cls-5" d="M201.46,589.57c-3.5,22.22,37.36,17.39,43.21,35.57,1.56,4.85,2.2,9.27-2.14,12.41-3.35,2.43-16.28,4.37-15-2.56a9.86,9.86,0,0,1,6.75-.08"/><path class="cls-5" d="M221.26,602.07c3.22-1.93,2.84-6.87,2.53-10.23-2.26-.72-3.79.45-3.57,2.94"/><path class="cls-5" d="M247.84,628.65c5.21,8.8,4.35,19.12,4.69,28.9.25,7,2.47,13.57,10.92,12.08,8-1.41,14.94-7.9,9.21-15.73-7.1-9.7-10.29,3.47-6.05,5.51"/><path class="cls-5" d="M361,425.37a139.63,139.63,0,0,0,71-57.82"/><line class="cls-5" x1="440.54" y1="361.77" x2="598.81" y2="361.77"/><path class="cls-5" d="M485,518.94a232.37,232.37,0,0,1,63-134.39"/><path class="cls-5" d="M371,464.55a277,277,0,0,0,85-56h40l-40,89,26,32"/><line class="cls-5" x1="372.32" y1="495.58" x2="451.65" y2="495.58"/><path class="cls-5" d="M321,397.55a336.52,336.52,0,0,1,28,192"/><path class="cls-5" d="M335.69,399.94A308.69,308.69,0,0,1,360,588.55"/><path class="cls-5" d="M392,554.89c-.2-3.78-1.2-7.58-1.72-11.34-.3-2.26-.34-4.66-1.41-6.72,5.37-.37,11.57,1.95,17,2.47,4,.39,8,.28,11.93.47.22,4.88.18,9.92,0,14.81-16.24.95-32.09-2.29-47.79,3-1.07,4.39-.36,9.66-.33,14.12,0,2.91-.32,6.65.58,9.47,1.82.17,3.73-.06,5.58,0,2.47.1,6.55,1.74,9,.82,3.27-1.25,3.75-8.39,4.26-11.32a97.25,97.25,0,0,0,1.64-12.32c-.09,5.26,0,10.63-.32,15.89,7.1,1.13,14.46,10.14,22.09,7.44.19,3.44,0,6.93,0,10.38-8.84.88-17.48-2.62-26.38-2.6,1.28-3.58,5.38-8.61,5.27-12.47,13.09-.21,26.52-1.31,39.56-2.44,3.1-.26,2.94-.27,4-2.8,1.47-3.52,2.2-14.33-1.71-16.08-3.67-1.64-10,.2-13.31-2,.14,5.95-.15,11.88.28,17.81.11,1.42,0,4.19.54,5.18"/><polyline class="cls-5" points="130.02 692.76 201.24 770.56 215.39 770.56"/><path class="cls-5" d="M457.86,879.89a51.22,51.22,0,0,1-12.32,1.8c-7.21.13-12.3-1.78-18.54-5.26-3.86-2.15-8.28-4.45-10.63-8.26,2-.2,4.1,0,6.09,0a130.93,130.93,0,0,0,22.15-2.45c3.82-.67,10.55-.94,13.72-3.25"/><path class="cls-5" d="M442.16,865.78c2.13,1.93,8.14,12,3.07,13.89"/><path class="cls-5" d="M460.45,905.91a22.47,22.47,0,0,1-3.1,1.17c-4.27,1.23-9.48.76-13.9.68-8.82-.15-20.05-3-27.13-8.44-3.93-3-5.87-5.08-5.65-10,1.57-.08,2.84,1.17,4.13,2a91.11,91.11,0,0,0,11.62,6.69,66.31,66.31,0,0,0,21.65,6c3.3.29,7.45.55,10.61-.43,1.24-.38,2.23-1.16,3.49-1.27C462.37,904.33,460.51,907.05,460.45,905.91Z"/><path class="cls-5" d="M477.4,915.47c0-9.6-1.69-19-2.06-28.59-.14-3.86-.66-8.45,1.05-12.06s4.89-7,7.1-10.32c3.45-5.18,7.87-9.25,8.18-15.76.22-4.53,1.08-11.39-3.95-13.75-2.13-1-8.4-1.17-10.58-.06-2.57,1.3-4.66,9.54-9,7.06-1.54-.87-2.3-4.19-3.8-5.53-1.8-1.59-3.51-1.84-5.86-1.81-4.13.06-6.66,1.87-6.48,6.35"/><path class="cls-5" d="M465.56,822c-1.77,0-3.78.33-5.46-.18-3.06-.93-5.53-4-8.4-5.5-7.86-4-16.28-5.06-22.62,1.8-2.73,3-6.89,8-3.73,11.83,1,1.21,3.42,2.73,4.61,1.23"/><path class="cls-5" d="M474.12,811.89c-6.72,0-13.36-.45-19.27-4-2.38-1.45-6.8-3.9-6.27-7.28"/><path class="cls-5" d="M479.47,828.3c-4.2.12-3.06-9.82-3.06-12.37"/><path class="cls-5" d="M475.36,801.53c1.44-3.41,2.65-10.84-.53-13.64"/><path class="cls-5" d="M275.63,894.53c13.8,0,27.62-.37,41.42-.19,10.28.14,20.16,1.86,30.32,3.08,7,.83,14.13.77,20.85,3,5.84,1.9,11.75,4.79,17.35,7.34a108.1,108.1,0,0,0,31.24,9.07c7.84,1.09,15.29,2.42,23.26,2,4.66-.27,9.28-1.36,14-1,6.14.52,12.22,2.92,18.45,2.59,1.88.49,5.83,2,6.2,4,.68,3.69-1.17,4.13-4.81,5.88-16.11,7.74-39.19,3.85-56.24,2.14-16.06-1.62-31.72-8.62-47.48-12.29-4.66-1.08-8.66-3.76-13.3-5-7.07-1.89-14.62-1.56-21.83-2.78-10.05-1.69-20-3.92-29.93-5.45-8.54-1.31-15.49.44-23.93.82-3.42.16-5.54.59-6.87-3.61C273.12,900.33,271.69,894.54,275.63,894.53Z"/><path class="cls-5" d="M274.36,911.63c-1,7.13,6.93,8.59,12.3,9.27,23.55,3,47.56.5,71.22,4.11,14.75,2.26,26,11.54,40,16.75,14.65,5.46,29.23,9,44.81,9.38,13.66.34,33.91,2.07,45.8-6.48,9.16-6.58-9.13-8.39-13.79-8.51"/><path class="cls-5" d="M503,766.86c-.1,5.13,0,9,5.38,11.09,5.81,2.22,10.3-.7,9.17-7.59-1.47-9-15.5-7.25-21.56-4.46-9.41,4.34-13.27,13.3-19.43,20.48"/><path class="cls-5" d="M495.53,772.26c-1.13,9.74,9.29,15.75,17.81,14.91,11.22-1.09,18.92-16.7,10.33-25.1-8.11-7.94-22.44-6.36-31.82-1.89-7.63,3.64-21.44,11.37-24,20.42"/><path class="cls-5" d="M513.69,754.42c-9.5-10.24-32,.69-40.69,7.1-5.64,4.16-12.21,9.41-16.29,15.19-1.9,2.7-2.47,6.77-4.2,8.9"/><path class="cls-5" d="M499.6,747c-3.76-.59-7.18-1.4-11.11-1.15-9.61.61-19,7.22-26.9,12.33a78.53,78.53,0,0,0-18.22,16.66c-1.91,2.3-4,4.44-4.52,7.48"/><path class="cls-5" d="M479.74,745.4c-4.4-1.27-9.39-3.17-14-2.45-6.33,1-13.69,8.19-17.8,13-8.32,9.82-12.89,22.77-21.45,32.18"/><path class="cls-5" d="M456.56,744.62c-9.17-4.64-17.92,5.51-23.35,11.84-7.87,9.17-16.61,19.72-22.08,30.48"/><path class="cls-5" d="M442.9,743.41c-14.8-.1-28.67,10.78-38.25,21.61-2.71,3.06-3.62,8.41-6.38,10.78"/><path class="cls-5" d="M376.38,792c5.69,1.09,13.8,2.58,13.66-6-.13-8.34-14.39-6.61-18.53-2.33-6,6.22-8.47,23.51,2.67,24.56,13.81,1.31,26.28-11.55,22.67-25.51-2.14-8.28-15.5-15.18-23.84-12.62-3.94,1.22-6.75,5.89-7.82,9.59-3.13,10.8-2.92,24.57,0,35.19,2.76,10,3.83,20.32,7.49,30,3.08,8.19,6.89,16.18,10.53,24.15,5,10.87,9.21,22.19,10.38,33.85"/><path class="cls-5" d="M278.92,884.52c-10.57-16.85-16.72-38.7-21.93-57.88a105.27,105.27,0,0,1-3.52-30.39c.15-6.63.64-15.4,3.26-21.36"/><path class="cls-5" d="M288.45,887.8c-.66-7.49-4.46-16.49-7.06-23.6-2.69-7.36-7.42-12.33-11.65-18.73a43.1,43.1,0,0,1-7-30.35c1.53-10.39,3-20.7,3.81-31.15.32-4.06,1.63-10.76,6.27-12"/><path class="cls-5" d="M297.45,889.78c-.65-7.49-4.46-16.49-7.06-23.6-2.69-7.36-7.42-12.34-11.64-18.73a43.11,43.11,0,0,1-7-30.35c1.54-10.4,3-20.7,3.82-31.15.32-4.06,1.63-10.76,6.27-12"/><path class="cls-5" d="M310.45,889.75c-.65-7.49-4.46-16.49-7.06-23.6-2.69-7.37-7.42-12.34-11.64-18.73a43.11,43.11,0,0,1-7-30.35c1.54-10.4,3-20.7,3.82-31.15.32-4.06,1.63-10.76,6.27-12"/><path class="cls-5" d="M319.45,887.73c-.66-7.49-4.46-16.49-7.06-23.6-2.69-7.37-7.42-12.34-11.65-18.73a43.11,43.11,0,0,1-7-30.36c1.53-10.39,3-20.69,3.81-31.15.32-4,1.63-10.75,6.27-12"/><path class="cls-5" d="M332.46,892.7c-.65-7.49-4.46-16.49-7.06-23.6-2.69-7.37-7.42-12.34-11.65-18.73a43.17,43.17,0,0,1-7-30.36c1.53-10.39,3-20.69,3.81-31.15.33-4.05,1.64-10.75,6.27-12"/><path class="cls-5" d="M340.46,892.68c-.65-7.49-4.46-16.49-7.06-23.6-2.69-7.37-7.42-12.34-11.65-18.73a43.15,43.15,0,0,1-7-30.35c1.53-10.4,3-20.7,3.81-31.15.33-4.06,1.64-10.76,6.27-12"/><path class="cls-5" d="M349.46,892.66c-.65-7.49-4.46-16.49-7.06-23.6-2.69-7.37-7.42-12.34-11.65-18.73a43.17,43.17,0,0,1-7-30.36c1.53-10.39,3-20.69,3.81-31.15.33-4.05,1.64-10.75,6.27-12"/><path class="cls-5" d="M360.46,892.63c-.65-7.49-4.46-16.49-7.06-23.6-2.69-7.36-7.42-12.33-11.65-18.73a43.15,43.15,0,0,1-7-30.35c1.53-10.39,3-20.7,3.81-31.15.33-4.06,1.64-10.76,6.27-12"/><path class="cls-5" d="M369.47,896.61c-.66-7.73-4.46-17-7.06-24.37-2.7-7.6-7.43-12.74-11.65-19.34a45.73,45.73,0,0,1-7-31.35c1.54-10.73,3-21.36,3.81-32.16.33-4.19,1.64-11.11,6.27-12.4"/><path class="cls-5" d="M380.47,896.59c-.66-7.74-4.46-17-7.06-24.38-2.7-7.6-7.43-12.73-11.65-19.34a45.72,45.72,0,0,1-7-31.34c1.54-10.73,3-21.37,3.81-32.17.33-4.18,1.64-11.11,6.27-12.4"/><polyline class="cls-5" points="125.67 992.52 170.57 949.42 168.09 742.42"/><polyline class="cls-5" points="125.63 972.57 162.55 940.43 157.06 728.45"/><path class="cls-5" d="M213.6,961.32c4.57-4.86,30.63-33.47,27.82-76.07-2.16-32.82-20.16-54.35-26.14-60.94"/><path class="cls-5" d="M208.57,949.33c4.25-4.73,22.3-25.9,21.87-58.05-.4-30-16.65-49.84-21.13-54.95"/><path class="cls-5" d="M202.55,939.34a85,85,0,0,0,.78-92"/><path class="cls-5" d="M211.2,960.83c.87-10.34-9.08-24-15.31-31.82-3.36-4.24-7.78-8-11.43-11.92"/><path class="cls-5" d="M217.4,827c0,4.27,0,7-2.7,10.57-4.56,6-9.35,12-14.47,17.5-3.21,3.43-9.93,12.29-15.29,12.55,6,16.34,5.72,32,.41,48.54-4.17.28-8.92-4.17-12.74-5.59"/><path class="cls-5" d="M184.34,865.89c-2.61,3.83-9.37,2.56-11.53,6.24"/><path class="cls-5" d="M204.77,868.8c-1.49,1.12-3.59,2.33-2.88,4.17.81,2.09,6.54,4.39,8.34,5.44,2,1.17,4.44,2.05,5.67,4-4.57,2.13-7.73,1-8.46,7,4,1.22,10.21,5,5,8.63-1.65,1.17-5.41,1.85-6.08,4s.84,2.18,1.83,3.83c3.58,5.91-4.74,6.41-6.22,10.83-.64,1.91-1,6.59-.28,8.41"/><path class="cls-5" d="M444.23,879.42c-3.23-1.21-5-5.2-5.51-8.37-.44-2.77.37-3.31,1.62-5.49"/><line class="cls-5" x1="524.8" y1="1015.22" x2="488.52" y2="944.66"/><path class="cls-5" d="M489.14,981.28c-5.58.14-14.34-.84-12.56-8.91,1.1-5,7.63-5.75,11.73-7.75-3,1.4-3.83-.46-6.62-1.1-3-.69-15.65-3.69-18-.63-3.42,4.42,3.89,11.82,5.3,15.28,3,7.3-5.49,11.7-11.15,6.75-.95,6.28-12.27,21.47-17.54,11.36-2-3.82-.34-10.7,2.48-13.78-16.48,4.9-18.09-13.47-2.3-14.14-.34-2.63-1.49-5-1.89-7.67-9.62-.68-20.15,1-29.94,1.25,4.16,3.27,9,9.52,4.14,13.85-2.22,2-8.51,3.05-9.71-.18,2.94,9.14-8.34,21.9-18,16.21-7.78-4.57-1.09-14.68,5-16.87-5.41.27-16.52-.29-13.18-8.79,2.19-5.57,12.82-6.24,17.95-6-6.75-7.72-24.69-15.84-32.77-5.81,7.87,5.26,2.41,16.86-6.67,13.12,1.39,1,3.45,5.56,3.15,8.61-1,9.78-16.69,10.62-23.76,8.21-10.9-3.72-6.89-12.71,1.43-17.39-3.05-.39-8.46-7.29-7.1-11.94,1.65-5.66,11.52-7.11,16.42-7.82-6.55-5.24-17.75-14.48-26-5.43-5.43,6,1,9.88,1.68,16.78-3.64,1.73-8.71,1.22-10.76-2.38.66,5.38.5,11.29-3.65,15.39-3.51,3.47-11.71,6.21-15.45,1.62-3.92-4.79-.39-11.64,3.86-14.93-5.56,3.93-9.38-3.42-8.75-8.48.8-6.35,6.61-8,10.65-11.7-4.6-2.72-10.91-3.06-16.26-3.2.19,5.86-1.32,12.5-5.28,17s-9.53,2.46-13.16,5.64c-2.32,2-.44,4.61-2.15,6.77-3.16,4-9.28,1.9-13,5.63-4.42,4.42-7.37,12.94-10.5,18.41l-12.1,21.09"/><path class="cls-5" d="M452.55,978.56c4.19,0,9.49,2,11.07-3.25,1.94-6.48-4.45-8-9.54-8C441.7,967.25,441.77,981.18,452.55,978.56Z"/><path class="cls-5" d="M399.09,971.43c2.05.9,3.92-1.76,4.69-3.75,2-5.21-2.57-5.18-6.77-5.45-3.22-.2-7.87-1-7,3.42.58,2.82,4.07,5.08,6.73,5.13"/><path class="cls-5" d="M349.24,958.68c.76,4.38,12.61-2.52,4.65-6.67-13.15-6.86-5.1,15.29,0,6.33"/><path class="cls-5" d="M298.76,954.51c3.3,0,8.3,1.17,10.51-2,3.12-4.49-2.31-8.07-6.16-8.73-8.72-1.49-12.85,17-2.7,13.72"/><path class="cls-5" d="M487.79,954.4c-19.85,0-39.69.4-59.54.47-6.57,0-13.12.65-19.38-1.46-3.13-1.06-3.32-1.84-5.87-3.9-4.63-3.75-11.82-5.23-17.23-7.4A66.74,66.74,0,0,0,373.33,938a44.8,44.8,0,0,0-6.82-.78A72.44,72.44,0,0,1,352.3,935c-10.76-2.39-20-2.76-30.9-2.27-6.25.29-12.56,2.34-18.81,1.64-5.29-.6-8.8-3.29-13.21-5.63-2-1.07-4.83-1.84-6.85-.87"/><line class="cls-5" x1="275.54" y1="919.92" x2="226.48" y2="1006.2"/><line class="cls-5" x1="675.92" y1="670.23" x2="523.67" y2="762.07"/><path class="cls-5" d="M642.94,695.9c.47,2.39,2.25,4.82,3.5,7,4.77,8.15,9.82,16.22,14,24.69,2.75,5.53,5.22,11.19,8,16.69.83,1.61,2,3.25,2.13,5.09-6.37,4.06-11.13-1.2-14.46-6.2a100.32,100.32,0,0,0-7.75-10.32c-1.1-1.29-2.32-2.23-2.63-3.85"/><path class="cls-5" d="M656.65,746.84c-.1,5.21,5.46,23.58-.27,26-6.87,2.91-11.1-10.84-12.51-14.71-2.29-6.26-4.59-13.38-8.24-19"/><path class="cls-5" d="M652.38,770.94c0,2-2.36,4.16-3.87,5.32-3.48,2.67-6.6,2.86-9.53-.31-4.83-5.24-8.62-14.06-11.91-20.32-1.46-2.77-3.08-5.59-4.4-8.4"/><path class="cls-5" d="M635.71,775.31c-1.71,6.14-12.06,1.49-14.7-.94a32.36,32.36,0,0,1-8.81-15.69"/><path class="cls-5" d="M631.26,722.81c-5-.2-10.56,1.24-14.34,4.5-4,3.44-8.13,11.43-7.85,16.86.34,6.61-10.38,24.38-15.16,14-4.69-10.15-5.23-22.44-4-33.45"/><line class="cls-5" x1="456.54" y1="737.97" x2="445.02" y2="713.77"/><line class="cls-5" x1="440.98" y1="738.01" x2="433.74" y2="720.58"/><path class="cls-5" d="M515.64,742.63a88.77,88.77,0,0,1,1.46-18c-4.42-.54-10,.25-14.1-1.57-.18,5.75-1.35,12.49-3.88,17.78C505.14,741.24,510.23,745,515.64,742.63Z"/><path class="cls-5" d="M499.59,710.41c0-4.31-1.23-11.46,1.38-15.1-3.51.48-7.32-2.5-10.42-3.89-.23,5.59-.17,16.39-6.28,19.32,3.86,1.33,7.46,3.87,11.41,4.8"/><path class="cls-5" d="M487.76,682.09c1.32-4.31,4.33-8.39,6.91-12-4.86-2.46-7.86-7.67-12.08-11-1.48,1.7-2.13,4.61-3.07,6.75-.74,1.71-4.17,6.13-4.13,8C475.47,677.54,484.87,682.83,487.76,682.09Z"/><path class="cls-5" d="M478,650.16c-1.38-2.73,3.76-9.65,5.41-12.08-4.84-1.6-9.07-10.08-12.48-2.59a9.78,9.78,0,0,0-.49,7C471.76,646.07,475.05,646.17,478,650.16Z"/><path class="cls-5" d="M469.22,618.52c1.78-1.49,4.22-4.64,4.84-6.92-1.92-.37-4.13-.49-5.72-1.46a7.62,7.62,0,0,0,2.08,5.66"/><path class="cls-5" d="M470.06,591.08a10,10,0,0,0,.9-4.22"/><path class="cls-5" d="M469.1,565.16v-1.81"/><path class="cls-5" d="M429.53,742.33c.41-6.53-3.31-16.23-6.78-21.75"/><path class="cls-5" d="M251.24,759.23,365.13,759a178.21,178.21,0,0,1,75.76-62.76"/><line class="cls-5" x1="675.88" y1="654.43" x2="552" y2="705.52"/><line class="cls-5" x1="675.86" y1="644.26" x2="538.98" y2="693.55"/><polygon class="cls-5" points="527.26 641.18 572.71 579.47 519.57 518.6 527.26 641.18"/><polygon class="cls-5" points="532.76 600.57 557.63 588.77 532.63 545.86 532.76 600.57"/><path class="cls-5" d="M675.76,600.23a102.09,102.09,0,0,0-49.87,56.12"/><path class="cls-5" d="M675.73,590.6a228.1,228.1,0,0,0-60.84,65.77"/><path class="cls-5" d="M675.7,576.23a256.16,256.16,0,0,0-80.79,89.19"/><path class="cls-5" d="M673.73,562.87a259.31,259.31,0,0,0-98.8,110.6"/><path class="cls-5" d="M675.58,523.74a324.06,324.06,0,0,0-132.64,155.8"/><path class="cls-5" d="M675.55,510.68a301.91,301.91,0,0,0-147.62,164.9"/><path class="cls-5" d="M561.36,733.11c-14.47-17.69-58.7-76.35-59.67-162.47-1.24-109.13,67.91-178.88,80.55-191.19"/><path class="cls-5" d="M548.3,737.76C532.9,717.58,494,661,491.71,579.66c-3.11-109,61.64-181.32,75.54-196.18"/><path class="cls-5" d="M539.09,742.07c-18-24.13-46.65-69.92-55.31-133.39-17-124.85,57.13-217,71.45-234.17"/><line class="cls-5" x1="625.6" y1="533.95" x2="548.36" y2="430.53"/><line class="cls-5" x1="653.56" y1="515.28" x2="572.29" y2="403.26"/><line class="cls-5" x1="659.88" y1="510.71" x2="576.27" y2="394.46"/><line class="cls-5" x1="618.28" y1="539.7" x2="542.38" y2="440.34"/><line class="cls-5" x1="587.17" y1="563.07" x2="527.49" y2="486.24"/><line class="cls-5" x1="580.53" y1="573.1" x2="518.28" y2="490.17"/><path class="cls-5" d="M604.19,543.39c3.44-22.24-37.41-17.31-43.3-35.48-1.57-4.84-2.23-9.27,2.11-12.41,3.35-2.44,16.27-4.41,15,2.53a9.89,9.89,0,0,1-6.74.09"/><path class="cls-5" d="M584.35,530.92c-3.21,1.94-2.82,6.88-2.5,10.25,2.26.71,3.78-.46,3.56-2.95"/><path class="cls-5" d="M557.71,504.41c-5.23-8.79-4.4-19.11-4.76-28.89-.26-7-2.5-13.56-10.94-12-8,1.42-14.93,7.93-9.18,15.75,7.12,9.68,10.28-3.5,6-5.52"/><path class="cls-5" d="M445,708a139.63,139.63,0,0,0-70.87,58"/><line class="cls-5" x1="365.64" y1="771.74" x2="207.37" y2="772.11"/><path class="cls-5" d="M320.84,614.68A232.29,232.29,0,0,1,258.1,749.21"/><path class="cls-5" d="M434.92,668.8A276.55,276.55,0,0,0,350.05,725l-40,.09L349.84,636l-26.08-31.94"/><line class="cls-5" x1="433.54" y1="637.77" x2="354.22" y2="637.96"/><path class="cls-5" d="M485.07,735.68a336.72,336.72,0,0,1-28.45-191.94"/><path class="cls-5" d="M470.4,733.32a308.69,308.69,0,0,1-24.77-188.55"/><path class="cls-5" d="M413.76,578.51c.21,3.78,1.23,7.58,1.75,11.34.31,2.25.36,4.66,1.43,6.71-5.37.38-11.57-1.92-17-2.43-4-.38-8-.26-11.93-.44-.23-4.88-.2-9.92,0-14.81,16.25-1,32.11,2.21,47.79-3.12,1.06-4.38.33-9.65.29-14.11,0-2.91.31-6.66-.6-9.47-1.82-.17-3.73.07-5.57,0-2.48-.09-6.57-1.72-9-.8-3.27,1.26-3.73,8.4-4.23,11.33A95.51,95.51,0,0,0,415.08,575c.07-5.27,0-10.63.28-15.89-7.1-1.11-14.48-10.11-22.11-7.39-.19-3.45,0-6.94-.06-10.39,8.85-.9,17.5,2.58,26.39,2.54-1.27,3.58-5.36,8.63-5.24,12.49-13.08.24-26.51,1.36-39.55,2.53-3.1.27-2.94.28-4,2.81-1.47,3.52-2.17,14.33,1.74,16.07,3.68,1.64,10-.21,13.32,2-.16-5.94.12-11.87-.33-17.81-.1-1.42,0-4.18-.54-5.18"/><polyline class="cls-5" points="675.38 440.02 603.97 362.39 589.83 362.43"/><rect class="cls-5" x="111.5" y="115" width="598" height="897"/></svg>