<svg id="Layer_1" data-name="Layer 1" xmlns="http://www.w3.org/2000/svg" viewBox="0 0 822 1122"><defs><style>.cls-1{font-size:165.39px;font-family:HelveticaNeue-Bold, Helvetica Neue;font-weight:700;}.cls-1,.cls-3{fill:#d89d70;}.cls-2{fill:#d6bd80;}</style></defs><text class="cls-1" transform="translate(30.75 153.81)">3</text><circle class="cls-2" cx="51.82" cy="59.49" r="8.91"/><circle class="cls-2" cx="72.16" cy="46.72" r="8.91"/><circle class="cls-2" cx="98.88" cy="54.35" r="8.91"/><circle class="cls-2" cx="101.44" cy="77.25" r="8.91"/><circle class="cls-2" cx="82.35" cy="92.53" r="8.91"/><circle class="cls-2" cx="106.52" cy="110.34" r="8.91"/><circle class="cls-2" cx="102.71" cy="134.52" r="8.91"/><circle class="cls-2" cx="81.08" cy="147.25" r="8.91"/><circle class="cls-2" cx="59.45" cy="140.89" r="8.91"/><circle class="cls-2" cx="46.72" cy="125.62" r="8.91"/><text class="cls-1" transform="matrix(-1, -0.01, 0.01, -1, 788.06, 976.16)">3</text><circle class="cls-2" cx="765.9" cy="1070.22" r="8.91"/><circle class="cls-2" cx="745.41" cy="1082.76" r="8.91"/><circle class="cls-2" cx="718.78" cy="1074.82" r="8.91"/><circle class="cls-2" cx="716.5" cy="1051.89" r="8.91"/><circle class="cls-2" cx="735.75" cy="1036.84" r="8.91"/><circle class="cls-2" cx="711.79" cy="1018.75" r="8.91"/><circle class="cls-2" cx="715.88" cy="994.61" r="8.91"/><circle class="cls-2" cx="737.66" cy="982.14" r="8.91"/><circle class="cls-2" cx="759.21" cy="988.74" r="8.91"/><circle class="cls-2" cx="771.76" cy="1004.16" r="8.91"/><path class="cls-3" d="M58.48,323.9c16.37-15.8,28.66-39.52,28.67-55.32,0,15.8,12.25,38.47,28.61,52.88"/><circle class="cls-3" cx="85.75" cy="220.2" r="32.19"/><circle class="cls-3" cx="56.59" cy="268.18" r="32.19"/><circle class="cls-3" cx="117.94" cy="268.18" r="32.19"/><ellipse class="cls-3" cx="86.96" cy="254.52" rx="9.11" ry="6.38"/><path class="cls-3" d="M761.05,808.1c-16.37,15.8-28.65,39.52-28.67,55.32,0-15.8-12.25-38.47-28.61-52.88"/><circle class="cls-3" cx="733.78" cy="911.8" r="32.19"/><circle class="cls-3" cx="762.94" cy="863.82" r="32.19"/><circle class="cls-3" cx="701.59" cy="863.82" r="32.19"/><ellipse class="cls-3" cx="732.57" cy="877.48" rx="9.11" ry="6.38"/><path class="cls-3" d="M334.75,405.61c31.39-30.32,54.95-75.79,55-106.1,0,30.31,23.47,73.78,54.86,101.41"/><circle class="cls-3" cx="387.04" cy="206.74" r="61.73"/><circle class="cls-3" cx="331.13" cy="298.76" r="61.73"/><circle class="cls-3" cx="448.77" cy="298.76" r="61.73"/><ellipse class="cls-3" cx="389.37" cy="272.55" rx="17.47" ry="12.23"/><path class="cls-3" d="M334.75,717.61c31.39-30.32,54.95-75.79,55-106.1,0,30.31,23.47,73.78,54.86,101.41"/><circle class="cls-3" cx="387.04" cy="518.74" r="61.73"/><circle class="cls-3" cx="331.13" cy="610.76" r="61.73"/><circle class="cls-3" cx="448.77" cy="610.76" r="61.73"/><ellipse class="cls-3" cx="389.37" cy="584.55" rx="17.47" ry="12.23"/><path class="cls-3" d="M337.75,1044.61c31.39-30.32,54.95-75.79,55-106.1,0,30.31,23.47,73.78,54.86,101.41"/><circle class="cls-3" cx="390.04" cy="845.74" r="61.73"/><circle class="cls-3" cx="334.13" cy="937.76" r="61.73"/><circle class="cls-3" cx="451.77" cy="937.76" r="61.73"/><ellipse class="cls-3" cx="392.37" cy="911.55" rx="17.47" ry="12.23"/></svg>