<svg id="Layer_1" data-name="Layer 1" xmlns="http://www.w3.org/2000/svg" viewBox="0 0 822 1122"><defs><style>.cls-1{font-size:163.68px;}.cls-1,.cls-3,.cls-4{fill:#6f9797;}.cls-1,.cls-3{font-family:HelveticaNeue-Bold, Helvetica Neue;font-weight:700;}.cls-2{fill:#d6bd80;}.cls-3{font-size:166.3px;}</style></defs><text class="cls-1" transform="translate(44.75 160.59)">2</text><circle class="cls-2" cx="118.24" cy="150.31" r="8.81"/><circle class="cls-2" cx="90.47" cy="150.32" r="8.81"/><circle class="cls-2" cx="64.02" cy="149.06" r="8.81"/><circle class="cls-2" cx="75.35" cy="127.66" r="8.81"/><circle class="cls-2" cx="95.49" cy="112.54" r="8.81"/><circle class="cls-2" cx="114.38" cy="96.17" r="8.81"/><circle class="cls-2" cx="119.43" cy="73.5" r="8.81"/><circle class="cls-2" cx="103.06" cy="54.61" r="8.81"/><circle class="cls-2" cx="81.65" cy="54.61" r="8.81"/><circle class="cls-2" cx="64.02" cy="69.72" r="8.81"/><text class="cls-3" transform="translate(789.2 982.67) rotate(-179.89)">2</text><circle class="cls-2" cx="714.49" cy="992.95" r="8.95"/><circle class="cls-2" cx="771.09" cy="994.24" r="8.95"/><circle class="cls-2" cx="742.95" cy="992.96" r="8.95"/><circle class="cls-2" cx="758.02" cy="1016.05" r="8.95"/><circle class="cls-2" cx="737.53" cy="1031.37" r="8.95"/><circle class="cls-2" cx="718.3" cy="1047.96" r="8.95"/><circle class="cls-2" cx="713.13" cy="1070.98" r="8.95"/><circle class="cls-2" cx="729.72" cy="1090.21" r="8.95"/><circle class="cls-2" cx="751.47" cy="1090.26" r="8.95"/><circle class="cls-2" cx="769.42" cy="1074.94" r="8.95"/><path class="cls-4" d="M377.82,235.11c-19.75-22.88-51.76-22.88-71.51,0h0c-19.75,22.87-19.75,60,0,82.85l12.25,14.19,71.51-82.86Z"/><path class="cls-4" d="M473.69,318.11c19.75-22.88,19.75-60,0-82.85h0c-19.75-22.88-51.76-22.88-71.51,0l-12.11,14,71.5,82.86Z"/><polygon class="cls-4" points="390.06 249.29 318.56 332.15 390.06 415 461.57 332.15 390.06 249.29"/><path class="cls-4" d="M75,209.84c-11.32-13.12-29.68-13.12-41,0h0C22.7,223,22.7,244.23,34,257.35l7,8.14,41-47.51Z"/><path class="cls-4" d="M130,257.44c11.32-13.12,11.32-34.39,0-47.51h0c-11.33-13.12-29.69-13.12-41,0l-7,8,41,47.51Z"/><polygon class="cls-4" points="82.05 217.98 41.05 265.49 82.05 313 123.06 265.49 82.05 217.98"/><path class="cls-4" d="M402,934.86c19.7,22.92,51.71,23,71.51.15h0c19.79-22.84,19.86-59.94.16-82.85l-12.21-14.22L389.8,920.65Z"/><path class="cls-4" d="M306.31,851.67c-19.79,22.84-19.86,59.93-.16,82.85h0c19.7,22.92,51.71,23,71.51.14l12.14-14-71.34-83Z"/><polygon class="cls-4" points="389.8 920.65 461.48 837.94 390.13 754.95 318.46 837.66 389.8 920.65"/></svg>