<svg id="Layer_1" data-name="Layer 1" xmlns="http://www.w3.org/2000/svg" viewBox="0 0 822 1122"><defs><style>.cls-1{font-size:162.57px;}.cls-1,.cls-3,.cls-4{fill:#6f9797;}.cls-1,.cls-3{font-family:HelveticaNeue-Bold, Helvetica Neue;font-weight:700;}.cls-2{fill:#d6bd80;}.cls-3{font-size:176.01px;}</style></defs><text class="cls-1" transform="translate(38.75 145.79)">A</text><circle class="cls-2" cx="94.71" cy="42.57" r="8.75"/><circle class="cls-2" cx="80.96" cy="62.82" r="8.75"/><circle class="cls-2" cx="72.2" cy="85.32" r="8.75"/><circle class="cls-2" cx="63.45" cy="108.34" r="8.75"/><circle class="cls-2" cx="55.96" cy="131.09" r="8.75"/><circle class="cls-2" cx="108.48" cy="62.82" r="8.75"/><circle class="cls-2" cx="116" cy="85.32" r="8.75"/><circle class="cls-2" cx="123.49" cy="108.34" r="8.75"/><circle class="cls-2" cx="133.49" cy="131.09" r="8.75"/><text class="cls-3" transform="translate(784.3 969.61) rotate(180)">A</text><circle class="cls-2" cx="723.71" cy="1081.36" r="9.48"/><circle class="cls-2" cx="738.61" cy="1059.44" r="9.48"/><circle class="cls-2" cx="748.08" cy="1035.08" r="9.48"/><circle class="cls-2" cx="757.56" cy="1010.16" r="9.48"/><circle class="cls-2" cx="765.66" cy="985.53" r="9.48"/><circle class="cls-2" cx="708.8" cy="1059.44" r="9.48"/><circle class="cls-2" cx="700.66" cy="1035.08" r="9.48"/><circle class="cls-2" cx="692.56" cy="1010.16" r="9.48"/><circle class="cls-2" cx="681.72" cy="985.53" r="9.48"/><path class="cls-4" d="M372.81,342.93c-52.91-61.31-138.71-61.31-191.62,0h0c-52.92,61.31-52.92,160.71,0,222L214,603,405.63,381Z"/><path class="cls-4" d="M629.72,565.36c52.92-61.31,52.92-160.71,0-222h0C576.81,282,491,282,438.1,343.34L405.63,381,597.26,603Z"/><polygon class="cls-4" points="405.63 380.95 214 602.98 405.63 825 597.26 602.98 405.63 380.95"/><path class="cls-4" d="M88.25,177.84c-11.32-13.12-29.68-13.12-41,0h0c-11.32,13.12-11.32,34.39,0,47.51l7,8.14,41-47.51Z"/><path class="cls-4" d="M143.23,225.44c11.32-13.12,11.32-34.39,0-47.51h0c-11.33-13.12-29.69-13.12-41,0l-7,8,41,47.51Z"/><polygon class="cls-4" points="95.27 185.98 54.27 233.49 95.27 281 136.28 233.49 95.27 185.98"/><path class="cls-4" d="M730.46,955.24c11.17,13.25,29.53,13.46,41,.47h0c11.47-13,11.72-34.26.54-47.51L765.09,900l-41.56,47Z"/><path class="cls-4" d="M676,907c-11.48,13-11.72,34.26-.55,47.51h0c11.17,13.25,29.53,13.46,41,.47l7-8-40.45-48Z"/><polygon class="cls-4" points="723.53 947.02 765.09 899.99 724.63 852 683.08 899.04 723.53 947.02"/></svg>