<svg id="Layer_1" data-name="Layer 1" xmlns="http://www.w3.org/2000/svg" viewBox="0 0 822 1122"><defs><style>.cls-1{font-size:165.39px;}.cls-1,.cls-3,.cls-4{fill:#6f9797;}.cls-1,.cls-3{font-family:HelveticaNeue-Bold, Helvetica Neue;font-weight:700;}.cls-2{fill:#d6bd80;}.cls-3{font-size:177.4px;}</style></defs><text class="cls-1" transform="translate(42.75 149.81)">4</text><circle class="cls-2" cx="106.2" cy="135.64" r="8.91"/><circle class="cls-2" cx="106.14" cy="112.71" r="8.91"/><circle class="cls-2" cx="106.14" cy="92.35" r="8.91"/><circle class="cls-2" cx="106.14" cy="70.71" r="8.91"/><circle class="cls-2" cx="104.86" cy="47.81" r="8.91"/><circle class="cls-2" cx="83.24" cy="112.69" r="8.91"/><circle class="cls-2" cx="57.79" cy="112.7" r="8.91"/><text class="cls-3" transform="matrix(-1, -0.01, 0.01, -1, 776.05, 958.46)">4</text><circle class="cls-2" cx="707.81" cy="972.87" r="9.55"/><circle class="cls-2" cx="707.6" cy="997.47" r="9.55"/><circle class="cls-2" cx="707.35" cy="1019.31" r="9.55"/><circle class="cls-2" cx="707.08" cy="1042.51" r="9.55"/><circle class="cls-2" cx="708.16" cy="1067.09" r="9.55"/><circle class="cls-2" cx="732.16" cy="997.78" r="9.55"/><ellipse class="cls-4" cx="218.5" cy="334.76" rx="102.94" ry="133.12"/><ellipse class="cls-4" cx="564.5" cy="334.76" rx="102.94" ry="133.12"/><ellipse class="cls-4" cx="588.5" cy="775.76" rx="102.94" ry="133.12"/><ellipse class="cls-4" cx="218.5" cy="775.76" rx="102.94" ry="133.12"/></svg>