<svg id="Layer_1" data-name="Layer 1" xmlns="http://www.w3.org/2000/svg" viewBox="0 0 822 1122"><defs><style>.cls-1{font-size:176.01px;font-family:HelveticaNeue-Bold, Helvetica Neue;font-weight:700;}.cls-1,.cls-3{fill:#d89d70;}.cls-2{fill:#d6bd80;}</style></defs><text class="cls-1" transform="translate(15.75 142.39)">9</text><circle class="cls-2" cx="39.17" cy="125.55" r="9.57"/><circle class="cls-2" cx="89.73" cy="120.09" r="9.57"/><circle class="cls-2" cx="97.94" cy="95.49" r="9.57"/><circle class="cls-2" cx="97.94" cy="69.52" r="9.57"/><circle class="cls-2" cx="92.47" cy="44.92" r="9.57"/><circle class="cls-2" cx="73.34" cy="28.51" r="9.57"/><circle class="cls-2" cx="48.74" cy="31.24" r="9.57"/><circle class="cls-2" cx="35.07" cy="50.38" r="9.57"/><circle class="cls-2" cx="35.07" cy="76.34" r="9.57"/><circle class="cls-2" cx="52.83" cy="91.38" r="9.57"/><circle class="cls-2" cx="65.13" cy="136.48" r="9.57"/><text class="cls-1" transform="matrix(-1, -0.01, 0.01, -1, 815.99, 991.78)">9</text><circle class="cls-2" cx="792.38" cy="1008.35" r="9.57"/><circle class="cls-2" cx="741.75" cy="1013.23" r="9.57"/><circle class="cls-2" cx="733.27" cy="1037.73" r="9.57"/><circle class="cls-2" cx="732.97" cy="1063.7" r="9.57"/><circle class="cls-2" cx="738.15" cy="1088.36" r="9.57"/><circle class="cls-2" cx="757.09" cy="1104.99" r="9.57"/><circle class="cls-2" cx="781.72" cy="1102.54" r="9.57"/><circle class="cls-2" cx="795.61" cy="1083.57" r="9.57"/><circle class="cls-2" cx="795.91" cy="1057.6" r="9.57"/><circle class="cls-2" cx="778.32" cy="1042.36" r="9.57"/><circle class="cls-2" cx="766.54" cy="997.12" r="9.57"/><path class="cls-3" d="M36.48,295.9c16.37-15.8,28.66-39.52,28.67-55.32,0,15.8,12.25,38.47,28.61,52.88"/><circle class="cls-3" cx="63.75" cy="192.2" r="32.19"/><circle class="cls-3" cx="34.59" cy="240.18" r="32.19"/><circle class="cls-3" cx="95.94" cy="240.18" r="32.19"/><ellipse class="cls-3" cx="64.96" cy="226.52" rx="9.11" ry="6.38"/><path class="cls-3" d="M787.05,847.1c-16.37,15.8-28.65,39.52-28.67,55.32,0-15.8-12.25-38.47-28.61-52.88"/><circle class="cls-3" cx="759.78" cy="950.8" r="32.19"/><circle class="cls-3" cx="788.94" cy="902.82" r="32.19"/><circle class="cls-3" cx="727.59" cy="902.82" r="32.19"/><ellipse class="cls-3" cx="758.57" cy="916.48" rx="9.11" ry="6.38"/><path class="cls-3" d="M200.71,353.61c24-23.22,42.1-58.05,42.12-81.28,0,23.23,18,56.52,42,77.7"/><circle class="cls-3" cx="240.77" cy="201.26" r="47.29"/><circle class="cls-3" cx="197.94" cy="271.75" r="47.29"/><circle class="cls-3" cx="288.06" cy="271.75" r="47.29"/><ellipse class="cls-3" cx="242.55" cy="251.68" rx="13.38" ry="9.37"/><path class="cls-3" d="M201.54,565.74c24-23.23,42.1-58.06,42.12-81.28,0,23.22,18,56.52,42,77.69"/><circle class="cls-3" cx="241.6" cy="413.38" r="47.29"/><circle class="cls-3" cx="198.76" cy="483.88" r="47.29"/><circle class="cls-3" cx="288.89" cy="483.88" r="47.29"/><ellipse class="cls-3" cx="243.38" cy="463.8" rx="13.38" ry="9.37"/><path class="cls-3" d="M199.05,777.29c24-23.22,42.1-58.06,42.13-81.28,0,23.22,18,56.52,42,77.69"/><circle class="cls-3" cx="239.11" cy="624.94" r="47.29"/><circle class="cls-3" cx="196.28" cy="695.43" r="47.29"/><circle class="cls-3" cx="286.4" cy="695.43" r="47.29"/><ellipse class="cls-3" cx="240.89" cy="675.35" rx="13.38" ry="9.37"/><path class="cls-3" d="M196.57,997.65c24-23.22,42.09-58.06,42.12-81.28,0,23.22,18,56.52,42,77.69"/><circle class="cls-3" cx="236.62" cy="845.3" r="47.29"/><circle class="cls-3" cx="193.79" cy="915.79" r="47.29"/><circle class="cls-3" cx="283.92" cy="915.79" r="47.29"/><ellipse class="cls-3" cx="238.41" cy="895.72" rx="13.38" ry="9.37"/><path class="cls-3" d="M551.37,989.91c24-23.23,42.1-58.06,42.13-81.29,0,23.23,18,56.53,42,77.7"/><circle class="cls-3" cx="591.43" cy="837.55" r="47.29"/><circle class="cls-3" cx="548.6" cy="908.05" r="47.29"/><circle class="cls-3" cx="638.72" cy="908.05" r="47.29"/><ellipse class="cls-3" cx="593.21" cy="887.97" rx="13.38" ry="9.37"/><path class="cls-3" d="M551.63,769.54c24-23.22,42.1-58,42.13-81.28,0,23.23,18,56.52,42,77.7"/><circle class="cls-3" cx="591.69" cy="617.19" r="47.29"/><circle class="cls-3" cx="548.86" cy="687.68" r="47.29"/><circle class="cls-3" cx="638.98" cy="687.68" r="47.29"/><ellipse class="cls-3" cx="593.47" cy="667.61" rx="13.38" ry="9.37"/><path class="cls-3" d="M553.86,558c24-23.22,42.09-58.06,42.12-81.28,0,23.22,18,56.52,42,77.69"/><circle class="cls-3" cx="593.91" cy="405.64" r="47.29"/><circle class="cls-3" cx="551.08" cy="476.13" r="47.29"/><circle class="cls-3" cx="641.21" cy="476.13" r="47.29"/><ellipse class="cls-3" cx="595.7" cy="456.05" rx="13.38" ry="9.37"/><path class="cls-3" d="M551.37,345.87c24-23.23,42.1-58.06,42.13-81.28,0,23.22,18,56.52,42,77.69"/><circle class="cls-3" cx="591.43" cy="193.51" r="47.29"/><circle class="cls-3" cx="548.6" cy="264.01" r="47.29"/><circle class="cls-3" cx="638.72" cy="264.01" r="47.29"/><ellipse class="cls-3" cx="593.21" cy="243.93" rx="13.38" ry="9.37"/><path class="cls-3" d="M379.55,497.83c24.05-23.22,42.1-58.06,42.12-81.28,0,23.22,18,56.52,42,77.69"/><circle class="cls-3" cx="419.61" cy="345.48" r="47.29"/><circle class="cls-3" cx="376.78" cy="415.97" r="47.29"/><circle class="cls-3" cx="466.9" cy="415.97" r="47.29"/><ellipse class="cls-3" cx="421.39" cy="395.89" rx="13.38" ry="9.37"/></svg>