<svg id="Layer_1" data-name="Layer 1" xmlns="http://www.w3.org/2000/svg" viewBox="0 0 822 1122"><defs><style>.cls-1{font-size:131.54px;font-family:HelveticaNeue-Bold, Helvetica Neue;font-weight:700;}.cls-1,.cls-3{fill:#d89d70;}.cls-2{fill:#d6bd80;}</style></defs><text class="cls-1" transform="translate(4.75 119.64)">10</text><circle class="cls-2" cx="47.52" cy="39.52" r="7.08"/><circle class="cls-2" cx="47.52" cy="56.72" r="7.08"/><circle class="cls-2" cx="31.33" cy="50.64" r="7.08"/><circle class="cls-2" cx="47.52" cy="73.92" r="7.08"/><circle class="cls-2" cx="94.55" cy="44.22" r="7.08"/><circle class="cls-2" cx="113.78" cy="33.09" r="7.08"/><circle class="cls-2" cx="90.5" cy="66.48" r="7.08"/><circle class="cls-2" cx="91.52" cy="87.73" r="7.08"/><circle class="cls-2" cx="98.33" cy="106.45" r="7.08"/><circle class="cls-2" cx="115.54" cy="113.56" r="7.08"/><circle class="cls-2" cx="133.38" cy="105.19" r="7.08"/><circle class="cls-2" cx="138.44" cy="87.99" r="7.08"/><circle class="cls-2" cx="138.45" cy="66.74" r="7.08"/><circle class="cls-2" cx="133.39" cy="43.46" r="7.08"/><circle class="cls-2" cx="47.52" cy="91.12" r="7.08"/><circle class="cls-2" cx="47.52" cy="109.33" r="7.08"/><text class="cls-1" transform="matrix(-1, -0.01, 0.01, -1, 814.3, 1007.03)">10</text><circle class="cls-2" cx="770.61" cy="1086.65" r="7.08"/><circle class="cls-2" cx="770.81" cy="1069.46" r="7.08"/><circle class="cls-2" cx="786.93" cy="1075.71" r="7.08"/><circle class="cls-2" cx="771.01" cy="1052.25" r="7.08"/><circle class="cls-2" cx="723.64" cy="1081.41" r="7.08"/><circle class="cls-2" cx="704.28" cy="1092.32" r="7.08"/><circle class="cls-2" cx="727.94" cy="1059.2" r="7.08"/><circle class="cls-2" cx="727.17" cy="1037.94" r="7.08"/><circle class="cls-2" cx="720.57" cy="1019.14" r="7.08"/><circle class="cls-2" cx="703.45" cy="1011.83" r="7.08"/><circle class="cls-2" cx="685.51" cy="1020" r="7.08"/><circle class="cls-2" cx="680.25" cy="1037.14" r="7.08"/><circle class="cls-2" cx="680.01" cy="1058.39" r="7.08"/><circle class="cls-2" cx="684.8" cy="1081.72" r="7.08"/><circle class="cls-2" cx="771.21" cy="1035.05" r="7.08"/><circle class="cls-2" cx="771.42" cy="1016.84" r="7.08"/><path class="cls-3" d="M189.67,285.25a54.39,54.39,0,0,0,76.9,0h0a54.38,54.38,0,0,0,0-76.91L253.4,195.17l-76.9,76.91Z"/><path class="cls-3" d="M86.57,208.2a54.38,54.38,0,0,0,0,76.91h0a54.39,54.39,0,0,0,76.9,0l13-13L99.6,195.17Z"/><rect class="cls-3" x="122.12" y="140.8" width="108.76" height="108.76" transform="translate(-86.31 181.97) rotate(-45)"/><path class="cls-3" d="M133.06,343.62c25-24.15,43.78-60.38,43.81-84.54,0,24.16,18.71,58.79,43.72,80.81"/><path class="cls-3" d="M189.67,524.25a54.39,54.39,0,0,0,76.9,0h0a54.38,54.38,0,0,0,0-76.91L253.4,434.17l-76.9,76.91Z"/><path class="cls-3" d="M86.57,447.2a54.38,54.38,0,0,0,0,76.91h0a54.39,54.39,0,0,0,76.9,0l13-13L99.6,434.17Z"/><rect class="cls-3" x="122.12" y="379.8" width="108.76" height="108.76" transform="translate(-255.31 251.97) rotate(-45)"/><path class="cls-3" d="M133.06,582.62c25-24.15,43.78-60.38,43.81-84.54,0,24.16,18.71,58.79,43.72,80.81"/><path class="cls-3" d="M189.67,768.25a54.39,54.39,0,0,0,76.9,0h0a54.38,54.38,0,0,0,0-76.91L253.4,678.17l-76.9,76.91Z"/><path class="cls-3" d="M86.57,691.2a54.38,54.38,0,0,0,0,76.91h0a54.39,54.39,0,0,0,76.9,0l13-13L99.6,678.17Z"/><rect class="cls-3" x="122.12" y="623.8" width="108.76" height="108.76" transform="translate(-427.85 323.44) rotate(-45)"/><path class="cls-3" d="M133.06,826.62c25-24.15,43.78-60.38,43.81-84.54,0,24.16,18.71,58.79,43.72,80.81"/><path class="cls-3" d="M185.67,1003.25a54.39,54.39,0,0,0,76.9,0h0a54.38,54.38,0,0,0,0-76.91L249.4,913.17l-76.9,76.91Z"/><path class="cls-3" d="M82.57,926.2a54.38,54.38,0,0,0,0,76.91h0a54.39,54.39,0,0,0,76.9,0l13-13L95.6,913.17Z"/><rect class="cls-3" x="118.12" y="858.8" width="108.76" height="108.76" transform="translate(-595.19 389.44) rotate(-45)"/><path class="cls-3" d="M129.06,1061.62c25-24.15,43.78-60.38,43.81-84.54,0,24.16,18.71,58.79,43.72,80.81"/><path class="cls-3" d="M618.67,992.25a54.39,54.39,0,0,0,76.9,0h0a54.38,54.38,0,0,0,0-76.91L682.4,902.17l-76.9,76.91Z"/><path class="cls-3" d="M515.57,915.2a54.38,54.38,0,0,0,0,76.91h0a54.39,54.39,0,0,0,76.9,0l13-13-76.9-76.91Z"/><rect class="cls-3" x="551.12" y="847.8" width="108.76" height="108.76" transform="translate(-460.59 692.39) rotate(-45)"/><path class="cls-3" d="M562.06,1050.62c25-24.15,43.78-60.38,43.81-84.54,0,24.16,18.71,58.79,43.72,80.81"/><path class="cls-3" d="M618.67,739.25a54.39,54.39,0,0,0,76.9,0h0a54.38,54.38,0,0,0,0-76.91L682.4,649.17l-76.9,76.91Z"/><path class="cls-3" d="M515.57,662.2a54.38,54.38,0,0,0,0,76.91h0a54.39,54.39,0,0,0,76.9,0l13-13-76.9-76.91Z"/><rect class="cls-3" x="551.12" y="594.8" width="108.76" height="108.76" transform="translate(-281.69 618.29) rotate(-45)"/><path class="cls-3" d="M562.06,797.62c25-24.15,43.78-60.38,43.81-84.54,0,24.16,18.71,58.79,43.72,80.81"/><path class="cls-3" d="M618.67,504.25a54.39,54.39,0,0,0,76.9,0h0a54.38,54.38,0,0,0,0-76.91L682.4,414.17l-76.9,76.91Z"/><path class="cls-3" d="M515.57,427.2a54.38,54.38,0,0,0,0,76.91h0a54.39,54.39,0,0,0,76.9,0l13-13-76.9-76.91Z"/><rect class="cls-3" x="551.12" y="359.8" width="108.76" height="108.76" transform="translate(-115.52 549.46) rotate(-45)"/><path class="cls-3" d="M562.06,562.62c25-24.15,43.78-60.38,43.81-84.54,0,24.16,18.71,58.79,43.72,80.81"/><path class="cls-3" d="M618.67,263.25a54.39,54.39,0,0,0,76.9,0h0a54.38,54.38,0,0,0,0-76.91L682.4,173.17l-76.9,76.91Z"/><path class="cls-3" d="M515.57,186.2a54.38,54.38,0,0,0,0,76.91h0a54.39,54.39,0,0,0,76.9,0l13-13-76.9-76.91Z"/><rect class="cls-3" x="551.12" y="118.8" width="108.76" height="108.76" transform="translate(54.89 478.87) rotate(-45)"/><path class="cls-3" d="M562.06,321.62c25-24.15,43.78-60.38,43.81-84.54,0,24.16,18.71,58.79,43.72,80.81"/><path class="cls-3" d="M390.67,413.25a54.39,54.39,0,0,0,76.9,0h0a54.38,54.38,0,0,0,0-76.91L454.4,323.17l-76.9,76.91Z"/><path class="cls-3" d="M287.57,336.2a54.38,54.38,0,0,0,0,76.91h0a54.39,54.39,0,0,0,76.9,0l13-13-76.9-76.91Z"/><rect class="cls-3" x="323.12" y="268.8" width="108.76" height="108.76" transform="translate(-117.95 361.59) rotate(-45)"/><path class="cls-3" d="M334.06,471.62c25-24.15,43.78-60.38,43.81-84.54,0,24.16,18.71,58.79,43.72,80.81"/><path class="cls-3" d="M376.48,775a54.38,54.38,0,0,0-76.81-3.81h0A54.38,54.38,0,0,0,295.86,848l12.5,13.81,80.62-73Z"/><path class="cls-3" d="M475.64,857.05a54.38,54.38,0,0,0,3.81-76.8h0a54.38,54.38,0,0,0-76.81-3.82L389,788.8l73,80.62Z"/><rect class="cls-3" x="330.79" y="811.23" width="108.76" height="108.76" transform="translate(-481.33 482.46) rotate(-42.16)"/><path class="cls-3" d="M435.35,719.27c-25,23.33-45.58,58.59-48,82.27,2.37-23.68-14.63-59.2-39.66-82.88"/><path class="cls-3" d="M765.78,918.38a21.66,21.66,0,0,0-30.61.9h0a21.66,21.66,0,0,0,.91,30.61l5.39,5.08,29.7-31.5Z"/><path class="cls-3" d="M807.71,947.83a21.65,21.65,0,0,0-.9-30.61h0a21.66,21.66,0,0,0-30.61.91l-5,5.34,31.51,29.69Z"/><rect class="cls-3" x="750.43" y="932.42" width="43.3" height="43.3" transform="translate(-451.76 861.53) rotate(-46.69)"/><path class="cls-3" d="M787.76,894.55c-9.94,9.76-17,24.4-16.44,34.17-.55-9.77-8.41-23.33-18.35-31.65"/><path class="cls-3" d="M56.08,196.12a21.65,21.65,0,0,0,30.57,1.7h0a21.65,21.65,0,0,0,1.7-30.57l-4.95-5.53L51.14,190.6Z"/><path class="cls-3" d="M16.79,163.23A21.65,21.65,0,0,0,15.1,193.8h0a21.64,21.64,0,0,0,30.57,1.69l5.47-4.89L22.26,158.33Z"/><rect class="cls-3" x="31.18" y="138.38" width="43.3" height="43.3" transform="translate(-93.26 76.02) rotate(-41.83)"/><path class="cls-3" d="M32.54,218.16c10-9.2,18.23-23.19,19.28-32.65-1,9.46,5.64,23.64,15.6,33.09"/></svg>