<svg id="Layer_1" data-name="Layer 1" xmlns="http://www.w3.org/2000/svg" viewBox="0 0 822 1122"><defs><style>.cls-1{font-size:176.01px;font-family:HelveticaNeue-Bold, Helvetica Neue;font-weight:700;}.cls-1,.cls-3{fill:#d89d70;}.cls-2{fill:#d6bd80;}</style></defs><text class="cls-1" transform="translate(25.75 147.39)">7</text><circle class="cls-2" cx="63.89" cy="126.64" r="8.93"/><circle class="cls-2" cx="70.99" cy="102.39" r="8.93"/><circle class="cls-2" cx="80.65" cy="78.69" r="8.93"/><circle class="cls-2" cx="99.62" cy="35.29" r="8.93"/><circle class="cls-2" cx="76.65" cy="35.29" r="8.93"/><circle class="cls-2" cx="49.85" cy="35.29" r="8.93"/><text class="cls-1" transform="translate(802.61 975.21) rotate(180)">7</text><circle class="cls-2" cx="764.47" cy="995.97" r="8.93"/><circle class="cls-2" cx="757.37" cy="1020.22" r="8.93"/><circle class="cls-2" cx="747.71" cy="1043.92" r="8.93"/><circle class="cls-2" cx="728.74" cy="1087.31" r="8.93"/><circle class="cls-2" cx="751.71" cy="1087.32" r="8.93"/><circle class="cls-2" cx="778.51" cy="1087.32" r="8.93"/><path class="cls-3" d="M42.48,312.9c16.37-15.8,28.66-39.52,28.67-55.32,0,15.8,12.25,38.47,28.61,52.88"/><circle class="cls-3" cx="69.75" cy="209.2" r="32.19"/><circle class="cls-3" cx="40.59" cy="257.18" r="32.19"/><circle class="cls-3" cx="101.94" cy="257.18" r="32.19"/><ellipse class="cls-3" cx="70.96" cy="243.52" rx="9.11" ry="6.38"/><path class="cls-3" d="M786.05,813.1c-16.37,15.8-28.65,39.52-28.67,55.32,0-15.8-12.25-38.47-28.61-52.88"/><circle class="cls-3" cx="758.78" cy="916.8" r="32.19"/><circle class="cls-3" cx="787.94" cy="868.82" r="32.19"/><circle class="cls-3" cx="726.59" cy="868.82" r="32.19"/><ellipse class="cls-3" cx="757.57" cy="882.48" rx="9.11" ry="6.38"/><path class="cls-3" d="M189.07,393.59c25.77-24.89,45.11-62.21,45.14-87.1,0,24.89,19.27,60.56,45,83.25"/><circle class="cls-3" cx="232" cy="230.34" r="50.68"/><circle class="cls-3" cx="186.1" cy="305.87" r="50.68"/><circle class="cls-3" cx="282.67" cy="305.87" r="50.68"/><ellipse class="cls-3" cx="233.91" cy="284.36" rx="14.34" ry="10.04"/><path class="cls-3" d="M184.15,671.87c25.76-24.88,45.11-62.21,45.13-87.09,0,24.88,19.28,60.56,45,83.25"/><circle class="cls-3" cx="227.07" cy="508.63" r="50.68"/><circle class="cls-3" cx="181.18" cy="584.16" r="50.68"/><circle class="cls-3" cx="277.74" cy="584.16" r="50.68"/><ellipse class="cls-3" cx="228.98" cy="562.65" rx="14.34" ry="10.04"/><path class="cls-3" d="M564.23,397.69c25.76-24.88,45.11-62.21,45.13-87.09,0,24.88,19.28,60.56,45,83.25"/><circle class="cls-3" cx="607.15" cy="234.44" r="50.68"/><circle class="cls-3" cx="561.26" cy="309.98" r="50.68"/><circle class="cls-3" cx="657.82" cy="309.98" r="50.68"/><ellipse class="cls-3" cx="609.06" cy="288.46" rx="14.34" ry="10.04"/><path class="cls-3" d="M373.78,566.8c25.76-24.89,45.11-62.21,45.13-87.1,0,24.89,19.28,60.57,45,83.25"/><circle class="cls-3" cx="416.7" cy="403.55" r="50.68"/><circle class="cls-3" cx="370.8" cy="479.08" r="50.68"/><circle class="cls-3" cx="467.37" cy="479.08" r="50.68"/><ellipse class="cls-3" cx="418.61" cy="457.57" rx="14.34" ry="10.04"/><path class="cls-3" d="M564.23,665.31c25.76-24.89,45.11-62.21,45.13-87.1,0,24.89,19.28,60.56,45,83.25"/><circle class="cls-3" cx="607.15" cy="502.06" r="50.68"/><circle class="cls-3" cx="561.26" cy="577.59" r="50.68"/><circle class="cls-3" cx="657.82" cy="577.59" r="50.68"/><ellipse class="cls-3" cx="609.06" cy="556.08" rx="14.34" ry="10.04"/><path class="cls-3" d="M552.74,923.89c25.76-24.88,45.1-62.21,45.13-87.09,0,24.88,19.27,60.56,45,83.25"/><circle class="cls-3" cx="595.66" cy="760.64" r="50.68"/><circle class="cls-3" cx="549.76" cy="836.18" r="50.68"/><circle class="cls-3" cx="646.33" cy="836.18" r="50.68"/><ellipse class="cls-3" cx="597.57" cy="814.67" rx="14.34" ry="10.04"/><path class="cls-3" d="M184.15,922.25c25.76-24.88,45.11-62.21,45.13-87.09,0,24.88,19.28,60.56,45,83.25"/><circle class="cls-3" cx="227.07" cy="759" r="50.68"/><circle class="cls-3" cx="181.18" cy="834.54" r="50.68"/><circle class="cls-3" cx="277.74" cy="834.54" r="50.68"/><ellipse class="cls-3" cx="228.98" cy="813.02" rx="14.34" ry="10.04"/></svg>