<svg id="Layer_1" data-name="Layer 1" xmlns="http://www.w3.org/2000/svg" viewBox="0 0 822 1122"><defs><style>.cls-1{font-size:153.12px;}.cls-1,.cls-3,.cls-4{fill:#6f9797;}.cls-1,.cls-3{font-family:HelveticaNeue-Bold, Helvetica Neue;font-weight:700;}.cls-2{fill:#d6bd80;}.cls-3{font-size:174.23px;}</style></defs><text class="cls-1" transform="translate(36.67 149.36) rotate(-1.18)">5</text><circle class="cls-2" cx="100.95" cy="49.35" r="8.25"/><circle class="cls-2" cx="80.89" cy="49.33" r="8.25"/><circle class="cls-2" cx="60.86" cy="50.51" r="8.25"/><circle class="cls-2" cx="56.14" cy="70.53" r="8.25"/><circle class="cls-2" cx="53.79" cy="90.56" r="8.25"/><circle class="cls-2" cx="85.59" cy="84.68" r="8.25"/><circle class="cls-2" cx="102.09" cy="96.45" r="8.25"/><circle class="cls-2" cx="106.8" cy="118.84" r="8.25"/><circle class="cls-2" cx="95.03" cy="136.51" r="8.25"/><circle class="cls-2" cx="72.64" cy="140.05" r="8.25"/><circle class="cls-2" cx="52.61" cy="128.27" r="8.25"/><text class="cls-3" transform="translate(780.74 955.69) rotate(177.02)">5</text><circle class="cls-2" cx="711.2" cy="1071.72" r="9.38"/><circle class="cls-2" cx="734.02" cy="1071.03" r="9.38"/><circle class="cls-2" cx="756.76" cy="1068.97" r="9.38"/><circle class="cls-2" cx="761.41" cy="1046.03" r="9.38"/><circle class="cls-2" cx="763.37" cy="1023.17" r="9.38"/><circle class="cls-2" cx="727.42" cy="1031" r="9.38"/><circle class="cls-2" cx="708.23" cy="1018.19" r="9.38"/><circle class="cls-2" cx="702.07" cy="992.9" r="9.38"/><circle class="cls-2" cx="714.84" cy="972.38" r="9.38"/><circle class="cls-2" cx="740.17" cy="967.56" r="9.38"/><circle class="cls-2" cx="763.37" cy="980.24" r="9.38"/><ellipse class="cls-4" cx="221.5" cy="334.76" rx="102.94" ry="133.12"/><ellipse class="cls-4" cx="596.5" cy="334.76" rx="102.94" ry="133.12"/><ellipse class="cls-4" cx="411.5" cy="615.76" rx="102.94" ry="133.12"/><ellipse class="cls-4" cx="221.5" cy="854.76" rx="102.94" ry="133.12"/><ellipse class="cls-4" cx="612.5" cy="854.76" rx="102.94" ry="133.12"/></svg>