<svg id="Layer_1" data-name="Layer 1" xmlns="http://www.w3.org/2000/svg" viewBox="0 0 822 1122"><defs><style>.cls-1{font-size:165.39px;}.cls-1,.cls-3,.cls-4{fill:#6f9797;}.cls-1,.cls-3{font-family:HelveticaNeue-Bold, Helvetica Neue;font-weight:700;}.cls-2{fill:#d6bd80;}.cls-3{font-size:177.4px;}</style></defs><text class="cls-1" transform="translate(17.75 134.81)">4</text><circle class="cls-2" cx="81.2" cy="120.64" r="8.91"/><circle class="cls-2" cx="81.14" cy="97.71" r="8.91"/><circle class="cls-2" cx="81.14" cy="77.35" r="8.91"/><circle class="cls-2" cx="81.14" cy="55.71" r="8.91"/><circle class="cls-2" cx="79.86" cy="32.81" r="8.91"/><circle class="cls-2" cx="58.24" cy="97.69" r="8.91"/><circle class="cls-2" cx="32.79" cy="97.7" r="8.91"/><text class="cls-3" transform="matrix(-1, -0.01, 0.01, -1, 807.05, 972.46)">4</text><circle class="cls-2" cx="738.81" cy="986.87" r="9.55"/><circle class="cls-2" cx="738.6" cy="1011.47" r="9.55"/><circle class="cls-2" cx="738.35" cy="1033.31" r="9.55"/><circle class="cls-2" cx="738.08" cy="1056.51" r="9.55"/><circle class="cls-2" cx="739.16" cy="1081.09" r="9.55"/><circle class="cls-2" cx="763.16" cy="1011.78" r="9.55"/><path class="cls-4" d="M207.82,248.11c-19.75-22.88-51.76-22.88-71.51,0h0c-19.75,22.87-19.75,60,0,82.85l12.25,14.19,71.51-82.86Z"/><path class="cls-4" d="M303.69,331.11c19.75-22.88,19.75-60,0-82.85h0c-19.75-22.88-51.76-22.88-71.51,0l-12.11,14,71.5,82.86Z"/><polygon class="cls-4" points="220.06 262.29 148.56 345.15 220.06 428 291.57 345.15 220.06 262.29"/><path class="cls-4" d="M73,158.84c-11.32-13.12-29.68-13.12-41,0h0C20.7,172,20.7,193.23,32,206.35l7,8.14,41-47.51Z"/><path class="cls-4" d="M128,206.44c11.32-13.12,11.32-34.39,0-47.51h0c-11.33-13.12-29.69-13.12-41,0l-7,8,41,47.51Z"/><polygon class="cls-4" points="80.05 166.98 39.05 214.49 80.05 262 121.06 214.49 80.05 166.98"/><path class="cls-4" d="M763.46,932.24c11.17,13.25,29.53,13.46,41,.47h0c11.47-13,11.72-34.26.54-47.51L798.09,877l-41.56,47Z"/><path class="cls-4" d="M709,884c-11.48,13-11.72,34.26-.55,47.51h0c11.17,13.25,29.53,13.46,41,.47l7-8-40.45-48Z"/><polygon class="cls-4" points="756.53 924.02 798.09 876.99 757.63 829 716.08 876.04 756.53 924.02"/><path class="cls-4" d="M231.24,871c19.48,23.1,51.5,23.47,71.51.82h0c20-22.65,20.43-59.74.95-82.85l-12.08-14.33-72.46,82Z"/><path class="cls-4" d="M136.33,786.87c-20,22.65-20.43,59.74-1,82.85h0c19.48,23.1,51.49,23.47,71.5.82l12.28-13.89L148.61,773Z"/><polygon class="cls-4" points="219.16 856.65 291.62 774.62 221.07 690.95 148.61 772.98 219.16 856.65"/><path class="cls-4" d="M593.24,878c19.48,23.1,51.5,23.47,71.51.82h0c20-22.65,20.43-59.74,1-82.85l-12.08-14.33-72.46,82Z"/><path class="cls-4" d="M498.33,793.87c-20,22.65-20.43,59.74-.95,82.85h0c19.48,23.1,51.49,23.47,71.5.82l12.28-13.89L510.61,780Z"/><polygon class="cls-4" points="581.16 863.65 653.62 781.62 583.07 697.95 510.61 779.98 581.16 863.65"/><path class="cls-4" d="M568.82,250.11c-19.75-22.88-51.76-22.88-71.51,0h0c-19.75,22.87-19.75,60,0,82.85l12.25,14.19,71.51-82.86Z"/><path class="cls-4" d="M664.69,333.11c19.75-22.88,19.75-60,0-82.85h0c-19.75-22.88-51.76-22.88-71.51,0l-12.11,14,71.5,82.86Z"/><polygon class="cls-4" points="581.07 264.29 509.56 347.15 581.07 430 652.58 347.15 581.07 264.29"/></svg>