<svg id="Layer_1" data-name="Layer 1" xmlns="http://www.w3.org/2000/svg" viewBox="0 0 822 1122"><defs><style>.cls-1{font-size:131.54px;font-family:HelveticaNeue-Bold, Helvetica Neue;font-weight:700;}.cls-1,.cls-3{fill:#d89d70;}.cls-2{fill:#d6bd80;}</style></defs><text class="cls-1" transform="translate(4.75 105.64)">10</text><circle class="cls-2" cx="47.52" cy="25.52" r="7.08"/><circle class="cls-2" cx="47.52" cy="42.72" r="7.08"/><circle class="cls-2" cx="31.33" cy="36.64" r="7.08"/><circle class="cls-2" cx="47.52" cy="59.92" r="7.08"/><circle class="cls-2" cx="94.55" cy="30.22" r="7.08"/><circle class="cls-2" cx="113.78" cy="19.09" r="7.08"/><circle class="cls-2" cx="90.5" cy="52.48" r="7.08"/><circle class="cls-2" cx="91.52" cy="73.73" r="7.08"/><circle class="cls-2" cx="98.33" cy="92.45" r="7.08"/><circle class="cls-2" cx="115.54" cy="99.56" r="7.08"/><circle class="cls-2" cx="133.38" cy="91.19" r="7.08"/><circle class="cls-2" cx="138.44" cy="73.99" r="7.08"/><circle class="cls-2" cx="138.45" cy="52.74" r="7.08"/><circle class="cls-2" cx="133.39" cy="29.46" r="7.08"/><circle class="cls-2" cx="47.52" cy="77.12" r="7.08"/><circle class="cls-2" cx="47.52" cy="95.33" r="7.08"/><text class="cls-1" transform="matrix(-1, -0.01, 0.01, -1, 824.3, 1007.03)">10</text><circle class="cls-2" cx="780.61" cy="1086.65" r="7.08"/><circle class="cls-2" cx="780.81" cy="1069.46" r="7.08"/><circle class="cls-2" cx="796.93" cy="1075.71" r="7.08"/><circle class="cls-2" cx="781.01" cy="1052.25" r="7.08"/><circle class="cls-2" cx="733.64" cy="1081.41" r="7.08"/><circle class="cls-2" cx="714.28" cy="1092.32" r="7.08"/><circle class="cls-2" cx="737.94" cy="1059.2" r="7.08"/><circle class="cls-2" cx="737.17" cy="1037.94" r="7.08"/><circle class="cls-2" cx="730.57" cy="1019.14" r="7.08"/><circle class="cls-2" cx="713.45" cy="1011.83" r="7.08"/><circle class="cls-2" cx="695.51" cy="1020" r="7.08"/><circle class="cls-2" cx="690.25" cy="1037.14" r="7.08"/><circle class="cls-2" cx="690.01" cy="1058.39" r="7.08"/><circle class="cls-2" cx="694.8" cy="1081.72" r="7.08"/><circle class="cls-2" cx="781.21" cy="1035.05" r="7.08"/><circle class="cls-2" cx="781.42" cy="1016.84" r="7.08"/><path class="cls-3" d="M53.48,253.9c16.37-15.8,28.66-39.52,28.67-55.32,0,15.8,12.25,38.47,28.61,52.88"/><circle class="cls-3" cx="80.75" cy="150.2" r="32.19"/><circle class="cls-3" cx="51.59" cy="198.18" r="32.19"/><circle class="cls-3" cx="112.94" cy="198.18" r="32.19"/><ellipse class="cls-3" cx="81.96" cy="184.52" rx="9.11" ry="6.38"/><path class="cls-3" d="M781.05,850.1c-16.37,15.8-28.65,39.52-28.67,55.32,0-15.8-12.25-38.47-28.61-52.88"/><circle class="cls-3" cx="753.78" cy="953.8" r="32.19"/><circle class="cls-3" cx="782.94" cy="905.82" r="32.19"/><circle class="cls-3" cx="721.59" cy="905.82" r="32.19"/><ellipse class="cls-3" cx="752.57" cy="919.48" rx="9.11" ry="6.38"/><path class="cls-3" d="M185.29,365.18C207.37,343.85,224,311.85,224,290.52c0,21.33,16.52,51.91,38.6,71.36"/><circle class="cls-3" cx="222.08" cy="225.25" r="43.44"/><circle class="cls-3" cx="182.74" cy="289.99" r="43.44"/><circle class="cls-3" cx="265.52" cy="289.99" r="43.44"/><ellipse class="cls-3" cx="223.72" cy="271.55" rx="12.29" ry="8.61"/><path class="cls-3" d="M186.05,560c22.09-21.33,38.67-53.33,38.69-74.66,0,21.33,16.52,51.91,38.6,71.36"/><circle class="cls-3" cx="222.84" cy="420.07" r="43.44"/><circle class="cls-3" cx="183.5" cy="484.82" r="43.44"/><circle class="cls-3" cx="266.28" cy="484.82" r="43.44"/><ellipse class="cls-3" cx="224.48" cy="466.38" rx="12.29" ry="8.61"/><path class="cls-3" d="M183.77,754.31C205.85,733,222.43,701,222.46,679.66c0,21.32,16.52,51.91,38.6,71.35"/><circle class="cls-3" cx="220.56" cy="614.38" r="43.44"/><circle class="cls-3" cx="181.22" cy="679.12" r="43.44"/><circle class="cls-3" cx="264" cy="679.12" r="43.44"/><ellipse class="cls-3" cx="222.2" cy="660.68" rx="12.29" ry="8.61"/><path class="cls-3" d="M181.49,956.71c22.08-21.33,38.66-53.33,38.68-74.66,0,21.33,16.52,51.91,38.61,71.36"/><circle class="cls-3" cx="218.28" cy="816.77" r="43.44"/><circle class="cls-3" cx="178.94" cy="881.52" r="43.44"/><circle class="cls-3" cx="261.71" cy="881.52" r="43.44"/><ellipse class="cls-3" cx="219.92" cy="863.08" rx="12.29" ry="8.61"/><path class="cls-3" d="M561.55,954.18c22.09-21.33,38.67-53.32,38.69-74.65,0,21.33,16.52,51.91,38.6,71.36"/><circle class="cls-3" cx="598.34" cy="814.25" r="43.44"/><circle class="cls-3" cx="559" cy="879" r="43.44"/><circle class="cls-3" cx="641.78" cy="879" r="43.44"/><ellipse class="cls-3" cx="599.98" cy="860.56" rx="12.29" ry="8.61"/><path class="cls-3" d="M561.79,751.79c22.09-21.33,38.67-53.33,38.69-74.66,0,21.33,16.52,51.91,38.6,71.36"/><circle class="cls-3" cx="598.58" cy="611.86" r="43.44"/><circle class="cls-3" cx="559.24" cy="676.6" r="43.44"/><circle class="cls-3" cx="642.02" cy="676.6" r="43.44"/><ellipse class="cls-3" cx="600.22" cy="658.16" rx="12.29" ry="8.61"/><path class="cls-3" d="M563.84,557.48c22.08-21.33,38.66-53.32,38.68-74.65,0,21.33,16.52,51.91,38.61,71.36"/><circle class="cls-3" cx="600.63" cy="417.55" r="43.44"/><circle class="cls-3" cx="561.29" cy="482.3" r="43.44"/><circle class="cls-3" cx="644.06" cy="482.3" r="43.44"/><ellipse class="cls-3" cx="602.26" cy="463.86" rx="12.29" ry="8.61"/><path class="cls-3" d="M561.55,362.65c22.09-21.33,38.67-53.32,38.69-74.65,0,21.33,16.52,51.91,38.6,71.36"/><circle class="cls-3" cx="598.34" cy="222.72" r="43.44"/><circle class="cls-3" cx="559" cy="287.47" r="43.44"/><circle class="cls-3" cx="641.78" cy="287.47" r="43.44"/><ellipse class="cls-3" cx="599.98" cy="269.03" rx="12.29" ry="8.61"/><path class="cls-3" d="M370.68,512.33C392.76,491,409.34,459,409.36,437.67c0,21.33,16.52,51.92,38.61,71.36"/><circle class="cls-3" cx="407.47" cy="372.4" r="43.44"/><circle class="cls-3" cx="368.13" cy="437.14" r="43.44"/><circle class="cls-3" cx="450.9" cy="437.14" r="43.44"/><ellipse class="cls-3" cx="409.1" cy="418.7" rx="12.29" ry="8.61"/><path class="cls-3" d="M452.56,526c-22.09,21.33-38.67,53.33-38.69,74.65,0-21.32-16.52-51.91-38.6-71.35"/><circle class="cls-3" cx="415.77" cy="665.91" r="43.44"/><circle class="cls-3" cx="455.11" cy="601.17" r="43.44"/><circle class="cls-3" cx="372.33" cy="601.17" r="43.44"/><ellipse class="cls-3" cx="414.13" cy="619.61" rx="12.29" ry="8.61"/></svg>