<svg id="Layer_1" data-name="Layer 1" xmlns="http://www.w3.org/2000/svg" viewBox="0 0 822 1122"><defs><style>.cls-1{font-size:175.45px;font-family:HelveticaNeue-Bold, Helvetica Neue;font-weight:700;}.cls-1,.cls-3{fill:#d89d70;}.cls-2{fill:#d6bd80;}.cls-4{fill:none;stroke:#da9f70;stroke-miterlimit:10;stroke-width:3px;}</style></defs><text class="cls-1" transform="translate(9.75 143.07)">Q</text><circle class="cls-2" cx="77.07" cy="26.97" r="9.45"/><circle class="cls-2" cx="51.43" cy="35.07" r="9.45"/><circle class="cls-2" cx="35.23" cy="58.02" r="9.45"/><circle class="cls-2" cx="32.53" cy="90.41" r="9.45"/><circle class="cls-2" cx="41.98" cy="121.46" r="9.45"/><circle class="cls-2" cx="74.38" cy="132.26" r="9.45"/><circle class="cls-2" cx="105.42" cy="122.81" r="9.45"/><circle class="cls-2" cx="122.97" cy="101.21" r="9.45"/><circle class="cls-2" cx="127.02" cy="72.87" r="9.45"/><circle class="cls-2" cx="117.57" cy="49.92" r="9.45"/><circle class="cls-2" cx="102.93" cy="33.15" r="9.45"/><text class="cls-1" transform="translate(817.32 981.23) rotate(-179.89)">Q</text><circle class="cls-2" cx="749.76" cy="1097.2" r="9.45"/><circle class="cls-2" cx="775.41" cy="1089.14" r="9.45"/><circle class="cls-2" cx="791.66" cy="1066.23" r="9.45"/><circle class="cls-2" cx="794.43" cy="1033.84" r="9.45"/><circle class="cls-2" cx="785.04" cy="1002.78" r="9.45"/><circle class="cls-2" cx="752.67" cy="991.91" r="9.45"/><circle class="cls-2" cx="721.61" cy="1001.3" r="9.45"/><circle class="cls-2" cx="704.01" cy="1022.86" r="9.45"/><circle class="cls-2" cx="699.91" cy="1051.19" r="9.45"/><circle class="cls-2" cx="709.31" cy="1074.16" r="9.45"/><circle class="cls-2" cx="723.91" cy="1090.96" r="9.45"/><path class="cls-3" d="M50.48,292.9c16.37-15.8,28.66-39.52,28.67-55.32,0,15.8,12.25,38.47,28.61,52.88"/><circle class="cls-3" cx="77.75" cy="189.2" r="32.19"/><circle class="cls-3" cx="48.59" cy="237.18" r="32.19"/><circle class="cls-3" cx="109.94" cy="237.18" r="32.19"/><ellipse class="cls-3" cx="78.96" cy="223.52" rx="9.11" ry="6.38"/><path class="cls-3" d="M208.88,312.32c21.36-20.64,37.4-51.58,37.42-72.22,0,20.64,16,50.22,37.34,69"/><circle class="cls-3" cx="244.47" cy="176.96" r="42.02"/><circle class="cls-3" cx="206.42" cy="239.59" r="42.02"/><circle class="cls-3" cx="286.48" cy="239.59" r="42.02"/><ellipse class="cls-3" cx="246.05" cy="221.75" rx="11.89" ry="8.32"/><path class="cls-3" d="M774.05,822.1c-16.37,15.8-28.65,39.52-28.67,55.32,0-15.8-12.25-38.47-28.61-52.88"/><circle class="cls-3" cx="746.78" cy="925.8" r="32.19"/><circle class="cls-3" cx="775.94" cy="877.82" r="32.19"/><circle class="cls-3" cx="714.59" cy="877.82" r="32.19"/><ellipse class="cls-3" cx="745.57" cy="891.48" rx="9.11" ry="6.38"/><path class="cls-3" d="M626.11,794.93c-20.84,20.14-36.49,50.33-36.51,70.46,0-20.13-15.59-49-36.43-67.35"/><circle class="cls-3" cx="591.39" cy="927" r="40.99"/><circle class="cls-3" cx="628.52" cy="865.89" r="40.99"/><circle class="cls-3" cx="550.4" cy="865.89" r="40.99"/><ellipse class="cls-3" cx="589.84" cy="883.3" rx="11.6" ry="8.12"/><path class="cls-4" d="M560.15,95.18c1.89,3.33,2.65,8.66,4.19,12.52,2,5.14,5.21,8.47,8.53,12.69,5,6.33,8,11.15,15.36,15.12,6.4,3.47,14.86,4.23,20.65,8.75"/><path class="cls-4" d="M570.18,94.82c1.32,3.41,4.79,6.32,6.83,9.39,2.33,3.5,4.46,7.15,6.78,10.67,3.43,5.22,5.87,7.77,11.24,10.57,4.51,2.35,8.62,4.84,13.43,6.69a6.92,6.92,0,0,1,.06,1.37"/><path class="cls-4" d="M611.38,123.84c-4.77.76-10.71-5.3-13.67-8.43-4.35-4.58-7.94-8.68-13-12.47-3.72-2.79-4.49-3.85-4.49-8.12"/><path class="cls-4" d="M590.6,94.1c-.76,6.13,6.5,13.82,10.81,17.61a24,24,0,0,0,6.75,4.24"/><path class="cls-4" d="M598.49,94.1a15.6,15.6,0,0,0,10,11.82"/><path class="cls-4" d="M609.23,155.36c0-13.8,1.38-31.36-1-45.83-.84-5-.1-9.69,1-14.35"/><path class="cls-4" d="M537.94,92.67c1.58,3-2.2,7.27-4.22,9.61-3,3.47-5.3,3.79-9.22,5.58-2.46,1.12-3.88,2.89-6.62,3.08"/><path class="cls-4" d="M545.82,94.1c-2,6.79-7,12.3-11.58,17.49-2.16,2.44-4.59,6.11-7.43,7.79-6.55,3.89-16,1.34-22.19,4.46"/><path class="cls-4" d="M551.91,93c0,8.17-.44,12.92-5.53,19.51s-12,10-19.26,13.86a37.65,37.65,0,0,1-12.27,4.06c-1.85.29-4.12.38-5.57,1.26"/><path class="cls-4" d="M500.33,140.32c7.7.07,13.21,1.93,20.61-1.83,6.75-3.42,12.38-8.39,18.22-13s10.46-7.54,14.46-14c1.77-2.86,2.76-6.75,5.46-8.76"/><path class="cls-4" d="M651.88,359.59c-7.13,1.16-17.15,13.07-21.13,19.13-3.15,4.8-3.67,11.21-3.1,17,.94,9.53,8.23,12.74,17.18,12.73,4.16,0,7.11.43,6.2-4.67"/><path class="cls-4" d="M628.94,406.31c-.22,9.16,3.83,17.75,4.26,26.9.35,7.58-1.43,10.19-8.93,12.61"/><path class="cls-4" d="M634.89,421.18c-.82,17.77,16.65,33.16,8.72,50.64-3,6.67-4.92,8.9-2.08,16.05.5,1.27,5.42,12.72,7.38,8.07"/><path class="cls-4" d="M331.09,365.21c-.44-5.1-5.25-12.44-1-16.73,2.76-2.79,15.28-2.66,18.75-1.43,7.14,2.52,12.5,11.16,13.19,18.12,1.11,11.16,2.79,21.14,4.83,32.18,3.41,18.46,4.56,44,27,49.7,6.68,1.7,17.12,1.55,23.28-1.61,8.28-4.24,7.06-17.5,7.36-25.71.36-9.89-1.52-22.69-13.42-23-7.53-.2-15.3,4-18.85,10.36.16-12.51-6.5-21.2-17.72-27.42"/><path class="cls-4" d="M431.67,436.21c13.56-1.22,33.2-2,37.18,13.68,2,7.66-3.73,11.46-4.36,18.31s5.9,12.23,9,17.75c2.38,4.26,4,8.73,6.2,13.05,3.78,7.31,9,8.39,16.24,11.16,9.15,3.52,22.62,5.31,27.57-6,6.51-14.9-10.55-20.37-22-19.95,15.58,1.21,20.9,12.86,14.35,25.56,8.18.68,15-3.53,20,4,2.67,4.08,2.92,6.3-.28,9.86"/><path class="cls-4" d="M339.07,422.77c-6.61.35-13.51,4.56-19.62,6.88-2.66,1-8,1.48-9.15,4.28,8.26.51,12.74,3.42,8.21,12,2.11-.1,6.19-1.75,7.86-.15.92.88.82,3.66,1.49,4.91-.19-8.09,2.17-12.52,6.53-18.9C335.62,430,336.35,427.77,339.07,422.77Z"/><path class="cls-4" d="M328.59,472.53c-8.24,2.86-16.5,7.86-24.63,11.38-2.11.91-6.61,1.19-6.79,3.9,3.34.3,10.86,1,12.56,4.49,1.22,2.51-.57,4.55-1.67,6.76,2.53-1.9,11.76-2.74,10.81,1.67-.34-7.76,2.28-14.86,6.23-21.52C326.51,476.83,328.48,472.77,328.59,472.53Z"/><path class="cls-4" d="M281.07,518.18c-9.42,2.79-17.6,11-27.58,12.73,3.48,0,7.31-.82,8.33,3.33.69,2.83-1.59,7.28-3.29,8.59,5-3.49,7.12.64,6.88,5.14,3.82-8.08,7.52-18.91,14.75-24.59C281.86,522,283.88,521.48,281.07,518.18Z"/><path class="cls-4" d="M241.41,565.7c-5.63-.15-14.13,8.31-19.13,11.06-2.39,1.31-4.61,2.9-6.92,4.29a2.32,2.32,0,0,1,.58.26c-1.44.94-2.89,1.81-4.34,2.74a5.77,5.77,0,0,1,5.58,8.85c2.22-.76,14.06-4.45,10.84,2.36-1.27-7.5,3.29-16.13,6.79-22.42C236.3,570.16,238.68,563.81,241.41,565.7Z"/><path class="cls-4" d="M213.72,543.63c-7.11.35-14.54,6.38-21.35,8.62a26.85,26.85,0,0,0-6.75,3.06c2.48,1.25,13.25,7.35,7.65,11.08,6-3.83,8.44,1.87,11,6.44C205.22,562.87,207.13,550.4,213.72,543.63Z"/><path class="cls-4" d="M217.11,460.34c.16,2.3-1.4,4.15-2.42,6.14-2.22,4.34-4.51,8.82-5.51,13.64-1.55,7.43-1,15.51-1,23.07a42.2,42.2,0,0,0,2.94,16c1.44,3.41,5,7.74,1.06,10.48-2.17,1.52-7.43,1.05-10,.69s-2.13.57-3.82-2.37c-2.82-4.87-3.12-11.83-3.68-17.28-.92-9-3-19-1.8-28.07.86-6.46,5.73-11.71,9.62-16.62,2.44-3.1,4.34-7.57,7.38-10,2-1.64,1.62-1.24,3.61-.92C215.3,455.36,220,457,217.11,460.34Z"/><path class="cls-4" d="M189.38,357.23c.42,6.89-7.32,11.83-12.79,13.6,6.16,3.84,11.46,10.89,15.28,17.21,1.49-3.26,10.65-19,15.59-14.12C203.88,366.39,194.34,361.54,189.38,357.23Z"/><path class="cls-4" d="M180.85,361.5c-2.47-6.66-4-14.38,1.85-19.78,4.68-4.33,9.45-3.91,14.19-.13s5.59,6.59,5.65,12.31c0,2.57.8,5.57.11,8,6.78-1,14.15-5.33,19.88-.29,4.53,4,7.38,13.19,5.9,19.36-2.74,11.49-19.71,4.23-25.14-1.29.79,6.89,4.29,18.07.88,24.56-4.14,7.89-16.57,4.49-21.11-1.05-4.18-5.1-1.63-11.59,1-16.46-9.6-.05-18,2.84-24-6.78-3.1-5-6.42-12.33-.29-16.53,6.31-4.32,13.11.38,18.25,3.07"/><path class="cls-4" d="M166.63,353.32c-.73-4-2.89-15-7.37-16.74,4.52,1.41,8.93,4,13.41,5.72"/><path class="cls-4" d="M206.45,345.86c7.69,0,15-5.87,22-5.95-.33,4.3-3.52,11.35-6.75,14.48"/><path class="cls-4" d="M219.25,393.14c-.08,5.51,2.45,10,3.21,15.3-4.71-1.78-8-5.34-12.1-7.83"/><path class="cls-4" d="M163.43,387.1c.22,5.07-3.37,10.06-3.18,15.19,3.84-2.87,7.19-3.42,11.71-3.46"/><path class="cls-4" d="M190.09,412.34c-.71,8.54,10.47,17.07,16.37,21.78,5,4,9.95,4.31,15.66,6.37,7,2.51,15.06,7.39,19.17,13.8"/><path class="cls-4" d="M206.09,436.52c-.86,5.34,11.63,17.14,17.78,16.35"/><path class="cls-4" d="M203.6,409.85c-.18,7,15.22,13,20.54,15.69,5,2.47,10.27,3.1,14.87,6.46,5.17,3.77,9.36,11.94,11.17,18"/><path class="cls-4" d="M256.93,457.14c-.36-6.74-4-14.5-5.54-21.17s-3.2-16-1.18-22.7c.84-2.82,7.63-11.42,11.35-10.91,2,.27,2.79,3.23,3.5,5.08,3.41,8.83,4.16,20.15,4,29.54-.09,6.41-2.77,11.2-5.94,16.6C262.2,455.18,261.11,456.38,256.93,457.14Z"/><path class="cls-4" d="M261.91,460.69c8,.06,9.41,4.17,13.64,10.86,1.43,2.27,5.35,6.42,3.55,9.44-3.84,6.47-20-.16-25.2-1.06-2.85-.49-8.2-2.75-10.48-2.17"/><path class="cls-4" d="M277.91,490.91c-.73,11.69-23.43,13.42-31.29,9.25"/><path class="cls-4" d="M268.31,505.49c-.6,13.49-23.62,16.31-30.93,7.47"/><path class="cls-4" d="M255.16,521.84c-.37,8.78-17.76,7.47-23,7.47-3.46,0-9.14-2.06-12.19-.71"/><path class="cls-4" d="M606.66,337.51a42.28,42.28,0,0,0,11.79,8.7c0-4.82-8.32-10.39-13-9.95"/><path class="cls-4" d="M605.12,345.1c0,1.94-.35,4.09.06,6,1,4.45,5.25,8.52,7.75,12.18.93,1.38,4.56,9,6.78,5.34,1.94-3.19-5.83-9.94-8-11.81a15,15,0,0,1-4.6-6.73"/><path class="cls-4" d="M601.62,361.43c0,6.25-.8,18.05,7.82,19.22,1.67-3.41-3.58-9.78-5-12.74C603.43,365.86,602.65,363.55,601.62,361.43Z"/><path class="cls-4" d="M596.08,371.63c.1,3.53,5.35,16.07,10.18,15.09C606.82,383.4,602.3,376,596.08,371.63Z"/><path class="cls-4" d="M594.91,381c0,6.08.23,9.88,4,14.77,1.33,1.73,2.81,4.57,5.29,4.44C605,394,595.11,389.14,594.91,381Z"/><path class="cls-4" d="M592.58,394.67c0,3.63-1.49,12.56,3.46,13.67C596.48,404.13,593.53,399.68,592.58,394.67Z"/><path class="cls-4" d="M589.37,406.91c-2,3.58,4.27,10.86,6.22,14C596.15,418,592.65,412.92,589.37,406.91Z"/><path class="cls-4" d="M583.25,412.16c-.16,6.51,5,11.89,9.36,16.31.88.88,7.56,9.26,9.73,6.85,2.62-2.93-4.56-12.48-6.37-14.06-2.88-2.49-5.76-4.67-8.05-7.35"/><path class="cls-4" d="M583,428.78c0,2.28-.81,11.17,3.44,12.22C587.66,438.28,586.1,434.59,583,428.78Z"/><path class="cls-4" d="M578.88,440.74c0,1.59,1,14.63,4.53,13.11C585.49,452.94,580.06,445.25,578.88,440.74Z"/><path class="cls-4" d="M575.38,462.9c1.64,2.33,10.24,7.29,13.38,7.25-.2-1.85-5.48-4.69-7-6S578.93,461.41,575.38,462.9Z"/><path class="cls-4" d="M566.05,489.14c-.36-.63-.06-.09-.63.82-.9,1.44-2.31,4-2.24,5.77.11,2.82,3,5.26,5.74,5.63C569.12,498.57,569.18,493,566.05,489.14Z"/><path class="cls-4" d="M559.92,505.47c-.95,4,6.59,2.59.59-.58"/><path class="cls-4" d="M564.88,508.09c.06,5.15,3.25,13.53,9,14.88,1.08-3.07.28-8.77-2.9-10.5"/><path class="cls-4" d="M576,501.39c-2.27,1.83-1.26,7.66,2.73,5.81,2.45-1.14,2.92-8.2-1-7.56"/><path class="cls-4" d="M544.47,461.15a38.08,38.08,0,0,1-.1,6.41c-.31,1.77-2,4.39-1.65,6.15.32,1.45.25,2.32,2.25,1.54C548.51,473.87,547.09,465,544.47,461.15Z"/><path class="cls-4" d="M532.22,451.82c.83,5.54,1,9.65-.74,15.21-.93,2.91-2,5.76,1.23,7.64,6.43,3.74,4.47-7.36,4.47-10.72,0-2.39,1-6.7-.87-8.63"/><path class="cls-4" d="M526.39,444.24c-1.89,4.23-2.27,9.05-2,13.67C527.43,457.94,527.25,445.61,526.39,444.24Z"/><path class="cls-4" d="M516.77,434.91c-.29,5.47-1.43,10.77-1.12,16.33C517.65,449.13,520.6,439.73,516.77,434.91Z"/><path class="cls-4" d="M506.56,426.74c.13,7.05-9.45,17.36-3.8,24.27,1.83-1.85,6.72-20,2.64-19.89"/><path class="cls-4" d="M499.28,421.2c-2.7,1.35-5.36,9.78-2.93,12.32C499.08,430,497.77,424.07,499.28,421.2Z"/><path class="cls-4" d="M485.57,405.75c-.14,2.65,1.35,6.16,1.78,8.79.36,2.2.51,6.78,3.49,6.94.73-2.14.93-7.44,0-9.58-.62-1.34-2-1.5-2-2.94"/><path class="cls-4" d="M480,403.12c-1,2.25-11.43,18.3-3,19C478.4,416.67,480.72,409.9,480,403.12Z"/><path class="cls-4" d="M469.83,391.17a26.78,26.78,0,0,0,3.22,12.59C475,401.81,474,392.88,469.83,391.17Z"/><path class="cls-4" d="M458.75,380.09c0,8.63-.08,15.67,3.16,23.62.29-4.13-1.25-9.57-1.92-13.68-.34-2-.34-3.77-1.83-4.69"/><path class="cls-4" d="M450.29,375.13c-3.29,1-9.11,14.19-4.21,15.35C449.73,391.35,453.31,374.93,450.29,375.13Z"/><path class="cls-4" d="M439.79,365.51a4.68,4.68,0,0,0,0-.84c-2.5,1-5.53,7.23-2.15,8.72,4.25,1.88,3.68-4.89,2.78-7"/><path class="cls-4" d="M429.88,356.18c-.35,1.29-4.23,12.66-.21,11,3.07-1.29.85-7.77-.08-9.8"/><path class="cls-4" d="M416.47,349.18c-.94,2.53-6.8,17.37-2,17.83C418.37,367.38,417.63,355.4,416.47,349.18Z"/><path class="cls-4" d="M406,333.14c1.25-.14.58,4.79.58,6.15a30.39,30.39,0,0,0,.94,9.32C410,347.19,407.94,338.13,406,333.14Z"/><path class="cls-4" d="M397.22,328.19c-.45,2.84-2.88,12.32.53,14C399,338.33,398.39,333.67,397.22,328.19Z"/><path class="cls-4" d="M389.64,323.23c-2.86-.42-7.48,3.85-8.94,6.08,4.41.22,3.21-2,4.27-4.33"/><path class="cls-4" d="M526.59,88.38l-125,229"/><polyline class="cls-4" points="488.51 92.67 348.75 323.2 218.02 421.2"/><polyline class="cls-4" points="464.09 93.03 380.7 244.33 335.59 233.38 333.25 92.67"/><line class="cls-4" x1="199.67" y1="429.94" x2="183.33" y2="438.88"/><polyline class="cls-4" points="196.19 533.08 149.49 558.23 230.59 616.38"/><line class="cls-4" x1="310.3" y1="543.63" x2="575.38" y2="547.97"/><line class="cls-4" x1="269.1" y1="586.02" x2="542.66" y2="591.12"/><path class="cls-4" d="M237.38,610.34a274.29,274.29,0,0,1,18.21-30,292.07,292.07,0,0,1,37-43c20.06-19.27,23.13-17,39-34,14.18-15.21,23-24.87,26-40,3.59-17.85-2.94-32.74-7-42-13.68-31.23-40.24-47-52-53"/><path class="cls-4" d="M312.88,361.75a134.37,134.37,0,0,1,40.71,37.63c9.87,14,22.51,31.93,21,56-1.35,21.62-13.42,36.93-19,44-11,13.93-17.9,14.66-35,29-11,9.25-22.17,23.29-44,51-10.92,13.86-25,32.1-41,54l-99-65,31-61-20.45-20.75,19-19.16-28.51-49.09,34.72,19.88,33,18.88"/><polyline class="cls-4" points="168.59 541.38 183.33 513.47 166.1 486.63 183.33 476.76 171.96 442.25"/><line class="cls-4" x1="185.62" y1="450.03" x2="192.57" y2="469.68"/><polyline class="cls-4" points="192.9 482.64 180.32 492.75 192.57 505.49 180.32 541.38"/><line class="cls-4" x1="436.96" y1="256.93" x2="441.59" y2="287.38"/><line class="cls-4" x1="446.33" y1="241.27" x2="453.59" y2="286.38"/><line class="cls-4" x1="453.59" y1="226.55" x2="465.36" y2="287.38"/><line class="cls-4" x1="468.59" y1="249.38" x2="474.59" y2="291.38"/><line class="cls-4" x1="482.28" y1="267.03" x2="484.59" y2="292.38"/><line class="cls-4" x1="495.88" y1="281.91" x2="495.88" y2="294.84"/><path class="cls-4" d="M520.59,296.38a176,176,0,0,1-92-16.68"/><path class="cls-4" d="M458.16,221.32c6,16.29,20.11,46.28,51.12,66.06,12.25,7.81,31.11,19.83,51.31,14,16.06-4.64,24.72-18.18,31-28,12.35-19.31,13.57-39.24,16-78,.85-13.49,1-24.61,1-32"/><path class="cls-4" d="M639.59,343.38a409.68,409.68,0,0,0-31-187"/><line class="cls-4" x1="580.32" y1="294.84" x2="662.24" y2="361.75"/><line class="cls-4" x1="714.83" y1="403.71" x2="696.39" y2="391.17"/><path class="cls-4" d="M424.51,292.38a304.3,304.3,0,0,0,86.08,17,304.17,304.17,0,0,0,72-5"/><path class="cls-4" d="M606.31,326a335,335,0,0,1-91.72,8.41,335.25,335.25,0,0,1-102-21"/><polygon class="cls-4" points="453.59 341.22 581.38 345.1 558.3 441 453.59 341.22"/><polygon class="cls-4" points="482.28 356.18 569.89 357.33 552.11 422.1 482.28 356.18"/><polyline class="cls-4" points="517.49 360.62 537.75 369.57 550.4 361.43"/><polyline class="cls-4" points="495.4 360.62 540.28 380.65 562.13 361.43"/><polyline class="cls-4" points="505.59 374.38 542.58 389.14 562.13 374.38"/><polyline class="cls-4" points="521.43 389.14 545.11 400.17 557.53 389.14"/><polyline class="cls-4" points="536.37 403.76 550.4 408.44 554.54 403.12"/><polyline class="cls-4" points="415 297.08 427.86 302.92 421.43 309.75 407.3 306.92"/><polygon class="cls-4" points="431.24 302.92 445.59 308.38 442.56 317.38 428.59 312.13 431.24 302.92"/><polyline class="cls-4" points="453.59 309.75 469.59 311.38 467.59 321.38 452.3 317.38 453.59 311.63"/><polygon class="cls-4" points="478.16 313.38 488.51 315.57 490.59 325.38 474.59 324.06 478.16 313.38"/><rect class="cls-4" x="498.15" y="317.38" width="14.44" height="9"/><polygon class="cls-4" points="522.59 316.38 524.01 316.38 533.94 316.38 535.59 326.38 523.17 325.38 522.59 316.38"/><polygon class="cls-4" points="542.98 316.38 560.61 316.38 558.11 327.08 544.88 327.08 542.98 316.38"/><polygon class="cls-4" points="566.59 315.38 582.59 315.38 581.38 321.88 566.59 322.55 566.59 315.38"/><polyline class="cls-4" points="598.59 310.38 588.83 313.38 592.59 323.38 603.77 318.96"/><path class="cls-4" d="M493.59,162.44c4.69-4.63,9.62-9.17,16.1-10.82,7.13-1.82,14.92-4.11,22.34-3.4,7.07.67,18.12,5.47,20.52,12.84-5.61-3.24-14.28-2.5-20.62-3.59-5.38-.92-12-.16-17.34.5a100.07,100.07,0,0,0-14.5,3.05A53.66,53.66,0,0,1,493.59,162.44Z"/><path class="cls-4" d="M538.1,172.15c-.38-2.56-4.4-3.47-6.32-4.4-2.69-1.31-5.79-2.75-8.81-3.1-5.78-.69-12,1.94-16.53,5.33-3.14,2.34-6.29,4.5-8.78,7.55a26.46,26.46,0,0,0-2.47,4.39"/><path class="cls-4" d="M540.59,181.38a25.6,25.6,0,0,1,4,4,35.11,35.11,0,0,1-18,6c-4.24.17-8.53.34-13-2-4-2.07-5-4-10-5-2-.41-4.49.93-5,1-2.9.37-7.22-.55-10,.32-.23-1-.7-2.66.34-3.3,1.64-1,8.05-.05,10.64-1,8-3,8.17-4.93,19-6C520.42,175.2,531.67,174.24,540.59,181.38Z"/><path class="cls-4" d="M507.52,181.92a70.63,70.63,0,0,1,28.07-1.54"/><path class="cls-4" d="M517.8,181.27c-.22,2.58,2.18,5.36,4.07,6.84s5.09,1.68,7.48,1c3.54-1,5.08-4.76,4.72-8.32"/><path class="cls-4" d="M521.65,180.52c.14,1.66,4.55,6,6.53,5.34,1.59-.54,1.54-3.2,1.67-4.47"/><path class="cls-4" d="M570.4,185.57c1.17-2.52,5.13-5.26,7.59-6.47a28.63,28.63,0,0,1,9.26-2.47,41,41,0,0,1,18.08,2c.24,0-.13-.08-.18-.13-.22,3.15-3.11,6.46-5.41,8.32-3,2.46-6,5.07-10.11,5.41a22.35,22.35,0,0,1-14.25-4A43,43,0,0,0,570.4,185.57Z"/><path class="cls-4" d="M606,174.58c-1.42-3.2-5.89-5.14-8.89-6.43a42.07,42.07,0,0,0-11.55-3c-4.39-.52-6.61.42-10,3.38-1.64,1.44-2.11,3-3.18,4.78"/><path class="cls-4" d="M569.43,175.39c-.24-5.06,4-9.88,7.7-12.87,3.15-2.54,5.93-5,9.92-6.05,5.69-1.52,14.38-2.3,19.55.82"/><path class="cls-4" d="M579.13,180.08c-.66,5.56,8.24,11.92,13.29,9.5,3.16-1.52,6.8-8,6.59-11.6"/><path class="cls-4" d="M593.51,177.17c.39,4.32-2.54,7.76-6.88,7-2.8-.52-3.14-3-3.14-5.34"/><path class="cls-4" d="M565.23,245.05c0-3.63,1.5-5.67,4.61-7.51,1.94-1.15,4.58-1.53,6-3.42,5.51-7.43-2.63-14.13-3-21.55-.42-8.15-3.25-16-3.54-24.16a89.54,89.54,0,0,1,.16-9"/><path class="cls-4" d="M558.76,238.26c-.74-1.57-4.11-1.72-5.56-1.78-2.93-.14-4.87,1.05-7.05,2.87s-4.71,4.79-7.72,3.45c-6.81-3-1.41-12.88,2.23-16"/><path class="cls-4" d="M571,262.41a13.25,13.25,0,0,0-2.21-1,17.79,17.79,0,0,0-5,.12,4.34,4.34,0,0,0-2.72,1.39,3.68,3.68,0,0,1-4.21.89c-2.52-.79-4.2-3.53-7-3.63-1.56-.06-3,1.43-3.94,2.52-.65.73-3.79,4.25-3.25,5.07a21.67,21.67,0,0,1,4.73.67c1.4.41,2.75,1.75,4,2.52a11.76,11.76,0,0,0,6.68,1.83c4.26,0,8.36-2.48,11.66-4.9"/><path class="cls-4" d="M545.91,274.05c.6.4,1.51.74,2.19,1.16,1.66,1,2.72,2.4,4.71,2.85a27.27,27.27,0,0,0,9.45.18c2.82-.4,4-1.45,6.06-3.09"/><line class="cls-4" x1="348.74" y1="323.2" x2="547.08" y2="511.76"/><ellipse class="cls-4" cx="571.59" cy="504.88" rx="16" ry="31.5"/><line class="cls-4" x1="634.86" y1="339.39" x2="596.08" y2="497.05"/><line class="cls-4" x1="269.1" y1="457.14" x2="333.98" y2="403.76"/><polygon class="cls-4" points="684.18 175.39 663.59 207.38 680.59 239.38 702.54 207.38 684.18 175.39"/><polygon class="cls-4" points="683.07 192.26 673.38 207.38 680.59 222.38 692.1 207.38 683.07 192.26"/><circle class="cls-4" cx="668.59" cy="244.38" r="11"/><circle class="cls-4" cx="694.09" cy="244.88" r="11.5"/><path class="cls-4" d="M679.59,253,665.46,359.59Z"/><line class="cls-4" x1="696.39" y1="357.33" x2="679.59" y2="253"/><path class="cls-4" d="M662.59,361.38a6,6,0,0,1,3,2c2.71,3.58-1.41,8.52-1,14,.5,6.71,7.85,14.93,17,15,8.39.06,15.08-6.75,17-14,2.16-8.17-2.24-14.89-3-16"/><circle class="cls-4" cx="682.09" cy="411.88" r="14.5"/><line class="cls-4" x1="673.74" y1="536.38" x2="665.59" y2="448.38"/><line class="cls-4" x1="687.78" y1="545.38" x2="698.94" y2="448.38"/><path class="cls-4" d="M665.59,441a17.5,17.5,0,0,1,33,2.38"/><polyline class="cls-4" points="358.63 503.58 387.32 507.56 424.51 543.63"/><polyline class="cls-4" points="444.19 539.18 391.57 489.36 362.87 489.36"/><polyline class="cls-4" points="371.44 479.64 393.68 479.64 458.16 539.18"/><polyline class="cls-4" points="376.43 470.15 395.26 470.15 471.9 539.18"/><polyline class="cls-4" points="484.78 539.18 403.53 463.62 376.43 462.28"/><circle class="cls-4" cx="438.09" cy="418.88" r="3.5"/><circle class="cls-4" cx="429.09" cy="453.88" r="4.5"/><circle class="cls-4" cx="491.09" cy="467.88" r="2.5"/><circle class="cls-4" cx="349.59" cy="380.38" r="4"/><path class="cls-4" d="M683,292.28c0,16.69,1.28,33.16,2.33,49.79.44,7.06,2.18,14,2.55,21.08.19,3.49.83,8.66-.92,11.69s-5.22,3.11-8.1,4.28"/><path class="cls-4" d="M683.41,403.94c2.31-.9,8.91,10.74,8.28,13.91-.88,4.4-7,3.4-10.16,4.51"/><path class="cls-4" d="M683.79,443.79c14.92-3.32,3.08,50.82,2.63,57.83-.62,9.73-.59,19.65-2.93,29.15-.92,3.77-2.58,7.6-2.71,11.51"/><path class="cls-4" d="M365.33,234.6c0-4-.63-17.82-5.7-18.29,12.43,6.18,29.38.35,30.69-14.14.56-6.23-3.38-8.32-5-13.5,8.46-1.21,36.51-13.95,30-26.56-1.7-3.31-6.58-6.42-9.18-9.16-2.34-2.46-3.28-4.82-5.07-7.61,8.5-5.09,26.23-1.31,26.65-14.78.13-4-1.51-7.19-2.09-11-.47-3.07,0-6-.8-9.07,8.55,4,15.08,2.52,21.62-4.16,2.58-2.63,9.78-9.17,8.73-13.31"/><path class="cls-4" d="M429.52,106.58c6.4-3.82,9.34-7.74,7.49-15"/><path class="cls-4" d="M423.81,101.59c-3.45-1.23-5.08-9.16-2.53-12-6.53-3.47-17.8,1.93-21.25,8-1.53,2.68-2.27,6.8.51,8.27,2,1.07,5.85-.15,7.54-1.37.11,2.51-.59,5.43,1,7.51-5.46,2.6-11.39,14-4.87,18,2.84,1.74,7.33,2.15,9.62-.29s1.63-7.2,2.87-9.85"/><path class="cls-4" d="M422,115.85c-4.33-.19-10.89-4.91-7.22-9.72,2.19-2.86,6.07-.31,7.58,2.23"/><path class="cls-4" d="M389.58,176.47c5.12-1.76,12.87-2.17,13.86-8.31.53-3.34-1.36-9.43-4.21-11.67-6.54-5.13-12.9,1.56-17,6.23-1.37,1.57-5.88,8.53-1.67,9.19-5.22-3.88-13.88-15.28-20.62-7.56-2.47,2.82-4.53,10.46-2.65,14.29,2.05,4.16,7.8,3.17,11.47,3.89-5.77,2.8-11.51,18-3.1,20,7.94,1.87,7.9-7,12.12-10.35"/><path class="cls-4" d="M382.81,186.1c-4.46.44-10.28-6.52-5.55-8.56,3.65-1.58,6.27,1,8,3.57"/><path class="cls-4" d="M539.5,191.08c-2,7.32-8.56,12.14-14,16.24"/><path class="cls-4" d="M571.22,192c3.55,2.58,8.12,6.22,10.53,10"/><path class="cls-4" d="M290.32,1036.45c-1.89-3.33-2.65-8.66-4.19-12.52-2-5.14-5.21-8.47-8.53-12.69-5-6.33-8-11.15-15.36-15.12-6.4-3.47-14.86-4.23-20.65-8.75"/><path class="cls-4" d="M280.29,1036.81c-1.33-3.42-4.79-6.32-6.83-9.39-2.33-3.51-4.46-7.15-6.78-10.67-3.43-5.22-5.87-7.77-11.24-10.57-4.52-2.35-8.62-4.84-13.43-6.69a6.92,6.92,0,0,1-.06-1.37"/><path class="cls-4" d="M239.09,1007.79c4.77-.76,10.71,5.3,13.67,8.42,4.35,4.59,7.94,8.68,13,12.48,3.72,2.78,4.49,3.84,4.49,8.12"/><path class="cls-4" d="M259.86,1037.53c.77-6.13-6.49-13.82-10.8-17.62a24.47,24.47,0,0,0-6.75-4.24"/><path class="cls-4" d="M252,1037.53a15.6,15.6,0,0,0-10-11.83"/><path class="cls-4" d="M241.24,976.27c0,13.8-1.38,31.36,1,45.83.84,5,.1,9.69-1,14.35"/><path class="cls-4" d="M312.53,1039c-1.58-3,2.2-7.28,4.22-9.61,3-3.47,5.3-3.79,9.22-5.59,2.46-1.12,3.88-2.88,6.62-3.07"/><path class="cls-4" d="M304.65,1037.53c2-6.79,7-12.3,11.58-17.49,2.16-2.45,4.59-6.11,7.43-7.79,6.55-3.89,16-1.34,22.19-4.46"/><path class="cls-4" d="M298.56,1038.6c0-8.17.44-12.92,5.53-19.51s12-10.05,19.26-13.87a38.13,38.13,0,0,1,12.27-4.06c1.85-.29,4.12-.37,5.57-1.25"/><path class="cls-4" d="M350.14,991.31c-7.7-.07-13.21-1.93-20.61,1.83-6.75,3.42-12.38,8.39-18.22,13s-10.46,7.54-14.46,14c-1.77,2.87-2.76,6.76-5.46,8.77"/><path class="cls-4" d="M198.59,772c7.13-1.17,17.15-13.08,21.13-19.14,3.15-4.79,3.67-11.21,3.1-17-.94-9.54-8.23-12.74-17.18-12.74-4.17,0-7.11-.42-6.2,4.67"/><path class="cls-4" d="M221.53,725.32c.22-9.16-3.83-17.75-4.26-26.9-.35-7.58,1.43-10.19,8.93-12.61"/><path class="cls-4" d="M215.58,710.45c.82-17.77-16.65-33.16-8.72-50.65,3-6.67,4.92-8.9,2.08-16-.5-1.27-5.42-12.73-7.38-8.07"/><path class="cls-4" d="M519.38,766.42c.44,5.1,5.25,12.44,1,16.73-2.76,2.79-15.28,2.66-18.75,1.43-7.14-2.52-12.5-11.16-13.19-18.12-1.11-11.17-2.79-21.14-4.83-32.18-3.41-18.46-4.56-44-27-49.71-6.68-1.69-17.12-1.54-23.28,1.61-8.28,4.24-7.06,17.51-7.36,25.72-.36,9.89,1.52,22.68,13.42,23,7.53.2,15.3-4,18.85-10.37-.16,12.52,6.5,21.21,17.72,27.43"/><path class="cls-4" d="M418.8,695.42c-13.56,1.22-33.2,2-37.18-13.68-2-7.67,3.73-11.46,4.36-18.31s-5.9-12.23-9-17.75c-2.38-4.26-4-8.73-6.2-13-3.78-7.31-9-8.39-16.24-11.16-9.15-3.52-22.62-5.31-27.57,6-6.51,14.89,10.55,20.36,22,19.94-15.58-1.2-20.9-12.85-14.35-25.55-8.18-.68-15,3.53-20-4-2.67-4.08-2.92-6.3.28-9.86"/><path class="cls-4" d="M511.4,708.86c6.61-.35,13.51-4.56,19.62-6.88,2.66-1,8-1.49,9.15-4.28-8.26-.51-12.74-3.42-8.21-12-2.11.1-6.19,1.74-7.86.15-.92-.88-.82-3.66-1.49-4.91.19,8.09-2.17,12.51-6.53,18.89C514.85,701.66,514.12,703.86,511.4,708.86Z"/><path class="cls-4" d="M521.88,659.09c8.24-2.85,16.5-7.85,24.63-11.38,2.11-.91,6.61-1.19,6.79-3.89-3.34-.31-10.86-1-12.56-4.49-1.22-2.51.57-4.55,1.67-6.76-2.53,1.9-11.76,2.74-10.81-1.67.34,7.76-2.28,14.86-6.23,21.52C524,654.8,522,658.86,521.88,659.09Z"/><path class="cls-4" d="M569.4,613.45c9.41-2.79,17.6-11,27.58-12.74-3.48,0-7.31.83-8.33-3.33-.69-2.83,1.59-7.27,3.29-8.58-5,3.49-7.12-.64-6.88-5.14-3.82,8.08-7.52,18.91-14.75,24.59C568.61,609.59,566.59,610.15,569.4,613.45Z"/><path class="cls-4" d="M609.06,565.93c5.63.14,14.13-8.31,19.13-11.06,2.39-1.31,4.61-2.9,6.92-4.29a2.32,2.32,0,0,1-.58-.26c1.44-.94,2.89-1.81,4.34-2.75a5.76,5.76,0,0,1-5.58-8.84c-2.22.75-14.06,4.45-10.84-2.36,1.27,7.5-3.29,16.13-6.79,22.42C614.17,561.47,611.79,567.82,609.06,565.93Z"/><path class="cls-4" d="M636.75,588c7.11-.36,14.54-6.39,21.35-8.62a26.85,26.85,0,0,0,6.75-3.06c-2.48-1.26-13.25-7.36-7.65-11.08-6.05,3.82-8.44-1.87-11-6.44C645.25,568.76,643.34,581.22,636.75,588Z"/><path class="cls-4" d="M633.36,671.29c-.16-2.31,1.4-4.16,2.42-6.14,2.22-4.34,4.5-8.83,5.51-13.64,1.55-7.43,1-15.51,1-23.07a42.29,42.29,0,0,0-2.94-16c-1.44-3.4-4.95-7.73-1.06-10.47,2.17-1.52,7.43-1.05,10-.69s2.13-.57,3.82,2.37c2.82,4.87,3.12,11.83,3.68,17.27.92,9,3,19,1.8,28.07-.86,6.47-5.73,11.72-9.62,16.63-2.44,3.09-4.34,7.57-7.38,10-2,1.64-1.62,1.23-3.61.92C635.17,676.27,630.48,674.59,633.36,671.29Z"/><path class="cls-4" d="M661.09,774.39c-.42-6.88,7.32-11.82,12.79-13.6-6.16-3.83-11.46-10.88-15.28-17.2-1.49,3.25-10.65,19-15.59,14.11C646.59,765.24,656.13,770.09,661.09,774.39Z"/><path class="cls-4" d="M669.62,770.13c2.47,6.66,4,14.37-1.85,19.78-4.68,4.32-9.45,3.9-14.19.13s-5.59-6.59-5.65-12.31c0-2.57-.8-5.58-.11-8-6.78,1-14.15,5.33-19.88.29-4.53-4-7.38-13.2-5.9-19.37,2.74-11.48,19.71-4.22,25.13,1.3-.78-6.89-4.28-18.08-.87-24.56,4.14-7.9,16.57-4.49,21.11,1.05,4.18,5.1,1.63,11.58-1,16.46,9.6,0,18-2.85,24,6.78,3.1,4.95,6.42,12.33.29,16.53-6.31,4.32-13.11-.38-18.25-3.07"/><path class="cls-4" d="M683.84,778.3c.73,4.05,2.89,15,7.37,16.75-4.52-1.41-8.93-4-13.41-5.72"/><path class="cls-4" d="M644,785.77c-7.69,0-15,5.86-22,6,.33-4.31,3.52-11.35,6.75-14.48"/><path class="cls-4" d="M631.22,738.48c.08-5.5-2.45-10-3.21-15.3,4.71,1.78,8,5.35,12.1,7.84"/><path class="cls-4" d="M687,744.53c-.22-5.07,3.37-10.06,3.18-15.2-3.84,2.88-7.19,3.42-11.71,3.47"/><path class="cls-4" d="M660.38,719.29c.71-8.54-10.47-17.07-16.37-21.79-5-4-10-4.3-15.66-6.36-7-2.51-15.06-7.39-19.17-13.81"/><path class="cls-4" d="M644.38,695.11c.86-5.35-11.63-17.14-17.78-16.35"/><path class="cls-4" d="M646.87,721.78c.18-7-15.22-13-20.55-15.69-5-2.47-10.26-3.1-14.86-6.47-5.17-3.77-9.36-11.94-11.17-18"/><path class="cls-4" d="M593.54,674.49c.36,6.73,4,14.5,5.54,21.17s3.19,16,1.18,22.7c-.84,2.82-7.63,11.42-11.35,10.91-2-.27-2.79-3.23-3.5-5.08-3.41-8.83-4.17-20.15-4-29.54.09-6.41,2.77-11.2,5.94-16.6C588.27,676.45,589.36,675.25,593.54,674.49Z"/><path class="cls-4" d="M588.56,670.93c-8-.06-9.41-4.16-13.64-10.85-1.43-2.27-5.35-6.42-3.56-9.44,3.85-6.47,20,.16,25.21,1.05,2.85.49,8.2,2.76,10.48,2.18"/><path class="cls-4" d="M572.56,640.71c.73-11.69,23.43-13.41,31.29-9.24"/><path class="cls-4" d="M582.16,626.14c.6-13.49,23.62-16.31,30.93-7.47"/><path class="cls-4" d="M595.31,609.78c.37-8.78,17.76-7.46,23-7.46,3.46,0,9.14,2.06,12.19.71"/><path class="cls-4" d="M243.81,794.12A42.66,42.66,0,0,0,232,785.41c0,4.82,8.32,10.4,13,10"/><path class="cls-4" d="M245.35,786.53c0-1.94.35-4.09-.06-6-1-4.44-5.25-8.51-7.75-12.18-.93-1.38-4.56-9-6.78-5.33-1.94,3.19,5.83,9.94,8,11.81a14.89,14.89,0,0,1,4.6,6.73"/><path class="cls-4" d="M248.85,770.2c0-6.26.8-18.05-7.82-19.22-1.67,3.41,3.58,9.78,5,12.74C247,765.77,247.82,768.08,248.85,770.2Z"/><path class="cls-4" d="M254.39,760c-.1-3.53-5.35-16.06-10.18-15.09C243.65,748.23,248.17,755.6,254.39,760Z"/><path class="cls-4" d="M255.56,750.66c0-6.07-.23-9.88-4-14.77-1.33-1.73-2.81-4.56-5.29-4.43C245.47,737.67,255.36,742.49,255.56,750.66Z"/><path class="cls-4" d="M257.89,737c0-3.64,1.49-12.57-3.46-13.67C254,727.49,256.94,732,257.89,737Z"/><path class="cls-4" d="M261.1,724.71c2-3.57-4.27-10.85-6.22-14C254.32,713.67,257.82,718.71,261.1,724.71Z"/><path class="cls-4" d="M267.22,719.46c.16-6.5-5-11.88-9.36-16.3-.88-.89-7.57-9.26-9.73-6.85-2.62,2.92,4.55,12.48,6.37,14.06,2.88,2.49,5.76,4.67,8.05,7.34"/><path class="cls-4" d="M267.51,702.84c0-2.27.81-11.17-3.44-12.22C262.81,693.35,264.37,697,267.51,702.84Z"/><path class="cls-4" d="M271.59,690.89c0-1.6-1-14.63-4.53-13.11C265,678.69,270.41,686.38,271.59,690.89Z"/><path class="cls-4" d="M275.09,668.73c-1.64-2.33-10.24-7.29-13.38-7.25.19,1.84,5.48,4.68,7,6S271.54,670.21,275.09,668.73Z"/><path class="cls-4" d="M284.42,642.49c.36.63.06.09.63-.82.9-1.44,2.31-4,2.24-5.77-.11-2.82-3-5.27-5.74-5.64C281.35,633.06,281.29,638.59,284.42,642.49Z"/><path class="cls-4" d="M290.55,626.16c.95-4-6.59-2.6-.59.58"/><path class="cls-4" d="M285.59,623.53c-.06-5.14-3.25-13.53-9-14.88-1.08,3.07-.28,8.78,2.9,10.51"/><path class="cls-4" d="M274.51,630.24c2.27-1.84,1.26-7.66-2.73-5.81-2.45,1.13-2.92,8.2,1,7.56"/><path class="cls-4" d="M306,670.48a38.06,38.06,0,0,1,.1-6.41c.31-1.77,2-4.39,1.65-6.16-.33-1.44-.25-2.32-2.25-1.53C302,657.75,303.37,666.59,306,670.48Z"/><path class="cls-4" d="M318.25,679.81c-.83-5.54-1-9.66.74-15.21.93-2.91,2-5.77-1.23-7.64-6.43-3.74-4.47,7.36-4.47,10.71,0,2.4-1,6.71.87,8.64"/><path class="cls-4" d="M324.08,687.39a29.43,29.43,0,0,0,2-13.67C323,673.69,323.22,686,324.08,687.39Z"/><path class="cls-4" d="M333.7,696.72c.29-5.47,1.43-10.78,1.12-16.33C332.82,682.5,329.87,691.9,333.7,696.72Z"/><path class="cls-4" d="M343.9,704.89c-.12-7.06,9.46-17.37,3.81-24.28-1.83,1.86-6.72,20-2.64,19.9"/><path class="cls-4" d="M351.19,710.43c2.7-1.35,5.36-9.79,2.93-12.32C351.39,701.65,352.7,707.55,351.19,710.43Z"/><path class="cls-4" d="M364.9,725.88c.14-2.65-1.35-6.17-1.78-8.8-.36-2.19-.51-6.78-3.49-6.93-.73,2.14-.93,7.44.05,9.58.62,1.33,2,1.5,2,2.94"/><path class="cls-4" d="M370.44,728.5c1-2.25,11.43-18.29,3-19C372.07,715,369.75,721.73,370.44,728.5Z"/><path class="cls-4" d="M380.64,740.46a26.75,26.75,0,0,0-3.22-12.59C375.51,729.82,376.49,738.75,380.64,740.46Z"/><path class="cls-4" d="M391.72,751.54c0-8.63.08-15.67-3.16-23.62-.29,4.13,1.25,9.57,1.92,13.68.33,2,.33,3.77,1.83,4.69"/><path class="cls-4" d="M400.18,756.5c3.29-1,9.11-14.19,4.21-15.36C400.74,740.28,397.16,756.7,400.18,756.5Z"/><path class="cls-4" d="M410.68,766.12a4.73,4.73,0,0,0,0,.84c2.5-1,5.53-7.23,2.15-8.72-4.25-1.88-3.68,4.89-2.78,7"/><path class="cls-4" d="M420.59,775.45c.35-1.29,4.23-12.67.21-11-3.07,1.29-.85,7.77.08,9.8"/><path class="cls-4" d="M434,782.45c.94-2.53,6.79-17.37,2-17.83C432.1,764.24,432.84,776.23,434,782.45Z"/><path class="cls-4" d="M444.5,798.48c-1.25.15-.58-4.78-.58-6.14A30.49,30.49,0,0,0,443,783C440.5,784.44,442.53,793.49,444.5,798.48Z"/><path class="cls-4" d="M453.25,803.44c.45-2.84,2.87-12.32-.53-14C451.48,793.29,452.08,798,453.25,803.44Z"/><path class="cls-4" d="M460.83,808.4c2.86.42,7.48-3.85,8.94-6.09-4.41-.21-3.21,2-4.27,4.34"/><path class="cls-4" d="M323.88,1043.25l125-229"/><polyline class="cls-4" points="361.96 1038.96 501.73 808.43 632.45 710.42"/><polyline class="cls-4" points="386.38 1038.6 469.76 887.29 514.88 898.25 517.22 1038.96"/><line class="cls-4" x1="650.8" y1="701.69" x2="667.14" y2="692.75"/><polyline class="cls-4" points="654.27 598.55 700.98 573.4 619.88 515.25"/><line class="cls-4" x1="540.17" y1="588" x2="275.09" y2="583.66"/><line class="cls-4" x1="581.37" y1="545.6" x2="307.8" y2="540.51"/><path class="cls-4" d="M613.09,521.28a274.27,274.27,0,0,1-18.21,30,292.07,292.07,0,0,1-37,43c-20.06,19.27-23.13,17-39,34-14.18,15.21-23,24.86-26,40-3.59,17.85,2.94,32.74,7,42,13.68,31.22,40.24,47,52,53"/><path class="cls-4" d="M537.59,769.88a134.37,134.37,0,0,1-40.71-37.63c-9.87-14-22.51-31.93-21-56,1.35-21.62,13.42-36.93,19-44,11-13.94,17.9-14.67,35-29,11-9.25,22.17-23.29,44-51,10.92-13.87,25-32.1,41-54l99,65-31,61L703.33,645l-19,19.16,28.51,49.09-34.72-19.88-33-18.88"/><polyline class="cls-4" points="681.88 590.25 667.14 618.16 684.37 645 667.14 654.87 678.51 689.37"/><line class="cls-4" x1="664.85" y1="681.6" x2="657.9" y2="661.95"/><polyline class="cls-4" points="657.57 648.99 670.15 638.87 657.9 626.14 670.15 590.25"/><line class="cls-4" x1="413.51" y1="874.69" x2="408.88" y2="844.25"/><line class="cls-4" x1="404.14" y1="890.35" x2="396.88" y2="845.25"/><line class="cls-4" x1="396.88" y1="905.07" x2="385.11" y2="844.25"/><line class="cls-4" x1="381.88" y1="882.25" x2="375.88" y2="840.25"/><line class="cls-4" x1="368.19" y1="864.6" x2="365.88" y2="839.25"/><line class="cls-4" x1="354.59" y1="849.71" x2="354.59" y2="836.79"/><path class="cls-4" d="M329.88,835.25a176.11,176.11,0,0,1,92,16.67"/><path class="cls-4" d="M392.31,910.3c-6-16.28-20.11-46.27-51.12-66-12.25-7.81-31.11-19.84-51.31-14-16.06,4.64-24.72,18.18-31,28-12.35,19.3-13.57,39.24-16,78-.85,13.49-1,24.61-1,32"/><path class="cls-4" d="M210.88,788.25a409.68,409.68,0,0,0,31,187"/><line class="cls-4" x1="270.15" y1="836.79" x2="188.23" y2="769.88"/><line class="cls-4" x1="135.63" y1="727.92" x2="154.08" y2="740.46"/><path class="cls-4" d="M426,839.25a303.42,303.42,0,0,0-158.08-12"/><path class="cls-4" d="M244.16,805.66a334.42,334.42,0,0,1,193.72,12.59"/><polygon class="cls-4" points="396.88 790.4 269.09 786.53 292.17 690.62 396.88 790.4"/><polygon class="cls-4" points="368.19 775.45 280.58 774.29 298.36 709.52 368.19 775.45"/><polyline class="cls-4" points="332.98 771.01 312.72 762.06 300.07 770.2"/><polyline class="cls-4" points="355.07 771.01 310.19 750.98 288.35 770.2"/><polyline class="cls-4" points="344.88 757.25 307.89 742.49 288.35 757.25"/><polyline class="cls-4" points="329.04 742.49 305.36 731.46 292.94 742.49"/><polyline class="cls-4" points="314.1 727.87 300.07 723.18 295.93 728.5"/><polyline class="cls-4" points="435.47 834.54 422.61 828.71 429.04 821.87 443.17 824.71"/><polygon class="cls-4" points="419.23 828.71 404.88 823.25 407.91 814.25 421.88 819.49 419.23 828.71"/><polyline class="cls-4" points="396.88 821.87 380.88 820.25 382.88 810.25 398.17 814.25 396.88 820"/><polygon class="cls-4" points="372.31 818.25 361.96 816.06 359.88 806.25 375.88 807.57 372.31 818.25"/><rect class="cls-4" x="337.88" y="805.25" width="14.44" height="9"/><polygon class="cls-4" points="327.88 815.25 326.46 815.25 316.53 815.25 314.88 805.25 327.3 806.25 327.88 815.25"/><polygon class="cls-4" points="307.49 815.25 289.86 815.25 292.36 804.55 305.59 804.55 307.49 815.25"/><polygon class="cls-4" points="283.88 816.25 267.88 816.25 269.09 809.75 283.88 809.08 283.88 816.25"/><polyline class="cls-4" points="251.88 821.25 261.64 818.25 257.88 808.25 246.7 812.67"/><path class="cls-4" d="M356.88,969.19c-4.69,4.63-9.62,9.17-16.1,10.82-7.13,1.82-14.92,4.11-22.34,3.4-7.07-.68-18.12-5.47-20.52-12.84,5.61,3.23,14.28,2.49,20.62,3.58,5.38.93,12,.17,17.34-.49a100.09,100.09,0,0,0,14.5-3.06A56.09,56.09,0,0,1,356.88,969.19Z"/><path class="cls-4" d="M312.37,959.48c.38,2.56,4.4,3.47,6.32,4.4a29.1,29.1,0,0,0,8.81,3.1c5.78.69,12-1.94,16.53-5.34,3.14-2.34,6.29-4.49,8.78-7.54a26.46,26.46,0,0,0,2.47-4.39"/><path class="cls-4" d="M309.88,950.25a25.6,25.6,0,0,1-4-4,35.11,35.11,0,0,1,18-6c4.24-.17,8.53-.34,13,2,3.94,2.07,5,4,10,5,2.05.41,4.49-.94,5-1,2.9-.37,7.22.54,10-.32.23,1,.7,2.66-.34,3.3-1.64,1-8,0-10.64,1-8,3-8.17,4.93-19,6C330.05,956.43,318.8,957.38,309.88,950.25Z"/><path class="cls-4" d="M343,949.71a71.13,71.13,0,0,1-28.07,1.54"/><path class="cls-4" d="M332.67,950.36c.22-2.59-2.18-5.37-4.07-6.84-2-1.59-5.09-1.68-7.48-1-3.54,1-5.08,4.76-4.72,8.32"/><path class="cls-4" d="M328.82,951.11c-.14-1.66-4.55-6-6.53-5.34-1.59.54-1.54,3.19-1.67,4.47"/><path class="cls-4" d="M280.07,946.06c-1.17,2.52-5.13,5.26-7.59,6.47a28.61,28.61,0,0,1-9.26,2.46,41.17,41.17,0,0,1-18.08-2c-.24,0,.13.08.18.13.22-3.15,3.11-6.46,5.41-8.32,3.05-2.46,6-5.07,10.11-5.41a22.29,22.29,0,0,1,14.25,4A42.22,42.22,0,0,0,280.07,946.06Z"/><path class="cls-4" d="M244.51,957.05c1.42,3.19,5.89,5.13,8.89,6.43a42.07,42.07,0,0,0,11.55,3c4.39.52,6.61-.42,10-3.38,1.64-1.44,2.11-3,3.18-4.78"/><path class="cls-4" d="M281,956.24c.24,5.06-4,9.87-7.7,12.87-3.16,2.54-5.93,5-9.92,6-5.69,1.53-14.38,2.31-19.55-.81"/><path class="cls-4" d="M271.34,951.55c.66-5.57-8.24-11.92-13.29-9.5-3.16,1.52-6.8,8-6.59,11.6"/><path class="cls-4" d="M257,954.46c-.39-4.32,2.54-7.77,6.88-7,2.8.53,3.14,3,3.14,5.34"/><path class="cls-4" d="M285.24,886.58c0,3.62-1.5,5.66-4.61,7.5-1.94,1.15-4.58,1.54-6,3.43-5.51,7.42,2.63,14.13,3,21.55.42,8.15,3.25,16,3.54,24.15a89.69,89.69,0,0,1-.16,9"/><path class="cls-4" d="M291.71,893.37c.74,1.57,4.11,1.71,5.56,1.78,2.93.14,4.87-1,7.05-2.87s4.71-4.79,7.72-3.45c6.81,3,1.41,12.88-2.23,16"/><path class="cls-4" d="M279.45,869.22a14.12,14.12,0,0,0,2.21,1,18.17,18.17,0,0,0,5-.12,4.34,4.34,0,0,0,2.72-1.39,3.67,3.67,0,0,1,4.21-.89c2.52.79,4.2,3.53,7,3.63,1.56.06,3-1.43,3.94-2.52.65-.73,3.79-4.26,3.25-5.07a21.67,21.67,0,0,1-4.73-.67c-1.4-.41-2.75-1.75-4-2.52a11.85,11.85,0,0,0-6.68-1.84c-4.26,0-8.36,2.49-11.66,4.9"/><path class="cls-4" d="M304.56,857.58c-.6-.41-1.51-.74-2.19-1.16-1.66-1-2.72-2.41-4.71-2.86a27.51,27.51,0,0,0-9.45-.17c-2.82.39-4,1.45-6.06,3.09"/><line class="cls-4" x1="501.73" y1="808.43" x2="303.38" y2="619.86"/><ellipse class="cls-4" cx="278.88" cy="626.75" rx="16" ry="31.5"/><line class="cls-4" x1="215.61" y1="792.24" x2="254.39" y2="634.58"/><line class="cls-4" x1="581.37" y1="674.49" x2="516.49" y2="727.87"/><polygon class="cls-4" points="166.29 956.24 186.88 924.25 169.88 892.25 147.93 924.24 166.29 956.24"/><polygon class="cls-4" points="167.41 939.37 177.09 924.24 169.88 909.25 158.37 924.24 167.41 939.37"/><circle class="cls-4" cx="181.88" cy="887.25" r="11"/><circle class="cls-4" cx="156.38" cy="886.75" r="11.5"/><path class="cls-4" d="M170.88,878.63,185,772Z"/><line class="cls-4" x1="154.08" y1="774.29" x2="170.88" y2="878.63"/><path class="cls-4" d="M187.88,770.25a6,6,0,0,1-3-2c-2.71-3.59,1.41-8.52,1-14-.5-6.71-7.85-14.93-17-15-8.39-.06-15.08,6.75-17,14-2.16,8.16,2.24,14.89,3,16"/><circle class="cls-4" cx="168.38" cy="719.75" r="14.5"/><line class="cls-4" x1="176.73" y1="595.25" x2="184.88" y2="683.25"/><line class="cls-4" x1="162.69" y1="586.25" x2="151.53" y2="683.25"/><path class="cls-4" d="M184.88,690.62a17.5,17.5,0,0,1-33-2.37"/><polyline class="cls-4" points="491.84 628.05 463.15 624.07 425.96 588"/><polyline class="cls-4" points="406.28 592.45 458.9 642.27 487.6 642.27"/><polyline class="cls-4" points="479.03 651.99 456.79 651.99 392.31 592.45"/><polyline class="cls-4" points="474.04 661.48 455.2 661.48 378.56 592.45"/><polyline class="cls-4" points="365.69 592.45 446.94 668 474.04 669.35"/><circle class="cls-4" cx="412.38" cy="712.75" r="3.5"/><circle class="cls-4" cx="421.38" cy="677.75" r="4.5"/><circle class="cls-4" cx="359.38" cy="663.75" r="2.5"/><circle class="cls-4" cx="500.88" cy="751.25" r="4"/><path class="cls-4" d="M167.43,839.34c0-16.68-1.28-33.15-2.33-49.78-.44-7.06-2.18-14-2.55-21.08-.19-3.5-.83-8.66.92-11.7s5.21-3.1,8.1-4.28"/><path class="cls-4" d="M167.06,727.69c-2.31.9-8.92-10.74-8.28-13.92.88-4.39,7-3.39,10.16-4.5"/><path class="cls-4" d="M166.68,687.84c-14.92,3.31-3.08-50.82-2.63-57.83.62-9.73.59-19.65,2.93-29.15.92-3.78,2.58-7.61,2.71-11.51"/><path class="cls-4" d="M485.14,897c0,4,.63,17.81,5.7,18.29-12.43-6.18-29.38-.35-30.69,14.13-.56,6.24,3.37,8.33,5,13.5-8.46,1.22-36.51,14-30,26.57,1.7,3.3,6.58,6.42,9.18,9.15,2.34,2.47,3.28,4.83,5.07,7.62-8.5,5.08-26.23,1.31-26.65,14.78-.13,4,1.51,7.19,2.09,11,.47,3.08,0,6,.8,9.08-8.55-4-15.08-2.52-21.63,4.16-2.57,2.63-9.77,9.17-8.72,13.31"/><path class="cls-4" d="M421,1025.05c-6.4,3.82-9.34,7.74-7.49,15"/><path class="cls-4" d="M426.66,1030c3.45,1.23,5.08,9.16,2.53,12,6.53,3.48,17.8-1.92,21.25-8,1.53-2.68,2.27-6.8-.51-8.27-2-1.07-5.85.15-7.54,1.37-.11-2.51.59-5.43-1-7.51,5.46-2.6,11.39-14,4.87-18-2.84-1.74-7.33-2.15-9.62.28s-1.63,7.21-2.87,9.85"/><path class="cls-4" d="M428.44,1015.78c4.33.19,10.89,4.91,7.22,9.71-2.19,2.87-6.07.32-7.58-2.22"/><path class="cls-4" d="M460.89,955.15c-5.12,1.76-12.87,2.18-13.86,8.32-.53,3.33,1.36,9.43,4.21,11.67,6.54,5.13,12.9-1.57,17-6.23,1.37-1.57,5.88-8.54,1.67-9.19,5.22,3.88,13.88,15.27,20.62,7.56,2.47-2.82,4.53-10.46,2.65-14.29-2-4.17-7.8-3.17-11.48-3.89,5.78-2.8,11.52-18,3.11-20-7.94-1.88-7.9,7-12.12,10.34"/><path class="cls-4" d="M467.66,945.53c4.46-.45,10.28,6.51,5.55,8.56-3.65,1.57-6.27-1-8-3.57"/><path class="cls-4" d="M311,940.54c2-7.31,8.56-12.14,14-16.24"/><path class="cls-4" d="M279.25,939.61c-3.55-2.58-8.12-6.23-10.53-10"/><rect class="cls-4" x="122.59" y="89.38" width="591" height="954"/></svg>