<svg id="Layer_1" data-name="Layer 1" xmlns="http://www.w3.org/2000/svg" viewBox="0 0 822 1122"><defs><style>.cls-1{font-size:163.68px;font-family:HelveticaNeue-Bold, Helvetica Neue;font-weight:700;}.cls-1,.cls-3{fill:#d89d70;}.cls-2{fill:#d6bd80;}</style></defs><text class="cls-1" transform="translate(44.75 160.59)">2</text><circle class="cls-2" cx="118.24" cy="150.31" r="8.81"/><circle class="cls-2" cx="90.47" cy="150.32" r="8.81"/><circle class="cls-2" cx="64.02" cy="149.06" r="8.81"/><circle class="cls-2" cx="75.35" cy="127.66" r="8.81"/><circle class="cls-2" cx="95.49" cy="112.54" r="8.81"/><circle class="cls-2" cx="114.38" cy="96.17" r="8.81"/><circle class="cls-2" cx="119.43" cy="73.5" r="8.81"/><circle class="cls-2" cx="103.06" cy="54.61" r="8.81"/><circle class="cls-2" cx="81.65" cy="54.61" r="8.81"/><circle class="cls-2" cx="64.02" cy="69.72" r="8.81"/><text class="cls-1" transform="translate(798.59 988.75) rotate(-179.89)">2</text><circle class="cls-2" cx="725.08" cy="998.89" r="8.81"/><circle class="cls-2" cx="752.85" cy="998.93" r="8.81"/><circle class="cls-2" cx="779.29" cy="1000.24" r="8.81"/><circle class="cls-2" cx="767.93" cy="1021.62" r="8.81"/><circle class="cls-2" cx="747.75" cy="1036.7" r="8.81"/><circle class="cls-2" cx="728.82" cy="1053.03" r="8.81"/><circle class="cls-2" cx="723.74" cy="1075.69" r="8.81"/><circle class="cls-2" cx="740.07" cy="1094.62" r="8.81"/><circle class="cls-2" cx="761.48" cy="1094.66" r="8.81"/><circle class="cls-2" cx="779.14" cy="1079.59" r="8.81"/><path class="cls-3" d="M351.75,515.61c31.39-30.32,54.95-75.79,55-106.1,0,30.31,23.47,73.78,54.86,101.41"/><circle class="cls-3" cx="404.04" cy="316.74" r="61.73"/><circle class="cls-3" cx="348.13" cy="408.76" r="61.73"/><circle class="cls-3" cx="465.77" cy="408.76" r="61.73"/><ellipse class="cls-3" cx="406.37" cy="382.55" rx="17.47" ry="12.23"/><path class="cls-3" d="M61.48,327.9c16.37-15.8,28.66-39.52,28.67-55.32,0,15.8,12.25,38.47,28.61,52.88"/><circle class="cls-3" cx="88.75" cy="224.2" r="32.19"/><circle class="cls-3" cx="59.59" cy="272.18" r="32.19"/><circle class="cls-3" cx="120.94" cy="272.18" r="32.19"/><ellipse class="cls-3" cx="89.96" cy="258.52" rx="9.11" ry="6.38"/><path class="cls-3" d="M769.05,832.1c-16.37,15.8-28.65,39.52-28.67,55.32,0-15.8-12.25-38.47-28.61-52.88"/><circle class="cls-3" cx="741.78" cy="935.8" r="32.19"/><circle class="cls-3" cx="770.94" cy="887.82" r="32.19"/><circle class="cls-3" cx="709.59" cy="887.82" r="32.19"/><ellipse class="cls-3" cx="740.57" cy="901.48" rx="9.11" ry="6.38"/><path class="cls-3" d="M463.15,595.84c-31.39,30.32-54.95,75.79-55,106.1,0-30.31-23.47-73.78-54.86-101.41"/><circle class="cls-3" cx="410.86" cy="794.71" r="61.73"/><circle class="cls-3" cx="466.77" cy="702.69" r="61.73"/><circle class="cls-3" cx="349.13" cy="702.69" r="61.73"/><ellipse class="cls-3" cx="408.53" cy="728.9" rx="17.47" ry="12.23"/></svg>