<svg id="Layer_1" data-name="Layer 1" xmlns="http://www.w3.org/2000/svg" viewBox="0 0 822 1122"><defs><style>.cls-1{font-size:165.39px;}.cls-1,.cls-3,.cls-4{fill:#d89d70;}.cls-1,.cls-3{font-family:HelveticaNeue-Bold, Helvetica Neue;font-weight:700;}.cls-2{fill:#d6bd80;}.cls-3{font-size:177.4px;}</style></defs><text class="cls-1" transform="translate(19.75 139.81)">4</text><circle class="cls-2" cx="83.2" cy="125.64" r="8.91"/><circle class="cls-2" cx="83.14" cy="102.71" r="8.91"/><circle class="cls-2" cx="83.14" cy="82.35" r="8.91"/><circle class="cls-2" cx="83.14" cy="60.71" r="8.91"/><circle class="cls-2" cx="81.86" cy="37.81" r="8.91"/><circle class="cls-2" cx="60.24" cy="102.69" r="8.91"/><circle class="cls-2" cx="34.79" cy="102.7" r="8.91"/><text class="cls-3" transform="matrix(-1, -0.01, 0.01, -1, 800.05, 966.46)">4</text><circle class="cls-2" cx="731.81" cy="980.87" r="9.55"/><circle class="cls-2" cx="731.6" cy="1005.47" r="9.55"/><circle class="cls-2" cx="731.35" cy="1027.31" r="9.55"/><circle class="cls-2" cx="731.08" cy="1050.51" r="9.55"/><circle class="cls-2" cx="732.16" cy="1075.09" r="9.55"/><circle class="cls-2" cx="756.16" cy="1005.78" r="9.55"/><path class="cls-4" d="M233.67,357.25a54.39,54.39,0,0,0,76.9,0h0a54.38,54.38,0,0,0,0-76.91L297.4,267.17l-76.9,76.91Z"/><path class="cls-4" d="M130.57,280.2a54.38,54.38,0,0,0,0,76.91h0a54.39,54.39,0,0,0,76.9,0l13-13-76.9-76.91Z"/><rect class="cls-4" x="166.12" y="212.8" width="108.76" height="108.76" transform="translate(-124.34 234.17) rotate(-45)"/><path class="cls-4" d="M177.06,415.62c25-24.15,43.78-60.38,43.81-84.54,0,24.16,18.71,58.79,43.72,80.81"/><path class="cls-4" d="M614.67,345.25a54.39,54.39,0,0,0,76.9,0h0a54.38,54.38,0,0,0,0-76.91L678.4,255.17l-76.9,76.91Z"/><path class="cls-4" d="M511.57,268.2a54.38,54.38,0,0,0,0,76.91h0a54.39,54.39,0,0,0,76.9,0l13-13-76.9-76.91Z"/><rect class="cls-4" x="547.12" y="200.8" width="108.76" height="108.76" transform="translate(-4.26 500.06) rotate(-45)"/><path class="cls-4" d="M558.06,403.62c25-24.15,43.78-60.38,43.81-84.54,0,24.16,18.71,58.79,43.72,80.81"/><path class="cls-4" d="M583.69,766a54.37,54.37,0,0,0-76.79-4.08h0a54.38,54.38,0,0,0-4.08,76.79l12.45,13.85,80.88-72.71Z"/><path class="cls-4" d="M682.56,848.37a54.38,54.38,0,0,0,4.08-76.79h0a54.37,54.37,0,0,0-76.79-4.09l-13.7,12.32,72.71,80.88Z"/><rect class="cls-4" x="537.68" y="802.23" width="108.76" height="108.76" transform="translate(-420.92 615.42) rotate(-41.96)"/><path class="cls-4" d="M642.71,710.47c-25,23.19-45.7,58.38-48.24,82.1,2.54-23.72-14.33-59.3-39.36-83"/><path class="cls-4" d="M81.84,226.46a21.65,21.65,0,0,0,30.62.36h0a21.65,21.65,0,0,0,.36-30.61l-5.19-5.31-31,30.26Z"/><path class="cls-4" d="M41.16,195.31a21.63,21.63,0,0,0-.36,30.61h0a21.64,21.64,0,0,0,30.61.36l5.25-5.12-30.26-31Z"/><rect class="cls-4" x="55.37" y="168.89" width="43.3" height="43.3" transform="translate(-111.22 108.05) rotate(-44.33)"/><path class="cls-4" d="M59.08,249.47c10-9.56,17.61-23.9,17.84-33.46-.23,9.56,7.06,23.44,17,32.38"/><path class="cls-4" d="M750.78,880.38a21.66,21.66,0,0,0-30.61.9h0a21.66,21.66,0,0,0,.91,30.61l5.39,5.08,29.7-31.5Z"/><path class="cls-4" d="M792.71,909.83a21.65,21.65,0,0,0-.9-30.61h0a21.66,21.66,0,0,0-30.61.91l-5,5.34,31.51,29.69Z"/><rect class="cls-4" x="735.43" y="894.42" width="43.3" height="43.3" transform="translate(-428.82 838.68) rotate(-46.69)"/><path class="cls-4" d="M772.76,856.55c-9.94,9.76-17,24.4-16.44,34.17-.55-9.77-8.41-23.33-18.35-31.65"/><path class="cls-4" d="M214.17,768.42a54.38,54.38,0,0,0-76.9-.88h0a54.38,54.38,0,0,0-.89,76.9l13,13.32,77.79-76Z"/><path class="cls-4" d="M316.37,846.65a54.38,54.38,0,0,0,.89-76.9h0a54.38,54.38,0,0,0-76.9-.88l-13.17,12.87,76,77.79Z"/><rect class="cls-4" x="171.92" y="804.26" width="108.76" height="108.76" transform="translate(-535.66 402.69) rotate(-44.34)"/><path class="cls-4" d="M271.32,710.63c-25,24-44.21,60-44.79,84,.58-24-17.76-58.85-42.78-81.31"/></svg>