<svg id="Layer_1" data-name="Layer 1" xmlns="http://www.w3.org/2000/svg" viewBox="0 0 822 1122"><defs><style>.cls-1{font-size:162.57px;}.cls-1,.cls-3,.cls-4{fill:#d89d70;}.cls-1,.cls-3{font-family:HelveticaNeue-Bold, Helvetica Neue;font-weight:700;}.cls-2{fill:#d6bd80;}.cls-3{font-size:176.01px;}</style></defs><text class="cls-1" transform="translate(38.75 145.79)">A</text><circle class="cls-2" cx="94.71" cy="42.57" r="8.75"/><circle class="cls-2" cx="80.96" cy="62.82" r="8.75"/><circle class="cls-2" cx="72.2" cy="85.32" r="8.75"/><circle class="cls-2" cx="63.45" cy="108.34" r="8.75"/><circle class="cls-2" cx="55.96" cy="131.09" r="8.75"/><circle class="cls-2" cx="108.48" cy="62.82" r="8.75"/><circle class="cls-2" cx="116" cy="85.32" r="8.75"/><circle class="cls-2" cx="123.49" cy="108.34" r="8.75"/><circle class="cls-2" cx="133.49" cy="131.09" r="8.75"/><text class="cls-3" transform="translate(784.3 969.61) rotate(180)">A</text><circle class="cls-2" cx="723.71" cy="1081.36" r="9.48"/><circle class="cls-2" cx="738.61" cy="1059.44" r="9.48"/><circle class="cls-2" cx="748.08" cy="1035.08" r="9.48"/><circle class="cls-2" cx="757.56" cy="1010.16" r="9.48"/><circle class="cls-2" cx="765.66" cy="985.53" r="9.48"/><circle class="cls-2" cx="708.8" cy="1059.44" r="9.48"/><circle class="cls-2" cx="700.66" cy="1035.08" r="9.48"/><circle class="cls-2" cx="692.56" cy="1010.16" r="9.48"/><circle class="cls-2" cx="681.72" cy="985.53" r="9.48"/><path class="cls-4" d="M298.72,739.48c53.89-52.06,94.35-130.13,94.41-182.18-.06,52.05,40.32,126.68,94.21,174.13"/><circle class="cls-4" cx="388.5" cy="398" r="106"/><circle class="cls-4" cx="292.5" cy="556" r="106"/><circle class="cls-4" cx="494.5" cy="556" r="106"/><ellipse class="cls-4" cx="392.5" cy="511" rx="30" ry="21"/><path class="cls-4" d="M73.48,303.9c16.37-15.8,28.66-39.52,28.67-55.32,0,15.8,12.25,38.47,28.61,52.88"/><circle class="cls-4" cx="100.75" cy="200.2" r="32.19"/><circle class="cls-4" cx="71.59" cy="248.18" r="32.19"/><circle class="cls-4" cx="132.94" cy="248.18" r="32.19"/><ellipse class="cls-4" cx="101.96" cy="234.52" rx="9.11" ry="6.38"/><path class="cls-4" d="M743.05,812.1c-16.37,15.8-28.65,39.52-28.67,55.32,0-15.8-12.25-38.47-28.61-52.88"/><circle class="cls-4" cx="715.78" cy="915.8" r="32.19"/><circle class="cls-4" cx="744.94" cy="867.82" r="32.19"/><circle class="cls-4" cx="683.59" cy="867.82" r="32.19"/><ellipse class="cls-4" cx="714.57" cy="881.48" rx="9.11" ry="6.38"/></svg>