<svg id="Layer_1" data-name="Layer 1" xmlns="http://www.w3.org/2000/svg" viewBox="0 0 822 1122"><defs><style>.cls-1{font-size:153.12px;font-family:HelveticaNeue-Bold, Helvetica Neue;font-weight:700;}.cls-1,.cls-3{fill:#d89d70;}.cls-2{fill:#d6bd80;}</style></defs><text class="cls-1" transform="translate(36.67 149.36) rotate(-1.18)">5</text><circle class="cls-2" cx="100.95" cy="49.35" r="8.25"/><circle class="cls-2" cx="80.89" cy="49.33" r="8.25"/><circle class="cls-2" cx="60.86" cy="50.51" r="8.25"/><circle class="cls-2" cx="56.14" cy="70.53" r="8.25"/><circle class="cls-2" cx="53.79" cy="90.56" r="8.25"/><circle class="cls-2" cx="85.59" cy="84.68" r="8.25"/><circle class="cls-2" cx="102.09" cy="96.45" r="8.25"/><circle class="cls-2" cx="106.8" cy="118.84" r="8.25"/><circle class="cls-2" cx="95.03" cy="136.51" r="8.25"/><circle class="cls-2" cx="72.64" cy="140.05" r="8.25"/><circle class="cls-2" cx="52.61" cy="128.27" r="8.25"/><text class="cls-1" transform="translate(783.98 974.18) rotate(177.63)">5</text><circle class="cls-2" cx="721.78" cy="1075.5" r="8.25"/><circle class="cls-2" cx="741.84" cy="1075.1" r="8.25"/><circle class="cls-2" cx="761.84" cy="1073.51" r="8.25"/><circle class="cls-2" cx="766.14" cy="1053.39" r="8.25"/><circle class="cls-2" cx="768.08" cy="1033.32" r="8.25"/><circle class="cls-2" cx="736.41" cy="1039.86" r="8.25"/><circle class="cls-2" cx="719.67" cy="1028.43" r="8.25"/><circle class="cls-2" cx="714.49" cy="1006.15" r="8.25"/><circle class="cls-2" cx="725.9" cy="988.23" r="8.25"/><circle class="cls-2" cx="748.21" cy="984.23" r="8.25"/><circle class="cls-2" cx="768.48" cy="995.59" r="8.25"/><path class="cls-3" d="M77.84,234.46a21.65,21.65,0,0,0,30.62.36h0a21.65,21.65,0,0,0,.36-30.61l-5.19-5.31-31,30.26Z"/><path class="cls-3" d="M37.16,203.31a21.63,21.63,0,0,0-.36,30.61h0a21.64,21.64,0,0,0,30.61.36l5.25-5.12-30.26-31Z"/><rect class="cls-3" x="51.37" y="176.89" width="43.3" height="43.3" transform="translate(-117.94 107.53) rotate(-44.33)"/><path class="cls-3" d="M55.08,257.47c10-9.56,17.61-23.9,17.84-33.46-.23,9.56,7.06,23.44,17,32.38"/><path class="cls-3" d="M745.78,890.38a21.66,21.66,0,0,0-30.61.9h0a21.66,21.66,0,0,0,.91,30.61l5.39,5.08,29.7-31.5Z"/><path class="cls-3" d="M787.71,919.83a21.65,21.65,0,0,0-.9-30.61h0a21.66,21.66,0,0,0-30.61.91l-5,5.34,31.51,29.69Z"/><rect class="cls-3" x="730.43" y="904.42" width="43.3" height="43.3" transform="translate(-437.67 838.18) rotate(-46.69)"/><path class="cls-3" d="M767.76,866.55c-9.94,9.76-17,24.4-16.44,34.17-.55-9.77-8.41-23.33-18.35-31.65"/><path class="cls-3" d="M209.67,380.25a54.39,54.39,0,0,0,76.9,0h0a54.38,54.38,0,0,0,0-76.91L273.4,290.17l-76.9,76.91Z"/><path class="cls-3" d="M106.57,303.2a54.38,54.38,0,0,0,0,76.91h0a54.39,54.39,0,0,0,76.9,0l13-13-76.9-76.91Z"/><rect class="cls-3" x="142.12" y="235.8" width="108.76" height="108.76" transform="translate(-147.63 223.94) rotate(-45)"/><path class="cls-3" d="M153.06,438.62c25-24.15,43.78-60.38,43.81-84.54,0,24.16,18.71,58.79,43.72,80.81"/><path class="cls-3" d="M590.67,368.25a54.39,54.39,0,0,0,76.9,0h0a54.38,54.38,0,0,0,0-76.91L654.4,278.17l-76.9,76.91Z"/><path class="cls-3" d="M487.57,291.2a54.38,54.38,0,0,0,0,76.91h0a54.39,54.39,0,0,0,76.9,0l13-13-76.9-76.91Z"/><rect class="cls-3" x="523.12" y="223.8" width="108.76" height="108.76" transform="translate(-27.55 489.83) rotate(-45)"/><path class="cls-3" d="M534.06,426.62c25-24.15,43.78-60.38,43.81-84.54,0,24.16,18.71,58.79,43.72,80.81"/><path class="cls-3" d="M400.67,630.25a54.39,54.39,0,0,0,76.9,0h0a54.38,54.38,0,0,0,0-76.91L464.4,540.17l-76.9,76.91Z"/><path class="cls-3" d="M297.57,553.2a54.38,54.38,0,0,0,0,76.91h0a54.39,54.39,0,0,0,76.9,0l13-13-76.9-76.91Z"/><rect class="cls-3" x="333.12" y="485.8" width="108.76" height="108.76" transform="translate(-268.46 432.22) rotate(-45)"/><path class="cls-3" d="M344.06,688.62c25-24.15,43.78-60.38,43.81-84.54,0,24.16,18.71,58.79,43.72,80.81"/><path class="cls-3" d="M559.69,789a54.37,54.37,0,0,0-76.79-4.08h0a54.38,54.38,0,0,0-4.08,76.79l12.45,13.85,80.88-72.71Z"/><path class="cls-3" d="M658.56,871.37a54.38,54.38,0,0,0,4.08-76.79h0a54.37,54.37,0,0,0-76.79-4.09l-13.7,12.32,72.71,80.88Z"/><rect class="cls-3" x="513.68" y="825.23" width="108.76" height="108.76" transform="translate(-442.45 605.27) rotate(-41.96)"/><path class="cls-3" d="M618.71,733.47c-25,23.19-45.7,58.38-48.24,82.1,2.54-23.72-14.33-59.3-39.36-83"/><path class="cls-3" d="M190.17,791.42a54.38,54.38,0,0,0-76.9-.88h0a54.38,54.38,0,0,0-.89,76.9l13,13.32,77.79-76Z"/><path class="cls-3" d="M292.37,869.65a54.38,54.38,0,0,0,.89-76.9h0a54.38,54.38,0,0,0-76.9-.88l-13.17,12.87,76,77.79Z"/><rect class="cls-3" x="147.92" y="827.26" width="108.76" height="108.76" transform="translate(-558.57 392.47) rotate(-44.34)"/><path class="cls-3" d="M247.32,733.63c-25,24-44.21,60-44.79,84,.58-24-17.76-58.85-42.78-81.31"/></svg>