<svg id="Layer_1" data-name="Layer 1" xmlns="http://www.w3.org/2000/svg" viewBox="0 0 822 1122"><defs><style>.cls-1{font-size:162.57px;}.cls-1,.cls-3,.cls-4{fill:#6f9797;}.cls-1,.cls-3{font-family:HelveticaNeue-Bold, Helvetica Neue;font-weight:700;}.cls-2{fill:#d6bd80;}.cls-3{font-size:176.01px;}</style></defs><text class="cls-1" transform="translate(38.75 145.79)">A</text><circle class="cls-2" cx="94.71" cy="42.57" r="8.75"/><circle class="cls-2" cx="80.96" cy="62.82" r="8.75"/><circle class="cls-2" cx="72.2" cy="85.32" r="8.75"/><circle class="cls-2" cx="63.45" cy="108.34" r="8.75"/><circle class="cls-2" cx="55.96" cy="131.09" r="8.75"/><circle class="cls-2" cx="108.48" cy="62.82" r="8.75"/><circle class="cls-2" cx="116" cy="85.32" r="8.75"/><circle class="cls-2" cx="123.49" cy="108.34" r="8.75"/><circle class="cls-2" cx="133.49" cy="131.09" r="8.75"/><text class="cls-3" transform="translate(784.3 969.61) rotate(180)">A</text><circle class="cls-2" cx="723.71" cy="1081.36" r="9.48"/><circle class="cls-2" cx="738.61" cy="1059.44" r="9.48"/><circle class="cls-2" cx="748.08" cy="1035.08" r="9.48"/><circle class="cls-2" cx="757.56" cy="1010.16" r="9.48"/><circle class="cls-2" cx="765.66" cy="985.53" r="9.48"/><circle class="cls-2" cx="708.8" cy="1059.44" r="9.48"/><circle class="cls-2" cx="700.66" cy="1035.08" r="9.48"/><circle class="cls-2" cx="692.56" cy="1010.16" r="9.48"/><circle class="cls-2" cx="681.72" cy="985.53" r="9.48"/><ellipse class="cls-4" cx="396.5" cy="561.26" rx="232.34" ry="300.44"/></svg>