<svg id="Layer_1" data-name="Layer 1" xmlns="http://www.w3.org/2000/svg" viewBox="0 0 822 1122"><defs><style>.cls-1{font-size:163.68px;font-family:HelveticaNeue-Bold, Helvetica Neue;font-weight:700;}.cls-1,.cls-3{fill:#d89d70;}.cls-2{fill:#d6bd80;}</style></defs><text class="cls-1" transform="translate(44.75 160.59)">2</text><circle class="cls-2" cx="118.24" cy="150.31" r="8.81"/><circle class="cls-2" cx="90.47" cy="150.32" r="8.81"/><circle class="cls-2" cx="64.02" cy="149.06" r="8.81"/><circle class="cls-2" cx="75.35" cy="127.66" r="8.81"/><circle class="cls-2" cx="95.49" cy="112.54" r="8.81"/><circle class="cls-2" cx="114.38" cy="96.17" r="8.81"/><circle class="cls-2" cx="119.43" cy="73.5" r="8.81"/><circle class="cls-2" cx="103.06" cy="54.61" r="8.81"/><circle class="cls-2" cx="81.65" cy="54.61" r="8.81"/><circle class="cls-2" cx="64.02" cy="69.72" r="8.81"/><text class="cls-1" transform="translate(798.59 988.75) rotate(-179.89)">2</text><circle class="cls-2" cx="725.08" cy="998.89" r="8.81"/><circle class="cls-2" cx="752.85" cy="998.93" r="8.81"/><circle class="cls-2" cx="779.29" cy="1000.24" r="8.81"/><circle class="cls-2" cx="767.93" cy="1021.62" r="8.81"/><circle class="cls-2" cx="747.75" cy="1036.7" r="8.81"/><circle class="cls-2" cx="728.82" cy="1053.03" r="8.81"/><circle class="cls-2" cx="723.74" cy="1075.69" r="8.81"/><circle class="cls-2" cx="740.07" cy="1094.62" r="8.81"/><circle class="cls-2" cx="761.48" cy="1094.66" r="8.81"/><circle class="cls-2" cx="779.14" cy="1079.59" r="8.81"/><path class="cls-3" d="M421.67,370.25a54.39,54.39,0,0,0,76.9,0h0a54.38,54.38,0,0,0,0-76.91L485.4,280.17l-76.9,76.91Z"/><path class="cls-3" d="M318.57,293.2a54.38,54.38,0,0,0,0,76.91h0a54.39,54.39,0,0,0,76.9,0l13-13-76.9-76.91Z"/><rect class="cls-3" x="354.12" y="225.8" width="108.76" height="108.76" transform="translate(-78.47 370.91) rotate(-45)"/><path class="cls-3" d="M365.06,428.62c25-24.15,43.78-60.38,43.81-84.54,0,24.16,18.71,58.79,43.72,80.81"/><path class="cls-3" d="M91.84,244.46a21.65,21.65,0,0,0,30.62.36h0a21.65,21.65,0,0,0,.36-30.61l-5.19-5.31-31,30.26Z"/><path class="cls-3" d="M51.16,213.31a21.63,21.63,0,0,0-.36,30.61h0a21.64,21.64,0,0,0,30.61.36l5.25-5.12-30.26-31Z"/><rect class="cls-3" x="65.37" y="186.89" width="43.3" height="43.3" transform="translate(-120.95 120.16) rotate(-44.33)"/><path class="cls-3" d="M69.08,267.47c10-9.56,17.61-23.9,17.84-33.46-.23,9.56,7.06,23.44,17,32.38"/><path class="cls-3" d="M734.78,912.38a21.66,21.66,0,0,0-30.61.9h0a21.66,21.66,0,0,0,.91,30.61l5.39,5.08,29.7-31.5Z"/><path class="cls-3" d="M776.71,941.83a21.65,21.65,0,0,0-.9-30.61h0a21.66,21.66,0,0,0-30.61.91l-5,5.34,31.51,29.69Z"/><rect class="cls-3" x="719.43" y="926.42" width="43.3" height="43.3" transform="translate(-457.14 837.09) rotate(-46.69)"/><path class="cls-3" d="M756.76,888.55c-9.94,9.76-17,24.4-16.44,34.17-.55-9.77-8.41-23.33-18.35-31.65"/><path class="cls-3" d="M398.64,767.38a54.38,54.38,0,0,0-76.85-2.67h0a54.37,54.37,0,0,0-2.67,76.86l12.7,13.62L411.35,781Z"/><path class="cls-3" d="M499,848a54.39,54.39,0,0,0,2.67-76.86h0a54.39,54.39,0,0,0-76.86-2.67L411.35,781l74.18,79.53Z"/><rect class="cls-3" x="354.3" y="803.48" width="108.76" height="108.76" transform="translate(-475.33 509.34) rotate(-43.01)"/><path class="cls-3" d="M456.85,710.79c-25,23.71-45.06,59.26-46.72,83,1.66-23.71-15.86-59-40.89-82.28"/></svg>