<svg id="Layer_1" data-name="Layer 1" xmlns="http://www.w3.org/2000/svg" viewBox="0 0 822 1122"><defs><style>.cls-1{font-size:165.39px;}.cls-1,.cls-3,.cls-4{fill:#6f9797;}.cls-1,.cls-3{font-family:HelveticaNeue-Bold, Helvetica Neue;font-weight:700;}.cls-2{fill:#d6bd80;}.cls-3{font-size:158.06px;}.cls-5{fill:none;stroke:#6f9797;stroke-miterlimit:10;stroke-width:3px;}</style></defs><text class="cls-1" transform="translate(33.75 159.81)">J</text><circle class="cls-2" cx="101.75" cy="60.4" r="8.91"/><circle class="cls-2" cx="101.74" cy="85.82" r="8.91"/><circle class="cls-2" cx="101.74" cy="112.54" r="8.91"/><circle class="cls-2" cx="99.2" cy="137.98" r="8.91"/><circle class="cls-2" cx="77.57" cy="151.98" r="8.91"/><circle class="cls-2" cx="55.94" cy="145.62" r="8.91"/><circle class="cls-2" cx="49.57" cy="125.27" r="8.91"/><text class="cls-3" transform="matrix(-1, -0.01, 0.01, -1, 790.15, 969.03)">J</text><circle class="cls-2" cx="724.08" cy="1063.28" r="8.51"/><circle class="cls-2" cx="724.36" cy="1038.99" r="8.51"/><circle class="cls-2" cx="724.66" cy="1013.46" r="8.51"/><circle class="cls-2" cx="727.37" cy="989.17" r="8.51"/><circle class="cls-2" cx="748.19" cy="976.03" r="8.51"/><circle class="cls-2" cx="768.79" cy="982.35" r="8.51"/><circle class="cls-2" cx="774.65" cy="1001.87" r="8.51"/><path class="cls-4" d="M70.25,191.84c-11.32-13.12-29.68-13.12-41,0h0c-11.32,13.12-11.32,34.39,0,47.51l7,8.14,41-47.51Z"/><path class="cls-4" d="M125.23,239.44c11.32-13.12,11.32-34.39,0-47.51h0c-11.33-13.12-29.69-13.12-41,0l-7,8,41,47.51Z"/><polygon class="cls-4" points="77.27 199.98 36.27 247.49 77.27 295 118.28 247.49 77.27 199.98"/><path class="cls-4" d="M198.91,108.94c-18.34-21.25-48.07-21.25-66.41,0h0c-18.34,21.24-18.34,55.69,0,76.94l11.37,13.18,66.41-76.95Z"/><path class="cls-4" d="M287.94,186c18.34-21.25,18.34-55.7,0-76.94h0c-18.34-21.25-48.07-21.25-66.41,0l-11.25,13,66.41,77Z"/><polygon class="cls-4" points="210.28 122.11 143.87 199.06 210.28 276 276.69 199.06 210.28 122.11"/><path class="cls-4" d="M760.46,947.24c11.17,13.25,29.53,13.46,41,.47h0c11.47-13,11.72-34.26.54-47.51L795.09,892l-41.56,47Z"/><path class="cls-4" d="M706,899c-11.48,13-11.72,34.26-.55,47.51h0c11.17,13.25,29.53,13.46,41,.47l7-8-40.45-48Z"/><polygon class="cls-4" points="753.53 939.02 795.09 891.99 754.63 844 713.08 891.04 753.53 939.02"/><path class="cls-4" d="M600.42,960.53c15.83,18.78,41.83,19.08,58.09.67h0c16.26-18.4,16.61-48.53.78-67.3l-9.82-11.65L590.6,948.89Z"/><path class="cls-4" d="M523.31,892.2c-16.26,18.41-16.6,48.54-.78,67.31h0c15.83,18.78,41.84,19.08,58.1.67l10-11.29-57.32-68Z"/><polygon class="cls-4" points="590.6 948.89 649.47 882.25 592.15 814.27 533.28 880.91 590.6 948.89"/><path class="cls-4" d="M401.73,179.06c-.12,4.13,4.32,8.28,7.22,10.72,5.1,4.29,9.89,8.18,13.82,13.69,1.25,1.74,6.49,11,9.92,7.22"/><path class="cls-5" d="M411.13,181.78c11,.17,21.08-4.59,32.24-1.45,5.69,1.6,11.39,4.36,16.84,6.65,2.66,1.11,5.52,2.1,7.31,4.36-11,3.9-21.2,3.85-32.81,4.53-2.5.14-8.67,3.09-10.59,1.87"/><path class="cls-5" d="M419.64,184.4c-1.37,9.46,19.22,11.78,25.27,10.71,6.46-1.15,5.64-5.21,2.65-9.3"/><path class="cls-5" d="M425,181.86c-1,5.84,7.18,7.72,11.54,7,3-.46,4.76-4.55,3.12-7.33"/><path class="cls-5" d="M403.56,175.65c7.59-9.46,21.78-9.84,32.94-8.49,5.95.72,12.74,1.62,18.34,3.83,1.7.67,4,1.47,5.13,3"/><path class="cls-5" d="M454.9,158.45c-4.55.13-9.3-1.24-13.73-2a101.2,101.2,0,0,0-20.51-1.14c-4.22.15-9.24,1.15-11.46,5.1"/><path class="cls-5" d="M334.57,173.45c7-6.64,19.44-7.67,27.49-2.94,4.67,2.74,6.83,7.22,11.06,10.07"/><path class="cls-5" d="M336.35,160.24c8.16-4.77,24.12-7.78,31.78-1,11.45,10.13,10.12,27.92,5.76,41.33-2.86,8.77-11,18.85-7.22,28.92,1.83,4.82,12.42,7.55,16.09,3.56"/><path class="cls-5" d="M391.32,235.2c6.28-.41,23.28,8.1,26.77,1.73,3.63-6.6-5.57-17.62-12.49-17.08"/><path class="cls-5" d="M334.21,187c3.3-4.26,15.12-6.54,20.87-6.81,3.49-.16,12.49-1.49,14.83,1.81"/><path class="cls-5" d="M332.42,188.8c3,3.87,9.16,4.87,13.61,6.16,4,1.15,8.47,2.77,12.72,2,6.28-1.09,10.1-8.71,13.3-13.56"/><path class="cls-5" d="M344.56,183.08c0,5.94,1.85,10.66,8.87,11,6,.28,12.69-9.59,9-14.91"/><path class="cls-5" d="M351,183.44c-3,8.25,9.94,4.63,6.78-1.78"/><path class="cls-5" d="M364.86,267.66c.1-2,4-3.73,5.53-4.6,2.49-1.43,5.79-2.79,8.8-2.3,4.1.66,6,5.74,10.44,3.95,5.79-2.35,12.06-7,18.75-6,2.78.4,4.05,3.23,6.74,3.93"/><path class="cls-5" d="M406.63,275c-1.64.43-3.14,1.83-4.73,2.52a24.29,24.29,0,0,1-10.34,1.85c-4.55-.05-7.34-2.46-11.33-4.14"/><path class="cls-5" d="M381.15,289.24c6.07.39,10.68-2,16.07,1.6"/><path class="cls-5" d="M468.52,127.71c0,28.61-3.73,57.34,2.14,85.56,4.15,20,6.64,40.63,15.74,58.93,5.9,11.87,10.05,37.4,28.07,38.07,11,.41,11.21-19.7,10-26.3-1-5.51-6.9-13.5-11.76-5.83-2.63,4.16,2.59,13.59,4.83,7.59"/><path class="cls-5" d="M513.53,269.73c19.43-1,27.07,36.06,9.5,44.5"/><path class="cls-5" d="M521.53,268.23c13.44-1.13,27.53,20.49,23,33"/><path class="cls-5" d="M539,259.73c14.31,0,12,27,12,37.5.52-12.26-7-35.63-22-34"/><path class="cls-5" d="M549,252.23c14-2.66,18.23,28.38,12,37"/><path class="cls-5" d="M558,248.73c6.87,1.22,12.22,17.21,13.06,22.82.77,5.13,1.75,13.75-.06,18.68"/><path class="cls-5" d="M570,237.23c10.44-1.37,19.06,9.64,22.31,18.27a26.84,26.84,0,0,1-5.81,27.73"/><path class="cls-5" d="M496,308.91c-.7,8.15,10,12.6,16.91,11.7s13.64-5.2,19.51-8.59c3.07-1.77,5.79-4.76,9-4.85,5-.15,7-.6,10.26-4.8a43.27,43.27,0,0,0,2.72-4c.15,5.67,6.49-3.61,7.38-4.09,2.09-1.13,4,.87,6.66-.46s3.74-3.6,6.17-3.84c3.55-.35,4.85-.08,8.2-2.32a52.72,52.72,0,0,1,6-4"/><path class="cls-5" d="M550.38,146.08c0,24.63-.6,49.2,1.89,73.74.52,5.1.67,12,4,16.2"/><path class="cls-5" d="M537.75,149c0,22.15-1.19,45.19,3.94,66.91,1.8,7.61,6.16,15.3,6.93,23"/><path class="cls-5" d="M528.63,145.49c0,14.47-1.24,28.87-1.45,43.34-.19,13.18-.29,26,4.68,38.44A109.1,109.1,0,0,0,538,241.13c.86,1.52,2.2,3,2.69,4.58"/><path class="cls-5" d="M516.58,146.08c0,25.2-.41,50.6,6.61,75.09,2.94,10.26,4.89,22.27,9.56,31.89"/><path class="cls-5" d="M505.12,142.55c0,29.85-1.22,58.7,6.73,87.69,2.41,8.79,6.26,16.15,10.32,23.7"/><path class="cls-5" d="M494.83,136.38c-.05,20.07-3.55,40-3.3,60.13.19,16.19,3.83,30.56,8.36,45.94,2.13,7.19,5.83,15.74,11.11,21.19"/><path class="cls-5" d="M486.6,136.38c0,18.6.37,37.24-.07,55.83-.32,13.85,2,27.13,3.74,40.81,1.34,10.35,4.15,21.55,12.2,28.57"/><path class="cls-5" d="M480.72,134.61c-1.71,6.45-3.63,12.83-4.77,19.44-1.84,10.66-1.34,21.39-1.4,32.17-.09,14.93,2.87,29.31,6.75,43.68,2.22,8.26,5.63,15.92,9.07,23.72,1.17,2.65,2.16,7,4.46,8.85"/><path class="cls-5" d="M501.89,137c.12,5.18-2.41,10.65-3.35,15.71A157.17,157.17,0,0,0,496,182.19c.05,8.19-.6,16.47,1,24.54a159.23,159.23,0,0,0,5.94,22.32c4.24,11.94,11.68,22.4,16.33,34"/><path class="cls-5" d="M498.92,273.42c2.27-5.13,7.81-5.38,12.37-7,4.14-1.5,8.5-3.36,13-1.3,3.21,1.46,10.27-9.12,11.9-4.76"/><path class="cls-5" d="M531.84,254c6.71-.82,12.93-2.86,19.83-2.77"/><path class="cls-5" d="M546.51,244.86c3-1.19,9.84-4.3,12.7-1.59"/><path class="cls-5" d="M555.24,238.12c5.26-.7,17.85-5.7,22.61-2"/><path class="cls-5" d="M327.44,239.44c.39,7-3.41,12.91-7.66,18.1-4.67,5.69-10.93,12.21-19.1,11.69-3.81-.24-5.85-4.1-4.3-8.14,1.19-3.13,4.85-4.14,7.93-4"/><path class="cls-5" d="M314.05,254.65c-2.39-11.59-14.24-13-23.17-8.75-9.87,4.74-7.39,16-2.93,24,1.41,2.53,4.08,7.92,6.77,9.34,3.49,1.85,11,.88,14.79.1,8.1-1.66,18.52-10.55,21.58-18.31"/><path class="cls-5" d="M297.31,288.42c9.9,0,21.5,1.5,30.4-3.86,3.61-2.17,9.17-6.15,11-10.14"/><path class="cls-5" d="M312.22,297.24c10-.07,21.62-2.18,27.69-10.34"/><path class="cls-5" d="M319.83,305.46c-.15.42-.43.39-.31.88,5.91-.45,13.78-3,19.27-5.28,2.94-1.23,6.15-2.82,7.81-5.64"/><path class="cls-5" d="M332,313.07A24.72,24.72,0,0,0,347.35,308c1.87-1.57,2.58-3.78,3.82-5.53"/><path class="cls-5" d="M333.22,317.32h14.15c4.71,0,10.8,1.23,15.27-.11,3.59-1.08,5.12-4.42,6.17-7.8"/><path class="cls-5" d="M637.73,331.5c0-7.22,3.43-12.78,8.51-18.73,2.64-3.09,5.73-4.85,9.23-6.87,1.36-.78,6.32-4.75,7.94-4.19,6.33,2.16-10.49,31.14,4.09,29.46"/><path class="cls-5" d="M704.14,328.56c-5.51-3.75-13-.4-18.5,1.56-6.44,2.28-12.29,1.93-18.78,3.32-4.66,1-6.7,8.53-3.84,12.24,4,5.21,22.62,3.53,26.2-2.28,1.95-3.16,1.15-10.22-6-9.94-2.09,0-5.47-.3-8.84-.41"/><path class="cls-5" d="M673.39,351.46c-2.81,0-7.95-.14-8.2,3.74-.43,6.65,15.46,6,19.32,6.09,3.17,0,12-.33,7.41-5.42C688.38,352,680.73,352.91,673.39,351.46Z"/><path class="cls-5" d="M688.44,345.57c5.55.8,16.75-6.89,19.95-11.13"/><path class="cls-5" d="M696,355.38c1.92.55,19.62.72,17.34-3.92"/><path class="cls-5" d="M683.53,368.79c-3.74,0-8.62-1-12.16,0-5.7,1.55-1.83,5.13,2.23,5.83,2.45.43,9.12,2,9.62-1.25.44-2.87-4.4-6.29-6.89-5.2"/><path class="cls-5" d="M686.15,379.92c4.26,0,32.38,3.69,25.19-7.53"/><path class="cls-5" d="M687.45,385.81c-3.92,0-19.32-2.12-20.28,1.91-1.74,7.26,15,2.17,17.68.7a3.24,3.24,0,0,0-2.63-2"/><path class="cls-5" d="M689.74,396.27a131.51,131.51,0,0,0,30.07,1.27,6,6,0,0,0,0-1.59"/><path class="cls-5" d="M638.71,332.81c-.94,3.54-2.86,6.82-4,10.35-2.32,7.26-2.63,15.12-2.15,22.7.62,9.88,5.95,23,15.91,27.19,2.28.95,11.36,1.05,12.14,3.22"/><path class="cls-5" d="M594,280q13.65,8.55,27.74,17.11,10.05,6.1,20,12"/><path class="cls-5" d="M511.39,397.7c-6.85,1.78,3.41,7.78,4.81,8.78,6.78,4.85,12.64,11.65,17.44,18.33,2.06,2.87,7.33,9,11.64,6.48,6.57-3.78-1.33-19.9-3.69-24.33-1.8-3.37-8.26-9.19-5.41-13.31,5.32-7.69,14.52,1.77,19.06,3.71,14.13,6.06,1.92-24.13,1.2-29.61,5,.19,30.43,16.26,23.64-1-1.23-3.13-8.61-11.47-6-15.39,3.92-5.88,14.64,3.5,18.91,3.52,9.22.06,1-16.2-.78-20.19-3.19-7.29,1-11.18,7.1-5.62,1.77,1.62,7.7,7.9,10.89,4.25,1.95-2.24-1-9.87-.8-12.8,4.76-.3,20.64,6.34,21.64-1.9.68-5.58-15.5-15.12-21.26-13.09s-2.52,8.87-6.16,12.67c-4.16,4.34-9.64-1.2-13.47,1-2.69,1.55-1.42,17-1.52,20.41-.16,5,.13,6.75-6.31,5.2s-12.54-6.79-15.16,2.91c-1.88,7,3.82,11.68,2.84,17.73-6.43,1.31-10.56-6.63-16.66-6.59s-5.41,8.78-4.9,13.62c.62,5.9,5.79,11.73-2.45,12-6.26.24-12.46-3-18.75-3.59-1.9,3.46-1.86,8.65-.87,12.45.69,2.65,3.52,6.05,2.71,9-1.75,6.48-11.32-.44-15.49-1.63C513,401.65,512.63,402.78,511.39,397.7Z"/><path class="cls-5" d="M368.86,382.53a6.62,6.62,0,0,1-1.53.09c-.12-5.47,5.85-27.46,14.49-22.8,7.95,4.28-5.23,19.35-9.56,21.59-4.56,2.35-25.54-4.48-20.79,9,1.89,5.38,10.57.83,14.21-.92,4.31-2.08,3-2.63,6.8-.24,4.34,2.71,9.57,15.95,15.72,15.24s2.19-10.59.34-13.75c-2.18-3.73-7.3-8-12.14-5.62-1.63.81-2.56.85-2.46,3.08"/><polyline class="cls-5" points="358.18 396.27 302.74 483.08 304.74 494.08 371.14 396.27"/><line class="cls-5" x1="253.42" y1="368.56" x2="257.74" y2="484.08"/><line class="cls-5" x1="276.74" y1="339.08" x2="272.74" y2="489.08"/><line class="cls-5" x1="288.78" y1="500.42" x2="288.78" y2="331.5"/><polyline class="cls-5" points="302.74 346.6 302.74 512.79 316.63 526.45 480.13 356.85"/><path class="cls-5" d="M257.74,295.42c11.74,11.56,65.27,61.74,148,62.66,59.91.67,103.23-24.84,120-36"/><path class="cls-5" d="M272.74,286.9c10.49,10.62,62.31,60.87,140,59.18,39.35-.85,69.49-14.69,86-24"/><polyline class="cls-5" points="670.74 169.08 670.74 120.95 715.74 82.08"/><path class="cls-5" d="M588.89,139.47c4.81,12.34,23.31,55.26,69.85,77.61a134.5,134.5,0,0,0,53,13"/><path class="cls-5" d="M713.5,174.92a152.26,152.26,0,0,1-118.76-35.84"/><path class="cls-5" d="M709.66,186.16a109,109,0,0,1-49.65-.52,114.39,114.39,0,0,1-42.79-20.8"/><path class="cls-5" d="M703.88,211.93a108.93,108.93,0,0,1-48.09-12.4,114.49,114.49,0,0,1-36.55-30.46"/><path class="cls-5" d="M703.11,161.47c-3.89-2.3-6.66-6.86-10.07-9.86-2.74-2.41-7.66-5.15-9-8.73-1.15-3,.42-7.25,2.11-9.6,2.79-3.87,12.2-12.2,17-13.25,5.6,4.63-4.22,14.19-5.64,19-1.62,5.48.92,9.23,5.2,12.65"/><path class="cls-5" d="M687.52,243.46c-.91,8.95,11.12,13.3,12,21.09.56,5.3-11.14,9.46-14.61,13.47-8.27,9.57,6.47,34.81,19.08,32.21,1.1-3.22,1.66-7.51.68-10.88-1.43-4.91-5.5-4-7.52-7.27-2.37-3.87,2.64-9.38,4.69-12.21a26.23,26.23,0,0,0,5.34-12.52c1.33-9.37-.45-23.62-10-28.35-2.2-1.09-6.61-2.53-8.17-.36C687.67,240.42,689,246.08,687.52,243.46Z"/><line class="cls-5" x1="676.01" y1="320.55" x2="679.2" y2="230.5"/><polyline class="cls-5" points="679.2 167.27 679.2 125.58 715.74 97.31"/><line class="cls-5" x1="142.61" y1="346.6" x2="284.04" y2="281.52"/><line class="cls-5" x1="667.04" y1="320.72" x2="667.5" y2="230.08"/><path class="cls-5" d="M260.74,49.08l66.72,87.3a264.21,264.21,0,0,0,2.28,91.7c6.88,33.61,14.29,69.81,43,84,16.78,8.29,34,5.68,45,4,35-5.32,57.16-27.36,65-36"/><line class="cls-5" x1="548.62" y1="140.75" x2="608.74" y2="53.08"/><path class="cls-5" d="M334.21,132.08a329.72,329.72,0,0,1,208.53,8"/><polyline class="cls-5" points="313.55 53.08 340.74 91.08 364.86 92.73 353.84 53.08"/><polyline class="cls-5" points="408.74 53.08 411.13 84.31 449.81 85.91 454.89 51.01"/><polyline class="cls-5" points="516.58 53.08 505.05 83.11 537.63 103.16 556.26 55.43"/><polyline class="cls-5" points="573.74 56.08 540.09 117.2 494.49 100.75 502.48 53.08"/><polyline class="cls-5" points="473.74 57.03 467.36 96.92 401.73 96.92 391.32 49.08"/><polyline class="cls-5" points="369.91 51.01 378.74 103.08 328.79 103.08 297.5 49.08"/><path class="cls-5" d="M249.67,306.34a347.54,347.54,0,0,1-47.93,74.74,347.23,347.23,0,0,1-53,51"/><path class="cls-5" d="M280.1,331.5a421.9,421.9,0,0,1-55.36,78.58,422,422,0,0,1-85,73"/><path class="cls-5" d="M260.57,326.74c3.9-.11,13.13,2.56,16.4.38,4.52-3-.13-7.49-2.82-9.52-5.78-4.34-19.54-8-22.66.58-2.58,7.05.9,12.71.93,19.31,0,9.08-10.18,2.77-14.95,1.49a42.68,42.68,0,0,0,1.08,12.74c.37,1.59,2.81,8,1.53,9.57-1.5,1.8-10.06.43-12.17.42-5.35,0-10.39-.11-15.45,1.84,0,7.94,9.14,17.58,0,21.85-3.05,1.42-11.64,2.45-12.66,6.26-.43,1.58,1.74,4.79,2.21,6.41a26.91,26.91,0,0,1,.89,7.84c0,4.33.13,6-4.52,7.12-5.55,1.31-13.59-4.06-18.11-2.28-5,2-1.26,16.33-1.51,21.31-5.06.54-9.27-3.76-13.85-3.14-6.1.82-5.18,9.39-5.16,14.34,0,5.46.06,11.33-6.64,12.91-5,1.17-8.33-3.74-12.92-3.61-1.8,5.83,0,8.78,5.94,10.31,3.61.93,12.43,3,15.8.94,7.14-4.33,2.82-13.09,5.09-18.81,1.49-3.75,1.59-2,6.25-1.15,4.22.78,8.17,1.11,12.06-1.11,10.72-6.11,2.35-15.65,3.6-24.21,4.91-.18,18.26,3,21.88-.24,4.35-3.94,1.44-16.08.73-21.08,6.28-.34,17.76,2.51,20.38-5.45,2-6.23-2.52-17.78-5.45-23.2,5.82,4,15.82,4,20.73-1.82,3.74-4.44,2.12-12.05,2-17.72,5.88,0,14.67-2,14.17-10-.29-4.71-6.13-8.07-6.85-12.69C259.49,325.8,262.54,325.75,260.57,326.74Z"/><path class="cls-5" d="M556.43,310.27c-24.63,21.44-71.27,54.86-134.69,59.81a207,207,0,0,1-32,0"/><path class="cls-5" d="M294.68,334.44a171.08,171.08,0,0,0,72.06,32.64"/><line class="cls-5" x1="305.74" y1="361.08" x2="314.88" y2="350.76"/><line class="cls-5" x1="327.51" y1="358.09" x2="305.74" y2="377.91"/><line class="cls-5" x1="307.74" y1="386.08" x2="336.94" y2="367.08"/><line class="cls-5" x1="353.17" y1="370.7" x2="307.74" y2="402.79"/><line class="cls-5" x1="307.74" y1="420.02" x2="359.74" y2="374.08"/><line class="cls-5" x1="305.74" y1="431.87" x2="350.77" y2="397.05"/><line class="cls-5" x1="310.31" y1="445.18" x2="345.61" y2="415.96"/><line class="cls-5" x1="307.74" y1="456.39" x2="327.51" y2="441.84"/><line class="cls-5" x1="449.64" y1="370.7" x2="449.64" y2="383.27"/><line class="cls-5" x1="441.6" y1="374.08" x2="444.74" y2="394.08"/><line class="cls-5" x1="427.06" y1="374.08" x2="435.74" y2="400.08"/><line class="cls-5" x1="417.87" y1="377.91" x2="427.06" y2="411.98"/><line class="cls-5" x1="403.74" y1="378.08" x2="417.87" y2="415.96"/><line class="cls-5" x1="391.74" y1="378.08" x2="405.74" y2="428.08"/><line class="cls-5" x1="388.2" y1="404.5" x2="394.74" y2="439.08"/><line class="cls-5" x1="376.52" y1="411.98" x2="383.79" y2="441.84"/><line class="cls-5" x1="371.14" y1="426.91" x2="373.46" y2="464.68"/><line class="cls-5" x1="363.74" y1="449.08" x2="363.74" y2="472.85"/><line class="cls-5" x1="353.17" y1="462.52" x2="353.17" y2="484.72"/><line class="cls-5" x1="339.38" y1="473.62" x2="339.74" y2="498.08"/><line class="cls-5" x1="330.45" y1="489.08" x2="330.45" y2="504.25"/><line class="cls-5" x1="336.94" y1="542.54" x2="594" y2="291.97"/><line class="cls-5" x1="523.2" y1="340.49" x2="322.34" y2="535.92"/><line class="cls-5" x1="346.6" y1="552.36" x2="606.28" y2="295.42"/><polyline class="cls-5" points="484.94 423.89 509.06 422.5 509.06 444.71"/><polyline class="cls-5" points="475.42 433.61 499.07 433.61 499.07 453.37"/><polyline class="cls-5" points="465.47 444.71 490.13 443.49 487.25 465.19"/><polyline class="cls-5" points="453.74 456.08 476.44 456.08 476.44 476.45"/><polyline class="cls-5" points="445.42 466.26 465.47 466.26 465.09 489.43"/><polyline class="cls-5" points="431.74 480.08 453.74 480.08 453.74 501.25"/><polyline class="cls-5" points="514.94 453.37 536.57 453.37 534.27 476.45"/><polyline class="cls-5" points="503.98 464.91 527.74 463.08 528.74 488.08"/><polyline class="cls-5" points="491.28 475.58 516.36 475.58 516.36 502.41"/><polyline class="cls-5" points="484.94 488.08 505.74 486.08 505.74 510.77"/><polyline class="cls-5" points="475.42 498.43 495.34 498.43 497 523.47"/><polyline class="cls-5" points="462.73 510.77 481.74 508.08 482.92 535.92"/><polyline class="cls-5" points="461.74 450.08 481.48 450.08 481.48 471.25"/><line class="cls-5" x1="440.8" y1="488.08" x2="509.06" y2="422.5"/><line class="cls-5" x1="536.57" y1="453.37" x2="474.93" y2="516.54"/><polyline class="cls-5" points="488.07 542.53 507.74 541.08 509.06 565.66"/><polyline class="cls-5" points="503.82 530.53 520.74 529.08 520.74 551.24"/><polyline class="cls-5" points="510.74 519.08 528.74 517.5 530.64 542.53"/><line class="cls-5" x1="501.74" y1="547.08" x2="532.03" y2="510.95"/><path class="cls-5" d="M625,340.49c-22.41,20.55-63.65,65-71.28,129.59a179.81,179.81,0,0,0-1,30"/><path class="cls-5" d="M625,367.08c-15.24,16-38.88,45.9-48.28,89a176.19,176.19,0,0,0-4,34"/><path class="cls-5" d="M631.05,388.39a256.26,256.26,0,0,0-43.31,105.69"/><path class="cls-5" d="M641.74,402.79a170.11,170.11,0,0,0-39,99.29"/><polyline class="cls-5" points="668.5 407.29 667.27 765.49 712.51 799.91"/><polyline class="cls-5" points="679.2 400.08 679.2 759.15 713.5 784.51"/><path class="cls-5" d="M695.26,407.74c4.41,0,9,6.71,9.93,10.88,1.86,8-3.43,12.58-8.52,17.82-1.55,1.6-9.89,8.05-9.64,11.16.46,5.9,18.18,15.74,21.89,21.43,8,12.34-3.1,17.9-11.85,26.91-2.55,2.63-10.58,8.27-10.91,11.85-.62,6.72,7.82,6.93,10.73,11.53,8.5,13.45.82,35.86-6.16,47.62-9.18,15.49,8.68,15.18,12.64,28.7,4.49,15.35-12.53,21.57-17.18,32.71-5.94,14.2,15.64,16,13.66,31.81-1.32,10.59-16.76,17.84-16.51,27.64.24,9.17,17.43,17.39,20.36,27.22,3.73,12.54-8.92,18.32-11.58,29.58-1.69,7.13-1.35,14.89,7.55,14.5.64-13.75,2.06-17.91,7.41-30,7.7-17.39-3.6-20.52-8.7-35.34-6.07-17.63,4-20.86,9.53-35.77,5.7-15.3-6.46-21.76-5.47-36.4.95-14.05,8.23-23.37,2.08-35.69-7.92-15.83-1.65-18.22,2.33-35.07,1.56-6.61,2.27-15.69,1.1-22.44-1.49-8.65-9.28-14.52-10.94-22.81-2-9.93,5.09-9.31,9.9-17,3.31-5.33,4.32-12.76,3.74-18.95-.94-10.24-8-10.09-11.65-18.45-3.82-8.69,4.06-10,8.46-17.6,7.71-13.35-.55-16.06-10.27-21.14C698,413.76,699.29,414.24,695.26,407.74Z"/><polygon class="cls-5" points="371.14 551.24 403.74 523.47 431.74 547.08 403.74 579.67 371.14 551.24"/><polygon class="cls-5" points="383.79 552.36 401.44 535.92 417.87 547.08 401.44 565.66 383.79 552.36"/><path class="cls-4" d="M402.42,922c.12-4.12-4.32-8.28-7.22-10.72-5.1-4.28-9.89-8.18-13.82-13.68-1.25-1.75-6.49-11-9.92-7.22"/><path class="cls-5" d="M393,919.26c-11-.18-21.08,4.59-32.24,1.45-5.69-1.6-11.39-4.37-16.84-6.65-2.66-1.11-5.52-2.1-7.31-4.36,11-3.9,21.2-3.86,32.81-4.53,2.5-.14,8.67-3.09,10.59-1.87"/><path class="cls-5" d="M384.51,916.64c1.37-9.46-19.22-11.78-25.27-10.71-6.46,1.15-5.63,5.21-2.65,9.3"/><path class="cls-5" d="M379.15,919.18c1-5.84-7.18-7.72-11.54-7-3,.46-4.76,4.54-3.12,7.33"/><path class="cls-5" d="M400.59,925.38c-7.59,9.47-21.78,9.85-32.93,8.5-6-.72-12.75-1.62-18.35-3.83-1.7-.67-4-1.47-5.13-3"/><path class="cls-5" d="M349.26,942.59c4.54-.13,9.29,1.24,13.73,2a101.06,101.06,0,0,0,20.5,1.14c4.22-.15,9.24-1.15,11.46-5.1"/><path class="cls-5" d="M469.59,927.59c-7,6.64-19.45,7.66-27.5,2.93-4.67-2.74-6.83-7.21-11.06-10.07"/><path class="cls-5" d="M467.8,940.8c-8.15,4.77-24.12,7.78-31.78,1-11.45-10.14-10.12-27.92-5.76-41.33,2.86-8.77,11-18.85,7.22-28.92-1.83-4.82-12.42-7.55-16.09-3.56"/><path class="cls-5" d="M412.82,865.84c-6.27.4-23.27-8.1-26.77-1.73-3.62,6.6,5.57,17.62,12.5,17.08"/><path class="cls-5" d="M469.94,914c-3.3,4.25-15.12,6.54-20.87,6.81-3.49.16-12.49,1.48-14.83-1.82"/><path class="cls-5" d="M471.73,912.24c-3-3.87-9.16-4.87-13.61-6.16-4-1.16-8.47-2.77-12.72-2-6.28,1.08-10.1,8.71-13.3,13.56"/><path class="cls-5" d="M459.59,918c0-5.94-1.85-10.66-8.87-11-6-.28-12.69,9.59-9,14.91"/><path class="cls-5" d="M453.16,917.6c3-8.25-9.94-4.63-6.78,1.78"/><path class="cls-5" d="M439.29,833.37c-.1,2-4,3.73-5.53,4.61-2.5,1.43-5.79,2.78-8.81,2.3-4.1-.66-6-5.75-10.44-3.95-5.78,2.35-12.05,7-18.74,6-2.78-.41-4-3.24-6.74-3.93"/><path class="cls-5" d="M397.52,826c1.64-.43,3.14-1.83,4.72-2.52a24.34,24.34,0,0,1,10.35-1.85c4.55.05,7.34,2.45,11.32,4.14"/><path class="cls-5" d="M423,811.8c-6.06-.39-10.67,2-16.06-1.61"/><path class="cls-5" d="M335.63,973.33c0-28.61,3.73-57.34-2.14-85.56-4.15-20-6.64-40.64-15.74-58.93-5.9-11.87-10.05-37.4-28.08-38.07-11-.41-11.2,19.7-10,26.31,1,5.5,6.91,13.49,11.76,5.83,2.64-4.17-2.59-13.6-4.82-7.6"/><path class="cls-5" d="M290.62,831.31c-19.43,1-27.07-36.06-9.5-44.5"/><path class="cls-5" d="M282.62,832.81c-13.45,1.13-27.53-20.49-23-33"/><path class="cls-5" d="M265.12,841.31c-14.31,0-12-27-12-37.5-.52,12.26,7,35.63,22,34"/><path class="cls-5" d="M255.12,848.81c-14,2.67-18.23-28.38-12-37"/><path class="cls-5" d="M246.12,852.32c-6.87-1.22-12.23-17.22-13.07-22.83-.76-5.12-1.74-13.75.06-18.68"/><path class="cls-5" d="M234.12,863.82c-10.44,1.36-19.07-9.64-22.32-18.27a26.89,26.89,0,0,1,5.81-27.74"/><path class="cls-5" d="M308.14,792.13c.69-8.15-10-12.59-16.91-11.7s-13.65,5.2-19.51,8.59c-3.08,1.77-5.8,4.76-9,4.85-5,.15-7,.6-10.26,4.8a41.39,41.39,0,0,0-2.72,4c-.15-5.67-6.5,3.61-7.38,4.09-2.1,1.13-4-.87-6.66.46s-3.75,3.61-6.17,3.84c-3.55.35-4.85.08-8.2,2.33a54,54,0,0,1-6.05,4"/><path class="cls-5" d="M253.77,955c0-24.64.6-49.21-1.89-73.74-.52-5.1-.67-12-4-16.2"/><path class="cls-5" d="M266.41,952c0-22.15,1.18-45.19-4-66.91-1.8-7.61-6.16-15.29-6.93-23"/><path class="cls-5" d="M275.52,955.55c0-14.47,1.24-28.87,1.45-43.33.19-13.19.29-26-4.68-38.45a109.1,109.1,0,0,0-6.13-13.86c-.86-1.51-2.2-3-2.7-4.58"/><path class="cls-5" d="M287.57,955c0-25.21.41-50.61-6.61-75.1C278,869.61,276.07,857.6,271.4,848"/><path class="cls-5" d="M299,958.49c0-29.85,1.22-58.7-6.73-87.69C289.89,862,286,854.65,282,847.1"/><path class="cls-5" d="M309.32,964.66c.05-20.07,3.55-40,3.3-60.13-.19-16.19-3.83-30.56-8.37-45.94-2.12-7.19-5.82-15.74-11.1-21.19"/><path class="cls-5" d="M317.55,964.66c0-18.6-.37-37.24.07-55.83.32-13.84-2-27.13-3.74-40.81-1.35-10.35-4.16-21.55-12.21-28.57"/><path class="cls-5" d="M323.43,966.43c1.71-6.45,3.63-12.83,4.77-19.44,1.84-10.66,1.34-21.39,1.4-32.17.09-14.93-2.87-29.31-6.75-43.68-2.23-8.26-5.64-15.92-9.07-23.72-1.17-2.65-2.17-7-4.46-8.85"/><path class="cls-5" d="M302.26,964.08c-.11-5.18,2.41-10.65,3.35-15.71a157.17,157.17,0,0,0,2.54-29.52c0-8.19.6-16.47-1-24.54A157.83,157.83,0,0,0,301.25,872c-4.24-11.94-11.69-22.4-16.33-34"/><path class="cls-5" d="M305.23,827.62c-2.27,5.13-7.81,5.38-12.38,7-4.13,1.5-8.49,3.36-13,1.3-3.21-1.46-10.27,9.12-11.9,4.76"/><path class="cls-5" d="M272.31,847.06c-6.71.82-12.93,2.86-19.83,2.77"/><path class="cls-5" d="M257.63,856.18c-3,1.2-9.83,4.3-12.69,1.59"/><path class="cls-5" d="M248.91,862.92c-5.26.7-17.86,5.7-22.61,2"/><path class="cls-5" d="M476.71,861.6c-.4-7,3.41-12.92,7.66-18.1,4.67-5.69,10.93-12.21,19.1-11.69,3.81.24,5.85,4.09,4.3,8.14-1.2,3.13-4.85,4.14-7.93,4"/><path class="cls-5" d="M490.1,846.39c2.39,11.59,14.24,13,23.17,8.75,9.87-4.74,7.39-16,2.93-24-1.41-2.53-4.08-7.92-6.77-9.35-3.49-1.85-11-.87-14.79-.09-8.1,1.65-18.52,10.54-21.58,18.31"/><path class="cls-5" d="M506.83,812.61c-9.89,0-21.49-1.49-30.39,3.86-3.61,2.18-9.17,6.15-11,10.14"/><path class="cls-5" d="M491.92,803.79c-10,.07-21.62,2.18-27.68,10.35"/><path class="cls-5" d="M484.32,795.58c.15-.42.43-.39.3-.88-5.9.45-13.77,3-19.26,5.27-2.95,1.23-6.16,2.82-7.82,5.65"/><path class="cls-5" d="M472.15,788c-4.84-.33-11.64,2-15.36,5.12-1.86,1.57-2.58,3.78-3.81,5.53"/><path class="cls-5" d="M470.93,783.71H456.78c-4.72,0-10.8-1.22-15.27.12-3.59,1.08-5.12,4.42-6.18,7.79"/><path class="cls-5" d="M166.42,769.54c0,7.23-3.43,12.79-8.52,18.74-2.63,3.08-5.72,4.84-9.23,6.86-1.35.78-6.32,4.75-7.94,4.2-6.32-2.16,10.49-31.15-4.08-29.47"/><path class="cls-5" d="M100,772.49c5.51,3.74,13,.39,18.49-1.56,6.45-2.28,12.3-1.93,18.79-3.33,4.66-1,6.7-8.52,3.84-12.24-4-5.2-22.63-3.52-26.2,2.28-2,3.16-1.16,10.23,6,9.94,2.1,0,5.47.31,8.85.41"/><path class="cls-5" d="M130.76,749.59c2.81,0,8,.13,8.2-3.74.43-6.66-15.47-6-19.32-6.1-3.18,0-12,.33-7.41,5.43C115.76,749.07,123.42,748.13,130.76,749.59Z"/><path class="cls-5" d="M115.71,755.48c-5.55-.8-16.75,6.89-19.95,11.12"/><path class="cls-5" d="M108.19,745.66c-1.93-.54-19.63-.72-17.34,3.93"/><path class="cls-5" d="M120.62,732.25c3.74,0,8.61,1,12.16,0,5.7-1.56,1.83-5.13-2.23-5.84-2.46-.42-9.13-2-9.63,1.26-.43,2.87,4.41,6.28,6.89,5.2"/><path class="cls-5" d="M118,721.13c-4.27,0-32.39-3.69-25.19,7.52"/><path class="cls-5" d="M116.69,715.24c3.93,0,19.32,2.12,20.29-1.92,1.73-7.26-14.95-2.16-17.69-.7a3.23,3.23,0,0,0,2.63,2"/><path class="cls-5" d="M114.4,704.77a132.08,132.08,0,0,0-30.07-1.26,6.51,6.51,0,0,0,0,1.59"/><path class="cls-5" d="M165.44,768.24c.93-3.55,2.85-6.83,4-10.35,2.32-7.26,2.63-15.13,2.15-22.71-.63-9.87-5.95-23-15.91-27.18-2.29-1-11.36-1-12.14-3.23"/><path class="cls-5" d="M210.15,821.07Q196.5,812.52,182.41,804q-10-6.09-20-12"/><path class="cls-5" d="M292.75,703.34c6.85-1.78-3.41-7.78-4.81-8.78-6.77-4.85-12.64-11.65-17.44-18.33-2.06-2.87-7.33-9-11.64-6.48-6.57,3.78,1.33,19.9,3.7,24.33,1.79,3.37,8.25,9.19,5.4,13.31-5.32,7.69-14.52-1.76-19-3.71-14.13-6.06-1.93,24.13-1.21,29.61-5-.19-30.42-16.26-23.63,1,1.23,3.13,8.61,11.47,6,15.39-3.91,5.89-14.63-3.49-18.9-3.52-9.22-.06-1,16.2.77,20.19,3.2,7.29-1,11.18-7.1,5.63-1.77-1.62-7.69-7.91-10.88-4.25-2,2.23,1,9.86.8,12.8-4.76.29-20.64-6.34-21.65,1.9-.68,5.57,15.5,15.12,21.27,13.09s2.52-8.88,6.15-12.67c4.17-4.35,9.65,1.2,13.48-1,2.69-1.55,1.42-17,1.52-20.4.15-5.06-.14-6.76,6.3-5.21s12.55,6.79,15.16-2.9c1.88-7-3.81-11.68-2.83-17.73,6.43-1.31,10.55,6.62,16.66,6.58s5.4-8.78,4.9-13.62c-.62-5.89-5.8-11.72,2.45-12,6.26-.24,12.46,3,18.74,3.59,1.91-3.45,1.87-8.65.88-12.45-.69-2.65-3.52-6-2.72-9,1.75-6.47,11.32.44,15.49,1.63C291.17,699.39,291.51,698.26,292.75,703.34Z"/><path class="cls-5" d="M435.29,718.51a5.62,5.62,0,0,1,1.52-.09c.12,5.46-5.84,27.46-14.49,22.8-7.95-4.28,5.23-19.35,9.57-21.6,4.55-2.35,25.53,4.49,20.79-9-1.9-5.37-10.58-.82-14.21.93-4.32,2.08-3,2.63-6.81.23-4.33-2.7-9.56-15.94-15.71-15.23s-2.19,10.58-.34,13.75c2.17,3.73,7.29,8,12.13,5.62,1.63-.81,2.56-.86,2.46-3.08"/><polyline class="cls-5" points="445.96 704.76 501.4 617.95 499.4 606.95 433.01 704.76"/><line class="cls-5" x1="550.73" y1="732.47" x2="546.4" y2="616.95"/><line class="cls-5" x1="527.41" y1="761.95" x2="531.4" y2="611.95"/><line class="cls-5" x1="515.36" y1="600.62" x2="515.37" y2="769.53"/><polyline class="cls-5" points="501.41 754.44 501.4 588.24 487.51 574.58 324.02 744.19"/><path class="cls-5" d="M546.41,805.62c-11.75-11.57-65.27-61.74-148-62.66-59.92-.67-103.24,24.85-120,36"/><path class="cls-5" d="M531.41,814.14c-10.49-10.62-62.32-60.88-140-59.18-39.35.85-69.49,14.69-86,24"/><polyline class="cls-5" points="133.41 931.96 133.41 980.1 88.41 1018.97"/><path class="cls-5" d="M215.26,961.57C210.45,949.24,192,906.32,145.41,884a134.63,134.63,0,0,0-53-13"/><path class="cls-5" d="M90.65,926.13A152.2,152.2,0,0,1,209.41,962"/><path class="cls-5" d="M94.49,914.89a109,109,0,0,1,49.65.51,114.29,114.29,0,0,1,42.79,20.81"/><path class="cls-5" d="M100.27,889.11a109.11,109.11,0,0,1,48.09,12.41A114.37,114.37,0,0,1,184.91,932"/><path class="cls-5" d="M101,939.57c3.89,2.31,6.66,6.86,10.07,9.86,2.74,2.41,7.67,5.15,9,8.73,1.15,3-.41,7.25-2.11,9.6-2.79,3.88-12.2,12.21-17,13.25-5.59-4.63,4.22-14.18,5.64-19,1.62-5.47-.92-9.22-5.2-12.64"/><path class="cls-5" d="M116.63,857.59c.91-9-11.12-13.31-11.95-21.1-.56-5.29,11.13-9.45,14.6-13.46,8.28-9.57-6.47-34.81-19.07-32.21-1.1,3.22-1.66,7.51-.68,10.87,1.42,4.91,5.5,4,7.52,7.27,2.36,3.88-2.64,9.39-4.69,12.22A26.2,26.2,0,0,0,97,833.69c-1.33,9.37.45,23.63,10,28.36,2.2,1.09,6.61,2.53,8.17.35C116.48,860.63,115.13,855,116.63,857.59Z"/><line class="cls-5" x1="128.13" y1="780.5" x2="124.95" y2="870.54"/><polyline class="cls-5" points="124.95 933.78 124.95 975.46 88.41 1003.74"/><line class="cls-5" x1="661.53" y1="754.44" x2="520.11" y2="819.52"/><line class="cls-5" x1="137.11" y1="780.32" x2="136.65" y2="870.96"/><path class="cls-5" d="M543.41,1052l-66.72-87.29A264.25,264.25,0,0,0,474.41,873c-6.88-33.6-14.29-69.81-43-84-16.78-8.29-34-5.68-45-4-35,5.32-57.16,27.36-65,36"/><line class="cls-5" x1="255.53" y1="960.29" x2="195.41" y2="1047.96"/><path class="cls-5" d="M469.94,969a329.65,329.65,0,0,1-81.53,13,333,333,0,0,1-127-21"/><polyline class="cls-5" points="490.61 1047.95 463.41 1009.96 439.3 1008.3 450.31 1047.95"/><polyline class="cls-5" points="395.41 1047.96 393.02 1016.73 354.34 1015.13 349.26 1050.03"/><polyline class="cls-5" points="287.57 1047.96 299.1 1017.93 266.52 997.88 247.89 1045.62"/><polyline class="cls-5" points="230.41 1044.96 264.06 983.84 309.67 1000.28 301.68 1047.96"/><polyline class="cls-5" points="330.41 1044.01 336.79 1004.12 402.42 1004.12 412.83 1051.96"/><polyline class="cls-5" points="434.25 1050.02 425.41 997.96 475.36 997.96 506.65 1051.95"/><path class="cls-5" d="M554.48,794.7A346.88,346.88,0,0,1,655.4,669"/><path class="cls-5" d="M524,769.53A421.7,421.7,0,0,1,664.4,618"/><path class="cls-5" d="M543.58,774.3c-3.91.1-13.13-2.56-16.4-.39-4.52,3,.12,7.5,2.82,9.52,5.78,4.34,19.54,8,22.66-.57,2.58-7.06-.9-12.72-.93-19.32-.05-9.07,10.17-2.77,14.94-1.49a42.7,42.7,0,0,0-1.08-12.74c-.36-1.58-2.8-8-1.53-9.56,1.51-1.81,10.07-.43,12.17-.43,5.36,0,10.39.11,15.45-1.84,0-7.93-9.13-17.57,0-21.85,3-1.42,11.63-2.45,12.66-6.26.42-1.58-1.74-4.78-2.22-6.41a26.89,26.89,0,0,1-.89-7.83c0-4.34-.13-6,4.52-7.13,5.55-1.31,13.6,4.06,18.11,2.28,5-2,1.26-16.32,1.51-21.31,5.07-.54,9.28,3.76,13.85,3.14,6.1-.82,5.18-9.39,5.16-14.34,0-5.46-.06-11.33,6.64-12.9,5-1.18,8.33,3.73,12.93,3.6,1.79-5.83,0-8.77-5.94-10.31-3.62-.93-12.43-3-15.8-.94-7.15,4.34-2.83,13.09-5.1,18.81-1.49,3.75-1.59,2-6.24,1.15-4.23-.77-8.17-1.11-12.07,1.11-10.72,6.11-2.34,15.65-3.59,24.21-4.92.19-18.27-3-21.89.24-4.35,4-1.44,16.08-.73,21.08-6.28.35-17.75-2.51-20.37,5.45-2.06,6.23,2.51,17.78,5.44,23.21-5.81-4-15.82-4-20.72,1.81-3.74,4.44-2.12,12.05-2,17.73-5.88,0-14.67,2-14.18,10,.3,4.72,6.14,8.07,6.86,12.7C544.66,775.23,541.61,775.28,543.58,774.3Z"/><path class="cls-5" d="M247.72,790.77C272.35,769.33,319,735.91,382.41,731a204.51,204.51,0,0,1,32,0"/><path class="cls-5" d="M509.46,766.59a170.79,170.79,0,0,0-72-32.63"/><line class="cls-5" x1="498.41" y1="739.95" x2="489.27" y2="750.27"/><line class="cls-5" x1="476.63" y1="742.94" x2="498.4" y2="723.13"/><line class="cls-5" x1="496.4" y1="714.95" x2="467.21" y2="733.95"/><line class="cls-5" x1="450.98" y1="730.33" x2="496.4" y2="698.24"/><line class="cls-5" x1="496.4" y1="681.01" x2="444.4" y2="726.96"/><line class="cls-5" x1="498.4" y1="669.16" x2="453.37" y2="703.99"/><line class="cls-5" x1="493.83" y1="655.86" x2="458.53" y2="685.08"/><line class="cls-5" x1="496.4" y1="644.64" x2="476.63" y2="659.19"/><line class="cls-5" x1="354.5" y1="730.34" x2="354.5" y2="717.77"/><line class="cls-5" x1="362.54" y1="726.96" x2="359.4" y2="706.96"/><line class="cls-5" x1="377.09" y1="726.96" x2="368.4" y2="700.96"/><line class="cls-5" x1="386.28" y1="723.13" x2="377.09" y2="689.06"/><line class="cls-5" x1="400.4" y1="722.96" x2="386.28" y2="685.08"/><line class="cls-5" x1="412.4" y1="722.96" x2="398.4" y2="672.96"/><line class="cls-5" x1="415.95" y1="696.54" x2="409.4" y2="661.96"/><line class="cls-5" x1="427.62" y1="689.06" x2="420.35" y2="659.19"/><line class="cls-5" x1="433.01" y1="674.12" x2="430.69" y2="636.35"/><line class="cls-5" x1="440.4" y1="651.96" x2="440.4" y2="628.18"/><line class="cls-5" x1="450.98" y1="638.52" x2="450.98" y2="616.31"/><line class="cls-5" x1="464.76" y1="627.42" x2="464.4" y2="602.95"/><line class="cls-5" x1="473.69" y1="611.95" x2="473.69" y2="596.79"/><line class="cls-5" x1="467.2" y1="558.5" x2="210.15" y2="809.07"/><line class="cls-5" x1="280.94" y1="760.55" x2="481.8" y2="565.11"/><line class="cls-5" x1="457.54" y1="548.68" x2="197.86" y2="805.62"/><polyline class="cls-5" points="319.21 677.15 295.08 678.54 295.08 656.33"/><polyline class="cls-5" points="328.73 667.43 305.07 667.43 305.07 647.67"/><polyline class="cls-5" points="338.68 656.33 314.01 657.55 316.9 635.85"/><polyline class="cls-5" points="350.4 644.96 327.7 644.96 327.7 624.59"/><polyline class="cls-5" points="358.73 634.78 338.68 634.78 339.05 611.61"/><polyline class="cls-5" points="372.4 620.96 350.4 620.96 350.4 599.78"/><polyline class="cls-5" points="289.2 647.67 267.57 647.67 269.88 624.6"/><polyline class="cls-5" points="300.17 636.13 276.4 637.96 275.4 612.96"/><polyline class="cls-5" points="312.86 625.46 287.78 625.46 287.78 598.63"/><polyline class="cls-5" points="319.2 612.96 298.4 614.96 298.4 590.27"/><polyline class="cls-5" points="328.72 602.61 308.8 602.61 307.14 577.57"/><polyline class="cls-5" points="341.42 590.26 322.4 592.96 321.22 565.12"/><polyline class="cls-5" points="342.4 650.96 322.67 650.96 322.67 629.79"/><line class="cls-5" x1="363.34" y1="612.96" x2="295.09" y2="678.54"/><line class="cls-5" x1="267.57" y1="647.67" x2="329.21" y2="584.5"/><polyline class="cls-5" points="316.07 558.5 296.4 559.96 295.08 535.38"/><polyline class="cls-5" points="300.32 570.51 283.4 571.96 283.4 549.81"/><polyline class="cls-5" points="293.4 581.96 275.4 583.54 273.5 558.51"/><line class="cls-5" x1="302.4" y1="553.96" x2="272.11" y2="590.09"/><path class="cls-5" d="M179.13,760.56c22.4-20.56,63.65-65,71.27-129.6a178.75,178.75,0,0,0,1-30"/><path class="cls-5" d="M179.13,734c15.23-16,38.87-45.89,48.27-89a176.19,176.19,0,0,0,4-34"/><path class="cls-5" d="M173.09,712.66A256,256,0,0,0,197.4,670a256.6,256.6,0,0,0,19-63"/><path class="cls-5" d="M162.4,698.25a170.11,170.11,0,0,0,39-99.29"/><polyline class="cls-5" points="135.65 693.75 136.87 335.55 91.63 301.14"/><polyline class="cls-5" points="124.94 700.96 124.93 341.89 90.63 316.54"/><path class="cls-5" d="M108.88,693.3c-4.4,0-9-6.71-9.92-10.87-1.87-8,3.42-12.59,8.51-17.83,1.55-1.59,9.89-8,9.65-11.15-.47-5.91-18.19-15.74-21.9-21.43-8-12.34,3.1-17.91,11.85-26.92,2.55-2.62,10.58-8.27,10.91-11.84.62-6.72-7.82-6.94-10.73-11.54-8.49-13.44-.82-35.86,6.16-47.61,9.18-15.5-8.68-15.18-12.64-28.7C96.28,490.06,113.3,483.83,118,472.7c5.94-14.21-15.65-16-13.67-31.81,1.33-10.6,16.77-17.84,16.51-27.64-.23-9.17-17.43-17.39-20.35-27.22-3.74-12.54,8.91-18.32,11.58-29.58,1.68-7.13,1.35-14.9-7.56-14.5-.64,13.75-2.06,17.91-7.41,30-7.69,17.39,3.61,20.52,8.7,35.34,6.07,17.63-4,20.85-9.52,35.77-5.71,15.3,6.46,21.76,5.47,36.4-1,14-8.24,23.36-2.08,35.68,7.92,15.83,1.65,18.23-2.33,35.07-1.56,6.62-2.27,15.7-1.1,22.45,1.49,8.65,9.28,14.52,10.94,22.81,2,9.93-5.09,9.31-9.9,17-3.31,5.32-4.31,12.76-3.74,19,1,10.24,8,10.08,11.65,18.45,3.82,8.68-4.06,10-8.45,17.6-7.72,13.35.54,16.06,10.26,21.14C106.19,687.28,104.85,686.81,108.88,693.3Z"/><polygon class="cls-5" points="433 549.8 400.4 577.57 372.4 553.96 400.4 521.37 433 549.8"/><polygon class="cls-5" points="420.35 548.68 402.7 565.11 386.27 553.96 402.7 535.38 420.35 548.68"/><rect class="cls-5" x="93.24" y="52.58" width="624" height="1004"/><path class="cls-5" d="M173.09,465.2a247.18,247.18,0,0,1,23.15,64.38,247.06,247.06,0,0,1,5,61"/><path class="cls-5" d="M187.28,454.34a203,203,0,0,1,28.46,62.74,202.7,202.7,0,0,1,6,66"/><path class="cls-5" d="M204.78,445.8a249.43,249.43,0,0,1,28,81.28,248.91,248.91,0,0,1,1,71"/><path class="cls-5" d="M215.38,436.52c12.54,17.58,32.43,50.91,37.36,96.56a197.51,197.51,0,0,1-1,50"/><path class="cls-5" d="M226,416a272.44,272.44,0,0,1,41.79,106.12,272.35,272.35,0,0,1-6,116"/><path class="cls-5" d="M577.54,685.08a384.14,384.14,0,0,1-37.8-222"/><path class="cls-5" d="M591.19,669a243,243,0,0,1-38.45-154.87"/><path class="cls-5" d="M602.74,659.19a228.86,228.86,0,0,1-33-157.11"/><path class="cls-5" d="M615.07,644.64a168.65,168.65,0,0,1-30.14-79.53,166,166,0,0,1,3.81-56"/><path class="cls-5" d="M632.39,631.46a157,157,0,0,1-26.65-121.38"/></svg>